G04 #@! TF.GenerationSoftware,KiCad,Pcbnew,(6.0.7-1)-1*
G04 #@! TF.CreationDate,2022-08-10T01:24:52+02:00*
G04 #@! TF.ProjectId,6502_computer,36353032-5f63-46f6-9d70-757465722e6b,REV*
G04 #@! TF.SameCoordinates,Original*
G04 #@! TF.FileFunction,Legend,Top*
G04 #@! TF.FilePolarity,Positive*
%FSLAX46Y46*%
G04 Gerber Fmt 4.6, Leading zero omitted, Abs format (unit mm)*
G04 Created by KiCad (PCBNEW (6.0.7-1)-1) date 2022-08-10 01:24:52*
%MOMM*%
%LPD*%
G01*
G04 APERTURE LIST*
G04 Aperture macros list*
%AMRoundRect*
0 Rectangle with rounded corners*
0 $1 Rounding radius*
0 $2 $3 $4 $5 $6 $7 $8 $9 X,Y pos of 4 corners*
0 Add a 4 corners polygon primitive as box body*
4,1,4,$2,$3,$4,$5,$6,$7,$8,$9,$2,$3,0*
0 Add four circle primitives for the rounded corners*
1,1,$1+$1,$2,$3*
1,1,$1+$1,$4,$5*
1,1,$1+$1,$6,$7*
1,1,$1+$1,$8,$9*
0 Add four rect primitives between the rounded corners*
20,1,$1+$1,$2,$3,$4,$5,0*
20,1,$1+$1,$4,$5,$6,$7,0*
20,1,$1+$1,$6,$7,$8,$9,0*
20,1,$1+$1,$8,$9,$2,$3,0*%
G04 Aperture macros list end*
%ADD10C,0.150000*%
%ADD11C,0.120000*%
%ADD12C,0.100000*%
%ADD13C,0.500000*%
%ADD14R,3.500000X3.500000*%
%ADD15RoundRect,0.750000X-0.750000X-1.000000X0.750000X-1.000000X0.750000X1.000000X-0.750000X1.000000X0*%
%ADD16RoundRect,0.875000X-0.875000X-0.875000X0.875000X-0.875000X0.875000X0.875000X-0.875000X0.875000X0*%
%ADD17C,3.200000*%
%ADD18R,1.700000X1.700000*%
%ADD19O,1.700000X1.700000*%
%ADD20C,2.700000*%
%ADD21C,1.600000*%
%ADD22R,1.600000X1.600000*%
%ADD23O,1.600000X1.600000*%
%ADD24C,3.000000*%
%ADD25R,1.800000X2.600000*%
%ADD26O,1.800000X2.600000*%
%ADD27C,1.440000*%
%ADD28R,1.800000X1.800000*%
%ADD29C,1.800000*%
%ADD30R,1.200000X1.200000*%
%ADD31C,1.200000*%
G04 APERTURE END LIST*
D10*
X74959152Y-97039180D02*
X74959152Y-97753466D01*
X74911533Y-97896323D01*
X74816295Y-97991561D01*
X74673438Y-98039180D01*
X74578200Y-98039180D01*
X75911533Y-98039180D02*
X75435342Y-98039180D01*
X75435342Y-97039180D01*
X76816295Y-97943942D02*
X76768676Y-97991561D01*
X76625819Y-98039180D01*
X76530580Y-98039180D01*
X76387723Y-97991561D01*
X76292485Y-97896323D01*
X76244866Y-97801085D01*
X76197247Y-97610609D01*
X76197247Y-97467752D01*
X76244866Y-97277276D01*
X76292485Y-97182038D01*
X76387723Y-97086800D01*
X76530580Y-97039180D01*
X76625819Y-97039180D01*
X76768676Y-97086800D01*
X76816295Y-97134419D01*
X77530580Y-97039180D02*
X77530580Y-97753466D01*
X77482961Y-97896323D01*
X77387723Y-97991561D01*
X77244866Y-98039180D01*
X77149628Y-98039180D01*
X78482961Y-98039180D02*
X78006771Y-98039180D01*
X78006771Y-97039180D01*
X79387723Y-97943942D02*
X79340104Y-97991561D01*
X79197247Y-98039180D01*
X79102009Y-98039180D01*
X78959152Y-97991561D01*
X78863914Y-97896323D01*
X78816295Y-97801085D01*
X78768676Y-97610609D01*
X78768676Y-97467752D01*
X78816295Y-97277276D01*
X78863914Y-97182038D01*
X78959152Y-97086800D01*
X79102009Y-97039180D01*
X79197247Y-97039180D01*
X79340104Y-97086800D01*
X79387723Y-97134419D01*
X80102009Y-97039180D02*
X80102009Y-97753466D01*
X80054390Y-97896323D01*
X79959152Y-97991561D01*
X79816295Y-98039180D01*
X79721057Y-98039180D01*
X81054390Y-98039180D02*
X80578200Y-98039180D01*
X80578200Y-97039180D01*
X81959152Y-97943942D02*
X81911533Y-97991561D01*
X81768676Y-98039180D01*
X81673438Y-98039180D01*
X81530580Y-97991561D01*
X81435342Y-97896323D01*
X81387723Y-97801085D01*
X81340104Y-97610609D01*
X81340104Y-97467752D01*
X81387723Y-97277276D01*
X81435342Y-97182038D01*
X81530580Y-97086800D01*
X81673438Y-97039180D01*
X81768676Y-97039180D01*
X81911533Y-97086800D01*
X81959152Y-97134419D01*
X82673438Y-97039180D02*
X82673438Y-97753466D01*
X82625819Y-97896323D01*
X82530580Y-97991561D01*
X82387723Y-98039180D01*
X82292485Y-98039180D01*
X83625819Y-98039180D02*
X83149628Y-98039180D01*
X83149628Y-97039180D01*
X84530580Y-97943942D02*
X84482961Y-97991561D01*
X84340104Y-98039180D01*
X84244866Y-98039180D01*
X84102009Y-97991561D01*
X84006771Y-97896323D01*
X83959152Y-97801085D01*
X83911533Y-97610609D01*
X83911533Y-97467752D01*
X83959152Y-97277276D01*
X84006771Y-97182038D01*
X84102009Y-97086800D01*
X84244866Y-97039180D01*
X84340104Y-97039180D01*
X84482961Y-97086800D01*
X84530580Y-97134419D01*
X134310380Y-105935785D02*
X133310380Y-105935785D01*
X133310380Y-105554833D01*
X133358000Y-105459595D01*
X133405619Y-105411976D01*
X133500857Y-105364357D01*
X133643714Y-105364357D01*
X133738952Y-105411976D01*
X133786571Y-105459595D01*
X133834190Y-105554833D01*
X133834190Y-105935785D01*
X133786571Y-104602452D02*
X133834190Y-104459595D01*
X133881809Y-104411976D01*
X133977047Y-104364357D01*
X134119904Y-104364357D01*
X134215142Y-104411976D01*
X134262761Y-104459595D01*
X134310380Y-104554833D01*
X134310380Y-104935785D01*
X133310380Y-104935785D01*
X133310380Y-104602452D01*
X133358000Y-104507214D01*
X133405619Y-104459595D01*
X133500857Y-104411976D01*
X133596095Y-104411976D01*
X133691333Y-104459595D01*
X133738952Y-104507214D01*
X133786571Y-104602452D01*
X133786571Y-104935785D01*
X133405619Y-103983404D02*
X133358000Y-103935785D01*
X133310380Y-103840547D01*
X133310380Y-103602452D01*
X133358000Y-103507214D01*
X133405619Y-103459595D01*
X133500857Y-103411976D01*
X133596095Y-103411976D01*
X133738952Y-103459595D01*
X134310380Y-104031023D01*
X134310380Y-103411976D01*
X113990380Y-105792928D02*
X112990380Y-105792928D01*
X112990380Y-105411976D01*
X113038000Y-105316738D01*
X113085619Y-105269119D01*
X113180857Y-105221500D01*
X113323714Y-105221500D01*
X113418952Y-105269119D01*
X113466571Y-105316738D01*
X113514190Y-105411976D01*
X113514190Y-105792928D01*
X113704666Y-104840547D02*
X113704666Y-104364357D01*
X113990380Y-104935785D02*
X112990380Y-104602452D01*
X113990380Y-104269119D01*
X112990380Y-104031023D02*
X112990380Y-103364357D01*
X113990380Y-103792928D01*
X76248047Y-94305428D02*
X77009952Y-94305428D01*
X162933476Y-95464380D02*
X163171571Y-96464380D01*
X163362047Y-95750095D01*
X163552523Y-96464380D01*
X163790619Y-95464380D01*
X164600142Y-95464380D02*
X164409666Y-95464380D01*
X164314428Y-95512000D01*
X164266809Y-95559619D01*
X164171571Y-95702476D01*
X164123952Y-95892952D01*
X164123952Y-96273904D01*
X164171571Y-96369142D01*
X164219190Y-96416761D01*
X164314428Y-96464380D01*
X164504904Y-96464380D01*
X164600142Y-96416761D01*
X164647761Y-96369142D01*
X164695380Y-96273904D01*
X164695380Y-96035809D01*
X164647761Y-95940571D01*
X164600142Y-95892952D01*
X164504904Y-95845333D01*
X164314428Y-95845333D01*
X164219190Y-95892952D01*
X164171571Y-95940571D01*
X164123952Y-96035809D01*
X165600142Y-95464380D02*
X165123952Y-95464380D01*
X165076333Y-95940571D01*
X165123952Y-95892952D01*
X165219190Y-95845333D01*
X165457285Y-95845333D01*
X165552523Y-95892952D01*
X165600142Y-95940571D01*
X165647761Y-96035809D01*
X165647761Y-96273904D01*
X165600142Y-96369142D01*
X165552523Y-96416761D01*
X165457285Y-96464380D01*
X165219190Y-96464380D01*
X165123952Y-96416761D01*
X165076333Y-96369142D01*
X166647761Y-96369142D02*
X166600142Y-96416761D01*
X166457285Y-96464380D01*
X166362047Y-96464380D01*
X166219190Y-96416761D01*
X166123952Y-96321523D01*
X166076333Y-96226285D01*
X166028714Y-96035809D01*
X166028714Y-95892952D01*
X166076333Y-95702476D01*
X166123952Y-95607238D01*
X166219190Y-95512000D01*
X166362047Y-95464380D01*
X166457285Y-95464380D01*
X166600142Y-95512000D01*
X166647761Y-95559619D01*
X167028714Y-95559619D02*
X167076333Y-95512000D01*
X167171571Y-95464380D01*
X167409666Y-95464380D01*
X167504904Y-95512000D01*
X167552523Y-95559619D01*
X167600142Y-95654857D01*
X167600142Y-95750095D01*
X167552523Y-95892952D01*
X166981095Y-96464380D01*
X167600142Y-96464380D01*
X167981095Y-95559619D02*
X168028714Y-95512000D01*
X168123952Y-95464380D01*
X168362047Y-95464380D01*
X168457285Y-95512000D01*
X168504904Y-95559619D01*
X168552523Y-95654857D01*
X168552523Y-95750095D01*
X168504904Y-95892952D01*
X167933476Y-96464380D01*
X168552523Y-96464380D01*
X168933476Y-96416761D02*
X169076333Y-96464380D01*
X169314428Y-96464380D01*
X169409666Y-96416761D01*
X169457285Y-96369142D01*
X169504904Y-96273904D01*
X169504904Y-96178666D01*
X169457285Y-96083428D01*
X169409666Y-96035809D01*
X169314428Y-95988190D01*
X169123952Y-95940571D01*
X169028714Y-95892952D01*
X168981095Y-95845333D01*
X168933476Y-95750095D01*
X168933476Y-95654857D01*
X168981095Y-95559619D01*
X169028714Y-95512000D01*
X169123952Y-95464380D01*
X169362047Y-95464380D01*
X169504904Y-95512000D01*
X121610380Y-105935785D02*
X120610380Y-105935785D01*
X120610380Y-105554833D01*
X120658000Y-105459595D01*
X120705619Y-105411976D01*
X120800857Y-105364357D01*
X120943714Y-105364357D01*
X121038952Y-105411976D01*
X121086571Y-105459595D01*
X121134190Y-105554833D01*
X121134190Y-105935785D01*
X121086571Y-104602452D02*
X121134190Y-104459595D01*
X121181809Y-104411976D01*
X121277047Y-104364357D01*
X121419904Y-104364357D01*
X121515142Y-104411976D01*
X121562761Y-104459595D01*
X121610380Y-104554833D01*
X121610380Y-104935785D01*
X120610380Y-104935785D01*
X120610380Y-104602452D01*
X120658000Y-104507214D01*
X120705619Y-104459595D01*
X120800857Y-104411976D01*
X120896095Y-104411976D01*
X120991333Y-104459595D01*
X121038952Y-104507214D01*
X121086571Y-104602452D01*
X121086571Y-104935785D01*
X120610380Y-104031023D02*
X120610380Y-103364357D01*
X121610380Y-103792928D01*
X131770380Y-105935785D02*
X130770380Y-105935785D01*
X130770380Y-105554833D01*
X130818000Y-105459595D01*
X130865619Y-105411976D01*
X130960857Y-105364357D01*
X131103714Y-105364357D01*
X131198952Y-105411976D01*
X131246571Y-105459595D01*
X131294190Y-105554833D01*
X131294190Y-105935785D01*
X131246571Y-104602452D02*
X131294190Y-104459595D01*
X131341809Y-104411976D01*
X131437047Y-104364357D01*
X131579904Y-104364357D01*
X131675142Y-104411976D01*
X131722761Y-104459595D01*
X131770380Y-104554833D01*
X131770380Y-104935785D01*
X130770380Y-104935785D01*
X130770380Y-104602452D01*
X130818000Y-104507214D01*
X130865619Y-104459595D01*
X130960857Y-104411976D01*
X131056095Y-104411976D01*
X131151333Y-104459595D01*
X131198952Y-104507214D01*
X131246571Y-104602452D01*
X131246571Y-104935785D01*
X130770380Y-104031023D02*
X130770380Y-103411976D01*
X131151333Y-103745309D01*
X131151333Y-103602452D01*
X131198952Y-103507214D01*
X131246571Y-103459595D01*
X131341809Y-103411976D01*
X131579904Y-103411976D01*
X131675142Y-103459595D01*
X131722761Y-103507214D01*
X131770380Y-103602452D01*
X131770380Y-103888166D01*
X131722761Y-103983404D01*
X131675142Y-104031023D01*
X100250979Y-105983404D02*
X101250979Y-105650071D01*
X100250979Y-105316738D01*
X101155741Y-104411976D02*
X101203360Y-104459595D01*
X101250979Y-104602452D01*
X101250979Y-104697690D01*
X101203360Y-104840547D01*
X101108122Y-104935785D01*
X101012884Y-104983404D01*
X100822408Y-105031023D01*
X100679551Y-105031023D01*
X100489075Y-104983404D01*
X100393837Y-104935785D01*
X100298599Y-104840547D01*
X100250979Y-104697690D01*
X100250979Y-104602452D01*
X100298599Y-104459595D01*
X100346218Y-104411976D01*
X101155741Y-103411976D02*
X101203360Y-103459595D01*
X101250979Y-103602452D01*
X101250979Y-103697690D01*
X101203360Y-103840547D01*
X101108122Y-103935785D01*
X101012884Y-103983404D01*
X100822408Y-104031023D01*
X100679551Y-104031023D01*
X100489075Y-103983404D01*
X100393837Y-103935785D01*
X100298599Y-103840547D01*
X100250979Y-103697690D01*
X100250979Y-103602452D01*
X100298599Y-103459595D01*
X100346218Y-103411976D01*
X195977238Y-129865380D02*
X195501047Y-129865380D01*
X195501047Y-128865380D01*
X196882000Y-129770142D02*
X196834380Y-129817761D01*
X196691523Y-129865380D01*
X196596285Y-129865380D01*
X196453428Y-129817761D01*
X196358190Y-129722523D01*
X196310571Y-129627285D01*
X196262952Y-129436809D01*
X196262952Y-129293952D01*
X196310571Y-129103476D01*
X196358190Y-129008238D01*
X196453428Y-128913000D01*
X196596285Y-128865380D01*
X196691523Y-128865380D01*
X196834380Y-128913000D01*
X196882000Y-128960619D01*
X197310571Y-129865380D02*
X197310571Y-128865380D01*
X197548666Y-128865380D01*
X197691523Y-128913000D01*
X197786761Y-129008238D01*
X197834380Y-129103476D01*
X197882000Y-129293952D01*
X197882000Y-129436809D01*
X197834380Y-129627285D01*
X197786761Y-129722523D01*
X197691523Y-129817761D01*
X197548666Y-129865380D01*
X197310571Y-129865380D01*
X199596285Y-129865380D02*
X199024857Y-129865380D01*
X199310571Y-129865380D02*
X199310571Y-128865380D01*
X199215333Y-129008238D01*
X199120095Y-129103476D01*
X199024857Y-129151095D01*
X200453428Y-128865380D02*
X200262952Y-128865380D01*
X200167714Y-128913000D01*
X200120095Y-128960619D01*
X200024857Y-129103476D01*
X199977238Y-129293952D01*
X199977238Y-129674904D01*
X200024857Y-129770142D01*
X200072476Y-129817761D01*
X200167714Y-129865380D01*
X200358190Y-129865380D01*
X200453428Y-129817761D01*
X200501047Y-129770142D01*
X200548666Y-129674904D01*
X200548666Y-129436809D01*
X200501047Y-129341571D01*
X200453428Y-129293952D01*
X200358190Y-129246333D01*
X200167714Y-129246333D01*
X200072476Y-129293952D01*
X200024857Y-129341571D01*
X199977238Y-129436809D01*
X200882000Y-129865380D02*
X201405809Y-129198714D01*
X200882000Y-129198714D02*
X201405809Y-129865380D01*
X201739142Y-128960619D02*
X201786761Y-128913000D01*
X201882000Y-128865380D01*
X202120095Y-128865380D01*
X202215333Y-128913000D01*
X202262952Y-128960619D01*
X202310571Y-129055857D01*
X202310571Y-129151095D01*
X202262952Y-129293952D01*
X201691523Y-129865380D01*
X202310571Y-129865380D01*
X108815142Y-105221500D02*
X108862761Y-105269119D01*
X108910380Y-105411976D01*
X108910380Y-105507214D01*
X108862761Y-105650071D01*
X108767523Y-105745309D01*
X108672285Y-105792928D01*
X108481809Y-105840547D01*
X108338952Y-105840547D01*
X108148476Y-105792928D01*
X108053238Y-105745309D01*
X107958000Y-105650071D01*
X107910380Y-105507214D01*
X107910380Y-105411976D01*
X107958000Y-105269119D01*
X108005619Y-105221500D01*
X108624666Y-104840547D02*
X108624666Y-104364357D01*
X108910380Y-104935785D02*
X107910380Y-104602452D01*
X108910380Y-104269119D01*
X108005619Y-103983404D02*
X107958000Y-103935785D01*
X107910380Y-103840547D01*
X107910380Y-103602452D01*
X107958000Y-103507214D01*
X108005619Y-103459595D01*
X108100857Y-103411976D01*
X108196095Y-103411976D01*
X108338952Y-103459595D01*
X108910380Y-104031023D01*
X108910380Y-103411976D01*
X111355142Y-105221500D02*
X111402761Y-105269119D01*
X111450380Y-105411976D01*
X111450380Y-105507214D01*
X111402761Y-105650071D01*
X111307523Y-105745309D01*
X111212285Y-105792928D01*
X111021809Y-105840547D01*
X110878952Y-105840547D01*
X110688476Y-105792928D01*
X110593238Y-105745309D01*
X110498000Y-105650071D01*
X110450380Y-105507214D01*
X110450380Y-105411976D01*
X110498000Y-105269119D01*
X110545619Y-105221500D01*
X111164666Y-104840547D02*
X111164666Y-104364357D01*
X111450380Y-104935785D02*
X110450380Y-104602452D01*
X111450380Y-104269119D01*
X111450380Y-103411976D02*
X111450380Y-103983404D01*
X111450380Y-103697690D02*
X110450380Y-103697690D01*
X110593238Y-103792928D01*
X110688476Y-103888166D01*
X110736095Y-103983404D01*
X124150380Y-105935785D02*
X123150380Y-105935785D01*
X123150380Y-105554833D01*
X123198000Y-105459595D01*
X123245619Y-105411976D01*
X123340857Y-105364357D01*
X123483714Y-105364357D01*
X123578952Y-105411976D01*
X123626571Y-105459595D01*
X123674190Y-105554833D01*
X123674190Y-105935785D01*
X123626571Y-104602452D02*
X123674190Y-104459595D01*
X123721809Y-104411976D01*
X123817047Y-104364357D01*
X123959904Y-104364357D01*
X124055142Y-104411976D01*
X124102761Y-104459595D01*
X124150380Y-104554833D01*
X124150380Y-104935785D01*
X123150380Y-104935785D01*
X123150380Y-104602452D01*
X123198000Y-104507214D01*
X123245619Y-104459595D01*
X123340857Y-104411976D01*
X123436095Y-104411976D01*
X123531333Y-104459595D01*
X123578952Y-104507214D01*
X123626571Y-104602452D01*
X123626571Y-104935785D01*
X123150380Y-103507214D02*
X123150380Y-103697690D01*
X123198000Y-103792928D01*
X123245619Y-103840547D01*
X123388476Y-103935785D01*
X123578952Y-103983404D01*
X123959904Y-103983404D01*
X124055142Y-103935785D01*
X124102761Y-103888166D01*
X124150380Y-103792928D01*
X124150380Y-103602452D01*
X124102761Y-103507214D01*
X124055142Y-103459595D01*
X123959904Y-103411976D01*
X123721809Y-103411976D01*
X123626571Y-103459595D01*
X123578952Y-103507214D01*
X123531333Y-103602452D01*
X123531333Y-103792928D01*
X123578952Y-103888166D01*
X123626571Y-103935785D01*
X123721809Y-103983404D01*
X85153523Y-93813380D02*
X84677333Y-93813380D01*
X84629714Y-94289571D01*
X84677333Y-94241952D01*
X84772571Y-94194333D01*
X85010666Y-94194333D01*
X85105904Y-94241952D01*
X85153523Y-94289571D01*
X85201142Y-94384809D01*
X85201142Y-94622904D01*
X85153523Y-94718142D01*
X85105904Y-94765761D01*
X85010666Y-94813380D01*
X84772571Y-94813380D01*
X84677333Y-94765761D01*
X84629714Y-94718142D01*
X85486857Y-93813380D02*
X85820190Y-94813380D01*
X86153523Y-93813380D01*
X119070380Y-105792928D02*
X118070380Y-105792928D01*
X118070380Y-105411976D01*
X118118000Y-105316738D01*
X118165619Y-105269119D01*
X118260857Y-105221500D01*
X118403714Y-105221500D01*
X118498952Y-105269119D01*
X118546571Y-105316738D01*
X118594190Y-105411976D01*
X118594190Y-105792928D01*
X118784666Y-104840547D02*
X118784666Y-104364357D01*
X119070380Y-104935785D02*
X118070380Y-104602452D01*
X119070380Y-104269119D01*
X118070380Y-103459595D02*
X118070380Y-103935785D01*
X118546571Y-103983404D01*
X118498952Y-103935785D01*
X118451333Y-103840547D01*
X118451333Y-103602452D01*
X118498952Y-103507214D01*
X118546571Y-103459595D01*
X118641809Y-103411976D01*
X118879904Y-103411976D01*
X118975142Y-103459595D01*
X119022761Y-103507214D01*
X119070380Y-103602452D01*
X119070380Y-103840547D01*
X119022761Y-103935785D01*
X118975142Y-103983404D01*
X106275142Y-105364357D02*
X106322761Y-105411976D01*
X106370380Y-105554833D01*
X106370380Y-105650071D01*
X106322761Y-105792928D01*
X106227523Y-105888166D01*
X106132285Y-105935785D01*
X105941809Y-105983404D01*
X105798952Y-105983404D01*
X105608476Y-105935785D01*
X105513238Y-105888166D01*
X105418000Y-105792928D01*
X105370380Y-105650071D01*
X105370380Y-105554833D01*
X105418000Y-105411976D01*
X105465619Y-105364357D01*
X105846571Y-104602452D02*
X105894190Y-104459595D01*
X105941809Y-104411976D01*
X106037047Y-104364357D01*
X106179904Y-104364357D01*
X106275142Y-104411976D01*
X106322761Y-104459595D01*
X106370380Y-104554833D01*
X106370380Y-104935785D01*
X105370380Y-104935785D01*
X105370380Y-104602452D01*
X105418000Y-104507214D01*
X105465619Y-104459595D01*
X105560857Y-104411976D01*
X105656095Y-104411976D01*
X105751333Y-104459595D01*
X105798952Y-104507214D01*
X105846571Y-104602452D01*
X105846571Y-104935785D01*
X105465619Y-103983404D02*
X105418000Y-103935785D01*
X105370380Y-103840547D01*
X105370380Y-103602452D01*
X105418000Y-103507214D01*
X105465619Y-103459595D01*
X105560857Y-103411976D01*
X105656095Y-103411976D01*
X105798952Y-103459595D01*
X106370380Y-104031023D01*
X106370380Y-103411976D01*
X142623166Y-98807380D02*
X142432690Y-98807380D01*
X142337452Y-98855000D01*
X142289833Y-98902619D01*
X142194595Y-99045476D01*
X142146976Y-99235952D01*
X142146976Y-99616904D01*
X142194595Y-99712142D01*
X142242214Y-99759761D01*
X142337452Y-99807380D01*
X142527928Y-99807380D01*
X142623166Y-99759761D01*
X142670785Y-99712142D01*
X142718404Y-99616904D01*
X142718404Y-99378809D01*
X142670785Y-99283571D01*
X142623166Y-99235952D01*
X142527928Y-99188333D01*
X142337452Y-99188333D01*
X142242214Y-99235952D01*
X142194595Y-99283571D01*
X142146976Y-99378809D01*
X143623166Y-98807380D02*
X143146976Y-98807380D01*
X143099357Y-99283571D01*
X143146976Y-99235952D01*
X143242214Y-99188333D01*
X143480309Y-99188333D01*
X143575547Y-99235952D01*
X143623166Y-99283571D01*
X143670785Y-99378809D01*
X143670785Y-99616904D01*
X143623166Y-99712142D01*
X143575547Y-99759761D01*
X143480309Y-99807380D01*
X143242214Y-99807380D01*
X143146976Y-99759761D01*
X143099357Y-99712142D01*
X144289833Y-98807380D02*
X144385071Y-98807380D01*
X144480309Y-98855000D01*
X144527928Y-98902619D01*
X144575547Y-98997857D01*
X144623166Y-99188333D01*
X144623166Y-99426428D01*
X144575547Y-99616904D01*
X144527928Y-99712142D01*
X144480309Y-99759761D01*
X144385071Y-99807380D01*
X144289833Y-99807380D01*
X144194595Y-99759761D01*
X144146976Y-99712142D01*
X144099357Y-99616904D01*
X144051738Y-99426428D01*
X144051738Y-99188333D01*
X144099357Y-98997857D01*
X144146976Y-98902619D01*
X144194595Y-98855000D01*
X144289833Y-98807380D01*
X145004119Y-98902619D02*
X145051738Y-98855000D01*
X145146976Y-98807380D01*
X145385071Y-98807380D01*
X145480309Y-98855000D01*
X145527928Y-98902619D01*
X145575547Y-98997857D01*
X145575547Y-99093095D01*
X145527928Y-99235952D01*
X144956500Y-99807380D01*
X145575547Y-99807380D01*
X147337452Y-99712142D02*
X147289833Y-99759761D01*
X147146976Y-99807380D01*
X147051738Y-99807380D01*
X146908880Y-99759761D01*
X146813642Y-99664523D01*
X146766023Y-99569285D01*
X146718404Y-99378809D01*
X146718404Y-99235952D01*
X146766023Y-99045476D01*
X146813642Y-98950238D01*
X146908880Y-98855000D01*
X147051738Y-98807380D01*
X147146976Y-98807380D01*
X147289833Y-98855000D01*
X147337452Y-98902619D01*
X147908880Y-99807380D02*
X147813642Y-99759761D01*
X147766023Y-99712142D01*
X147718404Y-99616904D01*
X147718404Y-99331190D01*
X147766023Y-99235952D01*
X147813642Y-99188333D01*
X147908880Y-99140714D01*
X148051738Y-99140714D01*
X148146976Y-99188333D01*
X148194595Y-99235952D01*
X148242214Y-99331190D01*
X148242214Y-99616904D01*
X148194595Y-99712142D01*
X148146976Y-99759761D01*
X148051738Y-99807380D01*
X147908880Y-99807380D01*
X148670785Y-99807380D02*
X148670785Y-99140714D01*
X148670785Y-99235952D02*
X148718404Y-99188333D01*
X148813642Y-99140714D01*
X148956500Y-99140714D01*
X149051738Y-99188333D01*
X149099357Y-99283571D01*
X149099357Y-99807380D01*
X149099357Y-99283571D02*
X149146976Y-99188333D01*
X149242214Y-99140714D01*
X149385071Y-99140714D01*
X149480309Y-99188333D01*
X149527928Y-99283571D01*
X149527928Y-99807380D01*
X150004119Y-99140714D02*
X150004119Y-100140714D01*
X150004119Y-99188333D02*
X150099357Y-99140714D01*
X150289833Y-99140714D01*
X150385071Y-99188333D01*
X150432690Y-99235952D01*
X150480309Y-99331190D01*
X150480309Y-99616904D01*
X150432690Y-99712142D01*
X150385071Y-99759761D01*
X150289833Y-99807380D01*
X150099357Y-99807380D01*
X150004119Y-99759761D01*
X151337452Y-99140714D02*
X151337452Y-99807380D01*
X150908880Y-99140714D02*
X150908880Y-99664523D01*
X150956500Y-99759761D01*
X151051738Y-99807380D01*
X151194595Y-99807380D01*
X151289833Y-99759761D01*
X151337452Y-99712142D01*
X151670785Y-99140714D02*
X152051738Y-99140714D01*
X151813642Y-98807380D02*
X151813642Y-99664523D01*
X151861261Y-99759761D01*
X151956500Y-99807380D01*
X152051738Y-99807380D01*
X152766023Y-99759761D02*
X152670785Y-99807380D01*
X152480309Y-99807380D01*
X152385071Y-99759761D01*
X152337452Y-99664523D01*
X152337452Y-99283571D01*
X152385071Y-99188333D01*
X152480309Y-99140714D01*
X152670785Y-99140714D01*
X152766023Y-99188333D01*
X152813642Y-99283571D01*
X152813642Y-99378809D01*
X152337452Y-99474047D01*
X153242214Y-99807380D02*
X153242214Y-99140714D01*
X153242214Y-99331190D02*
X153289833Y-99235952D01*
X153337452Y-99188333D01*
X153432690Y-99140714D01*
X153527928Y-99140714D01*
X154527928Y-99140714D02*
X154766023Y-99807380D01*
X155004119Y-99140714D01*
X155908880Y-99807380D02*
X155337452Y-99807380D01*
X155623166Y-99807380D02*
X155623166Y-98807380D01*
X155527928Y-98950238D01*
X155432690Y-99045476D01*
X155337452Y-99093095D01*
X142146976Y-100512619D02*
X142194595Y-100465000D01*
X142289833Y-100417380D01*
X142527928Y-100417380D01*
X142623166Y-100465000D01*
X142670785Y-100512619D01*
X142718404Y-100607857D01*
X142718404Y-100703095D01*
X142670785Y-100845952D01*
X142099357Y-101417380D01*
X142718404Y-101417380D01*
X143337452Y-100417380D02*
X143432690Y-100417380D01*
X143527928Y-100465000D01*
X143575547Y-100512619D01*
X143623166Y-100607857D01*
X143670785Y-100798333D01*
X143670785Y-101036428D01*
X143623166Y-101226904D01*
X143575547Y-101322142D01*
X143527928Y-101369761D01*
X143432690Y-101417380D01*
X143337452Y-101417380D01*
X143242214Y-101369761D01*
X143194595Y-101322142D01*
X143146976Y-101226904D01*
X143099357Y-101036428D01*
X143099357Y-100798333D01*
X143146976Y-100607857D01*
X143194595Y-100512619D01*
X143242214Y-100465000D01*
X143337452Y-100417380D01*
X144051738Y-100512619D02*
X144099357Y-100465000D01*
X144194595Y-100417380D01*
X144432690Y-100417380D01*
X144527928Y-100465000D01*
X144575547Y-100512619D01*
X144623166Y-100607857D01*
X144623166Y-100703095D01*
X144575547Y-100845952D01*
X144004119Y-101417380D01*
X144623166Y-101417380D01*
X145004119Y-100512619D02*
X145051738Y-100465000D01*
X145146976Y-100417380D01*
X145385071Y-100417380D01*
X145480309Y-100465000D01*
X145527928Y-100512619D01*
X145575547Y-100607857D01*
X145575547Y-100703095D01*
X145527928Y-100845952D01*
X144956500Y-101417380D01*
X145575547Y-101417380D01*
X146004119Y-101036428D02*
X146766023Y-101036428D01*
X147432690Y-100417380D02*
X147527928Y-100417380D01*
X147623166Y-100465000D01*
X147670785Y-100512619D01*
X147718404Y-100607857D01*
X147766023Y-100798333D01*
X147766023Y-101036428D01*
X147718404Y-101226904D01*
X147670785Y-101322142D01*
X147623166Y-101369761D01*
X147527928Y-101417380D01*
X147432690Y-101417380D01*
X147337452Y-101369761D01*
X147289833Y-101322142D01*
X147242214Y-101226904D01*
X147194595Y-101036428D01*
X147194595Y-100798333D01*
X147242214Y-100607857D01*
X147289833Y-100512619D01*
X147337452Y-100465000D01*
X147432690Y-100417380D01*
X148337452Y-100845952D02*
X148242214Y-100798333D01*
X148194595Y-100750714D01*
X148146976Y-100655476D01*
X148146976Y-100607857D01*
X148194595Y-100512619D01*
X148242214Y-100465000D01*
X148337452Y-100417380D01*
X148527928Y-100417380D01*
X148623166Y-100465000D01*
X148670785Y-100512619D01*
X148718404Y-100607857D01*
X148718404Y-100655476D01*
X148670785Y-100750714D01*
X148623166Y-100798333D01*
X148527928Y-100845952D01*
X148337452Y-100845952D01*
X148242214Y-100893571D01*
X148194595Y-100941190D01*
X148146976Y-101036428D01*
X148146976Y-101226904D01*
X148194595Y-101322142D01*
X148242214Y-101369761D01*
X148337452Y-101417380D01*
X148527928Y-101417380D01*
X148623166Y-101369761D01*
X148670785Y-101322142D01*
X148718404Y-101226904D01*
X148718404Y-101036428D01*
X148670785Y-100941190D01*
X148623166Y-100893571D01*
X148527928Y-100845952D01*
X149146976Y-101036428D02*
X149908880Y-101036428D01*
X150575547Y-100417380D02*
X150670785Y-100417380D01*
X150766023Y-100465000D01*
X150813642Y-100512619D01*
X150861261Y-100607857D01*
X150908880Y-100798333D01*
X150908880Y-101036428D01*
X150861261Y-101226904D01*
X150813642Y-101322142D01*
X150766023Y-101369761D01*
X150670785Y-101417380D01*
X150575547Y-101417380D01*
X150480309Y-101369761D01*
X150432690Y-101322142D01*
X150385071Y-101226904D01*
X150337452Y-101036428D01*
X150337452Y-100798333D01*
X150385071Y-100607857D01*
X150432690Y-100512619D01*
X150480309Y-100465000D01*
X150575547Y-100417380D01*
X151480309Y-100845952D02*
X151385071Y-100798333D01*
X151337452Y-100750714D01*
X151289833Y-100655476D01*
X151289833Y-100607857D01*
X151337452Y-100512619D01*
X151385071Y-100465000D01*
X151480309Y-100417380D01*
X151670785Y-100417380D01*
X151766023Y-100465000D01*
X151813642Y-100512619D01*
X151861261Y-100607857D01*
X151861261Y-100655476D01*
X151813642Y-100750714D01*
X151766023Y-100798333D01*
X151670785Y-100845952D01*
X151480309Y-100845952D01*
X151385071Y-100893571D01*
X151337452Y-100941190D01*
X151289833Y-101036428D01*
X151289833Y-101226904D01*
X151337452Y-101322142D01*
X151385071Y-101369761D01*
X151480309Y-101417380D01*
X151670785Y-101417380D01*
X151766023Y-101369761D01*
X151813642Y-101322142D01*
X151861261Y-101226904D01*
X151861261Y-101036428D01*
X151813642Y-100941190D01*
X151766023Y-100893571D01*
X151670785Y-100845952D01*
X142146976Y-102741666D02*
X142623166Y-102741666D01*
X142051738Y-103027380D02*
X142385071Y-102027380D01*
X142718404Y-103027380D01*
X143480309Y-103027380D02*
X143480309Y-102027380D01*
X143480309Y-102979761D02*
X143385071Y-103027380D01*
X143194595Y-103027380D01*
X143099357Y-102979761D01*
X143051738Y-102932142D01*
X143004119Y-102836904D01*
X143004119Y-102551190D01*
X143051738Y-102455952D01*
X143099357Y-102408333D01*
X143194595Y-102360714D01*
X143385071Y-102360714D01*
X143480309Y-102408333D01*
X143956500Y-103027380D02*
X143956500Y-102360714D01*
X143956500Y-102551190D02*
X144004119Y-102455952D01*
X144051738Y-102408333D01*
X144146976Y-102360714D01*
X144242214Y-102360714D01*
X144575547Y-103027380D02*
X144575547Y-102360714D01*
X144575547Y-102027380D02*
X144527928Y-102075000D01*
X144575547Y-102122619D01*
X144623166Y-102075000D01*
X144575547Y-102027380D01*
X144575547Y-102122619D01*
X145432690Y-102979761D02*
X145337452Y-103027380D01*
X145146976Y-103027380D01*
X145051738Y-102979761D01*
X145004119Y-102884523D01*
X145004119Y-102503571D01*
X145051738Y-102408333D01*
X145146976Y-102360714D01*
X145337452Y-102360714D01*
X145432690Y-102408333D01*
X145480309Y-102503571D01*
X145480309Y-102598809D01*
X145004119Y-102694047D01*
X145908880Y-102360714D02*
X145908880Y-103027380D01*
X145908880Y-102455952D02*
X145956500Y-102408333D01*
X146051738Y-102360714D01*
X146194595Y-102360714D01*
X146289833Y-102408333D01*
X146337452Y-102503571D01*
X146337452Y-103027380D01*
X147575547Y-103027380D02*
X147575547Y-102027380D01*
X148146976Y-103027380D02*
X147718404Y-102455952D01*
X148146976Y-102027380D02*
X147575547Y-102598809D01*
X148718404Y-103027380D02*
X148623166Y-102979761D01*
X148575547Y-102932142D01*
X148527928Y-102836904D01*
X148527928Y-102551190D01*
X148575547Y-102455952D01*
X148623166Y-102408333D01*
X148718404Y-102360714D01*
X148861261Y-102360714D01*
X148956500Y-102408333D01*
X149004119Y-102455952D01*
X149051738Y-102551190D01*
X149051738Y-102836904D01*
X149004119Y-102932142D01*
X148956500Y-102979761D01*
X148861261Y-103027380D01*
X148718404Y-103027380D01*
X149480309Y-103027380D02*
X149480309Y-102027380D01*
X149908880Y-103027380D02*
X149908880Y-102503571D01*
X149861261Y-102408333D01*
X149766023Y-102360714D01*
X149623166Y-102360714D01*
X149527928Y-102408333D01*
X149480309Y-102455952D01*
X150527928Y-103027380D02*
X150432690Y-102979761D01*
X150385071Y-102884523D01*
X150385071Y-102027380D01*
X150908880Y-103027380D02*
X150908880Y-102027380D01*
X150908880Y-102408333D02*
X151004119Y-102360714D01*
X151194595Y-102360714D01*
X151289833Y-102408333D01*
X151337452Y-102455952D01*
X151385071Y-102551190D01*
X151385071Y-102836904D01*
X151337452Y-102932142D01*
X151289833Y-102979761D01*
X151194595Y-103027380D01*
X151004119Y-103027380D01*
X150908880Y-102979761D01*
X152194595Y-102979761D02*
X152099357Y-103027380D01*
X151908880Y-103027380D01*
X151813642Y-102979761D01*
X151766023Y-102884523D01*
X151766023Y-102503571D01*
X151813642Y-102408333D01*
X151908880Y-102360714D01*
X152099357Y-102360714D01*
X152194595Y-102408333D01*
X152242214Y-102503571D01*
X152242214Y-102598809D01*
X151766023Y-102694047D01*
X153099357Y-102979761D02*
X153004119Y-103027380D01*
X152813642Y-103027380D01*
X152718404Y-102979761D01*
X152670785Y-102932142D01*
X152623166Y-102836904D01*
X152623166Y-102551190D01*
X152670785Y-102455952D01*
X152718404Y-102408333D01*
X152813642Y-102360714D01*
X153004119Y-102360714D01*
X153099357Y-102408333D01*
X153527928Y-103027380D02*
X153527928Y-102027380D01*
X153623166Y-102646428D02*
X153908880Y-103027380D01*
X153908880Y-102360714D02*
X153527928Y-102741666D01*
X154718404Y-102979761D02*
X154623166Y-103027380D01*
X154432690Y-103027380D01*
X154337452Y-102979761D01*
X154289833Y-102884523D01*
X154289833Y-102503571D01*
X154337452Y-102408333D01*
X154432690Y-102360714D01*
X154623166Y-102360714D01*
X154718404Y-102408333D01*
X154766023Y-102503571D01*
X154766023Y-102598809D01*
X154289833Y-102694047D01*
X155194595Y-103027380D02*
X155194595Y-102360714D01*
X155194595Y-102551190D02*
X155242214Y-102455952D01*
X155289833Y-102408333D01*
X155385071Y-102360714D01*
X155480309Y-102360714D01*
X223155238Y-102465142D02*
X223107619Y-102512761D01*
X222964761Y-102560380D01*
X222869523Y-102560380D01*
X222726666Y-102512761D01*
X222631428Y-102417523D01*
X222583809Y-102322285D01*
X222536190Y-102131809D01*
X222536190Y-101988952D01*
X222583809Y-101798476D01*
X222631428Y-101703238D01*
X222726666Y-101608000D01*
X222869523Y-101560380D01*
X222964761Y-101560380D01*
X223107619Y-101608000D01*
X223155238Y-101655619D01*
X223774285Y-101560380D02*
X223964761Y-101560380D01*
X224060000Y-101608000D01*
X224155238Y-101703238D01*
X224202857Y-101893714D01*
X224202857Y-102227047D01*
X224155238Y-102417523D01*
X224060000Y-102512761D01*
X223964761Y-102560380D01*
X223774285Y-102560380D01*
X223679047Y-102512761D01*
X223583809Y-102417523D01*
X223536190Y-102227047D01*
X223536190Y-101893714D01*
X223583809Y-101703238D01*
X223679047Y-101608000D01*
X223774285Y-101560380D01*
X224631428Y-102560380D02*
X224631428Y-101560380D01*
X225202857Y-102560380D01*
X225202857Y-101560380D01*
X225536190Y-101560380D02*
X226107619Y-101560380D01*
X225821904Y-102560380D02*
X225821904Y-101560380D01*
X227012380Y-102560380D02*
X226679047Y-102084190D01*
X226440952Y-102560380D02*
X226440952Y-101560380D01*
X226821904Y-101560380D01*
X226917142Y-101608000D01*
X226964761Y-101655619D01*
X227012380Y-101750857D01*
X227012380Y-101893714D01*
X226964761Y-101988952D01*
X226917142Y-102036571D01*
X226821904Y-102084190D01*
X226440952Y-102084190D01*
X227393333Y-102274666D02*
X227869523Y-102274666D01*
X227298095Y-102560380D02*
X227631428Y-101560380D01*
X227964761Y-102560380D01*
X228250476Y-102512761D02*
X228393333Y-102560380D01*
X228631428Y-102560380D01*
X228726666Y-102512761D01*
X228774285Y-102465142D01*
X228821904Y-102369904D01*
X228821904Y-102274666D01*
X228774285Y-102179428D01*
X228726666Y-102131809D01*
X228631428Y-102084190D01*
X228440952Y-102036571D01*
X228345714Y-101988952D01*
X228298095Y-101941333D01*
X228250476Y-101846095D01*
X228250476Y-101750857D01*
X228298095Y-101655619D01*
X228345714Y-101608000D01*
X228440952Y-101560380D01*
X228679047Y-101560380D01*
X228821904Y-101608000D01*
X229107619Y-101560380D02*
X229679047Y-101560380D01*
X229393333Y-102560380D02*
X229393333Y-101560380D01*
X126690380Y-105935785D02*
X125690380Y-105935785D01*
X125690380Y-105554833D01*
X125738000Y-105459595D01*
X125785619Y-105411976D01*
X125880857Y-105364357D01*
X126023714Y-105364357D01*
X126118952Y-105411976D01*
X126166571Y-105459595D01*
X126214190Y-105554833D01*
X126214190Y-105935785D01*
X126166571Y-104602452D02*
X126214190Y-104459595D01*
X126261809Y-104411976D01*
X126357047Y-104364357D01*
X126499904Y-104364357D01*
X126595142Y-104411976D01*
X126642761Y-104459595D01*
X126690380Y-104554833D01*
X126690380Y-104935785D01*
X125690380Y-104935785D01*
X125690380Y-104602452D01*
X125738000Y-104507214D01*
X125785619Y-104459595D01*
X125880857Y-104411976D01*
X125976095Y-104411976D01*
X126071333Y-104459595D01*
X126118952Y-104507214D01*
X126166571Y-104602452D01*
X126166571Y-104935785D01*
X125690380Y-103459595D02*
X125690380Y-103935785D01*
X126166571Y-103983404D01*
X126118952Y-103935785D01*
X126071333Y-103840547D01*
X126071333Y-103602452D01*
X126118952Y-103507214D01*
X126166571Y-103459595D01*
X126261809Y-103411976D01*
X126499904Y-103411976D01*
X126595142Y-103459595D01*
X126642761Y-103507214D01*
X126690380Y-103602452D01*
X126690380Y-103840547D01*
X126642761Y-103935785D01*
X126595142Y-103983404D01*
X136850380Y-105935785D02*
X135850380Y-105935785D01*
X135850380Y-105554833D01*
X135898000Y-105459595D01*
X135945619Y-105411976D01*
X136040857Y-105364357D01*
X136183714Y-105364357D01*
X136278952Y-105411976D01*
X136326571Y-105459595D01*
X136374190Y-105554833D01*
X136374190Y-105935785D01*
X136326571Y-104602452D02*
X136374190Y-104459595D01*
X136421809Y-104411976D01*
X136517047Y-104364357D01*
X136659904Y-104364357D01*
X136755142Y-104411976D01*
X136802761Y-104459595D01*
X136850380Y-104554833D01*
X136850380Y-104935785D01*
X135850380Y-104935785D01*
X135850380Y-104602452D01*
X135898000Y-104507214D01*
X135945619Y-104459595D01*
X136040857Y-104411976D01*
X136136095Y-104411976D01*
X136231333Y-104459595D01*
X136278952Y-104507214D01*
X136326571Y-104602452D01*
X136326571Y-104935785D01*
X136850380Y-103411976D02*
X136850380Y-103983404D01*
X136850380Y-103697690D02*
X135850380Y-103697690D01*
X135993238Y-103792928D01*
X136088476Y-103888166D01*
X136136095Y-103983404D01*
X129230380Y-105935785D02*
X128230380Y-105935785D01*
X128230380Y-105554833D01*
X128278000Y-105459595D01*
X128325619Y-105411976D01*
X128420857Y-105364357D01*
X128563714Y-105364357D01*
X128658952Y-105411976D01*
X128706571Y-105459595D01*
X128754190Y-105554833D01*
X128754190Y-105935785D01*
X128706571Y-104602452D02*
X128754190Y-104459595D01*
X128801809Y-104411976D01*
X128897047Y-104364357D01*
X129039904Y-104364357D01*
X129135142Y-104411976D01*
X129182761Y-104459595D01*
X129230380Y-104554833D01*
X129230380Y-104935785D01*
X128230380Y-104935785D01*
X128230380Y-104602452D01*
X128278000Y-104507214D01*
X128325619Y-104459595D01*
X128420857Y-104411976D01*
X128516095Y-104411976D01*
X128611333Y-104459595D01*
X128658952Y-104507214D01*
X128706571Y-104602452D01*
X128706571Y-104935785D01*
X128563714Y-103507214D02*
X129230380Y-103507214D01*
X128182761Y-103745309D02*
X128897047Y-103983404D01*
X128897047Y-103364357D01*
X102878000Y-105507214D02*
X102830380Y-105602452D01*
X102830380Y-105745309D01*
X102878000Y-105888166D01*
X102973238Y-105983404D01*
X103068476Y-106031023D01*
X103258952Y-106078642D01*
X103401809Y-106078642D01*
X103592285Y-106031023D01*
X103687523Y-105983404D01*
X103782761Y-105888166D01*
X103830380Y-105745309D01*
X103830380Y-105650071D01*
X103782761Y-105507214D01*
X103735142Y-105459595D01*
X103401809Y-105459595D01*
X103401809Y-105650071D01*
X103830380Y-105031023D02*
X102830380Y-105031023D01*
X103830380Y-104459595D01*
X102830380Y-104459595D01*
X103830380Y-103983404D02*
X102830380Y-103983404D01*
X102830380Y-103745309D01*
X102878000Y-103602452D01*
X102973238Y-103507214D01*
X103068476Y-103459595D01*
X103258952Y-103411976D01*
X103401809Y-103411976D01*
X103592285Y-103459595D01*
X103687523Y-103507214D01*
X103782761Y-103602452D01*
X103830380Y-103745309D01*
X103830380Y-103983404D01*
X139390380Y-105935785D02*
X138390380Y-105935785D01*
X138390380Y-105554833D01*
X138438000Y-105459595D01*
X138485619Y-105411976D01*
X138580857Y-105364357D01*
X138723714Y-105364357D01*
X138818952Y-105411976D01*
X138866571Y-105459595D01*
X138914190Y-105554833D01*
X138914190Y-105935785D01*
X138866571Y-104602452D02*
X138914190Y-104459595D01*
X138961809Y-104411976D01*
X139057047Y-104364357D01*
X139199904Y-104364357D01*
X139295142Y-104411976D01*
X139342761Y-104459595D01*
X139390380Y-104554833D01*
X139390380Y-104935785D01*
X138390380Y-104935785D01*
X138390380Y-104602452D01*
X138438000Y-104507214D01*
X138485619Y-104459595D01*
X138580857Y-104411976D01*
X138676095Y-104411976D01*
X138771333Y-104459595D01*
X138818952Y-104507214D01*
X138866571Y-104602452D01*
X138866571Y-104935785D01*
X138390380Y-103745309D02*
X138390380Y-103650071D01*
X138438000Y-103554833D01*
X138485619Y-103507214D01*
X138580857Y-103459595D01*
X138771333Y-103411976D01*
X139009428Y-103411976D01*
X139199904Y-103459595D01*
X139295142Y-103507214D01*
X139342761Y-103554833D01*
X139390380Y-103650071D01*
X139390380Y-103745309D01*
X139342761Y-103840547D01*
X139295142Y-103888166D01*
X139199904Y-103935785D01*
X139009428Y-103983404D01*
X138771333Y-103983404D01*
X138580857Y-103935785D01*
X138485619Y-103888166D01*
X138438000Y-103840547D01*
X138390380Y-103745309D01*
X82248047Y-94305428D02*
X83009952Y-94305428D01*
X82629000Y-94686380D02*
X82629000Y-93924476D01*
X116530380Y-105792928D02*
X115530380Y-105792928D01*
X115530380Y-105411976D01*
X115578000Y-105316738D01*
X115625619Y-105269119D01*
X115720857Y-105221500D01*
X115863714Y-105221500D01*
X115958952Y-105269119D01*
X116006571Y-105316738D01*
X116054190Y-105411976D01*
X116054190Y-105792928D01*
X116244666Y-104840547D02*
X116244666Y-104364357D01*
X116530380Y-104935785D02*
X115530380Y-104602452D01*
X116530380Y-104269119D01*
X115530380Y-103507214D02*
X115530380Y-103697690D01*
X115578000Y-103792928D01*
X115625619Y-103840547D01*
X115768476Y-103935785D01*
X115958952Y-103983404D01*
X116339904Y-103983404D01*
X116435142Y-103935785D01*
X116482761Y-103888166D01*
X116530380Y-103792928D01*
X116530380Y-103602452D01*
X116482761Y-103507214D01*
X116435142Y-103459595D01*
X116339904Y-103411976D01*
X116101809Y-103411976D01*
X116006571Y-103459595D01*
X115958952Y-103507214D01*
X115911333Y-103602452D01*
X115911333Y-103792928D01*
X115958952Y-103888166D01*
X116006571Y-103935785D01*
X116101809Y-103983404D01*
X80661428Y-111450380D02*
X80661428Y-110450380D01*
X81232857Y-111450380D02*
X80804285Y-110878952D01*
X81232857Y-110450380D02*
X80661428Y-111021809D01*
X82042380Y-111402761D02*
X81947142Y-111450380D01*
X81756666Y-111450380D01*
X81661428Y-111402761D01*
X81613809Y-111307523D01*
X81613809Y-110926571D01*
X81661428Y-110831333D01*
X81756666Y-110783714D01*
X81947142Y-110783714D01*
X82042380Y-110831333D01*
X82090000Y-110926571D01*
X82090000Y-111021809D01*
X81613809Y-111117047D01*
X82423333Y-110783714D02*
X82661428Y-111450380D01*
X82899523Y-110783714D02*
X82661428Y-111450380D01*
X82566190Y-111688476D01*
X82518571Y-111736095D01*
X82423333Y-111783714D01*
X83280476Y-111450380D02*
X83280476Y-110450380D01*
X83280476Y-110831333D02*
X83375714Y-110783714D01*
X83566190Y-110783714D01*
X83661428Y-110831333D01*
X83709047Y-110878952D01*
X83756666Y-110974190D01*
X83756666Y-111259904D01*
X83709047Y-111355142D01*
X83661428Y-111402761D01*
X83566190Y-111450380D01*
X83375714Y-111450380D01*
X83280476Y-111402761D01*
X84328095Y-111450380D02*
X84232857Y-111402761D01*
X84185238Y-111355142D01*
X84137619Y-111259904D01*
X84137619Y-110974190D01*
X84185238Y-110878952D01*
X84232857Y-110831333D01*
X84328095Y-110783714D01*
X84470952Y-110783714D01*
X84566190Y-110831333D01*
X84613809Y-110878952D01*
X84661428Y-110974190D01*
X84661428Y-111259904D01*
X84613809Y-111355142D01*
X84566190Y-111402761D01*
X84470952Y-111450380D01*
X84328095Y-111450380D01*
X85518571Y-111450380D02*
X85518571Y-110926571D01*
X85470952Y-110831333D01*
X85375714Y-110783714D01*
X85185238Y-110783714D01*
X85090000Y-110831333D01*
X85518571Y-111402761D02*
X85423333Y-111450380D01*
X85185238Y-111450380D01*
X85090000Y-111402761D01*
X85042380Y-111307523D01*
X85042380Y-111212285D01*
X85090000Y-111117047D01*
X85185238Y-111069428D01*
X85423333Y-111069428D01*
X85518571Y-111021809D01*
X85994761Y-111450380D02*
X85994761Y-110783714D01*
X85994761Y-110974190D02*
X86042380Y-110878952D01*
X86090000Y-110831333D01*
X86185238Y-110783714D01*
X86280476Y-110783714D01*
X87042380Y-111450380D02*
X87042380Y-110450380D01*
X87042380Y-111402761D02*
X86947142Y-111450380D01*
X86756666Y-111450380D01*
X86661428Y-111402761D01*
X86613809Y-111355142D01*
X86566190Y-111259904D01*
X86566190Y-110974190D01*
X86613809Y-110878952D01*
X86661428Y-110831333D01*
X86756666Y-110783714D01*
X86947142Y-110783714D01*
X87042380Y-110831333D01*
X87280476Y-111545619D02*
X88042380Y-111545619D01*
X88185238Y-110783714D02*
X88423333Y-111450380D01*
X88661428Y-110783714D01*
X89566190Y-111450380D02*
X88994761Y-111450380D01*
X89280476Y-111450380D02*
X89280476Y-110450380D01*
X89185238Y-110593238D01*
X89090000Y-110688476D01*
X88994761Y-110736095D01*
X76922380Y-89081714D02*
X76922380Y-89272190D01*
X76970000Y-89367428D01*
X77017619Y-89415047D01*
X77160476Y-89510285D01*
X77350952Y-89557904D01*
X77731904Y-89557904D01*
X77827142Y-89510285D01*
X77874761Y-89462666D01*
X77922380Y-89367428D01*
X77922380Y-89176952D01*
X77874761Y-89081714D01*
X77827142Y-89034095D01*
X77731904Y-88986476D01*
X77493809Y-88986476D01*
X77398571Y-89034095D01*
X77350952Y-89081714D01*
X77303333Y-89176952D01*
X77303333Y-89367428D01*
X77350952Y-89462666D01*
X77398571Y-89510285D01*
X77493809Y-89557904D01*
X76922380Y-88081714D02*
X76922380Y-88557904D01*
X77398571Y-88605523D01*
X77350952Y-88557904D01*
X77303333Y-88462666D01*
X77303333Y-88224571D01*
X77350952Y-88129333D01*
X77398571Y-88081714D01*
X77493809Y-88034095D01*
X77731904Y-88034095D01*
X77827142Y-88081714D01*
X77874761Y-88129333D01*
X77922380Y-88224571D01*
X77922380Y-88462666D01*
X77874761Y-88557904D01*
X77827142Y-88605523D01*
X76922380Y-87415047D02*
X76922380Y-87319809D01*
X76970000Y-87224571D01*
X77017619Y-87176952D01*
X77112857Y-87129333D01*
X77303333Y-87081714D01*
X77541428Y-87081714D01*
X77731904Y-87129333D01*
X77827142Y-87176952D01*
X77874761Y-87224571D01*
X77922380Y-87319809D01*
X77922380Y-87415047D01*
X77874761Y-87510285D01*
X77827142Y-87557904D01*
X77731904Y-87605523D01*
X77541428Y-87653142D01*
X77303333Y-87653142D01*
X77112857Y-87605523D01*
X77017619Y-87557904D01*
X76970000Y-87510285D01*
X76922380Y-87415047D01*
X77017619Y-86700761D02*
X76970000Y-86653142D01*
X76922380Y-86557904D01*
X76922380Y-86319809D01*
X76970000Y-86224571D01*
X77017619Y-86176952D01*
X77112857Y-86129333D01*
X77208095Y-86129333D01*
X77350952Y-86176952D01*
X77922380Y-86748380D01*
X77922380Y-86129333D01*
X78017619Y-85938857D02*
X78017619Y-85176952D01*
X77922380Y-84938857D02*
X77255714Y-84938857D01*
X77350952Y-84938857D02*
X77303333Y-84891238D01*
X77255714Y-84796000D01*
X77255714Y-84653142D01*
X77303333Y-84557904D01*
X77398571Y-84510285D01*
X77922380Y-84510285D01*
X77398571Y-84510285D02*
X77303333Y-84462666D01*
X77255714Y-84367428D01*
X77255714Y-84224571D01*
X77303333Y-84129333D01*
X77398571Y-84081714D01*
X77922380Y-84081714D01*
X77922380Y-83176952D02*
X77398571Y-83176952D01*
X77303333Y-83224571D01*
X77255714Y-83319809D01*
X77255714Y-83510285D01*
X77303333Y-83605523D01*
X77874761Y-83176952D02*
X77922380Y-83272190D01*
X77922380Y-83510285D01*
X77874761Y-83605523D01*
X77779523Y-83653142D01*
X77684285Y-83653142D01*
X77589047Y-83605523D01*
X77541428Y-83510285D01*
X77541428Y-83272190D01*
X77493809Y-83176952D01*
X77922380Y-82700761D02*
X77255714Y-82700761D01*
X76922380Y-82700761D02*
X76970000Y-82748380D01*
X77017619Y-82700761D01*
X76970000Y-82653142D01*
X76922380Y-82700761D01*
X77017619Y-82700761D01*
X77255714Y-82224571D02*
X77922380Y-82224571D01*
X77350952Y-82224571D02*
X77303333Y-82176952D01*
X77255714Y-82081714D01*
X77255714Y-81938857D01*
X77303333Y-81843619D01*
X77398571Y-81796000D01*
X77922380Y-81796000D01*
X77922380Y-81319809D02*
X76922380Y-81319809D01*
X77303333Y-81319809D02*
X77255714Y-81224571D01*
X77255714Y-81034095D01*
X77303333Y-80938857D01*
X77350952Y-80891238D01*
X77446190Y-80843619D01*
X77731904Y-80843619D01*
X77827142Y-80891238D01*
X77874761Y-80938857D01*
X77922380Y-81034095D01*
X77922380Y-81224571D01*
X77874761Y-81319809D01*
X77922380Y-80272190D02*
X77874761Y-80367428D01*
X77827142Y-80415047D01*
X77731904Y-80462666D01*
X77446190Y-80462666D01*
X77350952Y-80415047D01*
X77303333Y-80367428D01*
X77255714Y-80272190D01*
X77255714Y-80129333D01*
X77303333Y-80034095D01*
X77350952Y-79986476D01*
X77446190Y-79938857D01*
X77731904Y-79938857D01*
X77827142Y-79986476D01*
X77874761Y-80034095D01*
X77922380Y-80129333D01*
X77922380Y-80272190D01*
X77922380Y-79081714D02*
X77398571Y-79081714D01*
X77303333Y-79129333D01*
X77255714Y-79224571D01*
X77255714Y-79415047D01*
X77303333Y-79510285D01*
X77874761Y-79081714D02*
X77922380Y-79176952D01*
X77922380Y-79415047D01*
X77874761Y-79510285D01*
X77779523Y-79557904D01*
X77684285Y-79557904D01*
X77589047Y-79510285D01*
X77541428Y-79415047D01*
X77541428Y-79176952D01*
X77493809Y-79081714D01*
X77922380Y-78605523D02*
X77255714Y-78605523D01*
X77446190Y-78605523D02*
X77350952Y-78557904D01*
X77303333Y-78510285D01*
X77255714Y-78415047D01*
X77255714Y-78319809D01*
X77922380Y-77557904D02*
X76922380Y-77557904D01*
X77874761Y-77557904D02*
X77922380Y-77653142D01*
X77922380Y-77843619D01*
X77874761Y-77938857D01*
X77827142Y-77986476D01*
X77731904Y-78034095D01*
X77446190Y-78034095D01*
X77350952Y-77986476D01*
X77303333Y-77938857D01*
X77255714Y-77843619D01*
X77255714Y-77653142D01*
X77303333Y-77557904D01*
X78017619Y-77319809D02*
X78017619Y-76557904D01*
X77255714Y-76415047D02*
X77922380Y-76176952D01*
X77255714Y-75938857D01*
X77017619Y-75605523D02*
X76970000Y-75557904D01*
X76922380Y-75462666D01*
X76922380Y-75224571D01*
X76970000Y-75129333D01*
X77017619Y-75081714D01*
X77112857Y-75034095D01*
X77208095Y-75034095D01*
X77350952Y-75081714D01*
X77922380Y-75653142D01*
X77922380Y-75034095D01*
X157877142Y-106632666D02*
X157924761Y-106680285D01*
X157972380Y-106823142D01*
X157972380Y-106918380D01*
X157924761Y-107061238D01*
X157829523Y-107156476D01*
X157734285Y-107204095D01*
X157543809Y-107251714D01*
X157400952Y-107251714D01*
X157210476Y-107204095D01*
X157115238Y-107156476D01*
X157020000Y-107061238D01*
X156972380Y-106918380D01*
X156972380Y-106823142D01*
X157020000Y-106680285D01*
X157067619Y-106632666D01*
X156972380Y-106299333D02*
X156972380Y-105680285D01*
X157353333Y-106013619D01*
X157353333Y-105870761D01*
X157400952Y-105775523D01*
X157448571Y-105727904D01*
X157543809Y-105680285D01*
X157781904Y-105680285D01*
X157877142Y-105727904D01*
X157924761Y-105775523D01*
X157972380Y-105870761D01*
X157972380Y-106156476D01*
X157924761Y-106251714D01*
X157877142Y-106299333D01*
X160742380Y-102112904D02*
X161551904Y-102112904D01*
X161647142Y-102065285D01*
X161694761Y-102017666D01*
X161742380Y-101922428D01*
X161742380Y-101731952D01*
X161694761Y-101636714D01*
X161647142Y-101589095D01*
X161551904Y-101541476D01*
X160742380Y-101541476D01*
X160837619Y-101112904D02*
X160790000Y-101065285D01*
X160742380Y-100970047D01*
X160742380Y-100731952D01*
X160790000Y-100636714D01*
X160837619Y-100589095D01*
X160932857Y-100541476D01*
X161028095Y-100541476D01*
X161170952Y-100589095D01*
X161742380Y-101160523D01*
X161742380Y-100541476D01*
X215789142Y-106612666D02*
X215836761Y-106660285D01*
X215884380Y-106803142D01*
X215884380Y-106898380D01*
X215836761Y-107041238D01*
X215741523Y-107136476D01*
X215646285Y-107184095D01*
X215455809Y-107231714D01*
X215312952Y-107231714D01*
X215122476Y-107184095D01*
X215027238Y-107136476D01*
X214932000Y-107041238D01*
X214884380Y-106898380D01*
X214884380Y-106803142D01*
X214932000Y-106660285D01*
X214979619Y-106612666D01*
X214979619Y-106231714D02*
X214932000Y-106184095D01*
X214884380Y-106088857D01*
X214884380Y-105850761D01*
X214932000Y-105755523D01*
X214979619Y-105707904D01*
X215074857Y-105660285D01*
X215170095Y-105660285D01*
X215312952Y-105707904D01*
X215884380Y-106279333D01*
X215884380Y-105660285D01*
X90146476Y-93924380D02*
X90146476Y-92924380D01*
X90527428Y-92924380D01*
X90622666Y-92972000D01*
X90670285Y-93019619D01*
X90717904Y-93114857D01*
X90717904Y-93257714D01*
X90670285Y-93352952D01*
X90622666Y-93400571D01*
X90527428Y-93448190D01*
X90146476Y-93448190D01*
X91336952Y-92924380D02*
X91527428Y-92924380D01*
X91622666Y-92972000D01*
X91717904Y-93067238D01*
X91765523Y-93257714D01*
X91765523Y-93591047D01*
X91717904Y-93781523D01*
X91622666Y-93876761D01*
X91527428Y-93924380D01*
X91336952Y-93924380D01*
X91241714Y-93876761D01*
X91146476Y-93781523D01*
X91098857Y-93591047D01*
X91098857Y-93257714D01*
X91146476Y-93067238D01*
X91241714Y-92972000D01*
X91336952Y-92924380D01*
X92098857Y-92924380D02*
X92336952Y-93924380D01*
X92527428Y-93210095D01*
X92717904Y-93924380D01*
X92956000Y-92924380D01*
X93336952Y-93400571D02*
X93670285Y-93400571D01*
X93813142Y-93924380D02*
X93336952Y-93924380D01*
X93336952Y-92924380D01*
X93813142Y-92924380D01*
X94813142Y-93924380D02*
X94479809Y-93448190D01*
X94241714Y-93924380D02*
X94241714Y-92924380D01*
X94622666Y-92924380D01*
X94717904Y-92972000D01*
X94765523Y-93019619D01*
X94813142Y-93114857D01*
X94813142Y-93257714D01*
X94765523Y-93352952D01*
X94717904Y-93400571D01*
X94622666Y-93448190D01*
X94241714Y-93448190D01*
X95290380Y-106338666D02*
X94814190Y-106672000D01*
X95290380Y-106910095D02*
X94290380Y-106910095D01*
X94290380Y-106529142D01*
X94338000Y-106433904D01*
X94385619Y-106386285D01*
X94480857Y-106338666D01*
X94623714Y-106338666D01*
X94718952Y-106386285D01*
X94766571Y-106433904D01*
X94814190Y-106529142D01*
X94814190Y-106910095D01*
X95290380Y-105386285D02*
X95290380Y-105957714D01*
X95290380Y-105672000D02*
X94290380Y-105672000D01*
X94433238Y-105767238D01*
X94528476Y-105862476D01*
X94576095Y-105957714D01*
X101460734Y-93119142D02*
X101413115Y-93166761D01*
X101270258Y-93214380D01*
X101175020Y-93214380D01*
X101032162Y-93166761D01*
X100936924Y-93071523D01*
X100889305Y-92976285D01*
X100841686Y-92785809D01*
X100841686Y-92642952D01*
X100889305Y-92452476D01*
X100936924Y-92357238D01*
X101032162Y-92262000D01*
X101175020Y-92214380D01*
X101270258Y-92214380D01*
X101413115Y-92262000D01*
X101460734Y-92309619D01*
X102413115Y-93214380D02*
X101841686Y-93214380D01*
X102127401Y-93214380D02*
X102127401Y-92214380D01*
X102032162Y-92357238D01*
X101936924Y-92452476D01*
X101841686Y-92500095D01*
D11*
X73830000Y-95984000D02*
X88530000Y-95984000D01*
X88530000Y-95984000D02*
X88530000Y-98584000D01*
X73830000Y-105184000D02*
X73830000Y-95984000D01*
X88530000Y-105184000D02*
X86630000Y-105184000D01*
X87680000Y-95784000D02*
X88730000Y-95784000D01*
X88730000Y-96834000D02*
X88730000Y-95784000D01*
X82630000Y-105184000D02*
X73830000Y-105184000D01*
X88530000Y-102484000D02*
X88530000Y-105184000D01*
X109764892Y-144126392D02*
X109764892Y-123686392D01*
X115386892Y-123686392D02*
X115386892Y-141586392D01*
X138880892Y-123686392D02*
X137230892Y-123686392D01*
X134606892Y-115932392D02*
X134606892Y-113272392D01*
X142530892Y-141586392D02*
X142530892Y-123686392D01*
X137230892Y-141586392D02*
X142530892Y-141586392D01*
D12*
X80165492Y-122730392D02*
X88115492Y-122730392D01*
D11*
X120686892Y-123686392D02*
X119036892Y-123686392D01*
X104066892Y-113272392D02*
X134606892Y-113272392D01*
D12*
X79428892Y-112062392D02*
X153596892Y-112062392D01*
D11*
X142530892Y-123686392D02*
X140880892Y-123686392D01*
D12*
X74855492Y-135430392D02*
X74855492Y-122730392D01*
D11*
X109764892Y-123686392D02*
X108114892Y-123686392D01*
X120686892Y-141586392D02*
X120686892Y-123686392D01*
X126308892Y-141586392D02*
X131608892Y-141586392D01*
X104066892Y-115932392D02*
X104066892Y-113272392D01*
X101466892Y-114602392D02*
X101466892Y-113272392D01*
X98842892Y-144126392D02*
X98842892Y-123686392D01*
D12*
X74856892Y-141780392D02*
X74856892Y-116634392D01*
D11*
X115386892Y-141586392D02*
X120686892Y-141586392D01*
X131608892Y-141586392D02*
X131608892Y-123686392D01*
X131608892Y-123686392D02*
X129958892Y-123686392D01*
X95192892Y-123686392D02*
X93542892Y-123686392D01*
D12*
X88115492Y-135430392D02*
X74855492Y-135430392D01*
X158168892Y-116634392D02*
X158168892Y-141780392D01*
X153596892Y-146352392D02*
X79428892Y-146352392D01*
D11*
X93542892Y-123686392D02*
X93542892Y-144126392D01*
D12*
X74855492Y-122730392D02*
X80165492Y-122730392D01*
D11*
X104066892Y-115932392D02*
X134606892Y-115932392D01*
X127958892Y-123686392D02*
X126308892Y-123686392D01*
X106114892Y-123686392D02*
X104464892Y-123686392D01*
X101466892Y-113272392D02*
X102796892Y-113272392D01*
X117036892Y-123686392D02*
X115386892Y-123686392D01*
X98842892Y-123686392D02*
X97192892Y-123686392D01*
X93542892Y-144126392D02*
X98842892Y-144126392D01*
X126308892Y-123686392D02*
X126308892Y-141586392D01*
X104464892Y-123686392D02*
X104464892Y-144126392D01*
X137230892Y-123686392D02*
X137230892Y-141586392D01*
D12*
X88115492Y-122730392D02*
X88115492Y-135430392D01*
D11*
X104464892Y-144126392D02*
X109764892Y-144126392D01*
X138880892Y-123686392D02*
G75*
G03*
X140880892Y-123686392I1000000J0D01*
G01*
X117036892Y-123686392D02*
G75*
G03*
X119036892Y-123686392I1000000J0D01*
G01*
X95192892Y-123686392D02*
G75*
G03*
X97192892Y-123686392I1000000J0D01*
G01*
X106114892Y-123686392D02*
G75*
G03*
X108114892Y-123686392I1000000J0D01*
G01*
D12*
X153596892Y-146352392D02*
G75*
G03*
X158168892Y-141780392I8J4571992D01*
G01*
D11*
X127958892Y-123686392D02*
G75*
G03*
X129958892Y-123686392I1000000J0D01*
G01*
D12*
X74856892Y-141780392D02*
G75*
G03*
X79428892Y-146352392I4572001J1D01*
G01*
X79428892Y-112062392D02*
G75*
G03*
X74856892Y-116634392I1J-4572001D01*
G01*
X158168908Y-116634392D02*
G75*
G03*
X153596892Y-112062392I-4572008J-8D01*
G01*
D11*
X184066000Y-73677000D02*
X184066000Y-75327000D01*
X90086000Y-64753000D02*
X141006000Y-64753000D01*
X184066000Y-78977000D02*
X201966000Y-78977000D01*
X160698000Y-78977000D02*
X181138000Y-78977000D01*
X113550000Y-79995000D02*
X113550000Y-68595000D01*
X150000000Y-69843000D02*
X193840000Y-69843000D01*
X157770000Y-73677000D02*
X139870000Y-73677000D01*
X92650000Y-80745000D02*
X112800000Y-80745000D01*
X116502000Y-73677000D02*
X116502000Y-75327000D01*
X141006000Y-64753000D02*
X141006000Y-51833000D01*
X139870000Y-78977000D02*
X157770000Y-78977000D01*
X136942000Y-73677000D02*
X116502000Y-73677000D01*
X194734000Y-51833000D02*
X194734000Y-57293000D01*
X160698000Y-73677000D02*
X160698000Y-75327000D01*
X181138000Y-78977000D02*
X181138000Y-73677000D01*
X93896000Y-84709000D02*
X93896000Y-83379000D01*
X141006000Y-51833000D02*
X90086000Y-51833000D01*
X160698000Y-77327000D02*
X160698000Y-78977000D01*
X93896000Y-83379000D02*
X95226000Y-83379000D01*
X90086000Y-59293000D02*
X90086000Y-64753000D01*
X116502000Y-78977000D02*
X136942000Y-78977000D01*
X222794000Y-78977000D02*
X222794000Y-73677000D01*
X194734000Y-64753000D02*
X230414000Y-64753000D01*
X92650000Y-68595000D02*
X92650000Y-80745000D01*
X204894000Y-73677000D02*
X204894000Y-75327000D01*
X96496000Y-83379000D02*
X220956000Y-83379000D01*
X139870000Y-77327000D02*
X139870000Y-78977000D01*
X112800000Y-67845000D02*
X93400000Y-67845000D01*
X96496000Y-86039000D02*
X220956000Y-86039000D01*
X81788000Y-45315000D02*
X233148000Y-45315000D01*
X220956000Y-86039000D02*
X220956000Y-83379000D01*
X143240000Y-46743000D02*
X143240000Y-69843000D01*
X139870000Y-73677000D02*
X139870000Y-75327000D01*
X96496000Y-86039000D02*
X96496000Y-83379000D01*
X204894000Y-77327000D02*
X204894000Y-78977000D01*
X222794000Y-73677000D02*
X204894000Y-73677000D01*
X230414000Y-51833000D02*
X194734000Y-51833000D01*
X143240000Y-69843000D02*
X145100000Y-69843000D01*
X157770000Y-78977000D02*
X157770000Y-73677000D01*
X201966000Y-78977000D02*
X201966000Y-73677000D01*
X193840000Y-46743000D02*
X143240000Y-46743000D01*
X201966000Y-73677000D02*
X184066000Y-73677000D01*
X184066000Y-77327000D02*
X184066000Y-78977000D01*
X235918000Y-48085000D02*
X235942000Y-88543000D01*
X143240000Y-67563000D02*
X145500000Y-67563000D01*
X79018000Y-48085000D02*
X79018000Y-88567000D01*
X116502000Y-77327000D02*
X116502000Y-78977000D01*
X230414000Y-64753000D02*
X230414000Y-51833000D01*
X204894000Y-78977000D02*
X222794000Y-78977000D01*
X194734000Y-59293000D02*
X194734000Y-64753000D01*
X136942000Y-78977000D02*
X136942000Y-73677000D01*
X181138000Y-73677000D02*
X160698000Y-73677000D01*
X193840000Y-69843000D02*
X193840000Y-46743000D01*
X233172000Y-91313000D02*
X81788000Y-91337000D01*
X90086000Y-51833000D02*
X90086000Y-57293000D01*
X184066000Y-77327000D02*
G75*
G03*
X184066000Y-75327000I0J1000000D01*
G01*
X139870000Y-77327000D02*
G75*
G03*
X139870000Y-75327000I0J1000000D01*
G01*
X194734000Y-59293000D02*
G75*
G03*
X194734000Y-57293000I0J1000000D01*
G01*
X160698000Y-77327000D02*
G75*
G03*
X160698000Y-75327000I0J1000000D01*
G01*
X113550000Y-68595000D02*
G75*
G03*
X112800000Y-67845000I-750000J0D01*
G01*
X81788000Y-45315000D02*
G75*
G03*
X79018000Y-48085000I-1J-2769999D01*
G01*
X90086000Y-59293000D02*
G75*
G03*
X90086000Y-57293000I0J1000000D01*
G01*
X93400000Y-67845000D02*
G75*
G03*
X92650000Y-68595000I0J-750000D01*
G01*
X235918000Y-48085000D02*
G75*
G03*
X233148000Y-45315000I-2770000J0D01*
G01*
X204894000Y-77327000D02*
G75*
G03*
X204894000Y-75327000I0J1000000D01*
G01*
X116502000Y-77327000D02*
G75*
G03*
X116502000Y-75327000I0J1000000D01*
G01*
X112800000Y-80745000D02*
G75*
G03*
X113550000Y-79995000I0J750000D01*
G01*
X233172000Y-91313000D02*
G75*
G03*
X235942000Y-88543000I0J2770000D01*
G01*
X79018000Y-88567000D02*
G75*
G03*
X81788000Y-91337000I2769999J-1D01*
G01*
X150100000Y-69113000D02*
G75*
G03*
X150100000Y-69113000I-2550000J0D01*
G01*
X148450000Y-69113000D02*
G75*
G03*
X148450000Y-69113000I-900000J0D01*
G01*
X161075000Y-109086000D02*
X161390000Y-109086000D01*
X161390000Y-109086000D02*
X161390000Y-103846000D01*
X158650000Y-109086000D02*
X158650000Y-103846000D01*
X158650000Y-109086000D02*
X158965000Y-109086000D01*
X158650000Y-103846000D02*
X158965000Y-103846000D01*
X161075000Y-103846000D02*
X161390000Y-103846000D01*
X162500000Y-94891000D02*
X162500000Y-100351000D01*
X215960000Y-94891000D02*
X162500000Y-94891000D01*
X162500000Y-102351000D02*
X162500000Y-107811000D01*
X215960000Y-107811000D02*
X215960000Y-94891000D01*
X162500000Y-107811000D02*
X215960000Y-107811000D01*
X162500000Y-102351000D02*
G75*
G03*
X162500000Y-100351000I0J1000000D01*
G01*
X219302000Y-109066000D02*
X219302000Y-103826000D01*
X218987000Y-103826000D02*
X219302000Y-103826000D01*
X218987000Y-109066000D02*
X219302000Y-109066000D01*
X216562000Y-109066000D02*
X216877000Y-109066000D01*
X216562000Y-109066000D02*
X216562000Y-103826000D01*
X216562000Y-103826000D02*
X216877000Y-103826000D01*
X102068599Y-99762000D02*
X140228599Y-99762000D01*
X99468599Y-99762000D02*
X100798599Y-99762000D01*
X102068599Y-102422000D02*
X140228599Y-102422000D01*
X99468599Y-101092000D02*
X99468599Y-99762000D01*
X102068599Y-102422000D02*
X102068599Y-99762000D01*
X140228599Y-102422000D02*
X140228599Y-99762000D01*
X239780000Y-147568500D02*
X239780000Y-111288500D01*
X159500000Y-147568500D02*
X239780000Y-147568500D01*
X235640000Y-141928500D02*
X162640000Y-141928500D01*
X167840000Y-121928500D02*
X231340000Y-121928500D01*
X162640000Y-141928500D02*
X162640000Y-116928500D01*
X239780000Y-111288500D02*
X160300000Y-111288500D01*
X231340660Y-136928500D02*
X167840000Y-136928500D01*
X159510000Y-111288500D02*
X160300000Y-111288500D01*
X159500000Y-111288500D02*
X159500000Y-147568500D01*
X231840000Y-122428500D02*
X231840000Y-136428500D01*
X167340280Y-136427820D02*
X167340280Y-122428500D01*
X162640000Y-116928500D02*
X235640000Y-116928500D01*
X166140000Y-110928500D02*
X169140000Y-110928500D01*
X235640000Y-116928500D02*
X235640000Y-141928500D01*
X167840660Y-121926960D02*
G75*
G03*
X167340280Y-122427340I0J-500380D01*
G01*
X231340660Y-136928240D02*
G75*
G03*
X231841040Y-136427820I-60J500440D01*
G01*
X167340280Y-136427820D02*
G75*
G03*
X167840660Y-136928200I500380J0D01*
G01*
X231840000Y-122428500D02*
G75*
G03*
X231340000Y-121928500I-500000J0D01*
G01*
X229680000Y-106721000D02*
G75*
G03*
X229680000Y-106721000I-3620000J0D01*
G01*
D10*
X79629000Y-94309000D02*
X81629000Y-94309000D01*
X77629000Y-94309000D02*
X78529000Y-94309000D01*
X80304000Y-93559000D02*
G75*
G03*
X80379000Y-94984000I-675000J-750000D01*
G01*
D13*
X79804000Y-94309000D02*
G75*
G03*
X79804000Y-94309000I-175000J0D01*
G01*
D10*
X83554000Y-94309000D02*
G75*
G03*
X83554000Y-94309000I-925000J0D01*
G01*
X77554000Y-94309000D02*
G75*
G03*
X77554000Y-94309000I-925000J0D01*
G01*
D11*
X91220000Y-98080000D02*
X91376000Y-98080000D01*
X93536000Y-98080000D02*
X93692000Y-98080000D01*
X91376163Y-95478870D02*
G75*
G03*
X91376000Y-97560961I1079837J-1041130D01*
G01*
X93691516Y-98080000D02*
G75*
G03*
X93534608Y-94847665I-1235516J1560000D01*
G01*
X91377392Y-94847665D02*
G75*
G03*
X91220484Y-98080000I1078608J-1672335D01*
G01*
X93536000Y-97560961D02*
G75*
G03*
X93535837Y-95478870I-1080000J1040961D01*
G01*
X93508000Y-102902000D02*
X93838000Y-102902000D01*
X93838000Y-109442000D02*
X93508000Y-109442000D01*
X93838000Y-102902000D02*
X93838000Y-109442000D01*
X91098000Y-109442000D02*
X91428000Y-109442000D01*
X91428000Y-102902000D02*
X91098000Y-102902000D01*
X91098000Y-102902000D02*
X91098000Y-109442000D01*
X101667401Y-96852000D02*
X101667401Y-98092000D01*
X101987401Y-96852000D02*
X101987401Y-98062000D01*
X102708401Y-94227000D02*
X102708401Y-95172000D01*
X101787401Y-96852000D02*
X101787401Y-98086000D01*
X102307401Y-94044000D02*
X102307401Y-95172000D01*
X102107401Y-93987000D02*
X102107401Y-95172000D01*
X102908401Y-94362000D02*
X102908401Y-95172000D01*
X102828401Y-94304000D02*
X102828401Y-95172000D01*
X102227401Y-94018000D02*
X102227401Y-95172000D01*
X102748401Y-96852000D02*
X102748401Y-97772000D01*
X103628401Y-95348000D02*
X103628401Y-96676000D01*
X103148401Y-96852000D02*
X103148401Y-97450000D01*
X102428401Y-94088000D02*
X102428401Y-95172000D01*
X101707401Y-96852000D02*
X101707401Y-98091000D01*
X101907401Y-96852000D02*
X101907401Y-98074000D01*
X101627401Y-93932000D02*
X101627401Y-95172000D01*
X101947401Y-96852000D02*
X101947401Y-98068000D01*
X103068401Y-96852000D02*
X103068401Y-97528000D01*
X101867401Y-96852000D02*
X101867401Y-98079000D01*
X102948401Y-96852000D02*
X102948401Y-97631000D01*
X102668401Y-96852000D02*
X102668401Y-97820000D01*
X103388401Y-94870000D02*
X103388401Y-97154000D01*
X102548401Y-94142000D02*
X102548401Y-95172000D01*
X101667401Y-93932000D02*
X101667401Y-95172000D01*
X103508401Y-95072000D02*
X103508401Y-96952000D01*
X102428401Y-96852000D02*
X102428401Y-97936000D01*
X102468401Y-96852000D02*
X102468401Y-97919000D01*
X102628401Y-94182000D02*
X102628401Y-95172000D01*
X99357600Y-94817000D02*
X99757600Y-94817000D01*
X102027401Y-93970000D02*
X102027401Y-95172000D01*
X102828401Y-96852000D02*
X102828401Y-97720000D01*
X102868401Y-94332000D02*
X102868401Y-95172000D01*
X102187401Y-94007000D02*
X102187401Y-95172000D01*
X103148401Y-94574000D02*
X103148401Y-95172000D01*
X102588401Y-96852000D02*
X102588401Y-97863000D01*
X102868401Y-96852000D02*
X102868401Y-97692000D01*
X102027401Y-96852000D02*
X102027401Y-98054000D01*
X103108401Y-96852000D02*
X103108401Y-97490000D01*
X101827401Y-93941000D02*
X101827401Y-95172000D01*
X102788401Y-94277000D02*
X102788401Y-95172000D01*
X102067401Y-93978000D02*
X102067401Y-95172000D01*
X102788401Y-96852000D02*
X102788401Y-97747000D01*
X102107401Y-96852000D02*
X102107401Y-98037000D01*
X103028401Y-94460000D02*
X103028401Y-95172000D01*
X103108401Y-94534000D02*
X103108401Y-95172000D01*
X103668401Y-95475000D02*
X103668401Y-96549000D01*
X102588401Y-94161000D02*
X102588401Y-95172000D01*
X102908401Y-96852000D02*
X102908401Y-97662000D01*
X103188401Y-96852000D02*
X103188401Y-97408000D01*
X103028401Y-96852000D02*
X103028401Y-97564000D01*
X103068401Y-94496000D02*
X103068401Y-95172000D01*
X102548401Y-96852000D02*
X102548401Y-97882000D01*
X103348401Y-94812000D02*
X103348401Y-97212000D01*
X102508401Y-96852000D02*
X102508401Y-97901000D01*
X101747401Y-93935000D02*
X101747401Y-95172000D01*
X103188401Y-94616000D02*
X103188401Y-95172000D01*
X102628401Y-96852000D02*
X102628401Y-97842000D01*
X103708401Y-95642000D02*
X103708401Y-96382000D01*
X101707401Y-93933000D02*
X101707401Y-95172000D01*
X103588401Y-95244000D02*
X103588401Y-96780000D01*
X102388401Y-96852000D02*
X102388401Y-97952000D01*
X103228401Y-94661000D02*
X103228401Y-97363000D01*
X102227401Y-96852000D02*
X102227401Y-98006000D01*
X101867401Y-93945000D02*
X101867401Y-95172000D01*
X102187401Y-96852000D02*
X102187401Y-98017000D01*
X102147401Y-93996000D02*
X102147401Y-95172000D01*
X102267401Y-94030000D02*
X102267401Y-95172000D01*
X103308401Y-94758000D02*
X103308401Y-97266000D01*
X102307401Y-96852000D02*
X102307401Y-97980000D01*
X101827401Y-96852000D02*
X101827401Y-98083000D01*
X103468401Y-94999000D02*
X103468401Y-97025000D01*
X102708401Y-96852000D02*
X102708401Y-97797000D01*
X101987401Y-93962000D02*
X101987401Y-95172000D01*
X102988401Y-94425000D02*
X102988401Y-95172000D01*
X102748401Y-94252000D02*
X102748401Y-95172000D01*
X103428401Y-94932000D02*
X103428401Y-97092000D01*
X101947401Y-93956000D02*
X101947401Y-95172000D01*
X102988401Y-96852000D02*
X102988401Y-97599000D01*
X102147401Y-96852000D02*
X102147401Y-98028000D01*
X102067401Y-96852000D02*
X102067401Y-98046000D01*
X102948401Y-94393000D02*
X102948401Y-95172000D01*
X102348401Y-94058000D02*
X102348401Y-95172000D01*
X102668401Y-94204000D02*
X102668401Y-95172000D01*
X103548401Y-95153000D02*
X103548401Y-96871000D01*
X101907401Y-93950000D02*
X101907401Y-95172000D01*
X102468401Y-94105000D02*
X102468401Y-95172000D01*
X103268401Y-94708000D02*
X103268401Y-97316000D01*
X101787401Y-93938000D02*
X101787401Y-95172000D01*
X102267401Y-96852000D02*
X102267401Y-97994000D01*
X99557600Y-94617000D02*
X99557600Y-95017000D01*
X102508401Y-94123000D02*
X102508401Y-95172000D01*
X101747401Y-96852000D02*
X101747401Y-98089000D01*
X102388401Y-94072000D02*
X102388401Y-95172000D01*
X101627401Y-96852000D02*
X101627401Y-98092000D01*
X102348401Y-96852000D02*
X102348401Y-97966000D01*
X103747401Y-96012000D02*
G75*
G03*
X103747401Y-96012000I-2120000J0D01*
G01*
%LPC*%
D14*
X87630000Y-100584000D03*
D15*
X81630000Y-100584000D03*
D16*
X84630000Y-105284000D03*
D17*
X79174892Y-142034392D03*
X153850892Y-142034392D03*
X153850892Y-116380392D03*
X79174892Y-116380392D03*
D18*
X102796892Y-114602392D03*
D19*
X105336892Y-114602392D03*
X107876892Y-114602392D03*
X110416892Y-114602392D03*
X112956892Y-114602392D03*
X115496892Y-114602392D03*
X118036892Y-114602392D03*
X120576892Y-114602392D03*
X123116892Y-114602392D03*
X125656892Y-114602392D03*
X128196892Y-114602392D03*
X130736892Y-114602392D03*
X133276892Y-114602392D03*
D20*
X82018000Y-88265000D03*
X232894000Y-88265000D03*
X82018000Y-48387000D03*
X232894000Y-48387000D03*
D18*
X95226000Y-84709000D03*
D19*
X97766000Y-84709000D03*
X100306000Y-84709000D03*
X102846000Y-84709000D03*
X105386000Y-84709000D03*
X107926000Y-84709000D03*
X110466000Y-84709000D03*
X113006000Y-84709000D03*
X115546000Y-84709000D03*
X118086000Y-84709000D03*
X120626000Y-84709000D03*
X123166000Y-84709000D03*
X125706000Y-84709000D03*
X128246000Y-84709000D03*
X130786000Y-84709000D03*
X133326000Y-84709000D03*
X135866000Y-84709000D03*
X138406000Y-84709000D03*
X140946000Y-84709000D03*
X143486000Y-84709000D03*
X146026000Y-84709000D03*
X148566000Y-84709000D03*
X151106000Y-84709000D03*
X153646000Y-84709000D03*
X156186000Y-84709000D03*
X158726000Y-84709000D03*
X161266000Y-84709000D03*
X163806000Y-84709000D03*
X166346000Y-84709000D03*
X168886000Y-84709000D03*
X171426000Y-84709000D03*
X173966000Y-84709000D03*
X176506000Y-84709000D03*
X179046000Y-84709000D03*
X181586000Y-84709000D03*
X184126000Y-84709000D03*
X186666000Y-84709000D03*
X189206000Y-84709000D03*
X191746000Y-84709000D03*
X194286000Y-84709000D03*
X196826000Y-84709000D03*
X199366000Y-84709000D03*
X201906000Y-84709000D03*
X204446000Y-84709000D03*
X206986000Y-84709000D03*
X209526000Y-84709000D03*
X212066000Y-84709000D03*
X214606000Y-84709000D03*
X217146000Y-84709000D03*
X219686000Y-84709000D03*
D21*
X160020000Y-108966000D03*
X160020000Y-103966000D03*
D22*
X163830000Y-108971000D03*
D23*
X166370000Y-108971000D03*
X168910000Y-108971000D03*
X171450000Y-108971000D03*
X173990000Y-108971000D03*
X176530000Y-108971000D03*
X179070000Y-108971000D03*
X181610000Y-108971000D03*
X184150000Y-108971000D03*
X186690000Y-108971000D03*
X189230000Y-108971000D03*
X191770000Y-108971000D03*
X194310000Y-108971000D03*
X196850000Y-108971000D03*
X199390000Y-108971000D03*
X201930000Y-108971000D03*
X204470000Y-108971000D03*
X207010000Y-108971000D03*
X209550000Y-108971000D03*
X212090000Y-108971000D03*
X214630000Y-108971000D03*
X214630000Y-93731000D03*
X212090000Y-93731000D03*
X209550000Y-93731000D03*
X207010000Y-93731000D03*
X204470000Y-93731000D03*
X201930000Y-93731000D03*
X199390000Y-93731000D03*
X196850000Y-93731000D03*
X194310000Y-93731000D03*
X191770000Y-93731000D03*
X189230000Y-93731000D03*
X186690000Y-93731000D03*
X184150000Y-93731000D03*
X181610000Y-93731000D03*
X179070000Y-93731000D03*
X176530000Y-93731000D03*
X173990000Y-93731000D03*
X171450000Y-93731000D03*
X168910000Y-93731000D03*
X166370000Y-93731000D03*
X163830000Y-93731000D03*
D21*
X217932000Y-108946000D03*
X217932000Y-103946000D03*
D18*
X100798599Y-101092000D03*
D19*
X103338599Y-101092000D03*
X105878599Y-101092000D03*
X108418599Y-101092000D03*
X110958599Y-101092000D03*
X113498599Y-101092000D03*
X116038599Y-101092000D03*
X118578599Y-101092000D03*
X121118599Y-101092000D03*
X123658599Y-101092000D03*
X126198599Y-101092000D03*
X128738599Y-101092000D03*
X131278599Y-101092000D03*
X133818599Y-101092000D03*
X136358599Y-101092000D03*
X138898599Y-101092000D03*
D24*
X237139480Y-144929200D03*
X237140000Y-113928500D03*
X162140900Y-113928500D03*
X162140900Y-144929200D03*
D25*
X167640000Y-113928500D03*
D26*
X170180000Y-113928500D03*
X172720000Y-113928500D03*
X175260000Y-113928500D03*
X177800000Y-113928500D03*
X180340000Y-113928500D03*
X182880000Y-113928500D03*
X185420000Y-113928500D03*
X187960000Y-113928500D03*
X190500000Y-113928500D03*
X193040000Y-113928500D03*
X195580000Y-113928500D03*
X198120000Y-113928500D03*
X200660000Y-113928500D03*
X203200000Y-113928500D03*
X205740000Y-113928500D03*
D27*
X228600000Y-106680000D03*
X226060000Y-104140000D03*
X223520000Y-106680000D03*
D28*
X92456000Y-97790000D03*
D29*
X92456000Y-95250000D03*
D21*
X92468000Y-102362000D03*
D23*
X92468000Y-109982000D03*
D30*
X100877401Y-96012000D03*
D31*
X102377401Y-96012000D03*
M02*
