M48
; DRILL file {KiCad (6.0.7-1)-1} date 2022 August 10, Wednesday 01:24:57
; FORMAT={-:-/ absolute / metric / decimal}
; #@! TF.CreationDate,2022-08-10T01:24:57+02:00
; #@! TF.GenerationSoftware,Kicad,Pcbnew,(6.0.7-1)-1
; #@! TF.FileFunction,Plated,1,4,PTH
FMAT,2
METRIC
; #@! TA.AperFunction,Plated,PTH,ViaDrill
T1C0.300
; #@! TA.AperFunction,Plated,PTH,ComponentDrill
T2C0.600
; #@! TA.AperFunction,Plated,PTH,ComponentDrill
T3C0.800
; #@! TA.AperFunction,Plated,PTH,ComponentDrill
T4C0.900
; #@! TA.AperFunction,Plated,PTH,ComponentDrill
T5C1.000
; #@! TA.AperFunction,Plated,PTH,ComponentDrill
T6C1.200
; #@! TA.AperFunction,Plated,PTH,ComponentDrill
T7C2.500
%
G90
G05
T1
X76.2Y-50.8
X76.2Y-63.5
X76.2Y-76.2
X76.2Y-88.9
X76.2Y-101.6
X76.2Y-114.3
X76.2Y-127.0
X76.2Y-139.7
X79.248Y-108.712
X86.614Y-84.963
X88.9Y-50.8
X88.9Y-63.5
X88.9Y-76.2
X88.9Y-88.9
X88.9Y-93.599
X88.9Y-114.3
X88.9Y-127.0
X88.9Y-139.7
X92.583Y-107.442
X97.536Y-115.443
X101.219Y-108.204
X101.6Y-50.8
X101.6Y-63.5
X101.6Y-76.2
X101.6Y-88.9
X101.6Y-127.0
X101.6Y-139.7
X107.95Y-93.218
X111.307Y-110.913
X112.268Y-110.617
X113.376Y-110.838
X113.919Y-109.982
X114.3Y-50.8
X114.3Y-63.5
X114.3Y-76.2
X114.3Y-127.0
X114.3Y-139.7
X114.921Y-110.236
X116.078Y-120.777
X125.984Y-93.472
X127.0Y-50.8
X127.0Y-63.5
X127.0Y-76.2
X127.0Y-127.0
X127.0Y-139.7
X130.429Y-96.774
X137.414Y-90.805
X137.414Y-108.331
X139.319Y-116.967
X139.7Y-50.8
X139.7Y-63.5
X139.7Y-76.2
X139.7Y-114.3
X139.7Y-127.0
X139.7Y-139.7
X142.24Y-96.52
X145.415Y-88.9
X145.542Y-103.124
X148.463Y-123.952
X150.114Y-88.519
X152.4Y-50.8
X152.4Y-63.5
X152.4Y-76.2
X152.4Y-114.3
X152.4Y-127.0
X152.4Y-139.7
X158.242Y-93.98
X158.242Y-108.966
X158.623Y-100.838
X161.417Y-97.155
X161.798Y-108.966
X165.1Y-50.8
X165.1Y-63.5
X165.1Y-76.2
X165.1Y-101.6
X165.1Y-127.0
X165.1Y-139.7
X170.434Y-106.172
X170.942Y-116.078
X176.022Y-118.999
X177.8Y-50.8
X177.8Y-63.5
X177.8Y-76.2
X177.8Y-127.0
X177.8Y-139.7
X177.927Y-99.314
X179.578Y-124.333
X185.039Y-106.11
X190.5Y-50.8
X190.5Y-63.5
X190.5Y-76.2
X190.5Y-101.6
X190.5Y-127.0
X190.5Y-139.7
X203.2Y-50.8
X203.2Y-63.5
X203.2Y-76.2
X203.2Y-101.6
X203.2Y-127.0
X203.2Y-139.7
X203.327Y-90.043
X204.089Y-117.856
X207.518Y-96.647
X207.899Y-106.553
X211.074Y-114.681
X211.582Y-106.934
X212.217Y-110.744
X212.979Y-89.154
X213.233Y-96.012
X214.63Y-106.553
X215.9Y-50.8
X215.9Y-63.5
X215.9Y-76.2
X215.9Y-101.6
X215.9Y-114.3
X215.9Y-127.0
X215.9Y-139.7
X221.107Y-88.773
X224.79Y-97.028
X225.171Y-109.601
X228.6Y-50.8
X228.6Y-63.5
X228.6Y-76.2
X228.6Y-88.9
X228.6Y-114.3
X228.6Y-127.0
X228.6Y-139.7
X230.886Y-101.6
T2
X100.877Y-96.012
X102.377Y-96.012
T3
X92.468Y-102.362
X92.468Y-109.982
X160.02Y-103.966
X160.02Y-108.966
X163.83Y-93.731
X163.83Y-108.971
X166.37Y-93.731
X166.37Y-108.971
X168.91Y-93.731
X168.91Y-108.971
X171.45Y-93.731
X171.45Y-108.971
X173.99Y-93.731
X173.99Y-108.971
X176.53Y-93.731
X176.53Y-108.971
X179.07Y-93.731
X179.07Y-108.971
X181.61Y-93.731
X181.61Y-108.971
X184.15Y-93.731
X184.15Y-108.971
X186.69Y-93.731
X186.69Y-108.971
X189.23Y-93.731
X189.23Y-108.971
X191.77Y-93.731
X191.77Y-108.971
X194.31Y-93.731
X194.31Y-108.971
X196.85Y-93.731
X196.85Y-108.971
X199.39Y-93.731
X199.39Y-108.971
X201.93Y-93.731
X201.93Y-108.971
X204.47Y-93.731
X204.47Y-108.971
X207.01Y-93.731
X207.01Y-108.971
X209.55Y-93.731
X209.55Y-108.971
X212.09Y-93.731
X212.09Y-108.971
X214.63Y-93.731
X214.63Y-108.971
X217.932Y-103.946
X217.932Y-108.946
X223.52Y-106.68
X226.06Y-104.14
X228.6Y-106.68
T4
X92.456Y-95.25
X92.456Y-97.79
T5
X95.226Y-84.709
X97.766Y-84.709
X100.306Y-84.709
X100.799Y-101.092
X102.797Y-114.602
X102.846Y-84.709
X103.339Y-101.092
X105.337Y-114.602
X105.386Y-84.709
X105.879Y-101.092
X107.877Y-114.602
X107.926Y-84.709
X108.419Y-101.092
X110.417Y-114.602
X110.466Y-84.709
X110.959Y-101.092
X112.957Y-114.602
X113.006Y-84.709
X113.499Y-101.092
X115.497Y-114.602
X115.546Y-84.709
X116.039Y-101.092
X118.037Y-114.602
X118.086Y-84.709
X118.579Y-101.092
X120.577Y-114.602
X120.626Y-84.709
X121.119Y-101.092
X123.117Y-114.602
X123.166Y-84.709
X123.659Y-101.092
X125.657Y-114.602
X125.706Y-84.709
X126.199Y-101.092
X128.197Y-114.602
X128.246Y-84.709
X128.739Y-101.092
X130.737Y-114.602
X130.786Y-84.709
X131.279Y-101.092
X133.277Y-114.602
X133.326Y-84.709
X133.819Y-101.092
X135.866Y-84.709
X136.359Y-101.092
X138.406Y-84.709
X138.899Y-101.092
X140.946Y-84.709
X143.486Y-84.709
X146.026Y-84.709
X148.566Y-84.709
X151.106Y-84.709
X153.646Y-84.709
X156.186Y-84.709
X158.726Y-84.709
X161.266Y-84.709
X163.806Y-84.709
X166.346Y-84.709
X168.886Y-84.709
X171.426Y-84.709
X173.966Y-84.709
X176.506Y-84.709
X179.046Y-84.709
X181.586Y-84.709
X184.126Y-84.709
X186.666Y-84.709
X189.206Y-84.709
X191.746Y-84.709
X194.286Y-84.709
X196.826Y-84.709
X199.366Y-84.709
X201.906Y-84.709
X204.446Y-84.709
X206.986Y-84.709
X209.526Y-84.709
X212.066Y-84.709
X214.606Y-84.709
X217.146Y-84.709
X219.686Y-84.709
T6
X167.64Y-113.928
X170.18Y-113.928
X172.72Y-113.928
X175.26Y-113.928
X177.8Y-113.928
X180.34Y-113.928
X182.88Y-113.928
X185.42Y-113.928
X187.96Y-113.928
X190.5Y-113.928
X193.04Y-113.928
X195.58Y-113.928
X198.12Y-113.928
X200.66Y-113.928
X203.2Y-113.928
X205.74Y-113.928
T7
X162.141Y-113.928
X162.141Y-144.929
X237.139Y-144.929
X237.14Y-113.928
T5
X81.63Y-99.584G85X81.63Y-101.584
G05
X83.63Y-105.284G85X85.63Y-105.284
G05
X87.63Y-99.584G85X87.63Y-101.584
G05
T0
M30
