M48
; DRILL file {KiCad (6.0.11-0)} date 2023 May 23, Tuesday 16:26:09
; FORMAT={-:-/ absolute / metric / decimal}
; #@! TF.CreationDate,2023-05-23T16:26:09+02:00
; #@! TF.GenerationSoftware,Kicad,Pcbnew,(6.0.11-0)
; #@! TF.FileFunction,Plated,1,4,PTH
FMAT,2
METRIC
; #@! TA.AperFunction,Plated,PTH,ViaDrill
T1C0.300
; #@! TA.AperFunction,Plated,PTH,ViaDrill
T2C0.400
; #@! TA.AperFunction,Plated,PTH,ComponentDrill
T3C0.600
; #@! TA.AperFunction,Plated,PTH,ComponentDrill
T4C0.787
; #@! TA.AperFunction,Plated,PTH,ComponentDrill
T5C0.800
; #@! TA.AperFunction,Plated,PTH,ComponentDrill
T6C0.900
; #@! TA.AperFunction,Plated,PTH,ComponentDrill
T7C1.000
; #@! TA.AperFunction,Plated,PTH,ComponentDrill
T8C1.200
; #@! TA.AperFunction,Plated,PTH,ComponentDrill
T9C2.500
%
G90
G05
T1
X67.31Y-97.79
X68.834Y-151.384
X69.596Y-107.188
X72.39Y-125.984
X72.996Y-82.835
X73.152Y-88.138
X73.152Y-91.186
X73.161Y-81.998
X73.422Y-87.328
X73.428Y-84.105
X73.66Y-48.26
X73.66Y-85.09
X73.66Y-90.424
X73.914Y-70.906
X74.422Y-132.842
X74.93Y-96.012
X75.184Y-76.2
X75.438Y-51.443
X75.438Y-155.254
X75.946Y-75.692
X76.073Y-76.581
X76.2Y-90.17
X76.962Y-104.902
X77.47Y-101.6
X77.724Y-138.684
X78.486Y-59.436
X78.486Y-75.184
X78.486Y-76.2
X78.496Y-56.947
X78.74Y-99.314
X78.951Y-74.518
X79.248Y-116.84
X79.315Y-61.501
X79.35Y-56.972
X79.756Y-75.946
X79.832Y-62.179
X80.274Y-61.404
X80.518Y-70.906
X80.518Y-76.454
X80.651Y-75.251
X81.28Y-51.443
X81.534Y-110.236
X82.042Y-76.454
X82.55Y-121.412
X82.662Y-77.041
X83.058Y-84.328
X83.245Y-76.239
X83.312Y-142.748
X84.047Y-64.13
X84.074Y-70.906
X84.328Y-131.826
X84.582Y-64.795
X84.582Y-137.668
X85.09Y-51.443
X85.09Y-59.436
X85.304Y-64.329
X85.852Y-89.154
X85.852Y-155.508
X86.868Y-85.598
X86.868Y-106.934
X88.138Y-54.356
X88.138Y-72.898
X88.138Y-102.627
X88.283Y-101.786
X88.341Y-66.515
X88.392Y-114.808
X88.875Y-67.191
X88.985Y-72.792
X89.179Y-102.627
X89.186Y-66.394
X89.552Y-72.155
X89.662Y-127.508
X89.916Y-133.35
X90.678Y-85.344
X91.364Y-65.126
X91.592Y-65.964
X92.227Y-65.261
X92.456Y-94.691
X93.218Y-72.644
X93.726Y-88.392
X95.504Y-130.556
X96.012Y-155.254
X96.266Y-62.23
X96.266Y-105.918
X96.774Y-120.142
X97.028Y-98.552
X98.044Y-54.864
X98.247Y-85.877
X100.33Y-91.186
X100.584Y-105.918
X101.067Y-126.797
X101.448Y-86.157
X102.006Y-127.229
X102.87Y-98.806
X104.14Y-121.92
X104.394Y-72.39
X104.557Y-104.766
X105.461Y-85.446
X105.639Y-105.029
X106.172Y-155.254
X106.934Y-62.484
X107.188Y-124.714
X107.544Y-105.181
X107.973Y-103.866
X108.052Y-83.896
X108.458Y-55.626
X108.458Y-119.126
X109.22Y-51.443
X110.541Y-83.922
X113.03Y-84.023
X113.072Y-137.417
X113.259Y-136.5
X113.284Y-155.508
X113.868Y-137.109
X114.14Y-139.456
X114.3Y-62.484
X114.986Y-139.573
X115.545Y-84.099
X115.672Y-136.652
X115.749Y-135.802
X116.205Y-142.443
X116.84Y-93.497
X116.865Y-135.788
X116.916Y-134.925
X117.069Y-142.291
X117.577Y-97.739
X117.704Y-144.12
X117.856Y-138.684
X118.085Y-134.341
X118.161Y-83.972
X118.161Y-135.204
X118.387Y-98.702
X118.43Y-97.739
X118.542Y-143.942
X119.177Y-133.706
X119.202Y-99.822
X119.24Y-98.73
X119.38Y-51.443
X119.38Y-72.644
X119.38Y-93.497
X119.583Y-134.468
X119.999Y-99.515
X120.619Y-133.212
X120.65Y-83.998
X121.031Y-133.96
X122.174Y-126.492
X122.682Y-155.254
X123.266Y-83.922
X123.368Y-92.634
X123.444Y-55.118
X123.444Y-137.922
X123.698Y-144.272
X123.952Y-62.484
X124.886Y-97.353
X125.527Y-97.917
X125.73Y-92.608
X125.755Y-83.998
X126.238Y-134.366
X126.721Y-111.455
X126.746Y-125.73
X126.943Y-97.504
X127.229Y-112.7
X127.254Y-138.176
X127.559Y-98.095
X127.571Y-111.384
X127.916Y-112.194
X127.973Y-113.274
X128.194Y-105.791
X128.27Y-84.049
X128.397Y-92.608
X128.689Y-106.486
X129.642Y-133.807
X129.667Y-132.766
X129.724Y-97.467
X130.353Y-98.044
X130.835Y-83.998
X130.937Y-92.583
X131.064Y-62.23
X131.318Y-72.39
X132.08Y-155.0
X133.172Y-142.596
X133.325Y-84.074
X133.452Y-92.634
X133.68Y-141.173
X133.756Y-125.019
X133.782Y-125.882
X134.087Y-142.748
X134.137Y-143.84
X134.544Y-141.453
X134.563Y-139.77
X134.846Y-104.281
X134.976Y-143.612
X135.179Y-140.36
X135.245Y-144.956
X135.255Y-138.455
X135.56Y-104.75
X135.763Y-139.141
X135.89Y-84.049
X135.966Y-144.501
X136.246Y-125.882
X136.339Y-127.086
X136.373Y-137.566
X136.931Y-138.328
X137.566Y-145.085
X137.566Y-145.938
X137.768Y-131.995
X137.871Y-132.842
X137.922Y-55.626
X138.405Y-84.049
X138.684Y-127.508
X138.866Y-126.598
X139.446Y-51.443
X139.649Y-132.182
X139.65Y-131.328
X139.7Y-135.382
X140.081Y-129.337
X140.934Y-129.363
X140.97Y-105.156
X141.046Y-83.922
X141.173Y-131.496
X141.354Y-130.662
X141.478Y-143.256
X142.204Y-130.814
X142.24Y-99.568
X142.596Y-131.572
X142.748Y-155.254
X143.002Y-137.414
X143.256Y-61.976
X143.485Y-84.099
X143.671Y-130.399
X144.229Y-131.515
X144.78Y-106.426
X146.304Y-123.952
X147.066Y-134.874
X148.59Y-98.806
X149.098Y-155.0
X149.352Y-131.572
X150.622Y-62.23
X151.13Y-56.134
X152.4Y-67.564
X152.4Y-98.806
X154.178Y-71.374
X154.432Y-117.094
X155.194Y-105.41
X155.448Y-133.858
X156.21Y-99.06
X158.242Y-154.238
X158.496Y-76.454
X160.274Y-105.156
X160.528Y-51.443
X162.052Y-154.746
X162.56Y-55.626
X163.068Y-62.23
X164.846Y-81.788
X165.1Y-89.408
X165.71Y-90.018
X166.37Y-67.818
X166.624Y-117.094
X166.878Y-154.238
X167.132Y-89.078
X167.64Y-76.2
X167.767Y-89.687
X168.351Y-92.939
X168.605Y-88.519
X168.758Y-93.726
X169.291Y-89.052
X169.697Y-108.306
X170.18Y-81.026
X170.18Y-100.33
X170.282Y-107.374
X170.942Y-62.484
X170.942Y-94.742
X171.574Y-105.27
X171.933Y-106.045
X172.212Y-55.118
X172.974Y-51.443
X172.974Y-153.984
X173.181Y-106.034
X173.406Y-106.858
X173.482Y-72.644
X173.736Y-67.056
X173.736Y-142.494
X173.99Y-138.684
X174.378Y-107.091
X174.752Y-89.916
X174.803Y-102.514
X174.981Y-103.911
X175.006Y-123.952
X175.184Y-107.374
X175.26Y-132.588
X175.393Y-103.131
X175.744Y-104.293
X175.87Y-114.224
X176.327Y-66.7
X176.691Y-64.372
X177.164Y-66.535
X177.522Y-64.179
X178.105Y-89.611
X178.308Y-81.28
X178.587Y-114.3
X178.943Y-89.865
X179.07Y-62.23
X179.324Y-135.636
X179.578Y-57.912
X179.578Y-88.875
X180.322Y-89.293
X180.797Y-114.173
X180.967Y-88.564
X181.356Y-68.072
X181.356Y-138.176
X181.483Y-87.884
X183.591Y-114.3
X184.404Y-106.426
X184.658Y-92.71
X185.852Y-114.198
X186.385Y-121.575
X186.411Y-122.428
X186.944Y-68.072
X186.944Y-89.916
X187.198Y-80.518
X187.706Y-103.632
X188.163Y-123.038
X188.337Y-122.202
X188.595Y-114.249
X188.976Y-76.708
X189.992Y-58.42
X189.992Y-71.628
X190.068Y-123.622
X190.516Y-122.895
X190.983Y-114.148
X191.77Y-88.9
X191.922Y-124.333
X192.262Y-123.55
X193.446Y-124.917
X193.548Y-129.286
X193.599Y-114.198
X193.87Y-124.176
X194.869Y-125.476
X195.372Y-124.787
X195.834Y-106.172
X196.088Y-64.262
X196.342Y-76.2
X196.596Y-98.298
X196.596Y-125.933
X196.85Y-119.126
X197.212Y-125.343
X197.866Y-93.726
X198.044Y-126.365
X198.831Y-125.959
X199.923Y-85.928
X201.168Y-81.28
X202.946Y-137.16
X203.962Y-69.088
X204.47Y-88.392
X204.978Y-94.742
X205.232Y-112.522
X205.486Y-107.696
X206.248Y-118.11
X207.391Y-85.827
X207.772Y-142.748
X209.042Y-137.668
X213.106Y-76.2
X214.122Y-79.502
X214.376Y-128.016
X219.202Y-122.428
X219.202Y-131.318
X219.71Y-93.98
X219.964Y-107.442
X220.98Y-116.586
X224.282Y-87.376
X224.282Y-137.668
X225.044Y-97.536
X226.822Y-93.472
X227.584Y-82.042
X228.092Y-141.986
X231.902Y-103.632
T2
X83.82Y-106.934
X85.09Y-106.934
X91.44Y-96.774
X147.32Y-108.204
X176.737Y-109.172
X177.444Y-110.084
X185.522Y-138.405
X186.541Y-138.966
X196.901Y-114.529
T3
X83.82Y-100.33
X85.32Y-100.33
T4
X101.531Y-114.602
X104.071Y-114.602
X109.151Y-114.602
X111.691Y-114.602
X114.231Y-114.602
X116.771Y-114.602
X119.311Y-114.602
T5
X90.17Y-100.965
X90.17Y-108.585
X97.79Y-93.98
X97.79Y-109.22
X100.33Y-93.98
X100.33Y-109.22
X102.87Y-93.98
X102.87Y-109.22
X105.41Y-93.98
X105.41Y-109.22
X107.95Y-93.98
X107.95Y-109.22
X110.49Y-93.98
X110.49Y-109.22
X113.03Y-93.98
X113.03Y-109.22
X115.57Y-93.98
X115.57Y-109.22
X118.11Y-93.98
X118.11Y-109.22
X120.65Y-93.98
X120.65Y-109.22
X123.19Y-93.98
X123.19Y-109.22
X125.73Y-93.98
X125.73Y-109.22
X128.27Y-93.98
X128.27Y-109.22
X130.81Y-93.98
X130.81Y-109.22
X133.35Y-93.98
X133.35Y-109.22
X135.89Y-93.98
X135.89Y-109.22
X138.43Y-93.98
X138.43Y-109.22
X140.97Y-93.98
X140.97Y-109.22
X143.51Y-93.98
X143.51Y-109.22
X146.05Y-93.98
X146.05Y-109.22
X149.86Y-104.18
X149.86Y-109.18
X223.52Y-104.902
X226.06Y-102.362
X228.6Y-104.902
T6
X90.158Y-95.758
X90.158Y-98.298
T7
X68.58Y-50.8
X68.58Y-53.34
X68.58Y-55.88
X68.58Y-58.42
X68.58Y-60.96
X68.58Y-63.5
X68.58Y-66.04
X68.58Y-68.58
X68.58Y-71.12
X68.58Y-73.66
X68.58Y-76.2
X68.58Y-78.74
X68.58Y-81.28
X68.58Y-83.82
X68.58Y-86.36
X68.58Y-88.9
X68.58Y-91.44
X68.58Y-93.98
X71.12Y-50.8
X71.12Y-53.34
X71.12Y-55.88
X71.12Y-58.42
X71.12Y-60.96
X71.12Y-63.5
X71.12Y-66.04
X71.12Y-68.58
X71.12Y-71.12
X71.12Y-73.66
X71.12Y-76.2
X71.12Y-78.74
X71.12Y-81.28
X71.12Y-83.82
X71.12Y-86.36
X71.12Y-88.9
X71.12Y-91.44
X71.12Y-93.98
X71.12Y-149.606
X73.66Y-149.606
X76.2Y-149.606
X78.586Y-93.88
X78.74Y-149.606
X81.126Y-93.88
X81.28Y-149.606
X83.82Y-149.606
X86.36Y-149.606
X88.9Y-149.606
X91.44Y-149.606
X93.956Y-84.709
X93.98Y-149.606
X96.451Y-114.602
X96.496Y-84.709
X96.52Y-149.606
X98.991Y-114.602
X99.036Y-84.709
X99.06Y-149.606
X101.576Y-84.709
X101.6Y-149.606
X104.116Y-84.709
X104.14Y-149.606
X106.611Y-114.602
X106.656Y-84.709
X106.68Y-149.606
X109.196Y-84.709
X109.22Y-149.606
X111.736Y-84.709
X111.76Y-149.606
X114.276Y-84.709
X114.3Y-149.606
X116.816Y-84.709
X116.84Y-149.606
X119.356Y-84.709
X119.38Y-149.606
X121.851Y-114.602
X121.896Y-84.709
X121.92Y-149.606
X124.391Y-114.602
X124.436Y-84.709
X124.46Y-149.606
X126.931Y-114.602
X126.976Y-84.709
X127.0Y-149.606
X129.516Y-84.709
X129.54Y-149.606
X132.056Y-84.709
X132.08Y-149.606
X134.596Y-84.709
X134.62Y-149.606
X137.136Y-84.709
X137.16Y-149.606
X139.676Y-84.709
X139.7Y-149.606
X142.216Y-84.709
X142.24Y-149.606
X144.756Y-84.709
X144.78Y-149.606
X147.296Y-84.709
X147.32Y-149.606
X149.836Y-84.709
X149.86Y-149.606
X152.376Y-84.709
X152.4Y-149.606
X154.916Y-84.709
X154.94Y-149.606
X157.456Y-84.709
X157.48Y-149.606
X159.996Y-84.709
X160.02Y-149.606
X162.536Y-84.709
X162.56Y-149.606
X165.076Y-84.709
X165.1Y-149.606
X165.125Y-96.53
X165.125Y-99.07
X165.125Y-101.61
X165.125Y-104.15
X167.616Y-84.709
X167.64Y-149.606
X170.156Y-84.709
X170.18Y-149.606
X172.696Y-84.709
X175.236Y-84.709
X175.26Y-149.606
X177.776Y-84.709
X177.8Y-149.606
X179.07Y-96.52
X179.07Y-99.06
X179.07Y-101.6
X180.316Y-84.709
X180.34Y-149.606
X182.856Y-84.709
X182.88Y-149.606
X185.396Y-84.709
X185.42Y-149.606
X187.936Y-84.709
X187.96Y-149.606
X190.476Y-84.709
X192.303Y-96.54
X192.303Y-99.08
X193.016Y-84.709
X193.04Y-149.606
X195.556Y-84.709
X195.58Y-149.606
X198.096Y-84.709
X198.12Y-149.606
X200.636Y-84.709
X200.66Y-149.606
X203.176Y-84.709
X203.2Y-149.606
X205.716Y-84.709
X205.74Y-149.606
X208.256Y-84.709
X208.28Y-149.606
X210.796Y-84.709
X210.82Y-149.606
X213.336Y-84.709
X213.36Y-149.606
X215.876Y-84.709
X215.9Y-149.606
X218.416Y-84.709
X218.44Y-149.606
X220.98Y-149.606
X223.52Y-149.606
X226.06Y-149.606
X228.6Y-149.606
X231.14Y-149.606
T8
X161.294Y-112.522
X163.834Y-112.522
X166.374Y-112.522
X168.914Y-112.522
X171.454Y-112.522
X173.994Y-112.522
X176.534Y-112.522
X179.074Y-112.522
X181.614Y-112.522
X184.154Y-112.522
X186.694Y-112.522
X189.234Y-112.522
X191.774Y-112.522
X194.314Y-112.522
X196.854Y-112.522
X199.394Y-112.522
T9
X155.795Y-112.522
X155.795Y-143.523
X230.793Y-143.523
X230.794Y-112.522
T7
X73.939Y-103.96G85X73.939Y-105.96
G05
X75.939Y-109.66G85X77.939Y-109.66
G05
X79.939Y-103.96G85X79.939Y-105.96
G05
T0
M30
