G04 #@! TF.GenerationSoftware,KiCad,Pcbnew,(6.0.11-0)*
G04 #@! TF.CreationDate,2023-05-23T16:25:54+02:00*
G04 #@! TF.ProjectId,6502_computer,36353032-5f63-46f6-9d70-757465722e6b,REV*
G04 #@! TF.SameCoordinates,Original*
G04 #@! TF.FileFunction,Soldermask,Bot*
G04 #@! TF.FilePolarity,Negative*
%FSLAX46Y46*%
G04 Gerber Fmt 4.6, Leading zero omitted, Abs format (unit mm)*
G04 Created by KiCad (PCBNEW (6.0.11-0)) date 2023-05-23 16:25:54*
%MOMM*%
%LPD*%
G01*
G04 APERTURE LIST*
G04 Aperture macros list*
%AMRoundRect*
0 Rectangle with rounded corners*
0 $1 Rounding radius*
0 $2 $3 $4 $5 $6 $7 $8 $9 X,Y pos of 4 corners*
0 Add a 4 corners polygon primitive as box body*
4,1,4,$2,$3,$4,$5,$6,$7,$8,$9,$2,$3,0*
0 Add four circle primitives for the rounded corners*
1,1,$1+$1,$2,$3*
1,1,$1+$1,$4,$5*
1,1,$1+$1,$6,$7*
1,1,$1+$1,$8,$9*
0 Add four rect primitives between the rounded corners*
20,1,$1+$1,$2,$3,$4,$5,0*
20,1,$1+$1,$4,$5,$6,$7,0*
20,1,$1+$1,$6,$7,$8,$9,0*
20,1,$1+$1,$8,$9,$2,$3,0*%
G04 Aperture macros list end*
%ADD10R,3.500000X3.500000*%
%ADD11RoundRect,0.750000X-0.750000X-1.000000X0.750000X-1.000000X0.750000X1.000000X-0.750000X1.000000X0*%
%ADD12RoundRect,0.875000X-0.875000X-0.875000X0.875000X-0.875000X0.875000X0.875000X-0.875000X0.875000X0*%
%ADD13R,1.700000X1.700000*%
%ADD14O,1.700000X1.700000*%
%ADD15C,3.200000*%
%ADD16C,1.574800*%
%ADD17O,1.574800X1.574800*%
%ADD18C,2.700000*%
%ADD19R,1.600000X1.600000*%
%ADD20O,1.600000X1.600000*%
%ADD21O,1.579880X1.579880*%
%ADD22C,1.600000*%
%ADD23C,3.000000*%
%ADD24R,1.800000X2.600000*%
%ADD25O,1.800000X2.600000*%
%ADD26C,1.440000*%
%ADD27R,1.800000X1.800000*%
%ADD28C,1.800000*%
%ADD29R,1.200000X1.200000*%
%ADD30C,1.200000*%
G04 APERTURE END LIST*
D10*
X79939400Y-104960500D03*
D11*
X73939400Y-104960500D03*
D12*
X76939400Y-109660500D03*
D13*
X179070000Y-96520000D03*
D14*
X179070000Y-99060000D03*
X179070000Y-101600000D03*
D13*
X71120000Y-149606000D03*
D14*
X73660000Y-149606000D03*
X76200000Y-149606000D03*
X78740000Y-149606000D03*
X81280000Y-149606000D03*
X83820000Y-149606000D03*
X86360000Y-149606000D03*
X88900000Y-149606000D03*
X91440000Y-149606000D03*
X93980000Y-149606000D03*
X96520000Y-149606000D03*
X99060000Y-149606000D03*
X101600000Y-149606000D03*
X104140000Y-149606000D03*
X106680000Y-149606000D03*
X109220000Y-149606000D03*
X111760000Y-149606000D03*
X114300000Y-149606000D03*
X116840000Y-149606000D03*
X119380000Y-149606000D03*
X121920000Y-149606000D03*
X124460000Y-149606000D03*
X127000000Y-149606000D03*
X129540000Y-149606000D03*
X132080000Y-149606000D03*
X134620000Y-149606000D03*
X137160000Y-149606000D03*
X139700000Y-149606000D03*
X142240000Y-149606000D03*
X144780000Y-149606000D03*
X147320000Y-149606000D03*
X149860000Y-149606000D03*
X152400000Y-149606000D03*
X154940000Y-149606000D03*
X157480000Y-149606000D03*
X160020000Y-149606000D03*
X162560000Y-149606000D03*
X165100000Y-149606000D03*
X167640000Y-149606000D03*
X170180000Y-149606000D03*
D13*
X165125000Y-96530000D03*
D14*
X165125000Y-99070000D03*
X165125000Y-101610000D03*
X165125000Y-104150000D03*
D13*
X175260000Y-149606000D03*
D14*
X177800000Y-149606000D03*
X180340000Y-149606000D03*
X182880000Y-149606000D03*
X185420000Y-149606000D03*
X187960000Y-149606000D03*
D13*
X78586000Y-93880000D03*
D14*
X81126000Y-93880000D03*
D15*
X72828892Y-142034392D03*
X147504892Y-142034392D03*
X147504892Y-116380392D03*
X72828892Y-116380392D03*
D13*
X96450892Y-114602392D03*
D14*
X98990892Y-114602392D03*
D16*
X101530892Y-114602392D03*
X104070892Y-114602392D03*
D14*
X106610892Y-114602392D03*
D17*
X109150892Y-114602392D03*
X111690892Y-114602392D03*
X114230892Y-114602392D03*
X116770892Y-114602392D03*
X119310892Y-114602392D03*
D14*
X121850892Y-114602392D03*
X124390892Y-114602392D03*
X126930892Y-114602392D03*
D13*
X71120000Y-93980000D03*
D14*
X68580000Y-93980000D03*
X71120000Y-91440000D03*
X68580000Y-91440000D03*
X71120000Y-88900000D03*
X68580000Y-88900000D03*
X71120000Y-86360000D03*
X68580000Y-86360000D03*
X71120000Y-83820000D03*
X68580000Y-83820000D03*
X71120000Y-81280000D03*
X68580000Y-81280000D03*
X71120000Y-78740000D03*
X68580000Y-78740000D03*
X71120000Y-76200000D03*
X68580000Y-76200000D03*
X71120000Y-73660000D03*
X68580000Y-73660000D03*
X71120000Y-71120000D03*
X68580000Y-71120000D03*
X71120000Y-68580000D03*
X68580000Y-68580000D03*
X71120000Y-66040000D03*
X68580000Y-66040000D03*
X71120000Y-63500000D03*
X68580000Y-63500000D03*
X71120000Y-60960000D03*
X68580000Y-60960000D03*
X71120000Y-58420000D03*
X68580000Y-58420000D03*
X71120000Y-55880000D03*
X68580000Y-55880000D03*
X71120000Y-53340000D03*
X68580000Y-53340000D03*
X71120000Y-50800000D03*
X68580000Y-50800000D03*
D13*
X192303000Y-96540000D03*
D14*
X192303000Y-99080000D03*
D18*
X80748000Y-88265000D03*
X231624000Y-88265000D03*
X80748000Y-48387000D03*
X231624000Y-48387000D03*
D13*
X93956000Y-84709000D03*
D14*
X96496000Y-84709000D03*
X99036000Y-84709000D03*
X101576000Y-84709000D03*
X104116000Y-84709000D03*
X106656000Y-84709000D03*
X109196000Y-84709000D03*
X111736000Y-84709000D03*
X114276000Y-84709000D03*
X116816000Y-84709000D03*
X119356000Y-84709000D03*
X121896000Y-84709000D03*
X124436000Y-84709000D03*
X126976000Y-84709000D03*
X129516000Y-84709000D03*
X132056000Y-84709000D03*
X134596000Y-84709000D03*
X137136000Y-84709000D03*
X139676000Y-84709000D03*
X142216000Y-84709000D03*
X144756000Y-84709000D03*
X147296000Y-84709000D03*
X149836000Y-84709000D03*
X152376000Y-84709000D03*
X154916000Y-84709000D03*
X157456000Y-84709000D03*
X159996000Y-84709000D03*
X162536000Y-84709000D03*
X165076000Y-84709000D03*
X167616000Y-84709000D03*
X170156000Y-84709000D03*
X172696000Y-84709000D03*
X175236000Y-84709000D03*
X177776000Y-84709000D03*
X180316000Y-84709000D03*
X182856000Y-84709000D03*
X185396000Y-84709000D03*
X187936000Y-84709000D03*
X190476000Y-84709000D03*
X193016000Y-84709000D03*
X195556000Y-84709000D03*
X198096000Y-84709000D03*
X200636000Y-84709000D03*
X203176000Y-84709000D03*
X205716000Y-84709000D03*
X208256000Y-84709000D03*
X210796000Y-84709000D03*
X213336000Y-84709000D03*
X215876000Y-84709000D03*
X218416000Y-84709000D03*
D19*
X97790000Y-109220000D03*
D20*
X100330000Y-109220000D03*
X102870000Y-109220000D03*
X105410000Y-109220000D03*
X107950000Y-109220000D03*
D21*
X110490000Y-109220000D03*
X113030000Y-109220000D03*
X115570000Y-109220000D03*
D20*
X118110000Y-109220000D03*
X120650000Y-109220000D03*
X123190000Y-109220000D03*
X125730000Y-109220000D03*
X128270000Y-109220000D03*
X130810000Y-109220000D03*
X133350000Y-109220000D03*
X135890000Y-109220000D03*
X138430000Y-109220000D03*
X140970000Y-109220000D03*
X143510000Y-109220000D03*
X146050000Y-109220000D03*
X146050000Y-93980000D03*
X143510000Y-93980000D03*
X140970000Y-93980000D03*
D21*
X138430000Y-93980000D03*
X135890000Y-93980000D03*
X133350000Y-93980000D03*
D20*
X130810000Y-93980000D03*
X128270000Y-93980000D03*
X125730000Y-93980000D03*
X123190000Y-93980000D03*
X120650000Y-93980000D03*
X118110000Y-93980000D03*
X115570000Y-93980000D03*
X113030000Y-93980000D03*
X110490000Y-93980000D03*
X107950000Y-93980000D03*
X105410000Y-93980000D03*
X102870000Y-93980000D03*
X100330000Y-93980000D03*
X97790000Y-93980000D03*
D22*
X149860000Y-109180000D03*
X149860000Y-104180000D03*
D13*
X193040000Y-149606000D03*
D14*
X195580000Y-149606000D03*
X198120000Y-149606000D03*
X200660000Y-149606000D03*
X203200000Y-149606000D03*
X205740000Y-149606000D03*
X208280000Y-149606000D03*
X210820000Y-149606000D03*
X213360000Y-149606000D03*
X215900000Y-149606000D03*
X218440000Y-149606000D03*
X220980000Y-149606000D03*
X223520000Y-149606000D03*
X226060000Y-149606000D03*
X228600000Y-149606000D03*
X231140000Y-149606000D03*
D23*
X230793480Y-143522700D03*
X230794000Y-112522000D03*
X155794900Y-112522000D03*
X155794900Y-143522700D03*
D24*
X161294000Y-112522000D03*
D25*
X163834000Y-112522000D03*
X166374000Y-112522000D03*
X168914000Y-112522000D03*
X171454000Y-112522000D03*
X173994000Y-112522000D03*
X176534000Y-112522000D03*
X179074000Y-112522000D03*
X181614000Y-112522000D03*
X184154000Y-112522000D03*
X186694000Y-112522000D03*
X189234000Y-112522000D03*
X191774000Y-112522000D03*
X194314000Y-112522000D03*
X196854000Y-112522000D03*
X199394000Y-112522000D03*
D26*
X228600000Y-104902000D03*
X226060000Y-102362000D03*
X223520000Y-104902000D03*
D27*
X90158000Y-98298000D03*
D28*
X90158000Y-95758000D03*
D22*
X90170000Y-100965000D03*
D20*
X90170000Y-108585000D03*
D29*
X83820000Y-100330000D03*
D30*
X85320000Y-100330000D03*
M02*
