G04 #@! TF.GenerationSoftware,KiCad,Pcbnew,(6.0.11-0)*
G04 #@! TF.CreationDate,2023-06-10T21:55:51+02:00*
G04 #@! TF.ProjectId,6502_computer,36353032-5f63-46f6-9d70-757465722e6b,REV*
G04 #@! TF.SameCoordinates,Original*
G04 #@! TF.FileFunction,Legend,Top*
G04 #@! TF.FilePolarity,Positive*
%FSLAX46Y46*%
G04 Gerber Fmt 4.6, Leading zero omitted, Abs format (unit mm)*
G04 Created by KiCad (PCBNEW (6.0.11-0)) date 2023-06-10 21:55:51*
%MOMM*%
%LPD*%
G01*
G04 APERTURE LIST*
G04 Aperture macros list*
%AMRoundRect*
0 Rectangle with rounded corners*
0 $1 Rounding radius*
0 $2 $3 $4 $5 $6 $7 $8 $9 X,Y pos of 4 corners*
0 Add a 4 corners polygon primitive as box body*
4,1,4,$2,$3,$4,$5,$6,$7,$8,$9,$2,$3,0*
0 Add four circle primitives for the rounded corners*
1,1,$1+$1,$2,$3*
1,1,$1+$1,$4,$5*
1,1,$1+$1,$6,$7*
1,1,$1+$1,$8,$9*
0 Add four rect primitives between the rounded corners*
20,1,$1+$1,$2,$3,$4,$5,0*
20,1,$1+$1,$4,$5,$6,$7,0*
20,1,$1+$1,$6,$7,$8,$9,0*
20,1,$1+$1,$8,$9,$2,$3,0*%
G04 Aperture macros list end*
%ADD10C,0.150000*%
%ADD11C,0.120000*%
%ADD12C,0.100000*%
%ADD13C,0.500000*%
%ADD14C,2.700000*%
%ADD15R,1.700000X1.700000*%
%ADD16O,1.700000X1.700000*%
%ADD17R,3.500000X3.500000*%
%ADD18RoundRect,0.750000X-0.750000X-1.000000X0.750000X-1.000000X0.750000X1.000000X-0.750000X1.000000X0*%
%ADD19RoundRect,0.875000X-0.875000X-0.875000X0.875000X-0.875000X0.875000X0.875000X-0.875000X0.875000X0*%
%ADD20C,3.200000*%
%ADD21C,1.574800*%
%ADD22O,1.574800X1.574800*%
%ADD23R,1.600000X1.600000*%
%ADD24O,1.600000X1.600000*%
%ADD25O,1.579880X1.579880*%
%ADD26C,1.600000*%
%ADD27C,3.000000*%
%ADD28R,1.800000X2.600000*%
%ADD29O,1.800000X2.600000*%
%ADD30C,1.440000*%
%ADD31R,1.800000X1.800000*%
%ADD32C,1.800000*%
%ADD33R,1.200000X1.200000*%
%ADD34C,1.200000*%
G04 APERTURE END LIST*
D10*
X76200000Y-46990000D02*
X76200000Y-81280000D01*
X76200000Y-81280000D02*
X73660000Y-83820000D01*
X167894000Y-102362000D02*
X167894000Y-105410000D01*
X73660000Y-83820000D02*
X73660000Y-93980000D01*
X73812400Y-44627800D02*
X76200000Y-46990000D01*
X167894000Y-95250000D02*
X167259000Y-95250000D01*
X181610000Y-95250000D02*
X180975000Y-95250000D01*
X181610000Y-101854000D02*
X181610000Y-102870000D01*
X167894000Y-105410000D02*
X167259000Y-105410000D01*
X167894000Y-98298000D02*
X167894000Y-95250000D01*
X71120000Y-96520000D02*
X66344800Y-96520000D01*
X181610000Y-96266000D02*
X181610000Y-95250000D01*
X73660000Y-93980000D02*
X71120000Y-96520000D01*
X181610000Y-102870000D02*
X180975000Y-102870000D01*
X160789214Y-104602380D02*
X160789214Y-103602380D01*
X161170166Y-103602380D01*
X161265404Y-103650000D01*
X161313023Y-103697619D01*
X161360642Y-103792857D01*
X161360642Y-103935714D01*
X161313023Y-104030952D01*
X161265404Y-104078571D01*
X161170166Y-104126190D01*
X160789214Y-104126190D01*
X161789214Y-104602380D02*
X161789214Y-103602380D01*
X162027309Y-103602380D01*
X162170166Y-103650000D01*
X162265404Y-103745238D01*
X162313023Y-103840476D01*
X162360642Y-104030952D01*
X162360642Y-104173809D01*
X162313023Y-104364285D01*
X162265404Y-104459523D01*
X162170166Y-104554761D01*
X162027309Y-104602380D01*
X161789214Y-104602380D01*
X162693976Y-103602380D02*
X163360642Y-103602380D01*
X162932071Y-104602380D01*
X160668976Y-96601428D02*
X161430880Y-96601428D01*
X161049928Y-96982380D02*
X161049928Y-96220476D01*
X162383261Y-95982380D02*
X161907071Y-95982380D01*
X161859452Y-96458571D01*
X161907071Y-96410952D01*
X162002309Y-96363333D01*
X162240404Y-96363333D01*
X162335642Y-96410952D01*
X162383261Y-96458571D01*
X162430880Y-96553809D01*
X162430880Y-96791904D01*
X162383261Y-96887142D01*
X162335642Y-96934761D01*
X162240404Y-96982380D01*
X162002309Y-96982380D01*
X161907071Y-96934761D01*
X161859452Y-96887142D01*
X162716595Y-95982380D02*
X163049928Y-96982380D01*
X163383261Y-95982380D01*
X226551781Y-153798928D02*
X225551781Y-153798928D01*
X225551781Y-153417976D01*
X225599401Y-153322738D01*
X225647020Y-153275119D01*
X225742258Y-153227500D01*
X225885115Y-153227500D01*
X225980353Y-153275119D01*
X226027972Y-153322738D01*
X226075591Y-153417976D01*
X226075591Y-153798928D01*
X226266067Y-152846547D02*
X226266067Y-152370357D01*
X226551781Y-152941785D02*
X225551781Y-152608452D01*
X226551781Y-152275119D01*
X225647020Y-151989404D02*
X225599401Y-151941785D01*
X225551781Y-151846547D01*
X225551781Y-151608452D01*
X225599401Y-151513214D01*
X225647020Y-151465595D01*
X225742258Y-151417976D01*
X225837496Y-151417976D01*
X225980353Y-151465595D01*
X226551781Y-152037023D01*
X226551781Y-151417976D01*
X175188571Y-152814833D02*
X175236190Y-152671976D01*
X175283809Y-152624357D01*
X175379047Y-152576738D01*
X175521904Y-152576738D01*
X175617142Y-152624357D01*
X175664761Y-152671976D01*
X175712380Y-152767214D01*
X175712380Y-153148166D01*
X174712380Y-153148166D01*
X174712380Y-152814833D01*
X174760000Y-152719595D01*
X174807619Y-152671976D01*
X174902857Y-152624357D01*
X174998095Y-152624357D01*
X175093333Y-152671976D01*
X175140952Y-152719595D01*
X175188571Y-152814833D01*
X175188571Y-153148166D01*
X175188571Y-152148166D02*
X175188571Y-151814833D01*
X175712380Y-151671976D02*
X175712380Y-152148166D01*
X174712380Y-152148166D01*
X174712380Y-151671976D01*
X180744761Y-155148166D02*
X180792380Y-155005309D01*
X180792380Y-154767214D01*
X180744761Y-154671976D01*
X180697142Y-154624357D01*
X180601904Y-154576738D01*
X180506666Y-154576738D01*
X180411428Y-154624357D01*
X180363809Y-154671976D01*
X180316190Y-154767214D01*
X180268571Y-154957690D01*
X180220952Y-155052928D01*
X180173333Y-155100547D01*
X180078095Y-155148166D01*
X179982857Y-155148166D01*
X179887619Y-155100547D01*
X179840000Y-155052928D01*
X179792380Y-154957690D01*
X179792380Y-154719595D01*
X179840000Y-154576738D01*
X180316190Y-153957690D02*
X180792380Y-153957690D01*
X179792380Y-154291023D02*
X180316190Y-153957690D01*
X179792380Y-153624357D01*
X180792380Y-153291023D02*
X179792380Y-153291023D01*
X180792380Y-152719595D01*
X179792380Y-152719595D01*
X180697142Y-151671976D02*
X180744761Y-151719595D01*
X180792380Y-151862452D01*
X180792380Y-151957690D01*
X180744761Y-152100547D01*
X180649523Y-152195785D01*
X180554285Y-152243404D01*
X180363809Y-152291023D01*
X180220952Y-152291023D01*
X180030476Y-152243404D01*
X179935238Y-152195785D01*
X179840000Y-152100547D01*
X179792380Y-151957690D01*
X179792380Y-151862452D01*
X179840000Y-151719595D01*
X179887619Y-151671976D01*
X104306666Y-153100547D02*
X104306666Y-152624357D01*
X104592380Y-153195785D02*
X103592380Y-152862452D01*
X104592380Y-152529119D01*
X103592380Y-152291023D02*
X103592380Y-151624357D01*
X104592380Y-152052928D01*
X140152380Y-153195785D02*
X139152380Y-153195785D01*
X139152380Y-152957690D01*
X139200000Y-152814833D01*
X139295238Y-152719595D01*
X139390476Y-152671976D01*
X139580952Y-152624357D01*
X139723809Y-152624357D01*
X139914285Y-152671976D01*
X140009523Y-152719595D01*
X140104761Y-152814833D01*
X140152380Y-152957690D01*
X140152380Y-153195785D01*
X140152380Y-151671976D02*
X140152380Y-152243404D01*
X140152380Y-151957690D02*
X139152380Y-151957690D01*
X139295238Y-152052928D01*
X139390476Y-152148166D01*
X139438095Y-152243404D01*
X187130000Y-153481500D02*
X187130000Y-152529119D01*
X188364761Y-153291023D02*
X188412380Y-153148166D01*
X188412380Y-152910071D01*
X188364761Y-152814833D01*
X188317142Y-152767214D01*
X188221904Y-152719595D01*
X188126666Y-152719595D01*
X188031428Y-152767214D01*
X187983809Y-152814833D01*
X187936190Y-152910071D01*
X187888571Y-153100547D01*
X187840952Y-153195785D01*
X187793333Y-153243404D01*
X187698095Y-153291023D01*
X187602857Y-153291023D01*
X187507619Y-153243404D01*
X187460000Y-153195785D01*
X187412380Y-153100547D01*
X187412380Y-152862452D01*
X187460000Y-152719595D01*
X187130000Y-152529119D02*
X187130000Y-151481500D01*
X187412380Y-152100547D02*
X187412380Y-151910071D01*
X187460000Y-151814833D01*
X187555238Y-151719595D01*
X187745714Y-151671976D01*
X188079047Y-151671976D01*
X188269523Y-151719595D01*
X188364761Y-151814833D01*
X188412380Y-151910071D01*
X188412380Y-152100547D01*
X188364761Y-152195785D01*
X188269523Y-152291023D01*
X188079047Y-152338642D01*
X187745714Y-152338642D01*
X187555238Y-152291023D01*
X187460000Y-152195785D01*
X187412380Y-152100547D01*
X175448500Y-101957142D02*
X175400880Y-102004761D01*
X175258023Y-102052380D01*
X175162785Y-102052380D01*
X175019928Y-102004761D01*
X174924690Y-101909523D01*
X174877071Y-101814285D01*
X174829452Y-101623809D01*
X174829452Y-101480952D01*
X174877071Y-101290476D01*
X174924690Y-101195238D01*
X175019928Y-101100000D01*
X175162785Y-101052380D01*
X175258023Y-101052380D01*
X175400880Y-101100000D01*
X175448500Y-101147619D01*
X176353261Y-102052380D02*
X175877071Y-102052380D01*
X175877071Y-101052380D01*
X176686595Y-102052380D02*
X176686595Y-101052380D01*
X177258023Y-102052380D02*
X176829452Y-101480952D01*
X177258023Y-101052380D02*
X176686595Y-101623809D01*
X137612380Y-153195785D02*
X136612380Y-153195785D01*
X136612380Y-152957690D01*
X136660000Y-152814833D01*
X136755238Y-152719595D01*
X136850476Y-152671976D01*
X137040952Y-152624357D01*
X137183809Y-152624357D01*
X137374285Y-152671976D01*
X137469523Y-152719595D01*
X137564761Y-152814833D01*
X137612380Y-152957690D01*
X137612380Y-153195785D01*
X136707619Y-152243404D02*
X136660000Y-152195785D01*
X136612380Y-152100547D01*
X136612380Y-151862452D01*
X136660000Y-151767214D01*
X136707619Y-151719595D01*
X136802857Y-151671976D01*
X136898095Y-151671976D01*
X137040952Y-151719595D01*
X137612380Y-152291023D01*
X137612380Y-151671976D01*
X122086666Y-153100547D02*
X122086666Y-152624357D01*
X122372380Y-153195785D02*
X121372380Y-152862452D01*
X122372380Y-152529119D01*
X121372380Y-152005309D02*
X121372380Y-151910071D01*
X121420000Y-151814833D01*
X121467619Y-151767214D01*
X121562857Y-151719595D01*
X121753333Y-151671976D01*
X121991428Y-151671976D01*
X122181904Y-151719595D01*
X122277142Y-151767214D01*
X122324761Y-151814833D01*
X122372380Y-151910071D01*
X122372380Y-152005309D01*
X122324761Y-152100547D01*
X122277142Y-152148166D01*
X122181904Y-152195785D01*
X121991428Y-152243404D01*
X121753333Y-152243404D01*
X121562857Y-152195785D01*
X121467619Y-152148166D01*
X121420000Y-152100547D01*
X121372380Y-152005309D01*
X206231781Y-153941785D02*
X205231781Y-153941785D01*
X205231781Y-153560833D01*
X205279401Y-153465595D01*
X205327020Y-153417976D01*
X205422258Y-153370357D01*
X205565115Y-153370357D01*
X205660353Y-153417976D01*
X205707972Y-153465595D01*
X205755591Y-153560833D01*
X205755591Y-153941785D01*
X205707972Y-152608452D02*
X205755591Y-152465595D01*
X205803210Y-152417976D01*
X205898448Y-152370357D01*
X206041305Y-152370357D01*
X206136543Y-152417976D01*
X206184162Y-152465595D01*
X206231781Y-152560833D01*
X206231781Y-152941785D01*
X205231781Y-152941785D01*
X205231781Y-152608452D01*
X205279401Y-152513214D01*
X205327020Y-152465595D01*
X205422258Y-152417976D01*
X205517496Y-152417976D01*
X205612734Y-152465595D01*
X205660353Y-152513214D01*
X205707972Y-152608452D01*
X205707972Y-152941785D01*
X205231781Y-152037023D02*
X205231781Y-151370357D01*
X206231781Y-151798928D01*
X75770952Y-98988571D02*
X75009047Y-98988571D01*
X97020476Y-95972380D02*
X97258571Y-96972380D01*
X97449047Y-96258095D01*
X97639523Y-96972380D01*
X97877619Y-95972380D01*
X98687142Y-95972380D02*
X98496666Y-95972380D01*
X98401428Y-96020000D01*
X98353809Y-96067619D01*
X98258571Y-96210476D01*
X98210952Y-96400952D01*
X98210952Y-96781904D01*
X98258571Y-96877142D01*
X98306190Y-96924761D01*
X98401428Y-96972380D01*
X98591904Y-96972380D01*
X98687142Y-96924761D01*
X98734761Y-96877142D01*
X98782380Y-96781904D01*
X98782380Y-96543809D01*
X98734761Y-96448571D01*
X98687142Y-96400952D01*
X98591904Y-96353333D01*
X98401428Y-96353333D01*
X98306190Y-96400952D01*
X98258571Y-96448571D01*
X98210952Y-96543809D01*
X99687142Y-95972380D02*
X99210952Y-95972380D01*
X99163333Y-96448571D01*
X99210952Y-96400952D01*
X99306190Y-96353333D01*
X99544285Y-96353333D01*
X99639523Y-96400952D01*
X99687142Y-96448571D01*
X99734761Y-96543809D01*
X99734761Y-96781904D01*
X99687142Y-96877142D01*
X99639523Y-96924761D01*
X99544285Y-96972380D01*
X99306190Y-96972380D01*
X99210952Y-96924761D01*
X99163333Y-96877142D01*
X100734761Y-96877142D02*
X100687142Y-96924761D01*
X100544285Y-96972380D01*
X100449047Y-96972380D01*
X100306190Y-96924761D01*
X100210952Y-96829523D01*
X100163333Y-96734285D01*
X100115714Y-96543809D01*
X100115714Y-96400952D01*
X100163333Y-96210476D01*
X100210952Y-96115238D01*
X100306190Y-96020000D01*
X100449047Y-95972380D01*
X100544285Y-95972380D01*
X100687142Y-96020000D01*
X100734761Y-96067619D01*
X101115714Y-96067619D02*
X101163333Y-96020000D01*
X101258571Y-95972380D01*
X101496666Y-95972380D01*
X101591904Y-96020000D01*
X101639523Y-96067619D01*
X101687142Y-96162857D01*
X101687142Y-96258095D01*
X101639523Y-96400952D01*
X101068095Y-96972380D01*
X101687142Y-96972380D01*
X102068095Y-96067619D02*
X102115714Y-96020000D01*
X102210952Y-95972380D01*
X102449047Y-95972380D01*
X102544285Y-96020000D01*
X102591904Y-96067619D01*
X102639523Y-96162857D01*
X102639523Y-96258095D01*
X102591904Y-96400952D01*
X102020476Y-96972380D01*
X102639523Y-96972380D01*
X103020476Y-96924761D02*
X103163333Y-96972380D01*
X103401428Y-96972380D01*
X103496666Y-96924761D01*
X103544285Y-96877142D01*
X103591904Y-96781904D01*
X103591904Y-96686666D01*
X103544285Y-96591428D01*
X103496666Y-96543809D01*
X103401428Y-96496190D01*
X103210952Y-96448571D01*
X103115714Y-96400952D01*
X103068095Y-96353333D01*
X103020476Y-96258095D01*
X103020476Y-96162857D01*
X103068095Y-96067619D01*
X103115714Y-96020000D01*
X103210952Y-95972380D01*
X103449047Y-95972380D01*
X103591904Y-96020000D01*
X187894595Y-96022380D02*
X188227928Y-97022380D01*
X188561261Y-96022380D01*
X189466023Y-96927142D02*
X189418404Y-96974761D01*
X189275547Y-97022380D01*
X189180309Y-97022380D01*
X189037452Y-96974761D01*
X188942214Y-96879523D01*
X188894595Y-96784285D01*
X188846976Y-96593809D01*
X188846976Y-96450952D01*
X188894595Y-96260476D01*
X188942214Y-96165238D01*
X189037452Y-96070000D01*
X189180309Y-96022380D01*
X189275547Y-96022380D01*
X189418404Y-96070000D01*
X189466023Y-96117619D01*
X190466023Y-96927142D02*
X190418404Y-96974761D01*
X190275547Y-97022380D01*
X190180309Y-97022380D01*
X190037452Y-96974761D01*
X189942214Y-96879523D01*
X189894595Y-96784285D01*
X189846976Y-96593809D01*
X189846976Y-96450952D01*
X189894595Y-96260476D01*
X189942214Y-96165238D01*
X190037452Y-96070000D01*
X190180309Y-96022380D01*
X190275547Y-96022380D01*
X190418404Y-96070000D01*
X190466023Y-96117619D01*
X114466666Y-153100547D02*
X114466666Y-152624357D01*
X114752380Y-153195785D02*
X113752380Y-152862452D01*
X114752380Y-152529119D01*
X113752380Y-152291023D02*
X113752380Y-151671976D01*
X114133333Y-152005309D01*
X114133333Y-151862452D01*
X114180952Y-151767214D01*
X114228571Y-151719595D01*
X114323809Y-151671976D01*
X114561904Y-151671976D01*
X114657142Y-151719595D01*
X114704761Y-151767214D01*
X114752380Y-151862452D01*
X114752380Y-152148166D01*
X114704761Y-152243404D01*
X114657142Y-152291023D01*
X213851781Y-153798928D02*
X212851781Y-153798928D01*
X212851781Y-153417976D01*
X212899401Y-153322738D01*
X212947020Y-153275119D01*
X213042258Y-153227500D01*
X213185115Y-153227500D01*
X213280353Y-153275119D01*
X213327972Y-153322738D01*
X213375591Y-153417976D01*
X213375591Y-153798928D01*
X213566067Y-152846547D02*
X213566067Y-152370357D01*
X213851781Y-152941785D02*
X212851781Y-152608452D01*
X213851781Y-152275119D01*
X212851781Y-152037023D02*
X212851781Y-151370357D01*
X213851781Y-151798928D01*
X181538571Y-101536190D02*
X181538571Y-101202857D01*
X182062380Y-101060000D02*
X182062380Y-101536190D01*
X181062380Y-101536190D01*
X181062380Y-101060000D01*
X181062380Y-100726666D02*
X182062380Y-100060000D01*
X181062380Y-100060000D02*
X182062380Y-100726666D01*
X181062380Y-99821904D02*
X181062380Y-99250476D01*
X182062380Y-99536190D02*
X181062380Y-99536190D01*
X181967142Y-98345714D02*
X182014761Y-98393333D01*
X182062380Y-98536190D01*
X182062380Y-98631428D01*
X182014761Y-98774285D01*
X181919523Y-98869523D01*
X181824285Y-98917142D01*
X181633809Y-98964761D01*
X181490952Y-98964761D01*
X181300476Y-98917142D01*
X181205238Y-98869523D01*
X181110000Y-98774285D01*
X181062380Y-98631428D01*
X181062380Y-98536190D01*
X181110000Y-98393333D01*
X181157619Y-98345714D01*
X182062380Y-97440952D02*
X182062380Y-97917142D01*
X181062380Y-97917142D01*
X182062380Y-97107619D02*
X181062380Y-97107619D01*
X182062380Y-96536190D02*
X181490952Y-96964761D01*
X181062380Y-96536190D02*
X181633809Y-97107619D01*
X170632380Y-153529119D02*
X170156190Y-153862452D01*
X170632380Y-154100547D02*
X169632380Y-154100547D01*
X169632380Y-153719595D01*
X169680000Y-153624357D01*
X169727619Y-153576738D01*
X169822857Y-153529119D01*
X169965714Y-153529119D01*
X170060952Y-153576738D01*
X170108571Y-153624357D01*
X170156190Y-153719595D01*
X170156190Y-154100547D01*
X170632380Y-153100547D02*
X169632380Y-153100547D01*
X169632380Y-152862452D01*
X169680000Y-152719595D01*
X169775238Y-152624357D01*
X169870476Y-152576738D01*
X170060952Y-152529119D01*
X170203809Y-152529119D01*
X170394285Y-152576738D01*
X170489523Y-152624357D01*
X170584761Y-152719595D01*
X170632380Y-152862452D01*
X170632380Y-153100547D01*
X170156190Y-151910071D02*
X170632380Y-151910071D01*
X169632380Y-152243404D02*
X170156190Y-151910071D01*
X169632380Y-151576738D01*
X75370000Y-154195785D02*
X75370000Y-153195785D01*
X76652380Y-153386261D02*
X76176190Y-153719595D01*
X76652380Y-153957690D02*
X75652380Y-153957690D01*
X75652380Y-153576738D01*
X75700000Y-153481500D01*
X75747619Y-153433880D01*
X75842857Y-153386261D01*
X75985714Y-153386261D01*
X76080952Y-153433880D01*
X76128571Y-153481500D01*
X76176190Y-153576738D01*
X76176190Y-153957690D01*
X75370000Y-153195785D02*
X75370000Y-152243404D01*
X76604761Y-153005309D02*
X76652380Y-152862452D01*
X76652380Y-152624357D01*
X76604761Y-152529119D01*
X76557142Y-152481500D01*
X76461904Y-152433880D01*
X76366666Y-152433880D01*
X76271428Y-152481500D01*
X76223809Y-152529119D01*
X76176190Y-152624357D01*
X76128571Y-152814833D01*
X76080952Y-152910071D01*
X76033333Y-152957690D01*
X75938095Y-153005309D01*
X75842857Y-153005309D01*
X75747619Y-152957690D01*
X75700000Y-152910071D01*
X75652380Y-152814833D01*
X75652380Y-152576738D01*
X75700000Y-152433880D01*
X75370000Y-152243404D02*
X75370000Y-151481500D01*
X75652380Y-152148166D02*
X75652380Y-151576738D01*
X76652380Y-151862452D02*
X75652380Y-151862452D01*
X70572380Y-154243404D02*
X71572380Y-153910071D01*
X70572380Y-153576738D01*
X71477142Y-152671976D02*
X71524761Y-152719595D01*
X71572380Y-152862452D01*
X71572380Y-152957690D01*
X71524761Y-153100547D01*
X71429523Y-153195785D01*
X71334285Y-153243404D01*
X71143809Y-153291023D01*
X71000952Y-153291023D01*
X70810476Y-153243404D01*
X70715238Y-153195785D01*
X70620000Y-153100547D01*
X70572380Y-152957690D01*
X70572380Y-152862452D01*
X70620000Y-152719595D01*
X70667619Y-152671976D01*
X71477142Y-151671976D02*
X71524761Y-151719595D01*
X71572380Y-151862452D01*
X71572380Y-151957690D01*
X71524761Y-152100547D01*
X71429523Y-152195785D01*
X71334285Y-152243404D01*
X71143809Y-152291023D01*
X71000952Y-152291023D01*
X70810476Y-152243404D01*
X70715238Y-152195785D01*
X70620000Y-152100547D01*
X70572380Y-151957690D01*
X70572380Y-151862452D01*
X70620000Y-151719595D01*
X70667619Y-151671976D01*
X106846666Y-153100547D02*
X106846666Y-152624357D01*
X107132380Y-153195785D02*
X106132380Y-152862452D01*
X107132380Y-152529119D01*
X106132380Y-151767214D02*
X106132380Y-151957690D01*
X106180000Y-152052928D01*
X106227619Y-152100547D01*
X106370476Y-152195785D01*
X106560952Y-152243404D01*
X106941904Y-152243404D01*
X107037142Y-152195785D01*
X107084761Y-152148166D01*
X107132380Y-152052928D01*
X107132380Y-151862452D01*
X107084761Y-151767214D01*
X107037142Y-151719595D01*
X106941904Y-151671976D01*
X106703809Y-151671976D01*
X106608571Y-151719595D01*
X106560952Y-151767214D01*
X106513333Y-151862452D01*
X106513333Y-152052928D01*
X106560952Y-152148166D01*
X106608571Y-152195785D01*
X106703809Y-152243404D01*
X224011781Y-153798928D02*
X223011781Y-153798928D01*
X223011781Y-153417976D01*
X223059401Y-153322738D01*
X223107020Y-153275119D01*
X223202258Y-153227500D01*
X223345115Y-153227500D01*
X223440353Y-153275119D01*
X223487972Y-153322738D01*
X223535591Y-153417976D01*
X223535591Y-153798928D01*
X223726067Y-152846547D02*
X223726067Y-152370357D01*
X224011781Y-152941785D02*
X223011781Y-152608452D01*
X224011781Y-152275119D01*
X223011781Y-152037023D02*
X223011781Y-151417976D01*
X223392734Y-151751309D01*
X223392734Y-151608452D01*
X223440353Y-151513214D01*
X223487972Y-151465595D01*
X223583210Y-151417976D01*
X223821305Y-151417976D01*
X223916543Y-151465595D01*
X223964162Y-151513214D01*
X224011781Y-151608452D01*
X224011781Y-151894166D01*
X223964162Y-151989404D01*
X223916543Y-152037023D01*
X164270000Y-153481500D02*
X164270000Y-152481500D01*
X165552380Y-152671976D02*
X165076190Y-153005309D01*
X165552380Y-153243404D02*
X164552380Y-153243404D01*
X164552380Y-152862452D01*
X164600000Y-152767214D01*
X164647619Y-152719595D01*
X164742857Y-152671976D01*
X164885714Y-152671976D01*
X164980952Y-152719595D01*
X165028571Y-152767214D01*
X165076190Y-152862452D01*
X165076190Y-153243404D01*
X164270000Y-152481500D02*
X164270000Y-151481500D01*
X165552380Y-152243404D02*
X164552380Y-152243404D01*
X164552380Y-152005309D01*
X164600000Y-151862452D01*
X164695238Y-151767214D01*
X164790476Y-151719595D01*
X164980952Y-151671976D01*
X165123809Y-151671976D01*
X165314285Y-151719595D01*
X165409523Y-151767214D01*
X165504761Y-151862452D01*
X165552380Y-152005309D01*
X165552380Y-152243404D01*
X80656000Y-97593214D02*
X80608380Y-97688452D01*
X80608380Y-97831309D01*
X80656000Y-97974166D01*
X80751238Y-98069404D01*
X80846476Y-98117023D01*
X81036952Y-98164642D01*
X81179809Y-98164642D01*
X81370285Y-98117023D01*
X81465523Y-98069404D01*
X81560761Y-97974166D01*
X81608380Y-97831309D01*
X81608380Y-97736071D01*
X81560761Y-97593214D01*
X81513142Y-97545595D01*
X81179809Y-97545595D01*
X81179809Y-97736071D01*
X81608380Y-97117023D02*
X80608380Y-97117023D01*
X81608380Y-96545595D01*
X80608380Y-96545595D01*
X81608380Y-96069404D02*
X80608380Y-96069404D01*
X80608380Y-95831309D01*
X80656000Y-95688452D01*
X80751238Y-95593214D01*
X80846476Y-95545595D01*
X81036952Y-95497976D01*
X81179809Y-95497976D01*
X81370285Y-95545595D01*
X81465523Y-95593214D01*
X81560761Y-95688452D01*
X81608380Y-95831309D01*
X81608380Y-96069404D01*
X80450000Y-154291023D02*
X80450000Y-153291023D01*
X81637142Y-153481500D02*
X81684761Y-153529119D01*
X81732380Y-153671976D01*
X81732380Y-153767214D01*
X81684761Y-153910071D01*
X81589523Y-154005309D01*
X81494285Y-154052928D01*
X81303809Y-154100547D01*
X81160952Y-154100547D01*
X80970476Y-154052928D01*
X80875238Y-154005309D01*
X80780000Y-153910071D01*
X80732380Y-153767214D01*
X80732380Y-153671976D01*
X80780000Y-153529119D01*
X80827619Y-153481500D01*
X80450000Y-153291023D02*
X80450000Y-152481500D01*
X81732380Y-152576738D02*
X81732380Y-153052928D01*
X80732380Y-153052928D01*
X80450000Y-152481500D02*
X80450000Y-151481500D01*
X81732380Y-152243404D02*
X80732380Y-152243404D01*
X81732380Y-151671976D02*
X81160952Y-152100547D01*
X80732380Y-151671976D02*
X81303809Y-152243404D01*
X192492380Y-153989404D02*
X193492380Y-153656071D01*
X192492380Y-153322738D01*
X193397142Y-152417976D02*
X193444761Y-152465595D01*
X193492380Y-152608452D01*
X193492380Y-152703690D01*
X193444761Y-152846547D01*
X193349523Y-152941785D01*
X193254285Y-152989404D01*
X193063809Y-153037023D01*
X192920952Y-153037023D01*
X192730476Y-152989404D01*
X192635238Y-152941785D01*
X192540000Y-152846547D01*
X192492380Y-152703690D01*
X192492380Y-152608452D01*
X192540000Y-152465595D01*
X192587619Y-152417976D01*
X193397142Y-151417976D02*
X193444761Y-151465595D01*
X193492380Y-151608452D01*
X193492380Y-151703690D01*
X193444761Y-151846547D01*
X193349523Y-151941785D01*
X193254285Y-151989404D01*
X193063809Y-152037023D01*
X192920952Y-152037023D01*
X192730476Y-151989404D01*
X192635238Y-151941785D01*
X192540000Y-151846547D01*
X192492380Y-151703690D01*
X192492380Y-151608452D01*
X192540000Y-151465595D01*
X192587619Y-151417976D01*
X119546666Y-153100547D02*
X119546666Y-152624357D01*
X119832380Y-153195785D02*
X118832380Y-152862452D01*
X119832380Y-152529119D01*
X119832380Y-151671976D02*
X119832380Y-152243404D01*
X119832380Y-151957690D02*
X118832380Y-151957690D01*
X118975238Y-152052928D01*
X119070476Y-152148166D01*
X119118095Y-152243404D01*
X146490000Y-153957690D02*
X146490000Y-153481500D01*
X147772380Y-153719595D02*
X146772380Y-153719595D01*
X146490000Y-153481500D02*
X146490000Y-152433880D01*
X146772380Y-153052928D02*
X146772380Y-152862452D01*
X146820000Y-152767214D01*
X146915238Y-152671976D01*
X147105714Y-152624357D01*
X147439047Y-152624357D01*
X147629523Y-152671976D01*
X147724761Y-152767214D01*
X147772380Y-152862452D01*
X147772380Y-153052928D01*
X147724761Y-153148166D01*
X147629523Y-153243404D01*
X147439047Y-153291023D01*
X147105714Y-153291023D01*
X146915238Y-153243404D01*
X146820000Y-153148166D01*
X146772380Y-153052928D01*
X146490000Y-152433880D02*
X146490000Y-151481500D01*
X146772380Y-152291023D02*
X146772380Y-151671976D01*
X147153333Y-152005309D01*
X147153333Y-151862452D01*
X147200952Y-151767214D01*
X147248571Y-151719595D01*
X147343809Y-151671976D01*
X147581904Y-151671976D01*
X147677142Y-151719595D01*
X147724761Y-151767214D01*
X147772380Y-151862452D01*
X147772380Y-152148166D01*
X147724761Y-152243404D01*
X147677142Y-152291023D01*
X129992380Y-153195785D02*
X128992380Y-153195785D01*
X128992380Y-152957690D01*
X129040000Y-152814833D01*
X129135238Y-152719595D01*
X129230476Y-152671976D01*
X129420952Y-152624357D01*
X129563809Y-152624357D01*
X129754285Y-152671976D01*
X129849523Y-152719595D01*
X129944761Y-152814833D01*
X129992380Y-152957690D01*
X129992380Y-153195785D01*
X128992380Y-151719595D02*
X128992380Y-152195785D01*
X129468571Y-152243404D01*
X129420952Y-152195785D01*
X129373333Y-152100547D01*
X129373333Y-151862452D01*
X129420952Y-151767214D01*
X129468571Y-151719595D01*
X129563809Y-151671976D01*
X129801904Y-151671976D01*
X129897142Y-151719595D01*
X129944761Y-151767214D01*
X129992380Y-151862452D01*
X129992380Y-152100547D01*
X129944761Y-152195785D01*
X129897142Y-152243404D01*
X182050000Y-153338642D02*
X182050000Y-152481500D01*
X182332380Y-153243404D02*
X183332380Y-152910071D01*
X182332380Y-152576738D01*
X182050000Y-152481500D02*
X182050000Y-151481500D01*
X183332380Y-152243404D02*
X182332380Y-152243404D01*
X182332380Y-151862452D01*
X182380000Y-151767214D01*
X182427619Y-151719595D01*
X182522857Y-151671976D01*
X182665714Y-151671976D01*
X182760952Y-151719595D01*
X182808571Y-151767214D01*
X182856190Y-151862452D01*
X182856190Y-152243404D01*
X111926666Y-153100547D02*
X111926666Y-152624357D01*
X112212380Y-153195785D02*
X111212380Y-152862452D01*
X112212380Y-152529119D01*
X111545714Y-151767214D02*
X112212380Y-151767214D01*
X111164761Y-152005309D02*
X111879047Y-152243404D01*
X111879047Y-151624357D01*
X174686595Y-95972380D02*
X175019928Y-96972380D01*
X175353261Y-95972380D01*
X176258023Y-96877142D02*
X176210404Y-96924761D01*
X176067547Y-96972380D01*
X175972309Y-96972380D01*
X175829452Y-96924761D01*
X175734214Y-96829523D01*
X175686595Y-96734285D01*
X175638976Y-96543809D01*
X175638976Y-96400952D01*
X175686595Y-96210476D01*
X175734214Y-96115238D01*
X175829452Y-96020000D01*
X175972309Y-95972380D01*
X176067547Y-95972380D01*
X176210404Y-96020000D01*
X176258023Y-96067619D01*
X177258023Y-96877142D02*
X177210404Y-96924761D01*
X177067547Y-96972380D01*
X176972309Y-96972380D01*
X176829452Y-96924761D01*
X176734214Y-96829523D01*
X176686595Y-96734285D01*
X176638976Y-96543809D01*
X176638976Y-96400952D01*
X176686595Y-96210476D01*
X176734214Y-96115238D01*
X176829452Y-96020000D01*
X176972309Y-95972380D01*
X177067547Y-95972380D01*
X177210404Y-96020000D01*
X177258023Y-96067619D01*
X190389238Y-128331880D02*
X189913047Y-128331880D01*
X189913047Y-127331880D01*
X191294000Y-128236642D02*
X191246380Y-128284261D01*
X191103523Y-128331880D01*
X191008285Y-128331880D01*
X190865428Y-128284261D01*
X190770190Y-128189023D01*
X190722571Y-128093785D01*
X190674952Y-127903309D01*
X190674952Y-127760452D01*
X190722571Y-127569976D01*
X190770190Y-127474738D01*
X190865428Y-127379500D01*
X191008285Y-127331880D01*
X191103523Y-127331880D01*
X191246380Y-127379500D01*
X191294000Y-127427119D01*
X191722571Y-128331880D02*
X191722571Y-127331880D01*
X191960666Y-127331880D01*
X192103523Y-127379500D01*
X192198761Y-127474738D01*
X192246380Y-127569976D01*
X192294000Y-127760452D01*
X192294000Y-127903309D01*
X192246380Y-128093785D01*
X192198761Y-128189023D01*
X192103523Y-128284261D01*
X191960666Y-128331880D01*
X191722571Y-128331880D01*
X194008285Y-128331880D02*
X193436857Y-128331880D01*
X193722571Y-128331880D02*
X193722571Y-127331880D01*
X193627333Y-127474738D01*
X193532095Y-127569976D01*
X193436857Y-127617595D01*
X194865428Y-127331880D02*
X194674952Y-127331880D01*
X194579714Y-127379500D01*
X194532095Y-127427119D01*
X194436857Y-127569976D01*
X194389238Y-127760452D01*
X194389238Y-128141404D01*
X194436857Y-128236642D01*
X194484476Y-128284261D01*
X194579714Y-128331880D01*
X194770190Y-128331880D01*
X194865428Y-128284261D01*
X194913047Y-128236642D01*
X194960666Y-128141404D01*
X194960666Y-127903309D01*
X194913047Y-127808071D01*
X194865428Y-127760452D01*
X194770190Y-127712833D01*
X194579714Y-127712833D01*
X194484476Y-127760452D01*
X194436857Y-127808071D01*
X194389238Y-127903309D01*
X195294000Y-128331880D02*
X195817809Y-127665214D01*
X195294000Y-127665214D02*
X195817809Y-128331880D01*
X196151142Y-127427119D02*
X196198761Y-127379500D01*
X196294000Y-127331880D01*
X196532095Y-127331880D01*
X196627333Y-127379500D01*
X196674952Y-127427119D01*
X196722571Y-127522357D01*
X196722571Y-127617595D01*
X196674952Y-127760452D01*
X196103523Y-128331880D01*
X196722571Y-128331880D01*
X201056543Y-153370357D02*
X201104162Y-153417976D01*
X201151781Y-153560833D01*
X201151781Y-153656071D01*
X201104162Y-153798928D01*
X201008924Y-153894166D01*
X200913686Y-153941785D01*
X200723210Y-153989404D01*
X200580353Y-153989404D01*
X200389877Y-153941785D01*
X200294639Y-153894166D01*
X200199401Y-153798928D01*
X200151781Y-153656071D01*
X200151781Y-153560833D01*
X200199401Y-153417976D01*
X200247020Y-153370357D01*
X200627972Y-152608452D02*
X200675591Y-152465595D01*
X200723210Y-152417976D01*
X200818448Y-152370357D01*
X200961305Y-152370357D01*
X201056543Y-152417976D01*
X201104162Y-152465595D01*
X201151781Y-152560833D01*
X201151781Y-152941785D01*
X200151781Y-152941785D01*
X200151781Y-152608452D01*
X200199401Y-152513214D01*
X200247020Y-152465595D01*
X200342258Y-152417976D01*
X200437496Y-152417976D01*
X200532734Y-152465595D01*
X200580353Y-152513214D01*
X200627972Y-152608452D01*
X200627972Y-152941785D01*
X201151781Y-151417976D02*
X201151781Y-151989404D01*
X201151781Y-151703690D02*
X200151781Y-151703690D01*
X200294639Y-151798928D01*
X200389877Y-151894166D01*
X200437496Y-151989404D01*
X94146666Y-154052928D02*
X94146666Y-153576738D01*
X94432380Y-154148166D02*
X93432380Y-153814833D01*
X94432380Y-153481500D01*
X94432380Y-152624357D02*
X94432380Y-153195785D01*
X94432380Y-152910071D02*
X93432380Y-152910071D01*
X93575238Y-153005309D01*
X93670476Y-153100547D01*
X93718095Y-153195785D01*
X94432380Y-151671976D02*
X94432380Y-152243404D01*
X94432380Y-151957690D02*
X93432380Y-151957690D01*
X93575238Y-152052928D01*
X93670476Y-152148166D01*
X93718095Y-152243404D01*
X75096666Y-80992023D02*
X75096666Y-80515833D01*
X75382380Y-81087261D02*
X74382380Y-80753928D01*
X75382380Y-80420595D01*
X75382380Y-79515833D02*
X74906190Y-79849166D01*
X75382380Y-80087261D02*
X74382380Y-80087261D01*
X74382380Y-79706309D01*
X74430000Y-79611071D01*
X74477619Y-79563452D01*
X74572857Y-79515833D01*
X74715714Y-79515833D01*
X74810952Y-79563452D01*
X74858571Y-79611071D01*
X74906190Y-79706309D01*
X74906190Y-80087261D01*
X75382380Y-79087261D02*
X74382380Y-79087261D01*
X74382380Y-78849166D01*
X74430000Y-78706309D01*
X74525238Y-78611071D01*
X74620476Y-78563452D01*
X74810952Y-78515833D01*
X74953809Y-78515833D01*
X75144285Y-78563452D01*
X75239523Y-78611071D01*
X75334761Y-78706309D01*
X75382380Y-78849166D01*
X75382380Y-79087261D01*
X74382380Y-78087261D02*
X75191904Y-78087261D01*
X75287142Y-78039642D01*
X75334761Y-77992023D01*
X75382380Y-77896785D01*
X75382380Y-77706309D01*
X75334761Y-77611071D01*
X75287142Y-77563452D01*
X75191904Y-77515833D01*
X74382380Y-77515833D01*
X75382380Y-77039642D02*
X74382380Y-77039642D01*
X75382380Y-76563452D02*
X74382380Y-76563452D01*
X75382380Y-75992023D01*
X74382380Y-75992023D01*
X74382380Y-75325357D02*
X74382380Y-75134880D01*
X74430000Y-75039642D01*
X74525238Y-74944404D01*
X74715714Y-74896785D01*
X75049047Y-74896785D01*
X75239523Y-74944404D01*
X75334761Y-75039642D01*
X75382380Y-75134880D01*
X75382380Y-75325357D01*
X75334761Y-75420595D01*
X75239523Y-75515833D01*
X75049047Y-75563452D01*
X74715714Y-75563452D01*
X74525238Y-75515833D01*
X74430000Y-75420595D01*
X74382380Y-75325357D01*
X75382380Y-73706309D02*
X74382380Y-73706309D01*
X75096666Y-73372976D01*
X74382380Y-73039642D01*
X75382380Y-73039642D01*
X74858571Y-72563452D02*
X74858571Y-72230119D01*
X75382380Y-72087261D02*
X75382380Y-72563452D01*
X74382380Y-72563452D01*
X74382380Y-72087261D01*
X74430000Y-71134880D02*
X74382380Y-71230119D01*
X74382380Y-71372976D01*
X74430000Y-71515833D01*
X74525238Y-71611071D01*
X74620476Y-71658690D01*
X74810952Y-71706309D01*
X74953809Y-71706309D01*
X75144285Y-71658690D01*
X75239523Y-71611071D01*
X75334761Y-71515833D01*
X75382380Y-71372976D01*
X75382380Y-71277738D01*
X75334761Y-71134880D01*
X75287142Y-71087261D01*
X74953809Y-71087261D01*
X74953809Y-71277738D01*
X75096666Y-70706309D02*
X75096666Y-70230119D01*
X75382380Y-70801547D02*
X74382380Y-70468214D01*
X75382380Y-70134880D01*
X83986666Y-154052928D02*
X83986666Y-153576738D01*
X84272380Y-154148166D02*
X83272380Y-153814833D01*
X84272380Y-153481500D01*
X84272380Y-152624357D02*
X84272380Y-153195785D01*
X84272380Y-152910071D02*
X83272380Y-152910071D01*
X83415238Y-153005309D01*
X83510476Y-153100547D01*
X83558095Y-153195785D01*
X83272380Y-151719595D02*
X83272380Y-152195785D01*
X83748571Y-152243404D01*
X83700952Y-152195785D01*
X83653333Y-152100547D01*
X83653333Y-151862452D01*
X83700952Y-151767214D01*
X83748571Y-151719595D01*
X83843809Y-151671976D01*
X84081904Y-151671976D01*
X84177142Y-151719595D01*
X84224761Y-151767214D01*
X84272380Y-151862452D01*
X84272380Y-152100547D01*
X84224761Y-152195785D01*
X84177142Y-152243404D01*
X203596543Y-153227500D02*
X203644162Y-153275119D01*
X203691781Y-153417976D01*
X203691781Y-153513214D01*
X203644162Y-153656071D01*
X203548924Y-153751309D01*
X203453686Y-153798928D01*
X203263210Y-153846547D01*
X203120353Y-153846547D01*
X202929877Y-153798928D01*
X202834639Y-153751309D01*
X202739401Y-153656071D01*
X202691781Y-153513214D01*
X202691781Y-153417976D01*
X202739401Y-153275119D01*
X202787020Y-153227500D01*
X203406067Y-152846547D02*
X203406067Y-152370357D01*
X203691781Y-152941785D02*
X202691781Y-152608452D01*
X203691781Y-152275119D01*
X202787020Y-151989404D02*
X202739401Y-151941785D01*
X202691781Y-151846547D01*
X202691781Y-151608452D01*
X202739401Y-151513214D01*
X202787020Y-151465595D01*
X202882258Y-151417976D01*
X202977496Y-151417976D01*
X203120353Y-151465595D01*
X203691781Y-152037023D01*
X203691781Y-151417976D01*
X168346380Y-102044285D02*
X167346380Y-102044285D01*
X168060666Y-101710952D01*
X167346380Y-101377619D01*
X168346380Y-101377619D01*
X167822571Y-100901428D02*
X167822571Y-100568095D01*
X168346380Y-100425238D02*
X168346380Y-100901428D01*
X167346380Y-100901428D01*
X167346380Y-100425238D01*
X167394000Y-99472857D02*
X167346380Y-99568095D01*
X167346380Y-99710952D01*
X167394000Y-99853809D01*
X167489238Y-99949047D01*
X167584476Y-99996666D01*
X167774952Y-100044285D01*
X167917809Y-100044285D01*
X168108285Y-99996666D01*
X168203523Y-99949047D01*
X168298761Y-99853809D01*
X168346380Y-99710952D01*
X168346380Y-99615714D01*
X168298761Y-99472857D01*
X168251142Y-99425238D01*
X167917809Y-99425238D01*
X167917809Y-99615714D01*
X168060666Y-99044285D02*
X168060666Y-98568095D01*
X168346380Y-99139523D02*
X167346380Y-98806190D01*
X168346380Y-98472857D01*
X91606666Y-154052928D02*
X91606666Y-153576738D01*
X91892380Y-154148166D02*
X90892380Y-153814833D01*
X91892380Y-153481500D01*
X91892380Y-152624357D02*
X91892380Y-153195785D01*
X91892380Y-152910071D02*
X90892380Y-152910071D01*
X91035238Y-153005309D01*
X91130476Y-153100547D01*
X91178095Y-153195785D01*
X90987619Y-152243404D02*
X90940000Y-152195785D01*
X90892380Y-152100547D01*
X90892380Y-151862452D01*
X90940000Y-151767214D01*
X90987619Y-151719595D01*
X91082857Y-151671976D01*
X91178095Y-151671976D01*
X91320952Y-151719595D01*
X91892380Y-152291023D01*
X91892380Y-151671976D01*
X154110000Y-154957690D02*
X154110000Y-154481500D01*
X155392380Y-154719595D02*
X154392380Y-154719595D01*
X154110000Y-154481500D02*
X154110000Y-153481500D01*
X155392380Y-153671976D02*
X154916190Y-154005309D01*
X155392380Y-154243404D02*
X154392380Y-154243404D01*
X154392380Y-153862452D01*
X154440000Y-153767214D01*
X154487619Y-153719595D01*
X154582857Y-153671976D01*
X154725714Y-153671976D01*
X154820952Y-153719595D01*
X154868571Y-153767214D01*
X154916190Y-153862452D01*
X154916190Y-154243404D01*
X154110000Y-153481500D02*
X154110000Y-152433880D01*
X155487619Y-152576738D02*
X155440000Y-152671976D01*
X155344761Y-152767214D01*
X155201904Y-152910071D01*
X155154285Y-153005309D01*
X155154285Y-153100547D01*
X155392380Y-153052928D02*
X155344761Y-153148166D01*
X155249523Y-153243404D01*
X155059047Y-153291023D01*
X154725714Y-153291023D01*
X154535238Y-153243404D01*
X154440000Y-153148166D01*
X154392380Y-153052928D01*
X154392380Y-152862452D01*
X154440000Y-152767214D01*
X154535238Y-152671976D01*
X154725714Y-152624357D01*
X155059047Y-152624357D01*
X155249523Y-152671976D01*
X155344761Y-152767214D01*
X155392380Y-152862452D01*
X155392380Y-153052928D01*
X154110000Y-152433880D02*
X154110000Y-151481500D01*
X154392380Y-152291023D02*
X154392380Y-151671976D01*
X154773333Y-152005309D01*
X154773333Y-151862452D01*
X154820952Y-151767214D01*
X154868571Y-151719595D01*
X154963809Y-151671976D01*
X155201904Y-151671976D01*
X155297142Y-151719595D01*
X155344761Y-151767214D01*
X155392380Y-151862452D01*
X155392380Y-152148166D01*
X155344761Y-152243404D01*
X155297142Y-152291023D01*
X216391781Y-153798928D02*
X215391781Y-153798928D01*
X215391781Y-153417976D01*
X215439401Y-153322738D01*
X215487020Y-153275119D01*
X215582258Y-153227500D01*
X215725115Y-153227500D01*
X215820353Y-153275119D01*
X215867972Y-153322738D01*
X215915591Y-153417976D01*
X215915591Y-153798928D01*
X216106067Y-152846547D02*
X216106067Y-152370357D01*
X216391781Y-152941785D02*
X215391781Y-152608452D01*
X216391781Y-152275119D01*
X215391781Y-151513214D02*
X215391781Y-151703690D01*
X215439401Y-151798928D01*
X215487020Y-151846547D01*
X215629877Y-151941785D01*
X215820353Y-151989404D01*
X216201305Y-151989404D01*
X216296543Y-151941785D01*
X216344162Y-151894166D01*
X216391781Y-151798928D01*
X216391781Y-151608452D01*
X216344162Y-151513214D01*
X216296543Y-151465595D01*
X216201305Y-151417976D01*
X215963210Y-151417976D01*
X215867972Y-151465595D01*
X215820353Y-151513214D01*
X215772734Y-151608452D01*
X215772734Y-151798928D01*
X215820353Y-151894166D01*
X215867972Y-151941785D01*
X215963210Y-151989404D01*
X83121523Y-104354380D02*
X82645333Y-104354380D01*
X82597714Y-104830571D01*
X82645333Y-104782952D01*
X82740571Y-104735333D01*
X82978666Y-104735333D01*
X83073904Y-104782952D01*
X83121523Y-104830571D01*
X83169142Y-104925809D01*
X83169142Y-105163904D01*
X83121523Y-105259142D01*
X83073904Y-105306761D01*
X82978666Y-105354380D01*
X82740571Y-105354380D01*
X82645333Y-105306761D01*
X82597714Y-105259142D01*
X83454857Y-104354380D02*
X83788190Y-105354380D01*
X84121523Y-104354380D01*
X184590000Y-153433880D02*
X184590000Y-152291023D01*
X185872380Y-153195785D02*
X184872380Y-153195785D01*
X185586666Y-152862452D01*
X184872380Y-152529119D01*
X185872380Y-152529119D01*
X184590000Y-152291023D02*
X184590000Y-151481500D01*
X185872380Y-151576738D02*
X185872380Y-152052928D01*
X184872380Y-152052928D01*
X175162785Y-98560000D02*
X175067547Y-98512380D01*
X174924690Y-98512380D01*
X174781833Y-98560000D01*
X174686595Y-98655238D01*
X174638976Y-98750476D01*
X174591357Y-98940952D01*
X174591357Y-99083809D01*
X174638976Y-99274285D01*
X174686595Y-99369523D01*
X174781833Y-99464761D01*
X174924690Y-99512380D01*
X175019928Y-99512380D01*
X175162785Y-99464761D01*
X175210404Y-99417142D01*
X175210404Y-99083809D01*
X175019928Y-99083809D01*
X175638976Y-99512380D02*
X175638976Y-98512380D01*
X176210404Y-99512380D01*
X176210404Y-98512380D01*
X176686595Y-99512380D02*
X176686595Y-98512380D01*
X176924690Y-98512380D01*
X177067547Y-98560000D01*
X177162785Y-98655238D01*
X177210404Y-98750476D01*
X177258023Y-98940952D01*
X177258023Y-99083809D01*
X177210404Y-99274285D01*
X177162785Y-99369523D01*
X177067547Y-99464761D01*
X176924690Y-99512380D01*
X176686595Y-99512380D01*
X211311781Y-153941785D02*
X210311781Y-153941785D01*
X210311781Y-153560833D01*
X210359401Y-153465595D01*
X210407020Y-153417976D01*
X210502258Y-153370357D01*
X210645115Y-153370357D01*
X210740353Y-153417976D01*
X210787972Y-153465595D01*
X210835591Y-153560833D01*
X210835591Y-153941785D01*
X210787972Y-152608452D02*
X210835591Y-152465595D01*
X210883210Y-152417976D01*
X210978448Y-152370357D01*
X211121305Y-152370357D01*
X211216543Y-152417976D01*
X211264162Y-152465595D01*
X211311781Y-152560833D01*
X211311781Y-152941785D01*
X210311781Y-152941785D01*
X210311781Y-152608452D01*
X210359401Y-152513214D01*
X210407020Y-152465595D01*
X210502258Y-152417976D01*
X210597496Y-152417976D01*
X210692734Y-152465595D01*
X210740353Y-152513214D01*
X210787972Y-152608452D01*
X210787972Y-152941785D01*
X210311781Y-151465595D02*
X210311781Y-151941785D01*
X210787972Y-151989404D01*
X210740353Y-151941785D01*
X210692734Y-151846547D01*
X210692734Y-151608452D01*
X210740353Y-151513214D01*
X210787972Y-151465595D01*
X210883210Y-151417976D01*
X211121305Y-151417976D01*
X211216543Y-151465595D01*
X211264162Y-151513214D01*
X211311781Y-151608452D01*
X211311781Y-151846547D01*
X211264162Y-151941785D01*
X211216543Y-151989404D01*
X198516543Y-153370357D02*
X198564162Y-153417976D01*
X198611781Y-153560833D01*
X198611781Y-153656071D01*
X198564162Y-153798928D01*
X198468924Y-153894166D01*
X198373686Y-153941785D01*
X198183210Y-153989404D01*
X198040353Y-153989404D01*
X197849877Y-153941785D01*
X197754639Y-153894166D01*
X197659401Y-153798928D01*
X197611781Y-153656071D01*
X197611781Y-153560833D01*
X197659401Y-153417976D01*
X197707020Y-153370357D01*
X198087972Y-152608452D02*
X198135591Y-152465595D01*
X198183210Y-152417976D01*
X198278448Y-152370357D01*
X198421305Y-152370357D01*
X198516543Y-152417976D01*
X198564162Y-152465595D01*
X198611781Y-152560833D01*
X198611781Y-152941785D01*
X197611781Y-152941785D01*
X197611781Y-152608452D01*
X197659401Y-152513214D01*
X197707020Y-152465595D01*
X197802258Y-152417976D01*
X197897496Y-152417976D01*
X197992734Y-152465595D01*
X198040353Y-152513214D01*
X198087972Y-152608452D01*
X198087972Y-152941785D01*
X197707020Y-151989404D02*
X197659401Y-151941785D01*
X197611781Y-151846547D01*
X197611781Y-151608452D01*
X197659401Y-151513214D01*
X197707020Y-151465595D01*
X197802258Y-151417976D01*
X197897496Y-151417976D01*
X198040353Y-151465595D01*
X198611781Y-152037023D01*
X198611781Y-151417976D01*
X142692380Y-153195785D02*
X141692380Y-153195785D01*
X141692380Y-152957690D01*
X141740000Y-152814833D01*
X141835238Y-152719595D01*
X141930476Y-152671976D01*
X142120952Y-152624357D01*
X142263809Y-152624357D01*
X142454285Y-152671976D01*
X142549523Y-152719595D01*
X142644761Y-152814833D01*
X142692380Y-152957690D01*
X142692380Y-153195785D01*
X141692380Y-152005309D02*
X141692380Y-151910071D01*
X141740000Y-151814833D01*
X141787619Y-151767214D01*
X141882857Y-151719595D01*
X142073333Y-151671976D01*
X142311428Y-151671976D01*
X142501904Y-151719595D01*
X142597142Y-151767214D01*
X142644761Y-151814833D01*
X142692380Y-151910071D01*
X142692380Y-152005309D01*
X142644761Y-152100547D01*
X142597142Y-152148166D01*
X142501904Y-152195785D01*
X142311428Y-152243404D01*
X142073333Y-152243404D01*
X141882857Y-152195785D01*
X141787619Y-152148166D01*
X141740000Y-152100547D01*
X141692380Y-152005309D01*
X127452380Y-153195785D02*
X126452380Y-153195785D01*
X126452380Y-152957690D01*
X126500000Y-152814833D01*
X126595238Y-152719595D01*
X126690476Y-152671976D01*
X126880952Y-152624357D01*
X127023809Y-152624357D01*
X127214285Y-152671976D01*
X127309523Y-152719595D01*
X127404761Y-152814833D01*
X127452380Y-152957690D01*
X127452380Y-153195785D01*
X126452380Y-151767214D02*
X126452380Y-151957690D01*
X126500000Y-152052928D01*
X126547619Y-152100547D01*
X126690476Y-152195785D01*
X126880952Y-152243404D01*
X127261904Y-152243404D01*
X127357142Y-152195785D01*
X127404761Y-152148166D01*
X127452380Y-152052928D01*
X127452380Y-151862452D01*
X127404761Y-151767214D01*
X127357142Y-151719595D01*
X127261904Y-151671976D01*
X127023809Y-151671976D01*
X126928571Y-151719595D01*
X126880952Y-151767214D01*
X126833333Y-151862452D01*
X126833333Y-152052928D01*
X126880952Y-152148166D01*
X126928571Y-152195785D01*
X127023809Y-152243404D01*
X201932166Y-97156380D02*
X201741690Y-97156380D01*
X201646452Y-97204000D01*
X201598833Y-97251619D01*
X201503595Y-97394476D01*
X201455976Y-97584952D01*
X201455976Y-97965904D01*
X201503595Y-98061142D01*
X201551214Y-98108761D01*
X201646452Y-98156380D01*
X201836928Y-98156380D01*
X201932166Y-98108761D01*
X201979785Y-98061142D01*
X202027404Y-97965904D01*
X202027404Y-97727809D01*
X201979785Y-97632571D01*
X201932166Y-97584952D01*
X201836928Y-97537333D01*
X201646452Y-97537333D01*
X201551214Y-97584952D01*
X201503595Y-97632571D01*
X201455976Y-97727809D01*
X202932166Y-97156380D02*
X202455976Y-97156380D01*
X202408357Y-97632571D01*
X202455976Y-97584952D01*
X202551214Y-97537333D01*
X202789309Y-97537333D01*
X202884547Y-97584952D01*
X202932166Y-97632571D01*
X202979785Y-97727809D01*
X202979785Y-97965904D01*
X202932166Y-98061142D01*
X202884547Y-98108761D01*
X202789309Y-98156380D01*
X202551214Y-98156380D01*
X202455976Y-98108761D01*
X202408357Y-98061142D01*
X203598833Y-97156380D02*
X203694071Y-97156380D01*
X203789309Y-97204000D01*
X203836928Y-97251619D01*
X203884547Y-97346857D01*
X203932166Y-97537333D01*
X203932166Y-97775428D01*
X203884547Y-97965904D01*
X203836928Y-98061142D01*
X203789309Y-98108761D01*
X203694071Y-98156380D01*
X203598833Y-98156380D01*
X203503595Y-98108761D01*
X203455976Y-98061142D01*
X203408357Y-97965904D01*
X203360738Y-97775428D01*
X203360738Y-97537333D01*
X203408357Y-97346857D01*
X203455976Y-97251619D01*
X203503595Y-97204000D01*
X203598833Y-97156380D01*
X204313119Y-97251619D02*
X204360738Y-97204000D01*
X204455976Y-97156380D01*
X204694071Y-97156380D01*
X204789309Y-97204000D01*
X204836928Y-97251619D01*
X204884547Y-97346857D01*
X204884547Y-97442095D01*
X204836928Y-97584952D01*
X204265500Y-98156380D01*
X204884547Y-98156380D01*
X206646452Y-98061142D02*
X206598833Y-98108761D01*
X206455976Y-98156380D01*
X206360738Y-98156380D01*
X206217880Y-98108761D01*
X206122642Y-98013523D01*
X206075023Y-97918285D01*
X206027404Y-97727809D01*
X206027404Y-97584952D01*
X206075023Y-97394476D01*
X206122642Y-97299238D01*
X206217880Y-97204000D01*
X206360738Y-97156380D01*
X206455976Y-97156380D01*
X206598833Y-97204000D01*
X206646452Y-97251619D01*
X207217880Y-98156380D02*
X207122642Y-98108761D01*
X207075023Y-98061142D01*
X207027404Y-97965904D01*
X207027404Y-97680190D01*
X207075023Y-97584952D01*
X207122642Y-97537333D01*
X207217880Y-97489714D01*
X207360738Y-97489714D01*
X207455976Y-97537333D01*
X207503595Y-97584952D01*
X207551214Y-97680190D01*
X207551214Y-97965904D01*
X207503595Y-98061142D01*
X207455976Y-98108761D01*
X207360738Y-98156380D01*
X207217880Y-98156380D01*
X207979785Y-98156380D02*
X207979785Y-97489714D01*
X207979785Y-97584952D02*
X208027404Y-97537333D01*
X208122642Y-97489714D01*
X208265500Y-97489714D01*
X208360738Y-97537333D01*
X208408357Y-97632571D01*
X208408357Y-98156380D01*
X208408357Y-97632571D02*
X208455976Y-97537333D01*
X208551214Y-97489714D01*
X208694071Y-97489714D01*
X208789309Y-97537333D01*
X208836928Y-97632571D01*
X208836928Y-98156380D01*
X209313119Y-97489714D02*
X209313119Y-98489714D01*
X209313119Y-97537333D02*
X209408357Y-97489714D01*
X209598833Y-97489714D01*
X209694071Y-97537333D01*
X209741690Y-97584952D01*
X209789309Y-97680190D01*
X209789309Y-97965904D01*
X209741690Y-98061142D01*
X209694071Y-98108761D01*
X209598833Y-98156380D01*
X209408357Y-98156380D01*
X209313119Y-98108761D01*
X210646452Y-97489714D02*
X210646452Y-98156380D01*
X210217880Y-97489714D02*
X210217880Y-98013523D01*
X210265500Y-98108761D01*
X210360738Y-98156380D01*
X210503595Y-98156380D01*
X210598833Y-98108761D01*
X210646452Y-98061142D01*
X210979785Y-97489714D02*
X211360738Y-97489714D01*
X211122642Y-97156380D02*
X211122642Y-98013523D01*
X211170261Y-98108761D01*
X211265500Y-98156380D01*
X211360738Y-98156380D01*
X212075023Y-98108761D02*
X211979785Y-98156380D01*
X211789309Y-98156380D01*
X211694071Y-98108761D01*
X211646452Y-98013523D01*
X211646452Y-97632571D01*
X211694071Y-97537333D01*
X211789309Y-97489714D01*
X211979785Y-97489714D01*
X212075023Y-97537333D01*
X212122642Y-97632571D01*
X212122642Y-97727809D01*
X211646452Y-97823047D01*
X212551214Y-98156380D02*
X212551214Y-97489714D01*
X212551214Y-97680190D02*
X212598833Y-97584952D01*
X212646452Y-97537333D01*
X212741690Y-97489714D01*
X212836928Y-97489714D01*
X213836928Y-97489714D02*
X214075023Y-98156380D01*
X214313119Y-97489714D01*
X215217880Y-98156380D02*
X214646452Y-98156380D01*
X214932166Y-98156380D02*
X214932166Y-97156380D01*
X214836928Y-97299238D01*
X214741690Y-97394476D01*
X214646452Y-97442095D01*
X215646452Y-98061142D02*
X215694071Y-98108761D01*
X215646452Y-98156380D01*
X215598833Y-98108761D01*
X215646452Y-98061142D01*
X215646452Y-98156380D01*
X216075023Y-97251619D02*
X216122642Y-97204000D01*
X216217880Y-97156380D01*
X216455976Y-97156380D01*
X216551214Y-97204000D01*
X216598833Y-97251619D01*
X216646452Y-97346857D01*
X216646452Y-97442095D01*
X216598833Y-97584952D01*
X216027404Y-98156380D01*
X216646452Y-98156380D01*
X201455976Y-98861619D02*
X201503595Y-98814000D01*
X201598833Y-98766380D01*
X201836928Y-98766380D01*
X201932166Y-98814000D01*
X201979785Y-98861619D01*
X202027404Y-98956857D01*
X202027404Y-99052095D01*
X201979785Y-99194952D01*
X201408357Y-99766380D01*
X202027404Y-99766380D01*
X202646452Y-98766380D02*
X202741690Y-98766380D01*
X202836928Y-98814000D01*
X202884547Y-98861619D01*
X202932166Y-98956857D01*
X202979785Y-99147333D01*
X202979785Y-99385428D01*
X202932166Y-99575904D01*
X202884547Y-99671142D01*
X202836928Y-99718761D01*
X202741690Y-99766380D01*
X202646452Y-99766380D01*
X202551214Y-99718761D01*
X202503595Y-99671142D01*
X202455976Y-99575904D01*
X202408357Y-99385428D01*
X202408357Y-99147333D01*
X202455976Y-98956857D01*
X202503595Y-98861619D01*
X202551214Y-98814000D01*
X202646452Y-98766380D01*
X203360738Y-98861619D02*
X203408357Y-98814000D01*
X203503595Y-98766380D01*
X203741690Y-98766380D01*
X203836928Y-98814000D01*
X203884547Y-98861619D01*
X203932166Y-98956857D01*
X203932166Y-99052095D01*
X203884547Y-99194952D01*
X203313119Y-99766380D01*
X203932166Y-99766380D01*
X204265500Y-98766380D02*
X204884547Y-98766380D01*
X204551214Y-99147333D01*
X204694071Y-99147333D01*
X204789309Y-99194952D01*
X204836928Y-99242571D01*
X204884547Y-99337809D01*
X204884547Y-99575904D01*
X204836928Y-99671142D01*
X204789309Y-99718761D01*
X204694071Y-99766380D01*
X204408357Y-99766380D01*
X204313119Y-99718761D01*
X204265500Y-99671142D01*
X205313119Y-99385428D02*
X206075023Y-99385428D01*
X206741690Y-98766380D02*
X206836928Y-98766380D01*
X206932166Y-98814000D01*
X206979785Y-98861619D01*
X207027404Y-98956857D01*
X207075023Y-99147333D01*
X207075023Y-99385428D01*
X207027404Y-99575904D01*
X206979785Y-99671142D01*
X206932166Y-99718761D01*
X206836928Y-99766380D01*
X206741690Y-99766380D01*
X206646452Y-99718761D01*
X206598833Y-99671142D01*
X206551214Y-99575904D01*
X206503595Y-99385428D01*
X206503595Y-99147333D01*
X206551214Y-98956857D01*
X206598833Y-98861619D01*
X206646452Y-98814000D01*
X206741690Y-98766380D01*
X207455976Y-98861619D02*
X207503595Y-98814000D01*
X207598833Y-98766380D01*
X207836928Y-98766380D01*
X207932166Y-98814000D01*
X207979785Y-98861619D01*
X208027404Y-98956857D01*
X208027404Y-99052095D01*
X207979785Y-99194952D01*
X207408357Y-99766380D01*
X208027404Y-99766380D01*
X208455976Y-99385428D02*
X209217880Y-99385428D01*
X209646452Y-98861619D02*
X209694071Y-98814000D01*
X209789309Y-98766380D01*
X210027404Y-98766380D01*
X210122642Y-98814000D01*
X210170261Y-98861619D01*
X210217880Y-98956857D01*
X210217880Y-99052095D01*
X210170261Y-99194952D01*
X209598833Y-99766380D01*
X210217880Y-99766380D01*
X210836928Y-98766380D02*
X210932166Y-98766380D01*
X211027404Y-98814000D01*
X211075023Y-98861619D01*
X211122642Y-98956857D01*
X211170261Y-99147333D01*
X211170261Y-99385428D01*
X211122642Y-99575904D01*
X211075023Y-99671142D01*
X211027404Y-99718761D01*
X210932166Y-99766380D01*
X210836928Y-99766380D01*
X210741690Y-99718761D01*
X210694071Y-99671142D01*
X210646452Y-99575904D01*
X210598833Y-99385428D01*
X210598833Y-99147333D01*
X210646452Y-98956857D01*
X210694071Y-98861619D01*
X210741690Y-98814000D01*
X210836928Y-98766380D01*
X201455976Y-101090666D02*
X201932166Y-101090666D01*
X201360738Y-101376380D02*
X201694071Y-100376380D01*
X202027404Y-101376380D01*
X202789309Y-101376380D02*
X202789309Y-100376380D01*
X202789309Y-101328761D02*
X202694071Y-101376380D01*
X202503595Y-101376380D01*
X202408357Y-101328761D01*
X202360738Y-101281142D01*
X202313119Y-101185904D01*
X202313119Y-100900190D01*
X202360738Y-100804952D01*
X202408357Y-100757333D01*
X202503595Y-100709714D01*
X202694071Y-100709714D01*
X202789309Y-100757333D01*
X203265500Y-101376380D02*
X203265500Y-100709714D01*
X203265500Y-100900190D02*
X203313119Y-100804952D01*
X203360738Y-100757333D01*
X203455976Y-100709714D01*
X203551214Y-100709714D01*
X203884547Y-101376380D02*
X203884547Y-100709714D01*
X203884547Y-100376380D02*
X203836928Y-100424000D01*
X203884547Y-100471619D01*
X203932166Y-100424000D01*
X203884547Y-100376380D01*
X203884547Y-100471619D01*
X204741690Y-101328761D02*
X204646452Y-101376380D01*
X204455976Y-101376380D01*
X204360738Y-101328761D01*
X204313119Y-101233523D01*
X204313119Y-100852571D01*
X204360738Y-100757333D01*
X204455976Y-100709714D01*
X204646452Y-100709714D01*
X204741690Y-100757333D01*
X204789309Y-100852571D01*
X204789309Y-100947809D01*
X204313119Y-101043047D01*
X205217880Y-100709714D02*
X205217880Y-101376380D01*
X205217880Y-100804952D02*
X205265500Y-100757333D01*
X205360738Y-100709714D01*
X205503595Y-100709714D01*
X205598833Y-100757333D01*
X205646452Y-100852571D01*
X205646452Y-101376380D01*
X206884547Y-101376380D02*
X206884547Y-100376380D01*
X207455976Y-101376380D02*
X207027404Y-100804952D01*
X207455976Y-100376380D02*
X206884547Y-100947809D01*
X208027404Y-101376380D02*
X207932166Y-101328761D01*
X207884547Y-101281142D01*
X207836928Y-101185904D01*
X207836928Y-100900190D01*
X207884547Y-100804952D01*
X207932166Y-100757333D01*
X208027404Y-100709714D01*
X208170261Y-100709714D01*
X208265500Y-100757333D01*
X208313119Y-100804952D01*
X208360738Y-100900190D01*
X208360738Y-101185904D01*
X208313119Y-101281142D01*
X208265500Y-101328761D01*
X208170261Y-101376380D01*
X208027404Y-101376380D01*
X208789309Y-101376380D02*
X208789309Y-100376380D01*
X209217880Y-101376380D02*
X209217880Y-100852571D01*
X209170261Y-100757333D01*
X209075023Y-100709714D01*
X208932166Y-100709714D01*
X208836928Y-100757333D01*
X208789309Y-100804952D01*
X209836928Y-101376380D02*
X209741690Y-101328761D01*
X209694071Y-101233523D01*
X209694071Y-100376380D01*
X210217880Y-101376380D02*
X210217880Y-100376380D01*
X210217880Y-100757333D02*
X210313119Y-100709714D01*
X210503595Y-100709714D01*
X210598833Y-100757333D01*
X210646452Y-100804952D01*
X210694071Y-100900190D01*
X210694071Y-101185904D01*
X210646452Y-101281142D01*
X210598833Y-101328761D01*
X210503595Y-101376380D01*
X210313119Y-101376380D01*
X210217880Y-101328761D01*
X211503595Y-101328761D02*
X211408357Y-101376380D01*
X211217880Y-101376380D01*
X211122642Y-101328761D01*
X211075023Y-101233523D01*
X211075023Y-100852571D01*
X211122642Y-100757333D01*
X211217880Y-100709714D01*
X211408357Y-100709714D01*
X211503595Y-100757333D01*
X211551214Y-100852571D01*
X211551214Y-100947809D01*
X211075023Y-101043047D01*
X212408357Y-101328761D02*
X212313119Y-101376380D01*
X212122642Y-101376380D01*
X212027404Y-101328761D01*
X211979785Y-101281142D01*
X211932166Y-101185904D01*
X211932166Y-100900190D01*
X211979785Y-100804952D01*
X212027404Y-100757333D01*
X212122642Y-100709714D01*
X212313119Y-100709714D01*
X212408357Y-100757333D01*
X212836928Y-101376380D02*
X212836928Y-100376380D01*
X212932166Y-100995428D02*
X213217880Y-101376380D01*
X213217880Y-100709714D02*
X212836928Y-101090666D01*
X214027404Y-101328761D02*
X213932166Y-101376380D01*
X213741690Y-101376380D01*
X213646452Y-101328761D01*
X213598833Y-101233523D01*
X213598833Y-100852571D01*
X213646452Y-100757333D01*
X213741690Y-100709714D01*
X213932166Y-100709714D01*
X214027404Y-100757333D01*
X214075023Y-100852571D01*
X214075023Y-100947809D01*
X213598833Y-101043047D01*
X214503595Y-101376380D02*
X214503595Y-100709714D01*
X214503595Y-100900190D02*
X214551214Y-100804952D01*
X214598833Y-100757333D01*
X214694071Y-100709714D01*
X214789309Y-100709714D01*
X135072380Y-153195785D02*
X134072380Y-153195785D01*
X134072380Y-152957690D01*
X134120000Y-152814833D01*
X134215238Y-152719595D01*
X134310476Y-152671976D01*
X134500952Y-152624357D01*
X134643809Y-152624357D01*
X134834285Y-152671976D01*
X134929523Y-152719595D01*
X135024761Y-152814833D01*
X135072380Y-152957690D01*
X135072380Y-153195785D01*
X134072380Y-152291023D02*
X134072380Y-151671976D01*
X134453333Y-152005309D01*
X134453333Y-151862452D01*
X134500952Y-151767214D01*
X134548571Y-151719595D01*
X134643809Y-151671976D01*
X134881904Y-151671976D01*
X134977142Y-151719595D01*
X135024761Y-151767214D01*
X135072380Y-151862452D01*
X135072380Y-152148166D01*
X135024761Y-152243404D01*
X134977142Y-152291023D01*
X188370785Y-98610000D02*
X188275547Y-98562380D01*
X188132690Y-98562380D01*
X187989833Y-98610000D01*
X187894595Y-98705238D01*
X187846976Y-98800476D01*
X187799357Y-98990952D01*
X187799357Y-99133809D01*
X187846976Y-99324285D01*
X187894595Y-99419523D01*
X187989833Y-99514761D01*
X188132690Y-99562380D01*
X188227928Y-99562380D01*
X188370785Y-99514761D01*
X188418404Y-99467142D01*
X188418404Y-99133809D01*
X188227928Y-99133809D01*
X188846976Y-99562380D02*
X188846976Y-98562380D01*
X189418404Y-99562380D01*
X189418404Y-98562380D01*
X189894595Y-99562380D02*
X189894595Y-98562380D01*
X190132690Y-98562380D01*
X190275547Y-98610000D01*
X190370785Y-98705238D01*
X190418404Y-98800476D01*
X190466023Y-98990952D01*
X190466023Y-99133809D01*
X190418404Y-99324285D01*
X190370785Y-99419523D01*
X190275547Y-99514761D01*
X190132690Y-99562380D01*
X189894595Y-99562380D01*
X223155238Y-100687142D02*
X223107619Y-100734761D01*
X222964761Y-100782380D01*
X222869523Y-100782380D01*
X222726666Y-100734761D01*
X222631428Y-100639523D01*
X222583809Y-100544285D01*
X222536190Y-100353809D01*
X222536190Y-100210952D01*
X222583809Y-100020476D01*
X222631428Y-99925238D01*
X222726666Y-99830000D01*
X222869523Y-99782380D01*
X222964761Y-99782380D01*
X223107619Y-99830000D01*
X223155238Y-99877619D01*
X223774285Y-99782380D02*
X223964761Y-99782380D01*
X224060000Y-99830000D01*
X224155238Y-99925238D01*
X224202857Y-100115714D01*
X224202857Y-100449047D01*
X224155238Y-100639523D01*
X224060000Y-100734761D01*
X223964761Y-100782380D01*
X223774285Y-100782380D01*
X223679047Y-100734761D01*
X223583809Y-100639523D01*
X223536190Y-100449047D01*
X223536190Y-100115714D01*
X223583809Y-99925238D01*
X223679047Y-99830000D01*
X223774285Y-99782380D01*
X224631428Y-100782380D02*
X224631428Y-99782380D01*
X225202857Y-100782380D01*
X225202857Y-99782380D01*
X225536190Y-99782380D02*
X226107619Y-99782380D01*
X225821904Y-100782380D02*
X225821904Y-99782380D01*
X227012380Y-100782380D02*
X226679047Y-100306190D01*
X226440952Y-100782380D02*
X226440952Y-99782380D01*
X226821904Y-99782380D01*
X226917142Y-99830000D01*
X226964761Y-99877619D01*
X227012380Y-99972857D01*
X227012380Y-100115714D01*
X226964761Y-100210952D01*
X226917142Y-100258571D01*
X226821904Y-100306190D01*
X226440952Y-100306190D01*
X227393333Y-100496666D02*
X227869523Y-100496666D01*
X227298095Y-100782380D02*
X227631428Y-99782380D01*
X227964761Y-100782380D01*
X228250476Y-100734761D02*
X228393333Y-100782380D01*
X228631428Y-100782380D01*
X228726666Y-100734761D01*
X228774285Y-100687142D01*
X228821904Y-100591904D01*
X228821904Y-100496666D01*
X228774285Y-100401428D01*
X228726666Y-100353809D01*
X228631428Y-100306190D01*
X228440952Y-100258571D01*
X228345714Y-100210952D01*
X228298095Y-100163333D01*
X228250476Y-100068095D01*
X228250476Y-99972857D01*
X228298095Y-99877619D01*
X228345714Y-99830000D01*
X228440952Y-99782380D01*
X228679047Y-99782380D01*
X228821904Y-99830000D01*
X229107619Y-99782380D02*
X229679047Y-99782380D01*
X229393333Y-100782380D02*
X229393333Y-99782380D01*
X78068380Y-98069404D02*
X79068380Y-97736071D01*
X78068380Y-97402738D01*
X78973142Y-96497976D02*
X79020761Y-96545595D01*
X79068380Y-96688452D01*
X79068380Y-96783690D01*
X79020761Y-96926547D01*
X78925523Y-97021785D01*
X78830285Y-97069404D01*
X78639809Y-97117023D01*
X78496952Y-97117023D01*
X78306476Y-97069404D01*
X78211238Y-97021785D01*
X78116000Y-96926547D01*
X78068380Y-96783690D01*
X78068380Y-96688452D01*
X78116000Y-96545595D01*
X78163619Y-96497976D01*
X78973142Y-95497976D02*
X79020761Y-95545595D01*
X79068380Y-95688452D01*
X79068380Y-95783690D01*
X79020761Y-95926547D01*
X78925523Y-96021785D01*
X78830285Y-96069404D01*
X78639809Y-96117023D01*
X78496952Y-96117023D01*
X78306476Y-96069404D01*
X78211238Y-96021785D01*
X78116000Y-95926547D01*
X78068380Y-95783690D01*
X78068380Y-95688452D01*
X78116000Y-95545595D01*
X78163619Y-95497976D01*
X161730000Y-153624357D02*
X161730000Y-152481500D01*
X162012380Y-153481500D02*
X163012380Y-153243404D01*
X162298095Y-153052928D01*
X163012380Y-152862452D01*
X162012380Y-152624357D01*
X161730000Y-152481500D02*
X161730000Y-151481500D01*
X163012380Y-151671976D02*
X162536190Y-152005309D01*
X163012380Y-152243404D02*
X162012380Y-152243404D01*
X162012380Y-151862452D01*
X162060000Y-151767214D01*
X162107619Y-151719595D01*
X162202857Y-151671976D01*
X162345714Y-151671976D01*
X162440952Y-151719595D01*
X162488571Y-151767214D01*
X162536190Y-151862452D01*
X162536190Y-152243404D01*
X218931781Y-153798928D02*
X217931781Y-153798928D01*
X217931781Y-153417976D01*
X217979401Y-153322738D01*
X218027020Y-153275119D01*
X218122258Y-153227500D01*
X218265115Y-153227500D01*
X218360353Y-153275119D01*
X218407972Y-153322738D01*
X218455591Y-153417976D01*
X218455591Y-153798928D01*
X218646067Y-152846547D02*
X218646067Y-152370357D01*
X218931781Y-152941785D02*
X217931781Y-152608452D01*
X218931781Y-152275119D01*
X217931781Y-151465595D02*
X217931781Y-151941785D01*
X218407972Y-151989404D01*
X218360353Y-151941785D01*
X218312734Y-151846547D01*
X218312734Y-151608452D01*
X218360353Y-151513214D01*
X218407972Y-151465595D01*
X218503210Y-151417976D01*
X218741305Y-151417976D01*
X218836543Y-151465595D01*
X218884162Y-151513214D01*
X218931781Y-151608452D01*
X218931781Y-151846547D01*
X218884162Y-151941785D01*
X218836543Y-151989404D01*
X159190000Y-154148166D02*
X159190000Y-153100547D01*
X160472380Y-153910071D02*
X159472380Y-153910071D01*
X160472380Y-153338642D01*
X159472380Y-153338642D01*
X159190000Y-153100547D02*
X159190000Y-151957690D01*
X160472380Y-152862452D02*
X159472380Y-152862452D01*
X160186666Y-152529119D01*
X159472380Y-152195785D01*
X160472380Y-152195785D01*
X159190000Y-151957690D02*
X159190000Y-151481500D01*
X160472380Y-151719595D02*
X159472380Y-151719595D01*
X101766666Y-153100547D02*
X101766666Y-152624357D01*
X102052380Y-153195785D02*
X101052380Y-152862452D01*
X102052380Y-152529119D01*
X101480952Y-152052928D02*
X101433333Y-152148166D01*
X101385714Y-152195785D01*
X101290476Y-152243404D01*
X101242857Y-152243404D01*
X101147619Y-152195785D01*
X101100000Y-152148166D01*
X101052380Y-152052928D01*
X101052380Y-151862452D01*
X101100000Y-151767214D01*
X101147619Y-151719595D01*
X101242857Y-151671976D01*
X101290476Y-151671976D01*
X101385714Y-151719595D01*
X101433333Y-151767214D01*
X101480952Y-151862452D01*
X101480952Y-152052928D01*
X101528571Y-152148166D01*
X101576190Y-152195785D01*
X101671428Y-152243404D01*
X101861904Y-152243404D01*
X101957142Y-152195785D01*
X102004761Y-152148166D01*
X102052380Y-152052928D01*
X102052380Y-151862452D01*
X102004761Y-151767214D01*
X101957142Y-151719595D01*
X101861904Y-151671976D01*
X101671428Y-151671976D01*
X101576190Y-151719595D01*
X101528571Y-151767214D01*
X101480952Y-151862452D01*
X99226666Y-153100547D02*
X99226666Y-152624357D01*
X99512380Y-153195785D02*
X98512380Y-152862452D01*
X99512380Y-152529119D01*
X99512380Y-152148166D02*
X99512380Y-151957690D01*
X99464761Y-151862452D01*
X99417142Y-151814833D01*
X99274285Y-151719595D01*
X99083809Y-151671976D01*
X98702857Y-151671976D01*
X98607619Y-151719595D01*
X98560000Y-151767214D01*
X98512380Y-151862452D01*
X98512380Y-152052928D01*
X98560000Y-152148166D01*
X98607619Y-152195785D01*
X98702857Y-152243404D01*
X98940952Y-152243404D01*
X99036190Y-152195785D01*
X99083809Y-152148166D01*
X99131428Y-152052928D01*
X99131428Y-151862452D01*
X99083809Y-151767214D01*
X99036190Y-151719595D01*
X98940952Y-151671976D01*
X229091781Y-153798928D02*
X228091781Y-153798928D01*
X228091781Y-153417976D01*
X228139401Y-153322738D01*
X228187020Y-153275119D01*
X228282258Y-153227500D01*
X228425115Y-153227500D01*
X228520353Y-153275119D01*
X228567972Y-153322738D01*
X228615591Y-153417976D01*
X228615591Y-153798928D01*
X228806067Y-152846547D02*
X228806067Y-152370357D01*
X229091781Y-152941785D02*
X228091781Y-152608452D01*
X229091781Y-152275119D01*
X229091781Y-151417976D02*
X229091781Y-151989404D01*
X229091781Y-151703690D02*
X228091781Y-151703690D01*
X228234639Y-151798928D01*
X228329877Y-151894166D01*
X228377496Y-151989404D01*
X160789214Y-102062380D02*
X160789214Y-101062380D01*
X161170166Y-101062380D01*
X161265404Y-101110000D01*
X161313023Y-101157619D01*
X161360642Y-101252857D01*
X161360642Y-101395714D01*
X161313023Y-101490952D01*
X161265404Y-101538571D01*
X161170166Y-101586190D01*
X160789214Y-101586190D01*
X162313023Y-101110000D02*
X162217785Y-101062380D01*
X162074928Y-101062380D01*
X161932071Y-101110000D01*
X161836833Y-101205238D01*
X161789214Y-101300476D01*
X161741595Y-101490952D01*
X161741595Y-101633809D01*
X161789214Y-101824285D01*
X161836833Y-101919523D01*
X161932071Y-102014761D01*
X162074928Y-102062380D01*
X162170166Y-102062380D01*
X162313023Y-102014761D01*
X162360642Y-101967142D01*
X162360642Y-101633809D01*
X162170166Y-101633809D01*
X162741595Y-101157619D02*
X162789214Y-101110000D01*
X162884452Y-101062380D01*
X163122547Y-101062380D01*
X163217785Y-101110000D01*
X163265404Y-101157619D01*
X163313023Y-101252857D01*
X163313023Y-101348095D01*
X163265404Y-101490952D01*
X162693976Y-102062380D01*
X163313023Y-102062380D01*
X86526666Y-154052928D02*
X86526666Y-153576738D01*
X86812380Y-154148166D02*
X85812380Y-153814833D01*
X86812380Y-153481500D01*
X86812380Y-152624357D02*
X86812380Y-153195785D01*
X86812380Y-152910071D02*
X85812380Y-152910071D01*
X85955238Y-153005309D01*
X86050476Y-153100547D01*
X86098095Y-153195785D01*
X86145714Y-151767214D02*
X86812380Y-151767214D01*
X85764761Y-152005309D02*
X86479047Y-152243404D01*
X86479047Y-151624357D01*
X109386666Y-153100547D02*
X109386666Y-152624357D01*
X109672380Y-153195785D02*
X108672380Y-152862452D01*
X109672380Y-152529119D01*
X108672380Y-151719595D02*
X108672380Y-152195785D01*
X109148571Y-152243404D01*
X109100952Y-152195785D01*
X109053333Y-152100547D01*
X109053333Y-151862452D01*
X109100952Y-151767214D01*
X109148571Y-151719595D01*
X109243809Y-151671976D01*
X109481904Y-151671976D01*
X109577142Y-151719595D01*
X109624761Y-151767214D01*
X109672380Y-151862452D01*
X109672380Y-152100547D01*
X109624761Y-152195785D01*
X109577142Y-152243404D01*
X151570000Y-154957690D02*
X151570000Y-154481500D01*
X152852380Y-154719595D02*
X151852380Y-154719595D01*
X151570000Y-154481500D02*
X151570000Y-153481500D01*
X152852380Y-153671976D02*
X152376190Y-154005309D01*
X152852380Y-154243404D02*
X151852380Y-154243404D01*
X151852380Y-153862452D01*
X151900000Y-153767214D01*
X151947619Y-153719595D01*
X152042857Y-153671976D01*
X152185714Y-153671976D01*
X152280952Y-153719595D01*
X152328571Y-153767214D01*
X152376190Y-153862452D01*
X152376190Y-154243404D01*
X151570000Y-153481500D02*
X151570000Y-152433880D01*
X152947619Y-152576738D02*
X152900000Y-152671976D01*
X152804761Y-152767214D01*
X152661904Y-152910071D01*
X152614285Y-153005309D01*
X152614285Y-153100547D01*
X152852380Y-153052928D02*
X152804761Y-153148166D01*
X152709523Y-153243404D01*
X152519047Y-153291023D01*
X152185714Y-153291023D01*
X151995238Y-153243404D01*
X151900000Y-153148166D01*
X151852380Y-153052928D01*
X151852380Y-152862452D01*
X151900000Y-152767214D01*
X151995238Y-152671976D01*
X152185714Y-152624357D01*
X152519047Y-152624357D01*
X152709523Y-152671976D01*
X152804761Y-152767214D01*
X152852380Y-152862452D01*
X152852380Y-153052928D01*
X151570000Y-152433880D02*
X151570000Y-151481500D01*
X152185714Y-151767214D02*
X152852380Y-151767214D01*
X151804761Y-152005309D02*
X152519047Y-152243404D01*
X152519047Y-151624357D01*
X132532380Y-153195785D02*
X131532380Y-153195785D01*
X131532380Y-152957690D01*
X131580000Y-152814833D01*
X131675238Y-152719595D01*
X131770476Y-152671976D01*
X131960952Y-152624357D01*
X132103809Y-152624357D01*
X132294285Y-152671976D01*
X132389523Y-152719595D01*
X132484761Y-152814833D01*
X132532380Y-152957690D01*
X132532380Y-153195785D01*
X131865714Y-151767214D02*
X132532380Y-151767214D01*
X131484761Y-152005309D02*
X132199047Y-152243404D01*
X132199047Y-151624357D01*
X221471781Y-153798928D02*
X220471781Y-153798928D01*
X220471781Y-153417976D01*
X220519401Y-153322738D01*
X220567020Y-153275119D01*
X220662258Y-153227500D01*
X220805115Y-153227500D01*
X220900353Y-153275119D01*
X220947972Y-153322738D01*
X220995591Y-153417976D01*
X220995591Y-153798928D01*
X221186067Y-152846547D02*
X221186067Y-152370357D01*
X221471781Y-152941785D02*
X220471781Y-152608452D01*
X221471781Y-152275119D01*
X220805115Y-151513214D02*
X221471781Y-151513214D01*
X220424162Y-151751309D02*
X221138448Y-151989404D01*
X221138448Y-151370357D01*
X67516952Y-101052380D02*
X67516952Y-101766666D01*
X67469333Y-101909523D01*
X67374095Y-102004761D01*
X67231238Y-102052380D01*
X67136000Y-102052380D01*
X68469333Y-102052380D02*
X67993142Y-102052380D01*
X67993142Y-101052380D01*
X69374095Y-101957142D02*
X69326476Y-102004761D01*
X69183619Y-102052380D01*
X69088380Y-102052380D01*
X68945523Y-102004761D01*
X68850285Y-101909523D01*
X68802666Y-101814285D01*
X68755047Y-101623809D01*
X68755047Y-101480952D01*
X68802666Y-101290476D01*
X68850285Y-101195238D01*
X68945523Y-101100000D01*
X69088380Y-101052380D01*
X69183619Y-101052380D01*
X69326476Y-101100000D01*
X69374095Y-101147619D01*
X70088380Y-101052380D02*
X70088380Y-101766666D01*
X70040761Y-101909523D01*
X69945523Y-102004761D01*
X69802666Y-102052380D01*
X69707428Y-102052380D01*
X71040761Y-102052380D02*
X70564571Y-102052380D01*
X70564571Y-101052380D01*
X71945523Y-101957142D02*
X71897904Y-102004761D01*
X71755047Y-102052380D01*
X71659809Y-102052380D01*
X71516952Y-102004761D01*
X71421714Y-101909523D01*
X71374095Y-101814285D01*
X71326476Y-101623809D01*
X71326476Y-101480952D01*
X71374095Y-101290476D01*
X71421714Y-101195238D01*
X71516952Y-101100000D01*
X71659809Y-101052380D01*
X71755047Y-101052380D01*
X71897904Y-101100000D01*
X71945523Y-101147619D01*
X72659809Y-101052380D02*
X72659809Y-101766666D01*
X72612190Y-101909523D01*
X72516952Y-102004761D01*
X72374095Y-102052380D01*
X72278857Y-102052380D01*
X73612190Y-102052380D02*
X73136000Y-102052380D01*
X73136000Y-101052380D01*
X74516952Y-101957142D02*
X74469333Y-102004761D01*
X74326476Y-102052380D01*
X74231238Y-102052380D01*
X74088380Y-102004761D01*
X73993142Y-101909523D01*
X73945523Y-101814285D01*
X73897904Y-101623809D01*
X73897904Y-101480952D01*
X73945523Y-101290476D01*
X73993142Y-101195238D01*
X74088380Y-101100000D01*
X74231238Y-101052380D01*
X74326476Y-101052380D01*
X74469333Y-101100000D01*
X74516952Y-101147619D01*
X75231238Y-101052380D02*
X75231238Y-101766666D01*
X75183619Y-101909523D01*
X75088380Y-102004761D01*
X74945523Y-102052380D01*
X74850285Y-102052380D01*
X76183619Y-102052380D02*
X75707428Y-102052380D01*
X75707428Y-101052380D01*
X77088380Y-101957142D02*
X77040761Y-102004761D01*
X76897904Y-102052380D01*
X76802666Y-102052380D01*
X76659809Y-102004761D01*
X76564571Y-101909523D01*
X76516952Y-101814285D01*
X76469333Y-101623809D01*
X76469333Y-101480952D01*
X76516952Y-101290476D01*
X76564571Y-101195238D01*
X76659809Y-101100000D01*
X76802666Y-101052380D01*
X76897904Y-101052380D01*
X77040761Y-101100000D01*
X77088380Y-101147619D01*
X195119401Y-153513214D02*
X195071781Y-153608452D01*
X195071781Y-153751309D01*
X195119401Y-153894166D01*
X195214639Y-153989404D01*
X195309877Y-154037023D01*
X195500353Y-154084642D01*
X195643210Y-154084642D01*
X195833686Y-154037023D01*
X195928924Y-153989404D01*
X196024162Y-153894166D01*
X196071781Y-153751309D01*
X196071781Y-153656071D01*
X196024162Y-153513214D01*
X195976543Y-153465595D01*
X195643210Y-153465595D01*
X195643210Y-153656071D01*
X196071781Y-153037023D02*
X195071781Y-153037023D01*
X196071781Y-152465595D01*
X195071781Y-152465595D01*
X196071781Y-151989404D02*
X195071781Y-151989404D01*
X195071781Y-151751309D01*
X195119401Y-151608452D01*
X195214639Y-151513214D01*
X195309877Y-151465595D01*
X195500353Y-151417976D01*
X195643210Y-151417976D01*
X195833686Y-151465595D01*
X195928924Y-151513214D01*
X196024162Y-151608452D01*
X196071781Y-151751309D01*
X196071781Y-151989404D01*
X156650000Y-154957690D02*
X156650000Y-154481500D01*
X157932380Y-154719595D02*
X156932380Y-154719595D01*
X156650000Y-154481500D02*
X156650000Y-153481500D01*
X157932380Y-153671976D02*
X157456190Y-154005309D01*
X157932380Y-154243404D02*
X156932380Y-154243404D01*
X156932380Y-153862452D01*
X156980000Y-153767214D01*
X157027619Y-153719595D01*
X157122857Y-153671976D01*
X157265714Y-153671976D01*
X157360952Y-153719595D01*
X157408571Y-153767214D01*
X157456190Y-153862452D01*
X157456190Y-154243404D01*
X156650000Y-153481500D02*
X156650000Y-152433880D01*
X158027619Y-152576738D02*
X157980000Y-152671976D01*
X157884761Y-152767214D01*
X157741904Y-152910071D01*
X157694285Y-153005309D01*
X157694285Y-153100547D01*
X157932380Y-153052928D02*
X157884761Y-153148166D01*
X157789523Y-153243404D01*
X157599047Y-153291023D01*
X157265714Y-153291023D01*
X157075238Y-153243404D01*
X156980000Y-153148166D01*
X156932380Y-153052928D01*
X156932380Y-152862452D01*
X156980000Y-152767214D01*
X157075238Y-152671976D01*
X157265714Y-152624357D01*
X157599047Y-152624357D01*
X157789523Y-152671976D01*
X157884761Y-152767214D01*
X157932380Y-152862452D01*
X157932380Y-153052928D01*
X156650000Y-152433880D02*
X156650000Y-151481500D01*
X157027619Y-152243404D02*
X156980000Y-152195785D01*
X156932380Y-152100547D01*
X156932380Y-151862452D01*
X156980000Y-151767214D01*
X157027619Y-151719595D01*
X157122857Y-151671976D01*
X157218095Y-151671976D01*
X157360952Y-151719595D01*
X157932380Y-152291023D01*
X157932380Y-151671976D01*
X161217785Y-98570000D02*
X161122547Y-98522380D01*
X160979690Y-98522380D01*
X160836833Y-98570000D01*
X160741595Y-98665238D01*
X160693976Y-98760476D01*
X160646357Y-98950952D01*
X160646357Y-99093809D01*
X160693976Y-99284285D01*
X160741595Y-99379523D01*
X160836833Y-99474761D01*
X160979690Y-99522380D01*
X161074928Y-99522380D01*
X161217785Y-99474761D01*
X161265404Y-99427142D01*
X161265404Y-99093809D01*
X161074928Y-99093809D01*
X161693976Y-99522380D02*
X161693976Y-98522380D01*
X162265404Y-99522380D01*
X162265404Y-98522380D01*
X162741595Y-99522380D02*
X162741595Y-98522380D01*
X162979690Y-98522380D01*
X163122547Y-98570000D01*
X163217785Y-98665238D01*
X163265404Y-98760476D01*
X163313023Y-98950952D01*
X163313023Y-99093809D01*
X163265404Y-99284285D01*
X163217785Y-99379523D01*
X163122547Y-99474761D01*
X162979690Y-99522380D01*
X162741595Y-99522380D01*
X143950000Y-153957690D02*
X143950000Y-153481500D01*
X145232380Y-153719595D02*
X144232380Y-153719595D01*
X143950000Y-153481500D02*
X143950000Y-152433880D01*
X144232380Y-153052928D02*
X144232380Y-152862452D01*
X144280000Y-152767214D01*
X144375238Y-152671976D01*
X144565714Y-152624357D01*
X144899047Y-152624357D01*
X145089523Y-152671976D01*
X145184761Y-152767214D01*
X145232380Y-152862452D01*
X145232380Y-153052928D01*
X145184761Y-153148166D01*
X145089523Y-153243404D01*
X144899047Y-153291023D01*
X144565714Y-153291023D01*
X144375238Y-153243404D01*
X144280000Y-153148166D01*
X144232380Y-153052928D01*
X143950000Y-152433880D02*
X143950000Y-151481500D01*
X144565714Y-151767214D02*
X145232380Y-151767214D01*
X144184761Y-152005309D02*
X144899047Y-152243404D01*
X144899047Y-151624357D01*
X176970000Y-155814833D02*
X176970000Y-154814833D01*
X178252380Y-155005309D02*
X177776190Y-155338642D01*
X178252380Y-155576738D02*
X177252380Y-155576738D01*
X177252380Y-155195785D01*
X177300000Y-155100547D01*
X177347619Y-155052928D01*
X177442857Y-155005309D01*
X177585714Y-155005309D01*
X177680952Y-155052928D01*
X177728571Y-155100547D01*
X177776190Y-155195785D01*
X177776190Y-155576738D01*
X176970000Y-154814833D02*
X176970000Y-153767214D01*
X177252380Y-154386261D02*
X177252380Y-154195785D01*
X177300000Y-154100547D01*
X177395238Y-154005309D01*
X177585714Y-153957690D01*
X177919047Y-153957690D01*
X178109523Y-154005309D01*
X178204761Y-154100547D01*
X178252380Y-154195785D01*
X178252380Y-154386261D01*
X178204761Y-154481500D01*
X178109523Y-154576738D01*
X177919047Y-154624357D01*
X177585714Y-154624357D01*
X177395238Y-154576738D01*
X177300000Y-154481500D01*
X177252380Y-154386261D01*
X176970000Y-153767214D02*
X176970000Y-152624357D01*
X178252380Y-153529119D02*
X177252380Y-153529119D01*
X177966666Y-153195785D01*
X177252380Y-152862452D01*
X178252380Y-152862452D01*
X176970000Y-152624357D02*
X176970000Y-151481500D01*
X177252380Y-152481500D02*
X178252380Y-152243404D01*
X177538095Y-152052928D01*
X178252380Y-151862452D01*
X177252380Y-151624357D01*
X117006666Y-153100547D02*
X117006666Y-152624357D01*
X117292380Y-153195785D02*
X116292380Y-152862452D01*
X117292380Y-152529119D01*
X116387619Y-152243404D02*
X116340000Y-152195785D01*
X116292380Y-152100547D01*
X116292380Y-151862452D01*
X116340000Y-151767214D01*
X116387619Y-151719595D01*
X116482857Y-151671976D01*
X116578095Y-151671976D01*
X116720952Y-151719595D01*
X117292380Y-152291023D01*
X117292380Y-151671976D01*
X149030000Y-153957690D02*
X149030000Y-153481500D01*
X150312380Y-153719595D02*
X149312380Y-153719595D01*
X149030000Y-153481500D02*
X149030000Y-152433880D01*
X149312380Y-153052928D02*
X149312380Y-152862452D01*
X149360000Y-152767214D01*
X149455238Y-152671976D01*
X149645714Y-152624357D01*
X149979047Y-152624357D01*
X150169523Y-152671976D01*
X150264761Y-152767214D01*
X150312380Y-152862452D01*
X150312380Y-153052928D01*
X150264761Y-153148166D01*
X150169523Y-153243404D01*
X149979047Y-153291023D01*
X149645714Y-153291023D01*
X149455238Y-153243404D01*
X149360000Y-153148166D01*
X149312380Y-153052928D01*
X149030000Y-152433880D02*
X149030000Y-151481500D01*
X149407619Y-152243404D02*
X149360000Y-152195785D01*
X149312380Y-152100547D01*
X149312380Y-151862452D01*
X149360000Y-151767214D01*
X149407619Y-151719595D01*
X149502857Y-151671976D01*
X149598095Y-151671976D01*
X149740952Y-151719595D01*
X150312380Y-152291023D01*
X150312380Y-151671976D01*
X96686666Y-154052928D02*
X96686666Y-153576738D01*
X96972380Y-154148166D02*
X95972380Y-153814833D01*
X96972380Y-153481500D01*
X96972380Y-152624357D02*
X96972380Y-153195785D01*
X96972380Y-152910071D02*
X95972380Y-152910071D01*
X96115238Y-153005309D01*
X96210476Y-153100547D01*
X96258095Y-153195785D01*
X95972380Y-152005309D02*
X95972380Y-151910071D01*
X96020000Y-151814833D01*
X96067619Y-151767214D01*
X96162857Y-151719595D01*
X96353333Y-151671976D01*
X96591428Y-151671976D01*
X96781904Y-151719595D01*
X96877142Y-151767214D01*
X96924761Y-151814833D01*
X96972380Y-151910071D01*
X96972380Y-152005309D01*
X96924761Y-152100547D01*
X96877142Y-152148166D01*
X96781904Y-152195785D01*
X96591428Y-152243404D01*
X96353333Y-152243404D01*
X96162857Y-152195785D01*
X96067619Y-152148166D01*
X96020000Y-152100547D01*
X95972380Y-152005309D01*
X231631781Y-153798928D02*
X230631781Y-153798928D01*
X230631781Y-153417976D01*
X230679401Y-153322738D01*
X230727020Y-153275119D01*
X230822258Y-153227500D01*
X230965115Y-153227500D01*
X231060353Y-153275119D01*
X231107972Y-153322738D01*
X231155591Y-153417976D01*
X231155591Y-153798928D01*
X231346067Y-152846547D02*
X231346067Y-152370357D01*
X231631781Y-152941785D02*
X230631781Y-152608452D01*
X231631781Y-152275119D01*
X230631781Y-151751309D02*
X230631781Y-151656071D01*
X230679401Y-151560833D01*
X230727020Y-151513214D01*
X230822258Y-151465595D01*
X231012734Y-151417976D01*
X231250829Y-151417976D01*
X231441305Y-151465595D01*
X231536543Y-151513214D01*
X231584162Y-151560833D01*
X231631781Y-151656071D01*
X231631781Y-151751309D01*
X231584162Y-151846547D01*
X231536543Y-151894166D01*
X231441305Y-151941785D01*
X231250829Y-151989404D01*
X231012734Y-151989404D01*
X230822258Y-151941785D01*
X230727020Y-151894166D01*
X230679401Y-151846547D01*
X230631781Y-151751309D01*
X89066666Y-154052928D02*
X89066666Y-153576738D01*
X89352380Y-154148166D02*
X88352380Y-153814833D01*
X89352380Y-153481500D01*
X89352380Y-152624357D02*
X89352380Y-153195785D01*
X89352380Y-152910071D02*
X88352380Y-152910071D01*
X88495238Y-153005309D01*
X88590476Y-153100547D01*
X88638095Y-153195785D01*
X88352380Y-152291023D02*
X88352380Y-151671976D01*
X88733333Y-152005309D01*
X88733333Y-151862452D01*
X88780952Y-151767214D01*
X88828571Y-151719595D01*
X88923809Y-151671976D01*
X89161904Y-151671976D01*
X89257142Y-151719595D01*
X89304761Y-151767214D01*
X89352380Y-151862452D01*
X89352380Y-152148166D01*
X89304761Y-152243404D01*
X89257142Y-152291023D01*
X79097142Y-153481500D02*
X79144761Y-153529119D01*
X79192380Y-153671976D01*
X79192380Y-153767214D01*
X79144761Y-153910071D01*
X79049523Y-154005309D01*
X78954285Y-154052928D01*
X78763809Y-154100547D01*
X78620952Y-154100547D01*
X78430476Y-154052928D01*
X78335238Y-154005309D01*
X78240000Y-153910071D01*
X78192380Y-153767214D01*
X78192380Y-153671976D01*
X78240000Y-153529119D01*
X78287619Y-153481500D01*
X79192380Y-152576738D02*
X79192380Y-153052928D01*
X78192380Y-153052928D01*
X79192380Y-152243404D02*
X78192380Y-152243404D01*
X79192380Y-151671976D02*
X78620952Y-152100547D01*
X78192380Y-151671976D02*
X78763809Y-152243404D01*
X168092380Y-152814833D02*
X167616190Y-153148166D01*
X168092380Y-153386261D02*
X167092380Y-153386261D01*
X167092380Y-153005309D01*
X167140000Y-152910071D01*
X167187619Y-152862452D01*
X167282857Y-152814833D01*
X167425714Y-152814833D01*
X167520952Y-152862452D01*
X167568571Y-152910071D01*
X167616190Y-153005309D01*
X167616190Y-153386261D01*
X166810000Y-152624357D02*
X166810000Y-151481500D01*
X167092380Y-152481500D02*
X168092380Y-152243404D01*
X167378095Y-152052928D01*
X168092380Y-151862452D01*
X167092380Y-151624357D01*
X69770952Y-98988571D02*
X69009047Y-98988571D01*
X69390000Y-98607619D02*
X69390000Y-99369523D01*
X124912380Y-153195785D02*
X123912380Y-153195785D01*
X123912380Y-152957690D01*
X123960000Y-152814833D01*
X124055238Y-152719595D01*
X124150476Y-152671976D01*
X124340952Y-152624357D01*
X124483809Y-152624357D01*
X124674285Y-152671976D01*
X124769523Y-152719595D01*
X124864761Y-152814833D01*
X124912380Y-152957690D01*
X124912380Y-153195785D01*
X123912380Y-152291023D02*
X123912380Y-151624357D01*
X124912380Y-152052928D01*
X208771781Y-153941785D02*
X207771781Y-153941785D01*
X207771781Y-153560833D01*
X207819401Y-153465595D01*
X207867020Y-153417976D01*
X207962258Y-153370357D01*
X208105115Y-153370357D01*
X208200353Y-153417976D01*
X208247972Y-153465595D01*
X208295591Y-153560833D01*
X208295591Y-153941785D01*
X208247972Y-152608452D02*
X208295591Y-152465595D01*
X208343210Y-152417976D01*
X208438448Y-152370357D01*
X208581305Y-152370357D01*
X208676543Y-152417976D01*
X208724162Y-152465595D01*
X208771781Y-152560833D01*
X208771781Y-152941785D01*
X207771781Y-152941785D01*
X207771781Y-152608452D01*
X207819401Y-152513214D01*
X207867020Y-152465595D01*
X207962258Y-152417976D01*
X208057496Y-152417976D01*
X208152734Y-152465595D01*
X208200353Y-152513214D01*
X208247972Y-152608452D01*
X208247972Y-152941785D01*
X207771781Y-151513214D02*
X207771781Y-151703690D01*
X207819401Y-151798928D01*
X207867020Y-151846547D01*
X208009877Y-151941785D01*
X208200353Y-151989404D01*
X208581305Y-151989404D01*
X208676543Y-151941785D01*
X208724162Y-151894166D01*
X208771781Y-151798928D01*
X208771781Y-151608452D01*
X208724162Y-151513214D01*
X208676543Y-151465595D01*
X208581305Y-151417976D01*
X208343210Y-151417976D01*
X208247972Y-151465595D01*
X208200353Y-151513214D01*
X208152734Y-151608452D01*
X208152734Y-151798928D01*
X208200353Y-151894166D01*
X208247972Y-151941785D01*
X208343210Y-151989404D01*
X73160000Y-153767214D02*
X73112380Y-153862452D01*
X73112380Y-154005309D01*
X73160000Y-154148166D01*
X73255238Y-154243404D01*
X73350476Y-154291023D01*
X73540952Y-154338642D01*
X73683809Y-154338642D01*
X73874285Y-154291023D01*
X73969523Y-154243404D01*
X74064761Y-154148166D01*
X74112380Y-154005309D01*
X74112380Y-153910071D01*
X74064761Y-153767214D01*
X74017142Y-153719595D01*
X73683809Y-153719595D01*
X73683809Y-153910071D01*
X74112380Y-153291023D02*
X73112380Y-153291023D01*
X74112380Y-152719595D01*
X73112380Y-152719595D01*
X74112380Y-152243404D02*
X73112380Y-152243404D01*
X73112380Y-152005309D01*
X73160000Y-151862452D01*
X73255238Y-151767214D01*
X73350476Y-151719595D01*
X73540952Y-151671976D01*
X73683809Y-151671976D01*
X73874285Y-151719595D01*
X73969523Y-151767214D01*
X74064761Y-151862452D01*
X74112380Y-152005309D01*
X74112380Y-152243404D01*
X85035285Y-46188380D02*
X84844809Y-46188380D01*
X84749571Y-46236000D01*
X84701952Y-46283619D01*
X84606714Y-46426476D01*
X84559095Y-46616952D01*
X84559095Y-46997904D01*
X84606714Y-47093142D01*
X84654333Y-47140761D01*
X84749571Y-47188380D01*
X84940047Y-47188380D01*
X85035285Y-47140761D01*
X85082904Y-47093142D01*
X85130523Y-46997904D01*
X85130523Y-46759809D01*
X85082904Y-46664571D01*
X85035285Y-46616952D01*
X84940047Y-46569333D01*
X84749571Y-46569333D01*
X84654333Y-46616952D01*
X84606714Y-46664571D01*
X84559095Y-46759809D01*
X86035285Y-46188380D02*
X85559095Y-46188380D01*
X85511476Y-46664571D01*
X85559095Y-46616952D01*
X85654333Y-46569333D01*
X85892428Y-46569333D01*
X85987666Y-46616952D01*
X86035285Y-46664571D01*
X86082904Y-46759809D01*
X86082904Y-46997904D01*
X86035285Y-47093142D01*
X85987666Y-47140761D01*
X85892428Y-47188380D01*
X85654333Y-47188380D01*
X85559095Y-47140761D01*
X85511476Y-47093142D01*
X86701952Y-46188380D02*
X86797190Y-46188380D01*
X86892428Y-46236000D01*
X86940047Y-46283619D01*
X86987666Y-46378857D01*
X87035285Y-46569333D01*
X87035285Y-46807428D01*
X86987666Y-46997904D01*
X86940047Y-47093142D01*
X86892428Y-47140761D01*
X86797190Y-47188380D01*
X86701952Y-47188380D01*
X86606714Y-47140761D01*
X86559095Y-47093142D01*
X86511476Y-46997904D01*
X86463857Y-46807428D01*
X86463857Y-46569333D01*
X86511476Y-46378857D01*
X86559095Y-46283619D01*
X86606714Y-46236000D01*
X86701952Y-46188380D01*
X87416238Y-46283619D02*
X87463857Y-46236000D01*
X87559095Y-46188380D01*
X87797190Y-46188380D01*
X87892428Y-46236000D01*
X87940047Y-46283619D01*
X87987666Y-46378857D01*
X87987666Y-46474095D01*
X87940047Y-46616952D01*
X87368619Y-47188380D01*
X87987666Y-47188380D01*
X88178142Y-47283619D02*
X88940047Y-47283619D01*
X89178142Y-47188380D02*
X89178142Y-46521714D01*
X89178142Y-46616952D02*
X89225761Y-46569333D01*
X89321000Y-46521714D01*
X89463857Y-46521714D01*
X89559095Y-46569333D01*
X89606714Y-46664571D01*
X89606714Y-47188380D01*
X89606714Y-46664571D02*
X89654333Y-46569333D01*
X89749571Y-46521714D01*
X89892428Y-46521714D01*
X89987666Y-46569333D01*
X90035285Y-46664571D01*
X90035285Y-47188380D01*
X90940047Y-47188380D02*
X90940047Y-46664571D01*
X90892428Y-46569333D01*
X90797190Y-46521714D01*
X90606714Y-46521714D01*
X90511476Y-46569333D01*
X90940047Y-47140761D02*
X90844809Y-47188380D01*
X90606714Y-47188380D01*
X90511476Y-47140761D01*
X90463857Y-47045523D01*
X90463857Y-46950285D01*
X90511476Y-46855047D01*
X90606714Y-46807428D01*
X90844809Y-46807428D01*
X90940047Y-46759809D01*
X91416238Y-47188380D02*
X91416238Y-46521714D01*
X91416238Y-46188380D02*
X91368619Y-46236000D01*
X91416238Y-46283619D01*
X91463857Y-46236000D01*
X91416238Y-46188380D01*
X91416238Y-46283619D01*
X91892428Y-46521714D02*
X91892428Y-47188380D01*
X91892428Y-46616952D02*
X91940047Y-46569333D01*
X92035285Y-46521714D01*
X92178142Y-46521714D01*
X92273380Y-46569333D01*
X92321000Y-46664571D01*
X92321000Y-47188380D01*
X92797190Y-47188380D02*
X92797190Y-46188380D01*
X92797190Y-46569333D02*
X92892428Y-46521714D01*
X93082904Y-46521714D01*
X93178142Y-46569333D01*
X93225761Y-46616952D01*
X93273380Y-46712190D01*
X93273380Y-46997904D01*
X93225761Y-47093142D01*
X93178142Y-47140761D01*
X93082904Y-47188380D01*
X92892428Y-47188380D01*
X92797190Y-47140761D01*
X93844809Y-47188380D02*
X93749571Y-47140761D01*
X93701952Y-47093142D01*
X93654333Y-46997904D01*
X93654333Y-46712190D01*
X93701952Y-46616952D01*
X93749571Y-46569333D01*
X93844809Y-46521714D01*
X93987666Y-46521714D01*
X94082904Y-46569333D01*
X94130523Y-46616952D01*
X94178142Y-46712190D01*
X94178142Y-46997904D01*
X94130523Y-47093142D01*
X94082904Y-47140761D01*
X93987666Y-47188380D01*
X93844809Y-47188380D01*
X95035285Y-47188380D02*
X95035285Y-46664571D01*
X94987666Y-46569333D01*
X94892428Y-46521714D01*
X94701952Y-46521714D01*
X94606714Y-46569333D01*
X95035285Y-47140761D02*
X94940047Y-47188380D01*
X94701952Y-47188380D01*
X94606714Y-47140761D01*
X94559095Y-47045523D01*
X94559095Y-46950285D01*
X94606714Y-46855047D01*
X94701952Y-46807428D01*
X94940047Y-46807428D01*
X95035285Y-46759809D01*
X95511476Y-47188380D02*
X95511476Y-46521714D01*
X95511476Y-46712190D02*
X95559095Y-46616952D01*
X95606714Y-46569333D01*
X95701952Y-46521714D01*
X95797190Y-46521714D01*
X96559095Y-47188380D02*
X96559095Y-46188380D01*
X96559095Y-47140761D02*
X96463857Y-47188380D01*
X96273380Y-47188380D01*
X96178142Y-47140761D01*
X96130523Y-47093142D01*
X96082904Y-46997904D01*
X96082904Y-46712190D01*
X96130523Y-46616952D01*
X96178142Y-46569333D01*
X96273380Y-46521714D01*
X96463857Y-46521714D01*
X96559095Y-46569333D01*
X96797190Y-47283619D02*
X97559095Y-47283619D01*
X97701952Y-46521714D02*
X97940047Y-47188380D01*
X98178142Y-46521714D01*
X98511476Y-46283619D02*
X98559095Y-46236000D01*
X98654333Y-46188380D01*
X98892428Y-46188380D01*
X98987666Y-46236000D01*
X99035285Y-46283619D01*
X99082904Y-46378857D01*
X99082904Y-46474095D01*
X99035285Y-46616952D01*
X98463857Y-47188380D01*
X99082904Y-47188380D01*
X76724428Y-114244380D02*
X76724428Y-113244380D01*
X77295857Y-114244380D02*
X76867285Y-113672952D01*
X77295857Y-113244380D02*
X76724428Y-113815809D01*
X78105380Y-114196761D02*
X78010142Y-114244380D01*
X77819666Y-114244380D01*
X77724428Y-114196761D01*
X77676809Y-114101523D01*
X77676809Y-113720571D01*
X77724428Y-113625333D01*
X77819666Y-113577714D01*
X78010142Y-113577714D01*
X78105380Y-113625333D01*
X78153000Y-113720571D01*
X78153000Y-113815809D01*
X77676809Y-113911047D01*
X78486333Y-113577714D02*
X78724428Y-114244380D01*
X78962523Y-113577714D02*
X78724428Y-114244380D01*
X78629190Y-114482476D01*
X78581571Y-114530095D01*
X78486333Y-114577714D01*
X79343476Y-114244380D02*
X79343476Y-113244380D01*
X79343476Y-113625333D02*
X79438714Y-113577714D01*
X79629190Y-113577714D01*
X79724428Y-113625333D01*
X79772047Y-113672952D01*
X79819666Y-113768190D01*
X79819666Y-114053904D01*
X79772047Y-114149142D01*
X79724428Y-114196761D01*
X79629190Y-114244380D01*
X79438714Y-114244380D01*
X79343476Y-114196761D01*
X80391095Y-114244380D02*
X80295857Y-114196761D01*
X80248238Y-114149142D01*
X80200619Y-114053904D01*
X80200619Y-113768190D01*
X80248238Y-113672952D01*
X80295857Y-113625333D01*
X80391095Y-113577714D01*
X80533952Y-113577714D01*
X80629190Y-113625333D01*
X80676809Y-113672952D01*
X80724428Y-113768190D01*
X80724428Y-114053904D01*
X80676809Y-114149142D01*
X80629190Y-114196761D01*
X80533952Y-114244380D01*
X80391095Y-114244380D01*
X81581571Y-114244380D02*
X81581571Y-113720571D01*
X81533952Y-113625333D01*
X81438714Y-113577714D01*
X81248238Y-113577714D01*
X81153000Y-113625333D01*
X81581571Y-114196761D02*
X81486333Y-114244380D01*
X81248238Y-114244380D01*
X81153000Y-114196761D01*
X81105380Y-114101523D01*
X81105380Y-114006285D01*
X81153000Y-113911047D01*
X81248238Y-113863428D01*
X81486333Y-113863428D01*
X81581571Y-113815809D01*
X82057761Y-114244380D02*
X82057761Y-113577714D01*
X82057761Y-113768190D02*
X82105380Y-113672952D01*
X82153000Y-113625333D01*
X82248238Y-113577714D01*
X82343476Y-113577714D01*
X83105380Y-114244380D02*
X83105380Y-113244380D01*
X83105380Y-114196761D02*
X83010142Y-114244380D01*
X82819666Y-114244380D01*
X82724428Y-114196761D01*
X82676809Y-114149142D01*
X82629190Y-114053904D01*
X82629190Y-113768190D01*
X82676809Y-113672952D01*
X82724428Y-113625333D01*
X82819666Y-113577714D01*
X83010142Y-113577714D01*
X83105380Y-113625333D01*
X83343476Y-114339619D02*
X84105380Y-114339619D01*
X84248238Y-113577714D02*
X84486333Y-114244380D01*
X84724428Y-113577714D01*
X85629190Y-114244380D02*
X85057761Y-114244380D01*
X85343476Y-114244380D02*
X85343476Y-113244380D01*
X85248238Y-113387238D01*
X85153000Y-113482476D01*
X85057761Y-113530095D01*
X94912380Y-102361904D02*
X95721904Y-102361904D01*
X95817142Y-102314285D01*
X95864761Y-102266666D01*
X95912380Y-102171428D01*
X95912380Y-101980952D01*
X95864761Y-101885714D01*
X95817142Y-101838095D01*
X95721904Y-101790476D01*
X94912380Y-101790476D01*
X95007619Y-101361904D02*
X94960000Y-101314285D01*
X94912380Y-101219047D01*
X94912380Y-100980952D01*
X94960000Y-100885714D01*
X95007619Y-100838095D01*
X95102857Y-100790476D01*
X95198095Y-100790476D01*
X95340952Y-100838095D01*
X95912380Y-101409523D01*
X95912380Y-100790476D01*
X152757142Y-106846666D02*
X152804761Y-106894285D01*
X152852380Y-107037142D01*
X152852380Y-107132380D01*
X152804761Y-107275238D01*
X152709523Y-107370476D01*
X152614285Y-107418095D01*
X152423809Y-107465714D01*
X152280952Y-107465714D01*
X152090476Y-107418095D01*
X151995238Y-107370476D01*
X151900000Y-107275238D01*
X151852380Y-107132380D01*
X151852380Y-107037142D01*
X151900000Y-106894285D01*
X151947619Y-106846666D01*
X151947619Y-106465714D02*
X151900000Y-106418095D01*
X151852380Y-106322857D01*
X151852380Y-106084761D01*
X151900000Y-105989523D01*
X151947619Y-105941904D01*
X152042857Y-105894285D01*
X152138095Y-105894285D01*
X152280952Y-105941904D01*
X152852380Y-106513333D01*
X152852380Y-105894285D01*
X87848476Y-94432380D02*
X87848476Y-93432380D01*
X88229428Y-93432380D01*
X88324666Y-93480000D01*
X88372285Y-93527619D01*
X88419904Y-93622857D01*
X88419904Y-93765714D01*
X88372285Y-93860952D01*
X88324666Y-93908571D01*
X88229428Y-93956190D01*
X87848476Y-93956190D01*
X89038952Y-93432380D02*
X89229428Y-93432380D01*
X89324666Y-93480000D01*
X89419904Y-93575238D01*
X89467523Y-93765714D01*
X89467523Y-94099047D01*
X89419904Y-94289523D01*
X89324666Y-94384761D01*
X89229428Y-94432380D01*
X89038952Y-94432380D01*
X88943714Y-94384761D01*
X88848476Y-94289523D01*
X88800857Y-94099047D01*
X88800857Y-93765714D01*
X88848476Y-93575238D01*
X88943714Y-93480000D01*
X89038952Y-93432380D01*
X89800857Y-93432380D02*
X90038952Y-94432380D01*
X90229428Y-93718095D01*
X90419904Y-94432380D01*
X90658000Y-93432380D01*
X91038952Y-93908571D02*
X91372285Y-93908571D01*
X91515142Y-94432380D02*
X91038952Y-94432380D01*
X91038952Y-93432380D01*
X91515142Y-93432380D01*
X92515142Y-94432380D02*
X92181809Y-93956190D01*
X91943714Y-94432380D02*
X91943714Y-93432380D01*
X92324666Y-93432380D01*
X92419904Y-93480000D01*
X92467523Y-93527619D01*
X92515142Y-93622857D01*
X92515142Y-93765714D01*
X92467523Y-93860952D01*
X92419904Y-93908571D01*
X92324666Y-93956190D01*
X91943714Y-93956190D01*
X92992380Y-104941666D02*
X92516190Y-105275000D01*
X92992380Y-105513095D02*
X91992380Y-105513095D01*
X91992380Y-105132142D01*
X92040000Y-105036904D01*
X92087619Y-104989285D01*
X92182857Y-104941666D01*
X92325714Y-104941666D01*
X92420952Y-104989285D01*
X92468571Y-105036904D01*
X92516190Y-105132142D01*
X92516190Y-105513095D01*
X92992380Y-103989285D02*
X92992380Y-104560714D01*
X92992380Y-104275000D02*
X91992380Y-104275000D01*
X92135238Y-104370238D01*
X92230476Y-104465476D01*
X92278095Y-104560714D01*
X84403333Y-97437142D02*
X84355714Y-97484761D01*
X84212857Y-97532380D01*
X84117619Y-97532380D01*
X83974761Y-97484761D01*
X83879523Y-97389523D01*
X83831904Y-97294285D01*
X83784285Y-97103809D01*
X83784285Y-96960952D01*
X83831904Y-96770476D01*
X83879523Y-96675238D01*
X83974761Y-96580000D01*
X84117619Y-96532380D01*
X84212857Y-96532380D01*
X84355714Y-96580000D01*
X84403333Y-96627619D01*
X85355714Y-97532380D02*
X84784285Y-97532380D01*
X85070000Y-97532380D02*
X85070000Y-96532380D01*
X84974761Y-96675238D01*
X84879523Y-96770476D01*
X84784285Y-96818095D01*
D11*
X182796000Y-73677000D02*
X182796000Y-75327000D01*
X88816000Y-64753000D02*
X139736000Y-64753000D01*
X182796000Y-78977000D02*
X200696000Y-78977000D01*
X159428000Y-78977000D02*
X179868000Y-78977000D01*
X112280000Y-79995000D02*
X112280000Y-68595000D01*
X148730000Y-69843000D02*
X192570000Y-69843000D01*
X156500000Y-73677000D02*
X138600000Y-73677000D01*
X91380000Y-80745000D02*
X111530000Y-80745000D01*
X115232000Y-73677000D02*
X115232000Y-75327000D01*
X139736000Y-64753000D02*
X139736000Y-51833000D01*
X138600000Y-78977000D02*
X156500000Y-78977000D01*
X135672000Y-73677000D02*
X115232000Y-73677000D01*
X193464000Y-51833000D02*
X193464000Y-57293000D01*
X159428000Y-73677000D02*
X159428000Y-75327000D01*
X179868000Y-78977000D02*
X179868000Y-73677000D01*
X92626000Y-84709000D02*
X92626000Y-83379000D01*
X139736000Y-51833000D02*
X88816000Y-51833000D01*
X159428000Y-77327000D02*
X159428000Y-78977000D01*
X92626000Y-83379000D02*
X93956000Y-83379000D01*
X88816000Y-59293000D02*
X88816000Y-64753000D01*
X115232000Y-78977000D02*
X135672000Y-78977000D01*
X221524000Y-78977000D02*
X221524000Y-73677000D01*
X193464000Y-64753000D02*
X229144000Y-64753000D01*
X91380000Y-68595000D02*
X91380000Y-80745000D01*
X203624000Y-73677000D02*
X203624000Y-75327000D01*
X95226000Y-83379000D02*
X219686000Y-83379000D01*
X138600000Y-77327000D02*
X138600000Y-78977000D01*
X111530000Y-67845000D02*
X92130000Y-67845000D01*
X95226000Y-86039000D02*
X219686000Y-86039000D01*
X80518000Y-45315000D02*
X231878000Y-45315000D01*
X219686000Y-86039000D02*
X219686000Y-83379000D01*
X141970000Y-46743000D02*
X141970000Y-69843000D01*
X138600000Y-73677000D02*
X138600000Y-75327000D01*
X95226000Y-86039000D02*
X95226000Y-83379000D01*
X203624000Y-77327000D02*
X203624000Y-78977000D01*
X221524000Y-73677000D02*
X203624000Y-73677000D01*
X229144000Y-51833000D02*
X193464000Y-51833000D01*
X141970000Y-69843000D02*
X143830000Y-69843000D01*
X156500000Y-78977000D02*
X156500000Y-73677000D01*
X200696000Y-78977000D02*
X200696000Y-73677000D01*
X192570000Y-46743000D02*
X141970000Y-46743000D01*
X200696000Y-73677000D02*
X182796000Y-73677000D01*
X182796000Y-77327000D02*
X182796000Y-78977000D01*
X234648000Y-48085000D02*
X234672000Y-88543000D01*
X141970000Y-67563000D02*
X144230000Y-67563000D01*
X77748000Y-48085000D02*
X77748000Y-88567000D01*
X115232000Y-77327000D02*
X115232000Y-78977000D01*
X229144000Y-64753000D02*
X229144000Y-51833000D01*
X203624000Y-78977000D02*
X221524000Y-78977000D01*
X193464000Y-59293000D02*
X193464000Y-64753000D01*
X135672000Y-78977000D02*
X135672000Y-73677000D01*
X179868000Y-73677000D02*
X159428000Y-73677000D01*
X192570000Y-69843000D02*
X192570000Y-46743000D01*
X231902000Y-91313000D02*
X80518000Y-91337000D01*
X88816000Y-51833000D02*
X88816000Y-57293000D01*
X182796000Y-77327000D02*
G75*
G03*
X182796000Y-75327000I0J1000000D01*
G01*
X138600000Y-77327000D02*
G75*
G03*
X138600000Y-75327000I0J1000000D01*
G01*
X193464000Y-59293000D02*
G75*
G03*
X193464000Y-57293000I0J1000000D01*
G01*
X159428000Y-77327000D02*
G75*
G03*
X159428000Y-75327000I0J1000000D01*
G01*
X112280000Y-68595000D02*
G75*
G03*
X111530000Y-67845000I-750000J0D01*
G01*
X80518000Y-45315000D02*
G75*
G03*
X77748000Y-48085000I-1J-2769999D01*
G01*
X88816000Y-59293000D02*
G75*
G03*
X88816000Y-57293000I0J1000000D01*
G01*
X92130000Y-67845000D02*
G75*
G03*
X91380000Y-68595000I0J-750000D01*
G01*
X234648000Y-48085000D02*
G75*
G03*
X231878000Y-45315000I-2770000J0D01*
G01*
X203624000Y-77327000D02*
G75*
G03*
X203624000Y-75327000I0J1000000D01*
G01*
X115232000Y-77327000D02*
G75*
G03*
X115232000Y-75327000I0J1000000D01*
G01*
X111530000Y-80745000D02*
G75*
G03*
X112280000Y-79995000I0J750000D01*
G01*
X231902000Y-91313000D02*
G75*
G03*
X234672000Y-88543000I0J2770000D01*
G01*
X77748000Y-88567000D02*
G75*
G03*
X80518000Y-91337000I2769999J-1D01*
G01*
X148830000Y-69113000D02*
G75*
G03*
X148830000Y-69113000I-2550000J0D01*
G01*
X147180000Y-69113000D02*
G75*
G03*
X147180000Y-69113000I-900000J0D01*
G01*
X66139400Y-100360500D02*
X80839400Y-100360500D01*
X80839400Y-100360500D02*
X80839400Y-102960500D01*
X66139400Y-109560500D02*
X66139400Y-100360500D01*
X80839400Y-109560500D02*
X78939400Y-109560500D01*
X79989400Y-100160500D02*
X81039400Y-100160500D01*
X81039400Y-101210500D02*
X81039400Y-100160500D01*
X74939400Y-109560500D02*
X66139400Y-109560500D01*
X80839400Y-106860500D02*
X80839400Y-109560500D01*
X180400000Y-95190000D02*
X180400000Y-96520000D01*
X180400000Y-97790000D02*
X180400000Y-102930000D01*
X177740000Y-97790000D02*
X177740000Y-102930000D01*
X177740000Y-102930000D02*
X180400000Y-102930000D01*
X179070000Y-95190000D02*
X180400000Y-95190000D01*
X177740000Y-97790000D02*
X180400000Y-97790000D01*
X69790000Y-149606000D02*
X69790000Y-148276000D01*
X69790000Y-148276000D02*
X71120000Y-148276000D01*
X72390000Y-150936000D02*
X171510000Y-150936000D01*
X171510000Y-150936000D02*
X171510000Y-148276000D01*
X72390000Y-150936000D02*
X72390000Y-148276000D01*
X72390000Y-148276000D02*
X171510000Y-148276000D01*
X163795000Y-105480000D02*
X166455000Y-105480000D01*
X166455000Y-97800000D02*
X166455000Y-105480000D01*
X165125000Y-95200000D02*
X166455000Y-95200000D01*
X166455000Y-95200000D02*
X166455000Y-96530000D01*
X163795000Y-97800000D02*
X166455000Y-97800000D01*
X163795000Y-97800000D02*
X163795000Y-105480000D01*
X189290000Y-150936000D02*
X189290000Y-148276000D01*
X176530000Y-150936000D02*
X189290000Y-150936000D01*
X176530000Y-148276000D02*
X189290000Y-148276000D01*
X176530000Y-150936000D02*
X176530000Y-148276000D01*
X173930000Y-149606000D02*
X173930000Y-148276000D01*
X173930000Y-148276000D02*
X175260000Y-148276000D01*
X79856000Y-95210000D02*
X79856000Y-92550000D01*
X82456000Y-95210000D02*
X82456000Y-92550000D01*
X79856000Y-92550000D02*
X82456000Y-92550000D01*
X77256000Y-93880000D02*
X77256000Y-92550000D01*
X79856000Y-95210000D02*
X82456000Y-95210000D01*
X77256000Y-92550000D02*
X78586000Y-92550000D01*
X103418892Y-144126392D02*
X103418892Y-123686392D01*
X109040892Y-123686392D02*
X109040892Y-141586392D01*
X132534892Y-123686392D02*
X130884892Y-123686392D01*
X128260892Y-115932392D02*
X128260892Y-113272392D01*
X136184892Y-141586392D02*
X136184892Y-123686392D01*
X130884892Y-141586392D02*
X136184892Y-141586392D01*
D12*
X73819492Y-122730392D02*
X81769492Y-122730392D01*
D11*
X114340892Y-123686392D02*
X112690892Y-123686392D01*
X97720892Y-113272392D02*
X128260892Y-113272392D01*
D12*
X73082892Y-112062392D02*
X147250892Y-112062392D01*
D11*
X136184892Y-123686392D02*
X134534892Y-123686392D01*
D12*
X68509492Y-135430392D02*
X68509492Y-122730392D01*
D11*
X103418892Y-123686392D02*
X101768892Y-123686392D01*
X114340892Y-141586392D02*
X114340892Y-123686392D01*
X119962892Y-141586392D02*
X125262892Y-141586392D01*
X97720892Y-115932392D02*
X97720892Y-113272392D01*
X95120892Y-114602392D02*
X95120892Y-113272392D01*
X92496892Y-144126392D02*
X92496892Y-123686392D01*
D12*
X68510892Y-141780392D02*
X68510892Y-116634392D01*
D11*
X109040892Y-141586392D02*
X114340892Y-141586392D01*
X125262892Y-141586392D02*
X125262892Y-123686392D01*
X125262892Y-123686392D02*
X123612892Y-123686392D01*
X88846892Y-123686392D02*
X87196892Y-123686392D01*
D12*
X81769492Y-135430392D02*
X68509492Y-135430392D01*
X151822892Y-116634392D02*
X151822892Y-141780392D01*
X147250892Y-146352392D02*
X73082892Y-146352392D01*
D11*
X87196892Y-123686392D02*
X87196892Y-144126392D01*
D12*
X68509492Y-122730392D02*
X73819492Y-122730392D01*
D11*
X97720892Y-115932392D02*
X128260892Y-115932392D01*
X121612892Y-123686392D02*
X119962892Y-123686392D01*
X99768892Y-123686392D02*
X98118892Y-123686392D01*
X95120892Y-113272392D02*
X96450892Y-113272392D01*
X110690892Y-123686392D02*
X109040892Y-123686392D01*
X92496892Y-123686392D02*
X90846892Y-123686392D01*
X87196892Y-144126392D02*
X92496892Y-144126392D01*
X119962892Y-123686392D02*
X119962892Y-141586392D01*
X98118892Y-123686392D02*
X98118892Y-144126392D01*
X130884892Y-123686392D02*
X130884892Y-141586392D01*
D12*
X81769492Y-122730392D02*
X81769492Y-135430392D01*
D11*
X98118892Y-144126392D02*
X103418892Y-144126392D01*
X132534892Y-123686392D02*
G75*
G03*
X134534892Y-123686392I1000000J0D01*
G01*
X110690892Y-123686392D02*
G75*
G03*
X112690892Y-123686392I1000000J0D01*
G01*
X88846892Y-123686392D02*
G75*
G03*
X90846892Y-123686392I1000000J0D01*
G01*
X99768892Y-123686392D02*
G75*
G03*
X101768892Y-123686392I1000000J0D01*
G01*
D12*
X147250892Y-146352392D02*
G75*
G03*
X151822892Y-141780392I8J4571992D01*
G01*
D11*
X121612892Y-123686392D02*
G75*
G03*
X123612892Y-123686392I1000000J0D01*
G01*
D12*
X68510892Y-141780392D02*
G75*
G03*
X73082892Y-146352392I4572001J1D01*
G01*
X73082892Y-112062392D02*
G75*
G03*
X68510892Y-116634392I1J-4572001D01*
G01*
X151822908Y-116634392D02*
G75*
G03*
X147250892Y-112062392I-4572008J-8D01*
G01*
D11*
X193633000Y-95210000D02*
X193633000Y-96540000D01*
X190973000Y-97810000D02*
X193633000Y-97810000D01*
X192303000Y-95210000D02*
X193633000Y-95210000D01*
X190973000Y-100410000D02*
X193633000Y-100410000D01*
X193633000Y-97810000D02*
X193633000Y-100410000D01*
X190973000Y-97810000D02*
X190973000Y-100410000D01*
X147380000Y-95140000D02*
X96460000Y-95140000D01*
X147380000Y-108060000D02*
X147380000Y-95140000D01*
X96460000Y-102600000D02*
X96460000Y-108060000D01*
X96460000Y-95140000D02*
X96460000Y-100600000D01*
X96460000Y-108060000D02*
X147380000Y-108060000D01*
X96460000Y-102600000D02*
G75*
G03*
X96460000Y-100600000I0J1000000D01*
G01*
X151230000Y-109300000D02*
X151230000Y-104060000D01*
X150915000Y-104060000D02*
X151230000Y-104060000D01*
X150915000Y-109300000D02*
X151230000Y-109300000D01*
X148490000Y-109300000D02*
X148805000Y-109300000D01*
X148490000Y-109300000D02*
X148490000Y-104060000D01*
X148490000Y-104060000D02*
X148805000Y-104060000D01*
X194310000Y-148276000D02*
X232470000Y-148276000D01*
X191710000Y-148276000D02*
X193040000Y-148276000D01*
X194310000Y-150936000D02*
X232470000Y-150936000D01*
X191710000Y-149606000D02*
X191710000Y-148276000D01*
X194310000Y-150936000D02*
X194310000Y-148276000D01*
X232470000Y-150936000D02*
X232470000Y-148276000D01*
X233434000Y-146162000D02*
X233434000Y-109882000D01*
X153154000Y-146162000D02*
X233434000Y-146162000D01*
X229294000Y-140522000D02*
X156294000Y-140522000D01*
X161494000Y-120522000D02*
X224994000Y-120522000D01*
X156294000Y-140522000D02*
X156294000Y-115522000D01*
X233434000Y-109882000D02*
X153954000Y-109882000D01*
X224994660Y-135522000D02*
X161494000Y-135522000D01*
X153164000Y-109882000D02*
X153954000Y-109882000D01*
X153154000Y-109882000D02*
X153154000Y-146162000D01*
X225494000Y-121022000D02*
X225494000Y-135022000D01*
X160994280Y-135021320D02*
X160994280Y-121022000D01*
X156294000Y-115522000D02*
X229294000Y-115522000D01*
X159794000Y-109522000D02*
X162794000Y-109522000D01*
X229294000Y-115522000D02*
X229294000Y-140522000D01*
X161494660Y-120520460D02*
G75*
G03*
X160994280Y-121020840I0J-500380D01*
G01*
X224994660Y-135521740D02*
G75*
G03*
X225495040Y-135021320I-60J500440D01*
G01*
X160994280Y-135021320D02*
G75*
G03*
X161494660Y-135521700I500380J0D01*
G01*
X225494000Y-121022000D02*
G75*
G03*
X224994000Y-120522000I-500000J0D01*
G01*
X229680000Y-104943000D02*
G75*
G03*
X229680000Y-104943000I-3620000J0D01*
G01*
D10*
X72390000Y-98985000D02*
X70390000Y-98985000D01*
X74390000Y-98985000D02*
X73490000Y-98985000D01*
X71715000Y-99735000D02*
G75*
G03*
X71640000Y-98310000I675000J750000D01*
G01*
D13*
X72565000Y-98985000D02*
G75*
G03*
X72565000Y-98985000I-175000J0D01*
G01*
D10*
X70315000Y-98985000D02*
G75*
G03*
X70315000Y-98985000I-925000J0D01*
G01*
X76315000Y-98985000D02*
G75*
G03*
X76315000Y-98985000I-925000J0D01*
G01*
D11*
X88922000Y-98588000D02*
X89078000Y-98588000D01*
X91238000Y-98588000D02*
X91394000Y-98588000D01*
X89078163Y-95986870D02*
G75*
G03*
X89078000Y-98068961I1079837J-1041130D01*
G01*
X91393516Y-98588000D02*
G75*
G03*
X91236608Y-95355665I-1235516J1560000D01*
G01*
X89079392Y-95355665D02*
G75*
G03*
X88922484Y-98588000I1078608J-1672335D01*
G01*
X91238000Y-98068961D02*
G75*
G03*
X91237837Y-95986870I-1080000J1040961D01*
G01*
X91210000Y-101505000D02*
X91540000Y-101505000D01*
X91540000Y-108045000D02*
X91210000Y-108045000D01*
X91540000Y-101505000D02*
X91540000Y-108045000D01*
X88800000Y-108045000D02*
X89130000Y-108045000D01*
X89130000Y-101505000D02*
X88800000Y-101505000D01*
X88800000Y-101505000D02*
X88800000Y-108045000D01*
X84610000Y-101170000D02*
X84610000Y-102410000D01*
X84930000Y-101170000D02*
X84930000Y-102380000D01*
X85651000Y-98545000D02*
X85651000Y-99490000D01*
X84730000Y-101170000D02*
X84730000Y-102404000D01*
X85250000Y-98362000D02*
X85250000Y-99490000D01*
X85050000Y-98305000D02*
X85050000Y-99490000D01*
X85851000Y-98680000D02*
X85851000Y-99490000D01*
X85771000Y-98622000D02*
X85771000Y-99490000D01*
X85170000Y-98336000D02*
X85170000Y-99490000D01*
X85691000Y-101170000D02*
X85691000Y-102090000D01*
X86571000Y-99666000D02*
X86571000Y-100994000D01*
X86091000Y-101170000D02*
X86091000Y-101768000D01*
X85371000Y-98406000D02*
X85371000Y-99490000D01*
X84650000Y-101170000D02*
X84650000Y-102409000D01*
X84850000Y-101170000D02*
X84850000Y-102392000D01*
X84570000Y-98250000D02*
X84570000Y-99490000D01*
X84890000Y-101170000D02*
X84890000Y-102386000D01*
X86011000Y-101170000D02*
X86011000Y-101846000D01*
X84810000Y-101170000D02*
X84810000Y-102397000D01*
X85891000Y-101170000D02*
X85891000Y-101949000D01*
X85611000Y-101170000D02*
X85611000Y-102138000D01*
X86331000Y-99188000D02*
X86331000Y-101472000D01*
X85491000Y-98460000D02*
X85491000Y-99490000D01*
X84610000Y-98250000D02*
X84610000Y-99490000D01*
X86451000Y-99390000D02*
X86451000Y-101270000D01*
X85371000Y-101170000D02*
X85371000Y-102254000D01*
X85411000Y-101170000D02*
X85411000Y-102237000D01*
X85571000Y-98500000D02*
X85571000Y-99490000D01*
X82300199Y-99135000D02*
X82700199Y-99135000D01*
X84970000Y-98288000D02*
X84970000Y-99490000D01*
X85771000Y-101170000D02*
X85771000Y-102038000D01*
X85811000Y-98650000D02*
X85811000Y-99490000D01*
X85130000Y-98325000D02*
X85130000Y-99490000D01*
X86091000Y-98892000D02*
X86091000Y-99490000D01*
X85531000Y-101170000D02*
X85531000Y-102181000D01*
X85811000Y-101170000D02*
X85811000Y-102010000D01*
X84970000Y-101170000D02*
X84970000Y-102372000D01*
X86051000Y-101170000D02*
X86051000Y-101808000D01*
X84770000Y-98259000D02*
X84770000Y-99490000D01*
X85731000Y-98595000D02*
X85731000Y-99490000D01*
X85010000Y-98296000D02*
X85010000Y-99490000D01*
X85731000Y-101170000D02*
X85731000Y-102065000D01*
X85050000Y-101170000D02*
X85050000Y-102355000D01*
X85971000Y-98778000D02*
X85971000Y-99490000D01*
X86051000Y-98852000D02*
X86051000Y-99490000D01*
X86611000Y-99793000D02*
X86611000Y-100867000D01*
X85531000Y-98479000D02*
X85531000Y-99490000D01*
X85851000Y-101170000D02*
X85851000Y-101980000D01*
X86131000Y-101170000D02*
X86131000Y-101726000D01*
X85971000Y-101170000D02*
X85971000Y-101882000D01*
X86011000Y-98814000D02*
X86011000Y-99490000D01*
X85491000Y-101170000D02*
X85491000Y-102200000D01*
X86291000Y-99130000D02*
X86291000Y-101530000D01*
X85451000Y-101170000D02*
X85451000Y-102219000D01*
X84690000Y-98253000D02*
X84690000Y-99490000D01*
X86131000Y-98934000D02*
X86131000Y-99490000D01*
X85571000Y-101170000D02*
X85571000Y-102160000D01*
X86651000Y-99960000D02*
X86651000Y-100700000D01*
X84650000Y-98251000D02*
X84650000Y-99490000D01*
X86531000Y-99562000D02*
X86531000Y-101098000D01*
X85331000Y-101170000D02*
X85331000Y-102270000D01*
X86171000Y-98979000D02*
X86171000Y-101681000D01*
X85170000Y-101170000D02*
X85170000Y-102324000D01*
X84810000Y-98263000D02*
X84810000Y-99490000D01*
X85130000Y-101170000D02*
X85130000Y-102335000D01*
X85090000Y-98314000D02*
X85090000Y-99490000D01*
X85210000Y-98348000D02*
X85210000Y-99490000D01*
X86251000Y-99076000D02*
X86251000Y-101584000D01*
X85250000Y-101170000D02*
X85250000Y-102298000D01*
X84770000Y-101170000D02*
X84770000Y-102401000D01*
X86411000Y-99317000D02*
X86411000Y-101343000D01*
X85651000Y-101170000D02*
X85651000Y-102115000D01*
X84930000Y-98280000D02*
X84930000Y-99490000D01*
X85931000Y-98743000D02*
X85931000Y-99490000D01*
X85691000Y-98570000D02*
X85691000Y-99490000D01*
X86371000Y-99250000D02*
X86371000Y-101410000D01*
X84890000Y-98274000D02*
X84890000Y-99490000D01*
X85931000Y-101170000D02*
X85931000Y-101917000D01*
X85090000Y-101170000D02*
X85090000Y-102346000D01*
X85010000Y-101170000D02*
X85010000Y-102364000D01*
X85891000Y-98711000D02*
X85891000Y-99490000D01*
X85291000Y-98376000D02*
X85291000Y-99490000D01*
X85611000Y-98522000D02*
X85611000Y-99490000D01*
X86491000Y-99471000D02*
X86491000Y-101189000D01*
X84850000Y-98268000D02*
X84850000Y-99490000D01*
X85411000Y-98423000D02*
X85411000Y-99490000D01*
X86211000Y-99026000D02*
X86211000Y-101634000D01*
X84730000Y-98256000D02*
X84730000Y-99490000D01*
X85210000Y-101170000D02*
X85210000Y-102312000D01*
X82500199Y-98935000D02*
X82500199Y-99335000D01*
X85451000Y-98441000D02*
X85451000Y-99490000D01*
X84690000Y-101170000D02*
X84690000Y-102407000D01*
X85331000Y-98390000D02*
X85331000Y-99490000D01*
X84570000Y-101170000D02*
X84570000Y-102410000D01*
X85291000Y-101170000D02*
X85291000Y-102284000D01*
X86690000Y-100330000D02*
G75*
G03*
X86690000Y-100330000I-2120000J0D01*
G01*
%LPC*%
D14*
X80748000Y-88265000D03*
X231624000Y-88265000D03*
X80748000Y-48387000D03*
X231624000Y-48387000D03*
D15*
X93956000Y-84709000D03*
D16*
X96496000Y-84709000D03*
X99036000Y-84709000D03*
X101576000Y-84709000D03*
X104116000Y-84709000D03*
X106656000Y-84709000D03*
X109196000Y-84709000D03*
X111736000Y-84709000D03*
X114276000Y-84709000D03*
X116816000Y-84709000D03*
X119356000Y-84709000D03*
X121896000Y-84709000D03*
X124436000Y-84709000D03*
X126976000Y-84709000D03*
X129516000Y-84709000D03*
X132056000Y-84709000D03*
X134596000Y-84709000D03*
X137136000Y-84709000D03*
X139676000Y-84709000D03*
X142216000Y-84709000D03*
X144756000Y-84709000D03*
X147296000Y-84709000D03*
X149836000Y-84709000D03*
X152376000Y-84709000D03*
X154916000Y-84709000D03*
X157456000Y-84709000D03*
X159996000Y-84709000D03*
X162536000Y-84709000D03*
X165076000Y-84709000D03*
X167616000Y-84709000D03*
X170156000Y-84709000D03*
X172696000Y-84709000D03*
X175236000Y-84709000D03*
X177776000Y-84709000D03*
X180316000Y-84709000D03*
X182856000Y-84709000D03*
X185396000Y-84709000D03*
X187936000Y-84709000D03*
X190476000Y-84709000D03*
X193016000Y-84709000D03*
X195556000Y-84709000D03*
X198096000Y-84709000D03*
X200636000Y-84709000D03*
X203176000Y-84709000D03*
X205716000Y-84709000D03*
X208256000Y-84709000D03*
X210796000Y-84709000D03*
X213336000Y-84709000D03*
X215876000Y-84709000D03*
X218416000Y-84709000D03*
D17*
X79939400Y-104960500D03*
D18*
X73939400Y-104960500D03*
D19*
X76939400Y-109660500D03*
D15*
X179070000Y-96520000D03*
D16*
X179070000Y-99060000D03*
X179070000Y-101600000D03*
D15*
X71120000Y-149606000D03*
D16*
X73660000Y-149606000D03*
X76200000Y-149606000D03*
X78740000Y-149606000D03*
X81280000Y-149606000D03*
X83820000Y-149606000D03*
X86360000Y-149606000D03*
X88900000Y-149606000D03*
X91440000Y-149606000D03*
X93980000Y-149606000D03*
X96520000Y-149606000D03*
X99060000Y-149606000D03*
X101600000Y-149606000D03*
X104140000Y-149606000D03*
X106680000Y-149606000D03*
X109220000Y-149606000D03*
X111760000Y-149606000D03*
X114300000Y-149606000D03*
X116840000Y-149606000D03*
X119380000Y-149606000D03*
X121920000Y-149606000D03*
X124460000Y-149606000D03*
X127000000Y-149606000D03*
X129540000Y-149606000D03*
X132080000Y-149606000D03*
X134620000Y-149606000D03*
X137160000Y-149606000D03*
X139700000Y-149606000D03*
X142240000Y-149606000D03*
X144780000Y-149606000D03*
X147320000Y-149606000D03*
X149860000Y-149606000D03*
X152400000Y-149606000D03*
X154940000Y-149606000D03*
X157480000Y-149606000D03*
X160020000Y-149606000D03*
X162560000Y-149606000D03*
X165100000Y-149606000D03*
X167640000Y-149606000D03*
X170180000Y-149606000D03*
D15*
X165125000Y-96530000D03*
D16*
X165125000Y-99070000D03*
X165125000Y-101610000D03*
X165125000Y-104150000D03*
D15*
X175260000Y-149606000D03*
D16*
X177800000Y-149606000D03*
X180340000Y-149606000D03*
X182880000Y-149606000D03*
X185420000Y-149606000D03*
X187960000Y-149606000D03*
D15*
X78586000Y-93880000D03*
D16*
X81126000Y-93880000D03*
D20*
X72828892Y-142034392D03*
X147504892Y-142034392D03*
X147504892Y-116380392D03*
X72828892Y-116380392D03*
D15*
X96450892Y-114602392D03*
D16*
X98990892Y-114602392D03*
D21*
X101530892Y-114602392D03*
X104070892Y-114602392D03*
D16*
X106610892Y-114602392D03*
D22*
X109150892Y-114602392D03*
X111690892Y-114602392D03*
X114230892Y-114602392D03*
X116770892Y-114602392D03*
X119310892Y-114602392D03*
D16*
X121850892Y-114602392D03*
X124390892Y-114602392D03*
X126930892Y-114602392D03*
D15*
X71120000Y-93980000D03*
D16*
X68580000Y-93980000D03*
X71120000Y-91440000D03*
X68580000Y-91440000D03*
X71120000Y-88900000D03*
X68580000Y-88900000D03*
X71120000Y-86360000D03*
X68580000Y-86360000D03*
X71120000Y-83820000D03*
X68580000Y-83820000D03*
X71120000Y-81280000D03*
X68580000Y-81280000D03*
X71120000Y-78740000D03*
X68580000Y-78740000D03*
X71120000Y-76200000D03*
X68580000Y-76200000D03*
X71120000Y-73660000D03*
X68580000Y-73660000D03*
X71120000Y-71120000D03*
X68580000Y-71120000D03*
X71120000Y-68580000D03*
X68580000Y-68580000D03*
X71120000Y-66040000D03*
X68580000Y-66040000D03*
X71120000Y-63500000D03*
X68580000Y-63500000D03*
X71120000Y-60960000D03*
X68580000Y-60960000D03*
X71120000Y-58420000D03*
X68580000Y-58420000D03*
X71120000Y-55880000D03*
X68580000Y-55880000D03*
X71120000Y-53340000D03*
X68580000Y-53340000D03*
X71120000Y-50800000D03*
X68580000Y-50800000D03*
D15*
X192303000Y-96540000D03*
D16*
X192303000Y-99080000D03*
D23*
X97790000Y-109220000D03*
D24*
X100330000Y-109220000D03*
X102870000Y-109220000D03*
X105410000Y-109220000D03*
X107950000Y-109220000D03*
D25*
X110490000Y-109220000D03*
X113030000Y-109220000D03*
X115570000Y-109220000D03*
D24*
X118110000Y-109220000D03*
X120650000Y-109220000D03*
X123190000Y-109220000D03*
X125730000Y-109220000D03*
X128270000Y-109220000D03*
X130810000Y-109220000D03*
X133350000Y-109220000D03*
X135890000Y-109220000D03*
X138430000Y-109220000D03*
X140970000Y-109220000D03*
X143510000Y-109220000D03*
X146050000Y-109220000D03*
X146050000Y-93980000D03*
X143510000Y-93980000D03*
X140970000Y-93980000D03*
D25*
X138430000Y-93980000D03*
X135890000Y-93980000D03*
X133350000Y-93980000D03*
D24*
X130810000Y-93980000D03*
X128270000Y-93980000D03*
X125730000Y-93980000D03*
X123190000Y-93980000D03*
X120650000Y-93980000D03*
X118110000Y-93980000D03*
X115570000Y-93980000D03*
X113030000Y-93980000D03*
X110490000Y-93980000D03*
X107950000Y-93980000D03*
X105410000Y-93980000D03*
X102870000Y-93980000D03*
X100330000Y-93980000D03*
X97790000Y-93980000D03*
D26*
X149860000Y-109180000D03*
X149860000Y-104180000D03*
D15*
X193040000Y-149606000D03*
D16*
X195580000Y-149606000D03*
X198120000Y-149606000D03*
X200660000Y-149606000D03*
X203200000Y-149606000D03*
X205740000Y-149606000D03*
X208280000Y-149606000D03*
X210820000Y-149606000D03*
X213360000Y-149606000D03*
X215900000Y-149606000D03*
X218440000Y-149606000D03*
X220980000Y-149606000D03*
X223520000Y-149606000D03*
X226060000Y-149606000D03*
X228600000Y-149606000D03*
X231140000Y-149606000D03*
D27*
X230793480Y-143522700D03*
X230794000Y-112522000D03*
X155794900Y-112522000D03*
X155794900Y-143522700D03*
D28*
X161294000Y-112522000D03*
D29*
X163834000Y-112522000D03*
X166374000Y-112522000D03*
X168914000Y-112522000D03*
X171454000Y-112522000D03*
X173994000Y-112522000D03*
X176534000Y-112522000D03*
X179074000Y-112522000D03*
X181614000Y-112522000D03*
X184154000Y-112522000D03*
X186694000Y-112522000D03*
X189234000Y-112522000D03*
X191774000Y-112522000D03*
X194314000Y-112522000D03*
X196854000Y-112522000D03*
X199394000Y-112522000D03*
D30*
X228600000Y-104902000D03*
X226060000Y-102362000D03*
X223520000Y-104902000D03*
D31*
X90158000Y-98298000D03*
D32*
X90158000Y-95758000D03*
D26*
X90170000Y-100965000D03*
D24*
X90170000Y-108585000D03*
D33*
X83820000Y-100330000D03*
D34*
X85320000Y-100330000D03*
M02*
