M48
; DRILL file {KiCad (6.0.11-0)} date 2023 June 10, Saturday 21:55:54
; FORMAT={-:-/ absolute / metric / decimal}
; #@! TF.CreationDate,2023-06-10T21:55:54+02:00
; #@! TF.GenerationSoftware,Kicad,Pcbnew,(6.0.11-0)
; #@! TF.FileFunction,Plated,1,2,PTH
FMAT,2
METRIC
; #@! TA.AperFunction,Plated,PTH,ViaDrill
T1C0.300
; #@! TA.AperFunction,Plated,PTH,ViaDrill
T2C0.400
; #@! TA.AperFunction,Plated,PTH,ComponentDrill
T3C0.600
; #@! TA.AperFunction,Plated,PTH,ComponentDrill
T4C0.787
; #@! TA.AperFunction,Plated,PTH,ComponentDrill
T5C0.800
; #@! TA.AperFunction,Plated,PTH,ComponentDrill
T6C0.900
; #@! TA.AperFunction,Plated,PTH,ComponentDrill
T7C1.000
; #@! TA.AperFunction,Plated,PTH,ComponentDrill
T8C1.200
; #@! TA.AperFunction,Plated,PTH,ComponentDrill
T9C2.500
%
G90
G05
T1
X73.161Y-81.998
X73.422Y-87.328
X73.428Y-84.105
X73.66Y-90.424
X75.184Y-76.2
X76.073Y-76.581
X78.486Y-75.184
X78.496Y-56.947
X78.951Y-74.518
X79.756Y-75.946
X79.832Y-62.179
X80.274Y-61.404
X80.651Y-75.251
X82.662Y-77.04
X83.245Y-76.239
X84.582Y-64.795
X85.304Y-64.329
X88.138Y-72.898
X88.283Y-101.786
X88.875Y-67.191
X89.179Y-102.627
X89.186Y-66.394
X89.552Y-72.155
X91.592Y-65.964
X92.227Y-65.261
X92.456Y-94.691
X102.006Y-127.229
X104.394Y-72.39
X104.557Y-104.766
X106.934Y-62.484
X107.544Y-105.181
X113.072Y-137.417
X113.259Y-136.5
X114.14Y-139.456
X115.749Y-135.802
X116.205Y-142.443
X116.916Y-134.925
X117.704Y-144.12
X118.085Y-134.341
X118.43Y-97.739
X119.177Y-133.706
X119.24Y-98.73
X119.999Y-99.515
X120.619Y-133.212
X124.886Y-97.353
X126.943Y-97.504
X127.571Y-111.384
X127.916Y-112.194
X127.973Y-113.274
X128.689Y-106.486
X129.667Y-132.766
X129.724Y-97.467
X133.172Y-142.596
X133.68Y-141.173
X133.756Y-125.019
X134.137Y-143.84
X134.563Y-139.77
X134.846Y-104.281
X135.245Y-144.956
X135.255Y-138.455
X136.246Y-125.882
X136.373Y-137.566
X137.566Y-145.938
X137.768Y-131.995
X138.866Y-126.598
X139.65Y-131.328
X140.934Y-129.363
X141.354Y-130.662
X142.204Y-130.814
X143.671Y-130.399
X165.71Y-90.018
X167.767Y-89.687
X168.351Y-92.939
X169.291Y-89.052
X169.697Y-108.306
X171.574Y-105.27
X173.181Y-106.034
X174.378Y-107.091
X175.393Y-103.131
X175.744Y-104.293
X176.691Y-64.372
X177.164Y-66.535
X178.943Y-89.865
X180.322Y-89.293
X180.966Y-88.584
X186.385Y-121.575
X188.337Y-122.202
X190.516Y-122.895
X192.262Y-123.55
X193.87Y-124.176
X195.372Y-124.787
X197.212Y-125.343
X198.831Y-125.959
T2
X83.82Y-106.934
X83.947Y-91.059
X145.288Y-106.172
X150.876Y-99.06
X172.466Y-97.536
X176.737Y-109.172
X186.541Y-138.966
T3
X83.82Y-100.33
X85.32Y-100.33
T4
X101.531Y-114.602
X104.071Y-114.602
X109.151Y-114.602
X111.691Y-114.602
X114.231Y-114.602
X116.771Y-114.602
X119.311Y-114.602
T5
X90.17Y-100.965
X90.17Y-108.585
X97.79Y-93.98
X97.79Y-109.22
X100.33Y-93.98
X100.33Y-109.22
X102.87Y-93.98
X102.87Y-109.22
X105.41Y-93.98
X105.41Y-109.22
X107.95Y-93.98
X107.95Y-109.22
X110.49Y-93.98
X110.49Y-109.22
X113.03Y-93.98
X113.03Y-109.22
X115.57Y-93.98
X115.57Y-109.22
X118.11Y-93.98
X118.11Y-109.22
X120.65Y-93.98
X120.65Y-109.22
X123.19Y-93.98
X123.19Y-109.22
X125.73Y-93.98
X125.73Y-109.22
X128.27Y-93.98
X128.27Y-109.22
X130.81Y-93.98
X130.81Y-109.22
X133.35Y-93.98
X133.35Y-109.22
X135.89Y-93.98
X135.89Y-109.22
X138.43Y-93.98
X138.43Y-109.22
X140.97Y-93.98
X140.97Y-109.22
X143.51Y-93.98
X143.51Y-109.22
X146.05Y-93.98
X146.05Y-109.22
X149.86Y-104.18
X149.86Y-109.18
X223.52Y-104.902
X226.06Y-102.362
X228.6Y-104.902
T6
X90.158Y-95.758
X90.158Y-98.298
T7
X68.58Y-50.8
X68.58Y-53.34
X68.58Y-55.88
X68.58Y-58.42
X68.58Y-60.96
X68.58Y-63.5
X68.58Y-66.04
X68.58Y-68.58
X68.58Y-71.12
X68.58Y-73.66
X68.58Y-76.2
X68.58Y-78.74
X68.58Y-81.28
X68.58Y-83.82
X68.58Y-86.36
X68.58Y-88.9
X68.58Y-91.44
X68.58Y-93.98
X71.12Y-50.8
X71.12Y-53.34
X71.12Y-55.88
X71.12Y-58.42
X71.12Y-60.96
X71.12Y-63.5
X71.12Y-66.04
X71.12Y-68.58
X71.12Y-71.12
X71.12Y-73.66
X71.12Y-76.2
X71.12Y-78.74
X71.12Y-81.28
X71.12Y-83.82
X71.12Y-86.36
X71.12Y-88.9
X71.12Y-91.44
X71.12Y-93.98
X71.12Y-149.606
X73.66Y-149.606
X76.2Y-149.606
X78.586Y-93.88
X78.74Y-149.606
X81.126Y-93.88
X81.28Y-149.606
X83.82Y-149.606
X86.36Y-149.606
X88.9Y-149.606
X91.44Y-149.606
X93.956Y-84.709
X93.98Y-149.606
X96.451Y-114.602
X96.496Y-84.709
X96.52Y-149.606
X98.991Y-114.602
X99.036Y-84.709
X99.06Y-149.606
X101.576Y-84.709
X101.6Y-149.606
X104.116Y-84.709
X104.14Y-149.606
X106.611Y-114.602
X106.656Y-84.709
X106.68Y-149.606
X109.196Y-84.709
X109.22Y-149.606
X111.736Y-84.709
X111.76Y-149.606
X114.276Y-84.709
X114.3Y-149.606
X116.816Y-84.709
X116.84Y-149.606
X119.356Y-84.709
X119.38Y-149.606
X121.851Y-114.602
X121.896Y-84.709
X121.92Y-149.606
X124.391Y-114.602
X124.436Y-84.709
X124.46Y-149.606
X126.931Y-114.602
X126.976Y-84.709
X127.0Y-149.606
X129.516Y-84.709
X129.54Y-149.606
X132.056Y-84.709
X132.08Y-149.606
X134.596Y-84.709
X134.62Y-149.606
X137.136Y-84.709
X137.16Y-149.606
X139.676Y-84.709
X139.7Y-149.606
X142.216Y-84.709
X142.24Y-149.606
X144.756Y-84.709
X144.78Y-149.606
X147.296Y-84.709
X147.32Y-149.606
X149.836Y-84.709
X149.86Y-149.606
X152.376Y-84.709
X152.4Y-149.606
X154.916Y-84.709
X154.94Y-149.606
X157.456Y-84.709
X157.48Y-149.606
X159.996Y-84.709
X160.02Y-149.606
X162.536Y-84.709
X162.56Y-149.606
X165.076Y-84.709
X165.1Y-149.606
X165.125Y-96.53
X165.125Y-99.07
X165.125Y-101.61
X165.125Y-104.15
X167.616Y-84.709
X167.64Y-149.606
X170.156Y-84.709
X170.18Y-149.606
X172.696Y-84.709
X175.236Y-84.709
X175.26Y-149.606
X177.776Y-84.709
X177.8Y-149.606
X179.07Y-96.52
X179.07Y-99.06
X179.07Y-101.6
X180.316Y-84.709
X180.34Y-149.606
X182.856Y-84.709
X182.88Y-149.606
X185.396Y-84.709
X185.42Y-149.606
X187.936Y-84.709
X187.96Y-149.606
X190.476Y-84.709
X192.303Y-96.54
X192.303Y-99.08
X193.016Y-84.709
X193.04Y-149.606
X195.556Y-84.709
X195.58Y-149.606
X198.096Y-84.709
X198.12Y-149.606
X200.636Y-84.709
X200.66Y-149.606
X203.176Y-84.709
X203.2Y-149.606
X205.716Y-84.709
X205.74Y-149.606
X208.256Y-84.709
X208.28Y-149.606
X210.796Y-84.709
X210.82Y-149.606
X213.336Y-84.709
X213.36Y-149.606
X215.876Y-84.709
X215.9Y-149.606
X218.416Y-84.709
X218.44Y-149.606
X220.98Y-149.606
X223.52Y-149.606
X226.06Y-149.606
X228.6Y-149.606
X231.14Y-149.606
T8
X161.294Y-112.522
X163.834Y-112.522
X166.374Y-112.522
X168.914Y-112.522
X171.454Y-112.522
X173.994Y-112.522
X176.534Y-112.522
X179.074Y-112.522
X181.614Y-112.522
X184.154Y-112.522
X186.694Y-112.522
X189.234Y-112.522
X191.774Y-112.522
X194.314Y-112.522
X196.854Y-112.522
X199.394Y-112.522
T9
X155.795Y-112.522
X155.795Y-143.523
X230.793Y-143.523
X230.794Y-112.522
T7
X73.939Y-103.96G85X73.939Y-105.96
G05
X75.939Y-109.66G85X77.939Y-109.66
G05
X79.939Y-103.96G85X79.939Y-105.96
G05
T0
M30
