%TF.GenerationSoftware,KiCad,Pcbnew,(6.0.7-1)-1*%
%TF.CreationDate,2023-01-31T16:53:27+01:00*%
%TF.ProjectId,6502_computer,36353032-5f63-46f6-9d70-757465722e6b,REV*%
%TF.SameCoordinates,Original*%
%TF.FileFunction,Drillmap*%
%TF.FilePolarity,Positive*%
%FSLAX45Y45*%
G04 Gerber Fmt 4.5, Leading zero omitted, Abs format (unit mm)*
G04 Created by KiCad (PCBNEW (6.0.7-1)-1) date 2023-01-31 16:53:27*
%MOMM*%
%LPD*%
G01*
G04 APERTURE LIST*
%ADD10C,0.100000*%
%ADD11C,0.200000*%
%ADD12C,0.030000*%
%ADD13C,0.040000*%
%ADD14C,0.060000*%
%ADD15C,0.078740*%
%ADD16C,0.080000*%
%ADD17C,0.090000*%
%ADD18C,0.120000*%
%ADD19C,0.250000*%
G04 APERTURE END LIST*
D10*
X23050500Y-15544800D02*
X7112000Y-15544800D01*
X6604000Y-15036800D02*
X6604000Y-4953000D01*
X23558500Y-4953000D02*
G75*
G03*
X23050500Y-4445000I-497150J10850D01*
G01*
X6604000Y-15036800D02*
G75*
G03*
X7112000Y-15544800I508000J0D01*
G01*
X7112000Y-4445000D02*
G75*
G03*
X6604000Y-4953000I0J-508000D01*
G01*
X23050500Y-15544800D02*
G75*
G03*
X23558500Y-15036800I0J508000D01*
G01*
X7112000Y-4445000D02*
X23050500Y-4445000D01*
X23558500Y-4953000D02*
X23558500Y-15036800D01*
D11*
D12*
X6716000Y-9764000D02*
X6746000Y-9794000D01*
X6746000Y-9764000D02*
X6716000Y-9794000D01*
X6868400Y-15123400D02*
X6898400Y-15153400D01*
X6898400Y-15123400D02*
X6868400Y-15153400D01*
X6944600Y-10703800D02*
X6974600Y-10733800D01*
X6974600Y-10703800D02*
X6944600Y-10733800D01*
X7224000Y-12583400D02*
X7254000Y-12613400D01*
X7254000Y-12583400D02*
X7224000Y-12613400D01*
X7300200Y-7097000D02*
X7330200Y-7127000D01*
X7330200Y-7097000D02*
X7300200Y-7127000D01*
X7351000Y-4811000D02*
X7381000Y-4841000D01*
X7381000Y-4811000D02*
X7351000Y-4841000D01*
X7427200Y-13269200D02*
X7457200Y-13299200D01*
X7457200Y-13269200D02*
X7427200Y-13299200D01*
X7447520Y-6004800D02*
X7477520Y-6034800D01*
X7477520Y-6004800D02*
X7447520Y-6034800D01*
X7478000Y-9586200D02*
X7508000Y-9616200D01*
X7508000Y-9586200D02*
X7478000Y-9616200D01*
X7528800Y-5141200D02*
X7558800Y-5171200D01*
X7558800Y-5141200D02*
X7528800Y-5171200D01*
X7528800Y-8976600D02*
X7558800Y-9006600D01*
X7558800Y-8976600D02*
X7528800Y-9006600D01*
X7528800Y-15402800D02*
X7558800Y-15432800D01*
X7558800Y-15402800D02*
X7528800Y-15432800D01*
X7544040Y-6012420D02*
X7574040Y-6042420D01*
X7574040Y-6012420D02*
X7544040Y-6042420D01*
X7589230Y-7786722D02*
X7619230Y-7816722D01*
X7619230Y-7786722D02*
X7589230Y-7816722D01*
X7593122Y-8012934D02*
X7623122Y-8042934D01*
X7623122Y-8012934D02*
X7593122Y-8042934D01*
X7597467Y-7873135D02*
X7627467Y-7903135D01*
X7627467Y-7873135D02*
X7597467Y-7903135D01*
X7606838Y-8110818D02*
X7636838Y-8140818D01*
X7636838Y-8110818D02*
X7606838Y-8140818D01*
X7615549Y-8249050D02*
X7645549Y-8279050D01*
X7645549Y-8249050D02*
X7615549Y-8279050D01*
X7622780Y-8354300D02*
X7652780Y-8384300D01*
X7652780Y-8354300D02*
X7622780Y-8384300D01*
X7631418Y-8506320D02*
X7661418Y-8536320D01*
X7661418Y-8506320D02*
X7631418Y-8536320D01*
X7632940Y-8593060D02*
X7662940Y-8623060D01*
X7662940Y-8593060D02*
X7632940Y-8623060D01*
X7668500Y-7818360D02*
X7698500Y-7848360D01*
X7698500Y-7818360D02*
X7668500Y-7848360D01*
X7671040Y-8047769D02*
X7701040Y-8077769D01*
X7701040Y-8047769D02*
X7671040Y-8077769D01*
X7681200Y-10475200D02*
X7711200Y-10505200D01*
X7711200Y-10475200D02*
X7681200Y-10505200D01*
X7691360Y-8288260D02*
X7721360Y-8318260D01*
X7721360Y-8288260D02*
X7691360Y-8318260D01*
X7714220Y-8527020D02*
X7744220Y-8557020D01*
X7744220Y-8527020D02*
X7714220Y-8557020D01*
X7732000Y-10145000D02*
X7762000Y-10175000D01*
X7762000Y-10145000D02*
X7732000Y-10175000D01*
X7744700Y-7684549D02*
X7774700Y-7714549D01*
X7774700Y-7684549D02*
X7744700Y-7714549D01*
X7757400Y-13853400D02*
X7787400Y-13883400D01*
X7787400Y-13853400D02*
X7757400Y-13883400D01*
X7833600Y-5928600D02*
X7863600Y-5958600D01*
X7863600Y-5928600D02*
X7833600Y-5958600D01*
X7834610Y-5679725D02*
X7864610Y-5709725D01*
X7864610Y-5679725D02*
X7834610Y-5709725D01*
X7848840Y-7688820D02*
X7878840Y-7718820D01*
X7878840Y-7688820D02*
X7848840Y-7718820D01*
X7859000Y-9916400D02*
X7889000Y-9946400D01*
X7889000Y-9916400D02*
X7859000Y-9946400D01*
X7909800Y-11669000D02*
X7939800Y-11699000D01*
X7939800Y-11669000D02*
X7909800Y-11699000D01*
X7916454Y-6135060D02*
X7946454Y-6165060D01*
X7946454Y-6135060D02*
X7916454Y-6165060D01*
X7919960Y-5682220D02*
X7949960Y-5712220D01*
X7949960Y-5682220D02*
X7919960Y-5712220D01*
X7927580Y-7645640D02*
X7957580Y-7675640D01*
X7957580Y-7645640D02*
X7927580Y-7675640D01*
X7968220Y-6202920D02*
X7998220Y-6232920D01*
X7998220Y-6202920D02*
X7968220Y-6232920D01*
X8012420Y-6125413D02*
X8042420Y-6155413D01*
X8042420Y-6125413D02*
X8012420Y-6155413D01*
X8036800Y-7097000D02*
X8066800Y-7127000D01*
X8066800Y-7097000D02*
X8036800Y-7127000D01*
X8041880Y-7625320D02*
X8071880Y-7655320D01*
X8071880Y-7625320D02*
X8041880Y-7655320D01*
X8113000Y-5217400D02*
X8143000Y-5247400D01*
X8143000Y-5217400D02*
X8113000Y-5247400D01*
X8138400Y-7625320D02*
X8168400Y-7655320D01*
X8168400Y-7625320D02*
X8138400Y-7655320D01*
X8138400Y-11008600D02*
X8168400Y-11038600D01*
X8168400Y-11008600D02*
X8138400Y-11038600D01*
X8214217Y-7586123D02*
X8244217Y-7616123D01*
X8244217Y-7586123D02*
X8214217Y-7616123D01*
X8240000Y-12126200D02*
X8270000Y-12156200D01*
X8270000Y-12126200D02*
X8240000Y-12156200D01*
X8290455Y-7550203D02*
X8320455Y-7580203D01*
X8320455Y-7550203D02*
X8290455Y-7580203D01*
X8290800Y-8417800D02*
X8320800Y-8447800D01*
X8320800Y-8417800D02*
X8290800Y-8447800D01*
X8316200Y-14259800D02*
X8346200Y-14289800D01*
X8346200Y-14259800D02*
X8316200Y-14289800D01*
X8351193Y-7610166D02*
X8381193Y-7640166D01*
X8381193Y-7610166D02*
X8351193Y-7640166D01*
X8389730Y-6398014D02*
X8419730Y-6428014D01*
X8419730Y-6398014D02*
X8389730Y-6428014D01*
X8392400Y-7097000D02*
X8422400Y-7127000D01*
X8422400Y-7097000D02*
X8392400Y-7127000D01*
X8417800Y-13167600D02*
X8447800Y-13197600D01*
X8447800Y-13167600D02*
X8417800Y-13197600D01*
X8435580Y-7597380D02*
X8465580Y-7627380D01*
X8465580Y-7597380D02*
X8435580Y-7627380D01*
X8443200Y-6464540D02*
X8473200Y-6494540D01*
X8473200Y-6464540D02*
X8443200Y-6494540D01*
X8443200Y-13751800D02*
X8473200Y-13781800D01*
X8473200Y-13751800D02*
X8443200Y-13781800D01*
X8494000Y-5141200D02*
X8524000Y-5171200D01*
X8524000Y-5141200D02*
X8494000Y-5171200D01*
X8494000Y-5928600D02*
X8524000Y-5958600D01*
X8524000Y-5928600D02*
X8494000Y-5958600D01*
X8515417Y-6417906D02*
X8545417Y-6447906D01*
X8545417Y-6417906D02*
X8515417Y-6447906D01*
X8565120Y-7625320D02*
X8595120Y-7655320D01*
X8595120Y-7625320D02*
X8565120Y-7655320D01*
X8570200Y-8900400D02*
X8600200Y-8930400D01*
X8600200Y-8900400D02*
X8570200Y-8930400D01*
X8570200Y-15428200D02*
X8600200Y-15458200D01*
X8600200Y-15428200D02*
X8570200Y-15458200D01*
X8648940Y-7668500D02*
X8678940Y-7698500D01*
X8678940Y-7668500D02*
X8648940Y-7698500D01*
X8671800Y-8544800D02*
X8701800Y-8574800D01*
X8701800Y-8544800D02*
X8671800Y-8574800D01*
X8671800Y-10678400D02*
X8701800Y-10708400D01*
X8701800Y-10678400D02*
X8671800Y-10708400D01*
X8735300Y-7671040D02*
X8765300Y-7701040D01*
X8765300Y-7671040D02*
X8735300Y-7701040D01*
X8798800Y-5420600D02*
X8828800Y-5450600D01*
X8828800Y-5420600D02*
X8798800Y-5450600D01*
X8798800Y-7274800D02*
X8828800Y-7304800D01*
X8828800Y-7274800D02*
X8798800Y-7304800D01*
X8798800Y-10247689D02*
X8828800Y-10277689D01*
X8828800Y-10247689D02*
X8798800Y-10277689D01*
X8813311Y-10163581D02*
X8843311Y-10193581D01*
X8843311Y-10163581D02*
X8813311Y-10193581D01*
X8819120Y-6636451D02*
X8849120Y-6666451D01*
X8849120Y-6636451D02*
X8819120Y-6666451D01*
X8824200Y-11465800D02*
X8854200Y-11495800D01*
X8854200Y-11465800D02*
X8824200Y-11495800D01*
X8872460Y-6704109D02*
X8902460Y-6734109D01*
X8902460Y-6704109D02*
X8872460Y-6734109D01*
X8883491Y-7264214D02*
X8913491Y-7294214D01*
X8913491Y-7264214D02*
X8883491Y-7294214D01*
X8902940Y-10247689D02*
X8932940Y-10277689D01*
X8932940Y-10247689D02*
X8902940Y-10277689D01*
X8903613Y-6624382D02*
X8933613Y-6654382D01*
X8933613Y-6624382D02*
X8903613Y-6654382D01*
X8940246Y-7200468D02*
X8970246Y-7230468D01*
X8970246Y-7200468D02*
X8940246Y-7230468D01*
X8951200Y-12735800D02*
X8981200Y-12765800D01*
X8981200Y-12735800D02*
X8951200Y-12765800D01*
X8976600Y-13320000D02*
X9006600Y-13350000D01*
X9006600Y-13320000D02*
X8976600Y-13350000D01*
X9052800Y-8519400D02*
X9082800Y-8549400D01*
X9082800Y-8519400D02*
X9052800Y-8549400D01*
X9121380Y-6497560D02*
X9151380Y-6527560D01*
X9151380Y-6497560D02*
X9121380Y-6527560D01*
X9144240Y-6581380D02*
X9174240Y-6611380D01*
X9174240Y-6581380D02*
X9144240Y-6611380D01*
X9207740Y-6511069D02*
X9237740Y-6541069D01*
X9237740Y-6511069D02*
X9207740Y-6541069D01*
X9230600Y-9454120D02*
X9260600Y-9484120D01*
X9260600Y-9454120D02*
X9230600Y-9484120D01*
X9306800Y-7249400D02*
X9336800Y-7279400D01*
X9336800Y-7249400D02*
X9306800Y-7279400D01*
X9357600Y-8824200D02*
X9387600Y-8854200D01*
X9387600Y-8824200D02*
X9357600Y-8854200D01*
X9535400Y-13040600D02*
X9565400Y-13070600D01*
X9565400Y-13040600D02*
X9535400Y-13070600D01*
X9586200Y-15402800D02*
X9616200Y-15432800D01*
X9616200Y-15402800D02*
X9586200Y-15432800D01*
X9611600Y-6208000D02*
X9641600Y-6238000D01*
X9641600Y-6208000D02*
X9611600Y-6238000D01*
X9611600Y-10576800D02*
X9641600Y-10606800D01*
X9641600Y-10576800D02*
X9611600Y-10606800D01*
X9662400Y-11999200D02*
X9692400Y-12029200D01*
X9692400Y-11999200D02*
X9662400Y-12029200D01*
X9687800Y-9840200D02*
X9717800Y-9870200D01*
X9717800Y-9840200D02*
X9687800Y-9870200D01*
X9789400Y-5471400D02*
X9819400Y-5501400D01*
X9819400Y-5471400D02*
X9789400Y-5501400D01*
X9809720Y-8572740D02*
X9839720Y-8602740D01*
X9839720Y-8572740D02*
X9809720Y-8602740D01*
X10018000Y-9103600D02*
X10048000Y-9133600D01*
X10048000Y-9103600D02*
X10018000Y-9133600D01*
X10043400Y-10576800D02*
X10073400Y-10606800D01*
X10073400Y-10576800D02*
X10043400Y-10606800D01*
X10091660Y-12664680D02*
X10121660Y-12694680D01*
X10121660Y-12664680D02*
X10091660Y-12694680D01*
X10129760Y-8600680D02*
X10159760Y-8630680D01*
X10159760Y-8600680D02*
X10129760Y-8630680D01*
X10185640Y-12707860D02*
X10215640Y-12737860D01*
X10215640Y-12707860D02*
X10185640Y-12737860D01*
X10272000Y-9865600D02*
X10302000Y-9895600D01*
X10302000Y-9865600D02*
X10272000Y-9895600D01*
X10399000Y-12177000D02*
X10429000Y-12207000D01*
X10429000Y-12177000D02*
X10399000Y-12207000D01*
X10424400Y-7224000D02*
X10454400Y-7254000D01*
X10454400Y-7224000D02*
X10424400Y-7254000D01*
X10440655Y-10461575D02*
X10470655Y-10491575D01*
X10470655Y-10461575D02*
X10440655Y-10491575D01*
X10531080Y-8529560D02*
X10561080Y-8559560D01*
X10561080Y-8529560D02*
X10531080Y-8559560D01*
X10548860Y-10487900D02*
X10578860Y-10517900D01*
X10578860Y-10487900D02*
X10548860Y-10517900D01*
X10602200Y-15402800D02*
X10632200Y-15432800D01*
X10632200Y-15402800D02*
X10602200Y-15432800D01*
X10678400Y-6233400D02*
X10708400Y-6263400D01*
X10708400Y-6233400D02*
X10678400Y-6263400D01*
X10703800Y-12456400D02*
X10733800Y-12486400D01*
X10733800Y-12456400D02*
X10703800Y-12486400D01*
X10739360Y-10503140D02*
X10769360Y-10533140D01*
X10769360Y-10503140D02*
X10739360Y-10533140D01*
X10782251Y-10371591D02*
X10812251Y-10401591D01*
X10812251Y-10371591D02*
X10782251Y-10401591D01*
X10790160Y-8374620D02*
X10820160Y-8404620D01*
X10820160Y-8374620D02*
X10790160Y-8404620D01*
X10830800Y-5547600D02*
X10860800Y-5577600D01*
X10860800Y-5547600D02*
X10830800Y-5577600D01*
X10830800Y-11897600D02*
X10860800Y-11927600D01*
X10860800Y-11897600D02*
X10830800Y-11927600D01*
X10907000Y-5166600D02*
X10937000Y-5196600D01*
X10937000Y-5166600D02*
X10907000Y-5196600D01*
X11039080Y-8377160D02*
X11069080Y-8407160D01*
X11069080Y-8377160D02*
X11039080Y-8407160D01*
X11288000Y-8387320D02*
X11318000Y-8417320D01*
X11318000Y-8387320D02*
X11288000Y-8417320D01*
X11292225Y-13726731D02*
X11322225Y-13756731D01*
X11322225Y-13726731D02*
X11292225Y-13756731D01*
X11310860Y-13634960D02*
X11340860Y-13664960D01*
X11340860Y-13634960D02*
X11310860Y-13664960D01*
X11313400Y-15428200D02*
X11343400Y-15458200D01*
X11343400Y-15428200D02*
X11313400Y-15458200D01*
X11371820Y-13695920D02*
X11401820Y-13725920D01*
X11401820Y-13695920D02*
X11371820Y-13725920D01*
X11399030Y-13930638D02*
X11429030Y-13960638D01*
X11429030Y-13930638D02*
X11399030Y-13960638D01*
X11415000Y-6233400D02*
X11445000Y-6263400D01*
X11445000Y-6233400D02*
X11415000Y-6263400D01*
X11483580Y-13942300D02*
X11513580Y-13972300D01*
X11513580Y-13942300D02*
X11483580Y-13972300D01*
X11539460Y-8394940D02*
X11569460Y-8424940D01*
X11569460Y-8394940D02*
X11539460Y-8424940D01*
X11552160Y-13650200D02*
X11582160Y-13680200D01*
X11582160Y-13650200D02*
X11552160Y-13680200D01*
X11559887Y-13565200D02*
X11589887Y-13595200D01*
X11589887Y-13565200D02*
X11559887Y-13595200D01*
X11605500Y-14229320D02*
X11635500Y-14259320D01*
X11635500Y-14229320D02*
X11605500Y-14259320D01*
X11669000Y-9334740D02*
X11699000Y-9364740D01*
X11699000Y-9334740D02*
X11669000Y-9364740D01*
X11671540Y-13563840D02*
X11701540Y-13593840D01*
X11701540Y-13563840D02*
X11671540Y-13593840D01*
X11676620Y-13477480D02*
X11706620Y-13507480D01*
X11706620Y-13477480D02*
X11676620Y-13507480D01*
X11691860Y-14214080D02*
X11721860Y-14244080D01*
X11721860Y-14214080D02*
X11691860Y-14244080D01*
X11742660Y-9758920D02*
X11772660Y-9788920D01*
X11772660Y-9758920D02*
X11742660Y-9788920D01*
X11755360Y-14396960D02*
X11785360Y-14426960D01*
X11785360Y-14396960D02*
X11755360Y-14426960D01*
X11770600Y-13853400D02*
X11800600Y-13883400D01*
X11800600Y-13853400D02*
X11770600Y-13883400D01*
X11793460Y-13419060D02*
X11823460Y-13449060D01*
X11823460Y-13419060D02*
X11793460Y-13449060D01*
X11801080Y-8382240D02*
X11831080Y-8412240D01*
X11831080Y-8382240D02*
X11801080Y-8412240D01*
X11801080Y-13505420D02*
X11831080Y-13535420D01*
X11831080Y-13505420D02*
X11801080Y-13535420D01*
X11823698Y-9855198D02*
X11853698Y-9885198D01*
X11853698Y-9855198D02*
X11823698Y-9885198D01*
X11828010Y-9758872D02*
X11858010Y-9788872D01*
X11858010Y-9758872D02*
X11828010Y-9788872D01*
X11839180Y-14379180D02*
X11869180Y-14409180D01*
X11869180Y-14379180D02*
X11839180Y-14409180D01*
X11902680Y-13355560D02*
X11932680Y-13385560D01*
X11932680Y-13355560D02*
X11902680Y-13385560D01*
X11905220Y-9967200D02*
X11935220Y-9997200D01*
X11935220Y-9967200D02*
X11905220Y-9997200D01*
X11909001Y-9858021D02*
X11939001Y-9888021D01*
X11939001Y-9858021D02*
X11909001Y-9888021D01*
X11923000Y-5192000D02*
X11953000Y-5222000D01*
X11953000Y-5192000D02*
X11923000Y-5222000D01*
X11923000Y-7249400D02*
X11953000Y-7279400D01*
X11953000Y-7249400D02*
X11923000Y-7279400D01*
X11923000Y-9334740D02*
X11953000Y-9364740D01*
X11953000Y-9334740D02*
X11923000Y-9364740D01*
X11943320Y-13431760D02*
X11973320Y-13461760D01*
X11973320Y-13431760D02*
X11943320Y-13461760D01*
X11984862Y-9936511D02*
X12014862Y-9966511D01*
X12014862Y-9936511D02*
X11984862Y-9966511D01*
X12046869Y-13306229D02*
X12076869Y-13336229D01*
X12076869Y-13306229D02*
X12046869Y-13336229D01*
X12050000Y-8384780D02*
X12080000Y-8414780D01*
X12080000Y-8384780D02*
X12050000Y-8414780D01*
X12088100Y-13380960D02*
X12118100Y-13410960D01*
X12118100Y-13380960D02*
X12088100Y-13410960D01*
X12202400Y-12634200D02*
X12232400Y-12664200D01*
X12232400Y-12634200D02*
X12202400Y-12664200D01*
X12253200Y-15402800D02*
X12283200Y-15432800D01*
X12283200Y-15402800D02*
X12253200Y-15432800D01*
X12311620Y-8377160D02*
X12341620Y-8407160D01*
X12341620Y-8377160D02*
X12311620Y-8407160D01*
X12321780Y-9248380D02*
X12351780Y-9278380D01*
X12351780Y-9248380D02*
X12321780Y-9278380D01*
X12329400Y-5496800D02*
X12359400Y-5526800D01*
X12359400Y-5496800D02*
X12329400Y-5526800D01*
X12329400Y-13777200D02*
X12359400Y-13807200D01*
X12359400Y-13777200D02*
X12329400Y-13807200D01*
X12354800Y-14412200D02*
X12384800Y-14442200D01*
X12384800Y-14412200D02*
X12354800Y-14442200D01*
X12380200Y-6233400D02*
X12410200Y-6263400D01*
X12410200Y-6233400D02*
X12380200Y-6263400D01*
X12473606Y-9720315D02*
X12503606Y-9750315D01*
X12503606Y-9720315D02*
X12473606Y-9750315D01*
X12537680Y-9776700D02*
X12567680Y-9806700D01*
X12567680Y-9776700D02*
X12537680Y-9806700D01*
X12558000Y-9245840D02*
X12588000Y-9275840D01*
X12588000Y-9245840D02*
X12558000Y-9275840D01*
X12560540Y-8384780D02*
X12590540Y-8414780D01*
X12590540Y-8384780D02*
X12560540Y-8414780D01*
X12608800Y-13421600D02*
X12638800Y-13451600D01*
X12638800Y-13421600D02*
X12608800Y-13451600D01*
X12657060Y-11130520D02*
X12687060Y-11160520D01*
X12687060Y-11130520D02*
X12657060Y-11160520D01*
X12659600Y-12558000D02*
X12689600Y-12588000D01*
X12689600Y-12558000D02*
X12659600Y-12588000D01*
X12679298Y-9735384D02*
X12709298Y-9765384D01*
X12709298Y-9735384D02*
X12679298Y-9765384D01*
X12707860Y-11254980D02*
X12737860Y-11284980D01*
X12737860Y-11254980D02*
X12707860Y-11284980D01*
X12710400Y-13802600D02*
X12740400Y-13832600D01*
X12740400Y-13802600D02*
X12710400Y-13832600D01*
X12740880Y-9794480D02*
X12770880Y-9824480D01*
X12770880Y-9794480D02*
X12740880Y-9824480D01*
X12742112Y-11123393D02*
X12772112Y-11153393D01*
X12772112Y-11123393D02*
X12742112Y-11153393D01*
X12776617Y-11204412D02*
X12806617Y-11234412D01*
X12806617Y-11204412D02*
X12776617Y-11234412D01*
X12782268Y-11312382D02*
X12812268Y-11342382D01*
X12812268Y-11312382D02*
X12782268Y-11342382D01*
X12804380Y-10564100D02*
X12834380Y-10594100D01*
X12834380Y-10564100D02*
X12804380Y-10594100D01*
X12812000Y-8389860D02*
X12842000Y-8419860D01*
X12842000Y-8389860D02*
X12812000Y-8419860D01*
X12824700Y-9245840D02*
X12854700Y-9275840D01*
X12854700Y-9245840D02*
X12824700Y-9275840D01*
X12853941Y-10633587D02*
X12883941Y-10663587D01*
X12883941Y-10633587D02*
X12853941Y-10663587D01*
X12949160Y-13365720D02*
X12979160Y-13395720D01*
X12979160Y-13365720D02*
X12949160Y-13395720D01*
X12951700Y-13261580D02*
X12981700Y-13291580D01*
X12981700Y-13261580D02*
X12951700Y-13291580D01*
X12957378Y-9731711D02*
X12987378Y-9761711D01*
X12987378Y-9731711D02*
X12957378Y-9761711D01*
X13020280Y-9789400D02*
X13050280Y-9819400D01*
X13050280Y-9789400D02*
X13020280Y-9819400D01*
X13068540Y-8384780D02*
X13098540Y-8414780D01*
X13098540Y-8384780D02*
X13068540Y-8414780D01*
X13078700Y-9243300D02*
X13108700Y-9273300D01*
X13108700Y-9243300D02*
X13078700Y-9273300D01*
X13091400Y-6208000D02*
X13121400Y-6238000D01*
X13121400Y-6208000D02*
X13091400Y-6238000D01*
X13116800Y-7224000D02*
X13146800Y-7254000D01*
X13146800Y-7224000D02*
X13116800Y-7254000D01*
X13193000Y-15377400D02*
X13223000Y-15407400D01*
X13223000Y-15377400D02*
X13193000Y-15407400D01*
X13302220Y-14244560D02*
X13332220Y-14274560D01*
X13332220Y-14244560D02*
X13302220Y-14274560D01*
X13317460Y-8392400D02*
X13347460Y-8422400D01*
X13347460Y-8392400D02*
X13317460Y-8422400D01*
X13330160Y-9248380D02*
X13360160Y-9278380D01*
X13360160Y-9248380D02*
X13330160Y-9278380D01*
X13353020Y-14102320D02*
X13383020Y-14132320D01*
X13383020Y-14102320D02*
X13353020Y-14132320D01*
X13360640Y-12486880D02*
X13390640Y-12516880D01*
X13390640Y-12486880D02*
X13360640Y-12516880D01*
X13363180Y-12573240D02*
X13393180Y-12603240D01*
X13393180Y-12573240D02*
X13363180Y-12603240D01*
X13393660Y-14259800D02*
X13423660Y-14289800D01*
X13423660Y-14259800D02*
X13393660Y-14289800D01*
X13398740Y-14369020D02*
X13428740Y-14399020D01*
X13428740Y-14369020D02*
X13398740Y-14399020D01*
X13439380Y-14130260D02*
X13469380Y-14160260D01*
X13469380Y-14130260D02*
X13439380Y-14160260D01*
X13441258Y-13961986D02*
X13471258Y-13991986D01*
X13471258Y-13961986D02*
X13441258Y-13991986D01*
X13469650Y-10413092D02*
X13499650Y-10443092D01*
X13499650Y-10413092D02*
X13469650Y-10443092D01*
X13482560Y-14346160D02*
X13512560Y-14376160D01*
X13512560Y-14346160D02*
X13482560Y-14376160D01*
X13502880Y-14021040D02*
X13532880Y-14051040D01*
X13532880Y-14021040D02*
X13502880Y-14051040D01*
X13509463Y-14480645D02*
X13539463Y-14510645D01*
X13539463Y-14480645D02*
X13509463Y-14510645D01*
X13510497Y-13830536D02*
X13540497Y-13860536D01*
X13540497Y-13830536D02*
X13510497Y-13860536D01*
X13540980Y-10459960D02*
X13570980Y-10489960D01*
X13570980Y-10459960D02*
X13540980Y-10489960D01*
X13561300Y-13899120D02*
X13591300Y-13929120D01*
X13591300Y-13899120D02*
X13561300Y-13929120D01*
X13574000Y-8389860D02*
X13604000Y-8419860D01*
X13604000Y-8389860D02*
X13574000Y-8419860D01*
X13581620Y-14435060D02*
X13611620Y-14465060D01*
X13611620Y-14435060D02*
X13581620Y-14465060D01*
X13609560Y-12573240D02*
X13639560Y-12603240D01*
X13639560Y-12573240D02*
X13609560Y-12603240D01*
X13618911Y-12693591D02*
X13648911Y-12723591D01*
X13648911Y-12693591D02*
X13618911Y-12723591D01*
X13622260Y-13741640D02*
X13652260Y-13771640D01*
X13652260Y-13741640D02*
X13622260Y-13771640D01*
X13678140Y-13817840D02*
X13708140Y-13847840D01*
X13708140Y-13817840D02*
X13678140Y-13847840D01*
X13741640Y-14493480D02*
X13771640Y-14523480D01*
X13771640Y-14493480D02*
X13741640Y-14523480D01*
X13741640Y-14578830D02*
X13771640Y-14608830D01*
X13771640Y-14578830D02*
X13741640Y-14608830D01*
X13761850Y-13184470D02*
X13791850Y-13214470D01*
X13791850Y-13184470D02*
X13761850Y-13214470D01*
X13772120Y-13269200D02*
X13802120Y-13299200D01*
X13802120Y-13269200D02*
X13772120Y-13299200D01*
X13777200Y-5547600D02*
X13807200Y-5577600D01*
X13807200Y-5547600D02*
X13777200Y-5577600D01*
X13825460Y-8389860D02*
X13855460Y-8419860D01*
X13855460Y-8389860D02*
X13825460Y-8419860D01*
X13853400Y-12735800D02*
X13883400Y-12765800D01*
X13883400Y-12735800D02*
X13853400Y-12765800D01*
X13871553Y-12644782D02*
X13901553Y-12674782D01*
X13901553Y-12644782D02*
X13871553Y-12674782D01*
X13929600Y-5217400D02*
X13959600Y-5247400D01*
X13959600Y-5217400D02*
X13929600Y-5247400D01*
X13949920Y-13203160D02*
X13979920Y-13233160D01*
X13979920Y-13203160D02*
X13949920Y-13233160D01*
X13950048Y-13117810D02*
X13980048Y-13147810D01*
X13980048Y-13117810D02*
X13950048Y-13147810D01*
X13955000Y-13523200D02*
X13985000Y-13553200D01*
X13985000Y-13523200D02*
X13955000Y-13553200D01*
X13993100Y-12918680D02*
X14023100Y-12948680D01*
X14023100Y-12918680D02*
X13993100Y-12948680D01*
X14078411Y-12921265D02*
X14108411Y-12951265D01*
X14108411Y-12921265D02*
X14078411Y-12951265D01*
X14082000Y-10500600D02*
X14112000Y-10530600D01*
X14112000Y-10500600D02*
X14082000Y-10530600D01*
X14089620Y-8377160D02*
X14119620Y-8407160D01*
X14119620Y-8377160D02*
X14089620Y-8407160D01*
X14102320Y-13134580D02*
X14132320Y-13164580D01*
X14132320Y-13134580D02*
X14102320Y-13164580D01*
X14120387Y-13051164D02*
X14150387Y-13081164D01*
X14150387Y-13051164D02*
X14120387Y-13081164D01*
X14132800Y-14310600D02*
X14162800Y-14340600D01*
X14162800Y-14310600D02*
X14132800Y-14340600D01*
X14205394Y-13066366D02*
X14235394Y-13096366D01*
X14235394Y-13066366D02*
X14205394Y-13096366D01*
X14209000Y-9941800D02*
X14239000Y-9971800D01*
X14239000Y-9941800D02*
X14209000Y-9971800D01*
X14244560Y-13142200D02*
X14274560Y-13172200D01*
X14274560Y-13142200D02*
X14244560Y-13172200D01*
X14259800Y-15402800D02*
X14289800Y-15432800D01*
X14289800Y-15402800D02*
X14259800Y-15432800D01*
X14285200Y-13726400D02*
X14315200Y-13756400D01*
X14315200Y-13726400D02*
X14285200Y-13756400D01*
X14310600Y-6182600D02*
X14340600Y-6212600D01*
X14340600Y-6182600D02*
X14310600Y-6212600D01*
X14333460Y-8394940D02*
X14363460Y-8424940D01*
X14363460Y-8394940D02*
X14333460Y-8424940D01*
X14352091Y-13024906D02*
X14382091Y-13054906D01*
X14382091Y-13024906D02*
X14352091Y-13054906D01*
X14407873Y-13136535D02*
X14437873Y-13166535D01*
X14437873Y-13136535D02*
X14407873Y-13166535D01*
X14463000Y-10627600D02*
X14493000Y-10657600D01*
X14493000Y-10627600D02*
X14463000Y-10657600D01*
X14615400Y-12380200D02*
X14645400Y-12410200D01*
X14645400Y-12380200D02*
X14615400Y-12410200D01*
X14691600Y-13472400D02*
X14721600Y-13502400D01*
X14721600Y-13472400D02*
X14691600Y-13502400D01*
X14844000Y-9865600D02*
X14874000Y-9895600D01*
X14874000Y-9865600D02*
X14844000Y-9895600D01*
X14894800Y-15377400D02*
X14924800Y-15407400D01*
X14924800Y-15377400D02*
X14894800Y-15407400D01*
X14920200Y-13142200D02*
X14950200Y-13172200D01*
X14950200Y-13142200D02*
X14920200Y-13172200D01*
X15047200Y-6208000D02*
X15077200Y-6238000D01*
X15077200Y-6208000D02*
X15047200Y-6238000D01*
X15098000Y-5598400D02*
X15128000Y-5628400D01*
X15128000Y-5598400D02*
X15098000Y-5628400D01*
X15225000Y-6741400D02*
X15255000Y-6771400D01*
X15255000Y-6741400D02*
X15225000Y-6771400D01*
X15225000Y-9865600D02*
X15255000Y-9895600D01*
X15255000Y-9865600D02*
X15225000Y-9895600D01*
X15402800Y-7122400D02*
X15432800Y-7152400D01*
X15432800Y-7122400D02*
X15402800Y-7152400D01*
X15428200Y-11694400D02*
X15458200Y-11724400D01*
X15458200Y-11694400D02*
X15428200Y-11724400D01*
X15504400Y-10526000D02*
X15534400Y-10556000D01*
X15534400Y-10526000D02*
X15504400Y-10556000D01*
X15529800Y-13370800D02*
X15559800Y-13400800D01*
X15559800Y-13370800D02*
X15529800Y-13400800D01*
X15606000Y-9891000D02*
X15636000Y-9921000D01*
X15636000Y-9891000D02*
X15606000Y-9921000D01*
X15809200Y-15301200D02*
X15839200Y-15331200D01*
X15839200Y-15301200D02*
X15809200Y-15331200D01*
X15834600Y-7630400D02*
X15864600Y-7660400D01*
X15864600Y-7630400D02*
X15834600Y-7660400D01*
X16012400Y-10500600D02*
X16042400Y-10530600D01*
X16042400Y-10500600D02*
X16012400Y-10530600D01*
X16037800Y-5217400D02*
X16067800Y-5247400D01*
X16067800Y-5217400D02*
X16037800Y-5247400D01*
X16190200Y-15352000D02*
X16220200Y-15382000D01*
X16220200Y-15352000D02*
X16190200Y-15382000D01*
X16241000Y-5547600D02*
X16271000Y-5577600D01*
X16271000Y-5547600D02*
X16241000Y-5577600D01*
X16291800Y-6208000D02*
X16321800Y-6238000D01*
X16321800Y-6208000D02*
X16291800Y-6238000D01*
X16469600Y-8163800D02*
X16499600Y-8193800D01*
X16499600Y-8163800D02*
X16469600Y-8193800D01*
X16495000Y-8925800D02*
X16525000Y-8955800D01*
X16525000Y-8925800D02*
X16495000Y-8955800D01*
X16555960Y-8986760D02*
X16585960Y-9016760D01*
X16585960Y-8986760D02*
X16555960Y-9016760D01*
X16622000Y-6766800D02*
X16652000Y-6796800D01*
X16652000Y-6766800D02*
X16622000Y-6796800D01*
X16647400Y-11694400D02*
X16677400Y-11724400D01*
X16677400Y-11694400D02*
X16647400Y-11724400D01*
X16672800Y-15301200D02*
X16702800Y-15331200D01*
X16702800Y-15301200D02*
X16672800Y-15331200D01*
X16698200Y-8892780D02*
X16728200Y-8922780D01*
X16728200Y-8892780D02*
X16698200Y-8922780D01*
X16749000Y-7605000D02*
X16779000Y-7635000D01*
X16779000Y-7605000D02*
X16749000Y-7635000D01*
X16761700Y-8953740D02*
X16791700Y-8983740D01*
X16791700Y-8953740D02*
X16761700Y-8983740D01*
X16820120Y-9278860D02*
X16850120Y-9308860D01*
X16850120Y-9278860D02*
X16820120Y-9308860D01*
X16845520Y-8836900D02*
X16875520Y-8866900D01*
X16875520Y-8836900D02*
X16845520Y-8866900D01*
X16860760Y-9357600D02*
X16890760Y-9387600D01*
X16890760Y-9357600D02*
X16860760Y-9387600D01*
X16914100Y-8890240D02*
X16944100Y-8920240D01*
X16944100Y-8890240D02*
X16914100Y-8920240D01*
X16954740Y-10815560D02*
X16984740Y-10845560D01*
X16984740Y-10815560D02*
X16954740Y-10845560D01*
X17003000Y-8087600D02*
X17033000Y-8117600D01*
X17033000Y-8087600D02*
X17003000Y-8117600D01*
X17003000Y-10018000D02*
X17033000Y-10048000D01*
X17033000Y-10018000D02*
X17003000Y-10048000D01*
X17013160Y-10722389D02*
X17043160Y-10752389D01*
X17043160Y-10722389D02*
X17013160Y-10752389D01*
X17079200Y-6233400D02*
X17109200Y-6263400D01*
X17109200Y-6233400D02*
X17079200Y-6263400D01*
X17079200Y-9459200D02*
X17109200Y-9489200D01*
X17109200Y-9459200D02*
X17079200Y-9489200D01*
X17142438Y-10512031D02*
X17172438Y-10542031D01*
X17172438Y-10512031D02*
X17142438Y-10542031D01*
X17178260Y-10589500D02*
X17208260Y-10619500D01*
X17208260Y-10589500D02*
X17178260Y-10619500D01*
X17206200Y-5496800D02*
X17236200Y-5526800D01*
X17236200Y-5496800D02*
X17206200Y-5526800D01*
X17282400Y-5242800D02*
X17312400Y-5272800D01*
X17312400Y-5242800D02*
X17282400Y-5272800D01*
X17282400Y-15275800D02*
X17312400Y-15305800D01*
X17312400Y-15275800D02*
X17282400Y-15305800D01*
X17303140Y-10588433D02*
X17333140Y-10618433D01*
X17333140Y-10588433D02*
X17303140Y-10618433D01*
X17325580Y-10670780D02*
X17355580Y-10700780D01*
X17355580Y-10670780D02*
X17325580Y-10700780D01*
X17333200Y-7249400D02*
X17363200Y-7279400D01*
X17363200Y-7249400D02*
X17333200Y-7279400D01*
X17358600Y-6690600D02*
X17388600Y-6720600D01*
X17388600Y-6690600D02*
X17358600Y-6720600D01*
X17358600Y-14234400D02*
X17388600Y-14264400D01*
X17388600Y-14234400D02*
X17358600Y-14264400D01*
X17384000Y-13853400D02*
X17414000Y-13883400D01*
X17414000Y-13853400D02*
X17384000Y-13883400D01*
X17422839Y-10694144D02*
X17452839Y-10724144D01*
X17452839Y-10694144D02*
X17422839Y-10724144D01*
X17460200Y-8976600D02*
X17490200Y-9006600D01*
X17490200Y-8976600D02*
X17460200Y-9006600D01*
X17465280Y-10236440D02*
X17495280Y-10266440D01*
X17495280Y-10236440D02*
X17465280Y-10266440D01*
X17483060Y-10376140D02*
X17513060Y-10406140D01*
X17513060Y-10376140D02*
X17483060Y-10406140D01*
X17485600Y-12380200D02*
X17515600Y-12410200D01*
X17515600Y-12380200D02*
X17485600Y-12410200D01*
X17503380Y-10722389D02*
X17533380Y-10752389D01*
X17533380Y-10722389D02*
X17503380Y-10752389D01*
X17511000Y-13243800D02*
X17541000Y-13273800D01*
X17541000Y-13243800D02*
X17511000Y-13273800D01*
X17524334Y-10298062D02*
X17554334Y-10328062D01*
X17554334Y-10298062D02*
X17524334Y-10328062D01*
X17559400Y-10414310D02*
X17589400Y-10444310D01*
X17589400Y-10414310D02*
X17559400Y-10444310D01*
X17571960Y-11407380D02*
X17601960Y-11437380D01*
X17601960Y-11407380D02*
X17571960Y-11437380D01*
X17617680Y-6655040D02*
X17647680Y-6685040D01*
X17647680Y-6655040D02*
X17617680Y-6685040D01*
X17654092Y-6422169D02*
X17684092Y-6452169D01*
X17684092Y-6422169D02*
X17654092Y-6452169D01*
X17701414Y-6638506D02*
X17731414Y-6668506D01*
X17731414Y-6638506D02*
X17701414Y-6668506D01*
X17737235Y-6402882D02*
X17767235Y-6432882D01*
X17767235Y-6402882D02*
X17737235Y-6432882D01*
X17795480Y-8946120D02*
X17825480Y-8976120D01*
X17825480Y-8946120D02*
X17795480Y-8976120D01*
X17815800Y-8113000D02*
X17845800Y-8143000D01*
X17845800Y-8113000D02*
X17815800Y-8143000D01*
X17843740Y-11415000D02*
X17873740Y-11445000D01*
X17873740Y-11415000D02*
X17843740Y-11445000D01*
X17879300Y-8971520D02*
X17909300Y-9001520D01*
X17909300Y-8971520D02*
X17879300Y-9001520D01*
X17892000Y-6208000D02*
X17922000Y-6238000D01*
X17922000Y-6208000D02*
X17892000Y-6238000D01*
X17917400Y-13548600D02*
X17947400Y-13578600D01*
X17947400Y-13548600D02*
X17917400Y-13578600D01*
X17942800Y-5776200D02*
X17972800Y-5806200D01*
X17972800Y-5776200D02*
X17942800Y-5806200D01*
X17942800Y-8872460D02*
X17972800Y-8902460D01*
X17972800Y-8872460D02*
X17942800Y-8902460D01*
X18017183Y-8914316D02*
X18047183Y-8944316D01*
X18047183Y-8914316D02*
X18017183Y-8944316D01*
X18064720Y-11402300D02*
X18094720Y-11432300D01*
X18094720Y-11402300D02*
X18064720Y-11432300D01*
X18081733Y-8841411D02*
X18111733Y-8871411D01*
X18111733Y-8841411D02*
X18081733Y-8871411D01*
X18120600Y-6792200D02*
X18150600Y-6822200D01*
X18150600Y-6792200D02*
X18120600Y-6822200D01*
X18120600Y-13802600D02*
X18150600Y-13832600D01*
X18150600Y-13802600D02*
X18120600Y-13832600D01*
X18133300Y-8773400D02*
X18163300Y-8803400D01*
X18163300Y-8773400D02*
X18133300Y-8803400D01*
X18344120Y-11415000D02*
X18374120Y-11445000D01*
X18374120Y-11415000D02*
X18344120Y-11445000D01*
X18425400Y-10627600D02*
X18455400Y-10657600D01*
X18455400Y-10627600D02*
X18425400Y-10657600D01*
X18450800Y-9256000D02*
X18480800Y-9286000D01*
X18480800Y-9256000D02*
X18450800Y-9286000D01*
X18570180Y-11404840D02*
X18600180Y-11434840D01*
X18600180Y-11404840D02*
X18570180Y-11434840D01*
X18623475Y-12142489D02*
X18653475Y-12172489D01*
X18653475Y-12142489D02*
X18623475Y-12172489D01*
X18626060Y-12227800D02*
X18656060Y-12257800D01*
X18656060Y-12227800D02*
X18626060Y-12257800D01*
X18679400Y-6792200D02*
X18709400Y-6822200D01*
X18709400Y-6792200D02*
X18679400Y-6822200D01*
X18679400Y-8976600D02*
X18709400Y-9006600D01*
X18709400Y-8976600D02*
X18679400Y-9006600D01*
X18704800Y-8036800D02*
X18734800Y-8066800D01*
X18734800Y-8036800D02*
X18704800Y-8066800D01*
X18755600Y-10348200D02*
X18785600Y-10378200D01*
X18785600Y-10348200D02*
X18755600Y-10378200D01*
X18801320Y-12288760D02*
X18831320Y-12318760D01*
X18831320Y-12288760D02*
X18801320Y-12318760D01*
X18818664Y-12205190D02*
X18848664Y-12235190D01*
X18848664Y-12205190D02*
X18818664Y-12235190D01*
X18844500Y-11409920D02*
X18874500Y-11439920D01*
X18874500Y-11409920D02*
X18844500Y-11439920D01*
X18882600Y-7655800D02*
X18912600Y-7685800D01*
X18912600Y-7655800D02*
X18882600Y-7685800D01*
X18984200Y-5827000D02*
X19014200Y-5857000D01*
X19014200Y-5827000D02*
X18984200Y-5857000D01*
X18984200Y-7147800D02*
X19014200Y-7177800D01*
X19014200Y-7147800D02*
X18984200Y-7177800D01*
X18991820Y-12347180D02*
X19021820Y-12377180D01*
X19021820Y-12347180D02*
X18991820Y-12377180D01*
X19036608Y-12274525D02*
X19066608Y-12304525D01*
X19066608Y-12274525D02*
X19036608Y-12304525D01*
X19083260Y-11399760D02*
X19113260Y-11429760D01*
X19113260Y-11399760D02*
X19083260Y-11429760D01*
X19162000Y-8875000D02*
X19192000Y-8905000D01*
X19192000Y-8875000D02*
X19162000Y-8905000D01*
X19177240Y-12418300D02*
X19207240Y-12448300D01*
X19207240Y-12418300D02*
X19177240Y-12448300D01*
X19211176Y-12339986D02*
X19241176Y-12369986D01*
X19241176Y-12339986D02*
X19211176Y-12369986D01*
X19329640Y-12476720D02*
X19359640Y-12506720D01*
X19359640Y-12476720D02*
X19329640Y-12506720D01*
X19339800Y-12913600D02*
X19369800Y-12943600D01*
X19369800Y-12913600D02*
X19339800Y-12943600D01*
X19344880Y-11404840D02*
X19374880Y-11434840D01*
X19374880Y-11404840D02*
X19344880Y-11434840D01*
X19372036Y-12402644D02*
X19402036Y-12432644D01*
X19402036Y-12402644D02*
X19372036Y-12432644D01*
X19471880Y-12532600D02*
X19501880Y-12562600D01*
X19501880Y-12532600D02*
X19471880Y-12562600D01*
X19522216Y-12463673D02*
X19552216Y-12493673D01*
X19552216Y-12463673D02*
X19522216Y-12493673D01*
X19568400Y-10602200D02*
X19598400Y-10632200D01*
X19598400Y-10602200D02*
X19568400Y-10632200D01*
X19593800Y-6411200D02*
X19623800Y-6441200D01*
X19623800Y-6411200D02*
X19593800Y-6441200D01*
X19619200Y-7605000D02*
X19649200Y-7635000D01*
X19649200Y-7605000D02*
X19619200Y-7635000D01*
X19644600Y-9814800D02*
X19674600Y-9844800D01*
X19674600Y-9814800D02*
X19644600Y-9844800D01*
X19644600Y-12578320D02*
X19674600Y-12608320D01*
X19674600Y-12578320D02*
X19644600Y-12608320D01*
X19670000Y-11897600D02*
X19700000Y-11927600D01*
X19700000Y-11897600D02*
X19670000Y-11927600D01*
X19706249Y-12519294D02*
X19736249Y-12549294D01*
X19736249Y-12519294D02*
X19706249Y-12549294D01*
X19771600Y-9357600D02*
X19801600Y-9387600D01*
X19801600Y-9357600D02*
X19771600Y-9387600D01*
X19789380Y-12621500D02*
X19819380Y-12651500D01*
X19819380Y-12621500D02*
X19789380Y-12651500D01*
X19868120Y-12580860D02*
X19898120Y-12610860D01*
X19898120Y-12580860D02*
X19868120Y-12610860D01*
X19977340Y-8577820D02*
X20007340Y-8607820D01*
X20007340Y-8577820D02*
X19977340Y-8607820D01*
X20101800Y-8113000D02*
X20131800Y-8143000D01*
X20131800Y-8113000D02*
X20101800Y-8143000D01*
X20279600Y-13701000D02*
X20309600Y-13731000D01*
X20309600Y-13701000D02*
X20279600Y-13731000D01*
X20381200Y-6893800D02*
X20411200Y-6923800D01*
X20411200Y-6893800D02*
X20381200Y-6923800D01*
X20432000Y-8824200D02*
X20462000Y-8854200D01*
X20462000Y-8824200D02*
X20432000Y-8854200D01*
X20482800Y-9459200D02*
X20512800Y-9489200D01*
X20512800Y-9459200D02*
X20482800Y-9489200D01*
X20508200Y-11237200D02*
X20538200Y-11267200D01*
X20538200Y-11237200D02*
X20508200Y-11267200D01*
X20533600Y-10754600D02*
X20563600Y-10784600D01*
X20563600Y-10754600D02*
X20533600Y-10784600D01*
X20609800Y-11796000D02*
X20639800Y-11826000D01*
X20639800Y-11796000D02*
X20609800Y-11826000D01*
X20724100Y-8567660D02*
X20754100Y-8597660D01*
X20754100Y-8567660D02*
X20724100Y-8597660D01*
X20762200Y-14259800D02*
X20792200Y-14289800D01*
X20792200Y-14259800D02*
X20762200Y-14289800D01*
X20889200Y-13751800D02*
X20919200Y-13781800D01*
X20919200Y-13751800D02*
X20889200Y-13781800D01*
X21295600Y-7605000D02*
X21325600Y-7635000D01*
X21325600Y-7605000D02*
X21295600Y-7635000D01*
X21397200Y-7935200D02*
X21427200Y-7965200D01*
X21427200Y-7935200D02*
X21397200Y-7965200D01*
X21422600Y-12786600D02*
X21452600Y-12816600D01*
X21452600Y-12786600D02*
X21422600Y-12816600D01*
X21905200Y-12227800D02*
X21935200Y-12257800D01*
X21935200Y-12227800D02*
X21905200Y-12257800D01*
X21905200Y-13116800D02*
X21935200Y-13146800D01*
X21935200Y-13116800D02*
X21905200Y-13146800D01*
X21956000Y-9383000D02*
X21986000Y-9413000D01*
X21986000Y-9383000D02*
X21956000Y-9413000D01*
X21981400Y-10729200D02*
X22011400Y-10759200D01*
X22011400Y-10729200D02*
X21981400Y-10759200D01*
X22083000Y-11643600D02*
X22113000Y-11673600D01*
X22113000Y-11643600D02*
X22083000Y-11673600D01*
X22413200Y-8722600D02*
X22443200Y-8752600D01*
X22443200Y-8722600D02*
X22413200Y-8752600D01*
X22413200Y-13751800D02*
X22443200Y-13781800D01*
X22443200Y-13751800D02*
X22413200Y-13781800D01*
X22489400Y-9738600D02*
X22519400Y-9768600D01*
X22519400Y-9738600D02*
X22489400Y-9768600D01*
X22667200Y-9332200D02*
X22697200Y-9362200D01*
X22697200Y-9332200D02*
X22667200Y-9362200D01*
X22743400Y-8189200D02*
X22773400Y-8219200D01*
X22773400Y-8189200D02*
X22743400Y-8219200D01*
X22794200Y-14183600D02*
X22824200Y-14213600D01*
X22824200Y-14183600D02*
X22794200Y-14213600D01*
X23175200Y-10348200D02*
X23205200Y-10378200D01*
X23205200Y-10348200D02*
X23175200Y-10378200D01*
D13*
X8402000Y-10693400D02*
G75*
G03*
X8402000Y-10693400I-20000J0D01*
G01*
X8529000Y-10693400D02*
G75*
G03*
X8529000Y-10693400I-20000J0D01*
G01*
X9164000Y-9677400D02*
G75*
G03*
X9164000Y-9677400I-20000J0D01*
G01*
X14752000Y-10820400D02*
G75*
G03*
X14752000Y-10820400I-20000J0D01*
G01*
X17693721Y-10917215D02*
G75*
G03*
X17693721Y-10917215I-20000J0D01*
G01*
X17764440Y-11008360D02*
G75*
G03*
X17764440Y-11008360I-20000J0D01*
G01*
X18572160Y-13840460D02*
G75*
G03*
X18572160Y-13840460I-20000J0D01*
G01*
X18674069Y-13896576D02*
G75*
G03*
X18674069Y-13896576I-20000J0D01*
G01*
X19710080Y-11452860D02*
G75*
G03*
X19710080Y-11452860I-20000J0D01*
G01*
D14*
X8382000Y-10003000D02*
X8382000Y-10063000D01*
X8352000Y-10033000D02*
X8412000Y-10033000D01*
X8532000Y-10003000D02*
X8532000Y-10063000D01*
X8502000Y-10033000D02*
X8562000Y-10033000D01*
D15*
X10180928Y-11488078D02*
X10180928Y-11432400D01*
X10125250Y-11432400D01*
X10125250Y-11488078D01*
X10180928Y-11488078D01*
X10434928Y-11488078D02*
X10434928Y-11432400D01*
X10379250Y-11432400D01*
X10379250Y-11488078D01*
X10434928Y-11488078D01*
X10942928Y-11488078D02*
X10942928Y-11432400D01*
X10887250Y-11432400D01*
X10887250Y-11488078D01*
X10942928Y-11488078D01*
X11196928Y-11488078D02*
X11196928Y-11432400D01*
X11141250Y-11432400D01*
X11141250Y-11488078D01*
X11196928Y-11488078D01*
X11450928Y-11488078D02*
X11450928Y-11432400D01*
X11395250Y-11432400D01*
X11395250Y-11488078D01*
X11450928Y-11488078D01*
X11704928Y-11488078D02*
X11704928Y-11432400D01*
X11649250Y-11432400D01*
X11649250Y-11488078D01*
X11704928Y-11488078D01*
X11958928Y-11488078D02*
X11958928Y-11432400D01*
X11903250Y-11432400D01*
X11903250Y-11488078D01*
X11958928Y-11488078D01*
D16*
X9017000Y-10136500D02*
X9057000Y-10096500D01*
X9017000Y-10056500D01*
X8977000Y-10096500D01*
X9017000Y-10136500D01*
X9017000Y-10898500D02*
X9057000Y-10858500D01*
X9017000Y-10818500D01*
X8977000Y-10858500D01*
X9017000Y-10898500D01*
X9779000Y-9438000D02*
X9819000Y-9398000D01*
X9779000Y-9358000D01*
X9739000Y-9398000D01*
X9779000Y-9438000D01*
X9779000Y-10962000D02*
X9819000Y-10922000D01*
X9779000Y-10882000D01*
X9739000Y-10922000D01*
X9779000Y-10962000D01*
X10033000Y-9438000D02*
X10073000Y-9398000D01*
X10033000Y-9358000D01*
X9993000Y-9398000D01*
X10033000Y-9438000D01*
X10033000Y-10962000D02*
X10073000Y-10922000D01*
X10033000Y-10882000D01*
X9993000Y-10922000D01*
X10033000Y-10962000D01*
X10287000Y-9438000D02*
X10327000Y-9398000D01*
X10287000Y-9358000D01*
X10247000Y-9398000D01*
X10287000Y-9438000D01*
X10287000Y-10962000D02*
X10327000Y-10922000D01*
X10287000Y-10882000D01*
X10247000Y-10922000D01*
X10287000Y-10962000D01*
X10541000Y-9438000D02*
X10581000Y-9398000D01*
X10541000Y-9358000D01*
X10501000Y-9398000D01*
X10541000Y-9438000D01*
X10541000Y-10962000D02*
X10581000Y-10922000D01*
X10541000Y-10882000D01*
X10501000Y-10922000D01*
X10541000Y-10962000D01*
X10795000Y-9438000D02*
X10835000Y-9398000D01*
X10795000Y-9358000D01*
X10755000Y-9398000D01*
X10795000Y-9438000D01*
X10795000Y-10962000D02*
X10835000Y-10922000D01*
X10795000Y-10882000D01*
X10755000Y-10922000D01*
X10795000Y-10962000D01*
X11049000Y-9438000D02*
X11089000Y-9398000D01*
X11049000Y-9358000D01*
X11009000Y-9398000D01*
X11049000Y-9438000D01*
X11049000Y-10962000D02*
X11089000Y-10922000D01*
X11049000Y-10882000D01*
X11009000Y-10922000D01*
X11049000Y-10962000D01*
X11303000Y-9438000D02*
X11343000Y-9398000D01*
X11303000Y-9358000D01*
X11263000Y-9398000D01*
X11303000Y-9438000D01*
X11303000Y-10962000D02*
X11343000Y-10922000D01*
X11303000Y-10882000D01*
X11263000Y-10922000D01*
X11303000Y-10962000D01*
X11557000Y-9438000D02*
X11597000Y-9398000D01*
X11557000Y-9358000D01*
X11517000Y-9398000D01*
X11557000Y-9438000D01*
X11557000Y-10962000D02*
X11597000Y-10922000D01*
X11557000Y-10882000D01*
X11517000Y-10922000D01*
X11557000Y-10962000D01*
X11811000Y-9438000D02*
X11851000Y-9398000D01*
X11811000Y-9358000D01*
X11771000Y-9398000D01*
X11811000Y-9438000D01*
X11811000Y-10962000D02*
X11851000Y-10922000D01*
X11811000Y-10882000D01*
X11771000Y-10922000D01*
X11811000Y-10962000D01*
X12065000Y-9438000D02*
X12105000Y-9398000D01*
X12065000Y-9358000D01*
X12025000Y-9398000D01*
X12065000Y-9438000D01*
X12065000Y-10962000D02*
X12105000Y-10922000D01*
X12065000Y-10882000D01*
X12025000Y-10922000D01*
X12065000Y-10962000D01*
X12319000Y-9438000D02*
X12359000Y-9398000D01*
X12319000Y-9358000D01*
X12279000Y-9398000D01*
X12319000Y-9438000D01*
X12319000Y-10962000D02*
X12359000Y-10922000D01*
X12319000Y-10882000D01*
X12279000Y-10922000D01*
X12319000Y-10962000D01*
X12573000Y-9438000D02*
X12613000Y-9398000D01*
X12573000Y-9358000D01*
X12533000Y-9398000D01*
X12573000Y-9438000D01*
X12573000Y-10962000D02*
X12613000Y-10922000D01*
X12573000Y-10882000D01*
X12533000Y-10922000D01*
X12573000Y-10962000D01*
X12827000Y-9438000D02*
X12867000Y-9398000D01*
X12827000Y-9358000D01*
X12787000Y-9398000D01*
X12827000Y-9438000D01*
X12827000Y-10962000D02*
X12867000Y-10922000D01*
X12827000Y-10882000D01*
X12787000Y-10922000D01*
X12827000Y-10962000D01*
X13081000Y-9438000D02*
X13121000Y-9398000D01*
X13081000Y-9358000D01*
X13041000Y-9398000D01*
X13081000Y-9438000D01*
X13081000Y-10962000D02*
X13121000Y-10922000D01*
X13081000Y-10882000D01*
X13041000Y-10922000D01*
X13081000Y-10962000D01*
X13335000Y-9438000D02*
X13375000Y-9398000D01*
X13335000Y-9358000D01*
X13295000Y-9398000D01*
X13335000Y-9438000D01*
X13335000Y-10962000D02*
X13375000Y-10922000D01*
X13335000Y-10882000D01*
X13295000Y-10922000D01*
X13335000Y-10962000D01*
X13589000Y-9438000D02*
X13629000Y-9398000D01*
X13589000Y-9358000D01*
X13549000Y-9398000D01*
X13589000Y-9438000D01*
X13589000Y-10962000D02*
X13629000Y-10922000D01*
X13589000Y-10882000D01*
X13549000Y-10922000D01*
X13589000Y-10962000D01*
X13843000Y-9438000D02*
X13883000Y-9398000D01*
X13843000Y-9358000D01*
X13803000Y-9398000D01*
X13843000Y-9438000D01*
X13843000Y-10962000D02*
X13883000Y-10922000D01*
X13843000Y-10882000D01*
X13803000Y-10922000D01*
X13843000Y-10962000D01*
X14097000Y-9438000D02*
X14137000Y-9398000D01*
X14097000Y-9358000D01*
X14057000Y-9398000D01*
X14097000Y-9438000D01*
X14097000Y-10962000D02*
X14137000Y-10922000D01*
X14097000Y-10882000D01*
X14057000Y-10922000D01*
X14097000Y-10962000D01*
X14351000Y-9438000D02*
X14391000Y-9398000D01*
X14351000Y-9358000D01*
X14311000Y-9398000D01*
X14351000Y-9438000D01*
X14351000Y-10962000D02*
X14391000Y-10922000D01*
X14351000Y-10882000D01*
X14311000Y-10922000D01*
X14351000Y-10962000D01*
X14605000Y-9438000D02*
X14645000Y-9398000D01*
X14605000Y-9358000D01*
X14565000Y-9398000D01*
X14605000Y-9438000D01*
X14605000Y-10962000D02*
X14645000Y-10922000D01*
X14605000Y-10882000D01*
X14565000Y-10922000D01*
X14605000Y-10962000D01*
X14986000Y-10458000D02*
X15026000Y-10418000D01*
X14986000Y-10378000D01*
X14946000Y-10418000D01*
X14986000Y-10458000D01*
X14986000Y-10958000D02*
X15026000Y-10918000D01*
X14986000Y-10878000D01*
X14946000Y-10918000D01*
X14986000Y-10958000D01*
X22352000Y-10530200D02*
X22392000Y-10490200D01*
X22352000Y-10450200D01*
X22312000Y-10490200D01*
X22352000Y-10530200D01*
X22606000Y-10276200D02*
X22646000Y-10236200D01*
X22606000Y-10196200D01*
X22566000Y-10236200D01*
X22606000Y-10276200D01*
X22860000Y-10530200D02*
X22900000Y-10490200D01*
X22860000Y-10450200D01*
X22820000Y-10490200D01*
X22860000Y-10530200D01*
D17*
X8970800Y-9530800D02*
X9060800Y-9620800D01*
X9060800Y-9530800D02*
X8970800Y-9620800D01*
X9060800Y-9575800D02*
G75*
G03*
X9060800Y-9575800I-45000J0D01*
G01*
X8970800Y-9784800D02*
X9060800Y-9874800D01*
X9060800Y-9784800D02*
X8970800Y-9874800D01*
X9060800Y-9829800D02*
G75*
G03*
X9060800Y-9829800I-45000J0D01*
G01*
D10*
X6808000Y-5030000D02*
X6908000Y-5130000D01*
X6908000Y-5030000D02*
X6808000Y-5130000D01*
X6858000Y-5030000D02*
X6858000Y-5130000D01*
X6808000Y-5080000D02*
X6908000Y-5080000D01*
X6808000Y-5284000D02*
X6908000Y-5384000D01*
X6908000Y-5284000D02*
X6808000Y-5384000D01*
X6858000Y-5284000D02*
X6858000Y-5384000D01*
X6808000Y-5334000D02*
X6908000Y-5334000D01*
X6808000Y-5538000D02*
X6908000Y-5638000D01*
X6908000Y-5538000D02*
X6808000Y-5638000D01*
X6858000Y-5538000D02*
X6858000Y-5638000D01*
X6808000Y-5588000D02*
X6908000Y-5588000D01*
X6808000Y-5792000D02*
X6908000Y-5892000D01*
X6908000Y-5792000D02*
X6808000Y-5892000D01*
X6858000Y-5792000D02*
X6858000Y-5892000D01*
X6808000Y-5842000D02*
X6908000Y-5842000D01*
X6808000Y-6046000D02*
X6908000Y-6146000D01*
X6908000Y-6046000D02*
X6808000Y-6146000D01*
X6858000Y-6046000D02*
X6858000Y-6146000D01*
X6808000Y-6096000D02*
X6908000Y-6096000D01*
X6808000Y-6300000D02*
X6908000Y-6400000D01*
X6908000Y-6300000D02*
X6808000Y-6400000D01*
X6858000Y-6300000D02*
X6858000Y-6400000D01*
X6808000Y-6350000D02*
X6908000Y-6350000D01*
X6808000Y-6554000D02*
X6908000Y-6654000D01*
X6908000Y-6554000D02*
X6808000Y-6654000D01*
X6858000Y-6554000D02*
X6858000Y-6654000D01*
X6808000Y-6604000D02*
X6908000Y-6604000D01*
X6808000Y-6808000D02*
X6908000Y-6908000D01*
X6908000Y-6808000D02*
X6808000Y-6908000D01*
X6858000Y-6808000D02*
X6858000Y-6908000D01*
X6808000Y-6858000D02*
X6908000Y-6858000D01*
X6808000Y-7062000D02*
X6908000Y-7162000D01*
X6908000Y-7062000D02*
X6808000Y-7162000D01*
X6858000Y-7062000D02*
X6858000Y-7162000D01*
X6808000Y-7112000D02*
X6908000Y-7112000D01*
X6808000Y-7316000D02*
X6908000Y-7416000D01*
X6908000Y-7316000D02*
X6808000Y-7416000D01*
X6858000Y-7316000D02*
X6858000Y-7416000D01*
X6808000Y-7366000D02*
X6908000Y-7366000D01*
X6808000Y-7570000D02*
X6908000Y-7670000D01*
X6908000Y-7570000D02*
X6808000Y-7670000D01*
X6858000Y-7570000D02*
X6858000Y-7670000D01*
X6808000Y-7620000D02*
X6908000Y-7620000D01*
X6808000Y-7824000D02*
X6908000Y-7924000D01*
X6908000Y-7824000D02*
X6808000Y-7924000D01*
X6858000Y-7824000D02*
X6858000Y-7924000D01*
X6808000Y-7874000D02*
X6908000Y-7874000D01*
X6808000Y-8078000D02*
X6908000Y-8178000D01*
X6908000Y-8078000D02*
X6808000Y-8178000D01*
X6858000Y-8078000D02*
X6858000Y-8178000D01*
X6808000Y-8128000D02*
X6908000Y-8128000D01*
X6808000Y-8332000D02*
X6908000Y-8432000D01*
X6908000Y-8332000D02*
X6808000Y-8432000D01*
X6858000Y-8332000D02*
X6858000Y-8432000D01*
X6808000Y-8382000D02*
X6908000Y-8382000D01*
X6808000Y-8586000D02*
X6908000Y-8686000D01*
X6908000Y-8586000D02*
X6808000Y-8686000D01*
X6858000Y-8586000D02*
X6858000Y-8686000D01*
X6808000Y-8636000D02*
X6908000Y-8636000D01*
X6808000Y-8840000D02*
X6908000Y-8940000D01*
X6908000Y-8840000D02*
X6808000Y-8940000D01*
X6858000Y-8840000D02*
X6858000Y-8940000D01*
X6808000Y-8890000D02*
X6908000Y-8890000D01*
X6808000Y-9094000D02*
X6908000Y-9194000D01*
X6908000Y-9094000D02*
X6808000Y-9194000D01*
X6858000Y-9094000D02*
X6858000Y-9194000D01*
X6808000Y-9144000D02*
X6908000Y-9144000D01*
X6808000Y-9348000D02*
X6908000Y-9448000D01*
X6908000Y-9348000D02*
X6808000Y-9448000D01*
X6858000Y-9348000D02*
X6858000Y-9448000D01*
X6808000Y-9398000D02*
X6908000Y-9398000D01*
X7062000Y-5030000D02*
X7162000Y-5130000D01*
X7162000Y-5030000D02*
X7062000Y-5130000D01*
X7112000Y-5030000D02*
X7112000Y-5130000D01*
X7062000Y-5080000D02*
X7162000Y-5080000D01*
X7062000Y-5284000D02*
X7162000Y-5384000D01*
X7162000Y-5284000D02*
X7062000Y-5384000D01*
X7112000Y-5284000D02*
X7112000Y-5384000D01*
X7062000Y-5334000D02*
X7162000Y-5334000D01*
X7062000Y-5538000D02*
X7162000Y-5638000D01*
X7162000Y-5538000D02*
X7062000Y-5638000D01*
X7112000Y-5538000D02*
X7112000Y-5638000D01*
X7062000Y-5588000D02*
X7162000Y-5588000D01*
X7062000Y-5792000D02*
X7162000Y-5892000D01*
X7162000Y-5792000D02*
X7062000Y-5892000D01*
X7112000Y-5792000D02*
X7112000Y-5892000D01*
X7062000Y-5842000D02*
X7162000Y-5842000D01*
X7062000Y-6046000D02*
X7162000Y-6146000D01*
X7162000Y-6046000D02*
X7062000Y-6146000D01*
X7112000Y-6046000D02*
X7112000Y-6146000D01*
X7062000Y-6096000D02*
X7162000Y-6096000D01*
X7062000Y-6300000D02*
X7162000Y-6400000D01*
X7162000Y-6300000D02*
X7062000Y-6400000D01*
X7112000Y-6300000D02*
X7112000Y-6400000D01*
X7062000Y-6350000D02*
X7162000Y-6350000D01*
X7062000Y-6554000D02*
X7162000Y-6654000D01*
X7162000Y-6554000D02*
X7062000Y-6654000D01*
X7112000Y-6554000D02*
X7112000Y-6654000D01*
X7062000Y-6604000D02*
X7162000Y-6604000D01*
X7062000Y-6808000D02*
X7162000Y-6908000D01*
X7162000Y-6808000D02*
X7062000Y-6908000D01*
X7112000Y-6808000D02*
X7112000Y-6908000D01*
X7062000Y-6858000D02*
X7162000Y-6858000D01*
X7062000Y-7062000D02*
X7162000Y-7162000D01*
X7162000Y-7062000D02*
X7062000Y-7162000D01*
X7112000Y-7062000D02*
X7112000Y-7162000D01*
X7062000Y-7112000D02*
X7162000Y-7112000D01*
X7062000Y-7316000D02*
X7162000Y-7416000D01*
X7162000Y-7316000D02*
X7062000Y-7416000D01*
X7112000Y-7316000D02*
X7112000Y-7416000D01*
X7062000Y-7366000D02*
X7162000Y-7366000D01*
X7062000Y-7570000D02*
X7162000Y-7670000D01*
X7162000Y-7570000D02*
X7062000Y-7670000D01*
X7112000Y-7570000D02*
X7112000Y-7670000D01*
X7062000Y-7620000D02*
X7162000Y-7620000D01*
X7062000Y-7824000D02*
X7162000Y-7924000D01*
X7162000Y-7824000D02*
X7062000Y-7924000D01*
X7112000Y-7824000D02*
X7112000Y-7924000D01*
X7062000Y-7874000D02*
X7162000Y-7874000D01*
X7062000Y-8078000D02*
X7162000Y-8178000D01*
X7162000Y-8078000D02*
X7062000Y-8178000D01*
X7112000Y-8078000D02*
X7112000Y-8178000D01*
X7062000Y-8128000D02*
X7162000Y-8128000D01*
X7062000Y-8332000D02*
X7162000Y-8432000D01*
X7162000Y-8332000D02*
X7062000Y-8432000D01*
X7112000Y-8332000D02*
X7112000Y-8432000D01*
X7062000Y-8382000D02*
X7162000Y-8382000D01*
X7062000Y-8586000D02*
X7162000Y-8686000D01*
X7162000Y-8586000D02*
X7062000Y-8686000D01*
X7112000Y-8586000D02*
X7112000Y-8686000D01*
X7062000Y-8636000D02*
X7162000Y-8636000D01*
X7062000Y-8840000D02*
X7162000Y-8940000D01*
X7162000Y-8840000D02*
X7062000Y-8940000D01*
X7112000Y-8840000D02*
X7112000Y-8940000D01*
X7062000Y-8890000D02*
X7162000Y-8890000D01*
X7062000Y-9094000D02*
X7162000Y-9194000D01*
X7162000Y-9094000D02*
X7062000Y-9194000D01*
X7112000Y-9094000D02*
X7112000Y-9194000D01*
X7062000Y-9144000D02*
X7162000Y-9144000D01*
X7062000Y-9348000D02*
X7162000Y-9448000D01*
X7162000Y-9348000D02*
X7062000Y-9448000D01*
X7112000Y-9348000D02*
X7112000Y-9448000D01*
X7062000Y-9398000D02*
X7162000Y-9398000D01*
X7062000Y-14803000D02*
X7162000Y-14903000D01*
X7162000Y-14803000D02*
X7062000Y-14903000D01*
X7112000Y-14803000D02*
X7112000Y-14903000D01*
X7062000Y-14853000D02*
X7162000Y-14853000D01*
X7316000Y-14803000D02*
X7416000Y-14903000D01*
X7416000Y-14803000D02*
X7316000Y-14903000D01*
X7366000Y-14803000D02*
X7366000Y-14903000D01*
X7316000Y-14853000D02*
X7416000Y-14853000D01*
X7343940Y-10446050D02*
X7443940Y-10546050D01*
X7443940Y-10446050D02*
X7343940Y-10546050D01*
X7393940Y-10446050D02*
X7393940Y-10546050D01*
X7343940Y-10496050D02*
X7443940Y-10496050D01*
D11*
X7343940Y-10396050D02*
X7343940Y-10596050D01*
X7443940Y-10396050D02*
X7443940Y-10596050D01*
X7343940Y-10596050D02*
G75*
G03*
X7443940Y-10596050I50000J0D01*
G01*
X7443940Y-10396050D02*
G75*
G03*
X7343940Y-10396050I-50000J0D01*
G01*
D10*
X7570000Y-14803000D02*
X7670000Y-14903000D01*
X7670000Y-14803000D02*
X7570000Y-14903000D01*
X7620000Y-14803000D02*
X7620000Y-14903000D01*
X7570000Y-14853000D02*
X7670000Y-14853000D01*
X7643940Y-10916050D02*
X7743940Y-11016050D01*
X7743940Y-10916050D02*
X7643940Y-11016050D01*
X7693940Y-10916050D02*
X7693940Y-11016050D01*
X7643940Y-10966050D02*
X7743940Y-10966050D01*
D11*
X7593940Y-11016050D02*
X7793940Y-11016050D01*
X7593940Y-10916050D02*
X7793940Y-10916050D01*
X7793940Y-11016050D02*
G75*
G03*
X7793940Y-10916050I0J50000D01*
G01*
X7593940Y-10916050D02*
G75*
G03*
X7593940Y-11016050I0J-50000D01*
G01*
D10*
X7808600Y-9338000D02*
X7908600Y-9438000D01*
X7908600Y-9338000D02*
X7808600Y-9438000D01*
X7858600Y-9338000D02*
X7858600Y-9438000D01*
X7808600Y-9388000D02*
X7908600Y-9388000D01*
X7824000Y-14803000D02*
X7924000Y-14903000D01*
X7924000Y-14803000D02*
X7824000Y-14903000D01*
X7874000Y-14803000D02*
X7874000Y-14903000D01*
X7824000Y-14853000D02*
X7924000Y-14853000D01*
X7943940Y-10446050D02*
X8043940Y-10546050D01*
X8043940Y-10446050D02*
X7943940Y-10546050D01*
X7993940Y-10446050D02*
X7993940Y-10546050D01*
X7943940Y-10496050D02*
X8043940Y-10496050D01*
D11*
X7943940Y-10396050D02*
X7943940Y-10596050D01*
X8043940Y-10396050D02*
X8043940Y-10596050D01*
X7943940Y-10596050D02*
G75*
G03*
X8043940Y-10596050I50000J0D01*
G01*
X8043940Y-10396050D02*
G75*
G03*
X7943940Y-10396050I-50000J0D01*
G01*
D10*
X8062600Y-9338000D02*
X8162600Y-9438000D01*
X8162600Y-9338000D02*
X8062600Y-9438000D01*
X8112600Y-9338000D02*
X8112600Y-9438000D01*
X8062600Y-9388000D02*
X8162600Y-9388000D01*
X8078000Y-14803000D02*
X8178000Y-14903000D01*
X8178000Y-14803000D02*
X8078000Y-14903000D01*
X8128000Y-14803000D02*
X8128000Y-14903000D01*
X8078000Y-14853000D02*
X8178000Y-14853000D01*
X8332000Y-14803000D02*
X8432000Y-14903000D01*
X8432000Y-14803000D02*
X8332000Y-14903000D01*
X8382000Y-14803000D02*
X8382000Y-14903000D01*
X8332000Y-14853000D02*
X8432000Y-14853000D01*
X8586000Y-14803000D02*
X8686000Y-14903000D01*
X8686000Y-14803000D02*
X8586000Y-14903000D01*
X8636000Y-14803000D02*
X8636000Y-14903000D01*
X8586000Y-14853000D02*
X8686000Y-14853000D01*
X8840000Y-14803000D02*
X8940000Y-14903000D01*
X8940000Y-14803000D02*
X8840000Y-14903000D01*
X8890000Y-14803000D02*
X8890000Y-14903000D01*
X8840000Y-14853000D02*
X8940000Y-14853000D01*
X9094000Y-14803000D02*
X9194000Y-14903000D01*
X9194000Y-14803000D02*
X9094000Y-14903000D01*
X9144000Y-14803000D02*
X9144000Y-14903000D01*
X9094000Y-14853000D02*
X9194000Y-14853000D01*
X9345600Y-8420900D02*
X9445600Y-8520900D01*
X9445600Y-8420900D02*
X9345600Y-8520900D01*
X9395600Y-8420900D02*
X9395600Y-8520900D01*
X9345600Y-8470900D02*
X9445600Y-8470900D01*
X9348000Y-14803000D02*
X9448000Y-14903000D01*
X9448000Y-14803000D02*
X9348000Y-14903000D01*
X9398000Y-14803000D02*
X9398000Y-14903000D01*
X9348000Y-14853000D02*
X9448000Y-14853000D01*
X9595089Y-11410239D02*
X9695089Y-11510239D01*
X9695089Y-11410239D02*
X9595089Y-11510239D01*
X9645089Y-11410239D02*
X9645089Y-11510239D01*
X9595089Y-11460239D02*
X9695089Y-11460239D01*
X9599600Y-8420900D02*
X9699600Y-8520900D01*
X9699600Y-8420900D02*
X9599600Y-8520900D01*
X9649600Y-8420900D02*
X9649600Y-8520900D01*
X9599600Y-8470900D02*
X9699600Y-8470900D01*
X9602000Y-14803000D02*
X9702000Y-14903000D01*
X9702000Y-14803000D02*
X9602000Y-14903000D01*
X9652000Y-14803000D02*
X9652000Y-14903000D01*
X9602000Y-14853000D02*
X9702000Y-14853000D01*
X9849089Y-11410239D02*
X9949089Y-11510239D01*
X9949089Y-11410239D02*
X9849089Y-11510239D01*
X9899089Y-11410239D02*
X9899089Y-11510239D01*
X9849089Y-11460239D02*
X9949089Y-11460239D01*
X9853600Y-8420900D02*
X9953600Y-8520900D01*
X9953600Y-8420900D02*
X9853600Y-8520900D01*
X9903600Y-8420900D02*
X9903600Y-8520900D01*
X9853600Y-8470900D02*
X9953600Y-8470900D01*
X9856000Y-14803000D02*
X9956000Y-14903000D01*
X9956000Y-14803000D02*
X9856000Y-14903000D01*
X9906000Y-14803000D02*
X9906000Y-14903000D01*
X9856000Y-14853000D02*
X9956000Y-14853000D01*
X10107600Y-8420900D02*
X10207600Y-8520900D01*
X10207600Y-8420900D02*
X10107600Y-8520900D01*
X10157600Y-8420900D02*
X10157600Y-8520900D01*
X10107600Y-8470900D02*
X10207600Y-8470900D01*
X10110000Y-14803000D02*
X10210000Y-14903000D01*
X10210000Y-14803000D02*
X10110000Y-14903000D01*
X10160000Y-14803000D02*
X10160000Y-14903000D01*
X10110000Y-14853000D02*
X10210000Y-14853000D01*
X10361600Y-8420900D02*
X10461600Y-8520900D01*
X10461600Y-8420900D02*
X10361600Y-8520900D01*
X10411600Y-8420900D02*
X10411600Y-8520900D01*
X10361600Y-8470900D02*
X10461600Y-8470900D01*
X10364000Y-14803000D02*
X10464000Y-14903000D01*
X10464000Y-14803000D02*
X10364000Y-14903000D01*
X10414000Y-14803000D02*
X10414000Y-14903000D01*
X10364000Y-14853000D02*
X10464000Y-14853000D01*
X10611089Y-11410239D02*
X10711089Y-11510239D01*
X10711089Y-11410239D02*
X10611089Y-11510239D01*
X10661089Y-11410239D02*
X10661089Y-11510239D01*
X10611089Y-11460239D02*
X10711089Y-11460239D01*
X10615600Y-8420900D02*
X10715600Y-8520900D01*
X10715600Y-8420900D02*
X10615600Y-8520900D01*
X10665600Y-8420900D02*
X10665600Y-8520900D01*
X10615600Y-8470900D02*
X10715600Y-8470900D01*
X10618000Y-14803000D02*
X10718000Y-14903000D01*
X10718000Y-14803000D02*
X10618000Y-14903000D01*
X10668000Y-14803000D02*
X10668000Y-14903000D01*
X10618000Y-14853000D02*
X10718000Y-14853000D01*
X10869600Y-8420900D02*
X10969600Y-8520900D01*
X10969600Y-8420900D02*
X10869600Y-8520900D01*
X10919600Y-8420900D02*
X10919600Y-8520900D01*
X10869600Y-8470900D02*
X10969600Y-8470900D01*
X10872000Y-14803000D02*
X10972000Y-14903000D01*
X10972000Y-14803000D02*
X10872000Y-14903000D01*
X10922000Y-14803000D02*
X10922000Y-14903000D01*
X10872000Y-14853000D02*
X10972000Y-14853000D01*
X11123600Y-8420900D02*
X11223600Y-8520900D01*
X11223600Y-8420900D02*
X11123600Y-8520900D01*
X11173600Y-8420900D02*
X11173600Y-8520900D01*
X11123600Y-8470900D02*
X11223600Y-8470900D01*
X11126000Y-14803000D02*
X11226000Y-14903000D01*
X11226000Y-14803000D02*
X11126000Y-14903000D01*
X11176000Y-14803000D02*
X11176000Y-14903000D01*
X11126000Y-14853000D02*
X11226000Y-14853000D01*
X11377600Y-8420900D02*
X11477600Y-8520900D01*
X11477600Y-8420900D02*
X11377600Y-8520900D01*
X11427600Y-8420900D02*
X11427600Y-8520900D01*
X11377600Y-8470900D02*
X11477600Y-8470900D01*
X11380000Y-14803000D02*
X11480000Y-14903000D01*
X11480000Y-14803000D02*
X11380000Y-14903000D01*
X11430000Y-14803000D02*
X11430000Y-14903000D01*
X11380000Y-14853000D02*
X11480000Y-14853000D01*
X11631600Y-8420900D02*
X11731600Y-8520900D01*
X11731600Y-8420900D02*
X11631600Y-8520900D01*
X11681600Y-8420900D02*
X11681600Y-8520900D01*
X11631600Y-8470900D02*
X11731600Y-8470900D01*
X11634000Y-14803000D02*
X11734000Y-14903000D01*
X11734000Y-14803000D02*
X11634000Y-14903000D01*
X11684000Y-14803000D02*
X11684000Y-14903000D01*
X11634000Y-14853000D02*
X11734000Y-14853000D01*
X11885600Y-8420900D02*
X11985600Y-8520900D01*
X11985600Y-8420900D02*
X11885600Y-8520900D01*
X11935600Y-8420900D02*
X11935600Y-8520900D01*
X11885600Y-8470900D02*
X11985600Y-8470900D01*
X11888000Y-14803000D02*
X11988000Y-14903000D01*
X11988000Y-14803000D02*
X11888000Y-14903000D01*
X11938000Y-14803000D02*
X11938000Y-14903000D01*
X11888000Y-14853000D02*
X11988000Y-14853000D01*
X12135089Y-11410239D02*
X12235089Y-11510239D01*
X12235089Y-11410239D02*
X12135089Y-11510239D01*
X12185089Y-11410239D02*
X12185089Y-11510239D01*
X12135089Y-11460239D02*
X12235089Y-11460239D01*
X12139600Y-8420900D02*
X12239600Y-8520900D01*
X12239600Y-8420900D02*
X12139600Y-8520900D01*
X12189600Y-8420900D02*
X12189600Y-8520900D01*
X12139600Y-8470900D02*
X12239600Y-8470900D01*
X12142000Y-14803000D02*
X12242000Y-14903000D01*
X12242000Y-14803000D02*
X12142000Y-14903000D01*
X12192000Y-14803000D02*
X12192000Y-14903000D01*
X12142000Y-14853000D02*
X12242000Y-14853000D01*
X12389089Y-11410239D02*
X12489089Y-11510239D01*
X12489089Y-11410239D02*
X12389089Y-11510239D01*
X12439089Y-11410239D02*
X12439089Y-11510239D01*
X12389089Y-11460239D02*
X12489089Y-11460239D01*
X12393600Y-8420900D02*
X12493600Y-8520900D01*
X12493600Y-8420900D02*
X12393600Y-8520900D01*
X12443600Y-8420900D02*
X12443600Y-8520900D01*
X12393600Y-8470900D02*
X12493600Y-8470900D01*
X12396000Y-14803000D02*
X12496000Y-14903000D01*
X12496000Y-14803000D02*
X12396000Y-14903000D01*
X12446000Y-14803000D02*
X12446000Y-14903000D01*
X12396000Y-14853000D02*
X12496000Y-14853000D01*
X12643089Y-11410239D02*
X12743089Y-11510239D01*
X12743089Y-11410239D02*
X12643089Y-11510239D01*
X12693089Y-11410239D02*
X12693089Y-11510239D01*
X12643089Y-11460239D02*
X12743089Y-11460239D01*
X12647600Y-8420900D02*
X12747600Y-8520900D01*
X12747600Y-8420900D02*
X12647600Y-8520900D01*
X12697600Y-8420900D02*
X12697600Y-8520900D01*
X12647600Y-8470900D02*
X12747600Y-8470900D01*
X12650000Y-14803000D02*
X12750000Y-14903000D01*
X12750000Y-14803000D02*
X12650000Y-14903000D01*
X12700000Y-14803000D02*
X12700000Y-14903000D01*
X12650000Y-14853000D02*
X12750000Y-14853000D01*
X12901600Y-8420900D02*
X13001600Y-8520900D01*
X13001600Y-8420900D02*
X12901600Y-8520900D01*
X12951600Y-8420900D02*
X12951600Y-8520900D01*
X12901600Y-8470900D02*
X13001600Y-8470900D01*
X12904000Y-14803000D02*
X13004000Y-14903000D01*
X13004000Y-14803000D02*
X12904000Y-14903000D01*
X12954000Y-14803000D02*
X12954000Y-14903000D01*
X12904000Y-14853000D02*
X13004000Y-14853000D01*
X13155600Y-8420900D02*
X13255600Y-8520900D01*
X13255600Y-8420900D02*
X13155600Y-8520900D01*
X13205600Y-8420900D02*
X13205600Y-8520900D01*
X13155600Y-8470900D02*
X13255600Y-8470900D01*
X13158000Y-14803000D02*
X13258000Y-14903000D01*
X13258000Y-14803000D02*
X13158000Y-14903000D01*
X13208000Y-14803000D02*
X13208000Y-14903000D01*
X13158000Y-14853000D02*
X13258000Y-14853000D01*
X13409600Y-8420900D02*
X13509600Y-8520900D01*
X13509600Y-8420900D02*
X13409600Y-8520900D01*
X13459600Y-8420900D02*
X13459600Y-8520900D01*
X13409600Y-8470900D02*
X13509600Y-8470900D01*
X13412000Y-14803000D02*
X13512000Y-14903000D01*
X13512000Y-14803000D02*
X13412000Y-14903000D01*
X13462000Y-14803000D02*
X13462000Y-14903000D01*
X13412000Y-14853000D02*
X13512000Y-14853000D01*
X13663600Y-8420900D02*
X13763600Y-8520900D01*
X13763600Y-8420900D02*
X13663600Y-8520900D01*
X13713600Y-8420900D02*
X13713600Y-8520900D01*
X13663600Y-8470900D02*
X13763600Y-8470900D01*
X13666000Y-14803000D02*
X13766000Y-14903000D01*
X13766000Y-14803000D02*
X13666000Y-14903000D01*
X13716000Y-14803000D02*
X13716000Y-14903000D01*
X13666000Y-14853000D02*
X13766000Y-14853000D01*
X13917600Y-8420900D02*
X14017600Y-8520900D01*
X14017600Y-8420900D02*
X13917600Y-8520900D01*
X13967600Y-8420900D02*
X13967600Y-8520900D01*
X13917600Y-8470900D02*
X14017600Y-8470900D01*
X13920000Y-14803000D02*
X14020000Y-14903000D01*
X14020000Y-14803000D02*
X13920000Y-14903000D01*
X13970000Y-14803000D02*
X13970000Y-14903000D01*
X13920000Y-14853000D02*
X14020000Y-14853000D01*
X14171600Y-8420900D02*
X14271600Y-8520900D01*
X14271600Y-8420900D02*
X14171600Y-8520900D01*
X14221600Y-8420900D02*
X14221600Y-8520900D01*
X14171600Y-8470900D02*
X14271600Y-8470900D01*
X14174000Y-14803000D02*
X14274000Y-14903000D01*
X14274000Y-14803000D02*
X14174000Y-14903000D01*
X14224000Y-14803000D02*
X14224000Y-14903000D01*
X14174000Y-14853000D02*
X14274000Y-14853000D01*
X14425600Y-8420900D02*
X14525600Y-8520900D01*
X14525600Y-8420900D02*
X14425600Y-8520900D01*
X14475600Y-8420900D02*
X14475600Y-8520900D01*
X14425600Y-8470900D02*
X14525600Y-8470900D01*
X14428000Y-14803000D02*
X14528000Y-14903000D01*
X14528000Y-14803000D02*
X14428000Y-14903000D01*
X14478000Y-14803000D02*
X14478000Y-14903000D01*
X14428000Y-14853000D02*
X14528000Y-14853000D01*
X14679600Y-8420900D02*
X14779600Y-8520900D01*
X14779600Y-8420900D02*
X14679600Y-8520900D01*
X14729600Y-8420900D02*
X14729600Y-8520900D01*
X14679600Y-8470900D02*
X14779600Y-8470900D01*
X14682000Y-14803000D02*
X14782000Y-14903000D01*
X14782000Y-14803000D02*
X14682000Y-14903000D01*
X14732000Y-14803000D02*
X14732000Y-14903000D01*
X14682000Y-14853000D02*
X14782000Y-14853000D01*
X14933600Y-8420900D02*
X15033600Y-8520900D01*
X15033600Y-8420900D02*
X14933600Y-8520900D01*
X14983600Y-8420900D02*
X14983600Y-8520900D01*
X14933600Y-8470900D02*
X15033600Y-8470900D01*
X14936000Y-14803000D02*
X15036000Y-14903000D01*
X15036000Y-14803000D02*
X14936000Y-14903000D01*
X14986000Y-14803000D02*
X14986000Y-14903000D01*
X14936000Y-14853000D02*
X15036000Y-14853000D01*
X15187600Y-8420900D02*
X15287600Y-8520900D01*
X15287600Y-8420900D02*
X15187600Y-8520900D01*
X15237600Y-8420900D02*
X15237600Y-8520900D01*
X15187600Y-8470900D02*
X15287600Y-8470900D01*
X15190000Y-14803000D02*
X15290000Y-14903000D01*
X15290000Y-14803000D02*
X15190000Y-14903000D01*
X15240000Y-14803000D02*
X15240000Y-14903000D01*
X15190000Y-14853000D02*
X15290000Y-14853000D01*
X15441600Y-8420900D02*
X15541600Y-8520900D01*
X15541600Y-8420900D02*
X15441600Y-8520900D01*
X15491600Y-8420900D02*
X15491600Y-8520900D01*
X15441600Y-8470900D02*
X15541600Y-8470900D01*
X15444000Y-14803000D02*
X15544000Y-14903000D01*
X15544000Y-14803000D02*
X15444000Y-14903000D01*
X15494000Y-14803000D02*
X15494000Y-14903000D01*
X15444000Y-14853000D02*
X15544000Y-14853000D01*
X15695600Y-8420900D02*
X15795600Y-8520900D01*
X15795600Y-8420900D02*
X15695600Y-8520900D01*
X15745600Y-8420900D02*
X15745600Y-8520900D01*
X15695600Y-8470900D02*
X15795600Y-8470900D01*
X15698000Y-14803000D02*
X15798000Y-14903000D01*
X15798000Y-14803000D02*
X15698000Y-14903000D01*
X15748000Y-14803000D02*
X15748000Y-14903000D01*
X15698000Y-14853000D02*
X15798000Y-14853000D01*
X15949600Y-8420900D02*
X16049600Y-8520900D01*
X16049600Y-8420900D02*
X15949600Y-8520900D01*
X15999600Y-8420900D02*
X15999600Y-8520900D01*
X15949600Y-8470900D02*
X16049600Y-8470900D01*
X15952000Y-14803000D02*
X16052000Y-14903000D01*
X16052000Y-14803000D02*
X15952000Y-14903000D01*
X16002000Y-14803000D02*
X16002000Y-14903000D01*
X15952000Y-14853000D02*
X16052000Y-14853000D01*
X16203600Y-8420900D02*
X16303600Y-8520900D01*
X16303600Y-8420900D02*
X16203600Y-8520900D01*
X16253600Y-8420900D02*
X16253600Y-8520900D01*
X16203600Y-8470900D02*
X16303600Y-8470900D01*
X16206000Y-14803000D02*
X16306000Y-14903000D01*
X16306000Y-14803000D02*
X16206000Y-14903000D01*
X16256000Y-14803000D02*
X16256000Y-14903000D01*
X16206000Y-14853000D02*
X16306000Y-14853000D01*
X16457600Y-8420900D02*
X16557600Y-8520900D01*
X16557600Y-8420900D02*
X16457600Y-8520900D01*
X16507600Y-8420900D02*
X16507600Y-8520900D01*
X16457600Y-8470900D02*
X16557600Y-8470900D01*
X16460000Y-14803000D02*
X16560000Y-14903000D01*
X16560000Y-14803000D02*
X16460000Y-14903000D01*
X16510000Y-14803000D02*
X16510000Y-14903000D01*
X16460000Y-14853000D02*
X16560000Y-14853000D01*
X16462500Y-9603000D02*
X16562500Y-9703000D01*
X16562500Y-9603000D02*
X16462500Y-9703000D01*
X16512500Y-9603000D02*
X16512500Y-9703000D01*
X16462500Y-9653000D02*
X16562500Y-9653000D01*
X16462500Y-9857000D02*
X16562500Y-9957000D01*
X16562500Y-9857000D02*
X16462500Y-9957000D01*
X16512500Y-9857000D02*
X16512500Y-9957000D01*
X16462500Y-9907000D02*
X16562500Y-9907000D01*
X16462500Y-10111000D02*
X16562500Y-10211000D01*
X16562500Y-10111000D02*
X16462500Y-10211000D01*
X16512500Y-10111000D02*
X16512500Y-10211000D01*
X16462500Y-10161000D02*
X16562500Y-10161000D01*
X16462500Y-10365000D02*
X16562500Y-10465000D01*
X16562500Y-10365000D02*
X16462500Y-10465000D01*
X16512500Y-10365000D02*
X16512500Y-10465000D01*
X16462500Y-10415000D02*
X16562500Y-10415000D01*
X16711600Y-8420900D02*
X16811600Y-8520900D01*
X16811600Y-8420900D02*
X16711600Y-8520900D01*
X16761600Y-8420900D02*
X16761600Y-8520900D01*
X16711600Y-8470900D02*
X16811600Y-8470900D01*
X16714000Y-14803000D02*
X16814000Y-14903000D01*
X16814000Y-14803000D02*
X16714000Y-14903000D01*
X16764000Y-14803000D02*
X16764000Y-14903000D01*
X16714000Y-14853000D02*
X16814000Y-14853000D01*
X16965600Y-8420900D02*
X17065600Y-8520900D01*
X17065600Y-8420900D02*
X16965600Y-8520900D01*
X17015600Y-8420900D02*
X17015600Y-8520900D01*
X16965600Y-8470900D02*
X17065600Y-8470900D01*
X16968000Y-14803000D02*
X17068000Y-14903000D01*
X17068000Y-14803000D02*
X16968000Y-14903000D01*
X17018000Y-14803000D02*
X17018000Y-14903000D01*
X16968000Y-14853000D02*
X17068000Y-14853000D01*
X17219600Y-8420900D02*
X17319600Y-8520900D01*
X17319600Y-8420900D02*
X17219600Y-8520900D01*
X17269600Y-8420900D02*
X17269600Y-8520900D01*
X17219600Y-8470900D02*
X17319600Y-8470900D01*
X17473600Y-8420900D02*
X17573600Y-8520900D01*
X17573600Y-8420900D02*
X17473600Y-8520900D01*
X17523600Y-8420900D02*
X17523600Y-8520900D01*
X17473600Y-8470900D02*
X17573600Y-8470900D01*
X17476000Y-14803000D02*
X17576000Y-14903000D01*
X17576000Y-14803000D02*
X17476000Y-14903000D01*
X17526000Y-14803000D02*
X17526000Y-14903000D01*
X17476000Y-14853000D02*
X17576000Y-14853000D01*
X17727600Y-8420900D02*
X17827600Y-8520900D01*
X17827600Y-8420900D02*
X17727600Y-8520900D01*
X17777600Y-8420900D02*
X17777600Y-8520900D01*
X17727600Y-8470900D02*
X17827600Y-8470900D01*
X17730000Y-14803000D02*
X17830000Y-14903000D01*
X17830000Y-14803000D02*
X17730000Y-14903000D01*
X17780000Y-14803000D02*
X17780000Y-14903000D01*
X17730000Y-14853000D02*
X17830000Y-14853000D01*
X17857000Y-9602000D02*
X17957000Y-9702000D01*
X17957000Y-9602000D02*
X17857000Y-9702000D01*
X17907000Y-9602000D02*
X17907000Y-9702000D01*
X17857000Y-9652000D02*
X17957000Y-9652000D01*
X17857000Y-9856000D02*
X17957000Y-9956000D01*
X17957000Y-9856000D02*
X17857000Y-9956000D01*
X17907000Y-9856000D02*
X17907000Y-9956000D01*
X17857000Y-9906000D02*
X17957000Y-9906000D01*
X17857000Y-10110000D02*
X17957000Y-10210000D01*
X17957000Y-10110000D02*
X17857000Y-10210000D01*
X17907000Y-10110000D02*
X17907000Y-10210000D01*
X17857000Y-10160000D02*
X17957000Y-10160000D01*
X17981600Y-8420900D02*
X18081600Y-8520900D01*
X18081600Y-8420900D02*
X17981600Y-8520900D01*
X18031600Y-8420900D02*
X18031600Y-8520900D01*
X17981600Y-8470900D02*
X18081600Y-8470900D01*
X17984000Y-14803000D02*
X18084000Y-14903000D01*
X18084000Y-14803000D02*
X17984000Y-14903000D01*
X18034000Y-14803000D02*
X18034000Y-14903000D01*
X17984000Y-14853000D02*
X18084000Y-14853000D01*
X18235600Y-8420900D02*
X18335600Y-8520900D01*
X18335600Y-8420900D02*
X18235600Y-8520900D01*
X18285600Y-8420900D02*
X18285600Y-8520900D01*
X18235600Y-8470900D02*
X18335600Y-8470900D01*
X18238000Y-14803000D02*
X18338000Y-14903000D01*
X18338000Y-14803000D02*
X18238000Y-14903000D01*
X18288000Y-14803000D02*
X18288000Y-14903000D01*
X18238000Y-14853000D02*
X18338000Y-14853000D01*
X18489600Y-8420900D02*
X18589600Y-8520900D01*
X18589600Y-8420900D02*
X18489600Y-8520900D01*
X18539600Y-8420900D02*
X18539600Y-8520900D01*
X18489600Y-8470900D02*
X18589600Y-8470900D01*
X18492000Y-14803000D02*
X18592000Y-14903000D01*
X18592000Y-14803000D02*
X18492000Y-14903000D01*
X18542000Y-14803000D02*
X18542000Y-14903000D01*
X18492000Y-14853000D02*
X18592000Y-14853000D01*
X18743600Y-8420900D02*
X18843600Y-8520900D01*
X18843600Y-8420900D02*
X18743600Y-8520900D01*
X18793600Y-8420900D02*
X18793600Y-8520900D01*
X18743600Y-8470900D02*
X18843600Y-8470900D01*
X18746000Y-14803000D02*
X18846000Y-14903000D01*
X18846000Y-14803000D02*
X18746000Y-14903000D01*
X18796000Y-14803000D02*
X18796000Y-14903000D01*
X18746000Y-14853000D02*
X18846000Y-14853000D01*
X18997600Y-8420900D02*
X19097600Y-8520900D01*
X19097600Y-8420900D02*
X18997600Y-8520900D01*
X19047600Y-8420900D02*
X19047600Y-8520900D01*
X18997600Y-8470900D02*
X19097600Y-8470900D01*
X19180300Y-9604000D02*
X19280300Y-9704000D01*
X19280300Y-9604000D02*
X19180300Y-9704000D01*
X19230300Y-9604000D02*
X19230300Y-9704000D01*
X19180300Y-9654000D02*
X19280300Y-9654000D01*
X19180300Y-9858000D02*
X19280300Y-9958000D01*
X19280300Y-9858000D02*
X19180300Y-9958000D01*
X19230300Y-9858000D02*
X19230300Y-9958000D01*
X19180300Y-9908000D02*
X19280300Y-9908000D01*
X19251600Y-8420900D02*
X19351600Y-8520900D01*
X19351600Y-8420900D02*
X19251600Y-8520900D01*
X19301600Y-8420900D02*
X19301600Y-8520900D01*
X19251600Y-8470900D02*
X19351600Y-8470900D01*
X19254000Y-14803000D02*
X19354000Y-14903000D01*
X19354000Y-14803000D02*
X19254000Y-14903000D01*
X19304000Y-14803000D02*
X19304000Y-14903000D01*
X19254000Y-14853000D02*
X19354000Y-14853000D01*
X19505600Y-8420900D02*
X19605600Y-8520900D01*
X19605600Y-8420900D02*
X19505600Y-8520900D01*
X19555600Y-8420900D02*
X19555600Y-8520900D01*
X19505600Y-8470900D02*
X19605600Y-8470900D01*
X19508000Y-14803000D02*
X19608000Y-14903000D01*
X19608000Y-14803000D02*
X19508000Y-14903000D01*
X19558000Y-14803000D02*
X19558000Y-14903000D01*
X19508000Y-14853000D02*
X19608000Y-14853000D01*
X19759600Y-8420900D02*
X19859600Y-8520900D01*
X19859600Y-8420900D02*
X19759600Y-8520900D01*
X19809600Y-8420900D02*
X19809600Y-8520900D01*
X19759600Y-8470900D02*
X19859600Y-8470900D01*
X19762000Y-14803000D02*
X19862000Y-14903000D01*
X19862000Y-14803000D02*
X19762000Y-14903000D01*
X19812000Y-14803000D02*
X19812000Y-14903000D01*
X19762000Y-14853000D02*
X19862000Y-14853000D01*
X20013600Y-8420900D02*
X20113600Y-8520900D01*
X20113600Y-8420900D02*
X20013600Y-8520900D01*
X20063600Y-8420900D02*
X20063600Y-8520900D01*
X20013600Y-8470900D02*
X20113600Y-8470900D01*
X20016000Y-14803000D02*
X20116000Y-14903000D01*
X20116000Y-14803000D02*
X20016000Y-14903000D01*
X20066000Y-14803000D02*
X20066000Y-14903000D01*
X20016000Y-14853000D02*
X20116000Y-14853000D01*
X20267600Y-8420900D02*
X20367600Y-8520900D01*
X20367600Y-8420900D02*
X20267600Y-8520900D01*
X20317600Y-8420900D02*
X20317600Y-8520900D01*
X20267600Y-8470900D02*
X20367600Y-8470900D01*
X20270000Y-14803000D02*
X20370000Y-14903000D01*
X20370000Y-14803000D02*
X20270000Y-14903000D01*
X20320000Y-14803000D02*
X20320000Y-14903000D01*
X20270000Y-14853000D02*
X20370000Y-14853000D01*
X20521600Y-8420900D02*
X20621600Y-8520900D01*
X20621600Y-8420900D02*
X20521600Y-8520900D01*
X20571600Y-8420900D02*
X20571600Y-8520900D01*
X20521600Y-8470900D02*
X20621600Y-8470900D01*
X20524000Y-14803000D02*
X20624000Y-14903000D01*
X20624000Y-14803000D02*
X20524000Y-14903000D01*
X20574000Y-14803000D02*
X20574000Y-14903000D01*
X20524000Y-14853000D02*
X20624000Y-14853000D01*
X20775600Y-8420900D02*
X20875600Y-8520900D01*
X20875600Y-8420900D02*
X20775600Y-8520900D01*
X20825600Y-8420900D02*
X20825600Y-8520900D01*
X20775600Y-8470900D02*
X20875600Y-8470900D01*
X20778000Y-14803000D02*
X20878000Y-14903000D01*
X20878000Y-14803000D02*
X20778000Y-14903000D01*
X20828000Y-14803000D02*
X20828000Y-14903000D01*
X20778000Y-14853000D02*
X20878000Y-14853000D01*
X21029600Y-8420900D02*
X21129600Y-8520900D01*
X21129600Y-8420900D02*
X21029600Y-8520900D01*
X21079600Y-8420900D02*
X21079600Y-8520900D01*
X21029600Y-8470900D02*
X21129600Y-8470900D01*
X21032000Y-14803000D02*
X21132000Y-14903000D01*
X21132000Y-14803000D02*
X21032000Y-14903000D01*
X21082000Y-14803000D02*
X21082000Y-14903000D01*
X21032000Y-14853000D02*
X21132000Y-14853000D01*
X21283600Y-8420900D02*
X21383600Y-8520900D01*
X21383600Y-8420900D02*
X21283600Y-8520900D01*
X21333600Y-8420900D02*
X21333600Y-8520900D01*
X21283600Y-8470900D02*
X21383600Y-8470900D01*
X21286000Y-14803000D02*
X21386000Y-14903000D01*
X21386000Y-14803000D02*
X21286000Y-14903000D01*
X21336000Y-14803000D02*
X21336000Y-14903000D01*
X21286000Y-14853000D02*
X21386000Y-14853000D01*
X21537600Y-8420900D02*
X21637600Y-8520900D01*
X21637600Y-8420900D02*
X21537600Y-8520900D01*
X21587600Y-8420900D02*
X21587600Y-8520900D01*
X21537600Y-8470900D02*
X21637600Y-8470900D01*
X21540000Y-14803000D02*
X21640000Y-14903000D01*
X21640000Y-14803000D02*
X21540000Y-14903000D01*
X21590000Y-14803000D02*
X21590000Y-14903000D01*
X21540000Y-14853000D02*
X21640000Y-14853000D01*
X21791600Y-8420900D02*
X21891600Y-8520900D01*
X21891600Y-8420900D02*
X21791600Y-8520900D01*
X21841600Y-8420900D02*
X21841600Y-8520900D01*
X21791600Y-8470900D02*
X21891600Y-8470900D01*
X21794000Y-14803000D02*
X21894000Y-14903000D01*
X21894000Y-14803000D02*
X21794000Y-14903000D01*
X21844000Y-14803000D02*
X21844000Y-14903000D01*
X21794000Y-14853000D02*
X21894000Y-14853000D01*
X22048000Y-14803000D02*
X22148000Y-14903000D01*
X22148000Y-14803000D02*
X22048000Y-14903000D01*
X22098000Y-14803000D02*
X22098000Y-14903000D01*
X22048000Y-14853000D02*
X22148000Y-14853000D01*
X22302000Y-14803000D02*
X22402000Y-14903000D01*
X22402000Y-14803000D02*
X22302000Y-14903000D01*
X22352000Y-14803000D02*
X22352000Y-14903000D01*
X22302000Y-14853000D02*
X22402000Y-14853000D01*
X22556000Y-14803000D02*
X22656000Y-14903000D01*
X22656000Y-14803000D02*
X22556000Y-14903000D01*
X22606000Y-14803000D02*
X22606000Y-14903000D01*
X22556000Y-14853000D02*
X22656000Y-14853000D01*
X22810000Y-14803000D02*
X22910000Y-14903000D01*
X22910000Y-14803000D02*
X22810000Y-14903000D01*
X22860000Y-14803000D02*
X22860000Y-14903000D01*
X22810000Y-14853000D02*
X22910000Y-14853000D01*
X23064000Y-14803000D02*
X23164000Y-14903000D01*
X23164000Y-14803000D02*
X23064000Y-14903000D01*
X23114000Y-14803000D02*
X23114000Y-14903000D01*
X23064000Y-14853000D02*
X23164000Y-14853000D01*
D18*
X16069400Y-11192200D02*
X16189400Y-11312200D01*
X16189400Y-11192200D02*
X16069400Y-11312200D01*
X16171827Y-11294627D02*
X16171827Y-11209773D01*
X16086973Y-11209773D01*
X16086973Y-11294627D01*
X16171827Y-11294627D01*
X16323400Y-11192200D02*
X16443400Y-11312200D01*
X16443400Y-11192200D02*
X16323400Y-11312200D01*
X16425827Y-11294627D02*
X16425827Y-11209773D01*
X16340973Y-11209773D01*
X16340973Y-11294627D01*
X16425827Y-11294627D01*
X16577400Y-11192200D02*
X16697400Y-11312200D01*
X16697400Y-11192200D02*
X16577400Y-11312200D01*
X16679827Y-11294627D02*
X16679827Y-11209773D01*
X16594973Y-11209773D01*
X16594973Y-11294627D01*
X16679827Y-11294627D01*
X16831400Y-11192200D02*
X16951400Y-11312200D01*
X16951400Y-11192200D02*
X16831400Y-11312200D01*
X16933827Y-11294627D02*
X16933827Y-11209773D01*
X16848973Y-11209773D01*
X16848973Y-11294627D01*
X16933827Y-11294627D01*
X17085400Y-11192200D02*
X17205400Y-11312200D01*
X17205400Y-11192200D02*
X17085400Y-11312200D01*
X17187827Y-11294627D02*
X17187827Y-11209773D01*
X17102973Y-11209773D01*
X17102973Y-11294627D01*
X17187827Y-11294627D01*
X17339400Y-11192200D02*
X17459400Y-11312200D01*
X17459400Y-11192200D02*
X17339400Y-11312200D01*
X17441827Y-11294627D02*
X17441827Y-11209773D01*
X17356973Y-11209773D01*
X17356973Y-11294627D01*
X17441827Y-11294627D01*
X17593400Y-11192200D02*
X17713400Y-11312200D01*
X17713400Y-11192200D02*
X17593400Y-11312200D01*
X17695827Y-11294627D02*
X17695827Y-11209773D01*
X17610973Y-11209773D01*
X17610973Y-11294627D01*
X17695827Y-11294627D01*
X17847400Y-11192200D02*
X17967400Y-11312200D01*
X17967400Y-11192200D02*
X17847400Y-11312200D01*
X17949827Y-11294627D02*
X17949827Y-11209773D01*
X17864973Y-11209773D01*
X17864973Y-11294627D01*
X17949827Y-11294627D01*
X18101400Y-11192200D02*
X18221400Y-11312200D01*
X18221400Y-11192200D02*
X18101400Y-11312200D01*
X18203827Y-11294627D02*
X18203827Y-11209773D01*
X18118973Y-11209773D01*
X18118973Y-11294627D01*
X18203827Y-11294627D01*
X18355400Y-11192200D02*
X18475400Y-11312200D01*
X18475400Y-11192200D02*
X18355400Y-11312200D01*
X18457827Y-11294627D02*
X18457827Y-11209773D01*
X18372973Y-11209773D01*
X18372973Y-11294627D01*
X18457827Y-11294627D01*
X18609400Y-11192200D02*
X18729400Y-11312200D01*
X18729400Y-11192200D02*
X18609400Y-11312200D01*
X18711827Y-11294627D02*
X18711827Y-11209773D01*
X18626973Y-11209773D01*
X18626973Y-11294627D01*
X18711827Y-11294627D01*
X18863400Y-11192200D02*
X18983400Y-11312200D01*
X18983400Y-11192200D02*
X18863400Y-11312200D01*
X18965827Y-11294627D02*
X18965827Y-11209773D01*
X18880973Y-11209773D01*
X18880973Y-11294627D01*
X18965827Y-11294627D01*
X19117400Y-11192200D02*
X19237400Y-11312200D01*
X19237400Y-11192200D02*
X19117400Y-11312200D01*
X19219827Y-11294627D02*
X19219827Y-11209773D01*
X19134973Y-11209773D01*
X19134973Y-11294627D01*
X19219827Y-11294627D01*
X19371400Y-11192200D02*
X19491400Y-11312200D01*
X19491400Y-11192200D02*
X19371400Y-11312200D01*
X19473827Y-11294627D02*
X19473827Y-11209773D01*
X19388973Y-11209773D01*
X19388973Y-11294627D01*
X19473827Y-11294627D01*
X19625400Y-11192200D02*
X19745400Y-11312200D01*
X19745400Y-11192200D02*
X19625400Y-11312200D01*
X19727827Y-11294627D02*
X19727827Y-11209773D01*
X19642973Y-11209773D01*
X19642973Y-11294627D01*
X19727827Y-11294627D01*
X19879400Y-11192200D02*
X19999400Y-11312200D01*
X19999400Y-11192200D02*
X19879400Y-11312200D01*
X19981827Y-11294627D02*
X19981827Y-11209773D01*
X19896973Y-11209773D01*
X19896973Y-11294627D01*
X19981827Y-11294627D01*
D19*
X15454490Y-11127200D02*
X15704490Y-11377200D01*
X15704490Y-11127200D02*
X15454490Y-11377200D01*
X15579490Y-11377200D02*
X15704490Y-11252200D01*
X15579490Y-11127200D01*
X15454490Y-11252200D01*
X15579490Y-11377200D01*
X15454490Y-14227270D02*
X15704490Y-14477270D01*
X15704490Y-14227270D02*
X15454490Y-14477270D01*
X15579490Y-14477270D02*
X15704490Y-14352270D01*
X15579490Y-14227270D01*
X15454490Y-14352270D01*
X15579490Y-14477270D01*
X22954348Y-14227270D02*
X23204348Y-14477270D01*
X23204348Y-14227270D02*
X22954348Y-14477270D01*
X23079348Y-14477270D02*
X23204348Y-14352270D01*
X23079348Y-14227270D01*
X22954348Y-14352270D01*
X23079348Y-14477270D01*
X22954400Y-11127200D02*
X23204400Y-11377200D01*
X23204400Y-11127200D02*
X22954400Y-11377200D01*
X23079400Y-11377200D02*
X23204400Y-11252200D01*
X23079400Y-11127200D01*
X22954400Y-11252200D01*
X23079400Y-11377200D01*
D11*
X6856619Y-15860276D02*
X6856619Y-15660276D01*
X6904238Y-15660276D01*
X6932809Y-15669800D01*
X6951857Y-15688848D01*
X6961381Y-15707895D01*
X6970905Y-15745990D01*
X6970905Y-15774562D01*
X6961381Y-15812657D01*
X6951857Y-15831705D01*
X6932809Y-15850752D01*
X6904238Y-15860276D01*
X6856619Y-15860276D01*
X7056619Y-15860276D02*
X7056619Y-15726943D01*
X7056619Y-15765038D02*
X7066143Y-15745990D01*
X7075667Y-15736467D01*
X7094714Y-15726943D01*
X7113762Y-15726943D01*
X7180428Y-15860276D02*
X7180428Y-15726943D01*
X7180428Y-15660276D02*
X7170905Y-15669800D01*
X7180428Y-15679324D01*
X7189952Y-15669800D01*
X7180428Y-15660276D01*
X7180428Y-15679324D01*
X7304238Y-15860276D02*
X7285190Y-15850752D01*
X7275667Y-15831705D01*
X7275667Y-15660276D01*
X7409000Y-15860276D02*
X7389952Y-15850752D01*
X7380428Y-15831705D01*
X7380428Y-15660276D01*
X7637571Y-15860276D02*
X7637571Y-15660276D01*
X7704238Y-15803133D01*
X7770905Y-15660276D01*
X7770905Y-15860276D01*
X7951857Y-15860276D02*
X7951857Y-15755514D01*
X7942333Y-15736467D01*
X7923286Y-15726943D01*
X7885190Y-15726943D01*
X7866143Y-15736467D01*
X7951857Y-15850752D02*
X7932809Y-15860276D01*
X7885190Y-15860276D01*
X7866143Y-15850752D01*
X7856619Y-15831705D01*
X7856619Y-15812657D01*
X7866143Y-15793609D01*
X7885190Y-15784086D01*
X7932809Y-15784086D01*
X7951857Y-15774562D01*
X8047095Y-15726943D02*
X8047095Y-15926943D01*
X8047095Y-15736467D02*
X8066143Y-15726943D01*
X8104238Y-15726943D01*
X8123286Y-15736467D01*
X8132809Y-15745990D01*
X8142333Y-15765038D01*
X8142333Y-15822181D01*
X8132809Y-15841228D01*
X8123286Y-15850752D01*
X8104238Y-15860276D01*
X8066143Y-15860276D01*
X8047095Y-15850752D01*
X8228048Y-15841228D02*
X8237571Y-15850752D01*
X8228048Y-15860276D01*
X8218524Y-15850752D01*
X8228048Y-15841228D01*
X8228048Y-15860276D01*
X8228048Y-15736467D02*
X8237571Y-15745990D01*
X8228048Y-15755514D01*
X8218524Y-15745990D01*
X8228048Y-15736467D01*
X8228048Y-15755514D01*
D12*
X6569000Y-16174800D02*
X6599000Y-16204800D01*
X6599000Y-16174800D02*
X6569000Y-16204800D01*
D11*
X6894714Y-16080276D02*
X6913762Y-16080276D01*
X6932809Y-16089800D01*
X6942333Y-16099324D01*
X6951857Y-16118371D01*
X6961381Y-16156467D01*
X6961381Y-16204086D01*
X6951857Y-16242181D01*
X6942333Y-16261228D01*
X6932809Y-16270752D01*
X6913762Y-16280276D01*
X6894714Y-16280276D01*
X6875667Y-16270752D01*
X6866143Y-16261228D01*
X6856619Y-16242181D01*
X6847095Y-16204086D01*
X6847095Y-16156467D01*
X6856619Y-16118371D01*
X6866143Y-16099324D01*
X6875667Y-16089800D01*
X6894714Y-16080276D01*
X7047095Y-16261228D02*
X7056619Y-16270752D01*
X7047095Y-16280276D01*
X7037571Y-16270752D01*
X7047095Y-16261228D01*
X7047095Y-16280276D01*
X7123286Y-16080276D02*
X7247095Y-16080276D01*
X7180428Y-16156467D01*
X7209000Y-16156467D01*
X7228048Y-16165990D01*
X7237571Y-16175514D01*
X7247095Y-16194562D01*
X7247095Y-16242181D01*
X7237571Y-16261228D01*
X7228048Y-16270752D01*
X7209000Y-16280276D01*
X7151857Y-16280276D01*
X7132809Y-16270752D01*
X7123286Y-16261228D01*
X7370905Y-16080276D02*
X7389952Y-16080276D01*
X7409000Y-16089800D01*
X7418524Y-16099324D01*
X7428048Y-16118371D01*
X7437571Y-16156467D01*
X7437571Y-16204086D01*
X7428048Y-16242181D01*
X7418524Y-16261228D01*
X7409000Y-16270752D01*
X7389952Y-16280276D01*
X7370905Y-16280276D01*
X7351857Y-16270752D01*
X7342333Y-16261228D01*
X7332809Y-16242181D01*
X7323286Y-16204086D01*
X7323286Y-16156467D01*
X7332809Y-16118371D01*
X7342333Y-16099324D01*
X7351857Y-16089800D01*
X7370905Y-16080276D01*
X7561381Y-16080276D02*
X7580428Y-16080276D01*
X7599476Y-16089800D01*
X7609000Y-16099324D01*
X7618524Y-16118371D01*
X7628048Y-16156467D01*
X7628048Y-16204086D01*
X7618524Y-16242181D01*
X7609000Y-16261228D01*
X7599476Y-16270752D01*
X7580428Y-16280276D01*
X7561381Y-16280276D01*
X7542333Y-16270752D01*
X7532809Y-16261228D01*
X7523286Y-16242181D01*
X7513762Y-16204086D01*
X7513762Y-16156467D01*
X7523286Y-16118371D01*
X7532809Y-16099324D01*
X7542333Y-16089800D01*
X7561381Y-16080276D01*
X7713762Y-16280276D02*
X7713762Y-16146943D01*
X7713762Y-16165990D02*
X7723286Y-16156467D01*
X7742333Y-16146943D01*
X7770905Y-16146943D01*
X7789952Y-16156467D01*
X7799476Y-16175514D01*
X7799476Y-16280276D01*
X7799476Y-16175514D02*
X7809000Y-16156467D01*
X7828048Y-16146943D01*
X7856619Y-16146943D01*
X7875667Y-16156467D01*
X7885190Y-16175514D01*
X7885190Y-16280276D01*
X7980428Y-16280276D02*
X7980428Y-16146943D01*
X7980428Y-16165990D02*
X7989952Y-16156467D01*
X8009000Y-16146943D01*
X8037571Y-16146943D01*
X8056619Y-16156467D01*
X8066143Y-16175514D01*
X8066143Y-16280276D01*
X8066143Y-16175514D02*
X8075667Y-16156467D01*
X8094714Y-16146943D01*
X8123286Y-16146943D01*
X8142333Y-16156467D01*
X8151857Y-16175514D01*
X8151857Y-16280276D01*
X8542333Y-16070752D02*
X8370905Y-16327895D01*
X8799476Y-16080276D02*
X8818524Y-16080276D01*
X8837571Y-16089800D01*
X8847095Y-16099324D01*
X8856619Y-16118371D01*
X8866143Y-16156467D01*
X8866143Y-16204086D01*
X8856619Y-16242181D01*
X8847095Y-16261228D01*
X8837571Y-16270752D01*
X8818524Y-16280276D01*
X8799476Y-16280276D01*
X8780429Y-16270752D01*
X8770905Y-16261228D01*
X8761381Y-16242181D01*
X8751857Y-16204086D01*
X8751857Y-16156467D01*
X8761381Y-16118371D01*
X8770905Y-16099324D01*
X8780429Y-16089800D01*
X8799476Y-16080276D01*
X8951857Y-16261228D02*
X8961381Y-16270752D01*
X8951857Y-16280276D01*
X8942333Y-16270752D01*
X8951857Y-16261228D01*
X8951857Y-16280276D01*
X9085190Y-16080276D02*
X9104238Y-16080276D01*
X9123286Y-16089800D01*
X9132810Y-16099324D01*
X9142333Y-16118371D01*
X9151857Y-16156467D01*
X9151857Y-16204086D01*
X9142333Y-16242181D01*
X9132810Y-16261228D01*
X9123286Y-16270752D01*
X9104238Y-16280276D01*
X9085190Y-16280276D01*
X9066143Y-16270752D01*
X9056619Y-16261228D01*
X9047095Y-16242181D01*
X9037571Y-16204086D01*
X9037571Y-16156467D01*
X9047095Y-16118371D01*
X9056619Y-16099324D01*
X9066143Y-16089800D01*
X9085190Y-16080276D01*
X9342333Y-16280276D02*
X9228048Y-16280276D01*
X9285190Y-16280276D02*
X9285190Y-16080276D01*
X9266143Y-16108848D01*
X9247095Y-16127895D01*
X9228048Y-16137419D01*
X9532810Y-16280276D02*
X9418524Y-16280276D01*
X9475667Y-16280276D02*
X9475667Y-16080276D01*
X9456619Y-16108848D01*
X9437571Y-16127895D01*
X9418524Y-16137419D01*
X9647095Y-16165990D02*
X9628048Y-16156467D01*
X9618524Y-16146943D01*
X9609000Y-16127895D01*
X9609000Y-16118371D01*
X9618524Y-16099324D01*
X9628048Y-16089800D01*
X9647095Y-16080276D01*
X9685190Y-16080276D01*
X9704238Y-16089800D01*
X9713762Y-16099324D01*
X9723286Y-16118371D01*
X9723286Y-16127895D01*
X9713762Y-16146943D01*
X9704238Y-16156467D01*
X9685190Y-16165990D01*
X9647095Y-16165990D01*
X9628048Y-16175514D01*
X9618524Y-16185038D01*
X9609000Y-16204086D01*
X9609000Y-16242181D01*
X9618524Y-16261228D01*
X9628048Y-16270752D01*
X9647095Y-16280276D01*
X9685190Y-16280276D01*
X9704238Y-16270752D01*
X9713762Y-16261228D01*
X9723286Y-16242181D01*
X9723286Y-16204086D01*
X9713762Y-16185038D01*
X9704238Y-16175514D01*
X9685190Y-16165990D01*
X9799476Y-16080276D02*
X9799476Y-16118371D01*
X9875667Y-16080276D02*
X9875667Y-16118371D01*
X10170905Y-16356467D02*
X10161381Y-16346943D01*
X10142333Y-16318371D01*
X10132810Y-16299324D01*
X10123286Y-16270752D01*
X10113762Y-16223133D01*
X10113762Y-16185038D01*
X10123286Y-16137419D01*
X10132810Y-16108848D01*
X10142333Y-16089800D01*
X10161381Y-16061228D01*
X10170905Y-16051705D01*
X10228048Y-16080276D02*
X10351857Y-16080276D01*
X10285190Y-16156467D01*
X10313762Y-16156467D01*
X10332810Y-16165990D01*
X10342333Y-16175514D01*
X10351857Y-16194562D01*
X10351857Y-16242181D01*
X10342333Y-16261228D01*
X10332810Y-16270752D01*
X10313762Y-16280276D01*
X10256619Y-16280276D01*
X10237571Y-16270752D01*
X10228048Y-16261228D01*
X10466143Y-16165990D02*
X10447095Y-16156467D01*
X10437571Y-16146943D01*
X10428048Y-16127895D01*
X10428048Y-16118371D01*
X10437571Y-16099324D01*
X10447095Y-16089800D01*
X10466143Y-16080276D01*
X10504238Y-16080276D01*
X10523286Y-16089800D01*
X10532810Y-16099324D01*
X10542333Y-16118371D01*
X10542333Y-16127895D01*
X10532810Y-16146943D01*
X10523286Y-16156467D01*
X10504238Y-16165990D01*
X10466143Y-16165990D01*
X10447095Y-16175514D01*
X10437571Y-16185038D01*
X10428048Y-16204086D01*
X10428048Y-16242181D01*
X10437571Y-16261228D01*
X10447095Y-16270752D01*
X10466143Y-16280276D01*
X10504238Y-16280276D01*
X10523286Y-16270752D01*
X10532810Y-16261228D01*
X10542333Y-16242181D01*
X10542333Y-16204086D01*
X10532810Y-16185038D01*
X10523286Y-16175514D01*
X10504238Y-16165990D01*
X10618524Y-16099324D02*
X10628048Y-16089800D01*
X10647095Y-16080276D01*
X10694714Y-16080276D01*
X10713762Y-16089800D01*
X10723286Y-16099324D01*
X10732810Y-16118371D01*
X10732810Y-16137419D01*
X10723286Y-16165990D01*
X10609000Y-16280276D01*
X10732810Y-16280276D01*
X10970905Y-16280276D02*
X10970905Y-16080276D01*
X11056619Y-16280276D02*
X11056619Y-16175514D01*
X11047095Y-16156467D01*
X11028048Y-16146943D01*
X10999476Y-16146943D01*
X10980429Y-16156467D01*
X10970905Y-16165990D01*
X11180429Y-16280276D02*
X11161381Y-16270752D01*
X11151857Y-16261228D01*
X11142333Y-16242181D01*
X11142333Y-16185038D01*
X11151857Y-16165990D01*
X11161381Y-16156467D01*
X11180429Y-16146943D01*
X11209000Y-16146943D01*
X11228048Y-16156467D01*
X11237571Y-16165990D01*
X11247095Y-16185038D01*
X11247095Y-16242181D01*
X11237571Y-16261228D01*
X11228048Y-16270752D01*
X11209000Y-16280276D01*
X11180429Y-16280276D01*
X11361381Y-16280276D02*
X11342333Y-16270752D01*
X11332809Y-16251705D01*
X11332809Y-16080276D01*
X11513762Y-16270752D02*
X11494714Y-16280276D01*
X11456619Y-16280276D01*
X11437571Y-16270752D01*
X11428048Y-16251705D01*
X11428048Y-16175514D01*
X11437571Y-16156467D01*
X11456619Y-16146943D01*
X11494714Y-16146943D01*
X11513762Y-16156467D01*
X11523286Y-16175514D01*
X11523286Y-16194562D01*
X11428048Y-16213609D01*
X11599476Y-16270752D02*
X11618524Y-16280276D01*
X11656619Y-16280276D01*
X11675667Y-16270752D01*
X11685190Y-16251705D01*
X11685190Y-16242181D01*
X11675667Y-16223133D01*
X11656619Y-16213609D01*
X11628048Y-16213609D01*
X11609000Y-16204086D01*
X11599476Y-16185038D01*
X11599476Y-16175514D01*
X11609000Y-16156467D01*
X11628048Y-16146943D01*
X11656619Y-16146943D01*
X11675667Y-16156467D01*
X11751857Y-16356467D02*
X11761381Y-16346943D01*
X11780428Y-16318371D01*
X11789952Y-16299324D01*
X11799476Y-16270752D01*
X11809000Y-16223133D01*
X11809000Y-16185038D01*
X11799476Y-16137419D01*
X11789952Y-16108848D01*
X11780428Y-16089800D01*
X11761381Y-16061228D01*
X11751857Y-16051705D01*
D13*
X6599000Y-16453800D02*
G75*
G03*
X6599000Y-16453800I-20000J0D01*
G01*
D11*
X6894714Y-16344276D02*
X6913762Y-16344276D01*
X6932809Y-16353800D01*
X6942333Y-16363324D01*
X6951857Y-16382371D01*
X6961381Y-16420467D01*
X6961381Y-16468086D01*
X6951857Y-16506181D01*
X6942333Y-16525228D01*
X6932809Y-16534752D01*
X6913762Y-16544276D01*
X6894714Y-16544276D01*
X6875667Y-16534752D01*
X6866143Y-16525228D01*
X6856619Y-16506181D01*
X6847095Y-16468086D01*
X6847095Y-16420467D01*
X6856619Y-16382371D01*
X6866143Y-16363324D01*
X6875667Y-16353800D01*
X6894714Y-16344276D01*
X7047095Y-16525228D02*
X7056619Y-16534752D01*
X7047095Y-16544276D01*
X7037571Y-16534752D01*
X7047095Y-16525228D01*
X7047095Y-16544276D01*
X7228048Y-16410943D02*
X7228048Y-16544276D01*
X7180428Y-16334752D02*
X7132809Y-16477609D01*
X7256619Y-16477609D01*
X7370905Y-16344276D02*
X7389952Y-16344276D01*
X7409000Y-16353800D01*
X7418524Y-16363324D01*
X7428048Y-16382371D01*
X7437571Y-16420467D01*
X7437571Y-16468086D01*
X7428048Y-16506181D01*
X7418524Y-16525228D01*
X7409000Y-16534752D01*
X7389952Y-16544276D01*
X7370905Y-16544276D01*
X7351857Y-16534752D01*
X7342333Y-16525228D01*
X7332809Y-16506181D01*
X7323286Y-16468086D01*
X7323286Y-16420467D01*
X7332809Y-16382371D01*
X7342333Y-16363324D01*
X7351857Y-16353800D01*
X7370905Y-16344276D01*
X7561381Y-16344276D02*
X7580428Y-16344276D01*
X7599476Y-16353800D01*
X7609000Y-16363324D01*
X7618524Y-16382371D01*
X7628048Y-16420467D01*
X7628048Y-16468086D01*
X7618524Y-16506181D01*
X7609000Y-16525228D01*
X7599476Y-16534752D01*
X7580428Y-16544276D01*
X7561381Y-16544276D01*
X7542333Y-16534752D01*
X7532809Y-16525228D01*
X7523286Y-16506181D01*
X7513762Y-16468086D01*
X7513762Y-16420467D01*
X7523286Y-16382371D01*
X7532809Y-16363324D01*
X7542333Y-16353800D01*
X7561381Y-16344276D01*
X7713762Y-16544276D02*
X7713762Y-16410943D01*
X7713762Y-16429990D02*
X7723286Y-16420467D01*
X7742333Y-16410943D01*
X7770905Y-16410943D01*
X7789952Y-16420467D01*
X7799476Y-16439514D01*
X7799476Y-16544276D01*
X7799476Y-16439514D02*
X7809000Y-16420467D01*
X7828048Y-16410943D01*
X7856619Y-16410943D01*
X7875667Y-16420467D01*
X7885190Y-16439514D01*
X7885190Y-16544276D01*
X7980428Y-16544276D02*
X7980428Y-16410943D01*
X7980428Y-16429990D02*
X7989952Y-16420467D01*
X8009000Y-16410943D01*
X8037571Y-16410943D01*
X8056619Y-16420467D01*
X8066143Y-16439514D01*
X8066143Y-16544276D01*
X8066143Y-16439514D02*
X8075667Y-16420467D01*
X8094714Y-16410943D01*
X8123286Y-16410943D01*
X8142333Y-16420467D01*
X8151857Y-16439514D01*
X8151857Y-16544276D01*
X8542333Y-16334752D02*
X8370905Y-16591895D01*
X8799476Y-16344276D02*
X8818524Y-16344276D01*
X8837571Y-16353800D01*
X8847095Y-16363324D01*
X8856619Y-16382371D01*
X8866143Y-16420467D01*
X8866143Y-16468086D01*
X8856619Y-16506181D01*
X8847095Y-16525228D01*
X8837571Y-16534752D01*
X8818524Y-16544276D01*
X8799476Y-16544276D01*
X8780429Y-16534752D01*
X8770905Y-16525228D01*
X8761381Y-16506181D01*
X8751857Y-16468086D01*
X8751857Y-16420467D01*
X8761381Y-16382371D01*
X8770905Y-16363324D01*
X8780429Y-16353800D01*
X8799476Y-16344276D01*
X8951857Y-16525228D02*
X8961381Y-16534752D01*
X8951857Y-16544276D01*
X8942333Y-16534752D01*
X8951857Y-16525228D01*
X8951857Y-16544276D01*
X9085190Y-16344276D02*
X9104238Y-16344276D01*
X9123286Y-16353800D01*
X9132810Y-16363324D01*
X9142333Y-16382371D01*
X9151857Y-16420467D01*
X9151857Y-16468086D01*
X9142333Y-16506181D01*
X9132810Y-16525228D01*
X9123286Y-16534752D01*
X9104238Y-16544276D01*
X9085190Y-16544276D01*
X9066143Y-16534752D01*
X9056619Y-16525228D01*
X9047095Y-16506181D01*
X9037571Y-16468086D01*
X9037571Y-16420467D01*
X9047095Y-16382371D01*
X9056619Y-16363324D01*
X9066143Y-16353800D01*
X9085190Y-16344276D01*
X9342333Y-16544276D02*
X9228048Y-16544276D01*
X9285190Y-16544276D02*
X9285190Y-16344276D01*
X9266143Y-16372848D01*
X9247095Y-16391895D01*
X9228048Y-16401419D01*
X9523286Y-16344276D02*
X9428048Y-16344276D01*
X9418524Y-16439514D01*
X9428048Y-16429990D01*
X9447095Y-16420467D01*
X9494714Y-16420467D01*
X9513762Y-16429990D01*
X9523286Y-16439514D01*
X9532810Y-16458562D01*
X9532810Y-16506181D01*
X9523286Y-16525228D01*
X9513762Y-16534752D01*
X9494714Y-16544276D01*
X9447095Y-16544276D01*
X9428048Y-16534752D01*
X9418524Y-16525228D01*
X9599476Y-16344276D02*
X9732810Y-16344276D01*
X9647095Y-16544276D01*
X9799476Y-16344276D02*
X9799476Y-16382371D01*
X9875667Y-16344276D02*
X9875667Y-16382371D01*
X10170905Y-16620467D02*
X10161381Y-16610943D01*
X10142333Y-16582371D01*
X10132810Y-16563324D01*
X10123286Y-16534752D01*
X10113762Y-16487133D01*
X10113762Y-16449038D01*
X10123286Y-16401419D01*
X10132810Y-16372848D01*
X10142333Y-16353800D01*
X10161381Y-16325228D01*
X10170905Y-16315705D01*
X10256619Y-16544276D02*
X10294714Y-16544276D01*
X10313762Y-16534752D01*
X10323286Y-16525228D01*
X10342333Y-16496657D01*
X10351857Y-16458562D01*
X10351857Y-16382371D01*
X10342333Y-16363324D01*
X10332810Y-16353800D01*
X10313762Y-16344276D01*
X10275667Y-16344276D01*
X10256619Y-16353800D01*
X10247095Y-16363324D01*
X10237571Y-16382371D01*
X10237571Y-16429990D01*
X10247095Y-16449038D01*
X10256619Y-16458562D01*
X10275667Y-16468086D01*
X10313762Y-16468086D01*
X10332810Y-16458562D01*
X10342333Y-16449038D01*
X10351857Y-16429990D01*
X10589952Y-16544276D02*
X10589952Y-16344276D01*
X10675667Y-16544276D02*
X10675667Y-16439514D01*
X10666143Y-16420467D01*
X10647095Y-16410943D01*
X10618524Y-16410943D01*
X10599476Y-16420467D01*
X10589952Y-16429990D01*
X10799476Y-16544276D02*
X10780429Y-16534752D01*
X10770905Y-16525228D01*
X10761381Y-16506181D01*
X10761381Y-16449038D01*
X10770905Y-16429990D01*
X10780429Y-16420467D01*
X10799476Y-16410943D01*
X10828048Y-16410943D01*
X10847095Y-16420467D01*
X10856619Y-16429990D01*
X10866143Y-16449038D01*
X10866143Y-16506181D01*
X10856619Y-16525228D01*
X10847095Y-16534752D01*
X10828048Y-16544276D01*
X10799476Y-16544276D01*
X10980429Y-16544276D02*
X10961381Y-16534752D01*
X10951857Y-16515705D01*
X10951857Y-16344276D01*
X11132810Y-16534752D02*
X11113762Y-16544276D01*
X11075667Y-16544276D01*
X11056619Y-16534752D01*
X11047095Y-16515705D01*
X11047095Y-16439514D01*
X11056619Y-16420467D01*
X11075667Y-16410943D01*
X11113762Y-16410943D01*
X11132810Y-16420467D01*
X11142333Y-16439514D01*
X11142333Y-16458562D01*
X11047095Y-16477609D01*
X11218524Y-16534752D02*
X11237571Y-16544276D01*
X11275667Y-16544276D01*
X11294714Y-16534752D01*
X11304238Y-16515705D01*
X11304238Y-16506181D01*
X11294714Y-16487133D01*
X11275667Y-16477609D01*
X11247095Y-16477609D01*
X11228048Y-16468086D01*
X11218524Y-16449038D01*
X11218524Y-16439514D01*
X11228048Y-16420467D01*
X11247095Y-16410943D01*
X11275667Y-16410943D01*
X11294714Y-16420467D01*
X11370905Y-16620467D02*
X11380428Y-16610943D01*
X11399476Y-16582371D01*
X11409000Y-16563324D01*
X11418524Y-16534752D01*
X11428048Y-16487133D01*
X11428048Y-16449038D01*
X11418524Y-16401419D01*
X11409000Y-16372848D01*
X11399476Y-16353800D01*
X11380428Y-16325228D01*
X11370905Y-16315705D01*
D14*
X6569000Y-16687800D02*
X6569000Y-16747800D01*
X6539000Y-16717800D02*
X6599000Y-16717800D01*
D11*
X6894714Y-16608276D02*
X6913762Y-16608276D01*
X6932809Y-16617800D01*
X6942333Y-16627324D01*
X6951857Y-16646371D01*
X6961381Y-16684467D01*
X6961381Y-16732086D01*
X6951857Y-16770181D01*
X6942333Y-16789229D01*
X6932809Y-16798752D01*
X6913762Y-16808276D01*
X6894714Y-16808276D01*
X6875667Y-16798752D01*
X6866143Y-16789229D01*
X6856619Y-16770181D01*
X6847095Y-16732086D01*
X6847095Y-16684467D01*
X6856619Y-16646371D01*
X6866143Y-16627324D01*
X6875667Y-16617800D01*
X6894714Y-16608276D01*
X7047095Y-16789229D02*
X7056619Y-16798752D01*
X7047095Y-16808276D01*
X7037571Y-16798752D01*
X7047095Y-16789229D01*
X7047095Y-16808276D01*
X7228048Y-16608276D02*
X7189952Y-16608276D01*
X7170905Y-16617800D01*
X7161381Y-16627324D01*
X7142333Y-16655895D01*
X7132809Y-16693990D01*
X7132809Y-16770181D01*
X7142333Y-16789229D01*
X7151857Y-16798752D01*
X7170905Y-16808276D01*
X7209000Y-16808276D01*
X7228048Y-16798752D01*
X7237571Y-16789229D01*
X7247095Y-16770181D01*
X7247095Y-16722562D01*
X7237571Y-16703514D01*
X7228048Y-16693990D01*
X7209000Y-16684467D01*
X7170905Y-16684467D01*
X7151857Y-16693990D01*
X7142333Y-16703514D01*
X7132809Y-16722562D01*
X7370905Y-16608276D02*
X7389952Y-16608276D01*
X7409000Y-16617800D01*
X7418524Y-16627324D01*
X7428048Y-16646371D01*
X7437571Y-16684467D01*
X7437571Y-16732086D01*
X7428048Y-16770181D01*
X7418524Y-16789229D01*
X7409000Y-16798752D01*
X7389952Y-16808276D01*
X7370905Y-16808276D01*
X7351857Y-16798752D01*
X7342333Y-16789229D01*
X7332809Y-16770181D01*
X7323286Y-16732086D01*
X7323286Y-16684467D01*
X7332809Y-16646371D01*
X7342333Y-16627324D01*
X7351857Y-16617800D01*
X7370905Y-16608276D01*
X7561381Y-16608276D02*
X7580428Y-16608276D01*
X7599476Y-16617800D01*
X7609000Y-16627324D01*
X7618524Y-16646371D01*
X7628048Y-16684467D01*
X7628048Y-16732086D01*
X7618524Y-16770181D01*
X7609000Y-16789229D01*
X7599476Y-16798752D01*
X7580428Y-16808276D01*
X7561381Y-16808276D01*
X7542333Y-16798752D01*
X7532809Y-16789229D01*
X7523286Y-16770181D01*
X7513762Y-16732086D01*
X7513762Y-16684467D01*
X7523286Y-16646371D01*
X7532809Y-16627324D01*
X7542333Y-16617800D01*
X7561381Y-16608276D01*
X7713762Y-16808276D02*
X7713762Y-16674943D01*
X7713762Y-16693990D02*
X7723286Y-16684467D01*
X7742333Y-16674943D01*
X7770905Y-16674943D01*
X7789952Y-16684467D01*
X7799476Y-16703514D01*
X7799476Y-16808276D01*
X7799476Y-16703514D02*
X7809000Y-16684467D01*
X7828048Y-16674943D01*
X7856619Y-16674943D01*
X7875667Y-16684467D01*
X7885190Y-16703514D01*
X7885190Y-16808276D01*
X7980428Y-16808276D02*
X7980428Y-16674943D01*
X7980428Y-16693990D02*
X7989952Y-16684467D01*
X8009000Y-16674943D01*
X8037571Y-16674943D01*
X8056619Y-16684467D01*
X8066143Y-16703514D01*
X8066143Y-16808276D01*
X8066143Y-16703514D02*
X8075667Y-16684467D01*
X8094714Y-16674943D01*
X8123286Y-16674943D01*
X8142333Y-16684467D01*
X8151857Y-16703514D01*
X8151857Y-16808276D01*
X8542333Y-16598752D02*
X8370905Y-16855895D01*
X8799476Y-16608276D02*
X8818524Y-16608276D01*
X8837571Y-16617800D01*
X8847095Y-16627324D01*
X8856619Y-16646371D01*
X8866143Y-16684467D01*
X8866143Y-16732086D01*
X8856619Y-16770181D01*
X8847095Y-16789229D01*
X8837571Y-16798752D01*
X8818524Y-16808276D01*
X8799476Y-16808276D01*
X8780429Y-16798752D01*
X8770905Y-16789229D01*
X8761381Y-16770181D01*
X8751857Y-16732086D01*
X8751857Y-16684467D01*
X8761381Y-16646371D01*
X8770905Y-16627324D01*
X8780429Y-16617800D01*
X8799476Y-16608276D01*
X8951857Y-16789229D02*
X8961381Y-16798752D01*
X8951857Y-16808276D01*
X8942333Y-16798752D01*
X8951857Y-16789229D01*
X8951857Y-16808276D01*
X9085190Y-16608276D02*
X9104238Y-16608276D01*
X9123286Y-16617800D01*
X9132810Y-16627324D01*
X9142333Y-16646371D01*
X9151857Y-16684467D01*
X9151857Y-16732086D01*
X9142333Y-16770181D01*
X9132810Y-16789229D01*
X9123286Y-16798752D01*
X9104238Y-16808276D01*
X9085190Y-16808276D01*
X9066143Y-16798752D01*
X9056619Y-16789229D01*
X9047095Y-16770181D01*
X9037571Y-16732086D01*
X9037571Y-16684467D01*
X9047095Y-16646371D01*
X9056619Y-16627324D01*
X9066143Y-16617800D01*
X9085190Y-16608276D01*
X9228048Y-16627324D02*
X9237571Y-16617800D01*
X9256619Y-16608276D01*
X9304238Y-16608276D01*
X9323286Y-16617800D01*
X9332810Y-16627324D01*
X9342333Y-16646371D01*
X9342333Y-16665419D01*
X9332810Y-16693990D01*
X9218524Y-16808276D01*
X9342333Y-16808276D01*
X9409000Y-16608276D02*
X9532810Y-16608276D01*
X9466143Y-16684467D01*
X9494714Y-16684467D01*
X9513762Y-16693990D01*
X9523286Y-16703514D01*
X9532810Y-16722562D01*
X9532810Y-16770181D01*
X9523286Y-16789229D01*
X9513762Y-16798752D01*
X9494714Y-16808276D01*
X9437571Y-16808276D01*
X9418524Y-16798752D01*
X9409000Y-16789229D01*
X9704238Y-16608276D02*
X9666143Y-16608276D01*
X9647095Y-16617800D01*
X9637571Y-16627324D01*
X9618524Y-16655895D01*
X9609000Y-16693990D01*
X9609000Y-16770181D01*
X9618524Y-16789229D01*
X9628048Y-16798752D01*
X9647095Y-16808276D01*
X9685190Y-16808276D01*
X9704238Y-16798752D01*
X9713762Y-16789229D01*
X9723286Y-16770181D01*
X9723286Y-16722562D01*
X9713762Y-16703514D01*
X9704238Y-16693990D01*
X9685190Y-16684467D01*
X9647095Y-16684467D01*
X9628048Y-16693990D01*
X9618524Y-16703514D01*
X9609000Y-16722562D01*
X9799476Y-16608276D02*
X9799476Y-16646371D01*
X9875667Y-16608276D02*
X9875667Y-16646371D01*
X10170905Y-16884467D02*
X10161381Y-16874943D01*
X10142333Y-16846371D01*
X10132810Y-16827324D01*
X10123286Y-16798752D01*
X10113762Y-16751133D01*
X10113762Y-16713038D01*
X10123286Y-16665419D01*
X10132810Y-16636848D01*
X10142333Y-16617800D01*
X10161381Y-16589228D01*
X10170905Y-16579705D01*
X10237571Y-16627324D02*
X10247095Y-16617800D01*
X10266143Y-16608276D01*
X10313762Y-16608276D01*
X10332810Y-16617800D01*
X10342333Y-16627324D01*
X10351857Y-16646371D01*
X10351857Y-16665419D01*
X10342333Y-16693990D01*
X10228048Y-16808276D01*
X10351857Y-16808276D01*
X10589952Y-16808276D02*
X10589952Y-16608276D01*
X10675667Y-16808276D02*
X10675667Y-16703514D01*
X10666143Y-16684467D01*
X10647095Y-16674943D01*
X10618524Y-16674943D01*
X10599476Y-16684467D01*
X10589952Y-16693990D01*
X10799476Y-16808276D02*
X10780429Y-16798752D01*
X10770905Y-16789229D01*
X10761381Y-16770181D01*
X10761381Y-16713038D01*
X10770905Y-16693990D01*
X10780429Y-16684467D01*
X10799476Y-16674943D01*
X10828048Y-16674943D01*
X10847095Y-16684467D01*
X10856619Y-16693990D01*
X10866143Y-16713038D01*
X10866143Y-16770181D01*
X10856619Y-16789229D01*
X10847095Y-16798752D01*
X10828048Y-16808276D01*
X10799476Y-16808276D01*
X10980429Y-16808276D02*
X10961381Y-16798752D01*
X10951857Y-16779705D01*
X10951857Y-16608276D01*
X11132810Y-16798752D02*
X11113762Y-16808276D01*
X11075667Y-16808276D01*
X11056619Y-16798752D01*
X11047095Y-16779705D01*
X11047095Y-16703514D01*
X11056619Y-16684467D01*
X11075667Y-16674943D01*
X11113762Y-16674943D01*
X11132810Y-16684467D01*
X11142333Y-16703514D01*
X11142333Y-16722562D01*
X11047095Y-16741609D01*
X11218524Y-16798752D02*
X11237571Y-16808276D01*
X11275667Y-16808276D01*
X11294714Y-16798752D01*
X11304238Y-16779705D01*
X11304238Y-16770181D01*
X11294714Y-16751133D01*
X11275667Y-16741609D01*
X11247095Y-16741609D01*
X11228048Y-16732086D01*
X11218524Y-16713038D01*
X11218524Y-16703514D01*
X11228048Y-16684467D01*
X11247095Y-16674943D01*
X11275667Y-16674943D01*
X11294714Y-16684467D01*
X11370905Y-16884467D02*
X11380428Y-16874943D01*
X11399476Y-16846371D01*
X11409000Y-16827324D01*
X11418524Y-16798752D01*
X11428048Y-16751133D01*
X11428048Y-16713038D01*
X11418524Y-16665419D01*
X11409000Y-16636848D01*
X11399476Y-16617800D01*
X11380428Y-16589228D01*
X11370905Y-16579705D01*
D15*
X6587469Y-17009639D02*
X6587469Y-16953961D01*
X6531791Y-16953961D01*
X6531791Y-17009639D01*
X6587469Y-17009639D01*
D11*
X6894714Y-16872276D02*
X6913762Y-16872276D01*
X6932809Y-16881800D01*
X6942333Y-16891324D01*
X6951857Y-16910371D01*
X6961381Y-16948467D01*
X6961381Y-16996086D01*
X6951857Y-17034181D01*
X6942333Y-17053229D01*
X6932809Y-17062752D01*
X6913762Y-17072276D01*
X6894714Y-17072276D01*
X6875667Y-17062752D01*
X6866143Y-17053229D01*
X6856619Y-17034181D01*
X6847095Y-16996086D01*
X6847095Y-16948467D01*
X6856619Y-16910371D01*
X6866143Y-16891324D01*
X6875667Y-16881800D01*
X6894714Y-16872276D01*
X7047095Y-17053229D02*
X7056619Y-17062752D01*
X7047095Y-17072276D01*
X7037571Y-17062752D01*
X7047095Y-17053229D01*
X7047095Y-17072276D01*
X7123286Y-16872276D02*
X7256619Y-16872276D01*
X7170905Y-17072276D01*
X7361381Y-16957990D02*
X7342333Y-16948467D01*
X7332809Y-16938943D01*
X7323286Y-16919895D01*
X7323286Y-16910371D01*
X7332809Y-16891324D01*
X7342333Y-16881800D01*
X7361381Y-16872276D01*
X7399476Y-16872276D01*
X7418524Y-16881800D01*
X7428048Y-16891324D01*
X7437571Y-16910371D01*
X7437571Y-16919895D01*
X7428048Y-16938943D01*
X7418524Y-16948467D01*
X7399476Y-16957990D01*
X7361381Y-16957990D01*
X7342333Y-16967514D01*
X7332809Y-16977038D01*
X7323286Y-16996086D01*
X7323286Y-17034181D01*
X7332809Y-17053229D01*
X7342333Y-17062752D01*
X7361381Y-17072276D01*
X7399476Y-17072276D01*
X7418524Y-17062752D01*
X7428048Y-17053229D01*
X7437571Y-17034181D01*
X7437571Y-16996086D01*
X7428048Y-16977038D01*
X7418524Y-16967514D01*
X7399476Y-16957990D01*
X7504238Y-16872276D02*
X7637571Y-16872276D01*
X7551857Y-17072276D01*
X7713762Y-17072276D02*
X7713762Y-16938943D01*
X7713762Y-16957990D02*
X7723286Y-16948467D01*
X7742333Y-16938943D01*
X7770905Y-16938943D01*
X7789952Y-16948467D01*
X7799476Y-16967514D01*
X7799476Y-17072276D01*
X7799476Y-16967514D02*
X7809000Y-16948467D01*
X7828048Y-16938943D01*
X7856619Y-16938943D01*
X7875667Y-16948467D01*
X7885190Y-16967514D01*
X7885190Y-17072276D01*
X7980428Y-17072276D02*
X7980428Y-16938943D01*
X7980428Y-16957990D02*
X7989952Y-16948467D01*
X8009000Y-16938943D01*
X8037571Y-16938943D01*
X8056619Y-16948467D01*
X8066143Y-16967514D01*
X8066143Y-17072276D01*
X8066143Y-16967514D02*
X8075667Y-16948467D01*
X8094714Y-16938943D01*
X8123286Y-16938943D01*
X8142333Y-16948467D01*
X8151857Y-16967514D01*
X8151857Y-17072276D01*
X8542333Y-16862752D02*
X8370905Y-17119895D01*
X8799476Y-16872276D02*
X8818524Y-16872276D01*
X8837571Y-16881800D01*
X8847095Y-16891324D01*
X8856619Y-16910371D01*
X8866143Y-16948467D01*
X8866143Y-16996086D01*
X8856619Y-17034181D01*
X8847095Y-17053229D01*
X8837571Y-17062752D01*
X8818524Y-17072276D01*
X8799476Y-17072276D01*
X8780429Y-17062752D01*
X8770905Y-17053229D01*
X8761381Y-17034181D01*
X8751857Y-16996086D01*
X8751857Y-16948467D01*
X8761381Y-16910371D01*
X8770905Y-16891324D01*
X8780429Y-16881800D01*
X8799476Y-16872276D01*
X8951857Y-17053229D02*
X8961381Y-17062752D01*
X8951857Y-17072276D01*
X8942333Y-17062752D01*
X8951857Y-17053229D01*
X8951857Y-17072276D01*
X9085190Y-16872276D02*
X9104238Y-16872276D01*
X9123286Y-16881800D01*
X9132810Y-16891324D01*
X9142333Y-16910371D01*
X9151857Y-16948467D01*
X9151857Y-16996086D01*
X9142333Y-17034181D01*
X9132810Y-17053229D01*
X9123286Y-17062752D01*
X9104238Y-17072276D01*
X9085190Y-17072276D01*
X9066143Y-17062752D01*
X9056619Y-17053229D01*
X9047095Y-17034181D01*
X9037571Y-16996086D01*
X9037571Y-16948467D01*
X9047095Y-16910371D01*
X9056619Y-16891324D01*
X9066143Y-16881800D01*
X9085190Y-16872276D01*
X9218524Y-16872276D02*
X9342333Y-16872276D01*
X9275667Y-16948467D01*
X9304238Y-16948467D01*
X9323286Y-16957990D01*
X9332810Y-16967514D01*
X9342333Y-16986562D01*
X9342333Y-17034181D01*
X9332810Y-17053229D01*
X9323286Y-17062752D01*
X9304238Y-17072276D01*
X9247095Y-17072276D01*
X9228048Y-17062752D01*
X9218524Y-17053229D01*
X9532810Y-17072276D02*
X9418524Y-17072276D01*
X9475667Y-17072276D02*
X9475667Y-16872276D01*
X9456619Y-16900848D01*
X9437571Y-16919895D01*
X9418524Y-16929419D01*
X9656619Y-16872276D02*
X9675667Y-16872276D01*
X9694714Y-16881800D01*
X9704238Y-16891324D01*
X9713762Y-16910371D01*
X9723286Y-16948467D01*
X9723286Y-16996086D01*
X9713762Y-17034181D01*
X9704238Y-17053229D01*
X9694714Y-17062752D01*
X9675667Y-17072276D01*
X9656619Y-17072276D01*
X9637571Y-17062752D01*
X9628048Y-17053229D01*
X9618524Y-17034181D01*
X9609000Y-16996086D01*
X9609000Y-16948467D01*
X9618524Y-16910371D01*
X9628048Y-16891324D01*
X9637571Y-16881800D01*
X9656619Y-16872276D01*
X9799476Y-16872276D02*
X9799476Y-16910371D01*
X9875667Y-16872276D02*
X9875667Y-16910371D01*
X10170905Y-17148467D02*
X10161381Y-17138943D01*
X10142333Y-17110371D01*
X10132810Y-17091324D01*
X10123286Y-17062752D01*
X10113762Y-17015133D01*
X10113762Y-16977038D01*
X10123286Y-16929419D01*
X10132810Y-16900848D01*
X10142333Y-16881800D01*
X10161381Y-16853229D01*
X10170905Y-16843705D01*
X10228048Y-16872276D02*
X10361381Y-16872276D01*
X10275667Y-17072276D01*
X10589952Y-17072276D02*
X10589952Y-16872276D01*
X10675667Y-17072276D02*
X10675667Y-16967514D01*
X10666143Y-16948467D01*
X10647095Y-16938943D01*
X10618524Y-16938943D01*
X10599476Y-16948467D01*
X10589952Y-16957990D01*
X10799476Y-17072276D02*
X10780429Y-17062752D01*
X10770905Y-17053229D01*
X10761381Y-17034181D01*
X10761381Y-16977038D01*
X10770905Y-16957990D01*
X10780429Y-16948467D01*
X10799476Y-16938943D01*
X10828048Y-16938943D01*
X10847095Y-16948467D01*
X10856619Y-16957990D01*
X10866143Y-16977038D01*
X10866143Y-17034181D01*
X10856619Y-17053229D01*
X10847095Y-17062752D01*
X10828048Y-17072276D01*
X10799476Y-17072276D01*
X10980429Y-17072276D02*
X10961381Y-17062752D01*
X10951857Y-17043705D01*
X10951857Y-16872276D01*
X11132810Y-17062752D02*
X11113762Y-17072276D01*
X11075667Y-17072276D01*
X11056619Y-17062752D01*
X11047095Y-17043705D01*
X11047095Y-16967514D01*
X11056619Y-16948467D01*
X11075667Y-16938943D01*
X11113762Y-16938943D01*
X11132810Y-16948467D01*
X11142333Y-16967514D01*
X11142333Y-16986562D01*
X11047095Y-17005610D01*
X11218524Y-17062752D02*
X11237571Y-17072276D01*
X11275667Y-17072276D01*
X11294714Y-17062752D01*
X11304238Y-17043705D01*
X11304238Y-17034181D01*
X11294714Y-17015133D01*
X11275667Y-17005610D01*
X11247095Y-17005610D01*
X11228048Y-16996086D01*
X11218524Y-16977038D01*
X11218524Y-16967514D01*
X11228048Y-16948467D01*
X11247095Y-16938943D01*
X11275667Y-16938943D01*
X11294714Y-16948467D01*
X11370905Y-17148467D02*
X11380428Y-17138943D01*
X11399476Y-17110371D01*
X11409000Y-17091324D01*
X11418524Y-17062752D01*
X11428048Y-17015133D01*
X11428048Y-16977038D01*
X11418524Y-16929419D01*
X11409000Y-16900848D01*
X11399476Y-16881800D01*
X11380428Y-16853229D01*
X11370905Y-16843705D01*
D16*
X6559000Y-17285800D02*
X6599000Y-17245800D01*
X6559000Y-17205800D01*
X6519000Y-17245800D01*
X6559000Y-17285800D01*
D11*
X6894714Y-17136276D02*
X6913762Y-17136276D01*
X6932809Y-17145800D01*
X6942333Y-17155324D01*
X6951857Y-17174371D01*
X6961381Y-17212467D01*
X6961381Y-17260086D01*
X6951857Y-17298181D01*
X6942333Y-17317229D01*
X6932809Y-17326752D01*
X6913762Y-17336276D01*
X6894714Y-17336276D01*
X6875667Y-17326752D01*
X6866143Y-17317229D01*
X6856619Y-17298181D01*
X6847095Y-17260086D01*
X6847095Y-17212467D01*
X6856619Y-17174371D01*
X6866143Y-17155324D01*
X6875667Y-17145800D01*
X6894714Y-17136276D01*
X7047095Y-17317229D02*
X7056619Y-17326752D01*
X7047095Y-17336276D01*
X7037571Y-17326752D01*
X7047095Y-17317229D01*
X7047095Y-17336276D01*
X7170905Y-17221990D02*
X7151857Y-17212467D01*
X7142333Y-17202943D01*
X7132809Y-17183895D01*
X7132809Y-17174371D01*
X7142333Y-17155324D01*
X7151857Y-17145800D01*
X7170905Y-17136276D01*
X7209000Y-17136276D01*
X7228048Y-17145800D01*
X7237571Y-17155324D01*
X7247095Y-17174371D01*
X7247095Y-17183895D01*
X7237571Y-17202943D01*
X7228048Y-17212467D01*
X7209000Y-17221990D01*
X7170905Y-17221990D01*
X7151857Y-17231514D01*
X7142333Y-17241038D01*
X7132809Y-17260086D01*
X7132809Y-17298181D01*
X7142333Y-17317229D01*
X7151857Y-17326752D01*
X7170905Y-17336276D01*
X7209000Y-17336276D01*
X7228048Y-17326752D01*
X7237571Y-17317229D01*
X7247095Y-17298181D01*
X7247095Y-17260086D01*
X7237571Y-17241038D01*
X7228048Y-17231514D01*
X7209000Y-17221990D01*
X7370905Y-17136276D02*
X7389952Y-17136276D01*
X7409000Y-17145800D01*
X7418524Y-17155324D01*
X7428048Y-17174371D01*
X7437571Y-17212467D01*
X7437571Y-17260086D01*
X7428048Y-17298181D01*
X7418524Y-17317229D01*
X7409000Y-17326752D01*
X7389952Y-17336276D01*
X7370905Y-17336276D01*
X7351857Y-17326752D01*
X7342333Y-17317229D01*
X7332809Y-17298181D01*
X7323286Y-17260086D01*
X7323286Y-17212467D01*
X7332809Y-17174371D01*
X7342333Y-17155324D01*
X7351857Y-17145800D01*
X7370905Y-17136276D01*
X7561381Y-17136276D02*
X7580428Y-17136276D01*
X7599476Y-17145800D01*
X7609000Y-17155324D01*
X7618524Y-17174371D01*
X7628048Y-17212467D01*
X7628048Y-17260086D01*
X7618524Y-17298181D01*
X7609000Y-17317229D01*
X7599476Y-17326752D01*
X7580428Y-17336276D01*
X7561381Y-17336276D01*
X7542333Y-17326752D01*
X7532809Y-17317229D01*
X7523286Y-17298181D01*
X7513762Y-17260086D01*
X7513762Y-17212467D01*
X7523286Y-17174371D01*
X7532809Y-17155324D01*
X7542333Y-17145800D01*
X7561381Y-17136276D01*
X7713762Y-17336276D02*
X7713762Y-17202943D01*
X7713762Y-17221990D02*
X7723286Y-17212467D01*
X7742333Y-17202943D01*
X7770905Y-17202943D01*
X7789952Y-17212467D01*
X7799476Y-17231514D01*
X7799476Y-17336276D01*
X7799476Y-17231514D02*
X7809000Y-17212467D01*
X7828048Y-17202943D01*
X7856619Y-17202943D01*
X7875667Y-17212467D01*
X7885190Y-17231514D01*
X7885190Y-17336276D01*
X7980428Y-17336276D02*
X7980428Y-17202943D01*
X7980428Y-17221990D02*
X7989952Y-17212467D01*
X8009000Y-17202943D01*
X8037571Y-17202943D01*
X8056619Y-17212467D01*
X8066143Y-17231514D01*
X8066143Y-17336276D01*
X8066143Y-17231514D02*
X8075667Y-17212467D01*
X8094714Y-17202943D01*
X8123286Y-17202943D01*
X8142333Y-17212467D01*
X8151857Y-17231514D01*
X8151857Y-17336276D01*
X8542333Y-17126752D02*
X8370905Y-17383895D01*
X8799476Y-17136276D02*
X8818524Y-17136276D01*
X8837571Y-17145800D01*
X8847095Y-17155324D01*
X8856619Y-17174371D01*
X8866143Y-17212467D01*
X8866143Y-17260086D01*
X8856619Y-17298181D01*
X8847095Y-17317229D01*
X8837571Y-17326752D01*
X8818524Y-17336276D01*
X8799476Y-17336276D01*
X8780429Y-17326752D01*
X8770905Y-17317229D01*
X8761381Y-17298181D01*
X8751857Y-17260086D01*
X8751857Y-17212467D01*
X8761381Y-17174371D01*
X8770905Y-17155324D01*
X8780429Y-17145800D01*
X8799476Y-17136276D01*
X8951857Y-17317229D02*
X8961381Y-17326752D01*
X8951857Y-17336276D01*
X8942333Y-17326752D01*
X8951857Y-17317229D01*
X8951857Y-17336276D01*
X9085190Y-17136276D02*
X9104238Y-17136276D01*
X9123286Y-17145800D01*
X9132810Y-17155324D01*
X9142333Y-17174371D01*
X9151857Y-17212467D01*
X9151857Y-17260086D01*
X9142333Y-17298181D01*
X9132810Y-17317229D01*
X9123286Y-17326752D01*
X9104238Y-17336276D01*
X9085190Y-17336276D01*
X9066143Y-17326752D01*
X9056619Y-17317229D01*
X9047095Y-17298181D01*
X9037571Y-17260086D01*
X9037571Y-17212467D01*
X9047095Y-17174371D01*
X9056619Y-17155324D01*
X9066143Y-17145800D01*
X9085190Y-17136276D01*
X9218524Y-17136276D02*
X9342333Y-17136276D01*
X9275667Y-17212467D01*
X9304238Y-17212467D01*
X9323286Y-17221990D01*
X9332810Y-17231514D01*
X9342333Y-17250562D01*
X9342333Y-17298181D01*
X9332810Y-17317229D01*
X9323286Y-17326752D01*
X9304238Y-17336276D01*
X9247095Y-17336276D01*
X9228048Y-17326752D01*
X9218524Y-17317229D01*
X9532810Y-17336276D02*
X9418524Y-17336276D01*
X9475667Y-17336276D02*
X9475667Y-17136276D01*
X9456619Y-17164848D01*
X9437571Y-17183895D01*
X9418524Y-17193419D01*
X9713762Y-17136276D02*
X9618524Y-17136276D01*
X9609000Y-17231514D01*
X9618524Y-17221990D01*
X9637571Y-17212467D01*
X9685190Y-17212467D01*
X9704238Y-17221990D01*
X9713762Y-17231514D01*
X9723286Y-17250562D01*
X9723286Y-17298181D01*
X9713762Y-17317229D01*
X9704238Y-17326752D01*
X9685190Y-17336276D01*
X9637571Y-17336276D01*
X9618524Y-17326752D01*
X9609000Y-17317229D01*
X9799476Y-17136276D02*
X9799476Y-17174371D01*
X9875667Y-17136276D02*
X9875667Y-17174371D01*
X10170905Y-17412467D02*
X10161381Y-17402943D01*
X10142333Y-17374371D01*
X10132810Y-17355324D01*
X10123286Y-17326752D01*
X10113762Y-17279133D01*
X10113762Y-17241038D01*
X10123286Y-17193419D01*
X10132810Y-17164848D01*
X10142333Y-17145800D01*
X10161381Y-17117229D01*
X10170905Y-17107705D01*
X10332810Y-17202943D02*
X10332810Y-17336276D01*
X10285190Y-17126752D02*
X10237571Y-17269610D01*
X10361381Y-17269610D01*
X10418524Y-17136276D02*
X10551857Y-17136276D01*
X10466143Y-17336276D01*
X10780429Y-17336276D02*
X10780429Y-17136276D01*
X10866143Y-17336276D02*
X10866143Y-17231514D01*
X10856619Y-17212467D01*
X10837571Y-17202943D01*
X10809000Y-17202943D01*
X10789952Y-17212467D01*
X10780429Y-17221990D01*
X10989952Y-17336276D02*
X10970905Y-17326752D01*
X10961381Y-17317229D01*
X10951857Y-17298181D01*
X10951857Y-17241038D01*
X10961381Y-17221990D01*
X10970905Y-17212467D01*
X10989952Y-17202943D01*
X11018524Y-17202943D01*
X11037571Y-17212467D01*
X11047095Y-17221990D01*
X11056619Y-17241038D01*
X11056619Y-17298181D01*
X11047095Y-17317229D01*
X11037571Y-17326752D01*
X11018524Y-17336276D01*
X10989952Y-17336276D01*
X11170905Y-17336276D02*
X11151857Y-17326752D01*
X11142333Y-17307705D01*
X11142333Y-17136276D01*
X11323286Y-17326752D02*
X11304238Y-17336276D01*
X11266143Y-17336276D01*
X11247095Y-17326752D01*
X11237571Y-17307705D01*
X11237571Y-17231514D01*
X11247095Y-17212467D01*
X11266143Y-17202943D01*
X11304238Y-17202943D01*
X11323286Y-17212467D01*
X11332809Y-17231514D01*
X11332809Y-17250562D01*
X11237571Y-17269610D01*
X11409000Y-17326752D02*
X11428048Y-17336276D01*
X11466143Y-17336276D01*
X11485190Y-17326752D01*
X11494714Y-17307705D01*
X11494714Y-17298181D01*
X11485190Y-17279133D01*
X11466143Y-17269610D01*
X11437571Y-17269610D01*
X11418524Y-17260086D01*
X11409000Y-17241038D01*
X11409000Y-17231514D01*
X11418524Y-17212467D01*
X11437571Y-17202943D01*
X11466143Y-17202943D01*
X11485190Y-17212467D01*
X11561381Y-17412467D02*
X11570905Y-17402943D01*
X11589952Y-17374371D01*
X11599476Y-17355324D01*
X11609000Y-17326752D01*
X11618524Y-17279133D01*
X11618524Y-17241038D01*
X11609000Y-17193419D01*
X11599476Y-17164848D01*
X11589952Y-17145800D01*
X11570905Y-17117229D01*
X11561381Y-17107705D01*
D17*
X6509000Y-17464800D02*
X6599000Y-17554800D01*
X6599000Y-17464800D02*
X6509000Y-17554800D01*
X6599000Y-17509800D02*
G75*
G03*
X6599000Y-17509800I-45000J0D01*
G01*
D11*
X6894714Y-17400276D02*
X6913762Y-17400276D01*
X6932809Y-17409800D01*
X6942333Y-17419324D01*
X6951857Y-17438371D01*
X6961381Y-17476467D01*
X6961381Y-17524086D01*
X6951857Y-17562181D01*
X6942333Y-17581229D01*
X6932809Y-17590752D01*
X6913762Y-17600276D01*
X6894714Y-17600276D01*
X6875667Y-17590752D01*
X6866143Y-17581229D01*
X6856619Y-17562181D01*
X6847095Y-17524086D01*
X6847095Y-17476467D01*
X6856619Y-17438371D01*
X6866143Y-17419324D01*
X6875667Y-17409800D01*
X6894714Y-17400276D01*
X7047095Y-17581229D02*
X7056619Y-17590752D01*
X7047095Y-17600276D01*
X7037571Y-17590752D01*
X7047095Y-17581229D01*
X7047095Y-17600276D01*
X7151857Y-17600276D02*
X7189952Y-17600276D01*
X7209000Y-17590752D01*
X7218524Y-17581229D01*
X7237571Y-17552657D01*
X7247095Y-17514562D01*
X7247095Y-17438371D01*
X7237571Y-17419324D01*
X7228048Y-17409800D01*
X7209000Y-17400276D01*
X7170905Y-17400276D01*
X7151857Y-17409800D01*
X7142333Y-17419324D01*
X7132809Y-17438371D01*
X7132809Y-17485990D01*
X7142333Y-17505038D01*
X7151857Y-17514562D01*
X7170905Y-17524086D01*
X7209000Y-17524086D01*
X7228048Y-17514562D01*
X7237571Y-17505038D01*
X7247095Y-17485990D01*
X7370905Y-17400276D02*
X7389952Y-17400276D01*
X7409000Y-17409800D01*
X7418524Y-17419324D01*
X7428048Y-17438371D01*
X7437571Y-17476467D01*
X7437571Y-17524086D01*
X7428048Y-17562181D01*
X7418524Y-17581229D01*
X7409000Y-17590752D01*
X7389952Y-17600276D01*
X7370905Y-17600276D01*
X7351857Y-17590752D01*
X7342333Y-17581229D01*
X7332809Y-17562181D01*
X7323286Y-17524086D01*
X7323286Y-17476467D01*
X7332809Y-17438371D01*
X7342333Y-17419324D01*
X7351857Y-17409800D01*
X7370905Y-17400276D01*
X7561381Y-17400276D02*
X7580428Y-17400276D01*
X7599476Y-17409800D01*
X7609000Y-17419324D01*
X7618524Y-17438371D01*
X7628048Y-17476467D01*
X7628048Y-17524086D01*
X7618524Y-17562181D01*
X7609000Y-17581229D01*
X7599476Y-17590752D01*
X7580428Y-17600276D01*
X7561381Y-17600276D01*
X7542333Y-17590752D01*
X7532809Y-17581229D01*
X7523286Y-17562181D01*
X7513762Y-17524086D01*
X7513762Y-17476467D01*
X7523286Y-17438371D01*
X7532809Y-17419324D01*
X7542333Y-17409800D01*
X7561381Y-17400276D01*
X7713762Y-17600276D02*
X7713762Y-17466943D01*
X7713762Y-17485990D02*
X7723286Y-17476467D01*
X7742333Y-17466943D01*
X7770905Y-17466943D01*
X7789952Y-17476467D01*
X7799476Y-17495514D01*
X7799476Y-17600276D01*
X7799476Y-17495514D02*
X7809000Y-17476467D01*
X7828048Y-17466943D01*
X7856619Y-17466943D01*
X7875667Y-17476467D01*
X7885190Y-17495514D01*
X7885190Y-17600276D01*
X7980428Y-17600276D02*
X7980428Y-17466943D01*
X7980428Y-17485990D02*
X7989952Y-17476467D01*
X8009000Y-17466943D01*
X8037571Y-17466943D01*
X8056619Y-17476467D01*
X8066143Y-17495514D01*
X8066143Y-17600276D01*
X8066143Y-17495514D02*
X8075667Y-17476467D01*
X8094714Y-17466943D01*
X8123286Y-17466943D01*
X8142333Y-17476467D01*
X8151857Y-17495514D01*
X8151857Y-17600276D01*
X8542333Y-17390752D02*
X8370905Y-17647895D01*
X8799476Y-17400276D02*
X8818524Y-17400276D01*
X8837571Y-17409800D01*
X8847095Y-17419324D01*
X8856619Y-17438371D01*
X8866143Y-17476467D01*
X8866143Y-17524086D01*
X8856619Y-17562181D01*
X8847095Y-17581229D01*
X8837571Y-17590752D01*
X8818524Y-17600276D01*
X8799476Y-17600276D01*
X8780429Y-17590752D01*
X8770905Y-17581229D01*
X8761381Y-17562181D01*
X8751857Y-17524086D01*
X8751857Y-17476467D01*
X8761381Y-17438371D01*
X8770905Y-17419324D01*
X8780429Y-17409800D01*
X8799476Y-17400276D01*
X8951857Y-17581229D02*
X8961381Y-17590752D01*
X8951857Y-17600276D01*
X8942333Y-17590752D01*
X8951857Y-17581229D01*
X8951857Y-17600276D01*
X9085190Y-17400276D02*
X9104238Y-17400276D01*
X9123286Y-17409800D01*
X9132810Y-17419324D01*
X9142333Y-17438371D01*
X9151857Y-17476467D01*
X9151857Y-17524086D01*
X9142333Y-17562181D01*
X9132810Y-17581229D01*
X9123286Y-17590752D01*
X9104238Y-17600276D01*
X9085190Y-17600276D01*
X9066143Y-17590752D01*
X9056619Y-17581229D01*
X9047095Y-17562181D01*
X9037571Y-17524086D01*
X9037571Y-17476467D01*
X9047095Y-17438371D01*
X9056619Y-17419324D01*
X9066143Y-17409800D01*
X9085190Y-17400276D01*
X9218524Y-17400276D02*
X9342333Y-17400276D01*
X9275667Y-17476467D01*
X9304238Y-17476467D01*
X9323286Y-17485990D01*
X9332810Y-17495514D01*
X9342333Y-17514562D01*
X9342333Y-17562181D01*
X9332810Y-17581229D01*
X9323286Y-17590752D01*
X9304238Y-17600276D01*
X9247095Y-17600276D01*
X9228048Y-17590752D01*
X9218524Y-17581229D01*
X9523286Y-17400276D02*
X9428048Y-17400276D01*
X9418524Y-17495514D01*
X9428048Y-17485990D01*
X9447095Y-17476467D01*
X9494714Y-17476467D01*
X9513762Y-17485990D01*
X9523286Y-17495514D01*
X9532810Y-17514562D01*
X9532810Y-17562181D01*
X9523286Y-17581229D01*
X9513762Y-17590752D01*
X9494714Y-17600276D01*
X9447095Y-17600276D01*
X9428048Y-17590752D01*
X9418524Y-17581229D01*
X9704238Y-17466943D02*
X9704238Y-17600276D01*
X9656619Y-17390752D02*
X9609000Y-17533610D01*
X9732810Y-17533610D01*
X9799476Y-17400276D02*
X9799476Y-17438371D01*
X9875667Y-17400276D02*
X9875667Y-17438371D01*
X10170905Y-17676467D02*
X10161381Y-17666943D01*
X10142333Y-17638371D01*
X10132810Y-17619324D01*
X10123286Y-17590752D01*
X10113762Y-17543133D01*
X10113762Y-17505038D01*
X10123286Y-17457419D01*
X10132810Y-17428848D01*
X10142333Y-17409800D01*
X10161381Y-17381229D01*
X10170905Y-17371705D01*
X10237571Y-17419324D02*
X10247095Y-17409800D01*
X10266143Y-17400276D01*
X10313762Y-17400276D01*
X10332810Y-17409800D01*
X10342333Y-17419324D01*
X10351857Y-17438371D01*
X10351857Y-17457419D01*
X10342333Y-17485990D01*
X10228048Y-17600276D01*
X10351857Y-17600276D01*
X10589952Y-17600276D02*
X10589952Y-17400276D01*
X10675667Y-17600276D02*
X10675667Y-17495514D01*
X10666143Y-17476467D01*
X10647095Y-17466943D01*
X10618524Y-17466943D01*
X10599476Y-17476467D01*
X10589952Y-17485990D01*
X10799476Y-17600276D02*
X10780429Y-17590752D01*
X10770905Y-17581229D01*
X10761381Y-17562181D01*
X10761381Y-17505038D01*
X10770905Y-17485990D01*
X10780429Y-17476467D01*
X10799476Y-17466943D01*
X10828048Y-17466943D01*
X10847095Y-17476467D01*
X10856619Y-17485990D01*
X10866143Y-17505038D01*
X10866143Y-17562181D01*
X10856619Y-17581229D01*
X10847095Y-17590752D01*
X10828048Y-17600276D01*
X10799476Y-17600276D01*
X10980429Y-17600276D02*
X10961381Y-17590752D01*
X10951857Y-17571705D01*
X10951857Y-17400276D01*
X11132810Y-17590752D02*
X11113762Y-17600276D01*
X11075667Y-17600276D01*
X11056619Y-17590752D01*
X11047095Y-17571705D01*
X11047095Y-17495514D01*
X11056619Y-17476467D01*
X11075667Y-17466943D01*
X11113762Y-17466943D01*
X11132810Y-17476467D01*
X11142333Y-17495514D01*
X11142333Y-17514562D01*
X11047095Y-17533610D01*
X11218524Y-17590752D02*
X11237571Y-17600276D01*
X11275667Y-17600276D01*
X11294714Y-17590752D01*
X11304238Y-17571705D01*
X11304238Y-17562181D01*
X11294714Y-17543133D01*
X11275667Y-17533610D01*
X11247095Y-17533610D01*
X11228048Y-17524086D01*
X11218524Y-17505038D01*
X11218524Y-17495514D01*
X11228048Y-17476467D01*
X11247095Y-17466943D01*
X11275667Y-17466943D01*
X11294714Y-17476467D01*
X11370905Y-17676467D02*
X11380428Y-17666943D01*
X11399476Y-17638371D01*
X11409000Y-17619324D01*
X11418524Y-17590752D01*
X11428048Y-17543133D01*
X11428048Y-17505038D01*
X11418524Y-17457419D01*
X11409000Y-17428848D01*
X11399476Y-17409800D01*
X11380428Y-17381229D01*
X11370905Y-17371705D01*
D10*
X6499000Y-17723800D02*
X6599000Y-17823800D01*
X6599000Y-17723800D02*
X6499000Y-17823800D01*
X6549000Y-17723800D02*
X6549000Y-17823800D01*
X6499000Y-17773800D02*
X6599000Y-17773800D01*
D11*
X6961381Y-17864276D02*
X6847095Y-17864276D01*
X6904238Y-17864276D02*
X6904238Y-17664276D01*
X6885190Y-17692848D01*
X6866143Y-17711895D01*
X6847095Y-17721419D01*
X7047095Y-17845229D02*
X7056619Y-17854752D01*
X7047095Y-17864276D01*
X7037571Y-17854752D01*
X7047095Y-17845229D01*
X7047095Y-17864276D01*
X7180428Y-17664276D02*
X7199476Y-17664276D01*
X7218524Y-17673800D01*
X7228048Y-17683324D01*
X7237571Y-17702371D01*
X7247095Y-17740467D01*
X7247095Y-17788086D01*
X7237571Y-17826181D01*
X7228048Y-17845229D01*
X7218524Y-17854752D01*
X7199476Y-17864276D01*
X7180428Y-17864276D01*
X7161381Y-17854752D01*
X7151857Y-17845229D01*
X7142333Y-17826181D01*
X7132809Y-17788086D01*
X7132809Y-17740467D01*
X7142333Y-17702371D01*
X7151857Y-17683324D01*
X7161381Y-17673800D01*
X7180428Y-17664276D01*
X7370905Y-17664276D02*
X7389952Y-17664276D01*
X7409000Y-17673800D01*
X7418524Y-17683324D01*
X7428048Y-17702371D01*
X7437571Y-17740467D01*
X7437571Y-17788086D01*
X7428048Y-17826181D01*
X7418524Y-17845229D01*
X7409000Y-17854752D01*
X7389952Y-17864276D01*
X7370905Y-17864276D01*
X7351857Y-17854752D01*
X7342333Y-17845229D01*
X7332809Y-17826181D01*
X7323286Y-17788086D01*
X7323286Y-17740467D01*
X7332809Y-17702371D01*
X7342333Y-17683324D01*
X7351857Y-17673800D01*
X7370905Y-17664276D01*
X7561381Y-17664276D02*
X7580428Y-17664276D01*
X7599476Y-17673800D01*
X7609000Y-17683324D01*
X7618524Y-17702371D01*
X7628048Y-17740467D01*
X7628048Y-17788086D01*
X7618524Y-17826181D01*
X7609000Y-17845229D01*
X7599476Y-17854752D01*
X7580428Y-17864276D01*
X7561381Y-17864276D01*
X7542333Y-17854752D01*
X7532809Y-17845229D01*
X7523286Y-17826181D01*
X7513762Y-17788086D01*
X7513762Y-17740467D01*
X7523286Y-17702371D01*
X7532809Y-17683324D01*
X7542333Y-17673800D01*
X7561381Y-17664276D01*
X7713762Y-17864276D02*
X7713762Y-17730943D01*
X7713762Y-17749990D02*
X7723286Y-17740467D01*
X7742333Y-17730943D01*
X7770905Y-17730943D01*
X7789952Y-17740467D01*
X7799476Y-17759514D01*
X7799476Y-17864276D01*
X7799476Y-17759514D02*
X7809000Y-17740467D01*
X7828048Y-17730943D01*
X7856619Y-17730943D01*
X7875667Y-17740467D01*
X7885190Y-17759514D01*
X7885190Y-17864276D01*
X7980428Y-17864276D02*
X7980428Y-17730943D01*
X7980428Y-17749990D02*
X7989952Y-17740467D01*
X8009000Y-17730943D01*
X8037571Y-17730943D01*
X8056619Y-17740467D01*
X8066143Y-17759514D01*
X8066143Y-17864276D01*
X8066143Y-17759514D02*
X8075667Y-17740467D01*
X8094714Y-17730943D01*
X8123286Y-17730943D01*
X8142333Y-17740467D01*
X8151857Y-17759514D01*
X8151857Y-17864276D01*
X8542333Y-17654752D02*
X8370905Y-17911895D01*
X8799476Y-17664276D02*
X8818524Y-17664276D01*
X8837571Y-17673800D01*
X8847095Y-17683324D01*
X8856619Y-17702371D01*
X8866143Y-17740467D01*
X8866143Y-17788086D01*
X8856619Y-17826181D01*
X8847095Y-17845229D01*
X8837571Y-17854752D01*
X8818524Y-17864276D01*
X8799476Y-17864276D01*
X8780429Y-17854752D01*
X8770905Y-17845229D01*
X8761381Y-17826181D01*
X8751857Y-17788086D01*
X8751857Y-17740467D01*
X8761381Y-17702371D01*
X8770905Y-17683324D01*
X8780429Y-17673800D01*
X8799476Y-17664276D01*
X8951857Y-17845229D02*
X8961381Y-17854752D01*
X8951857Y-17864276D01*
X8942333Y-17854752D01*
X8951857Y-17845229D01*
X8951857Y-17864276D01*
X9085190Y-17664276D02*
X9104238Y-17664276D01*
X9123286Y-17673800D01*
X9132810Y-17683324D01*
X9142333Y-17702371D01*
X9151857Y-17740467D01*
X9151857Y-17788086D01*
X9142333Y-17826181D01*
X9132810Y-17845229D01*
X9123286Y-17854752D01*
X9104238Y-17864276D01*
X9085190Y-17864276D01*
X9066143Y-17854752D01*
X9056619Y-17845229D01*
X9047095Y-17826181D01*
X9037571Y-17788086D01*
X9037571Y-17740467D01*
X9047095Y-17702371D01*
X9056619Y-17683324D01*
X9066143Y-17673800D01*
X9085190Y-17664276D01*
X9218524Y-17664276D02*
X9342333Y-17664276D01*
X9275667Y-17740467D01*
X9304238Y-17740467D01*
X9323286Y-17749990D01*
X9332810Y-17759514D01*
X9342333Y-17778562D01*
X9342333Y-17826181D01*
X9332810Y-17845229D01*
X9323286Y-17854752D01*
X9304238Y-17864276D01*
X9247095Y-17864276D01*
X9228048Y-17854752D01*
X9218524Y-17845229D01*
X9437571Y-17864276D02*
X9475667Y-17864276D01*
X9494714Y-17854752D01*
X9504238Y-17845229D01*
X9523286Y-17816657D01*
X9532810Y-17778562D01*
X9532810Y-17702371D01*
X9523286Y-17683324D01*
X9513762Y-17673800D01*
X9494714Y-17664276D01*
X9456619Y-17664276D01*
X9437571Y-17673800D01*
X9428048Y-17683324D01*
X9418524Y-17702371D01*
X9418524Y-17749990D01*
X9428048Y-17769038D01*
X9437571Y-17778562D01*
X9456619Y-17788086D01*
X9494714Y-17788086D01*
X9513762Y-17778562D01*
X9523286Y-17769038D01*
X9532810Y-17749990D01*
X9704238Y-17730943D02*
X9704238Y-17864276D01*
X9656619Y-17654752D02*
X9609000Y-17797610D01*
X9732810Y-17797610D01*
X9799476Y-17664276D02*
X9799476Y-17702371D01*
X9875667Y-17664276D02*
X9875667Y-17702371D01*
X10170905Y-17940467D02*
X10161381Y-17930943D01*
X10142333Y-17902371D01*
X10132810Y-17883324D01*
X10123286Y-17854752D01*
X10113762Y-17807133D01*
X10113762Y-17769038D01*
X10123286Y-17721419D01*
X10132810Y-17692848D01*
X10142333Y-17673800D01*
X10161381Y-17645229D01*
X10170905Y-17635705D01*
X10351857Y-17864276D02*
X10237571Y-17864276D01*
X10294714Y-17864276D02*
X10294714Y-17664276D01*
X10275667Y-17692848D01*
X10256619Y-17711895D01*
X10237571Y-17721419D01*
X10523286Y-17664276D02*
X10485190Y-17664276D01*
X10466143Y-17673800D01*
X10456619Y-17683324D01*
X10437571Y-17711895D01*
X10428048Y-17749990D01*
X10428048Y-17826181D01*
X10437571Y-17845229D01*
X10447095Y-17854752D01*
X10466143Y-17864276D01*
X10504238Y-17864276D01*
X10523286Y-17854752D01*
X10532810Y-17845229D01*
X10542333Y-17826181D01*
X10542333Y-17778562D01*
X10532810Y-17759514D01*
X10523286Y-17749990D01*
X10504238Y-17740467D01*
X10466143Y-17740467D01*
X10447095Y-17749990D01*
X10437571Y-17759514D01*
X10428048Y-17778562D01*
X10723286Y-17664276D02*
X10628048Y-17664276D01*
X10618524Y-17759514D01*
X10628048Y-17749990D01*
X10647095Y-17740467D01*
X10694714Y-17740467D01*
X10713762Y-17749990D01*
X10723286Y-17759514D01*
X10732810Y-17778562D01*
X10732810Y-17826181D01*
X10723286Y-17845229D01*
X10713762Y-17854752D01*
X10694714Y-17864276D01*
X10647095Y-17864276D01*
X10628048Y-17854752D01*
X10618524Y-17845229D01*
X10970905Y-17864276D02*
X10970905Y-17664276D01*
X11056619Y-17864276D02*
X11056619Y-17759514D01*
X11047095Y-17740467D01*
X11028048Y-17730943D01*
X10999476Y-17730943D01*
X10980429Y-17740467D01*
X10970905Y-17749990D01*
X11180429Y-17864276D02*
X11161381Y-17854752D01*
X11151857Y-17845229D01*
X11142333Y-17826181D01*
X11142333Y-17769038D01*
X11151857Y-17749990D01*
X11161381Y-17740467D01*
X11180429Y-17730943D01*
X11209000Y-17730943D01*
X11228048Y-17740467D01*
X11237571Y-17749990D01*
X11247095Y-17769038D01*
X11247095Y-17826181D01*
X11237571Y-17845229D01*
X11228048Y-17854752D01*
X11209000Y-17864276D01*
X11180429Y-17864276D01*
X11361381Y-17864276D02*
X11342333Y-17854752D01*
X11332809Y-17835705D01*
X11332809Y-17664276D01*
X11513762Y-17854752D02*
X11494714Y-17864276D01*
X11456619Y-17864276D01*
X11437571Y-17854752D01*
X11428048Y-17835705D01*
X11428048Y-17759514D01*
X11437571Y-17740467D01*
X11456619Y-17730943D01*
X11494714Y-17730943D01*
X11513762Y-17740467D01*
X11523286Y-17759514D01*
X11523286Y-17778562D01*
X11428048Y-17797610D01*
X11599476Y-17854752D02*
X11618524Y-17864276D01*
X11656619Y-17864276D01*
X11675667Y-17854752D01*
X11685190Y-17835705D01*
X11685190Y-17826181D01*
X11675667Y-17807133D01*
X11656619Y-17797610D01*
X11628048Y-17797610D01*
X11609000Y-17788086D01*
X11599476Y-17769038D01*
X11599476Y-17759514D01*
X11609000Y-17740467D01*
X11628048Y-17730943D01*
X11656619Y-17730943D01*
X11675667Y-17740467D01*
X11923286Y-17788086D02*
X12075667Y-17788086D01*
X11999476Y-17864276D02*
X11999476Y-17711895D01*
X12304238Y-17664276D02*
X12428048Y-17664276D01*
X12361381Y-17740467D01*
X12389952Y-17740467D01*
X12409000Y-17749990D01*
X12418524Y-17759514D01*
X12428048Y-17778562D01*
X12428048Y-17826181D01*
X12418524Y-17845229D01*
X12409000Y-17854752D01*
X12389952Y-17864276D01*
X12332809Y-17864276D01*
X12313762Y-17854752D01*
X12304238Y-17845229D01*
X12656619Y-17854752D02*
X12675667Y-17864276D01*
X12713762Y-17864276D01*
X12732809Y-17854752D01*
X12742333Y-17835705D01*
X12742333Y-17826181D01*
X12732809Y-17807133D01*
X12713762Y-17797610D01*
X12685190Y-17797610D01*
X12666143Y-17788086D01*
X12656619Y-17769038D01*
X12656619Y-17759514D01*
X12666143Y-17740467D01*
X12685190Y-17730943D01*
X12713762Y-17730943D01*
X12732809Y-17740467D01*
X12856619Y-17864276D02*
X12837571Y-17854752D01*
X12828048Y-17835705D01*
X12828048Y-17664276D01*
X12961381Y-17864276D02*
X12942333Y-17854752D01*
X12932809Y-17845229D01*
X12923286Y-17826181D01*
X12923286Y-17769038D01*
X12932809Y-17749990D01*
X12942333Y-17740467D01*
X12961381Y-17730943D01*
X12989952Y-17730943D01*
X13009000Y-17740467D01*
X13018524Y-17749990D01*
X13028048Y-17769038D01*
X13028048Y-17826181D01*
X13018524Y-17845229D01*
X13009000Y-17854752D01*
X12989952Y-17864276D01*
X12961381Y-17864276D01*
X13085190Y-17730943D02*
X13161381Y-17730943D01*
X13113762Y-17664276D02*
X13113762Y-17835705D01*
X13123286Y-17854752D01*
X13142333Y-17864276D01*
X13161381Y-17864276D01*
X13218524Y-17854752D02*
X13237571Y-17864276D01*
X13275667Y-17864276D01*
X13294714Y-17854752D01*
X13304238Y-17835705D01*
X13304238Y-17826181D01*
X13294714Y-17807133D01*
X13275667Y-17797610D01*
X13247095Y-17797610D01*
X13228048Y-17788086D01*
X13218524Y-17769038D01*
X13218524Y-17759514D01*
X13228048Y-17740467D01*
X13247095Y-17730943D01*
X13275667Y-17730943D01*
X13294714Y-17740467D01*
X13370905Y-17940467D02*
X13380428Y-17930943D01*
X13399476Y-17902371D01*
X13409000Y-17883324D01*
X13418524Y-17854752D01*
X13428048Y-17807133D01*
X13428048Y-17769038D01*
X13418524Y-17721419D01*
X13409000Y-17692848D01*
X13399476Y-17673800D01*
X13380428Y-17645229D01*
X13370905Y-17635705D01*
D18*
X6479000Y-17977800D02*
X6599000Y-18097800D01*
X6599000Y-17977800D02*
X6479000Y-18097800D01*
X6581427Y-18080227D02*
X6581427Y-17995373D01*
X6496573Y-17995373D01*
X6496573Y-18080227D01*
X6581427Y-18080227D01*
D11*
X6961381Y-18128276D02*
X6847095Y-18128276D01*
X6904238Y-18128276D02*
X6904238Y-17928276D01*
X6885190Y-17956848D01*
X6866143Y-17975895D01*
X6847095Y-17985419D01*
X7047095Y-18109229D02*
X7056619Y-18118752D01*
X7047095Y-18128276D01*
X7037571Y-18118752D01*
X7047095Y-18109229D01*
X7047095Y-18128276D01*
X7132809Y-17947324D02*
X7142333Y-17937800D01*
X7161381Y-17928276D01*
X7209000Y-17928276D01*
X7228048Y-17937800D01*
X7237571Y-17947324D01*
X7247095Y-17966371D01*
X7247095Y-17985419D01*
X7237571Y-18013990D01*
X7123286Y-18128276D01*
X7247095Y-18128276D01*
X7370905Y-17928276D02*
X7389952Y-17928276D01*
X7409000Y-17937800D01*
X7418524Y-17947324D01*
X7428048Y-17966371D01*
X7437571Y-18004467D01*
X7437571Y-18052086D01*
X7428048Y-18090181D01*
X7418524Y-18109229D01*
X7409000Y-18118752D01*
X7389952Y-18128276D01*
X7370905Y-18128276D01*
X7351857Y-18118752D01*
X7342333Y-18109229D01*
X7332809Y-18090181D01*
X7323286Y-18052086D01*
X7323286Y-18004467D01*
X7332809Y-17966371D01*
X7342333Y-17947324D01*
X7351857Y-17937800D01*
X7370905Y-17928276D01*
X7561381Y-17928276D02*
X7580428Y-17928276D01*
X7599476Y-17937800D01*
X7609000Y-17947324D01*
X7618524Y-17966371D01*
X7628048Y-18004467D01*
X7628048Y-18052086D01*
X7618524Y-18090181D01*
X7609000Y-18109229D01*
X7599476Y-18118752D01*
X7580428Y-18128276D01*
X7561381Y-18128276D01*
X7542333Y-18118752D01*
X7532809Y-18109229D01*
X7523286Y-18090181D01*
X7513762Y-18052086D01*
X7513762Y-18004467D01*
X7523286Y-17966371D01*
X7532809Y-17947324D01*
X7542333Y-17937800D01*
X7561381Y-17928276D01*
X7713762Y-18128276D02*
X7713762Y-17994943D01*
X7713762Y-18013990D02*
X7723286Y-18004467D01*
X7742333Y-17994943D01*
X7770905Y-17994943D01*
X7789952Y-18004467D01*
X7799476Y-18023514D01*
X7799476Y-18128276D01*
X7799476Y-18023514D02*
X7809000Y-18004467D01*
X7828048Y-17994943D01*
X7856619Y-17994943D01*
X7875667Y-18004467D01*
X7885190Y-18023514D01*
X7885190Y-18128276D01*
X7980428Y-18128276D02*
X7980428Y-17994943D01*
X7980428Y-18013990D02*
X7989952Y-18004467D01*
X8009000Y-17994943D01*
X8037571Y-17994943D01*
X8056619Y-18004467D01*
X8066143Y-18023514D01*
X8066143Y-18128276D01*
X8066143Y-18023514D02*
X8075667Y-18004467D01*
X8094714Y-17994943D01*
X8123286Y-17994943D01*
X8142333Y-18004467D01*
X8151857Y-18023514D01*
X8151857Y-18128276D01*
X8542333Y-17918752D02*
X8370905Y-18175895D01*
X8799476Y-17928276D02*
X8818524Y-17928276D01*
X8837571Y-17937800D01*
X8847095Y-17947324D01*
X8856619Y-17966371D01*
X8866143Y-18004467D01*
X8866143Y-18052086D01*
X8856619Y-18090181D01*
X8847095Y-18109229D01*
X8837571Y-18118752D01*
X8818524Y-18128276D01*
X8799476Y-18128276D01*
X8780429Y-18118752D01*
X8770905Y-18109229D01*
X8761381Y-18090181D01*
X8751857Y-18052086D01*
X8751857Y-18004467D01*
X8761381Y-17966371D01*
X8770905Y-17947324D01*
X8780429Y-17937800D01*
X8799476Y-17928276D01*
X8951857Y-18109229D02*
X8961381Y-18118752D01*
X8951857Y-18128276D01*
X8942333Y-18118752D01*
X8951857Y-18109229D01*
X8951857Y-18128276D01*
X9085190Y-17928276D02*
X9104238Y-17928276D01*
X9123286Y-17937800D01*
X9132810Y-17947324D01*
X9142333Y-17966371D01*
X9151857Y-18004467D01*
X9151857Y-18052086D01*
X9142333Y-18090181D01*
X9132810Y-18109229D01*
X9123286Y-18118752D01*
X9104238Y-18128276D01*
X9085190Y-18128276D01*
X9066143Y-18118752D01*
X9056619Y-18109229D01*
X9047095Y-18090181D01*
X9037571Y-18052086D01*
X9037571Y-18004467D01*
X9047095Y-17966371D01*
X9056619Y-17947324D01*
X9066143Y-17937800D01*
X9085190Y-17928276D01*
X9323286Y-17994943D02*
X9323286Y-18128276D01*
X9275667Y-17918752D02*
X9228048Y-18061610D01*
X9351857Y-18061610D01*
X9409000Y-17928276D02*
X9542333Y-17928276D01*
X9456619Y-18128276D01*
X9609000Y-17947324D02*
X9618524Y-17937800D01*
X9637571Y-17928276D01*
X9685190Y-17928276D01*
X9704238Y-17937800D01*
X9713762Y-17947324D01*
X9723286Y-17966371D01*
X9723286Y-17985419D01*
X9713762Y-18013990D01*
X9599476Y-18128276D01*
X9723286Y-18128276D01*
X9799476Y-17928276D02*
X9799476Y-17966371D01*
X9875667Y-17928276D02*
X9875667Y-17966371D01*
X10170905Y-18204467D02*
X10161381Y-18194943D01*
X10142333Y-18166371D01*
X10132810Y-18147324D01*
X10123286Y-18118752D01*
X10113762Y-18071133D01*
X10113762Y-18033038D01*
X10123286Y-17985419D01*
X10132810Y-17956848D01*
X10142333Y-17937800D01*
X10161381Y-17909229D01*
X10170905Y-17899705D01*
X10351857Y-18128276D02*
X10237571Y-18128276D01*
X10294714Y-18128276D02*
X10294714Y-17928276D01*
X10275667Y-17956848D01*
X10256619Y-17975895D01*
X10237571Y-17985419D01*
X10523286Y-17928276D02*
X10485190Y-17928276D01*
X10466143Y-17937800D01*
X10456619Y-17947324D01*
X10437571Y-17975895D01*
X10428048Y-18013990D01*
X10428048Y-18090181D01*
X10437571Y-18109229D01*
X10447095Y-18118752D01*
X10466143Y-18128276D01*
X10504238Y-18128276D01*
X10523286Y-18118752D01*
X10532810Y-18109229D01*
X10542333Y-18090181D01*
X10542333Y-18042562D01*
X10532810Y-18023514D01*
X10523286Y-18013990D01*
X10504238Y-18004467D01*
X10466143Y-18004467D01*
X10447095Y-18013990D01*
X10437571Y-18023514D01*
X10428048Y-18042562D01*
X10780429Y-18128276D02*
X10780429Y-17928276D01*
X10866143Y-18128276D02*
X10866143Y-18023514D01*
X10856619Y-18004467D01*
X10837571Y-17994943D01*
X10809000Y-17994943D01*
X10789952Y-18004467D01*
X10780429Y-18013990D01*
X10989952Y-18128276D02*
X10970905Y-18118752D01*
X10961381Y-18109229D01*
X10951857Y-18090181D01*
X10951857Y-18033038D01*
X10961381Y-18013990D01*
X10970905Y-18004467D01*
X10989952Y-17994943D01*
X11018524Y-17994943D01*
X11037571Y-18004467D01*
X11047095Y-18013990D01*
X11056619Y-18033038D01*
X11056619Y-18090181D01*
X11047095Y-18109229D01*
X11037571Y-18118752D01*
X11018524Y-18128276D01*
X10989952Y-18128276D01*
X11170905Y-18128276D02*
X11151857Y-18118752D01*
X11142333Y-18099705D01*
X11142333Y-17928276D01*
X11323286Y-18118752D02*
X11304238Y-18128276D01*
X11266143Y-18128276D01*
X11247095Y-18118752D01*
X11237571Y-18099705D01*
X11237571Y-18023514D01*
X11247095Y-18004467D01*
X11266143Y-17994943D01*
X11304238Y-17994943D01*
X11323286Y-18004467D01*
X11332809Y-18023514D01*
X11332809Y-18042562D01*
X11237571Y-18061610D01*
X11409000Y-18118752D02*
X11428048Y-18128276D01*
X11466143Y-18128276D01*
X11485190Y-18118752D01*
X11494714Y-18099705D01*
X11494714Y-18090181D01*
X11485190Y-18071133D01*
X11466143Y-18061610D01*
X11437571Y-18061610D01*
X11418524Y-18052086D01*
X11409000Y-18033038D01*
X11409000Y-18023514D01*
X11418524Y-18004467D01*
X11437571Y-17994943D01*
X11466143Y-17994943D01*
X11485190Y-18004467D01*
X11561381Y-18204467D02*
X11570905Y-18194943D01*
X11589952Y-18166371D01*
X11599476Y-18147324D01*
X11609000Y-18118752D01*
X11618524Y-18071133D01*
X11618524Y-18033038D01*
X11609000Y-17985419D01*
X11599476Y-17956848D01*
X11589952Y-17937800D01*
X11570905Y-17909229D01*
X11561381Y-17899705D01*
X6399000Y-18201800D02*
X6599000Y-18401800D01*
X6599000Y-18201800D02*
X6399000Y-18401800D01*
X6499000Y-18401800D02*
X6599000Y-18301800D01*
X6499000Y-18201800D01*
X6399000Y-18301800D01*
X6499000Y-18401800D01*
X6847095Y-18211324D02*
X6856619Y-18201800D01*
X6875667Y-18192276D01*
X6923286Y-18192276D01*
X6942333Y-18201800D01*
X6951857Y-18211324D01*
X6961381Y-18230371D01*
X6961381Y-18249419D01*
X6951857Y-18277990D01*
X6837571Y-18392276D01*
X6961381Y-18392276D01*
X7047095Y-18373229D02*
X7056619Y-18382752D01*
X7047095Y-18392276D01*
X7037571Y-18382752D01*
X7047095Y-18373229D01*
X7047095Y-18392276D01*
X7237571Y-18192276D02*
X7142333Y-18192276D01*
X7132809Y-18287514D01*
X7142333Y-18277990D01*
X7161381Y-18268467D01*
X7209000Y-18268467D01*
X7228048Y-18277990D01*
X7237571Y-18287514D01*
X7247095Y-18306562D01*
X7247095Y-18354181D01*
X7237571Y-18373229D01*
X7228048Y-18382752D01*
X7209000Y-18392276D01*
X7161381Y-18392276D01*
X7142333Y-18382752D01*
X7132809Y-18373229D01*
X7370905Y-18192276D02*
X7389952Y-18192276D01*
X7409000Y-18201800D01*
X7418524Y-18211324D01*
X7428048Y-18230371D01*
X7437571Y-18268467D01*
X7437571Y-18316086D01*
X7428048Y-18354181D01*
X7418524Y-18373229D01*
X7409000Y-18382752D01*
X7389952Y-18392276D01*
X7370905Y-18392276D01*
X7351857Y-18382752D01*
X7342333Y-18373229D01*
X7332809Y-18354181D01*
X7323286Y-18316086D01*
X7323286Y-18268467D01*
X7332809Y-18230371D01*
X7342333Y-18211324D01*
X7351857Y-18201800D01*
X7370905Y-18192276D01*
X7561381Y-18192276D02*
X7580428Y-18192276D01*
X7599476Y-18201800D01*
X7609000Y-18211324D01*
X7618524Y-18230371D01*
X7628048Y-18268467D01*
X7628048Y-18316086D01*
X7618524Y-18354181D01*
X7609000Y-18373229D01*
X7599476Y-18382752D01*
X7580428Y-18392276D01*
X7561381Y-18392276D01*
X7542333Y-18382752D01*
X7532809Y-18373229D01*
X7523286Y-18354181D01*
X7513762Y-18316086D01*
X7513762Y-18268467D01*
X7523286Y-18230371D01*
X7532809Y-18211324D01*
X7542333Y-18201800D01*
X7561381Y-18192276D01*
X7713762Y-18392276D02*
X7713762Y-18258943D01*
X7713762Y-18277990D02*
X7723286Y-18268467D01*
X7742333Y-18258943D01*
X7770905Y-18258943D01*
X7789952Y-18268467D01*
X7799476Y-18287514D01*
X7799476Y-18392276D01*
X7799476Y-18287514D02*
X7809000Y-18268467D01*
X7828048Y-18258943D01*
X7856619Y-18258943D01*
X7875667Y-18268467D01*
X7885190Y-18287514D01*
X7885190Y-18392276D01*
X7980428Y-18392276D02*
X7980428Y-18258943D01*
X7980428Y-18277990D02*
X7989952Y-18268467D01*
X8009000Y-18258943D01*
X8037571Y-18258943D01*
X8056619Y-18268467D01*
X8066143Y-18287514D01*
X8066143Y-18392276D01*
X8066143Y-18287514D02*
X8075667Y-18268467D01*
X8094714Y-18258943D01*
X8123286Y-18258943D01*
X8142333Y-18268467D01*
X8151857Y-18287514D01*
X8151857Y-18392276D01*
X8542333Y-18182752D02*
X8370905Y-18439895D01*
X8799476Y-18192276D02*
X8818524Y-18192276D01*
X8837571Y-18201800D01*
X8847095Y-18211324D01*
X8856619Y-18230371D01*
X8866143Y-18268467D01*
X8866143Y-18316086D01*
X8856619Y-18354181D01*
X8847095Y-18373229D01*
X8837571Y-18382752D01*
X8818524Y-18392276D01*
X8799476Y-18392276D01*
X8780429Y-18382752D01*
X8770905Y-18373229D01*
X8761381Y-18354181D01*
X8751857Y-18316086D01*
X8751857Y-18268467D01*
X8761381Y-18230371D01*
X8770905Y-18211324D01*
X8780429Y-18201800D01*
X8799476Y-18192276D01*
X8951857Y-18373229D02*
X8961381Y-18382752D01*
X8951857Y-18392276D01*
X8942333Y-18382752D01*
X8951857Y-18373229D01*
X8951857Y-18392276D01*
X9085190Y-18192276D02*
X9104238Y-18192276D01*
X9123286Y-18201800D01*
X9132810Y-18211324D01*
X9142333Y-18230371D01*
X9151857Y-18268467D01*
X9151857Y-18316086D01*
X9142333Y-18354181D01*
X9132810Y-18373229D01*
X9123286Y-18382752D01*
X9104238Y-18392276D01*
X9085190Y-18392276D01*
X9066143Y-18382752D01*
X9056619Y-18373229D01*
X9047095Y-18354181D01*
X9037571Y-18316086D01*
X9037571Y-18268467D01*
X9047095Y-18230371D01*
X9056619Y-18211324D01*
X9066143Y-18201800D01*
X9085190Y-18192276D01*
X9247095Y-18392276D02*
X9285190Y-18392276D01*
X9304238Y-18382752D01*
X9313762Y-18373229D01*
X9332810Y-18344657D01*
X9342333Y-18306562D01*
X9342333Y-18230371D01*
X9332810Y-18211324D01*
X9323286Y-18201800D01*
X9304238Y-18192276D01*
X9266143Y-18192276D01*
X9247095Y-18201800D01*
X9237571Y-18211324D01*
X9228048Y-18230371D01*
X9228048Y-18277990D01*
X9237571Y-18297038D01*
X9247095Y-18306562D01*
X9266143Y-18316086D01*
X9304238Y-18316086D01*
X9323286Y-18306562D01*
X9332810Y-18297038D01*
X9342333Y-18277990D01*
X9456619Y-18277990D02*
X9437571Y-18268467D01*
X9428048Y-18258943D01*
X9418524Y-18239895D01*
X9418524Y-18230371D01*
X9428048Y-18211324D01*
X9437571Y-18201800D01*
X9456619Y-18192276D01*
X9494714Y-18192276D01*
X9513762Y-18201800D01*
X9523286Y-18211324D01*
X9532810Y-18230371D01*
X9532810Y-18239895D01*
X9523286Y-18258943D01*
X9513762Y-18268467D01*
X9494714Y-18277990D01*
X9456619Y-18277990D01*
X9437571Y-18287514D01*
X9428048Y-18297038D01*
X9418524Y-18316086D01*
X9418524Y-18354181D01*
X9428048Y-18373229D01*
X9437571Y-18382752D01*
X9456619Y-18392276D01*
X9494714Y-18392276D01*
X9513762Y-18382752D01*
X9523286Y-18373229D01*
X9532810Y-18354181D01*
X9532810Y-18316086D01*
X9523286Y-18297038D01*
X9513762Y-18287514D01*
X9494714Y-18277990D01*
X9704238Y-18258943D02*
X9704238Y-18392276D01*
X9656619Y-18182752D02*
X9609000Y-18325610D01*
X9732810Y-18325610D01*
X9799476Y-18192276D02*
X9799476Y-18230371D01*
X9875667Y-18192276D02*
X9875667Y-18230371D01*
X10170905Y-18468467D02*
X10161381Y-18458943D01*
X10142333Y-18430371D01*
X10132810Y-18411324D01*
X10123286Y-18382752D01*
X10113762Y-18335133D01*
X10113762Y-18297038D01*
X10123286Y-18249419D01*
X10132810Y-18220848D01*
X10142333Y-18201800D01*
X10161381Y-18173229D01*
X10170905Y-18163705D01*
X10332810Y-18258943D02*
X10332810Y-18392276D01*
X10285190Y-18182752D02*
X10237571Y-18325610D01*
X10361381Y-18325610D01*
X10589952Y-18392276D02*
X10589952Y-18192276D01*
X10675667Y-18392276D02*
X10675667Y-18287514D01*
X10666143Y-18268467D01*
X10647095Y-18258943D01*
X10618524Y-18258943D01*
X10599476Y-18268467D01*
X10589952Y-18277990D01*
X10799476Y-18392276D02*
X10780429Y-18382752D01*
X10770905Y-18373229D01*
X10761381Y-18354181D01*
X10761381Y-18297038D01*
X10770905Y-18277990D01*
X10780429Y-18268467D01*
X10799476Y-18258943D01*
X10828048Y-18258943D01*
X10847095Y-18268467D01*
X10856619Y-18277990D01*
X10866143Y-18297038D01*
X10866143Y-18354181D01*
X10856619Y-18373229D01*
X10847095Y-18382752D01*
X10828048Y-18392276D01*
X10799476Y-18392276D01*
X10980429Y-18392276D02*
X10961381Y-18382752D01*
X10951857Y-18363705D01*
X10951857Y-18192276D01*
X11132810Y-18382752D02*
X11113762Y-18392276D01*
X11075667Y-18392276D01*
X11056619Y-18382752D01*
X11047095Y-18363705D01*
X11047095Y-18287514D01*
X11056619Y-18268467D01*
X11075667Y-18258943D01*
X11113762Y-18258943D01*
X11132810Y-18268467D01*
X11142333Y-18287514D01*
X11142333Y-18306562D01*
X11047095Y-18325610D01*
X11218524Y-18382752D02*
X11237571Y-18392276D01*
X11275667Y-18392276D01*
X11294714Y-18382752D01*
X11304238Y-18363705D01*
X11304238Y-18354181D01*
X11294714Y-18335133D01*
X11275667Y-18325610D01*
X11247095Y-18325610D01*
X11228048Y-18316086D01*
X11218524Y-18297038D01*
X11218524Y-18287514D01*
X11228048Y-18268467D01*
X11247095Y-18258943D01*
X11275667Y-18258943D01*
X11294714Y-18268467D01*
X11370905Y-18468467D02*
X11380428Y-18458943D01*
X11399476Y-18430371D01*
X11409000Y-18411324D01*
X11418524Y-18382752D01*
X11428048Y-18335133D01*
X11428048Y-18297038D01*
X11418524Y-18249419D01*
X11409000Y-18220848D01*
X11399476Y-18201800D01*
X11380428Y-18173229D01*
X11370905Y-18163705D01*
M02*
