%TF.GenerationSoftware,KiCad,Pcbnew,(6.0.7-1)-1*%
%TF.CreationDate,2022-08-10T01:24:57+02:00*%
%TF.ProjectId,6502_computer,36353032-5f63-46f6-9d70-757465722e6b,REV*%
%TF.SameCoordinates,Original*%
%TF.FileFunction,Drillmap*%
%TF.FilePolarity,Positive*%
%FSLAX45Y45*%
G04 Gerber Fmt 4.5, Leading zero omitted, Abs format (unit mm)*
G04 Created by KiCad (PCBNEW (6.0.7-1)-1) date 2022-08-10 01:24:57*
%MOMM*%
%LPD*%
G01*
G04 APERTURE LIST*
%ADD10C,0.100000*%
%ADD11C,0.200000*%
%ADD12C,0.270000*%
%ADD13C,0.320000*%
G04 APERTURE END LIST*
D10*
X23622000Y-14986000D02*
X7874000Y-14986000D01*
X7366000Y-14478000D02*
X7366000Y-4826000D01*
X24130000Y-4826000D02*
G75*
G03*
X23622000Y-4318000I-508000J0D01*
G01*
X7366000Y-14478000D02*
G75*
G03*
X7874000Y-14986000I508000J0D01*
G01*
X7874000Y-4318000D02*
G75*
G03*
X7366000Y-4826000I0J-508000D01*
G01*
X23622000Y-14986000D02*
G75*
G03*
X24130000Y-14478000I0J508000D01*
G01*
X7874000Y-4318000D02*
X23622000Y-4318000D01*
X24130000Y-4826000D02*
X24130000Y-14478000D01*
D11*
D12*
X8066800Y-4703700D02*
X8336800Y-4973700D01*
X8336800Y-4703700D02*
X8066800Y-4973700D01*
X8066800Y-8691500D02*
X8336800Y-8961500D01*
X8336800Y-8691500D02*
X8066800Y-8961500D01*
X23154400Y-4703700D02*
X23424400Y-4973700D01*
X23424400Y-4703700D02*
X23154400Y-4973700D01*
X23154400Y-8691500D02*
X23424400Y-8961500D01*
X23424400Y-8691500D02*
X23154400Y-8961500D01*
D13*
X8077489Y-11638039D02*
G75*
G03*
X8077489Y-11638039I-160000J0D01*
G01*
X8077489Y-14203439D02*
G75*
G03*
X8077489Y-14203439I-160000J0D01*
G01*
X15545089Y-11638039D02*
G75*
G03*
X15545089Y-11638039I-160000J0D01*
G01*
X15545089Y-14203439D02*
G75*
G03*
X15545089Y-14203439I-160000J0D01*
G01*
D11*
X7618619Y-15301476D02*
X7618619Y-15101476D01*
X7666238Y-15101476D01*
X7694809Y-15111000D01*
X7713857Y-15130048D01*
X7723381Y-15149095D01*
X7732905Y-15187190D01*
X7732905Y-15215762D01*
X7723381Y-15253857D01*
X7713857Y-15272905D01*
X7694809Y-15291952D01*
X7666238Y-15301476D01*
X7618619Y-15301476D01*
X7818619Y-15301476D02*
X7818619Y-15168143D01*
X7818619Y-15206238D02*
X7828143Y-15187190D01*
X7837667Y-15177667D01*
X7856714Y-15168143D01*
X7875762Y-15168143D01*
X7942428Y-15301476D02*
X7942428Y-15168143D01*
X7942428Y-15101476D02*
X7932905Y-15111000D01*
X7942428Y-15120524D01*
X7951952Y-15111000D01*
X7942428Y-15101476D01*
X7942428Y-15120524D01*
X8066238Y-15301476D02*
X8047190Y-15291952D01*
X8037667Y-15272905D01*
X8037667Y-15101476D01*
X8171000Y-15301476D02*
X8151952Y-15291952D01*
X8142428Y-15272905D01*
X8142428Y-15101476D01*
X8399571Y-15301476D02*
X8399571Y-15101476D01*
X8466238Y-15244333D01*
X8532905Y-15101476D01*
X8532905Y-15301476D01*
X8713857Y-15301476D02*
X8713857Y-15196714D01*
X8704333Y-15177667D01*
X8685286Y-15168143D01*
X8647190Y-15168143D01*
X8628143Y-15177667D01*
X8713857Y-15291952D02*
X8694810Y-15301476D01*
X8647190Y-15301476D01*
X8628143Y-15291952D01*
X8618619Y-15272905D01*
X8618619Y-15253857D01*
X8628143Y-15234809D01*
X8647190Y-15225286D01*
X8694810Y-15225286D01*
X8713857Y-15215762D01*
X8809095Y-15168143D02*
X8809095Y-15368143D01*
X8809095Y-15177667D02*
X8828143Y-15168143D01*
X8866238Y-15168143D01*
X8885286Y-15177667D01*
X8894810Y-15187190D01*
X8904333Y-15206238D01*
X8904333Y-15263381D01*
X8894810Y-15282428D01*
X8885286Y-15291952D01*
X8866238Y-15301476D01*
X8828143Y-15301476D01*
X8809095Y-15291952D01*
X8990048Y-15282428D02*
X8999571Y-15291952D01*
X8990048Y-15301476D01*
X8980524Y-15291952D01*
X8990048Y-15282428D01*
X8990048Y-15301476D01*
X8990048Y-15177667D02*
X8999571Y-15187190D01*
X8990048Y-15196714D01*
X8980524Y-15187190D01*
X8990048Y-15177667D01*
X8990048Y-15196714D01*
X7161000Y-15531000D02*
X7361000Y-15731000D01*
X7361000Y-15531000D02*
X7161000Y-15731000D01*
X7609095Y-15540524D02*
X7618619Y-15531000D01*
X7637667Y-15521476D01*
X7685286Y-15521476D01*
X7704333Y-15531000D01*
X7713857Y-15540524D01*
X7723381Y-15559571D01*
X7723381Y-15578619D01*
X7713857Y-15607190D01*
X7599571Y-15721476D01*
X7723381Y-15721476D01*
X7809095Y-15702428D02*
X7818619Y-15711952D01*
X7809095Y-15721476D01*
X7799571Y-15711952D01*
X7809095Y-15702428D01*
X7809095Y-15721476D01*
X7885286Y-15521476D02*
X8018619Y-15521476D01*
X7932905Y-15721476D01*
X8132905Y-15521476D02*
X8151952Y-15521476D01*
X8171000Y-15531000D01*
X8180524Y-15540524D01*
X8190048Y-15559571D01*
X8199571Y-15597667D01*
X8199571Y-15645286D01*
X8190048Y-15683381D01*
X8180524Y-15702428D01*
X8171000Y-15711952D01*
X8151952Y-15721476D01*
X8132905Y-15721476D01*
X8113857Y-15711952D01*
X8104333Y-15702428D01*
X8094809Y-15683381D01*
X8085286Y-15645286D01*
X8085286Y-15597667D01*
X8094809Y-15559571D01*
X8104333Y-15540524D01*
X8113857Y-15531000D01*
X8132905Y-15521476D01*
X8323381Y-15521476D02*
X8342428Y-15521476D01*
X8361476Y-15531000D01*
X8371000Y-15540524D01*
X8380524Y-15559571D01*
X8390048Y-15597667D01*
X8390048Y-15645286D01*
X8380524Y-15683381D01*
X8371000Y-15702428D01*
X8361476Y-15711952D01*
X8342428Y-15721476D01*
X8323381Y-15721476D01*
X8304333Y-15711952D01*
X8294809Y-15702428D01*
X8285286Y-15683381D01*
X8275762Y-15645286D01*
X8275762Y-15597667D01*
X8285286Y-15559571D01*
X8294809Y-15540524D01*
X8304333Y-15531000D01*
X8323381Y-15521476D01*
X8475762Y-15721476D02*
X8475762Y-15588143D01*
X8475762Y-15607190D02*
X8485286Y-15597667D01*
X8504333Y-15588143D01*
X8532905Y-15588143D01*
X8551952Y-15597667D01*
X8561476Y-15616714D01*
X8561476Y-15721476D01*
X8561476Y-15616714D02*
X8571000Y-15597667D01*
X8590048Y-15588143D01*
X8618619Y-15588143D01*
X8637667Y-15597667D01*
X8647190Y-15616714D01*
X8647190Y-15721476D01*
X8742429Y-15721476D02*
X8742429Y-15588143D01*
X8742429Y-15607190D02*
X8751952Y-15597667D01*
X8771000Y-15588143D01*
X8799571Y-15588143D01*
X8818619Y-15597667D01*
X8828143Y-15616714D01*
X8828143Y-15721476D01*
X8828143Y-15616714D02*
X8837667Y-15597667D01*
X8856714Y-15588143D01*
X8885286Y-15588143D01*
X8904333Y-15597667D01*
X8913857Y-15616714D01*
X8913857Y-15721476D01*
X9304333Y-15511952D02*
X9132905Y-15769095D01*
X9561476Y-15521476D02*
X9580524Y-15521476D01*
X9599571Y-15531000D01*
X9609095Y-15540524D01*
X9618619Y-15559571D01*
X9628143Y-15597667D01*
X9628143Y-15645286D01*
X9618619Y-15683381D01*
X9609095Y-15702428D01*
X9599571Y-15711952D01*
X9580524Y-15721476D01*
X9561476Y-15721476D01*
X9542429Y-15711952D01*
X9532905Y-15702428D01*
X9523381Y-15683381D01*
X9513857Y-15645286D01*
X9513857Y-15597667D01*
X9523381Y-15559571D01*
X9532905Y-15540524D01*
X9542429Y-15531000D01*
X9561476Y-15521476D01*
X9713857Y-15702428D02*
X9723381Y-15711952D01*
X9713857Y-15721476D01*
X9704333Y-15711952D01*
X9713857Y-15702428D01*
X9713857Y-15721476D01*
X9913857Y-15721476D02*
X9799571Y-15721476D01*
X9856714Y-15721476D02*
X9856714Y-15521476D01*
X9837667Y-15550048D01*
X9818619Y-15569095D01*
X9799571Y-15578619D01*
X10037667Y-15521476D02*
X10056714Y-15521476D01*
X10075762Y-15531000D01*
X10085286Y-15540524D01*
X10094810Y-15559571D01*
X10104333Y-15597667D01*
X10104333Y-15645286D01*
X10094810Y-15683381D01*
X10085286Y-15702428D01*
X10075762Y-15711952D01*
X10056714Y-15721476D01*
X10037667Y-15721476D01*
X10018619Y-15711952D01*
X10009095Y-15702428D01*
X9999571Y-15683381D01*
X9990048Y-15645286D01*
X9990048Y-15597667D01*
X9999571Y-15559571D01*
X10009095Y-15540524D01*
X10018619Y-15531000D01*
X10037667Y-15521476D01*
X10275762Y-15521476D02*
X10237667Y-15521476D01*
X10218619Y-15531000D01*
X10209095Y-15540524D01*
X10190048Y-15569095D01*
X10180524Y-15607190D01*
X10180524Y-15683381D01*
X10190048Y-15702428D01*
X10199571Y-15711952D01*
X10218619Y-15721476D01*
X10256714Y-15721476D01*
X10275762Y-15711952D01*
X10285286Y-15702428D01*
X10294810Y-15683381D01*
X10294810Y-15635762D01*
X10285286Y-15616714D01*
X10275762Y-15607190D01*
X10256714Y-15597667D01*
X10218619Y-15597667D01*
X10199571Y-15607190D01*
X10190048Y-15616714D01*
X10180524Y-15635762D01*
X10361476Y-15521476D02*
X10485286Y-15521476D01*
X10418619Y-15597667D01*
X10447190Y-15597667D01*
X10466238Y-15607190D01*
X10475762Y-15616714D01*
X10485286Y-15635762D01*
X10485286Y-15683381D01*
X10475762Y-15702428D01*
X10466238Y-15711952D01*
X10447190Y-15721476D01*
X10390048Y-15721476D01*
X10371000Y-15711952D01*
X10361476Y-15702428D01*
X10561476Y-15521476D02*
X10561476Y-15559571D01*
X10637667Y-15521476D02*
X10637667Y-15559571D01*
X10932905Y-15797667D02*
X10923381Y-15788143D01*
X10904333Y-15759571D01*
X10894810Y-15740524D01*
X10885286Y-15711952D01*
X10875762Y-15664333D01*
X10875762Y-15626238D01*
X10885286Y-15578619D01*
X10894810Y-15550048D01*
X10904333Y-15531000D01*
X10923381Y-15502428D01*
X10932905Y-15492905D01*
X11094810Y-15588143D02*
X11094810Y-15721476D01*
X11047190Y-15511952D02*
X10999571Y-15654809D01*
X11123381Y-15654809D01*
X11351952Y-15721476D02*
X11351952Y-15521476D01*
X11437667Y-15721476D02*
X11437667Y-15616714D01*
X11428143Y-15597667D01*
X11409095Y-15588143D01*
X11380524Y-15588143D01*
X11361476Y-15597667D01*
X11351952Y-15607190D01*
X11561476Y-15721476D02*
X11542428Y-15711952D01*
X11532905Y-15702428D01*
X11523381Y-15683381D01*
X11523381Y-15626238D01*
X11532905Y-15607190D01*
X11542428Y-15597667D01*
X11561476Y-15588143D01*
X11590048Y-15588143D01*
X11609095Y-15597667D01*
X11618619Y-15607190D01*
X11628143Y-15626238D01*
X11628143Y-15683381D01*
X11618619Y-15702428D01*
X11609095Y-15711952D01*
X11590048Y-15721476D01*
X11561476Y-15721476D01*
X11742428Y-15721476D02*
X11723381Y-15711952D01*
X11713857Y-15692905D01*
X11713857Y-15521476D01*
X11894809Y-15711952D02*
X11875762Y-15721476D01*
X11837667Y-15721476D01*
X11818619Y-15711952D01*
X11809095Y-15692905D01*
X11809095Y-15616714D01*
X11818619Y-15597667D01*
X11837667Y-15588143D01*
X11875762Y-15588143D01*
X11894809Y-15597667D01*
X11904333Y-15616714D01*
X11904333Y-15635762D01*
X11809095Y-15654809D01*
X11980524Y-15711952D02*
X11999571Y-15721476D01*
X12037667Y-15721476D01*
X12056714Y-15711952D01*
X12066238Y-15692905D01*
X12066238Y-15683381D01*
X12056714Y-15664333D01*
X12037667Y-15654809D01*
X12009095Y-15654809D01*
X11990048Y-15645286D01*
X11980524Y-15626238D01*
X11980524Y-15616714D01*
X11990048Y-15597667D01*
X12009095Y-15588143D01*
X12037667Y-15588143D01*
X12056714Y-15597667D01*
X12132905Y-15797667D02*
X12142428Y-15788143D01*
X12161476Y-15759571D01*
X12171000Y-15740524D01*
X12180524Y-15711952D01*
X12190048Y-15664333D01*
X12190048Y-15626238D01*
X12180524Y-15578619D01*
X12171000Y-15550048D01*
X12161476Y-15531000D01*
X12142428Y-15502428D01*
X12132905Y-15492905D01*
X12494809Y-15797667D02*
X12485286Y-15788143D01*
X12466238Y-15759571D01*
X12456714Y-15740524D01*
X12447190Y-15711952D01*
X12437667Y-15664333D01*
X12437667Y-15626238D01*
X12447190Y-15578619D01*
X12456714Y-15550048D01*
X12466238Y-15531000D01*
X12485286Y-15502428D01*
X12494809Y-15492905D01*
X12571000Y-15588143D02*
X12571000Y-15721476D01*
X12571000Y-15607190D02*
X12580524Y-15597667D01*
X12599571Y-15588143D01*
X12628143Y-15588143D01*
X12647190Y-15597667D01*
X12656714Y-15616714D01*
X12656714Y-15721476D01*
X12780524Y-15721476D02*
X12761476Y-15711952D01*
X12751952Y-15702428D01*
X12742428Y-15683381D01*
X12742428Y-15626238D01*
X12751952Y-15607190D01*
X12761476Y-15597667D01*
X12780524Y-15588143D01*
X12809095Y-15588143D01*
X12828143Y-15597667D01*
X12837667Y-15607190D01*
X12847190Y-15626238D01*
X12847190Y-15683381D01*
X12837667Y-15702428D01*
X12828143Y-15711952D01*
X12809095Y-15721476D01*
X12780524Y-15721476D01*
X12904333Y-15588143D02*
X12980524Y-15588143D01*
X12932905Y-15521476D02*
X12932905Y-15692905D01*
X12942428Y-15711952D01*
X12961476Y-15721476D01*
X12980524Y-15721476D01*
X13199571Y-15588143D02*
X13199571Y-15788143D01*
X13199571Y-15597667D02*
X13218619Y-15588143D01*
X13256714Y-15588143D01*
X13275762Y-15597667D01*
X13285286Y-15607190D01*
X13294809Y-15626238D01*
X13294809Y-15683381D01*
X13285286Y-15702428D01*
X13275762Y-15711952D01*
X13256714Y-15721476D01*
X13218619Y-15721476D01*
X13199571Y-15711952D01*
X13409095Y-15721476D02*
X13390048Y-15711952D01*
X13380524Y-15692905D01*
X13380524Y-15521476D01*
X13571000Y-15721476D02*
X13571000Y-15616714D01*
X13561476Y-15597667D01*
X13542428Y-15588143D01*
X13504333Y-15588143D01*
X13485286Y-15597667D01*
X13571000Y-15711952D02*
X13551952Y-15721476D01*
X13504333Y-15721476D01*
X13485286Y-15711952D01*
X13475762Y-15692905D01*
X13475762Y-15673857D01*
X13485286Y-15654809D01*
X13504333Y-15645286D01*
X13551952Y-15645286D01*
X13571000Y-15635762D01*
X13637667Y-15588143D02*
X13713857Y-15588143D01*
X13666238Y-15521476D02*
X13666238Y-15692905D01*
X13675762Y-15711952D01*
X13694809Y-15721476D01*
X13713857Y-15721476D01*
X13856714Y-15711952D02*
X13837667Y-15721476D01*
X13799571Y-15721476D01*
X13780524Y-15711952D01*
X13771000Y-15692905D01*
X13771000Y-15616714D01*
X13780524Y-15597667D01*
X13799571Y-15588143D01*
X13837667Y-15588143D01*
X13856714Y-15597667D01*
X13866238Y-15616714D01*
X13866238Y-15635762D01*
X13771000Y-15654809D01*
X14037667Y-15721476D02*
X14037667Y-15521476D01*
X14037667Y-15711952D02*
X14018619Y-15721476D01*
X13980524Y-15721476D01*
X13961476Y-15711952D01*
X13951952Y-15702428D01*
X13942428Y-15683381D01*
X13942428Y-15626238D01*
X13951952Y-15607190D01*
X13961476Y-15597667D01*
X13980524Y-15588143D01*
X14018619Y-15588143D01*
X14037667Y-15597667D01*
X14113857Y-15797667D02*
X14123381Y-15788143D01*
X14142428Y-15759571D01*
X14151952Y-15740524D01*
X14161476Y-15711952D01*
X14171000Y-15664333D01*
X14171000Y-15626238D01*
X14161476Y-15578619D01*
X14151952Y-15550048D01*
X14142428Y-15531000D01*
X14123381Y-15502428D01*
X14113857Y-15492905D01*
X7361000Y-15951000D02*
G75*
G03*
X7361000Y-15951000I-100000J0D01*
G01*
X7599571Y-15841476D02*
X7723381Y-15841476D01*
X7656714Y-15917667D01*
X7685286Y-15917667D01*
X7704333Y-15927190D01*
X7713857Y-15936714D01*
X7723381Y-15955762D01*
X7723381Y-16003381D01*
X7713857Y-16022428D01*
X7704333Y-16031952D01*
X7685286Y-16041476D01*
X7628143Y-16041476D01*
X7609095Y-16031952D01*
X7599571Y-16022428D01*
X7809095Y-16022428D02*
X7818619Y-16031952D01*
X7809095Y-16041476D01*
X7799571Y-16031952D01*
X7809095Y-16022428D01*
X7809095Y-16041476D01*
X7894809Y-15860524D02*
X7904333Y-15851000D01*
X7923381Y-15841476D01*
X7971000Y-15841476D01*
X7990048Y-15851000D01*
X7999571Y-15860524D01*
X8009095Y-15879571D01*
X8009095Y-15898619D01*
X7999571Y-15927190D01*
X7885286Y-16041476D01*
X8009095Y-16041476D01*
X8132905Y-15841476D02*
X8151952Y-15841476D01*
X8171000Y-15851000D01*
X8180524Y-15860524D01*
X8190048Y-15879571D01*
X8199571Y-15917667D01*
X8199571Y-15965286D01*
X8190048Y-16003381D01*
X8180524Y-16022428D01*
X8171000Y-16031952D01*
X8151952Y-16041476D01*
X8132905Y-16041476D01*
X8113857Y-16031952D01*
X8104333Y-16022428D01*
X8094809Y-16003381D01*
X8085286Y-15965286D01*
X8085286Y-15917667D01*
X8094809Y-15879571D01*
X8104333Y-15860524D01*
X8113857Y-15851000D01*
X8132905Y-15841476D01*
X8323381Y-15841476D02*
X8342428Y-15841476D01*
X8361476Y-15851000D01*
X8371000Y-15860524D01*
X8380524Y-15879571D01*
X8390048Y-15917667D01*
X8390048Y-15965286D01*
X8380524Y-16003381D01*
X8371000Y-16022428D01*
X8361476Y-16031952D01*
X8342428Y-16041476D01*
X8323381Y-16041476D01*
X8304333Y-16031952D01*
X8294809Y-16022428D01*
X8285286Y-16003381D01*
X8275762Y-15965286D01*
X8275762Y-15917667D01*
X8285286Y-15879571D01*
X8294809Y-15860524D01*
X8304333Y-15851000D01*
X8323381Y-15841476D01*
X8475762Y-16041476D02*
X8475762Y-15908143D01*
X8475762Y-15927190D02*
X8485286Y-15917667D01*
X8504333Y-15908143D01*
X8532905Y-15908143D01*
X8551952Y-15917667D01*
X8561476Y-15936714D01*
X8561476Y-16041476D01*
X8561476Y-15936714D02*
X8571000Y-15917667D01*
X8590048Y-15908143D01*
X8618619Y-15908143D01*
X8637667Y-15917667D01*
X8647190Y-15936714D01*
X8647190Y-16041476D01*
X8742429Y-16041476D02*
X8742429Y-15908143D01*
X8742429Y-15927190D02*
X8751952Y-15917667D01*
X8771000Y-15908143D01*
X8799571Y-15908143D01*
X8818619Y-15917667D01*
X8828143Y-15936714D01*
X8828143Y-16041476D01*
X8828143Y-15936714D02*
X8837667Y-15917667D01*
X8856714Y-15908143D01*
X8885286Y-15908143D01*
X8904333Y-15917667D01*
X8913857Y-15936714D01*
X8913857Y-16041476D01*
X9304333Y-15831952D02*
X9132905Y-16089095D01*
X9561476Y-15841476D02*
X9580524Y-15841476D01*
X9599571Y-15851000D01*
X9609095Y-15860524D01*
X9618619Y-15879571D01*
X9628143Y-15917667D01*
X9628143Y-15965286D01*
X9618619Y-16003381D01*
X9609095Y-16022428D01*
X9599571Y-16031952D01*
X9580524Y-16041476D01*
X9561476Y-16041476D01*
X9542429Y-16031952D01*
X9532905Y-16022428D01*
X9523381Y-16003381D01*
X9513857Y-15965286D01*
X9513857Y-15917667D01*
X9523381Y-15879571D01*
X9532905Y-15860524D01*
X9542429Y-15851000D01*
X9561476Y-15841476D01*
X9713857Y-16022428D02*
X9723381Y-16031952D01*
X9713857Y-16041476D01*
X9704333Y-16031952D01*
X9713857Y-16022428D01*
X9713857Y-16041476D01*
X9913857Y-16041476D02*
X9799571Y-16041476D01*
X9856714Y-16041476D02*
X9856714Y-15841476D01*
X9837667Y-15870048D01*
X9818619Y-15889095D01*
X9799571Y-15898619D01*
X9990048Y-15860524D02*
X9999571Y-15851000D01*
X10018619Y-15841476D01*
X10066238Y-15841476D01*
X10085286Y-15851000D01*
X10094810Y-15860524D01*
X10104333Y-15879571D01*
X10104333Y-15898619D01*
X10094810Y-15927190D01*
X9980524Y-16041476D01*
X10104333Y-16041476D01*
X10275762Y-15841476D02*
X10237667Y-15841476D01*
X10218619Y-15851000D01*
X10209095Y-15860524D01*
X10190048Y-15889095D01*
X10180524Y-15927190D01*
X10180524Y-16003381D01*
X10190048Y-16022428D01*
X10199571Y-16031952D01*
X10218619Y-16041476D01*
X10256714Y-16041476D01*
X10275762Y-16031952D01*
X10285286Y-16022428D01*
X10294810Y-16003381D01*
X10294810Y-15955762D01*
X10285286Y-15936714D01*
X10275762Y-15927190D01*
X10256714Y-15917667D01*
X10218619Y-15917667D01*
X10199571Y-15927190D01*
X10190048Y-15936714D01*
X10180524Y-15955762D01*
X10418619Y-15841476D02*
X10437667Y-15841476D01*
X10456714Y-15851000D01*
X10466238Y-15860524D01*
X10475762Y-15879571D01*
X10485286Y-15917667D01*
X10485286Y-15965286D01*
X10475762Y-16003381D01*
X10466238Y-16022428D01*
X10456714Y-16031952D01*
X10437667Y-16041476D01*
X10418619Y-16041476D01*
X10399571Y-16031952D01*
X10390048Y-16022428D01*
X10380524Y-16003381D01*
X10371000Y-15965286D01*
X10371000Y-15917667D01*
X10380524Y-15879571D01*
X10390048Y-15860524D01*
X10399571Y-15851000D01*
X10418619Y-15841476D01*
X10561476Y-15841476D02*
X10561476Y-15879571D01*
X10637667Y-15841476D02*
X10637667Y-15879571D01*
X10932905Y-16117667D02*
X10923381Y-16108143D01*
X10904333Y-16079571D01*
X10894810Y-16060524D01*
X10885286Y-16031952D01*
X10875762Y-15984333D01*
X10875762Y-15946238D01*
X10885286Y-15898619D01*
X10894810Y-15870048D01*
X10904333Y-15851000D01*
X10923381Y-15822428D01*
X10932905Y-15812905D01*
X11094810Y-15908143D02*
X11094810Y-16041476D01*
X11047190Y-15831952D02*
X10999571Y-15974809D01*
X11123381Y-15974809D01*
X11351952Y-16041476D02*
X11351952Y-15841476D01*
X11437667Y-16041476D02*
X11437667Y-15936714D01*
X11428143Y-15917667D01*
X11409095Y-15908143D01*
X11380524Y-15908143D01*
X11361476Y-15917667D01*
X11351952Y-15927190D01*
X11561476Y-16041476D02*
X11542428Y-16031952D01*
X11532905Y-16022428D01*
X11523381Y-16003381D01*
X11523381Y-15946238D01*
X11532905Y-15927190D01*
X11542428Y-15917667D01*
X11561476Y-15908143D01*
X11590048Y-15908143D01*
X11609095Y-15917667D01*
X11618619Y-15927190D01*
X11628143Y-15946238D01*
X11628143Y-16003381D01*
X11618619Y-16022428D01*
X11609095Y-16031952D01*
X11590048Y-16041476D01*
X11561476Y-16041476D01*
X11742428Y-16041476D02*
X11723381Y-16031952D01*
X11713857Y-16012905D01*
X11713857Y-15841476D01*
X11894809Y-16031952D02*
X11875762Y-16041476D01*
X11837667Y-16041476D01*
X11818619Y-16031952D01*
X11809095Y-16012905D01*
X11809095Y-15936714D01*
X11818619Y-15917667D01*
X11837667Y-15908143D01*
X11875762Y-15908143D01*
X11894809Y-15917667D01*
X11904333Y-15936714D01*
X11904333Y-15955762D01*
X11809095Y-15974809D01*
X11980524Y-16031952D02*
X11999571Y-16041476D01*
X12037667Y-16041476D01*
X12056714Y-16031952D01*
X12066238Y-16012905D01*
X12066238Y-16003381D01*
X12056714Y-15984333D01*
X12037667Y-15974809D01*
X12009095Y-15974809D01*
X11990048Y-15965286D01*
X11980524Y-15946238D01*
X11980524Y-15936714D01*
X11990048Y-15917667D01*
X12009095Y-15908143D01*
X12037667Y-15908143D01*
X12056714Y-15917667D01*
X12132905Y-16117667D02*
X12142428Y-16108143D01*
X12161476Y-16079571D01*
X12171000Y-16060524D01*
X12180524Y-16031952D01*
X12190048Y-15984333D01*
X12190048Y-15946238D01*
X12180524Y-15898619D01*
X12171000Y-15870048D01*
X12161476Y-15851000D01*
X12142428Y-15822428D01*
X12132905Y-15812905D01*
X12494809Y-16117667D02*
X12485286Y-16108143D01*
X12466238Y-16079571D01*
X12456714Y-16060524D01*
X12447190Y-16031952D01*
X12437667Y-15984333D01*
X12437667Y-15946238D01*
X12447190Y-15898619D01*
X12456714Y-15870048D01*
X12466238Y-15851000D01*
X12485286Y-15822428D01*
X12494809Y-15812905D01*
X12571000Y-15908143D02*
X12571000Y-16041476D01*
X12571000Y-15927190D02*
X12580524Y-15917667D01*
X12599571Y-15908143D01*
X12628143Y-15908143D01*
X12647190Y-15917667D01*
X12656714Y-15936714D01*
X12656714Y-16041476D01*
X12780524Y-16041476D02*
X12761476Y-16031952D01*
X12751952Y-16022428D01*
X12742428Y-16003381D01*
X12742428Y-15946238D01*
X12751952Y-15927190D01*
X12761476Y-15917667D01*
X12780524Y-15908143D01*
X12809095Y-15908143D01*
X12828143Y-15917667D01*
X12837667Y-15927190D01*
X12847190Y-15946238D01*
X12847190Y-16003381D01*
X12837667Y-16022428D01*
X12828143Y-16031952D01*
X12809095Y-16041476D01*
X12780524Y-16041476D01*
X12904333Y-15908143D02*
X12980524Y-15908143D01*
X12932905Y-15841476D02*
X12932905Y-16012905D01*
X12942428Y-16031952D01*
X12961476Y-16041476D01*
X12980524Y-16041476D01*
X13199571Y-15908143D02*
X13199571Y-16108143D01*
X13199571Y-15917667D02*
X13218619Y-15908143D01*
X13256714Y-15908143D01*
X13275762Y-15917667D01*
X13285286Y-15927190D01*
X13294809Y-15946238D01*
X13294809Y-16003381D01*
X13285286Y-16022428D01*
X13275762Y-16031952D01*
X13256714Y-16041476D01*
X13218619Y-16041476D01*
X13199571Y-16031952D01*
X13409095Y-16041476D02*
X13390048Y-16031952D01*
X13380524Y-16012905D01*
X13380524Y-15841476D01*
X13571000Y-16041476D02*
X13571000Y-15936714D01*
X13561476Y-15917667D01*
X13542428Y-15908143D01*
X13504333Y-15908143D01*
X13485286Y-15917667D01*
X13571000Y-16031952D02*
X13551952Y-16041476D01*
X13504333Y-16041476D01*
X13485286Y-16031952D01*
X13475762Y-16012905D01*
X13475762Y-15993857D01*
X13485286Y-15974809D01*
X13504333Y-15965286D01*
X13551952Y-15965286D01*
X13571000Y-15955762D01*
X13637667Y-15908143D02*
X13713857Y-15908143D01*
X13666238Y-15841476D02*
X13666238Y-16012905D01*
X13675762Y-16031952D01*
X13694809Y-16041476D01*
X13713857Y-16041476D01*
X13856714Y-16031952D02*
X13837667Y-16041476D01*
X13799571Y-16041476D01*
X13780524Y-16031952D01*
X13771000Y-16012905D01*
X13771000Y-15936714D01*
X13780524Y-15917667D01*
X13799571Y-15908143D01*
X13837667Y-15908143D01*
X13856714Y-15917667D01*
X13866238Y-15936714D01*
X13866238Y-15955762D01*
X13771000Y-15974809D01*
X14037667Y-16041476D02*
X14037667Y-15841476D01*
X14037667Y-16031952D02*
X14018619Y-16041476D01*
X13980524Y-16041476D01*
X13961476Y-16031952D01*
X13951952Y-16022428D01*
X13942428Y-16003381D01*
X13942428Y-15946238D01*
X13951952Y-15927190D01*
X13961476Y-15917667D01*
X13980524Y-15908143D01*
X14018619Y-15908143D01*
X14037667Y-15917667D01*
X14113857Y-16117667D02*
X14123381Y-16108143D01*
X14142428Y-16079571D01*
X14151952Y-16060524D01*
X14161476Y-16031952D01*
X14171000Y-15984333D01*
X14171000Y-15946238D01*
X14161476Y-15898619D01*
X14151952Y-15870048D01*
X14142428Y-15851000D01*
X14123381Y-15822428D01*
X14113857Y-15812905D01*
M02*
