G04 #@! TF.GenerationSoftware,KiCad,Pcbnew,(6.0.11-0)*
G04 #@! TF.CreationDate,2023-06-10T21:55:51+02:00*
G04 #@! TF.ProjectId,6502_computer,36353032-5f63-46f6-9d70-757465722e6b,REV*
G04 #@! TF.SameCoordinates,Original*
G04 #@! TF.FileFunction,Legend,Bot*
G04 #@! TF.FilePolarity,Positive*
%FSLAX46Y46*%
G04 Gerber Fmt 4.6, Leading zero omitted, Abs format (unit mm)*
G04 Created by KiCad (PCBNEW (6.0.11-0)) date 2023-06-10 21:55:51*
%MOMM*%
%LPD*%
G01*
G04 APERTURE LIST*
G04 Aperture macros list*
%AMRoundRect*
0 Rectangle with rounded corners*
0 $1 Rounding radius*
0 $2 $3 $4 $5 $6 $7 $8 $9 X,Y pos of 4 corners*
0 Add a 4 corners polygon primitive as box body*
4,1,4,$2,$3,$4,$5,$6,$7,$8,$9,$2,$3,0*
0 Add four circle primitives for the rounded corners*
1,1,$1+$1,$2,$3*
1,1,$1+$1,$4,$5*
1,1,$1+$1,$6,$7*
1,1,$1+$1,$8,$9*
0 Add four rect primitives between the rounded corners*
20,1,$1+$1,$2,$3,$4,$5,0*
20,1,$1+$1,$4,$5,$6,$7,0*
20,1,$1+$1,$6,$7,$8,$9,0*
20,1,$1+$1,$8,$9,$2,$3,0*%
G04 Aperture macros list end*
%ADD10C,0.150000*%
%ADD11C,2.700000*%
%ADD12R,1.700000X1.700000*%
%ADD13O,1.700000X1.700000*%
%ADD14R,3.500000X3.500000*%
%ADD15RoundRect,0.750000X-0.750000X-1.000000X0.750000X-1.000000X0.750000X1.000000X-0.750000X1.000000X0*%
%ADD16RoundRect,0.875000X-0.875000X-0.875000X0.875000X-0.875000X0.875000X0.875000X-0.875000X0.875000X0*%
%ADD17C,3.200000*%
%ADD18C,1.574800*%
%ADD19O,1.574800X1.574800*%
%ADD20R,1.600000X1.600000*%
%ADD21O,1.600000X1.600000*%
%ADD22O,1.579880X1.579880*%
%ADD23C,1.600000*%
%ADD24C,3.000000*%
%ADD25R,1.800000X2.600000*%
%ADD26O,1.800000X2.600000*%
%ADD27C,1.440000*%
%ADD28R,1.800000X1.800000*%
%ADD29C,1.800000*%
%ADD30R,1.200000X1.200000*%
%ADD31C,1.200000*%
G04 APERTURE END LIST*
D10*
X98724404Y-56918380D02*
X98724404Y-55918380D01*
X98391071Y-56632666D01*
X98057738Y-55918380D01*
X98057738Y-56918380D01*
X97200595Y-56870761D02*
X97295833Y-56918380D01*
X97486309Y-56918380D01*
X97581547Y-56870761D01*
X97629166Y-56775523D01*
X97629166Y-56394571D01*
X97581547Y-56299333D01*
X97486309Y-56251714D01*
X97295833Y-56251714D01*
X97200595Y-56299333D01*
X97152976Y-56394571D01*
X97152976Y-56489809D01*
X97629166Y-56585047D01*
X96295833Y-56251714D02*
X96295833Y-57061238D01*
X96343452Y-57156476D01*
X96391071Y-57204095D01*
X96486309Y-57251714D01*
X96629166Y-57251714D01*
X96724404Y-57204095D01*
X96295833Y-56870761D02*
X96391071Y-56918380D01*
X96581547Y-56918380D01*
X96676785Y-56870761D01*
X96724404Y-56823142D01*
X96772023Y-56727904D01*
X96772023Y-56442190D01*
X96724404Y-56346952D01*
X96676785Y-56299333D01*
X96581547Y-56251714D01*
X96391071Y-56251714D01*
X96295833Y-56299333D01*
X95391071Y-56918380D02*
X95391071Y-56394571D01*
X95438690Y-56299333D01*
X95533928Y-56251714D01*
X95724404Y-56251714D01*
X95819642Y-56299333D01*
X95391071Y-56870761D02*
X95486309Y-56918380D01*
X95724404Y-56918380D01*
X95819642Y-56870761D01*
X95867261Y-56775523D01*
X95867261Y-56680285D01*
X95819642Y-56585047D01*
X95724404Y-56537428D01*
X95486309Y-56537428D01*
X95391071Y-56489809D01*
X94152976Y-56251714D02*
X94152976Y-57251714D01*
X94152976Y-56299333D02*
X94057738Y-56251714D01*
X93867261Y-56251714D01*
X93772023Y-56299333D01*
X93724404Y-56346952D01*
X93676785Y-56442190D01*
X93676785Y-56727904D01*
X93724404Y-56823142D01*
X93772023Y-56870761D01*
X93867261Y-56918380D01*
X94057738Y-56918380D01*
X94152976Y-56870761D01*
X93248214Y-56918380D02*
X93248214Y-56251714D01*
X93248214Y-55918380D02*
X93295833Y-55966000D01*
X93248214Y-56013619D01*
X93200595Y-55966000D01*
X93248214Y-55918380D01*
X93248214Y-56013619D01*
X92772023Y-56251714D02*
X92772023Y-56918380D01*
X92772023Y-56346952D02*
X92724404Y-56299333D01*
X92629166Y-56251714D01*
X92486309Y-56251714D01*
X92391071Y-56299333D01*
X92343452Y-56394571D01*
X92343452Y-56918380D01*
X91105357Y-56918380D02*
X91105357Y-56251714D01*
X91105357Y-56346952D02*
X91057738Y-56299333D01*
X90962500Y-56251714D01*
X90819642Y-56251714D01*
X90724404Y-56299333D01*
X90676785Y-56394571D01*
X90676785Y-56918380D01*
X90676785Y-56394571D02*
X90629166Y-56299333D01*
X90533928Y-56251714D01*
X90391071Y-56251714D01*
X90295833Y-56299333D01*
X90248214Y-56394571D01*
X90248214Y-56918380D01*
X89343452Y-56918380D02*
X89343452Y-56394571D01*
X89391071Y-56299333D01*
X89486309Y-56251714D01*
X89676785Y-56251714D01*
X89772023Y-56299333D01*
X89343452Y-56870761D02*
X89438690Y-56918380D01*
X89676785Y-56918380D01*
X89772023Y-56870761D01*
X89819642Y-56775523D01*
X89819642Y-56680285D01*
X89772023Y-56585047D01*
X89676785Y-56537428D01*
X89438690Y-56537428D01*
X89343452Y-56489809D01*
X88867261Y-56251714D02*
X88867261Y-57251714D01*
X88867261Y-56299333D02*
X88772023Y-56251714D01*
X88581547Y-56251714D01*
X88486309Y-56299333D01*
X88438690Y-56346952D01*
X88391071Y-56442190D01*
X88391071Y-56727904D01*
X88438690Y-56823142D01*
X88486309Y-56870761D01*
X88581547Y-56918380D01*
X88772023Y-56918380D01*
X88867261Y-56870761D01*
X87962500Y-56251714D02*
X87962500Y-57251714D01*
X87962500Y-56299333D02*
X87867261Y-56251714D01*
X87676785Y-56251714D01*
X87581547Y-56299333D01*
X87533928Y-56346952D01*
X87486309Y-56442190D01*
X87486309Y-56727904D01*
X87533928Y-56823142D01*
X87581547Y-56870761D01*
X87676785Y-56918380D01*
X87867261Y-56918380D01*
X87962500Y-56870761D01*
X87057738Y-56918380D02*
X87057738Y-56251714D01*
X87057738Y-55918380D02*
X87105357Y-55966000D01*
X87057738Y-56013619D01*
X87010119Y-55966000D01*
X87057738Y-55918380D01*
X87057738Y-56013619D01*
X86581547Y-56251714D02*
X86581547Y-56918380D01*
X86581547Y-56346952D02*
X86533928Y-56299333D01*
X86438690Y-56251714D01*
X86295833Y-56251714D01*
X86200595Y-56299333D01*
X86152976Y-56394571D01*
X86152976Y-56918380D01*
X85248214Y-56251714D02*
X85248214Y-57061238D01*
X85295833Y-57156476D01*
X85343452Y-57204095D01*
X85438690Y-57251714D01*
X85581547Y-57251714D01*
X85676785Y-57204095D01*
X85248214Y-56870761D02*
X85343452Y-56918380D01*
X85533928Y-56918380D01*
X85629166Y-56870761D01*
X85676785Y-56823142D01*
X85724404Y-56727904D01*
X85724404Y-56442190D01*
X85676785Y-56346952D01*
X85629166Y-56299333D01*
X85533928Y-56251714D01*
X85343452Y-56251714D01*
X85248214Y-56299333D01*
X98724404Y-58147428D02*
X97962500Y-58147428D01*
X97486309Y-58147428D02*
X96724404Y-58147428D01*
X96248214Y-58147428D02*
X95486309Y-58147428D01*
X95010119Y-58147428D02*
X94248214Y-58147428D01*
X93772023Y-58147428D02*
X93010119Y-58147428D01*
X92533928Y-58147428D02*
X91772023Y-58147428D01*
X91295833Y-58147428D02*
X90533928Y-58147428D01*
X90057738Y-58147428D02*
X89295833Y-58147428D01*
X88819642Y-58147428D02*
X88057738Y-58147428D01*
X87581547Y-58147428D02*
X86819642Y-58147428D01*
X86343452Y-58147428D02*
X85581547Y-58147428D01*
X85105357Y-58147428D02*
X84343452Y-58147428D01*
X98772023Y-59852666D02*
X98295833Y-59852666D01*
X98867261Y-60138380D02*
X98533928Y-59138380D01*
X98200595Y-60138380D01*
X97676785Y-59138380D02*
X97581547Y-59138380D01*
X97486309Y-59186000D01*
X97438690Y-59233619D01*
X97391071Y-59328857D01*
X97343452Y-59519333D01*
X97343452Y-59757428D01*
X97391071Y-59947904D01*
X97438690Y-60043142D01*
X97486309Y-60090761D01*
X97581547Y-60138380D01*
X97676785Y-60138380D01*
X97772023Y-60090761D01*
X97819642Y-60043142D01*
X97867261Y-59947904D01*
X97914880Y-59757428D01*
X97914880Y-59519333D01*
X97867261Y-59328857D01*
X97819642Y-59233619D01*
X97772023Y-59186000D01*
X97676785Y-59138380D01*
X96914880Y-60043142D02*
X96867261Y-60090761D01*
X96914880Y-60138380D01*
X96962500Y-60090761D01*
X96914880Y-60043142D01*
X96914880Y-60138380D01*
X96438690Y-60043142D02*
X96391071Y-60090761D01*
X96438690Y-60138380D01*
X96486309Y-60090761D01*
X96438690Y-60043142D01*
X96438690Y-60138380D01*
X96057738Y-59138380D02*
X95391071Y-59138380D01*
X95819642Y-60138380D01*
X98772023Y-61462666D02*
X98295833Y-61462666D01*
X98867261Y-61748380D02*
X98533928Y-60748380D01*
X98200595Y-61748380D01*
X97724404Y-61176952D02*
X97819642Y-61129333D01*
X97867261Y-61081714D01*
X97914880Y-60986476D01*
X97914880Y-60938857D01*
X97867261Y-60843619D01*
X97819642Y-60796000D01*
X97724404Y-60748380D01*
X97533928Y-60748380D01*
X97438690Y-60796000D01*
X97391071Y-60843619D01*
X97343452Y-60938857D01*
X97343452Y-60986476D01*
X97391071Y-61081714D01*
X97438690Y-61129333D01*
X97533928Y-61176952D01*
X97724404Y-61176952D01*
X97819642Y-61224571D01*
X97867261Y-61272190D01*
X97914880Y-61367428D01*
X97914880Y-61557904D01*
X97867261Y-61653142D01*
X97819642Y-61700761D01*
X97724404Y-61748380D01*
X97533928Y-61748380D01*
X97438690Y-61700761D01*
X97391071Y-61653142D01*
X97343452Y-61557904D01*
X97343452Y-61367428D01*
X97391071Y-61272190D01*
X97438690Y-61224571D01*
X97533928Y-61176952D01*
X96914880Y-61653142D02*
X96867261Y-61700761D01*
X96914880Y-61748380D01*
X96962500Y-61700761D01*
X96914880Y-61653142D01*
X96914880Y-61748380D01*
X96438690Y-61653142D02*
X96391071Y-61700761D01*
X96438690Y-61748380D01*
X96486309Y-61700761D01*
X96438690Y-61653142D01*
X96438690Y-61748380D01*
X95438690Y-61748380D02*
X96010119Y-61748380D01*
X95724404Y-61748380D02*
X95724404Y-60748380D01*
X95819642Y-60891238D01*
X95914880Y-60986476D01*
X96010119Y-61034095D01*
X94533928Y-60748380D02*
X95010119Y-60748380D01*
X95057738Y-61224571D01*
X95010119Y-61176952D01*
X94914880Y-61129333D01*
X94676785Y-61129333D01*
X94581547Y-61176952D01*
X94533928Y-61224571D01*
X94486309Y-61319809D01*
X94486309Y-61557904D01*
X94533928Y-61653142D01*
X94581547Y-61700761D01*
X94676785Y-61748380D01*
X94914880Y-61748380D01*
X95010119Y-61700761D01*
X95057738Y-61653142D01*
X98724404Y-63358380D02*
X98724404Y-62358380D01*
X98486309Y-62358380D01*
X98343452Y-62406000D01*
X98248214Y-62501238D01*
X98200595Y-62596476D01*
X98152976Y-62786952D01*
X98152976Y-62929809D01*
X98200595Y-63120285D01*
X98248214Y-63215523D01*
X98343452Y-63310761D01*
X98486309Y-63358380D01*
X98724404Y-63358380D01*
X97533928Y-62358380D02*
X97438690Y-62358380D01*
X97343452Y-62406000D01*
X97295833Y-62453619D01*
X97248214Y-62548857D01*
X97200595Y-62739333D01*
X97200595Y-62977428D01*
X97248214Y-63167904D01*
X97295833Y-63263142D01*
X97343452Y-63310761D01*
X97438690Y-63358380D01*
X97533928Y-63358380D01*
X97629166Y-63310761D01*
X97676785Y-63263142D01*
X97724404Y-63167904D01*
X97772023Y-62977428D01*
X97772023Y-62739333D01*
X97724404Y-62548857D01*
X97676785Y-62453619D01*
X97629166Y-62406000D01*
X97533928Y-62358380D01*
X96772023Y-63263142D02*
X96724404Y-63310761D01*
X96772023Y-63358380D01*
X96819642Y-63310761D01*
X96772023Y-63263142D01*
X96772023Y-63358380D01*
X96295833Y-63263142D02*
X96248214Y-63310761D01*
X96295833Y-63358380D01*
X96343452Y-63310761D01*
X96295833Y-63263142D01*
X96295833Y-63358380D01*
X95914880Y-62358380D02*
X95248214Y-62358380D01*
X95676785Y-63358380D01*
X98152976Y-64873142D02*
X98200595Y-64920761D01*
X98343452Y-64968380D01*
X98438690Y-64968380D01*
X98581547Y-64920761D01*
X98676785Y-64825523D01*
X98724404Y-64730285D01*
X98772023Y-64539809D01*
X98772023Y-64396952D01*
X98724404Y-64206476D01*
X98676785Y-64111238D01*
X98581547Y-64016000D01*
X98438690Y-63968380D01*
X98343452Y-63968380D01*
X98200595Y-64016000D01*
X98152976Y-64063619D01*
X97248214Y-64968380D02*
X97724404Y-64968380D01*
X97724404Y-63968380D01*
X96914880Y-64968380D02*
X96914880Y-63968380D01*
X96343452Y-64968380D02*
X96772023Y-64396952D01*
X96343452Y-63968380D02*
X96914880Y-64539809D01*
X98772023Y-66530761D02*
X98629166Y-66578380D01*
X98391071Y-66578380D01*
X98295833Y-66530761D01*
X98248214Y-66483142D01*
X98200595Y-66387904D01*
X98200595Y-66292666D01*
X98248214Y-66197428D01*
X98295833Y-66149809D01*
X98391071Y-66102190D01*
X98581547Y-66054571D01*
X98676785Y-66006952D01*
X98724404Y-65959333D01*
X98772023Y-65864095D01*
X98772023Y-65768857D01*
X98724404Y-65673619D01*
X98676785Y-65626000D01*
X98581547Y-65578380D01*
X98343452Y-65578380D01*
X98200595Y-65626000D01*
X97581547Y-66102190D02*
X97581547Y-66578380D01*
X97914880Y-65578380D02*
X97581547Y-66102190D01*
X97248214Y-65578380D01*
X96914880Y-66578380D02*
X96914880Y-65578380D01*
X96343452Y-66578380D01*
X96343452Y-65578380D01*
X95295833Y-66483142D02*
X95343452Y-66530761D01*
X95486309Y-66578380D01*
X95581547Y-66578380D01*
X95724404Y-66530761D01*
X95819642Y-66435523D01*
X95867261Y-66340285D01*
X95914880Y-66149809D01*
X95914880Y-66006952D01*
X95867261Y-65816476D01*
X95819642Y-65721238D01*
X95724404Y-65626000D01*
X95581547Y-65578380D01*
X95486309Y-65578380D01*
X95343452Y-65626000D01*
X95295833Y-65673619D01*
X98152976Y-68188380D02*
X98486309Y-67712190D01*
X98724404Y-68188380D02*
X98724404Y-67188380D01*
X98343452Y-67188380D01*
X98248214Y-67236000D01*
X98200595Y-67283619D01*
X98152976Y-67378857D01*
X98152976Y-67521714D01*
X98200595Y-67616952D01*
X98248214Y-67664571D01*
X98343452Y-67712190D01*
X98724404Y-67712190D01*
X97010119Y-67140761D02*
X97867261Y-68426476D01*
X96772023Y-67188380D02*
X96533928Y-68188380D01*
X96343452Y-67474095D01*
X96152976Y-68188380D01*
X95914880Y-67188380D01*
X98010119Y-68750761D02*
X98867261Y-70036476D01*
X97105357Y-69798380D02*
X97438690Y-69322190D01*
X97676785Y-69798380D02*
X97676785Y-68798380D01*
X97295833Y-68798380D01*
X97200595Y-68846000D01*
X97152976Y-68893619D01*
X97105357Y-68988857D01*
X97105357Y-69131714D01*
X97152976Y-69226952D01*
X97200595Y-69274571D01*
X97295833Y-69322190D01*
X97676785Y-69322190D01*
X96724404Y-69750761D02*
X96581547Y-69798380D01*
X96343452Y-69798380D01*
X96248214Y-69750761D01*
X96200595Y-69703142D01*
X96152976Y-69607904D01*
X96152976Y-69512666D01*
X96200595Y-69417428D01*
X96248214Y-69369809D01*
X96343452Y-69322190D01*
X96533928Y-69274571D01*
X96629166Y-69226952D01*
X96676785Y-69179333D01*
X96724404Y-69084095D01*
X96724404Y-68988857D01*
X96676785Y-68893619D01*
X96629166Y-68846000D01*
X96533928Y-68798380D01*
X96295833Y-68798380D01*
X96152976Y-68846000D01*
X95867261Y-68798380D02*
X95295833Y-68798380D01*
X95581547Y-69798380D02*
X95581547Y-68798380D01*
X98010119Y-70360761D02*
X98867261Y-71646476D01*
X97105357Y-71408380D02*
X97438690Y-70932190D01*
X97676785Y-71408380D02*
X97676785Y-70408380D01*
X97295833Y-70408380D01*
X97200595Y-70456000D01*
X97152976Y-70503619D01*
X97105357Y-70598857D01*
X97105357Y-70741714D01*
X97152976Y-70836952D01*
X97200595Y-70884571D01*
X97295833Y-70932190D01*
X97676785Y-70932190D01*
X96486309Y-70408380D02*
X96295833Y-70408380D01*
X96200595Y-70456000D01*
X96105357Y-70551238D01*
X96057738Y-70741714D01*
X96057738Y-71075047D01*
X96105357Y-71265523D01*
X96200595Y-71360761D01*
X96295833Y-71408380D01*
X96486309Y-71408380D01*
X96581547Y-71360761D01*
X96676785Y-71265523D01*
X96724404Y-71075047D01*
X96724404Y-70741714D01*
X96676785Y-70551238D01*
X96581547Y-70456000D01*
X96486309Y-70408380D01*
X95629166Y-71408380D02*
X95629166Y-70408380D01*
X95295833Y-71122666D01*
X94962500Y-70408380D01*
X94962500Y-71408380D01*
X94581547Y-70408380D02*
X94343452Y-71408380D01*
X94152976Y-70694095D01*
X93962500Y-71408380D01*
X93724404Y-70408380D01*
X98391071Y-72494571D02*
X98248214Y-72542190D01*
X98200595Y-72589809D01*
X98152976Y-72685047D01*
X98152976Y-72827904D01*
X98200595Y-72923142D01*
X98248214Y-72970761D01*
X98343452Y-73018380D01*
X98724404Y-73018380D01*
X98724404Y-72018380D01*
X98391071Y-72018380D01*
X98295833Y-72066000D01*
X98248214Y-72113619D01*
X98200595Y-72208857D01*
X98200595Y-72304095D01*
X98248214Y-72399333D01*
X98295833Y-72446952D01*
X98391071Y-72494571D01*
X98724404Y-72494571D01*
X97724404Y-72494571D02*
X97391071Y-72494571D01*
X97248214Y-73018380D02*
X97724404Y-73018380D01*
X97724404Y-72018380D01*
X97248214Y-72018380D01*
X92882404Y-59571571D02*
X92120500Y-59571571D01*
X92120500Y-59857285D02*
X92882404Y-59857285D01*
X90882404Y-60095380D02*
X90882404Y-59095380D01*
X90501452Y-59095380D01*
X90406214Y-59143000D01*
X90358595Y-59190619D01*
X90310976Y-59285857D01*
X90310976Y-59428714D01*
X90358595Y-59523952D01*
X90406214Y-59571571D01*
X90501452Y-59619190D01*
X90882404Y-59619190D01*
X89930023Y-59809666D02*
X89453833Y-59809666D01*
X90025261Y-60095380D02*
X89691928Y-59095380D01*
X89358595Y-60095380D01*
X88834785Y-59095380D02*
X88739547Y-59095380D01*
X88644309Y-59143000D01*
X88596690Y-59190619D01*
X88549071Y-59285857D01*
X88501452Y-59476333D01*
X88501452Y-59714428D01*
X88549071Y-59904904D01*
X88596690Y-60000142D01*
X88644309Y-60047761D01*
X88739547Y-60095380D01*
X88834785Y-60095380D01*
X88930023Y-60047761D01*
X88977642Y-60000142D01*
X89025261Y-59904904D01*
X89072880Y-59714428D01*
X89072880Y-59476333D01*
X89025261Y-59285857D01*
X88977642Y-59190619D01*
X88930023Y-59143000D01*
X88834785Y-59095380D01*
X88072880Y-60000142D02*
X88025261Y-60047761D01*
X88072880Y-60095380D01*
X88120500Y-60047761D01*
X88072880Y-60000142D01*
X88072880Y-60095380D01*
X87596690Y-60000142D02*
X87549071Y-60047761D01*
X87596690Y-60095380D01*
X87644309Y-60047761D01*
X87596690Y-60000142D01*
X87596690Y-60095380D01*
X87215738Y-59095380D02*
X86549071Y-59095380D01*
X86977642Y-60095380D01*
X92882404Y-61181571D02*
X92120500Y-61181571D01*
X92120500Y-61467285D02*
X92882404Y-61467285D01*
X90882404Y-61705380D02*
X90882404Y-60705380D01*
X90501452Y-60705380D01*
X90406214Y-60753000D01*
X90358595Y-60800619D01*
X90310976Y-60895857D01*
X90310976Y-61038714D01*
X90358595Y-61133952D01*
X90406214Y-61181571D01*
X90501452Y-61229190D01*
X90882404Y-61229190D01*
X89310976Y-61610142D02*
X89358595Y-61657761D01*
X89501452Y-61705380D01*
X89596690Y-61705380D01*
X89739547Y-61657761D01*
X89834785Y-61562523D01*
X89882404Y-61467285D01*
X89930023Y-61276809D01*
X89930023Y-61133952D01*
X89882404Y-60943476D01*
X89834785Y-60848238D01*
X89739547Y-60753000D01*
X89596690Y-60705380D01*
X89501452Y-60705380D01*
X89358595Y-60753000D01*
X89310976Y-60800619D01*
X88691928Y-60705380D02*
X88596690Y-60705380D01*
X88501452Y-60753000D01*
X88453833Y-60800619D01*
X88406214Y-60895857D01*
X88358595Y-61086333D01*
X88358595Y-61324428D01*
X88406214Y-61514904D01*
X88453833Y-61610142D01*
X88501452Y-61657761D01*
X88596690Y-61705380D01*
X88691928Y-61705380D01*
X88787166Y-61657761D01*
X88834785Y-61610142D01*
X88882404Y-61514904D01*
X88930023Y-61324428D01*
X88930023Y-61086333D01*
X88882404Y-60895857D01*
X88834785Y-60800619D01*
X88787166Y-60753000D01*
X88691928Y-60705380D01*
X87930023Y-61610142D02*
X87882404Y-61657761D01*
X87930023Y-61705380D01*
X87977642Y-61657761D01*
X87930023Y-61610142D01*
X87930023Y-61705380D01*
X87453833Y-61610142D02*
X87406214Y-61657761D01*
X87453833Y-61705380D01*
X87501452Y-61657761D01*
X87453833Y-61610142D01*
X87453833Y-61705380D01*
X87072880Y-60705380D02*
X86406214Y-60705380D01*
X86834785Y-61705380D01*
X92882404Y-62791571D02*
X92120500Y-62791571D01*
X92120500Y-63077285D02*
X92882404Y-63077285D01*
X90882404Y-63315380D02*
X90882404Y-62315380D01*
X90501452Y-62315380D01*
X90406214Y-62363000D01*
X90358595Y-62410619D01*
X90310976Y-62505857D01*
X90310976Y-62648714D01*
X90358595Y-62743952D01*
X90406214Y-62791571D01*
X90501452Y-62839190D01*
X90882404Y-62839190D01*
X89406214Y-63315380D02*
X89882404Y-63315380D01*
X89882404Y-62315380D01*
X88882404Y-62315380D02*
X88787166Y-62315380D01*
X88691928Y-62363000D01*
X88644309Y-62410619D01*
X88596690Y-62505857D01*
X88549071Y-62696333D01*
X88549071Y-62934428D01*
X88596690Y-63124904D01*
X88644309Y-63220142D01*
X88691928Y-63267761D01*
X88787166Y-63315380D01*
X88882404Y-63315380D01*
X88977642Y-63267761D01*
X89025261Y-63220142D01*
X89072880Y-63124904D01*
X89120500Y-62934428D01*
X89120500Y-62696333D01*
X89072880Y-62505857D01*
X89025261Y-62410619D01*
X88977642Y-62363000D01*
X88882404Y-62315380D01*
X88120500Y-63220142D02*
X88072880Y-63267761D01*
X88120500Y-63315380D01*
X88168119Y-63267761D01*
X88120500Y-63220142D01*
X88120500Y-63315380D01*
X87644309Y-63220142D02*
X87596690Y-63267761D01*
X87644309Y-63315380D01*
X87691928Y-63267761D01*
X87644309Y-63220142D01*
X87644309Y-63315380D01*
X87263357Y-62315380D02*
X86596690Y-62315380D01*
X87025261Y-63315380D01*
X92882404Y-64401571D02*
X92120500Y-64401571D01*
X92120500Y-64687285D02*
X92882404Y-64687285D01*
X90882404Y-64925380D02*
X90882404Y-63925380D01*
X90501452Y-63925380D01*
X90406214Y-63973000D01*
X90358595Y-64020619D01*
X90310976Y-64115857D01*
X90310976Y-64258714D01*
X90358595Y-64353952D01*
X90406214Y-64401571D01*
X90501452Y-64449190D01*
X90882404Y-64449190D01*
X89549071Y-64401571D02*
X89406214Y-64449190D01*
X89358595Y-64496809D01*
X89310976Y-64592047D01*
X89310976Y-64734904D01*
X89358595Y-64830142D01*
X89406214Y-64877761D01*
X89501452Y-64925380D01*
X89882404Y-64925380D01*
X89882404Y-63925380D01*
X89549071Y-63925380D01*
X89453833Y-63973000D01*
X89406214Y-64020619D01*
X89358595Y-64115857D01*
X89358595Y-64211095D01*
X89406214Y-64306333D01*
X89453833Y-64353952D01*
X89549071Y-64401571D01*
X89882404Y-64401571D01*
X88691928Y-63925380D02*
X88596690Y-63925380D01*
X88501452Y-63973000D01*
X88453833Y-64020619D01*
X88406214Y-64115857D01*
X88358595Y-64306333D01*
X88358595Y-64544428D01*
X88406214Y-64734904D01*
X88453833Y-64830142D01*
X88501452Y-64877761D01*
X88596690Y-64925380D01*
X88691928Y-64925380D01*
X88787166Y-64877761D01*
X88834785Y-64830142D01*
X88882404Y-64734904D01*
X88930023Y-64544428D01*
X88930023Y-64306333D01*
X88882404Y-64115857D01*
X88834785Y-64020619D01*
X88787166Y-63973000D01*
X88691928Y-63925380D01*
X92882404Y-66011571D02*
X92120500Y-66011571D01*
X92120500Y-66297285D02*
X92882404Y-66297285D01*
X90882404Y-66535380D02*
X90882404Y-65535380D01*
X90501452Y-65535380D01*
X90406214Y-65583000D01*
X90358595Y-65630619D01*
X90310976Y-65725857D01*
X90310976Y-65868714D01*
X90358595Y-65963952D01*
X90406214Y-66011571D01*
X90501452Y-66059190D01*
X90882404Y-66059190D01*
X89549071Y-66011571D02*
X89406214Y-66059190D01*
X89358595Y-66106809D01*
X89310976Y-66202047D01*
X89310976Y-66344904D01*
X89358595Y-66440142D01*
X89406214Y-66487761D01*
X89501452Y-66535380D01*
X89882404Y-66535380D01*
X89882404Y-65535380D01*
X89549071Y-65535380D01*
X89453833Y-65583000D01*
X89406214Y-65630619D01*
X89358595Y-65725857D01*
X89358595Y-65821095D01*
X89406214Y-65916333D01*
X89453833Y-65963952D01*
X89549071Y-66011571D01*
X89882404Y-66011571D01*
X88358595Y-66535380D02*
X88930023Y-66535380D01*
X88644309Y-66535380D02*
X88644309Y-65535380D01*
X88739547Y-65678238D01*
X88834785Y-65773476D01*
X88930023Y-65821095D01*
X92882404Y-67621571D02*
X92120500Y-67621571D01*
X92120500Y-67907285D02*
X92882404Y-67907285D01*
X90882404Y-68145380D02*
X90882404Y-67145380D01*
X90501452Y-67145380D01*
X90406214Y-67193000D01*
X90358595Y-67240619D01*
X90310976Y-67335857D01*
X90310976Y-67478714D01*
X90358595Y-67573952D01*
X90406214Y-67621571D01*
X90501452Y-67669190D01*
X90882404Y-67669190D01*
X89549071Y-67621571D02*
X89406214Y-67669190D01*
X89358595Y-67716809D01*
X89310976Y-67812047D01*
X89310976Y-67954904D01*
X89358595Y-68050142D01*
X89406214Y-68097761D01*
X89501452Y-68145380D01*
X89882404Y-68145380D01*
X89882404Y-67145380D01*
X89549071Y-67145380D01*
X89453833Y-67193000D01*
X89406214Y-67240619D01*
X89358595Y-67335857D01*
X89358595Y-67431095D01*
X89406214Y-67526333D01*
X89453833Y-67573952D01*
X89549071Y-67621571D01*
X89882404Y-67621571D01*
X88930023Y-67240619D02*
X88882404Y-67193000D01*
X88787166Y-67145380D01*
X88549071Y-67145380D01*
X88453833Y-67193000D01*
X88406214Y-67240619D01*
X88358595Y-67335857D01*
X88358595Y-67431095D01*
X88406214Y-67573952D01*
X88977642Y-68145380D01*
X88358595Y-68145380D01*
X92882404Y-69231571D02*
X92120500Y-69231571D01*
X92120500Y-69517285D02*
X92882404Y-69517285D01*
X90882404Y-69755380D02*
X90882404Y-68755380D01*
X90501452Y-68755380D01*
X90406214Y-68803000D01*
X90358595Y-68850619D01*
X90310976Y-68945857D01*
X90310976Y-69088714D01*
X90358595Y-69183952D01*
X90406214Y-69231571D01*
X90501452Y-69279190D01*
X90882404Y-69279190D01*
X89549071Y-69231571D02*
X89406214Y-69279190D01*
X89358595Y-69326809D01*
X89310976Y-69422047D01*
X89310976Y-69564904D01*
X89358595Y-69660142D01*
X89406214Y-69707761D01*
X89501452Y-69755380D01*
X89882404Y-69755380D01*
X89882404Y-68755380D01*
X89549071Y-68755380D01*
X89453833Y-68803000D01*
X89406214Y-68850619D01*
X89358595Y-68945857D01*
X89358595Y-69041095D01*
X89406214Y-69136333D01*
X89453833Y-69183952D01*
X89549071Y-69231571D01*
X89882404Y-69231571D01*
X88977642Y-68755380D02*
X88358595Y-68755380D01*
X88691928Y-69136333D01*
X88549071Y-69136333D01*
X88453833Y-69183952D01*
X88406214Y-69231571D01*
X88358595Y-69326809D01*
X88358595Y-69564904D01*
X88406214Y-69660142D01*
X88453833Y-69707761D01*
X88549071Y-69755380D01*
X88834785Y-69755380D01*
X88930023Y-69707761D01*
X88977642Y-69660142D01*
X92882404Y-70841571D02*
X92120500Y-70841571D01*
X92120500Y-71127285D02*
X92882404Y-71127285D01*
X90882404Y-71365380D02*
X90882404Y-70365380D01*
X90501452Y-70365380D01*
X90406214Y-70413000D01*
X90358595Y-70460619D01*
X90310976Y-70555857D01*
X90310976Y-70698714D01*
X90358595Y-70793952D01*
X90406214Y-70841571D01*
X90501452Y-70889190D01*
X90882404Y-70889190D01*
X89358595Y-70413000D02*
X89453833Y-70365380D01*
X89596690Y-70365380D01*
X89739547Y-70413000D01*
X89834785Y-70508238D01*
X89882404Y-70603476D01*
X89930023Y-70793952D01*
X89930023Y-70936809D01*
X89882404Y-71127285D01*
X89834785Y-71222523D01*
X89739547Y-71317761D01*
X89596690Y-71365380D01*
X89501452Y-71365380D01*
X89358595Y-71317761D01*
X89310976Y-71270142D01*
X89310976Y-70936809D01*
X89501452Y-70936809D01*
X88691928Y-70365380D02*
X88596690Y-70365380D01*
X88501452Y-70413000D01*
X88453833Y-70460619D01*
X88406214Y-70555857D01*
X88358595Y-70746333D01*
X88358595Y-70984428D01*
X88406214Y-71174904D01*
X88453833Y-71270142D01*
X88501452Y-71317761D01*
X88596690Y-71365380D01*
X88691928Y-71365380D01*
X88787166Y-71317761D01*
X88834785Y-71270142D01*
X88882404Y-71174904D01*
X88930023Y-70984428D01*
X88930023Y-70746333D01*
X88882404Y-70555857D01*
X88834785Y-70460619D01*
X88787166Y-70413000D01*
X88691928Y-70365380D01*
X92882404Y-72451571D02*
X92120500Y-72451571D01*
X92120500Y-72737285D02*
X92882404Y-72737285D01*
X90882404Y-72975380D02*
X90882404Y-71975380D01*
X90501452Y-71975380D01*
X90406214Y-72023000D01*
X90358595Y-72070619D01*
X90310976Y-72165857D01*
X90310976Y-72308714D01*
X90358595Y-72403952D01*
X90406214Y-72451571D01*
X90501452Y-72499190D01*
X90882404Y-72499190D01*
X89358595Y-72023000D02*
X89453833Y-71975380D01*
X89596690Y-71975380D01*
X89739547Y-72023000D01*
X89834785Y-72118238D01*
X89882404Y-72213476D01*
X89930023Y-72403952D01*
X89930023Y-72546809D01*
X89882404Y-72737285D01*
X89834785Y-72832523D01*
X89739547Y-72927761D01*
X89596690Y-72975380D01*
X89501452Y-72975380D01*
X89358595Y-72927761D01*
X89310976Y-72880142D01*
X89310976Y-72546809D01*
X89501452Y-72546809D01*
X88358595Y-72975380D02*
X88930023Y-72975380D01*
X88644309Y-72975380D02*
X88644309Y-71975380D01*
X88739547Y-72118238D01*
X88834785Y-72213476D01*
X88930023Y-72261095D01*
%LPC*%
D11*
X80748000Y-88265000D03*
X231624000Y-88265000D03*
X80748000Y-48387000D03*
X231624000Y-48387000D03*
D12*
X93956000Y-84709000D03*
D13*
X96496000Y-84709000D03*
X99036000Y-84709000D03*
X101576000Y-84709000D03*
X104116000Y-84709000D03*
X106656000Y-84709000D03*
X109196000Y-84709000D03*
X111736000Y-84709000D03*
X114276000Y-84709000D03*
X116816000Y-84709000D03*
X119356000Y-84709000D03*
X121896000Y-84709000D03*
X124436000Y-84709000D03*
X126976000Y-84709000D03*
X129516000Y-84709000D03*
X132056000Y-84709000D03*
X134596000Y-84709000D03*
X137136000Y-84709000D03*
X139676000Y-84709000D03*
X142216000Y-84709000D03*
X144756000Y-84709000D03*
X147296000Y-84709000D03*
X149836000Y-84709000D03*
X152376000Y-84709000D03*
X154916000Y-84709000D03*
X157456000Y-84709000D03*
X159996000Y-84709000D03*
X162536000Y-84709000D03*
X165076000Y-84709000D03*
X167616000Y-84709000D03*
X170156000Y-84709000D03*
X172696000Y-84709000D03*
X175236000Y-84709000D03*
X177776000Y-84709000D03*
X180316000Y-84709000D03*
X182856000Y-84709000D03*
X185396000Y-84709000D03*
X187936000Y-84709000D03*
X190476000Y-84709000D03*
X193016000Y-84709000D03*
X195556000Y-84709000D03*
X198096000Y-84709000D03*
X200636000Y-84709000D03*
X203176000Y-84709000D03*
X205716000Y-84709000D03*
X208256000Y-84709000D03*
X210796000Y-84709000D03*
X213336000Y-84709000D03*
X215876000Y-84709000D03*
X218416000Y-84709000D03*
D14*
X79939400Y-104960500D03*
D15*
X73939400Y-104960500D03*
D16*
X76939400Y-109660500D03*
D12*
X179070000Y-96520000D03*
D13*
X179070000Y-99060000D03*
X179070000Y-101600000D03*
D12*
X71120000Y-149606000D03*
D13*
X73660000Y-149606000D03*
X76200000Y-149606000D03*
X78740000Y-149606000D03*
X81280000Y-149606000D03*
X83820000Y-149606000D03*
X86360000Y-149606000D03*
X88900000Y-149606000D03*
X91440000Y-149606000D03*
X93980000Y-149606000D03*
X96520000Y-149606000D03*
X99060000Y-149606000D03*
X101600000Y-149606000D03*
X104140000Y-149606000D03*
X106680000Y-149606000D03*
X109220000Y-149606000D03*
X111760000Y-149606000D03*
X114300000Y-149606000D03*
X116840000Y-149606000D03*
X119380000Y-149606000D03*
X121920000Y-149606000D03*
X124460000Y-149606000D03*
X127000000Y-149606000D03*
X129540000Y-149606000D03*
X132080000Y-149606000D03*
X134620000Y-149606000D03*
X137160000Y-149606000D03*
X139700000Y-149606000D03*
X142240000Y-149606000D03*
X144780000Y-149606000D03*
X147320000Y-149606000D03*
X149860000Y-149606000D03*
X152400000Y-149606000D03*
X154940000Y-149606000D03*
X157480000Y-149606000D03*
X160020000Y-149606000D03*
X162560000Y-149606000D03*
X165100000Y-149606000D03*
X167640000Y-149606000D03*
X170180000Y-149606000D03*
D12*
X165125000Y-96530000D03*
D13*
X165125000Y-99070000D03*
X165125000Y-101610000D03*
X165125000Y-104150000D03*
D12*
X175260000Y-149606000D03*
D13*
X177800000Y-149606000D03*
X180340000Y-149606000D03*
X182880000Y-149606000D03*
X185420000Y-149606000D03*
X187960000Y-149606000D03*
D12*
X78586000Y-93880000D03*
D13*
X81126000Y-93880000D03*
D17*
X72828892Y-142034392D03*
X147504892Y-142034392D03*
X147504892Y-116380392D03*
X72828892Y-116380392D03*
D12*
X96450892Y-114602392D03*
D13*
X98990892Y-114602392D03*
D18*
X101530892Y-114602392D03*
X104070892Y-114602392D03*
D13*
X106610892Y-114602392D03*
D19*
X109150892Y-114602392D03*
X111690892Y-114602392D03*
X114230892Y-114602392D03*
X116770892Y-114602392D03*
X119310892Y-114602392D03*
D13*
X121850892Y-114602392D03*
X124390892Y-114602392D03*
X126930892Y-114602392D03*
D12*
X71120000Y-93980000D03*
D13*
X68580000Y-93980000D03*
X71120000Y-91440000D03*
X68580000Y-91440000D03*
X71120000Y-88900000D03*
X68580000Y-88900000D03*
X71120000Y-86360000D03*
X68580000Y-86360000D03*
X71120000Y-83820000D03*
X68580000Y-83820000D03*
X71120000Y-81280000D03*
X68580000Y-81280000D03*
X71120000Y-78740000D03*
X68580000Y-78740000D03*
X71120000Y-76200000D03*
X68580000Y-76200000D03*
X71120000Y-73660000D03*
X68580000Y-73660000D03*
X71120000Y-71120000D03*
X68580000Y-71120000D03*
X71120000Y-68580000D03*
X68580000Y-68580000D03*
X71120000Y-66040000D03*
X68580000Y-66040000D03*
X71120000Y-63500000D03*
X68580000Y-63500000D03*
X71120000Y-60960000D03*
X68580000Y-60960000D03*
X71120000Y-58420000D03*
X68580000Y-58420000D03*
X71120000Y-55880000D03*
X68580000Y-55880000D03*
X71120000Y-53340000D03*
X68580000Y-53340000D03*
X71120000Y-50800000D03*
X68580000Y-50800000D03*
D12*
X192303000Y-96540000D03*
D13*
X192303000Y-99080000D03*
D20*
X97790000Y-109220000D03*
D21*
X100330000Y-109220000D03*
X102870000Y-109220000D03*
X105410000Y-109220000D03*
X107950000Y-109220000D03*
D22*
X110490000Y-109220000D03*
X113030000Y-109220000D03*
X115570000Y-109220000D03*
D21*
X118110000Y-109220000D03*
X120650000Y-109220000D03*
X123190000Y-109220000D03*
X125730000Y-109220000D03*
X128270000Y-109220000D03*
X130810000Y-109220000D03*
X133350000Y-109220000D03*
X135890000Y-109220000D03*
X138430000Y-109220000D03*
X140970000Y-109220000D03*
X143510000Y-109220000D03*
X146050000Y-109220000D03*
X146050000Y-93980000D03*
X143510000Y-93980000D03*
X140970000Y-93980000D03*
D22*
X138430000Y-93980000D03*
X135890000Y-93980000D03*
X133350000Y-93980000D03*
D21*
X130810000Y-93980000D03*
X128270000Y-93980000D03*
X125730000Y-93980000D03*
X123190000Y-93980000D03*
X120650000Y-93980000D03*
X118110000Y-93980000D03*
X115570000Y-93980000D03*
X113030000Y-93980000D03*
X110490000Y-93980000D03*
X107950000Y-93980000D03*
X105410000Y-93980000D03*
X102870000Y-93980000D03*
X100330000Y-93980000D03*
X97790000Y-93980000D03*
D23*
X149860000Y-109180000D03*
X149860000Y-104180000D03*
D12*
X193040000Y-149606000D03*
D13*
X195580000Y-149606000D03*
X198120000Y-149606000D03*
X200660000Y-149606000D03*
X203200000Y-149606000D03*
X205740000Y-149606000D03*
X208280000Y-149606000D03*
X210820000Y-149606000D03*
X213360000Y-149606000D03*
X215900000Y-149606000D03*
X218440000Y-149606000D03*
X220980000Y-149606000D03*
X223520000Y-149606000D03*
X226060000Y-149606000D03*
X228600000Y-149606000D03*
X231140000Y-149606000D03*
D24*
X230793480Y-143522700D03*
X230794000Y-112522000D03*
X155794900Y-112522000D03*
X155794900Y-143522700D03*
D25*
X161294000Y-112522000D03*
D26*
X163834000Y-112522000D03*
X166374000Y-112522000D03*
X168914000Y-112522000D03*
X171454000Y-112522000D03*
X173994000Y-112522000D03*
X176534000Y-112522000D03*
X179074000Y-112522000D03*
X181614000Y-112522000D03*
X184154000Y-112522000D03*
X186694000Y-112522000D03*
X189234000Y-112522000D03*
X191774000Y-112522000D03*
X194314000Y-112522000D03*
X196854000Y-112522000D03*
X199394000Y-112522000D03*
D27*
X228600000Y-104902000D03*
X226060000Y-102362000D03*
X223520000Y-104902000D03*
D28*
X90158000Y-98298000D03*
D29*
X90158000Y-95758000D03*
D23*
X90170000Y-100965000D03*
D21*
X90170000Y-108585000D03*
D30*
X83820000Y-100330000D03*
D31*
X85320000Y-100330000D03*
M02*
