G04 #@! TF.GenerationSoftware,KiCad,Pcbnew,(6.0.7-1)-1*
G04 #@! TF.CreationDate,2022-08-10T01:24:52+02:00*
G04 #@! TF.ProjectId,6502_computer,36353032-5f63-46f6-9d70-757465722e6b,REV*
G04 #@! TF.SameCoordinates,Original*
G04 #@! TF.FileFunction,Copper,L4,Bot*
G04 #@! TF.FilePolarity,Positive*
%FSLAX46Y46*%
G04 Gerber Fmt 4.6, Leading zero omitted, Abs format (unit mm)*
G04 Created by KiCad (PCBNEW (6.0.7-1)-1) date 2022-08-10 01:24:52*
%MOMM*%
%LPD*%
G01*
G04 APERTURE LIST*
G04 Aperture macros list*
%AMRoundRect*
0 Rectangle with rounded corners*
0 $1 Rounding radius*
0 $2 $3 $4 $5 $6 $7 $8 $9 X,Y pos of 4 corners*
0 Add a 4 corners polygon primitive as box body*
4,1,4,$2,$3,$4,$5,$6,$7,$8,$9,$2,$3,0*
0 Add four circle primitives for the rounded corners*
1,1,$1+$1,$2,$3*
1,1,$1+$1,$4,$5*
1,1,$1+$1,$6,$7*
1,1,$1+$1,$8,$9*
0 Add four rect primitives between the rounded corners*
20,1,$1+$1,$2,$3,$4,$5,0*
20,1,$1+$1,$4,$5,$6,$7,0*
20,1,$1+$1,$6,$7,$8,$9,0*
20,1,$1+$1,$8,$9,$2,$3,0*%
G04 Aperture macros list end*
G04 #@! TA.AperFunction,ComponentPad*
%ADD10R,3.500000X3.500000*%
G04 #@! TD*
G04 #@! TA.AperFunction,ComponentPad*
%ADD11RoundRect,0.750000X-0.750000X-1.000000X0.750000X-1.000000X0.750000X1.000000X-0.750000X1.000000X0*%
G04 #@! TD*
G04 #@! TA.AperFunction,ComponentPad*
%ADD12RoundRect,0.875000X-0.875000X-0.875000X0.875000X-0.875000X0.875000X0.875000X-0.875000X0.875000X0*%
G04 #@! TD*
G04 #@! TA.AperFunction,ComponentPad*
%ADD13R,1.700000X1.700000*%
G04 #@! TD*
G04 #@! TA.AperFunction,ComponentPad*
%ADD14O,1.700000X1.700000*%
G04 #@! TD*
G04 #@! TA.AperFunction,ComponentPad*
%ADD15C,1.600000*%
G04 #@! TD*
G04 #@! TA.AperFunction,ComponentPad*
%ADD16R,1.600000X1.600000*%
G04 #@! TD*
G04 #@! TA.AperFunction,ComponentPad*
%ADD17O,1.600000X1.600000*%
G04 #@! TD*
G04 #@! TA.AperFunction,ComponentPad*
%ADD18C,3.000000*%
G04 #@! TD*
G04 #@! TA.AperFunction,ComponentPad*
%ADD19R,1.800000X2.600000*%
G04 #@! TD*
G04 #@! TA.AperFunction,ComponentPad*
%ADD20O,1.800000X2.600000*%
G04 #@! TD*
G04 #@! TA.AperFunction,ComponentPad*
%ADD21C,1.440000*%
G04 #@! TD*
G04 #@! TA.AperFunction,ComponentPad*
%ADD22R,1.800000X1.800000*%
G04 #@! TD*
G04 #@! TA.AperFunction,ComponentPad*
%ADD23C,1.800000*%
G04 #@! TD*
G04 #@! TA.AperFunction,ComponentPad*
%ADD24R,1.200000X1.200000*%
G04 #@! TD*
G04 #@! TA.AperFunction,ComponentPad*
%ADD25C,1.200000*%
G04 #@! TD*
G04 #@! TA.AperFunction,ViaPad*
%ADD26C,0.600000*%
G04 #@! TD*
G04 #@! TA.AperFunction,Conductor*
%ADD27C,0.293624*%
G04 #@! TD*
G04 #@! TA.AperFunction,Conductor*
%ADD28C,0.146812*%
G04 #@! TD*
G04 APERTURE END LIST*
D10*
X87630000Y-100584000D03*
D11*
X81630000Y-100584000D03*
D12*
X84630000Y-105284000D03*
D13*
X102796892Y-114602392D03*
D14*
X105336892Y-114602392D03*
X107876892Y-114602392D03*
X110416892Y-114602392D03*
X112956892Y-114602392D03*
X115496892Y-114602392D03*
X118036892Y-114602392D03*
X120576892Y-114602392D03*
X123116892Y-114602392D03*
X125656892Y-114602392D03*
X128196892Y-114602392D03*
X130736892Y-114602392D03*
X133276892Y-114602392D03*
D13*
X95226000Y-84709000D03*
D14*
X97766000Y-84709000D03*
X100306000Y-84709000D03*
X102846000Y-84709000D03*
X105386000Y-84709000D03*
X107926000Y-84709000D03*
X110466000Y-84709000D03*
X113006000Y-84709000D03*
X115546000Y-84709000D03*
X118086000Y-84709000D03*
X120626000Y-84709000D03*
X123166000Y-84709000D03*
X125706000Y-84709000D03*
X128246000Y-84709000D03*
X130786000Y-84709000D03*
X133326000Y-84709000D03*
X135866000Y-84709000D03*
X138406000Y-84709000D03*
X140946000Y-84709000D03*
X143486000Y-84709000D03*
X146026000Y-84709000D03*
X148566000Y-84709000D03*
X151106000Y-84709000D03*
X153646000Y-84709000D03*
X156186000Y-84709000D03*
X158726000Y-84709000D03*
X161266000Y-84709000D03*
X163806000Y-84709000D03*
X166346000Y-84709000D03*
X168886000Y-84709000D03*
X171426000Y-84709000D03*
X173966000Y-84709000D03*
X176506000Y-84709000D03*
X179046000Y-84709000D03*
X181586000Y-84709000D03*
X184126000Y-84709000D03*
X186666000Y-84709000D03*
X189206000Y-84709000D03*
X191746000Y-84709000D03*
X194286000Y-84709000D03*
X196826000Y-84709000D03*
X199366000Y-84709000D03*
X201906000Y-84709000D03*
X204446000Y-84709000D03*
X206986000Y-84709000D03*
X209526000Y-84709000D03*
X212066000Y-84709000D03*
X214606000Y-84709000D03*
X217146000Y-84709000D03*
X219686000Y-84709000D03*
D15*
X160020000Y-108966000D03*
X160020000Y-103966000D03*
D16*
X163830000Y-108971000D03*
D17*
X166370000Y-108971000D03*
X168910000Y-108971000D03*
X171450000Y-108971000D03*
X173990000Y-108971000D03*
X176530000Y-108971000D03*
X179070000Y-108971000D03*
X181610000Y-108971000D03*
X184150000Y-108971000D03*
X186690000Y-108971000D03*
X189230000Y-108971000D03*
X191770000Y-108971000D03*
X194310000Y-108971000D03*
X196850000Y-108971000D03*
X199390000Y-108971000D03*
X201930000Y-108971000D03*
X204470000Y-108971000D03*
X207010000Y-108971000D03*
X209550000Y-108971000D03*
X212090000Y-108971000D03*
X214630000Y-108971000D03*
X214630000Y-93731000D03*
X212090000Y-93731000D03*
X209550000Y-93731000D03*
X207010000Y-93731000D03*
X204470000Y-93731000D03*
X201930000Y-93731000D03*
X199390000Y-93731000D03*
X196850000Y-93731000D03*
X194310000Y-93731000D03*
X191770000Y-93731000D03*
X189230000Y-93731000D03*
X186690000Y-93731000D03*
X184150000Y-93731000D03*
X181610000Y-93731000D03*
X179070000Y-93731000D03*
X176530000Y-93731000D03*
X173990000Y-93731000D03*
X171450000Y-93731000D03*
X168910000Y-93731000D03*
X166370000Y-93731000D03*
X163830000Y-93731000D03*
D15*
X217932000Y-108946000D03*
X217932000Y-103946000D03*
D13*
X100798599Y-101092000D03*
D14*
X103338599Y-101092000D03*
X105878599Y-101092000D03*
X108418599Y-101092000D03*
X110958599Y-101092000D03*
X113498599Y-101092000D03*
X116038599Y-101092000D03*
X118578599Y-101092000D03*
X121118599Y-101092000D03*
X123658599Y-101092000D03*
X126198599Y-101092000D03*
X128738599Y-101092000D03*
X131278599Y-101092000D03*
X133818599Y-101092000D03*
X136358599Y-101092000D03*
X138898599Y-101092000D03*
D18*
X237139480Y-144929200D03*
X237140000Y-113928500D03*
X162140900Y-113928500D03*
X162140900Y-144929200D03*
D19*
X167640000Y-113928500D03*
D20*
X170180000Y-113928500D03*
X172720000Y-113928500D03*
X175260000Y-113928500D03*
X177800000Y-113928500D03*
X180340000Y-113928500D03*
X182880000Y-113928500D03*
X185420000Y-113928500D03*
X187960000Y-113928500D03*
X190500000Y-113928500D03*
X193040000Y-113928500D03*
X195580000Y-113928500D03*
X198120000Y-113928500D03*
X200660000Y-113928500D03*
X203200000Y-113928500D03*
X205740000Y-113928500D03*
D21*
X228600000Y-106680000D03*
X226060000Y-104140000D03*
X223520000Y-106680000D03*
D22*
X92456000Y-97790000D03*
D23*
X92456000Y-95250000D03*
D15*
X92468000Y-102362000D03*
D17*
X92468000Y-109982000D03*
D24*
X100877401Y-96012000D03*
D25*
X102377401Y-96012000D03*
D26*
X152400000Y-63500000D03*
X116078000Y-120777000D03*
X228600000Y-114300000D03*
X101600000Y-76200000D03*
X88900000Y-139700000D03*
X215900000Y-127000000D03*
X177800000Y-50800000D03*
X165100000Y-139700000D03*
X215900000Y-63500000D03*
X76200000Y-127000000D03*
X76200000Y-50800000D03*
X79248000Y-108712000D03*
X137414000Y-90805000D03*
X230886000Y-101600000D03*
X211074000Y-114681000D03*
X88900000Y-76200000D03*
X76200000Y-63500000D03*
X165100000Y-76200000D03*
X221107000Y-88773000D03*
X88900000Y-114300000D03*
X101600000Y-127000000D03*
X170942000Y-116078000D03*
X212217000Y-110744000D03*
X207518000Y-96647000D03*
X76200000Y-101600000D03*
X165100000Y-127000000D03*
X203200000Y-76200000D03*
X113919000Y-109982000D03*
X125984000Y-93472000D03*
X127000000Y-76200000D03*
X127000000Y-127000000D03*
X161798000Y-108966000D03*
X190500000Y-139700000D03*
X152400000Y-76200000D03*
X161417000Y-97155000D03*
X142240000Y-96520000D03*
X114300000Y-127000000D03*
X203200000Y-101600000D03*
X152400000Y-127000000D03*
X185039000Y-106110312D03*
X114300000Y-63500000D03*
X112268000Y-110617000D03*
X177800000Y-139700000D03*
X212979000Y-89154000D03*
X101219000Y-108204000D03*
X203327000Y-90043000D03*
X228600000Y-50800000D03*
X101600000Y-139700000D03*
X114300000Y-76200000D03*
X213233000Y-96012000D03*
X177927000Y-99314000D03*
X76200000Y-139700000D03*
X203200000Y-127000000D03*
X152400000Y-139700000D03*
X92583000Y-107442000D03*
X170434000Y-106172000D03*
X101600000Y-63500000D03*
X158623000Y-100838000D03*
X88900000Y-88900000D03*
X228600000Y-63500000D03*
X211582000Y-106934000D03*
X139700000Y-139700000D03*
X114300000Y-139700000D03*
X114300000Y-50800000D03*
X158242000Y-93980000D03*
X203200000Y-50800000D03*
X145542000Y-103124000D03*
X139700000Y-63500000D03*
X228600000Y-139700000D03*
X101600000Y-50800000D03*
X76200000Y-114300000D03*
X145415000Y-88900000D03*
X228600000Y-127000000D03*
X76200000Y-88900000D03*
X215900000Y-114300000D03*
X137414000Y-108331000D03*
X107950000Y-93218000D03*
X139700000Y-127000000D03*
X228600000Y-76200000D03*
X225171000Y-109601000D03*
X88900000Y-127000000D03*
X97536000Y-115443000D03*
X139700000Y-76200000D03*
X139700000Y-114300000D03*
X88900000Y-50800000D03*
X176022000Y-118999000D03*
X215900000Y-76200000D03*
X190500000Y-63500000D03*
X190500000Y-101600000D03*
X152400000Y-114300000D03*
X130429000Y-96774000D03*
X127000000Y-63500000D03*
X88900000Y-63500000D03*
X190500000Y-50800000D03*
X139700000Y-50800000D03*
X204089000Y-117856000D03*
X179578000Y-124333000D03*
X86614000Y-84963000D03*
X127000000Y-139700000D03*
X190500000Y-127000000D03*
X165100000Y-63500000D03*
X76200000Y-76200000D03*
X177800000Y-76200000D03*
X203200000Y-139700000D03*
X150114000Y-88519000D03*
X177800000Y-127000000D03*
X139319000Y-116967000D03*
X88900000Y-93599000D03*
X165100000Y-101600000D03*
X101600000Y-88900000D03*
X127000000Y-50800000D03*
X190500000Y-76200000D03*
X152400000Y-50800000D03*
X148463000Y-123952000D03*
X215900000Y-50800000D03*
X215900000Y-101600000D03*
X215900000Y-139700000D03*
X165100000Y-50800000D03*
X203200000Y-63500000D03*
X177800000Y-63500000D03*
X214630000Y-106553000D03*
X158242000Y-108966000D03*
X207899000Y-106553000D03*
X228600000Y-88900000D03*
X224790000Y-97028000D03*
X114920786Y-110236000D03*
X113376430Y-110837532D03*
X111306509Y-110912592D03*
D27*
X140970000Y-89916000D02*
X101092000Y-89916000D01*
X172583500Y-116332000D02*
X200796500Y-116332000D01*
X157480000Y-106426000D02*
X160020000Y-108966000D01*
X221254000Y-108946000D02*
X223520000Y-106680000D01*
X217932000Y-108458000D02*
X217932000Y-108946000D01*
X216553788Y-110324212D02*
X213443212Y-110324212D01*
X155575000Y-104521000D02*
X156464000Y-105410000D01*
X170180000Y-113928500D02*
X172583500Y-116332000D01*
X200796500Y-116332000D02*
X203200000Y-113928500D01*
X155575000Y-104521000D02*
X152527000Y-101473000D01*
X217932000Y-108946000D02*
X221254000Y-108946000D01*
X214884000Y-105410000D02*
X217932000Y-108458000D01*
X152527000Y-101473000D02*
X140970000Y-89916000D01*
X158750000Y-105410000D02*
X214884000Y-105410000D01*
X213443212Y-110324212D02*
X212090000Y-108971000D01*
X158496000Y-105410000D02*
X158750000Y-105410000D01*
X155575000Y-104521000D02*
X157480000Y-106426000D01*
X100433000Y-89916000D02*
X95226000Y-84709000D01*
X101092000Y-89916000D02*
X100433000Y-89916000D01*
X217932000Y-108946000D02*
X216553788Y-110324212D01*
X157480000Y-106426000D02*
X158496000Y-105410000D01*
D28*
X174634500Y-112014000D02*
X219882782Y-112014000D01*
X172720000Y-113928500D02*
X174634500Y-112014000D01*
X226060000Y-105836782D02*
X226060000Y-104140000D01*
X219882782Y-112014000D02*
X226060000Y-105836782D01*
X206856513Y-111664487D02*
X209550000Y-108971000D01*
X174140214Y-112014000D02*
X174489727Y-111664487D01*
X105878599Y-101092000D02*
X105878599Y-106299419D01*
X174489727Y-111664487D02*
X206856513Y-111664487D01*
X111593180Y-112014000D02*
X174140214Y-112014000D01*
X105878599Y-106299419D02*
X111593180Y-112014000D01*
X204983000Y-95758000D02*
X207010000Y-93731000D01*
X107291000Y-89154000D02*
X141986000Y-89154000D01*
X148590000Y-95758000D02*
X204983000Y-95758000D01*
X141986000Y-89154000D02*
X148590000Y-95758000D01*
X102846000Y-84709000D02*
X107291000Y-89154000D01*
X172217000Y-110744000D02*
X115428786Y-110744000D01*
X115428786Y-110744000D02*
X114920786Y-110236000D01*
X173990000Y-108971000D02*
X172217000Y-110744000D01*
X113632411Y-111093513D02*
X113376430Y-110837532D01*
X176530000Y-108971000D02*
X176194642Y-108971000D01*
X174072129Y-111093513D02*
X113632411Y-111093513D01*
X176194642Y-108971000D02*
X174072129Y-111093513D01*
X174090954Y-111568974D02*
X111962891Y-111568974D01*
X111962891Y-111568974D02*
X111306509Y-110912592D01*
X204666026Y-111314974D02*
X174344954Y-111314974D01*
X207010000Y-108971000D02*
X204666026Y-111314974D01*
X174344954Y-111314974D02*
X174090954Y-111568974D01*
X92468000Y-97802000D02*
X92456000Y-97790000D01*
X92468000Y-102362000D02*
X92468000Y-97802000D01*
M02*
