G04 #@! TF.GenerationSoftware,KiCad,Pcbnew,(6.0.11-0)*
G04 #@! TF.CreationDate,2023-05-23T16:25:54+02:00*
G04 #@! TF.ProjectId,6502_computer,36353032-5f63-46f6-9d70-757465722e6b,REV*
G04 #@! TF.SameCoordinates,Original*
G04 #@! TF.FileFunction,Copper,L4,Bot*
G04 #@! TF.FilePolarity,Positive*
%FSLAX46Y46*%
G04 Gerber Fmt 4.6, Leading zero omitted, Abs format (unit mm)*
G04 Created by KiCad (PCBNEW (6.0.11-0)) date 2023-05-23 16:25:54*
%MOMM*%
%LPD*%
G01*
G04 APERTURE LIST*
G04 Aperture macros list*
%AMRoundRect*
0 Rectangle with rounded corners*
0 $1 Rounding radius*
0 $2 $3 $4 $5 $6 $7 $8 $9 X,Y pos of 4 corners*
0 Add a 4 corners polygon primitive as box body*
4,1,4,$2,$3,$4,$5,$6,$7,$8,$9,$2,$3,0*
0 Add four circle primitives for the rounded corners*
1,1,$1+$1,$2,$3*
1,1,$1+$1,$4,$5*
1,1,$1+$1,$6,$7*
1,1,$1+$1,$8,$9*
0 Add four rect primitives between the rounded corners*
20,1,$1+$1,$2,$3,$4,$5,0*
20,1,$1+$1,$4,$5,$6,$7,0*
20,1,$1+$1,$6,$7,$8,$9,0*
20,1,$1+$1,$8,$9,$2,$3,0*%
G04 Aperture macros list end*
G04 #@! TA.AperFunction,ComponentPad*
%ADD10R,3.500000X3.500000*%
G04 #@! TD*
G04 #@! TA.AperFunction,ComponentPad*
%ADD11RoundRect,0.750000X-0.750000X-1.000000X0.750000X-1.000000X0.750000X1.000000X-0.750000X1.000000X0*%
G04 #@! TD*
G04 #@! TA.AperFunction,ComponentPad*
%ADD12RoundRect,0.875000X-0.875000X-0.875000X0.875000X-0.875000X0.875000X0.875000X-0.875000X0.875000X0*%
G04 #@! TD*
G04 #@! TA.AperFunction,ComponentPad*
%ADD13R,1.700000X1.700000*%
G04 #@! TD*
G04 #@! TA.AperFunction,ComponentPad*
%ADD14O,1.700000X1.700000*%
G04 #@! TD*
G04 #@! TA.AperFunction,ComponentPad*
%ADD15C,1.574800*%
G04 #@! TD*
G04 #@! TA.AperFunction,ComponentPad*
%ADD16O,1.574800X1.574800*%
G04 #@! TD*
G04 #@! TA.AperFunction,ComponentPad*
%ADD17R,1.600000X1.600000*%
G04 #@! TD*
G04 #@! TA.AperFunction,ComponentPad*
%ADD18O,1.600000X1.600000*%
G04 #@! TD*
G04 #@! TA.AperFunction,ComponentPad*
%ADD19O,1.579880X1.579880*%
G04 #@! TD*
G04 #@! TA.AperFunction,ComponentPad*
%ADD20C,1.600000*%
G04 #@! TD*
G04 #@! TA.AperFunction,ComponentPad*
%ADD21C,3.000000*%
G04 #@! TD*
G04 #@! TA.AperFunction,ComponentPad*
%ADD22R,1.800000X2.600000*%
G04 #@! TD*
G04 #@! TA.AperFunction,ComponentPad*
%ADD23O,1.800000X2.600000*%
G04 #@! TD*
G04 #@! TA.AperFunction,ComponentPad*
%ADD24C,1.440000*%
G04 #@! TD*
G04 #@! TA.AperFunction,ComponentPad*
%ADD25R,1.800000X1.800000*%
G04 #@! TD*
G04 #@! TA.AperFunction,ComponentPad*
%ADD26C,1.800000*%
G04 #@! TD*
G04 #@! TA.AperFunction,ComponentPad*
%ADD27R,1.200000X1.200000*%
G04 #@! TD*
G04 #@! TA.AperFunction,ComponentPad*
%ADD28C,1.200000*%
G04 #@! TD*
G04 #@! TA.AperFunction,ViaPad*
%ADD29C,0.900000*%
G04 #@! TD*
G04 #@! TA.AperFunction,ViaPad*
%ADD30C,0.600000*%
G04 #@! TD*
G04 #@! TA.AperFunction,Conductor*
%ADD31C,0.293624*%
G04 #@! TD*
G04 #@! TA.AperFunction,Conductor*
%ADD32C,0.146812*%
G04 #@! TD*
G04 APERTURE END LIST*
D10*
X79939400Y-104960500D03*
D11*
X73939400Y-104960500D03*
D12*
X76939400Y-109660500D03*
D13*
X179070000Y-96520000D03*
D14*
X179070000Y-99060000D03*
X179070000Y-101600000D03*
D13*
X71120000Y-149606000D03*
D14*
X73660000Y-149606000D03*
X76200000Y-149606000D03*
X78740000Y-149606000D03*
X81280000Y-149606000D03*
X83820000Y-149606000D03*
X86360000Y-149606000D03*
X88900000Y-149606000D03*
X91440000Y-149606000D03*
X93980000Y-149606000D03*
X96520000Y-149606000D03*
X99060000Y-149606000D03*
X101600000Y-149606000D03*
X104140000Y-149606000D03*
X106680000Y-149606000D03*
X109220000Y-149606000D03*
X111760000Y-149606000D03*
X114300000Y-149606000D03*
X116840000Y-149606000D03*
X119380000Y-149606000D03*
X121920000Y-149606000D03*
X124460000Y-149606000D03*
X127000000Y-149606000D03*
X129540000Y-149606000D03*
X132080000Y-149606000D03*
X134620000Y-149606000D03*
X137160000Y-149606000D03*
X139700000Y-149606000D03*
X142240000Y-149606000D03*
X144780000Y-149606000D03*
X147320000Y-149606000D03*
X149860000Y-149606000D03*
X152400000Y-149606000D03*
X154940000Y-149606000D03*
X157480000Y-149606000D03*
X160020000Y-149606000D03*
X162560000Y-149606000D03*
X165100000Y-149606000D03*
X167640000Y-149606000D03*
X170180000Y-149606000D03*
D13*
X165125000Y-96530000D03*
D14*
X165125000Y-99070000D03*
X165125000Y-101610000D03*
X165125000Y-104150000D03*
D13*
X175260000Y-149606000D03*
D14*
X177800000Y-149606000D03*
X180340000Y-149606000D03*
X182880000Y-149606000D03*
X185420000Y-149606000D03*
X187960000Y-149606000D03*
D13*
X78586000Y-93880000D03*
D14*
X81126000Y-93880000D03*
D13*
X96450892Y-114602392D03*
D14*
X98990892Y-114602392D03*
D15*
X101530892Y-114602392D03*
X104070892Y-114602392D03*
D14*
X106610892Y-114602392D03*
D16*
X109150892Y-114602392D03*
X111690892Y-114602392D03*
X114230892Y-114602392D03*
X116770892Y-114602392D03*
X119310892Y-114602392D03*
D14*
X121850892Y-114602392D03*
X124390892Y-114602392D03*
X126930892Y-114602392D03*
D13*
X71120000Y-93980000D03*
D14*
X68580000Y-93980000D03*
X71120000Y-91440000D03*
X68580000Y-91440000D03*
X71120000Y-88900000D03*
X68580000Y-88900000D03*
X71120000Y-86360000D03*
X68580000Y-86360000D03*
X71120000Y-83820000D03*
X68580000Y-83820000D03*
X71120000Y-81280000D03*
X68580000Y-81280000D03*
X71120000Y-78740000D03*
X68580000Y-78740000D03*
X71120000Y-76200000D03*
X68580000Y-76200000D03*
X71120000Y-73660000D03*
X68580000Y-73660000D03*
X71120000Y-71120000D03*
X68580000Y-71120000D03*
X71120000Y-68580000D03*
X68580000Y-68580000D03*
X71120000Y-66040000D03*
X68580000Y-66040000D03*
X71120000Y-63500000D03*
X68580000Y-63500000D03*
X71120000Y-60960000D03*
X68580000Y-60960000D03*
X71120000Y-58420000D03*
X68580000Y-58420000D03*
X71120000Y-55880000D03*
X68580000Y-55880000D03*
X71120000Y-53340000D03*
X68580000Y-53340000D03*
X71120000Y-50800000D03*
X68580000Y-50800000D03*
D13*
X192303000Y-96540000D03*
D14*
X192303000Y-99080000D03*
D13*
X93956000Y-84709000D03*
D14*
X96496000Y-84709000D03*
X99036000Y-84709000D03*
X101576000Y-84709000D03*
X104116000Y-84709000D03*
X106656000Y-84709000D03*
X109196000Y-84709000D03*
X111736000Y-84709000D03*
X114276000Y-84709000D03*
X116816000Y-84709000D03*
X119356000Y-84709000D03*
X121896000Y-84709000D03*
X124436000Y-84709000D03*
X126976000Y-84709000D03*
X129516000Y-84709000D03*
X132056000Y-84709000D03*
X134596000Y-84709000D03*
X137136000Y-84709000D03*
X139676000Y-84709000D03*
X142216000Y-84709000D03*
X144756000Y-84709000D03*
X147296000Y-84709000D03*
X149836000Y-84709000D03*
X152376000Y-84709000D03*
X154916000Y-84709000D03*
X157456000Y-84709000D03*
X159996000Y-84709000D03*
X162536000Y-84709000D03*
X165076000Y-84709000D03*
X167616000Y-84709000D03*
X170156000Y-84709000D03*
X172696000Y-84709000D03*
X175236000Y-84709000D03*
X177776000Y-84709000D03*
X180316000Y-84709000D03*
X182856000Y-84709000D03*
X185396000Y-84709000D03*
X187936000Y-84709000D03*
X190476000Y-84709000D03*
X193016000Y-84709000D03*
X195556000Y-84709000D03*
X198096000Y-84709000D03*
X200636000Y-84709000D03*
X203176000Y-84709000D03*
X205716000Y-84709000D03*
X208256000Y-84709000D03*
X210796000Y-84709000D03*
X213336000Y-84709000D03*
X215876000Y-84709000D03*
X218416000Y-84709000D03*
D17*
X97790000Y-109220000D03*
D18*
X100330000Y-109220000D03*
X102870000Y-109220000D03*
X105410000Y-109220000D03*
X107950000Y-109220000D03*
D19*
X110490000Y-109220000D03*
X113030000Y-109220000D03*
X115570000Y-109220000D03*
D18*
X118110000Y-109220000D03*
X120650000Y-109220000D03*
X123190000Y-109220000D03*
X125730000Y-109220000D03*
X128270000Y-109220000D03*
X130810000Y-109220000D03*
X133350000Y-109220000D03*
X135890000Y-109220000D03*
X138430000Y-109220000D03*
X140970000Y-109220000D03*
X143510000Y-109220000D03*
X146050000Y-109220000D03*
X146050000Y-93980000D03*
X143510000Y-93980000D03*
X140970000Y-93980000D03*
D19*
X138430000Y-93980000D03*
X135890000Y-93980000D03*
X133350000Y-93980000D03*
D18*
X130810000Y-93980000D03*
X128270000Y-93980000D03*
X125730000Y-93980000D03*
X123190000Y-93980000D03*
X120650000Y-93980000D03*
X118110000Y-93980000D03*
X115570000Y-93980000D03*
X113030000Y-93980000D03*
X110490000Y-93980000D03*
X107950000Y-93980000D03*
X105410000Y-93980000D03*
X102870000Y-93980000D03*
X100330000Y-93980000D03*
X97790000Y-93980000D03*
D20*
X149860000Y-109180000D03*
X149860000Y-104180000D03*
D13*
X193040000Y-149606000D03*
D14*
X195580000Y-149606000D03*
X198120000Y-149606000D03*
X200660000Y-149606000D03*
X203200000Y-149606000D03*
X205740000Y-149606000D03*
X208280000Y-149606000D03*
X210820000Y-149606000D03*
X213360000Y-149606000D03*
X215900000Y-149606000D03*
X218440000Y-149606000D03*
X220980000Y-149606000D03*
X223520000Y-149606000D03*
X226060000Y-149606000D03*
X228600000Y-149606000D03*
X231140000Y-149606000D03*
D21*
X230793480Y-143522700D03*
X230794000Y-112522000D03*
X155794900Y-112522000D03*
X155794900Y-143522700D03*
D22*
X161294000Y-112522000D03*
D23*
X163834000Y-112522000D03*
X166374000Y-112522000D03*
X168914000Y-112522000D03*
X171454000Y-112522000D03*
X173994000Y-112522000D03*
X176534000Y-112522000D03*
X179074000Y-112522000D03*
X181614000Y-112522000D03*
X184154000Y-112522000D03*
X186694000Y-112522000D03*
X189234000Y-112522000D03*
X191774000Y-112522000D03*
X194314000Y-112522000D03*
X196854000Y-112522000D03*
X199394000Y-112522000D03*
D24*
X228600000Y-104902000D03*
X226060000Y-102362000D03*
X223520000Y-104902000D03*
D25*
X90158000Y-98298000D03*
D26*
X90158000Y-95758000D03*
D20*
X90170000Y-100965000D03*
D18*
X90170000Y-108585000D03*
D27*
X83820000Y-100330000D03*
D28*
X85320000Y-100330000D03*
D29*
X186540688Y-138965760D03*
X83820000Y-106934000D03*
X176737207Y-109172145D03*
D30*
X68834000Y-151384000D03*
X174752000Y-89916000D03*
X158496000Y-76454000D03*
X178308000Y-81280000D03*
D29*
X85090000Y-106934000D03*
D30*
X195834000Y-106172000D03*
X175183800Y-107373894D03*
X80518000Y-76454000D03*
X147066000Y-134874000D03*
X137922000Y-55626000D03*
X179578000Y-57912000D03*
X96266000Y-105918000D03*
X224282000Y-137668000D03*
X133781800Y-125882400D03*
X129641600Y-133807200D03*
X78486000Y-59436000D03*
X207772000Y-142748000D03*
X140970000Y-105156000D03*
X83058000Y-84328000D03*
X190068200Y-123621800D03*
X100330000Y-91186000D03*
X137566400Y-145084800D03*
X125526800Y-97917000D03*
X181356000Y-138176000D03*
X228092000Y-141986000D03*
X151130000Y-56134000D03*
D29*
X91440000Y-96774000D03*
D30*
X206248000Y-118110000D03*
X73152000Y-91186000D03*
X73152000Y-88138000D03*
X183591200Y-114300000D03*
X196088000Y-64262000D03*
X172974000Y-51443094D03*
X184404000Y-106426000D03*
X186944000Y-68072000D03*
X130352800Y-98044000D03*
X196596000Y-98298000D03*
X197866000Y-93726000D03*
X85090000Y-51443094D03*
X118160800Y-135204200D03*
X227584000Y-82042000D03*
X138684000Y-127508000D03*
X205232000Y-112522000D03*
X82550000Y-121412000D03*
X142240000Y-99568000D03*
X82042000Y-76454000D03*
X73914000Y-70905581D03*
X101066600Y-126796800D03*
X186944000Y-89916000D03*
X202946000Y-137160000D03*
X139446000Y-51443094D03*
X117576600Y-97739200D03*
X77724000Y-138684000D03*
X113030000Y-84023200D03*
X135178800Y-140360400D03*
X135763000Y-139141200D03*
X118160800Y-83972400D03*
X122682000Y-155254000D03*
X184658000Y-92710000D03*
X107972514Y-103865906D03*
X80518000Y-70905581D03*
X164846000Y-81788000D03*
X79349600Y-56972200D03*
X108458000Y-55626000D03*
X105460800Y-85445600D03*
X175869600Y-114223800D03*
X136339106Y-127085912D03*
X152400000Y-67564000D03*
X113868200Y-137109200D03*
X189992000Y-71628000D03*
X131064000Y-62230000D03*
X224282000Y-87376000D03*
X166370000Y-67818000D03*
X144228730Y-131515351D03*
X231902000Y-103632000D03*
X190982600Y-114147600D03*
X175260000Y-132588000D03*
X106934000Y-62484000D03*
X156210000Y-99060000D03*
X198043800Y-126365000D03*
X143002000Y-137414000D03*
X84328000Y-131826000D03*
X67310000Y-97790000D03*
X170942000Y-62484000D03*
X196596000Y-125933200D03*
X115544600Y-84099400D03*
X72996280Y-82835141D03*
X83312000Y-142748000D03*
X214122000Y-79502000D03*
X207391000Y-85826600D03*
X72390000Y-125984000D03*
X205486000Y-107696000D03*
X96012000Y-155254000D03*
X107188000Y-124714000D03*
X134086600Y-142748000D03*
X130835400Y-83997800D03*
X163068000Y-62230000D03*
X122174000Y-126492000D03*
X86868000Y-106934000D03*
X119202200Y-99822000D03*
X125730000Y-92608400D03*
X84074000Y-70905581D03*
X123952000Y-62484000D03*
X123444000Y-137922000D03*
X187706000Y-103632000D03*
X213106000Y-76200000D03*
X102870000Y-98806000D03*
X120650000Y-83997800D03*
X133324600Y-84074000D03*
X81534000Y-110236000D03*
X75438000Y-51443094D03*
X104394000Y-72390000D03*
X171932600Y-106045000D03*
X128270000Y-84048600D03*
D29*
X177444400Y-110083600D03*
D30*
X189992000Y-58420000D03*
X193446400Y-124917200D03*
X95504000Y-130556000D03*
X139700000Y-135382000D03*
X134543800Y-141452600D03*
X150622000Y-62230000D03*
X139649200Y-132181600D03*
D29*
X196900800Y-114528600D03*
D30*
X135559800Y-104749600D03*
X191770000Y-88900000D03*
X155448000Y-133858000D03*
X191922400Y-124333000D03*
X126720600Y-111455200D03*
X127254000Y-138176000D03*
X133451600Y-92633800D03*
X137871200Y-132842000D03*
X88138000Y-102626888D03*
X108051600Y-83896200D03*
X178104800Y-89611200D03*
X172212000Y-55118000D03*
X149352000Y-131572000D03*
X115671600Y-136652000D03*
X143484600Y-84099400D03*
X69596000Y-107188000D03*
X104140000Y-121920000D03*
X158242000Y-154238000D03*
X204470000Y-88392000D03*
X168757600Y-93726000D03*
X146304000Y-123952000D03*
X121031000Y-133959600D03*
X170180000Y-100330000D03*
X89662000Y-127508000D03*
X173405800Y-106857800D03*
X75946000Y-75692000D03*
X166624000Y-117094000D03*
X114300000Y-62484000D03*
X220980000Y-116586000D03*
X131318000Y-72390000D03*
X219202000Y-122428000D03*
X141046200Y-83921600D03*
X176326800Y-66700400D03*
X101447600Y-86156800D03*
X123444000Y-55118000D03*
D29*
X147320000Y-108204000D03*
D30*
X126238000Y-134366000D03*
X154178000Y-71374000D03*
X168605200Y-88519000D03*
X128193800Y-105791000D03*
X84582000Y-137668000D03*
X93726000Y-88392000D03*
X181356000Y-68072000D03*
X154432000Y-117094000D03*
X142748000Y-155254000D03*
X90678000Y-85344000D03*
X138404600Y-84048600D03*
X106172000Y-155254000D03*
X125755400Y-83997800D03*
X118541800Y-143941800D03*
X81280000Y-51443094D03*
X219202000Y-131318000D03*
X175006000Y-123952000D03*
X79248000Y-116840000D03*
X85090000Y-59436000D03*
X193598800Y-114198400D03*
X199923400Y-85928200D03*
X74930000Y-96012000D03*
X162560000Y-55626000D03*
X85852000Y-155508000D03*
X96266000Y-62230000D03*
X134975600Y-143611600D03*
X88138000Y-54356000D03*
X188595000Y-114249200D03*
X130937000Y-92583000D03*
X73660000Y-48260000D03*
X135890000Y-84048600D03*
X203962000Y-69088000D03*
X98247200Y-85877400D03*
X219710000Y-93980000D03*
X96774000Y-120142000D03*
X193548000Y-129286000D03*
X180797200Y-114173000D03*
X119380000Y-72644000D03*
X100584000Y-105918000D03*
X196342000Y-76200000D03*
X201168000Y-81280000D03*
X170180000Y-81026000D03*
X174802800Y-102514400D03*
X117068600Y-142290800D03*
X179070000Y-62230000D03*
X187198000Y-80518000D03*
X78486000Y-76200000D03*
X77470000Y-101600000D03*
X155194000Y-105410000D03*
X170281600Y-107373894D03*
X119583200Y-134467600D03*
X148590000Y-98806000D03*
X119380000Y-93497400D03*
X178587400Y-114300000D03*
X113284000Y-155508000D03*
X140081000Y-129336800D03*
X186410600Y-122428000D03*
X74422000Y-132842000D03*
X75438000Y-155254000D03*
X141173200Y-131495800D03*
X152400000Y-98806000D03*
X88392000Y-114808000D03*
X84047302Y-64130144D03*
X173736000Y-142494000D03*
X73660000Y-85090000D03*
X116840000Y-93497400D03*
X128397000Y-92608400D03*
X219964000Y-107442000D03*
X88984911Y-72792136D03*
X114985800Y-139573000D03*
X98044000Y-54864000D03*
X225044000Y-97536000D03*
X123266200Y-83921600D03*
X88341200Y-66514506D03*
X76962000Y-104902000D03*
X162052000Y-154746000D03*
X188976000Y-76708000D03*
X188163200Y-123037600D03*
X132080000Y-155000000D03*
X136931400Y-138328400D03*
X196850000Y-119126000D03*
X142595600Y-131572000D03*
X127228600Y-112699800D03*
X173736000Y-67056000D03*
X118386979Y-98701979D03*
X85852000Y-89154000D03*
X165100000Y-89408000D03*
X170942000Y-94742000D03*
X144780000Y-106426000D03*
X173990000Y-138684000D03*
X226822000Y-93472000D03*
X110540800Y-83921600D03*
D29*
X185521600Y-138404600D03*
D30*
X173482000Y-72644000D03*
X214376000Y-128016000D03*
X105638600Y-105029000D03*
X119380000Y-51443094D03*
X166878000Y-154238000D03*
X97028000Y-98552000D03*
X123367800Y-92633800D03*
X93218000Y-72644000D03*
X116865400Y-135788400D03*
X135966200Y-144500600D03*
X174980600Y-103911400D03*
X160528000Y-51443094D03*
X117856000Y-138684000D03*
X167640000Y-76200000D03*
X141478000Y-143256000D03*
X167132000Y-89077800D03*
X194868800Y-125476000D03*
X89916000Y-133350000D03*
X108458000Y-119126000D03*
X172974000Y-153984000D03*
X160274000Y-105156000D03*
X143256000Y-61976000D03*
X79314545Y-61500599D03*
X149098000Y-155000000D03*
X109220000Y-51443094D03*
X177522349Y-64178824D03*
X126746000Y-125730000D03*
X91363800Y-65125600D03*
X185851800Y-114198400D03*
X127558800Y-98094800D03*
X209042000Y-137668000D03*
X181483000Y-87884000D03*
X179324000Y-135636000D03*
X78740000Y-99314000D03*
X179578000Y-88874600D03*
X204978000Y-94742000D03*
X76200000Y-90170000D03*
X86868000Y-85598000D03*
X123698000Y-144272000D03*
X169697400Y-108305600D03*
X127571122Y-111383933D03*
X127916168Y-112194116D03*
X127972684Y-113273820D03*
X186384748Y-121574889D03*
X188336640Y-122201905D03*
X190516075Y-122895250D03*
X192261759Y-123549864D03*
X193870358Y-124176439D03*
X195372160Y-124786728D03*
X197212488Y-125342939D03*
X198831200Y-125958600D03*
X143670907Y-130399059D03*
X102006400Y-127228600D03*
X140934111Y-129362652D03*
X138865528Y-126597825D03*
X136245600Y-125882400D03*
X133756400Y-125018800D03*
X92456000Y-94691200D03*
X73660000Y-90424000D03*
X117703600Y-144119600D03*
X116205000Y-142443200D03*
X73421901Y-87328296D03*
X114140302Y-139456380D03*
X137566400Y-145938303D03*
X135244630Y-144956455D03*
X134137400Y-143840200D03*
X79832200Y-62179200D03*
X133172200Y-142595600D03*
X80274197Y-61404127D03*
X84582000Y-64795400D03*
X133680200Y-141173200D03*
X134562582Y-139769857D03*
X85304171Y-64329059D03*
X88874600Y-67191094D03*
X135254972Y-138455362D03*
X136372600Y-137566400D03*
X89186127Y-66393820D03*
X113072251Y-137417309D03*
X73428159Y-84104578D03*
X113258600Y-136499600D03*
X115748872Y-135802003D03*
X73160712Y-81997627D03*
X116916200Y-134924800D03*
X75184000Y-76200000D03*
X142203944Y-130813665D03*
X141353873Y-130661640D03*
X76073000Y-76581000D03*
X78950853Y-74517885D03*
X139650484Y-131328098D03*
X137768497Y-131994700D03*
X78486000Y-75184000D03*
X134846497Y-104280916D03*
X80651321Y-75250988D03*
X128689411Y-106485865D03*
X129667000Y-132765800D03*
X120618692Y-133212293D03*
X119998620Y-99515110D03*
X129723778Y-97467114D03*
X79756000Y-75946000D03*
X119176800Y-133705600D03*
X83245012Y-76239445D03*
X119240014Y-98730211D03*
X126942980Y-97503841D03*
X173181400Y-106034325D03*
X78496098Y-56947252D03*
X176690924Y-64371694D03*
X177164135Y-66535062D03*
X118430102Y-97738720D03*
X82662051Y-77040518D03*
X124886064Y-97353152D03*
X118084600Y-134340600D03*
X89179400Y-102626888D03*
X89552458Y-72154676D03*
X88138000Y-72898000D03*
X88283113Y-101785812D03*
X91592400Y-65963800D03*
X92227400Y-65260694D03*
X107543600Y-105181400D03*
X104556548Y-104765747D03*
X169291000Y-89052400D03*
X167767000Y-89687400D03*
X165709600Y-90017600D03*
X180967329Y-88564109D03*
X180321825Y-89293159D03*
X178943000Y-89865200D03*
X175393343Y-103130618D03*
X175743996Y-104293098D03*
X171574382Y-105270309D03*
X174378389Y-107091441D03*
X168351200Y-92938600D03*
D31*
X146050000Y-101600000D02*
X138430000Y-93980000D01*
X71120000Y-149606000D02*
X69031592Y-147517592D01*
X199847200Y-125984000D02*
X186865440Y-138965760D01*
X192283000Y-96520000D02*
X192303000Y-96540000D01*
X146050000Y-109220000D02*
X146050000Y-101600000D01*
X69031592Y-132898408D02*
X83820000Y-118110000D01*
X179070000Y-96520000D02*
X176737207Y-98852793D01*
X90158000Y-88507000D02*
X93956000Y-84709000D01*
X196854000Y-112522000D02*
X199847200Y-115515200D01*
X199847200Y-115515200D02*
X199847200Y-125984000D01*
X69031592Y-147517592D02*
X69031592Y-132898408D01*
X186865440Y-138965760D02*
X186540688Y-138965760D01*
X90158000Y-95758000D02*
X90158000Y-88507000D01*
X176737207Y-98852793D02*
X176737207Y-109172145D01*
X83820000Y-118110000D02*
X83820000Y-106934000D01*
X179070000Y-96520000D02*
X192283000Y-96520000D01*
D32*
X169697400Y-108305600D02*
X166374000Y-111629000D01*
X166374000Y-111629000D02*
X166374000Y-112522000D01*
X127571122Y-111061122D02*
X127571122Y-111383933D01*
X125730000Y-109220000D02*
X127571122Y-111061122D01*
X126052106Y-112082106D02*
X126980273Y-112082106D01*
X126980273Y-112082106D02*
X127051540Y-112010839D01*
X127732891Y-112010839D02*
X127916168Y-112194116D01*
X123190000Y-109220000D02*
X126052106Y-112082106D01*
X127051540Y-112010839D02*
X127732891Y-112010839D01*
X124832906Y-113402906D02*
X127843598Y-113402906D01*
X127843598Y-113402906D02*
X127972684Y-113273820D01*
X120650000Y-109220000D02*
X124832906Y-113402906D01*
X176534000Y-112522000D02*
X176534000Y-113313400D01*
X184795489Y-121574889D02*
X186384748Y-121574889D01*
X176534000Y-113313400D02*
X184795489Y-121574889D01*
X179074000Y-112522000D02*
X179074000Y-113412579D01*
X179074000Y-113412579D02*
X187863326Y-122201905D01*
X187863326Y-122201905D02*
X188336640Y-122201905D01*
X181614000Y-112522000D02*
X181614000Y-114253200D01*
X190256050Y-122895250D02*
X190516075Y-122895250D01*
X181614000Y-114253200D02*
X190256050Y-122895250D01*
X184218106Y-112586106D02*
X184218106Y-115506211D01*
X184154000Y-112522000D02*
X184218106Y-112586106D01*
X184218106Y-115506211D02*
X192261759Y-123549864D01*
X186694000Y-116818600D02*
X193870358Y-123994958D01*
X186694000Y-112522000D02*
X186694000Y-116818600D01*
X193870358Y-123994958D02*
X193870358Y-124176439D01*
X195372160Y-124175960D02*
X195372160Y-124786728D01*
X189234000Y-118037800D02*
X195372160Y-124175960D01*
X189234000Y-112522000D02*
X189234000Y-118037800D01*
X197212488Y-124924088D02*
X197212488Y-125342939D01*
X191774000Y-112522000D02*
X191774000Y-119485600D01*
X191774000Y-119485600D02*
X197212488Y-124924088D01*
X198831200Y-125247400D02*
X198831200Y-125958600D01*
X194314000Y-120730200D02*
X198831200Y-125247400D01*
X194314000Y-112522000D02*
X194314000Y-120730200D01*
X143510000Y-109220000D02*
X143510000Y-130238152D01*
X143510000Y-130238152D02*
X143670907Y-130399059D01*
X102006400Y-127228600D02*
X102006400Y-116357400D01*
X102596687Y-115767113D02*
X102596687Y-113874287D01*
X102596687Y-113874287D02*
X101676200Y-112953800D01*
X102006400Y-116357400D02*
X102596687Y-115767113D01*
X101676200Y-95326200D02*
X100330000Y-93980000D01*
X101676200Y-112953800D02*
X101676200Y-95326200D01*
X140970000Y-129326763D02*
X140934111Y-129362652D01*
X140970000Y-109220000D02*
X140970000Y-129326763D01*
X138430000Y-109220000D02*
X138430000Y-126162297D01*
X138430000Y-126162297D02*
X138865528Y-126597825D01*
X136245600Y-125882400D02*
X136245600Y-109575600D01*
X136245600Y-109575600D02*
X135890000Y-109220000D01*
X133756400Y-125018800D02*
X133756400Y-109626400D01*
X133756400Y-109626400D02*
X133350000Y-109220000D01*
X99036000Y-84709000D02*
X99036000Y-71127557D01*
X99036000Y-71127557D02*
X82518443Y-54610000D01*
X69850000Y-54610000D02*
X68580000Y-55880000D01*
X76200000Y-149606000D02*
X76200000Y-129387600D01*
X92456000Y-113131600D02*
X92456000Y-94691200D01*
X76200000Y-129387600D02*
X92456000Y-113131600D01*
X82518443Y-54610000D02*
X69850000Y-54610000D01*
X83566000Y-53340000D02*
X71120000Y-53340000D01*
X93294200Y-92990800D02*
X101576000Y-84709000D01*
X101576000Y-84709000D02*
X101576000Y-71350000D01*
X78740000Y-129794000D02*
X93294200Y-115239800D01*
X78740000Y-149606000D02*
X78740000Y-129794000D01*
X93294200Y-115239800D02*
X93294200Y-92990800D01*
X101576000Y-71350000D02*
X83566000Y-53340000D01*
X103946606Y-109718194D02*
X103946606Y-95056606D01*
X68580000Y-91440000D02*
X69706606Y-90313394D01*
X121920000Y-148513800D02*
X119938800Y-146532600D01*
X117576600Y-146532600D02*
X102946200Y-131902200D01*
X121920000Y-149606000D02*
X121920000Y-148513800D01*
X69706606Y-90313394D02*
X73549394Y-90313394D01*
X73549394Y-90313394D02*
X73660000Y-90424000D01*
X102870000Y-88922979D02*
X106656000Y-85136979D01*
X102946200Y-131902200D02*
X102946200Y-110718600D01*
X119938800Y-146532600D02*
X117576600Y-146532600D01*
X102946200Y-110718600D02*
X103946606Y-109718194D01*
X103946606Y-95056606D02*
X102870000Y-93980000D01*
X102870000Y-93980000D02*
X102870000Y-88922979D01*
X106656000Y-85136979D02*
X106656000Y-84709000D01*
X106502200Y-95072200D02*
X106502200Y-109651800D01*
X105410000Y-93980000D02*
X106502200Y-95072200D01*
X105308400Y-132842000D02*
X116586000Y-144119600D01*
X105410000Y-93980000D02*
X105410000Y-88495000D01*
X105410000Y-88495000D02*
X109196000Y-84709000D01*
X105308400Y-110845600D02*
X105308400Y-132842000D01*
X116586000Y-144119600D02*
X117703600Y-144119600D01*
X106502200Y-109651800D02*
X105308400Y-110845600D01*
X109026606Y-112963606D02*
X110214898Y-114151898D01*
X110214898Y-115043118D02*
X109524800Y-115733216D01*
X109524800Y-135763000D02*
X116205000Y-142443200D01*
X108712000Y-108459449D02*
X109026606Y-108774055D01*
X107950000Y-88495000D02*
X111736000Y-84709000D01*
X110214898Y-114151898D02*
X110214898Y-115043118D01*
X69968906Y-87511094D02*
X73239103Y-87511094D01*
X73239103Y-87511094D02*
X73421901Y-87328296D01*
X109026606Y-108774055D02*
X109026606Y-112963606D01*
X108712000Y-94742000D02*
X108712000Y-108459449D01*
X68580000Y-88900000D02*
X69968906Y-87511094D01*
X107950000Y-93980000D02*
X108712000Y-94742000D01*
X107950000Y-93980000D02*
X107950000Y-88495000D01*
X109524800Y-115733216D02*
X109524800Y-135763000D01*
X110626886Y-111058686D02*
X110626886Y-135942964D01*
X109423454Y-109855254D02*
X110626886Y-111058686D01*
X110490000Y-88495000D02*
X114276000Y-84709000D01*
X110490000Y-93980000D02*
X110490000Y-88495000D01*
X110490000Y-93980000D02*
X109423454Y-95046546D01*
X109423454Y-95046546D02*
X109423454Y-109855254D01*
X110626886Y-135942964D02*
X114140302Y-139456380D01*
X133543103Y-145938303D02*
X137566400Y-145938303D01*
X115570000Y-93980000D02*
X126843881Y-105253881D01*
X126843881Y-109810718D02*
X128961887Y-111928724D01*
X128961887Y-141357087D02*
X133543103Y-145938303D01*
X128961887Y-111928724D02*
X128961887Y-141357087D01*
X126843881Y-105253881D02*
X126843881Y-109810718D01*
X118110000Y-93980000D02*
X129368287Y-105238287D01*
X130346713Y-112199427D02*
X130346713Y-141573513D01*
X129368287Y-105238287D02*
X129368287Y-111221001D01*
X133729655Y-144956455D02*
X135244630Y-144956455D01*
X129368287Y-111221001D02*
X130346713Y-112199427D01*
X130346713Y-141573513D02*
X133729655Y-144956455D01*
X130556000Y-107951449D02*
X129733394Y-108774055D01*
X79832200Y-62179200D02*
X72339200Y-62179200D01*
X131089400Y-141478000D02*
X133451600Y-143840200D01*
X72339200Y-62179200D02*
X71120000Y-60960000D01*
X133451600Y-143840200D02*
X134137400Y-143840200D01*
X129733394Y-109921394D02*
X131089400Y-111277400D01*
X120650000Y-93980000D02*
X130556000Y-103886000D01*
X131089400Y-111277400D02*
X131089400Y-141478000D01*
X129733394Y-108774055D02*
X129733394Y-109921394D01*
X130556000Y-103886000D02*
X130556000Y-107951449D01*
X69706606Y-59833394D02*
X68580000Y-60960000D01*
X133172200Y-142595600D02*
X131908287Y-141331687D01*
X72611662Y-60858400D02*
X71586656Y-59833394D01*
X71586656Y-59833394D02*
X69706606Y-59833394D01*
X79728470Y-60858400D02*
X72611662Y-60858400D01*
X123190000Y-94663379D02*
X123190000Y-93980000D01*
X131908287Y-141331687D02*
X131908287Y-103381666D01*
X79728470Y-60858400D02*
X80274197Y-61404127D01*
X131908287Y-103381666D02*
X123190000Y-94663379D01*
X132689600Y-102234984D02*
X132689600Y-108357849D01*
X72415400Y-64795400D02*
X71120000Y-63500000D01*
X132273394Y-108774055D02*
X132273394Y-109665945D01*
X84582000Y-64795400D02*
X72415400Y-64795400D01*
X125730000Y-93980000D02*
X125730000Y-95275384D01*
X133019800Y-110412351D02*
X133019800Y-140512800D01*
X132273394Y-109665945D02*
X133019800Y-110412351D01*
X125730000Y-95275384D02*
X132689600Y-102234984D01*
X132689600Y-108357849D02*
X132273394Y-108774055D01*
X133019800Y-140512800D02*
X133680200Y-141173200D01*
X71586656Y-62373394D02*
X69706606Y-62373394D01*
X84475112Y-63500000D02*
X72713262Y-63500000D01*
X133375400Y-101955600D02*
X133375400Y-106019600D01*
X72713262Y-63500000D02*
X71586656Y-62373394D01*
X69706606Y-62373394D02*
X68580000Y-63500000D01*
X128270000Y-93980000D02*
X128270000Y-96850200D01*
X84475112Y-63500000D02*
X85304171Y-64329059D01*
X134463881Y-139671156D02*
X134562582Y-139769857D01*
X128270000Y-96850200D02*
X133375400Y-101955600D01*
X134463881Y-107108081D02*
X134463881Y-139671156D01*
X133375400Y-106019600D02*
X134463881Y-107108081D01*
X135407400Y-110259951D02*
X135407400Y-138302934D01*
X72271094Y-67191094D02*
X71120000Y-66040000D01*
X135407400Y-138302934D02*
X135254972Y-138455362D01*
X135407400Y-106045000D02*
X135407400Y-108180049D01*
X130810000Y-97104200D02*
X134112000Y-100406200D01*
X134813394Y-108774055D02*
X134813394Y-109665945D01*
X88874600Y-67191094D02*
X72271094Y-67191094D01*
X134112000Y-104749600D02*
X135407400Y-106045000D01*
X134813394Y-109665945D02*
X135407400Y-110259951D01*
X130810000Y-93980000D02*
X130810000Y-97104200D01*
X134112000Y-100406200D02*
X134112000Y-104749600D01*
X135407400Y-108180049D02*
X134813394Y-108774055D01*
X136970000Y-136969000D02*
X136372600Y-137566400D01*
X136970000Y-102934000D02*
X136970000Y-136969000D01*
X88679907Y-65887600D02*
X89186127Y-66393820D01*
X69706606Y-64913394D02*
X68580000Y-66040000D01*
X133350000Y-93980000D02*
X133350000Y-96570800D01*
X88679907Y-65887600D02*
X72560862Y-65887600D01*
X71586656Y-64913394D02*
X69706606Y-64913394D01*
X133350000Y-96570800D02*
X135737600Y-98958400D01*
X135737600Y-98958400D02*
X135737600Y-101701600D01*
X135737600Y-101701600D02*
X136970000Y-102934000D01*
X72560862Y-65887600D02*
X71586656Y-64913394D01*
X111836200Y-115961816D02*
X111836200Y-136181258D01*
X69706606Y-85233394D02*
X72299343Y-85233394D01*
X116816000Y-84709000D02*
X111566606Y-89958394D01*
X68580000Y-86360000D02*
X69706606Y-85233394D01*
X111566606Y-89958394D02*
X111566606Y-112963606D01*
X111566606Y-112963606D02*
X112754898Y-114151898D01*
X72299343Y-85233394D02*
X73428159Y-84104578D01*
X112754898Y-114151898D02*
X112754898Y-115043118D01*
X111836200Y-136181258D02*
X113072251Y-137417309D01*
X112754898Y-115043118D02*
X111836200Y-115961816D01*
X111937800Y-109651800D02*
X113104411Y-110818411D01*
X111937800Y-92127200D02*
X111937800Y-109651800D01*
X113104411Y-110818411D02*
X113104411Y-136345411D01*
X113104411Y-136345411D02*
X113258600Y-136499600D01*
X119356000Y-84709000D02*
X111937800Y-92127200D01*
X115316000Y-114071400D02*
X115316000Y-135369131D01*
X115316000Y-135369131D02*
X115748872Y-135802003D01*
X121896000Y-84709000D02*
X114122200Y-92482800D01*
X114122200Y-112877600D02*
X115316000Y-114071400D01*
X68580000Y-83820000D02*
X69977000Y-82423000D01*
X69977000Y-82423000D02*
X72138421Y-82423000D01*
X72563794Y-81997627D02*
X73160712Y-81997627D01*
X72138421Y-82423000D02*
X72563794Y-81997627D01*
X114122200Y-92482800D02*
X114122200Y-112877600D01*
X115620800Y-95834200D02*
X114477800Y-94691200D01*
X114471713Y-108591087D02*
X115620800Y-107442000D01*
X116916200Y-134924800D02*
X116916200Y-116586000D01*
X114477800Y-93549649D02*
X115190449Y-92837000D01*
X114477800Y-94691200D02*
X114477800Y-93549649D01*
X115620800Y-107442000D02*
X115620800Y-95834200D01*
X115665513Y-110915713D02*
X114471713Y-109721913D01*
X116308000Y-92837000D02*
X124436000Y-84709000D01*
X115665513Y-115335313D02*
X115665513Y-110915713D01*
X114471713Y-109721913D02*
X114471713Y-108591087D01*
X116916200Y-116586000D02*
X115665513Y-115335313D01*
X115190449Y-92837000D02*
X116308000Y-92837000D01*
X68580000Y-81280000D02*
X69706606Y-80153394D01*
X142875000Y-108332449D02*
X142433394Y-108774055D01*
X142875000Y-110107551D02*
X142875000Y-130142609D01*
X137312654Y-94662654D02*
X137660000Y-95010000D01*
X137660000Y-95010000D02*
X137660000Y-96105600D01*
X142875000Y-101320600D02*
X142875000Y-108332449D01*
X69706606Y-80153394D02*
X71299868Y-80153394D01*
X137660000Y-96105600D02*
X142875000Y-101320600D01*
X142433394Y-108774055D02*
X142433394Y-109665945D01*
X142875000Y-130142609D02*
X142203944Y-130813665D01*
X144756000Y-84709000D02*
X137312654Y-92152346D01*
X137312654Y-92152346D02*
X137312654Y-94662654D01*
X75184000Y-76269262D02*
X75184000Y-76200000D01*
X71299868Y-80153394D02*
X75184000Y-76269262D01*
X142433394Y-109665945D02*
X142875000Y-110107551D01*
X142216000Y-84709000D02*
X136959856Y-89965144D01*
X75819000Y-76581000D02*
X76073000Y-76581000D01*
X71120000Y-81280000D02*
X75819000Y-76581000D01*
X136959856Y-89965144D02*
X136959856Y-96599256D01*
X136959856Y-96599256D02*
X142046606Y-101686006D01*
X142046606Y-129968907D02*
X141353873Y-130661640D01*
X142046606Y-101686006D02*
X142046606Y-129968907D01*
X139538388Y-128238927D02*
X139385988Y-128391327D01*
X68580000Y-78740000D02*
X69706606Y-77613394D01*
X137566400Y-98323400D02*
X137566400Y-99517200D01*
X139538388Y-101489188D02*
X139538388Y-128238927D01*
X134820000Y-89565000D02*
X134820000Y-95577000D01*
X134820000Y-95577000D02*
X137566400Y-98323400D01*
X74491262Y-74422000D02*
X78854968Y-74422000D01*
X78854968Y-74422000D02*
X78950853Y-74517885D01*
X137566400Y-99517200D02*
X139538388Y-101489188D01*
X139385988Y-131063602D02*
X139650484Y-131328098D01*
X71299868Y-77613394D02*
X74491262Y-74422000D01*
X139676000Y-84709000D02*
X134820000Y-89565000D01*
X69706606Y-77613394D02*
X71299868Y-77613394D01*
X139385988Y-128391327D02*
X139385988Y-131063602D01*
X136601200Y-98475800D02*
X136601200Y-100939600D01*
X74794906Y-75065094D02*
X71120000Y-78740000D01*
X136601200Y-100939600D02*
X137947400Y-102285800D01*
X134470000Y-87375000D02*
X134470000Y-96344600D01*
X137947400Y-110259951D02*
X137947400Y-131815797D01*
X137947400Y-108180049D02*
X137353394Y-108774055D01*
X78367094Y-75065094D02*
X74794906Y-75065094D01*
X137353394Y-108774055D02*
X137353394Y-109665945D01*
X137947400Y-131815797D02*
X137768497Y-131994700D01*
X137136000Y-84709000D02*
X134470000Y-87375000D01*
X134470000Y-96344600D02*
X136601200Y-98475800D01*
X137947400Y-102285800D02*
X137947400Y-108180049D01*
X78486000Y-75184000D02*
X78367094Y-75065094D01*
X137353394Y-109665945D02*
X137947400Y-110259951D01*
X80651321Y-74569035D02*
X80651321Y-75250988D01*
X79646773Y-73564487D02*
X80651321Y-74569035D01*
X71299868Y-75073394D02*
X72808775Y-73564487D01*
X68580000Y-76200000D02*
X69706606Y-75073394D01*
X72808775Y-73564487D02*
X79646773Y-73564487D01*
X131953000Y-87352000D02*
X131953000Y-96545400D01*
X69706606Y-75073394D02*
X71299868Y-75073394D01*
X129667000Y-132765800D02*
X129667000Y-112139551D01*
X127193394Y-109665945D02*
X127193394Y-107981882D01*
X134924800Y-99517200D02*
X134924800Y-104202613D01*
X134924800Y-104202613D02*
X134846497Y-104280916D01*
X134596000Y-84709000D02*
X131953000Y-87352000D01*
X129667000Y-112139551D02*
X127193394Y-109665945D01*
X127193394Y-107981882D02*
X128689411Y-106485865D01*
X131953000Y-96545400D02*
X134924800Y-99517200D01*
X71120000Y-76200000D02*
X73406000Y-73914000D01*
X132056000Y-84709000D02*
X129723778Y-87041222D01*
X129723778Y-87041222D02*
X129723778Y-97467114D01*
X79502000Y-73914000D02*
X79756000Y-74168000D01*
X79756000Y-74168000D02*
X79756000Y-75946000D01*
X120618692Y-113532092D02*
X120618692Y-133212293D01*
X119998620Y-99515110D02*
X119998620Y-100168580D01*
X119329200Y-100838000D02*
X119329200Y-112242600D01*
X119998620Y-100168580D02*
X119329200Y-100838000D01*
X119329200Y-112242600D02*
X120618692Y-113532092D01*
X73406000Y-73914000D02*
X79502000Y-73914000D01*
X117033394Y-100942143D02*
X119240014Y-98735523D01*
X117033394Y-109718194D02*
X117033394Y-100942143D01*
X69706606Y-72533394D02*
X80153394Y-72533394D01*
X119176800Y-116001800D02*
X118186200Y-115011200D01*
X129516000Y-84709000D02*
X124510800Y-89714200D01*
X119176800Y-133705600D02*
X119176800Y-116001800D01*
X68580000Y-73660000D02*
X69706606Y-72533394D01*
X80153394Y-72533394D02*
X83245012Y-75625012D01*
X83245012Y-75625012D02*
X83245012Y-76239445D01*
X124510800Y-95071660D02*
X126942980Y-97503841D01*
X118186200Y-115011200D02*
X118186200Y-110871000D01*
X118186200Y-110871000D02*
X117033394Y-109718194D01*
X124510800Y-89714200D02*
X124510800Y-95071660D01*
X119240014Y-98735523D02*
X119240014Y-98730211D01*
X77428846Y-55880000D02*
X71120000Y-55880000D01*
X167640000Y-149606000D02*
X167640000Y-111575725D01*
X167640000Y-111575725D02*
X173181400Y-106034325D01*
X177164135Y-64844905D02*
X176690924Y-64371694D01*
X177164135Y-66535062D02*
X177164135Y-64844905D01*
X78496098Y-56947252D02*
X77428846Y-55880000D01*
X117836687Y-114153687D02*
X116683881Y-113000881D01*
X116683881Y-113000881D02*
X116683881Y-99518498D01*
X117836687Y-134092687D02*
X117836687Y-114153687D01*
X122113394Y-89571606D02*
X122113394Y-94580482D01*
X118430102Y-97772277D02*
X118430102Y-97738720D01*
X122113394Y-94580482D02*
X124886064Y-97353152D01*
X116683881Y-99518498D02*
X118430102Y-97772277D01*
X82668906Y-76064906D02*
X82668906Y-77033663D01*
X79756000Y-73152000D02*
X82668906Y-76064906D01*
X71628000Y-73152000D02*
X79756000Y-73152000D01*
X126976000Y-84709000D02*
X122113394Y-89571606D01*
X82668906Y-77033663D02*
X82662051Y-77040518D01*
X118084600Y-134340600D02*
X117836687Y-134092687D01*
X71120000Y-73660000D02*
X71628000Y-73152000D01*
X88849200Y-80162400D02*
X88849200Y-101510043D01*
X89611817Y-72214035D02*
X89611817Y-79399783D01*
X89179400Y-101840243D02*
X89179400Y-102626888D01*
X89611817Y-79399783D02*
X88849200Y-80162400D01*
X89552458Y-72154676D02*
X89611817Y-72214035D01*
X88849200Y-101510043D02*
X89179400Y-101840243D01*
X88081109Y-72954891D02*
X88081109Y-101583808D01*
X88081109Y-101583808D02*
X88283113Y-101785812D01*
X88138000Y-72898000D02*
X88081109Y-72954891D01*
X187706000Y-139776200D02*
X183016988Y-139776200D01*
X183016988Y-139776200D02*
X175260000Y-147533188D01*
X88976200Y-68580000D02*
X91592400Y-65963800D01*
X200636000Y-84709000D02*
X200636000Y-126846200D01*
X88976200Y-68580000D02*
X72713262Y-68580000D01*
X72713262Y-68580000D02*
X71586656Y-67453394D01*
X69706606Y-67453394D02*
X68580000Y-68580000D01*
X71586656Y-67453394D02*
X69706606Y-67453394D01*
X175260000Y-147533188D02*
X175260000Y-149606000D01*
X200636000Y-126846200D02*
X187706000Y-139776200D01*
X184966300Y-141363700D02*
X187363100Y-141363700D01*
X208256000Y-120470800D02*
X208256000Y-84709000D01*
X177800000Y-148530000D02*
X184966300Y-141363700D01*
X72440800Y-69900800D02*
X71120000Y-68580000D01*
X88798400Y-69900800D02*
X92354400Y-66344800D01*
X177800000Y-149606000D02*
X177800000Y-148530000D01*
X88798400Y-69900800D02*
X72440800Y-69900800D01*
X92354400Y-65387694D02*
X92227400Y-65260694D01*
X187363100Y-141363700D02*
X208256000Y-120470800D01*
X92354400Y-66344800D02*
X92354400Y-65387694D01*
X178157000Y-52070000D02*
X210796000Y-84709000D01*
X185664800Y-143205200D02*
X187147200Y-143205200D01*
X210796000Y-119556400D02*
X210796000Y-84709000D01*
X187147200Y-143205200D02*
X210796000Y-119556400D01*
X68580000Y-53340000D02*
X69850000Y-52070000D01*
X69850000Y-52070000D02*
X178157000Y-52070000D01*
X180340000Y-148530000D02*
X185664800Y-143205200D01*
X180340000Y-149606000D02*
X180340000Y-148530000D01*
X94431113Y-94393887D02*
X94431113Y-116617487D01*
X104116000Y-84709000D02*
X94431113Y-94393887D01*
X81280000Y-129768600D02*
X81280000Y-149606000D01*
X94431113Y-116617487D02*
X81280000Y-129768600D01*
X107416600Y-105308400D02*
X107543600Y-105181400D01*
X107416600Y-110209151D02*
X106873394Y-109665945D01*
X106873394Y-108774055D02*
X107416600Y-108230849D01*
X107416600Y-108230849D02*
X107416600Y-105308400D01*
X106873394Y-109665945D02*
X106873394Y-108774055D01*
X106610892Y-114602392D02*
X107416600Y-113796684D01*
X107416600Y-113796684D02*
X107416600Y-110209151D01*
X104317800Y-114355484D02*
X104317800Y-105004495D01*
X104070892Y-114602392D02*
X104317800Y-114355484D01*
X104317800Y-105004495D02*
X104556548Y-104765747D01*
X99110800Y-95300800D02*
X97790000Y-93980000D01*
X101530892Y-114602392D02*
X99110800Y-112182300D01*
X99110800Y-112182300D02*
X99110800Y-95300800D01*
X169291000Y-89763600D02*
X169291000Y-89052400D01*
X149860000Y-146450813D02*
X158470600Y-137840213D01*
X158470600Y-100584000D02*
X169291000Y-89763600D01*
X149860000Y-149606000D02*
X149860000Y-146450813D01*
X158470600Y-137840213D02*
X158470600Y-100584000D01*
X158013400Y-136634519D02*
X158013400Y-99441000D01*
X147320000Y-149606000D02*
X147320000Y-147327919D01*
X147320000Y-147327919D02*
X158013400Y-136634519D01*
X158013400Y-99441000D02*
X167767000Y-89687400D01*
X157607000Y-98120200D02*
X165709600Y-90017600D01*
X144780000Y-148530000D02*
X157607000Y-135703000D01*
X144780000Y-149606000D02*
X144780000Y-148530000D01*
X157607000Y-135703000D02*
X157607000Y-98120200D01*
X175514000Y-98983800D02*
X175514000Y-95859600D01*
X159670487Y-110179113D02*
X162052000Y-107797600D01*
X157480000Y-149606000D02*
X157480000Y-148530000D01*
X157480000Y-148530000D02*
X159670487Y-146339513D01*
X162052000Y-107797600D02*
X166700200Y-107797600D01*
X159670487Y-146339513D02*
X159670487Y-110179113D01*
X175514000Y-95859600D02*
X180967329Y-90406271D01*
X166700200Y-107797600D02*
X175514000Y-98983800D01*
X180967329Y-90406271D02*
X180967329Y-88564109D01*
X174548800Y-95402400D02*
X180321825Y-89629375D01*
X180321825Y-89629375D02*
X180321825Y-89293159D01*
X159320974Y-144149026D02*
X159320974Y-109563426D01*
X154940000Y-148530000D02*
X159320974Y-144149026D01*
X174548800Y-99161600D02*
X174548800Y-95402400D01*
X154940000Y-149606000D02*
X154940000Y-148530000D01*
X161518600Y-107365800D02*
X166344600Y-107365800D01*
X159320974Y-109563426D02*
X161518600Y-107365800D01*
X166344600Y-107365800D02*
X174548800Y-99161600D01*
X173659800Y-99017262D02*
X173659800Y-95148400D01*
X173659800Y-95148400D02*
X178943000Y-89865200D01*
X160814539Y-106698261D02*
X165978801Y-106698261D01*
X158971461Y-137833638D02*
X158971461Y-108541339D01*
X165978801Y-106698261D02*
X173659800Y-99017262D01*
X152400000Y-149606000D02*
X152400000Y-144405099D01*
X152400000Y-144405099D02*
X158971461Y-137833638D01*
X158971461Y-108541339D02*
X160814539Y-106698261D01*
X166878000Y-108407200D02*
X172143894Y-103141306D01*
X160020000Y-149606000D02*
X160020000Y-110921800D01*
X160020000Y-110921800D02*
X162534600Y-108407200D01*
X162534600Y-108407200D02*
X166878000Y-108407200D01*
X172143894Y-103141306D02*
X175382655Y-103141306D01*
X175382655Y-103141306D02*
X175393343Y-103130618D01*
X162560000Y-149606000D02*
X162560000Y-111328200D01*
X167068508Y-108953292D02*
X171483494Y-104538306D01*
X175498788Y-104538306D02*
X175743996Y-104293098D01*
X162560000Y-111328200D02*
X164934908Y-108953292D01*
X171483494Y-104538306D02*
X175498788Y-104538306D01*
X164934908Y-108953292D02*
X167068508Y-108953292D01*
X171498606Y-105270309D02*
X171574382Y-105270309D01*
X165100000Y-111668915D02*
X171498606Y-105270309D01*
X165100000Y-149606000D02*
X165100000Y-111668915D01*
X170180000Y-149606000D02*
X170180000Y-111289830D01*
X170180000Y-111289830D02*
X174378389Y-107091441D01*
X182880000Y-149606000D02*
X182880000Y-148530000D01*
X186630000Y-144780000D02*
X187706000Y-144780000D01*
X187706000Y-144780000D02*
X213336000Y-119150000D01*
X182880000Y-148530000D02*
X186630000Y-144780000D01*
X213336000Y-119150000D02*
X213336000Y-84709000D01*
X185420000Y-149606000D02*
X185420000Y-148530000D01*
X187595200Y-146354800D02*
X188239400Y-146354800D01*
X185420000Y-148530000D02*
X187595200Y-146354800D01*
X188239400Y-146354800D02*
X215876000Y-118718200D01*
X215876000Y-118718200D02*
X215876000Y-84709000D01*
X218416000Y-118074000D02*
X187960000Y-148530000D01*
X218416000Y-84709000D02*
X218416000Y-118074000D01*
X187960000Y-148530000D02*
X187960000Y-149606000D01*
X168351200Y-92938600D02*
X169546400Y-92938600D01*
X169546400Y-92938600D02*
X177776000Y-84709000D01*
M02*
