%TF.GenerationSoftware,KiCad,Pcbnew,(6.0.11-0)*%
%TF.CreationDate,2023-06-10T21:55:55+02:00*%
%TF.ProjectId,6502_computer,36353032-5f63-46f6-9d70-757465722e6b,REV*%
%TF.SameCoordinates,Original*%
%TF.FileFunction,Drillmap*%
%TF.FilePolarity,Positive*%
%FSLAX45Y45*%
G04 Gerber Fmt 4.5, Leading zero omitted, Abs format (unit mm)*
G04 Created by KiCad (PCBNEW (6.0.11-0)) date 2023-06-10 21:55:55*
%MOMM*%
%LPD*%
G01*
G04 APERTURE LIST*
%ADD10C,0.100000*%
%ADD11C,0.200000*%
%ADD12C,0.030000*%
%ADD13C,0.040000*%
%ADD14C,0.060000*%
%ADD15C,0.078740*%
%ADD16C,0.080000*%
%ADD17C,0.090000*%
%ADD18C,0.120000*%
%ADD19C,0.250000*%
G04 APERTURE END LIST*
D10*
X23050500Y-15652400D02*
X7112000Y-15652400D01*
X6604000Y-15144400D02*
X6604000Y-4953000D01*
X23558500Y-4953000D02*
G75*
G03*
X23050500Y-4445000I-497150J10850D01*
G01*
X6604000Y-15144400D02*
G75*
G03*
X7112000Y-15652400I508000J0D01*
G01*
X7112000Y-4445000D02*
G75*
G03*
X6604000Y-4953000I0J-508000D01*
G01*
X23050500Y-15652400D02*
G75*
G03*
X23558500Y-15144400I0J508000D01*
G01*
X7112000Y-4445000D02*
X23050500Y-4445000D01*
X23558500Y-4953000D02*
X23558500Y-15144400D01*
D11*
D12*
X7301070Y-8184760D02*
X7331070Y-8214760D01*
X7331070Y-8184760D02*
X7301070Y-8214760D01*
X7327190Y-8717830D02*
X7357190Y-8747830D01*
X7357190Y-8717830D02*
X7327190Y-8747830D01*
X7327820Y-8395460D02*
X7357820Y-8425460D01*
X7357820Y-8395460D02*
X7327820Y-8425460D01*
X7351000Y-9027400D02*
X7381000Y-9057400D01*
X7381000Y-9027400D02*
X7351000Y-9057400D01*
X7503400Y-7605000D02*
X7533400Y-7635000D01*
X7533400Y-7605000D02*
X7503400Y-7635000D01*
X7592300Y-7643100D02*
X7622300Y-7673100D01*
X7622300Y-7643100D02*
X7592300Y-7673100D01*
X7833600Y-7503400D02*
X7863600Y-7533400D01*
X7863600Y-7503400D02*
X7833600Y-7533400D01*
X7834610Y-5679730D02*
X7864610Y-5709730D01*
X7864610Y-5679730D02*
X7834610Y-5709730D01*
X7880090Y-7436790D02*
X7910090Y-7466790D01*
X7910090Y-7436790D02*
X7880090Y-7466790D01*
X7960600Y-7579600D02*
X7990600Y-7609600D01*
X7990600Y-7579600D02*
X7960600Y-7609600D01*
X7968220Y-6202920D02*
X7998220Y-6232920D01*
X7998220Y-6202920D02*
X7968220Y-6232920D01*
X8012420Y-6125410D02*
X8042420Y-6155410D01*
X8042420Y-6125410D02*
X8012420Y-6155410D01*
X8050130Y-7510100D02*
X8080130Y-7540100D01*
X8080130Y-7510100D02*
X8050130Y-7540100D01*
X8251210Y-7689050D02*
X8281210Y-7719050D01*
X8281210Y-7689050D02*
X8251210Y-7719050D01*
X8309500Y-7608940D02*
X8339500Y-7638940D01*
X8339500Y-7608940D02*
X8309500Y-7638940D01*
X8443200Y-6464540D02*
X8473200Y-6494540D01*
X8473200Y-6464540D02*
X8443200Y-6494540D01*
X8515420Y-6417910D02*
X8545420Y-6447910D01*
X8545420Y-6417910D02*
X8515420Y-6447910D01*
X8798800Y-7274800D02*
X8828800Y-7304800D01*
X8828800Y-7274800D02*
X8798800Y-7304800D01*
X8813310Y-10163600D02*
X8843310Y-10193600D01*
X8843310Y-10163600D02*
X8813310Y-10193600D01*
X8872460Y-6704110D02*
X8902460Y-6734110D01*
X8902460Y-6704110D02*
X8872460Y-6734110D01*
X8902940Y-10247700D02*
X8932940Y-10277700D01*
X8932940Y-10247700D02*
X8902940Y-10277700D01*
X8903610Y-6624380D02*
X8933610Y-6654380D01*
X8933610Y-6624380D02*
X8903610Y-6654380D01*
X8940250Y-7200470D02*
X8970250Y-7230470D01*
X8970250Y-7200470D02*
X8940250Y-7230470D01*
X9144240Y-6581380D02*
X9174240Y-6611380D01*
X9174240Y-6581380D02*
X9144240Y-6611380D01*
X9207740Y-6511070D02*
X9237740Y-6541070D01*
X9237740Y-6511070D02*
X9207740Y-6541070D01*
X9230600Y-9454120D02*
X9260600Y-9484120D01*
X9260600Y-9454120D02*
X9230600Y-9484120D01*
X10185600Y-12707900D02*
X10215600Y-12737900D01*
X10215600Y-12707900D02*
X10185600Y-12737900D01*
X10424400Y-7224000D02*
X10454400Y-7254000D01*
X10454400Y-7224000D02*
X10424400Y-7254000D01*
X10440700Y-10461600D02*
X10470700Y-10491600D01*
X10470700Y-10461600D02*
X10440700Y-10491600D01*
X10678400Y-6233400D02*
X10708400Y-6263400D01*
X10708400Y-6233400D02*
X10678400Y-6263400D01*
X10739400Y-10503100D02*
X10769400Y-10533100D01*
X10769400Y-10503100D02*
X10739400Y-10533100D01*
X11292200Y-13726700D02*
X11322200Y-13756700D01*
X11322200Y-13726700D02*
X11292200Y-13756700D01*
X11310900Y-13635000D02*
X11340900Y-13665000D01*
X11340900Y-13635000D02*
X11310900Y-13665000D01*
X11399000Y-13930600D02*
X11429000Y-13960600D01*
X11429000Y-13930600D02*
X11399000Y-13960600D01*
X11559900Y-13565200D02*
X11589900Y-13595200D01*
X11589900Y-13565200D02*
X11559900Y-13595200D01*
X11605500Y-14229300D02*
X11635500Y-14259300D01*
X11635500Y-14229300D02*
X11605500Y-14259300D01*
X11676600Y-13477500D02*
X11706600Y-13507500D01*
X11706600Y-13477500D02*
X11676600Y-13507500D01*
X11755400Y-14397000D02*
X11785400Y-14427000D01*
X11785400Y-14397000D02*
X11755400Y-14427000D01*
X11793500Y-13419100D02*
X11823500Y-13449100D01*
X11823500Y-13419100D02*
X11793500Y-13449100D01*
X11828000Y-9758870D02*
X11858000Y-9788870D01*
X11858000Y-9758870D02*
X11828000Y-9788870D01*
X11902700Y-13355600D02*
X11932700Y-13385600D01*
X11932700Y-13355600D02*
X11902700Y-13385600D01*
X11909000Y-9858020D02*
X11939000Y-9888020D01*
X11939000Y-9858020D02*
X11909000Y-9888020D01*
X11984900Y-9936510D02*
X12014900Y-9966510D01*
X12014900Y-9936510D02*
X11984900Y-9966510D01*
X12046900Y-13306200D02*
X12076900Y-13336200D01*
X12076900Y-13306200D02*
X12046900Y-13336200D01*
X12473600Y-9720320D02*
X12503600Y-9750320D01*
X12503600Y-9720320D02*
X12473600Y-9750320D01*
X12679300Y-9735380D02*
X12709300Y-9765380D01*
X12709300Y-9735380D02*
X12679300Y-9765380D01*
X12742100Y-11123400D02*
X12772100Y-11153400D01*
X12772100Y-11123400D02*
X12742100Y-11153400D01*
X12776600Y-11204400D02*
X12806600Y-11234400D01*
X12806600Y-11204400D02*
X12776600Y-11234400D01*
X12782300Y-11312400D02*
X12812300Y-11342400D01*
X12812300Y-11312400D02*
X12782300Y-11342400D01*
X12853900Y-10633600D02*
X12883900Y-10663600D01*
X12883900Y-10633600D02*
X12853900Y-10663600D01*
X12951700Y-13261600D02*
X12981700Y-13291600D01*
X12981700Y-13261600D02*
X12951700Y-13291600D01*
X12957400Y-9731710D02*
X12987400Y-9761710D01*
X12987400Y-9731710D02*
X12957400Y-9761710D01*
X13302200Y-14244600D02*
X13332200Y-14274600D01*
X13332200Y-14244600D02*
X13302200Y-14274600D01*
X13353000Y-14102300D02*
X13383000Y-14132300D01*
X13383000Y-14102300D02*
X13353000Y-14132300D01*
X13360600Y-12486900D02*
X13390600Y-12516900D01*
X13390600Y-12486900D02*
X13360600Y-12516900D01*
X13398700Y-14369000D02*
X13428700Y-14399000D01*
X13428700Y-14369000D02*
X13398700Y-14399000D01*
X13441300Y-13962000D02*
X13471300Y-13992000D01*
X13471300Y-13962000D02*
X13441300Y-13992000D01*
X13469600Y-10413100D02*
X13499600Y-10443100D01*
X13499600Y-10413100D02*
X13469600Y-10443100D01*
X13509500Y-14480600D02*
X13539500Y-14510600D01*
X13539500Y-14480600D02*
X13509500Y-14510600D01*
X13510500Y-13830500D02*
X13540500Y-13860500D01*
X13540500Y-13830500D02*
X13510500Y-13860500D01*
X13609600Y-12573200D02*
X13639600Y-12603200D01*
X13639600Y-12573200D02*
X13609600Y-12603200D01*
X13622300Y-13741600D02*
X13652300Y-13771600D01*
X13652300Y-13741600D02*
X13622300Y-13771600D01*
X13741600Y-14578800D02*
X13771600Y-14608800D01*
X13771600Y-14578800D02*
X13741600Y-14608800D01*
X13761800Y-13184500D02*
X13791800Y-13214500D01*
X13791800Y-13184500D02*
X13761800Y-13214500D01*
X13871600Y-12644800D02*
X13901600Y-12674800D01*
X13901600Y-12644800D02*
X13871600Y-12674800D01*
X13950000Y-13117800D02*
X13980000Y-13147800D01*
X13980000Y-13117800D02*
X13950000Y-13147800D01*
X14078400Y-12921300D02*
X14108400Y-12951300D01*
X14108400Y-12921300D02*
X14078400Y-12951300D01*
X14120400Y-13051200D02*
X14150400Y-13081200D01*
X14150400Y-13051200D02*
X14120400Y-13081200D01*
X14205400Y-13066400D02*
X14235400Y-13096400D01*
X14235400Y-13066400D02*
X14205400Y-13096400D01*
X14352100Y-13024900D02*
X14382100Y-13054900D01*
X14382100Y-13024900D02*
X14352100Y-13054900D01*
X16556000Y-8986760D02*
X16586000Y-9016760D01*
X16586000Y-8986760D02*
X16556000Y-9016760D01*
X16761700Y-8953740D02*
X16791700Y-8983740D01*
X16791700Y-8953740D02*
X16761700Y-8983740D01*
X16820100Y-9278860D02*
X16850100Y-9308860D01*
X16850100Y-9278860D02*
X16820100Y-9308860D01*
X16914100Y-8890240D02*
X16944100Y-8920240D01*
X16944100Y-8890240D02*
X16914100Y-8920240D01*
X16954700Y-10815600D02*
X16984700Y-10845600D01*
X16984700Y-10815600D02*
X16954700Y-10845600D01*
X17142400Y-10512000D02*
X17172400Y-10542000D01*
X17172400Y-10512000D02*
X17142400Y-10542000D01*
X17303100Y-10588400D02*
X17333100Y-10618400D01*
X17333100Y-10588400D02*
X17303100Y-10618400D01*
X17422800Y-10694100D02*
X17452800Y-10724100D01*
X17452800Y-10694100D02*
X17422800Y-10724100D01*
X17524300Y-10298100D02*
X17554300Y-10328100D01*
X17554300Y-10298100D02*
X17524300Y-10328100D01*
X17559400Y-10414300D02*
X17589400Y-10444300D01*
X17589400Y-10414300D02*
X17559400Y-10444300D01*
X17654100Y-6422170D02*
X17684100Y-6452170D01*
X17684100Y-6422170D02*
X17654100Y-6452170D01*
X17701400Y-6638510D02*
X17731400Y-6668510D01*
X17731400Y-6638510D02*
X17701400Y-6668510D01*
X17879300Y-8971520D02*
X17909300Y-9001520D01*
X17909300Y-8971520D02*
X17879300Y-9001520D01*
X18017200Y-8914320D02*
X18047200Y-8944320D01*
X18047200Y-8914320D02*
X18017200Y-8944320D01*
X18081565Y-8843431D02*
X18111565Y-8873431D01*
X18111565Y-8843431D02*
X18081565Y-8873431D01*
X18623500Y-12142500D02*
X18653500Y-12172500D01*
X18653500Y-12142500D02*
X18623500Y-12172500D01*
X18818700Y-12205200D02*
X18848700Y-12235200D01*
X18848700Y-12205200D02*
X18818700Y-12235200D01*
X19036600Y-12274500D02*
X19066600Y-12304500D01*
X19066600Y-12274500D02*
X19036600Y-12304500D01*
X19211200Y-12340000D02*
X19241200Y-12370000D01*
X19241200Y-12340000D02*
X19211200Y-12370000D01*
X19372000Y-12402600D02*
X19402000Y-12432600D01*
X19402000Y-12402600D02*
X19372000Y-12432600D01*
X19522200Y-12463700D02*
X19552200Y-12493700D01*
X19552200Y-12463700D02*
X19522200Y-12493700D01*
X19706200Y-12519300D02*
X19736200Y-12549300D01*
X19736200Y-12519300D02*
X19706200Y-12549300D01*
X19868100Y-12580900D02*
X19898100Y-12610900D01*
X19898100Y-12580900D02*
X19868100Y-12610900D01*
D13*
X8402000Y-10693400D02*
G75*
G03*
X8402000Y-10693400I-20000J0D01*
G01*
X8414700Y-9105900D02*
G75*
G03*
X8414700Y-9105900I-20000J0D01*
G01*
X14548800Y-10617200D02*
G75*
G03*
X14548800Y-10617200I-20000J0D01*
G01*
X15107600Y-9906000D02*
G75*
G03*
X15107600Y-9906000I-20000J0D01*
G01*
X17266600Y-9753600D02*
G75*
G03*
X17266600Y-9753600I-20000J0D01*
G01*
X17693700Y-10917200D02*
G75*
G03*
X17693700Y-10917200I-20000J0D01*
G01*
X18674100Y-13896600D02*
G75*
G03*
X18674100Y-13896600I-20000J0D01*
G01*
D14*
X8382000Y-10003000D02*
X8382000Y-10063000D01*
X8352000Y-10033000D02*
X8412000Y-10033000D01*
X8532000Y-10003000D02*
X8532000Y-10063000D01*
X8502000Y-10033000D02*
X8562000Y-10033000D01*
D15*
X10180928Y-11488078D02*
X10180928Y-11432400D01*
X10125250Y-11432400D01*
X10125250Y-11488078D01*
X10180928Y-11488078D01*
X10434928Y-11488078D02*
X10434928Y-11432400D01*
X10379250Y-11432400D01*
X10379250Y-11488078D01*
X10434928Y-11488078D01*
X10942928Y-11488078D02*
X10942928Y-11432400D01*
X10887250Y-11432400D01*
X10887250Y-11488078D01*
X10942928Y-11488078D01*
X11196928Y-11488078D02*
X11196928Y-11432400D01*
X11141250Y-11432400D01*
X11141250Y-11488078D01*
X11196928Y-11488078D01*
X11450928Y-11488078D02*
X11450928Y-11432400D01*
X11395250Y-11432400D01*
X11395250Y-11488078D01*
X11450928Y-11488078D01*
X11704928Y-11488078D02*
X11704928Y-11432400D01*
X11649250Y-11432400D01*
X11649250Y-11488078D01*
X11704928Y-11488078D01*
X11958928Y-11488078D02*
X11958928Y-11432400D01*
X11903250Y-11432400D01*
X11903250Y-11488078D01*
X11958928Y-11488078D01*
D16*
X9017000Y-10136500D02*
X9057000Y-10096500D01*
X9017000Y-10056500D01*
X8977000Y-10096500D01*
X9017000Y-10136500D01*
X9017000Y-10898500D02*
X9057000Y-10858500D01*
X9017000Y-10818500D01*
X8977000Y-10858500D01*
X9017000Y-10898500D01*
X9779000Y-9438000D02*
X9819000Y-9398000D01*
X9779000Y-9358000D01*
X9739000Y-9398000D01*
X9779000Y-9438000D01*
X9779000Y-10962000D02*
X9819000Y-10922000D01*
X9779000Y-10882000D01*
X9739000Y-10922000D01*
X9779000Y-10962000D01*
X10033000Y-9438000D02*
X10073000Y-9398000D01*
X10033000Y-9358000D01*
X9993000Y-9398000D01*
X10033000Y-9438000D01*
X10033000Y-10962000D02*
X10073000Y-10922000D01*
X10033000Y-10882000D01*
X9993000Y-10922000D01*
X10033000Y-10962000D01*
X10287000Y-9438000D02*
X10327000Y-9398000D01*
X10287000Y-9358000D01*
X10247000Y-9398000D01*
X10287000Y-9438000D01*
X10287000Y-10962000D02*
X10327000Y-10922000D01*
X10287000Y-10882000D01*
X10247000Y-10922000D01*
X10287000Y-10962000D01*
X10541000Y-9438000D02*
X10581000Y-9398000D01*
X10541000Y-9358000D01*
X10501000Y-9398000D01*
X10541000Y-9438000D01*
X10541000Y-10962000D02*
X10581000Y-10922000D01*
X10541000Y-10882000D01*
X10501000Y-10922000D01*
X10541000Y-10962000D01*
X10795000Y-9438000D02*
X10835000Y-9398000D01*
X10795000Y-9358000D01*
X10755000Y-9398000D01*
X10795000Y-9438000D01*
X10795000Y-10962000D02*
X10835000Y-10922000D01*
X10795000Y-10882000D01*
X10755000Y-10922000D01*
X10795000Y-10962000D01*
X11049000Y-9438000D02*
X11089000Y-9398000D01*
X11049000Y-9358000D01*
X11009000Y-9398000D01*
X11049000Y-9438000D01*
X11049000Y-10962000D02*
X11089000Y-10922000D01*
X11049000Y-10882000D01*
X11009000Y-10922000D01*
X11049000Y-10962000D01*
X11303000Y-9438000D02*
X11343000Y-9398000D01*
X11303000Y-9358000D01*
X11263000Y-9398000D01*
X11303000Y-9438000D01*
X11303000Y-10962000D02*
X11343000Y-10922000D01*
X11303000Y-10882000D01*
X11263000Y-10922000D01*
X11303000Y-10962000D01*
X11557000Y-9438000D02*
X11597000Y-9398000D01*
X11557000Y-9358000D01*
X11517000Y-9398000D01*
X11557000Y-9438000D01*
X11557000Y-10962000D02*
X11597000Y-10922000D01*
X11557000Y-10882000D01*
X11517000Y-10922000D01*
X11557000Y-10962000D01*
X11811000Y-9438000D02*
X11851000Y-9398000D01*
X11811000Y-9358000D01*
X11771000Y-9398000D01*
X11811000Y-9438000D01*
X11811000Y-10962000D02*
X11851000Y-10922000D01*
X11811000Y-10882000D01*
X11771000Y-10922000D01*
X11811000Y-10962000D01*
X12065000Y-9438000D02*
X12105000Y-9398000D01*
X12065000Y-9358000D01*
X12025000Y-9398000D01*
X12065000Y-9438000D01*
X12065000Y-10962000D02*
X12105000Y-10922000D01*
X12065000Y-10882000D01*
X12025000Y-10922000D01*
X12065000Y-10962000D01*
X12319000Y-9438000D02*
X12359000Y-9398000D01*
X12319000Y-9358000D01*
X12279000Y-9398000D01*
X12319000Y-9438000D01*
X12319000Y-10962000D02*
X12359000Y-10922000D01*
X12319000Y-10882000D01*
X12279000Y-10922000D01*
X12319000Y-10962000D01*
X12573000Y-9438000D02*
X12613000Y-9398000D01*
X12573000Y-9358000D01*
X12533000Y-9398000D01*
X12573000Y-9438000D01*
X12573000Y-10962000D02*
X12613000Y-10922000D01*
X12573000Y-10882000D01*
X12533000Y-10922000D01*
X12573000Y-10962000D01*
X12827000Y-9438000D02*
X12867000Y-9398000D01*
X12827000Y-9358000D01*
X12787000Y-9398000D01*
X12827000Y-9438000D01*
X12827000Y-10962000D02*
X12867000Y-10922000D01*
X12827000Y-10882000D01*
X12787000Y-10922000D01*
X12827000Y-10962000D01*
X13081000Y-9438000D02*
X13121000Y-9398000D01*
X13081000Y-9358000D01*
X13041000Y-9398000D01*
X13081000Y-9438000D01*
X13081000Y-10962000D02*
X13121000Y-10922000D01*
X13081000Y-10882000D01*
X13041000Y-10922000D01*
X13081000Y-10962000D01*
X13335000Y-9438000D02*
X13375000Y-9398000D01*
X13335000Y-9358000D01*
X13295000Y-9398000D01*
X13335000Y-9438000D01*
X13335000Y-10962000D02*
X13375000Y-10922000D01*
X13335000Y-10882000D01*
X13295000Y-10922000D01*
X13335000Y-10962000D01*
X13589000Y-9438000D02*
X13629000Y-9398000D01*
X13589000Y-9358000D01*
X13549000Y-9398000D01*
X13589000Y-9438000D01*
X13589000Y-10962000D02*
X13629000Y-10922000D01*
X13589000Y-10882000D01*
X13549000Y-10922000D01*
X13589000Y-10962000D01*
X13843000Y-9438000D02*
X13883000Y-9398000D01*
X13843000Y-9358000D01*
X13803000Y-9398000D01*
X13843000Y-9438000D01*
X13843000Y-10962000D02*
X13883000Y-10922000D01*
X13843000Y-10882000D01*
X13803000Y-10922000D01*
X13843000Y-10962000D01*
X14097000Y-9438000D02*
X14137000Y-9398000D01*
X14097000Y-9358000D01*
X14057000Y-9398000D01*
X14097000Y-9438000D01*
X14097000Y-10962000D02*
X14137000Y-10922000D01*
X14097000Y-10882000D01*
X14057000Y-10922000D01*
X14097000Y-10962000D01*
X14351000Y-9438000D02*
X14391000Y-9398000D01*
X14351000Y-9358000D01*
X14311000Y-9398000D01*
X14351000Y-9438000D01*
X14351000Y-10962000D02*
X14391000Y-10922000D01*
X14351000Y-10882000D01*
X14311000Y-10922000D01*
X14351000Y-10962000D01*
X14605000Y-9438000D02*
X14645000Y-9398000D01*
X14605000Y-9358000D01*
X14565000Y-9398000D01*
X14605000Y-9438000D01*
X14605000Y-10962000D02*
X14645000Y-10922000D01*
X14605000Y-10882000D01*
X14565000Y-10922000D01*
X14605000Y-10962000D01*
X14986000Y-10458000D02*
X15026000Y-10418000D01*
X14986000Y-10378000D01*
X14946000Y-10418000D01*
X14986000Y-10458000D01*
X14986000Y-10958000D02*
X15026000Y-10918000D01*
X14986000Y-10878000D01*
X14946000Y-10918000D01*
X14986000Y-10958000D01*
X22352000Y-10530200D02*
X22392000Y-10490200D01*
X22352000Y-10450200D01*
X22312000Y-10490200D01*
X22352000Y-10530200D01*
X22606000Y-10276200D02*
X22646000Y-10236200D01*
X22606000Y-10196200D01*
X22566000Y-10236200D01*
X22606000Y-10276200D01*
X22860000Y-10530200D02*
X22900000Y-10490200D01*
X22860000Y-10450200D01*
X22820000Y-10490200D01*
X22860000Y-10530200D01*
D17*
X8970800Y-9530800D02*
X9060800Y-9620800D01*
X9060800Y-9530800D02*
X8970800Y-9620800D01*
X9060800Y-9575800D02*
G75*
G03*
X9060800Y-9575800I-45000J0D01*
G01*
X8970800Y-9784800D02*
X9060800Y-9874800D01*
X9060800Y-9784800D02*
X8970800Y-9874800D01*
X9060800Y-9829800D02*
G75*
G03*
X9060800Y-9829800I-45000J0D01*
G01*
D10*
X6808000Y-5030000D02*
X6908000Y-5130000D01*
X6908000Y-5030000D02*
X6808000Y-5130000D01*
X6858000Y-5030000D02*
X6858000Y-5130000D01*
X6808000Y-5080000D02*
X6908000Y-5080000D01*
X6808000Y-5284000D02*
X6908000Y-5384000D01*
X6908000Y-5284000D02*
X6808000Y-5384000D01*
X6858000Y-5284000D02*
X6858000Y-5384000D01*
X6808000Y-5334000D02*
X6908000Y-5334000D01*
X6808000Y-5538000D02*
X6908000Y-5638000D01*
X6908000Y-5538000D02*
X6808000Y-5638000D01*
X6858000Y-5538000D02*
X6858000Y-5638000D01*
X6808000Y-5588000D02*
X6908000Y-5588000D01*
X6808000Y-5792000D02*
X6908000Y-5892000D01*
X6908000Y-5792000D02*
X6808000Y-5892000D01*
X6858000Y-5792000D02*
X6858000Y-5892000D01*
X6808000Y-5842000D02*
X6908000Y-5842000D01*
X6808000Y-6046000D02*
X6908000Y-6146000D01*
X6908000Y-6046000D02*
X6808000Y-6146000D01*
X6858000Y-6046000D02*
X6858000Y-6146000D01*
X6808000Y-6096000D02*
X6908000Y-6096000D01*
X6808000Y-6300000D02*
X6908000Y-6400000D01*
X6908000Y-6300000D02*
X6808000Y-6400000D01*
X6858000Y-6300000D02*
X6858000Y-6400000D01*
X6808000Y-6350000D02*
X6908000Y-6350000D01*
X6808000Y-6554000D02*
X6908000Y-6654000D01*
X6908000Y-6554000D02*
X6808000Y-6654000D01*
X6858000Y-6554000D02*
X6858000Y-6654000D01*
X6808000Y-6604000D02*
X6908000Y-6604000D01*
X6808000Y-6808000D02*
X6908000Y-6908000D01*
X6908000Y-6808000D02*
X6808000Y-6908000D01*
X6858000Y-6808000D02*
X6858000Y-6908000D01*
X6808000Y-6858000D02*
X6908000Y-6858000D01*
X6808000Y-7062000D02*
X6908000Y-7162000D01*
X6908000Y-7062000D02*
X6808000Y-7162000D01*
X6858000Y-7062000D02*
X6858000Y-7162000D01*
X6808000Y-7112000D02*
X6908000Y-7112000D01*
X6808000Y-7316000D02*
X6908000Y-7416000D01*
X6908000Y-7316000D02*
X6808000Y-7416000D01*
X6858000Y-7316000D02*
X6858000Y-7416000D01*
X6808000Y-7366000D02*
X6908000Y-7366000D01*
X6808000Y-7570000D02*
X6908000Y-7670000D01*
X6908000Y-7570000D02*
X6808000Y-7670000D01*
X6858000Y-7570000D02*
X6858000Y-7670000D01*
X6808000Y-7620000D02*
X6908000Y-7620000D01*
X6808000Y-7824000D02*
X6908000Y-7924000D01*
X6908000Y-7824000D02*
X6808000Y-7924000D01*
X6858000Y-7824000D02*
X6858000Y-7924000D01*
X6808000Y-7874000D02*
X6908000Y-7874000D01*
X6808000Y-8078000D02*
X6908000Y-8178000D01*
X6908000Y-8078000D02*
X6808000Y-8178000D01*
X6858000Y-8078000D02*
X6858000Y-8178000D01*
X6808000Y-8128000D02*
X6908000Y-8128000D01*
X6808000Y-8332000D02*
X6908000Y-8432000D01*
X6908000Y-8332000D02*
X6808000Y-8432000D01*
X6858000Y-8332000D02*
X6858000Y-8432000D01*
X6808000Y-8382000D02*
X6908000Y-8382000D01*
X6808000Y-8586000D02*
X6908000Y-8686000D01*
X6908000Y-8586000D02*
X6808000Y-8686000D01*
X6858000Y-8586000D02*
X6858000Y-8686000D01*
X6808000Y-8636000D02*
X6908000Y-8636000D01*
X6808000Y-8840000D02*
X6908000Y-8940000D01*
X6908000Y-8840000D02*
X6808000Y-8940000D01*
X6858000Y-8840000D02*
X6858000Y-8940000D01*
X6808000Y-8890000D02*
X6908000Y-8890000D01*
X6808000Y-9094000D02*
X6908000Y-9194000D01*
X6908000Y-9094000D02*
X6808000Y-9194000D01*
X6858000Y-9094000D02*
X6858000Y-9194000D01*
X6808000Y-9144000D02*
X6908000Y-9144000D01*
X6808000Y-9348000D02*
X6908000Y-9448000D01*
X6908000Y-9348000D02*
X6808000Y-9448000D01*
X6858000Y-9348000D02*
X6858000Y-9448000D01*
X6808000Y-9398000D02*
X6908000Y-9398000D01*
X7062000Y-5030000D02*
X7162000Y-5130000D01*
X7162000Y-5030000D02*
X7062000Y-5130000D01*
X7112000Y-5030000D02*
X7112000Y-5130000D01*
X7062000Y-5080000D02*
X7162000Y-5080000D01*
X7062000Y-5284000D02*
X7162000Y-5384000D01*
X7162000Y-5284000D02*
X7062000Y-5384000D01*
X7112000Y-5284000D02*
X7112000Y-5384000D01*
X7062000Y-5334000D02*
X7162000Y-5334000D01*
X7062000Y-5538000D02*
X7162000Y-5638000D01*
X7162000Y-5538000D02*
X7062000Y-5638000D01*
X7112000Y-5538000D02*
X7112000Y-5638000D01*
X7062000Y-5588000D02*
X7162000Y-5588000D01*
X7062000Y-5792000D02*
X7162000Y-5892000D01*
X7162000Y-5792000D02*
X7062000Y-5892000D01*
X7112000Y-5792000D02*
X7112000Y-5892000D01*
X7062000Y-5842000D02*
X7162000Y-5842000D01*
X7062000Y-6046000D02*
X7162000Y-6146000D01*
X7162000Y-6046000D02*
X7062000Y-6146000D01*
X7112000Y-6046000D02*
X7112000Y-6146000D01*
X7062000Y-6096000D02*
X7162000Y-6096000D01*
X7062000Y-6300000D02*
X7162000Y-6400000D01*
X7162000Y-6300000D02*
X7062000Y-6400000D01*
X7112000Y-6300000D02*
X7112000Y-6400000D01*
X7062000Y-6350000D02*
X7162000Y-6350000D01*
X7062000Y-6554000D02*
X7162000Y-6654000D01*
X7162000Y-6554000D02*
X7062000Y-6654000D01*
X7112000Y-6554000D02*
X7112000Y-6654000D01*
X7062000Y-6604000D02*
X7162000Y-6604000D01*
X7062000Y-6808000D02*
X7162000Y-6908000D01*
X7162000Y-6808000D02*
X7062000Y-6908000D01*
X7112000Y-6808000D02*
X7112000Y-6908000D01*
X7062000Y-6858000D02*
X7162000Y-6858000D01*
X7062000Y-7062000D02*
X7162000Y-7162000D01*
X7162000Y-7062000D02*
X7062000Y-7162000D01*
X7112000Y-7062000D02*
X7112000Y-7162000D01*
X7062000Y-7112000D02*
X7162000Y-7112000D01*
X7062000Y-7316000D02*
X7162000Y-7416000D01*
X7162000Y-7316000D02*
X7062000Y-7416000D01*
X7112000Y-7316000D02*
X7112000Y-7416000D01*
X7062000Y-7366000D02*
X7162000Y-7366000D01*
X7062000Y-7570000D02*
X7162000Y-7670000D01*
X7162000Y-7570000D02*
X7062000Y-7670000D01*
X7112000Y-7570000D02*
X7112000Y-7670000D01*
X7062000Y-7620000D02*
X7162000Y-7620000D01*
X7062000Y-7824000D02*
X7162000Y-7924000D01*
X7162000Y-7824000D02*
X7062000Y-7924000D01*
X7112000Y-7824000D02*
X7112000Y-7924000D01*
X7062000Y-7874000D02*
X7162000Y-7874000D01*
X7062000Y-8078000D02*
X7162000Y-8178000D01*
X7162000Y-8078000D02*
X7062000Y-8178000D01*
X7112000Y-8078000D02*
X7112000Y-8178000D01*
X7062000Y-8128000D02*
X7162000Y-8128000D01*
X7062000Y-8332000D02*
X7162000Y-8432000D01*
X7162000Y-8332000D02*
X7062000Y-8432000D01*
X7112000Y-8332000D02*
X7112000Y-8432000D01*
X7062000Y-8382000D02*
X7162000Y-8382000D01*
X7062000Y-8586000D02*
X7162000Y-8686000D01*
X7162000Y-8586000D02*
X7062000Y-8686000D01*
X7112000Y-8586000D02*
X7112000Y-8686000D01*
X7062000Y-8636000D02*
X7162000Y-8636000D01*
X7062000Y-8840000D02*
X7162000Y-8940000D01*
X7162000Y-8840000D02*
X7062000Y-8940000D01*
X7112000Y-8840000D02*
X7112000Y-8940000D01*
X7062000Y-8890000D02*
X7162000Y-8890000D01*
X7062000Y-9094000D02*
X7162000Y-9194000D01*
X7162000Y-9094000D02*
X7062000Y-9194000D01*
X7112000Y-9094000D02*
X7112000Y-9194000D01*
X7062000Y-9144000D02*
X7162000Y-9144000D01*
X7062000Y-9348000D02*
X7162000Y-9448000D01*
X7162000Y-9348000D02*
X7062000Y-9448000D01*
X7112000Y-9348000D02*
X7112000Y-9448000D01*
X7062000Y-9398000D02*
X7162000Y-9398000D01*
X7062000Y-14910600D02*
X7162000Y-15010600D01*
X7162000Y-14910600D02*
X7062000Y-15010600D01*
X7112000Y-14910600D02*
X7112000Y-15010600D01*
X7062000Y-14960600D02*
X7162000Y-14960600D01*
X7316000Y-14910600D02*
X7416000Y-15010600D01*
X7416000Y-14910600D02*
X7316000Y-15010600D01*
X7366000Y-14910600D02*
X7366000Y-15010600D01*
X7316000Y-14960600D02*
X7416000Y-14960600D01*
X7343940Y-10446050D02*
X7443940Y-10546050D01*
X7443940Y-10446050D02*
X7343940Y-10546050D01*
X7393940Y-10446050D02*
X7393940Y-10546050D01*
X7343940Y-10496050D02*
X7443940Y-10496050D01*
D11*
X7343940Y-10396050D02*
X7343940Y-10596050D01*
X7443940Y-10396050D02*
X7443940Y-10596050D01*
X7343940Y-10596050D02*
G75*
G03*
X7443940Y-10596050I50000J0D01*
G01*
X7443940Y-10396050D02*
G75*
G03*
X7343940Y-10396050I-50000J0D01*
G01*
D10*
X7570000Y-14910600D02*
X7670000Y-15010600D01*
X7670000Y-14910600D02*
X7570000Y-15010600D01*
X7620000Y-14910600D02*
X7620000Y-15010600D01*
X7570000Y-14960600D02*
X7670000Y-14960600D01*
X7643940Y-10916050D02*
X7743940Y-11016050D01*
X7743940Y-10916050D02*
X7643940Y-11016050D01*
X7693940Y-10916050D02*
X7693940Y-11016050D01*
X7643940Y-10966050D02*
X7743940Y-10966050D01*
D11*
X7593940Y-11016050D02*
X7793940Y-11016050D01*
X7593940Y-10916050D02*
X7793940Y-10916050D01*
X7793940Y-11016050D02*
G75*
G03*
X7793940Y-10916050I0J50000D01*
G01*
X7593940Y-10916050D02*
G75*
G03*
X7593940Y-11016050I0J-50000D01*
G01*
D10*
X7808600Y-9338000D02*
X7908600Y-9438000D01*
X7908600Y-9338000D02*
X7808600Y-9438000D01*
X7858600Y-9338000D02*
X7858600Y-9438000D01*
X7808600Y-9388000D02*
X7908600Y-9388000D01*
X7824000Y-14910600D02*
X7924000Y-15010600D01*
X7924000Y-14910600D02*
X7824000Y-15010600D01*
X7874000Y-14910600D02*
X7874000Y-15010600D01*
X7824000Y-14960600D02*
X7924000Y-14960600D01*
X7943940Y-10446050D02*
X8043940Y-10546050D01*
X8043940Y-10446050D02*
X7943940Y-10546050D01*
X7993940Y-10446050D02*
X7993940Y-10546050D01*
X7943940Y-10496050D02*
X8043940Y-10496050D01*
D11*
X7943940Y-10396050D02*
X7943940Y-10596050D01*
X8043940Y-10396050D02*
X8043940Y-10596050D01*
X7943940Y-10596050D02*
G75*
G03*
X8043940Y-10596050I50000J0D01*
G01*
X8043940Y-10396050D02*
G75*
G03*
X7943940Y-10396050I-50000J0D01*
G01*
D10*
X8062600Y-9338000D02*
X8162600Y-9438000D01*
X8162600Y-9338000D02*
X8062600Y-9438000D01*
X8112600Y-9338000D02*
X8112600Y-9438000D01*
X8062600Y-9388000D02*
X8162600Y-9388000D01*
X8078000Y-14910600D02*
X8178000Y-15010600D01*
X8178000Y-14910600D02*
X8078000Y-15010600D01*
X8128000Y-14910600D02*
X8128000Y-15010600D01*
X8078000Y-14960600D02*
X8178000Y-14960600D01*
X8332000Y-14910600D02*
X8432000Y-15010600D01*
X8432000Y-14910600D02*
X8332000Y-15010600D01*
X8382000Y-14910600D02*
X8382000Y-15010600D01*
X8332000Y-14960600D02*
X8432000Y-14960600D01*
X8586000Y-14910600D02*
X8686000Y-15010600D01*
X8686000Y-14910600D02*
X8586000Y-15010600D01*
X8636000Y-14910600D02*
X8636000Y-15010600D01*
X8586000Y-14960600D02*
X8686000Y-14960600D01*
X8840000Y-14910600D02*
X8940000Y-15010600D01*
X8940000Y-14910600D02*
X8840000Y-15010600D01*
X8890000Y-14910600D02*
X8890000Y-15010600D01*
X8840000Y-14960600D02*
X8940000Y-14960600D01*
X9094000Y-14910600D02*
X9194000Y-15010600D01*
X9194000Y-14910600D02*
X9094000Y-15010600D01*
X9144000Y-14910600D02*
X9144000Y-15010600D01*
X9094000Y-14960600D02*
X9194000Y-14960600D01*
X9345600Y-8420900D02*
X9445600Y-8520900D01*
X9445600Y-8420900D02*
X9345600Y-8520900D01*
X9395600Y-8420900D02*
X9395600Y-8520900D01*
X9345600Y-8470900D02*
X9445600Y-8470900D01*
X9348000Y-14910600D02*
X9448000Y-15010600D01*
X9448000Y-14910600D02*
X9348000Y-15010600D01*
X9398000Y-14910600D02*
X9398000Y-15010600D01*
X9348000Y-14960600D02*
X9448000Y-14960600D01*
X9595089Y-11410239D02*
X9695089Y-11510239D01*
X9695089Y-11410239D02*
X9595089Y-11510239D01*
X9645089Y-11410239D02*
X9645089Y-11510239D01*
X9595089Y-11460239D02*
X9695089Y-11460239D01*
X9599600Y-8420900D02*
X9699600Y-8520900D01*
X9699600Y-8420900D02*
X9599600Y-8520900D01*
X9649600Y-8420900D02*
X9649600Y-8520900D01*
X9599600Y-8470900D02*
X9699600Y-8470900D01*
X9602000Y-14910600D02*
X9702000Y-15010600D01*
X9702000Y-14910600D02*
X9602000Y-15010600D01*
X9652000Y-14910600D02*
X9652000Y-15010600D01*
X9602000Y-14960600D02*
X9702000Y-14960600D01*
X9849089Y-11410239D02*
X9949089Y-11510239D01*
X9949089Y-11410239D02*
X9849089Y-11510239D01*
X9899089Y-11410239D02*
X9899089Y-11510239D01*
X9849089Y-11460239D02*
X9949089Y-11460239D01*
X9853600Y-8420900D02*
X9953600Y-8520900D01*
X9953600Y-8420900D02*
X9853600Y-8520900D01*
X9903600Y-8420900D02*
X9903600Y-8520900D01*
X9853600Y-8470900D02*
X9953600Y-8470900D01*
X9856000Y-14910600D02*
X9956000Y-15010600D01*
X9956000Y-14910600D02*
X9856000Y-15010600D01*
X9906000Y-14910600D02*
X9906000Y-15010600D01*
X9856000Y-14960600D02*
X9956000Y-14960600D01*
X10107600Y-8420900D02*
X10207600Y-8520900D01*
X10207600Y-8420900D02*
X10107600Y-8520900D01*
X10157600Y-8420900D02*
X10157600Y-8520900D01*
X10107600Y-8470900D02*
X10207600Y-8470900D01*
X10110000Y-14910600D02*
X10210000Y-15010600D01*
X10210000Y-14910600D02*
X10110000Y-15010600D01*
X10160000Y-14910600D02*
X10160000Y-15010600D01*
X10110000Y-14960600D02*
X10210000Y-14960600D01*
X10361600Y-8420900D02*
X10461600Y-8520900D01*
X10461600Y-8420900D02*
X10361600Y-8520900D01*
X10411600Y-8420900D02*
X10411600Y-8520900D01*
X10361600Y-8470900D02*
X10461600Y-8470900D01*
X10364000Y-14910600D02*
X10464000Y-15010600D01*
X10464000Y-14910600D02*
X10364000Y-15010600D01*
X10414000Y-14910600D02*
X10414000Y-15010600D01*
X10364000Y-14960600D02*
X10464000Y-14960600D01*
X10611089Y-11410239D02*
X10711089Y-11510239D01*
X10711089Y-11410239D02*
X10611089Y-11510239D01*
X10661089Y-11410239D02*
X10661089Y-11510239D01*
X10611089Y-11460239D02*
X10711089Y-11460239D01*
X10615600Y-8420900D02*
X10715600Y-8520900D01*
X10715600Y-8420900D02*
X10615600Y-8520900D01*
X10665600Y-8420900D02*
X10665600Y-8520900D01*
X10615600Y-8470900D02*
X10715600Y-8470900D01*
X10618000Y-14910600D02*
X10718000Y-15010600D01*
X10718000Y-14910600D02*
X10618000Y-15010600D01*
X10668000Y-14910600D02*
X10668000Y-15010600D01*
X10618000Y-14960600D02*
X10718000Y-14960600D01*
X10869600Y-8420900D02*
X10969600Y-8520900D01*
X10969600Y-8420900D02*
X10869600Y-8520900D01*
X10919600Y-8420900D02*
X10919600Y-8520900D01*
X10869600Y-8470900D02*
X10969600Y-8470900D01*
X10872000Y-14910600D02*
X10972000Y-15010600D01*
X10972000Y-14910600D02*
X10872000Y-15010600D01*
X10922000Y-14910600D02*
X10922000Y-15010600D01*
X10872000Y-14960600D02*
X10972000Y-14960600D01*
X11123600Y-8420900D02*
X11223600Y-8520900D01*
X11223600Y-8420900D02*
X11123600Y-8520900D01*
X11173600Y-8420900D02*
X11173600Y-8520900D01*
X11123600Y-8470900D02*
X11223600Y-8470900D01*
X11126000Y-14910600D02*
X11226000Y-15010600D01*
X11226000Y-14910600D02*
X11126000Y-15010600D01*
X11176000Y-14910600D02*
X11176000Y-15010600D01*
X11126000Y-14960600D02*
X11226000Y-14960600D01*
X11377600Y-8420900D02*
X11477600Y-8520900D01*
X11477600Y-8420900D02*
X11377600Y-8520900D01*
X11427600Y-8420900D02*
X11427600Y-8520900D01*
X11377600Y-8470900D02*
X11477600Y-8470900D01*
X11380000Y-14910600D02*
X11480000Y-15010600D01*
X11480000Y-14910600D02*
X11380000Y-15010600D01*
X11430000Y-14910600D02*
X11430000Y-15010600D01*
X11380000Y-14960600D02*
X11480000Y-14960600D01*
X11631600Y-8420900D02*
X11731600Y-8520900D01*
X11731600Y-8420900D02*
X11631600Y-8520900D01*
X11681600Y-8420900D02*
X11681600Y-8520900D01*
X11631600Y-8470900D02*
X11731600Y-8470900D01*
X11634000Y-14910600D02*
X11734000Y-15010600D01*
X11734000Y-14910600D02*
X11634000Y-15010600D01*
X11684000Y-14910600D02*
X11684000Y-15010600D01*
X11634000Y-14960600D02*
X11734000Y-14960600D01*
X11885600Y-8420900D02*
X11985600Y-8520900D01*
X11985600Y-8420900D02*
X11885600Y-8520900D01*
X11935600Y-8420900D02*
X11935600Y-8520900D01*
X11885600Y-8470900D02*
X11985600Y-8470900D01*
X11888000Y-14910600D02*
X11988000Y-15010600D01*
X11988000Y-14910600D02*
X11888000Y-15010600D01*
X11938000Y-14910600D02*
X11938000Y-15010600D01*
X11888000Y-14960600D02*
X11988000Y-14960600D01*
X12135089Y-11410239D02*
X12235089Y-11510239D01*
X12235089Y-11410239D02*
X12135089Y-11510239D01*
X12185089Y-11410239D02*
X12185089Y-11510239D01*
X12135089Y-11460239D02*
X12235089Y-11460239D01*
X12139600Y-8420900D02*
X12239600Y-8520900D01*
X12239600Y-8420900D02*
X12139600Y-8520900D01*
X12189600Y-8420900D02*
X12189600Y-8520900D01*
X12139600Y-8470900D02*
X12239600Y-8470900D01*
X12142000Y-14910600D02*
X12242000Y-15010600D01*
X12242000Y-14910600D02*
X12142000Y-15010600D01*
X12192000Y-14910600D02*
X12192000Y-15010600D01*
X12142000Y-14960600D02*
X12242000Y-14960600D01*
X12389089Y-11410239D02*
X12489089Y-11510239D01*
X12489089Y-11410239D02*
X12389089Y-11510239D01*
X12439089Y-11410239D02*
X12439089Y-11510239D01*
X12389089Y-11460239D02*
X12489089Y-11460239D01*
X12393600Y-8420900D02*
X12493600Y-8520900D01*
X12493600Y-8420900D02*
X12393600Y-8520900D01*
X12443600Y-8420900D02*
X12443600Y-8520900D01*
X12393600Y-8470900D02*
X12493600Y-8470900D01*
X12396000Y-14910600D02*
X12496000Y-15010600D01*
X12496000Y-14910600D02*
X12396000Y-15010600D01*
X12446000Y-14910600D02*
X12446000Y-15010600D01*
X12396000Y-14960600D02*
X12496000Y-14960600D01*
X12643089Y-11410239D02*
X12743089Y-11510239D01*
X12743089Y-11410239D02*
X12643089Y-11510239D01*
X12693089Y-11410239D02*
X12693089Y-11510239D01*
X12643089Y-11460239D02*
X12743089Y-11460239D01*
X12647600Y-8420900D02*
X12747600Y-8520900D01*
X12747600Y-8420900D02*
X12647600Y-8520900D01*
X12697600Y-8420900D02*
X12697600Y-8520900D01*
X12647600Y-8470900D02*
X12747600Y-8470900D01*
X12650000Y-14910600D02*
X12750000Y-15010600D01*
X12750000Y-14910600D02*
X12650000Y-15010600D01*
X12700000Y-14910600D02*
X12700000Y-15010600D01*
X12650000Y-14960600D02*
X12750000Y-14960600D01*
X12901600Y-8420900D02*
X13001600Y-8520900D01*
X13001600Y-8420900D02*
X12901600Y-8520900D01*
X12951600Y-8420900D02*
X12951600Y-8520900D01*
X12901600Y-8470900D02*
X13001600Y-8470900D01*
X12904000Y-14910600D02*
X13004000Y-15010600D01*
X13004000Y-14910600D02*
X12904000Y-15010600D01*
X12954000Y-14910600D02*
X12954000Y-15010600D01*
X12904000Y-14960600D02*
X13004000Y-14960600D01*
X13155600Y-8420900D02*
X13255600Y-8520900D01*
X13255600Y-8420900D02*
X13155600Y-8520900D01*
X13205600Y-8420900D02*
X13205600Y-8520900D01*
X13155600Y-8470900D02*
X13255600Y-8470900D01*
X13158000Y-14910600D02*
X13258000Y-15010600D01*
X13258000Y-14910600D02*
X13158000Y-15010600D01*
X13208000Y-14910600D02*
X13208000Y-15010600D01*
X13158000Y-14960600D02*
X13258000Y-14960600D01*
X13409600Y-8420900D02*
X13509600Y-8520900D01*
X13509600Y-8420900D02*
X13409600Y-8520900D01*
X13459600Y-8420900D02*
X13459600Y-8520900D01*
X13409600Y-8470900D02*
X13509600Y-8470900D01*
X13412000Y-14910600D02*
X13512000Y-15010600D01*
X13512000Y-14910600D02*
X13412000Y-15010600D01*
X13462000Y-14910600D02*
X13462000Y-15010600D01*
X13412000Y-14960600D02*
X13512000Y-14960600D01*
X13663600Y-8420900D02*
X13763600Y-8520900D01*
X13763600Y-8420900D02*
X13663600Y-8520900D01*
X13713600Y-8420900D02*
X13713600Y-8520900D01*
X13663600Y-8470900D02*
X13763600Y-8470900D01*
X13666000Y-14910600D02*
X13766000Y-15010600D01*
X13766000Y-14910600D02*
X13666000Y-15010600D01*
X13716000Y-14910600D02*
X13716000Y-15010600D01*
X13666000Y-14960600D02*
X13766000Y-14960600D01*
X13917600Y-8420900D02*
X14017600Y-8520900D01*
X14017600Y-8420900D02*
X13917600Y-8520900D01*
X13967600Y-8420900D02*
X13967600Y-8520900D01*
X13917600Y-8470900D02*
X14017600Y-8470900D01*
X13920000Y-14910600D02*
X14020000Y-15010600D01*
X14020000Y-14910600D02*
X13920000Y-15010600D01*
X13970000Y-14910600D02*
X13970000Y-15010600D01*
X13920000Y-14960600D02*
X14020000Y-14960600D01*
X14171600Y-8420900D02*
X14271600Y-8520900D01*
X14271600Y-8420900D02*
X14171600Y-8520900D01*
X14221600Y-8420900D02*
X14221600Y-8520900D01*
X14171600Y-8470900D02*
X14271600Y-8470900D01*
X14174000Y-14910600D02*
X14274000Y-15010600D01*
X14274000Y-14910600D02*
X14174000Y-15010600D01*
X14224000Y-14910600D02*
X14224000Y-15010600D01*
X14174000Y-14960600D02*
X14274000Y-14960600D01*
X14425600Y-8420900D02*
X14525600Y-8520900D01*
X14525600Y-8420900D02*
X14425600Y-8520900D01*
X14475600Y-8420900D02*
X14475600Y-8520900D01*
X14425600Y-8470900D02*
X14525600Y-8470900D01*
X14428000Y-14910600D02*
X14528000Y-15010600D01*
X14528000Y-14910600D02*
X14428000Y-15010600D01*
X14478000Y-14910600D02*
X14478000Y-15010600D01*
X14428000Y-14960600D02*
X14528000Y-14960600D01*
X14679600Y-8420900D02*
X14779600Y-8520900D01*
X14779600Y-8420900D02*
X14679600Y-8520900D01*
X14729600Y-8420900D02*
X14729600Y-8520900D01*
X14679600Y-8470900D02*
X14779600Y-8470900D01*
X14682000Y-14910600D02*
X14782000Y-15010600D01*
X14782000Y-14910600D02*
X14682000Y-15010600D01*
X14732000Y-14910600D02*
X14732000Y-15010600D01*
X14682000Y-14960600D02*
X14782000Y-14960600D01*
X14933600Y-8420900D02*
X15033600Y-8520900D01*
X15033600Y-8420900D02*
X14933600Y-8520900D01*
X14983600Y-8420900D02*
X14983600Y-8520900D01*
X14933600Y-8470900D02*
X15033600Y-8470900D01*
X14936000Y-14910600D02*
X15036000Y-15010600D01*
X15036000Y-14910600D02*
X14936000Y-15010600D01*
X14986000Y-14910600D02*
X14986000Y-15010600D01*
X14936000Y-14960600D02*
X15036000Y-14960600D01*
X15187600Y-8420900D02*
X15287600Y-8520900D01*
X15287600Y-8420900D02*
X15187600Y-8520900D01*
X15237600Y-8420900D02*
X15237600Y-8520900D01*
X15187600Y-8470900D02*
X15287600Y-8470900D01*
X15190000Y-14910600D02*
X15290000Y-15010600D01*
X15290000Y-14910600D02*
X15190000Y-15010600D01*
X15240000Y-14910600D02*
X15240000Y-15010600D01*
X15190000Y-14960600D02*
X15290000Y-14960600D01*
X15441600Y-8420900D02*
X15541600Y-8520900D01*
X15541600Y-8420900D02*
X15441600Y-8520900D01*
X15491600Y-8420900D02*
X15491600Y-8520900D01*
X15441600Y-8470900D02*
X15541600Y-8470900D01*
X15444000Y-14910600D02*
X15544000Y-15010600D01*
X15544000Y-14910600D02*
X15444000Y-15010600D01*
X15494000Y-14910600D02*
X15494000Y-15010600D01*
X15444000Y-14960600D02*
X15544000Y-14960600D01*
X15695600Y-8420900D02*
X15795600Y-8520900D01*
X15795600Y-8420900D02*
X15695600Y-8520900D01*
X15745600Y-8420900D02*
X15745600Y-8520900D01*
X15695600Y-8470900D02*
X15795600Y-8470900D01*
X15698000Y-14910600D02*
X15798000Y-15010600D01*
X15798000Y-14910600D02*
X15698000Y-15010600D01*
X15748000Y-14910600D02*
X15748000Y-15010600D01*
X15698000Y-14960600D02*
X15798000Y-14960600D01*
X15949600Y-8420900D02*
X16049600Y-8520900D01*
X16049600Y-8420900D02*
X15949600Y-8520900D01*
X15999600Y-8420900D02*
X15999600Y-8520900D01*
X15949600Y-8470900D02*
X16049600Y-8470900D01*
X15952000Y-14910600D02*
X16052000Y-15010600D01*
X16052000Y-14910600D02*
X15952000Y-15010600D01*
X16002000Y-14910600D02*
X16002000Y-15010600D01*
X15952000Y-14960600D02*
X16052000Y-14960600D01*
X16203600Y-8420900D02*
X16303600Y-8520900D01*
X16303600Y-8420900D02*
X16203600Y-8520900D01*
X16253600Y-8420900D02*
X16253600Y-8520900D01*
X16203600Y-8470900D02*
X16303600Y-8470900D01*
X16206000Y-14910600D02*
X16306000Y-15010600D01*
X16306000Y-14910600D02*
X16206000Y-15010600D01*
X16256000Y-14910600D02*
X16256000Y-15010600D01*
X16206000Y-14960600D02*
X16306000Y-14960600D01*
X16457600Y-8420900D02*
X16557600Y-8520900D01*
X16557600Y-8420900D02*
X16457600Y-8520900D01*
X16507600Y-8420900D02*
X16507600Y-8520900D01*
X16457600Y-8470900D02*
X16557600Y-8470900D01*
X16460000Y-14910600D02*
X16560000Y-15010600D01*
X16560000Y-14910600D02*
X16460000Y-15010600D01*
X16510000Y-14910600D02*
X16510000Y-15010600D01*
X16460000Y-14960600D02*
X16560000Y-14960600D01*
X16462500Y-9603000D02*
X16562500Y-9703000D01*
X16562500Y-9603000D02*
X16462500Y-9703000D01*
X16512500Y-9603000D02*
X16512500Y-9703000D01*
X16462500Y-9653000D02*
X16562500Y-9653000D01*
X16462500Y-9857000D02*
X16562500Y-9957000D01*
X16562500Y-9857000D02*
X16462500Y-9957000D01*
X16512500Y-9857000D02*
X16512500Y-9957000D01*
X16462500Y-9907000D02*
X16562500Y-9907000D01*
X16462500Y-10111000D02*
X16562500Y-10211000D01*
X16562500Y-10111000D02*
X16462500Y-10211000D01*
X16512500Y-10111000D02*
X16512500Y-10211000D01*
X16462500Y-10161000D02*
X16562500Y-10161000D01*
X16462500Y-10365000D02*
X16562500Y-10465000D01*
X16562500Y-10365000D02*
X16462500Y-10465000D01*
X16512500Y-10365000D02*
X16512500Y-10465000D01*
X16462500Y-10415000D02*
X16562500Y-10415000D01*
X16711600Y-8420900D02*
X16811600Y-8520900D01*
X16811600Y-8420900D02*
X16711600Y-8520900D01*
X16761600Y-8420900D02*
X16761600Y-8520900D01*
X16711600Y-8470900D02*
X16811600Y-8470900D01*
X16714000Y-14910600D02*
X16814000Y-15010600D01*
X16814000Y-14910600D02*
X16714000Y-15010600D01*
X16764000Y-14910600D02*
X16764000Y-15010600D01*
X16714000Y-14960600D02*
X16814000Y-14960600D01*
X16965600Y-8420900D02*
X17065600Y-8520900D01*
X17065600Y-8420900D02*
X16965600Y-8520900D01*
X17015600Y-8420900D02*
X17015600Y-8520900D01*
X16965600Y-8470900D02*
X17065600Y-8470900D01*
X16968000Y-14910600D02*
X17068000Y-15010600D01*
X17068000Y-14910600D02*
X16968000Y-15010600D01*
X17018000Y-14910600D02*
X17018000Y-15010600D01*
X16968000Y-14960600D02*
X17068000Y-14960600D01*
X17219600Y-8420900D02*
X17319600Y-8520900D01*
X17319600Y-8420900D02*
X17219600Y-8520900D01*
X17269600Y-8420900D02*
X17269600Y-8520900D01*
X17219600Y-8470900D02*
X17319600Y-8470900D01*
X17473600Y-8420900D02*
X17573600Y-8520900D01*
X17573600Y-8420900D02*
X17473600Y-8520900D01*
X17523600Y-8420900D02*
X17523600Y-8520900D01*
X17473600Y-8470900D02*
X17573600Y-8470900D01*
X17476000Y-14910600D02*
X17576000Y-15010600D01*
X17576000Y-14910600D02*
X17476000Y-15010600D01*
X17526000Y-14910600D02*
X17526000Y-15010600D01*
X17476000Y-14960600D02*
X17576000Y-14960600D01*
X17727600Y-8420900D02*
X17827600Y-8520900D01*
X17827600Y-8420900D02*
X17727600Y-8520900D01*
X17777600Y-8420900D02*
X17777600Y-8520900D01*
X17727600Y-8470900D02*
X17827600Y-8470900D01*
X17730000Y-14910600D02*
X17830000Y-15010600D01*
X17830000Y-14910600D02*
X17730000Y-15010600D01*
X17780000Y-14910600D02*
X17780000Y-15010600D01*
X17730000Y-14960600D02*
X17830000Y-14960600D01*
X17857000Y-9602000D02*
X17957000Y-9702000D01*
X17957000Y-9602000D02*
X17857000Y-9702000D01*
X17907000Y-9602000D02*
X17907000Y-9702000D01*
X17857000Y-9652000D02*
X17957000Y-9652000D01*
X17857000Y-9856000D02*
X17957000Y-9956000D01*
X17957000Y-9856000D02*
X17857000Y-9956000D01*
X17907000Y-9856000D02*
X17907000Y-9956000D01*
X17857000Y-9906000D02*
X17957000Y-9906000D01*
X17857000Y-10110000D02*
X17957000Y-10210000D01*
X17957000Y-10110000D02*
X17857000Y-10210000D01*
X17907000Y-10110000D02*
X17907000Y-10210000D01*
X17857000Y-10160000D02*
X17957000Y-10160000D01*
X17981600Y-8420900D02*
X18081600Y-8520900D01*
X18081600Y-8420900D02*
X17981600Y-8520900D01*
X18031600Y-8420900D02*
X18031600Y-8520900D01*
X17981600Y-8470900D02*
X18081600Y-8470900D01*
X17984000Y-14910600D02*
X18084000Y-15010600D01*
X18084000Y-14910600D02*
X17984000Y-15010600D01*
X18034000Y-14910600D02*
X18034000Y-15010600D01*
X17984000Y-14960600D02*
X18084000Y-14960600D01*
X18235600Y-8420900D02*
X18335600Y-8520900D01*
X18335600Y-8420900D02*
X18235600Y-8520900D01*
X18285600Y-8420900D02*
X18285600Y-8520900D01*
X18235600Y-8470900D02*
X18335600Y-8470900D01*
X18238000Y-14910600D02*
X18338000Y-15010600D01*
X18338000Y-14910600D02*
X18238000Y-15010600D01*
X18288000Y-14910600D02*
X18288000Y-15010600D01*
X18238000Y-14960600D02*
X18338000Y-14960600D01*
X18489600Y-8420900D02*
X18589600Y-8520900D01*
X18589600Y-8420900D02*
X18489600Y-8520900D01*
X18539600Y-8420900D02*
X18539600Y-8520900D01*
X18489600Y-8470900D02*
X18589600Y-8470900D01*
X18492000Y-14910600D02*
X18592000Y-15010600D01*
X18592000Y-14910600D02*
X18492000Y-15010600D01*
X18542000Y-14910600D02*
X18542000Y-15010600D01*
X18492000Y-14960600D02*
X18592000Y-14960600D01*
X18743600Y-8420900D02*
X18843600Y-8520900D01*
X18843600Y-8420900D02*
X18743600Y-8520900D01*
X18793600Y-8420900D02*
X18793600Y-8520900D01*
X18743600Y-8470900D02*
X18843600Y-8470900D01*
X18746000Y-14910600D02*
X18846000Y-15010600D01*
X18846000Y-14910600D02*
X18746000Y-15010600D01*
X18796000Y-14910600D02*
X18796000Y-15010600D01*
X18746000Y-14960600D02*
X18846000Y-14960600D01*
X18997600Y-8420900D02*
X19097600Y-8520900D01*
X19097600Y-8420900D02*
X18997600Y-8520900D01*
X19047600Y-8420900D02*
X19047600Y-8520900D01*
X18997600Y-8470900D02*
X19097600Y-8470900D01*
X19180300Y-9604000D02*
X19280300Y-9704000D01*
X19280300Y-9604000D02*
X19180300Y-9704000D01*
X19230300Y-9604000D02*
X19230300Y-9704000D01*
X19180300Y-9654000D02*
X19280300Y-9654000D01*
X19180300Y-9858000D02*
X19280300Y-9958000D01*
X19280300Y-9858000D02*
X19180300Y-9958000D01*
X19230300Y-9858000D02*
X19230300Y-9958000D01*
X19180300Y-9908000D02*
X19280300Y-9908000D01*
X19251600Y-8420900D02*
X19351600Y-8520900D01*
X19351600Y-8420900D02*
X19251600Y-8520900D01*
X19301600Y-8420900D02*
X19301600Y-8520900D01*
X19251600Y-8470900D02*
X19351600Y-8470900D01*
X19254000Y-14910600D02*
X19354000Y-15010600D01*
X19354000Y-14910600D02*
X19254000Y-15010600D01*
X19304000Y-14910600D02*
X19304000Y-15010600D01*
X19254000Y-14960600D02*
X19354000Y-14960600D01*
X19505600Y-8420900D02*
X19605600Y-8520900D01*
X19605600Y-8420900D02*
X19505600Y-8520900D01*
X19555600Y-8420900D02*
X19555600Y-8520900D01*
X19505600Y-8470900D02*
X19605600Y-8470900D01*
X19508000Y-14910600D02*
X19608000Y-15010600D01*
X19608000Y-14910600D02*
X19508000Y-15010600D01*
X19558000Y-14910600D02*
X19558000Y-15010600D01*
X19508000Y-14960600D02*
X19608000Y-14960600D01*
X19759600Y-8420900D02*
X19859600Y-8520900D01*
X19859600Y-8420900D02*
X19759600Y-8520900D01*
X19809600Y-8420900D02*
X19809600Y-8520900D01*
X19759600Y-8470900D02*
X19859600Y-8470900D01*
X19762000Y-14910600D02*
X19862000Y-15010600D01*
X19862000Y-14910600D02*
X19762000Y-15010600D01*
X19812000Y-14910600D02*
X19812000Y-15010600D01*
X19762000Y-14960600D02*
X19862000Y-14960600D01*
X20013600Y-8420900D02*
X20113600Y-8520900D01*
X20113600Y-8420900D02*
X20013600Y-8520900D01*
X20063600Y-8420900D02*
X20063600Y-8520900D01*
X20013600Y-8470900D02*
X20113600Y-8470900D01*
X20016000Y-14910600D02*
X20116000Y-15010600D01*
X20116000Y-14910600D02*
X20016000Y-15010600D01*
X20066000Y-14910600D02*
X20066000Y-15010600D01*
X20016000Y-14960600D02*
X20116000Y-14960600D01*
X20267600Y-8420900D02*
X20367600Y-8520900D01*
X20367600Y-8420900D02*
X20267600Y-8520900D01*
X20317600Y-8420900D02*
X20317600Y-8520900D01*
X20267600Y-8470900D02*
X20367600Y-8470900D01*
X20270000Y-14910600D02*
X20370000Y-15010600D01*
X20370000Y-14910600D02*
X20270000Y-15010600D01*
X20320000Y-14910600D02*
X20320000Y-15010600D01*
X20270000Y-14960600D02*
X20370000Y-14960600D01*
X20521600Y-8420900D02*
X20621600Y-8520900D01*
X20621600Y-8420900D02*
X20521600Y-8520900D01*
X20571600Y-8420900D02*
X20571600Y-8520900D01*
X20521600Y-8470900D02*
X20621600Y-8470900D01*
X20524000Y-14910600D02*
X20624000Y-15010600D01*
X20624000Y-14910600D02*
X20524000Y-15010600D01*
X20574000Y-14910600D02*
X20574000Y-15010600D01*
X20524000Y-14960600D02*
X20624000Y-14960600D01*
X20775600Y-8420900D02*
X20875600Y-8520900D01*
X20875600Y-8420900D02*
X20775600Y-8520900D01*
X20825600Y-8420900D02*
X20825600Y-8520900D01*
X20775600Y-8470900D02*
X20875600Y-8470900D01*
X20778000Y-14910600D02*
X20878000Y-15010600D01*
X20878000Y-14910600D02*
X20778000Y-15010600D01*
X20828000Y-14910600D02*
X20828000Y-15010600D01*
X20778000Y-14960600D02*
X20878000Y-14960600D01*
X21029600Y-8420900D02*
X21129600Y-8520900D01*
X21129600Y-8420900D02*
X21029600Y-8520900D01*
X21079600Y-8420900D02*
X21079600Y-8520900D01*
X21029600Y-8470900D02*
X21129600Y-8470900D01*
X21032000Y-14910600D02*
X21132000Y-15010600D01*
X21132000Y-14910600D02*
X21032000Y-15010600D01*
X21082000Y-14910600D02*
X21082000Y-15010600D01*
X21032000Y-14960600D02*
X21132000Y-14960600D01*
X21283600Y-8420900D02*
X21383600Y-8520900D01*
X21383600Y-8420900D02*
X21283600Y-8520900D01*
X21333600Y-8420900D02*
X21333600Y-8520900D01*
X21283600Y-8470900D02*
X21383600Y-8470900D01*
X21286000Y-14910600D02*
X21386000Y-15010600D01*
X21386000Y-14910600D02*
X21286000Y-15010600D01*
X21336000Y-14910600D02*
X21336000Y-15010600D01*
X21286000Y-14960600D02*
X21386000Y-14960600D01*
X21537600Y-8420900D02*
X21637600Y-8520900D01*
X21637600Y-8420900D02*
X21537600Y-8520900D01*
X21587600Y-8420900D02*
X21587600Y-8520900D01*
X21537600Y-8470900D02*
X21637600Y-8470900D01*
X21540000Y-14910600D02*
X21640000Y-15010600D01*
X21640000Y-14910600D02*
X21540000Y-15010600D01*
X21590000Y-14910600D02*
X21590000Y-15010600D01*
X21540000Y-14960600D02*
X21640000Y-14960600D01*
X21791600Y-8420900D02*
X21891600Y-8520900D01*
X21891600Y-8420900D02*
X21791600Y-8520900D01*
X21841600Y-8420900D02*
X21841600Y-8520900D01*
X21791600Y-8470900D02*
X21891600Y-8470900D01*
X21794000Y-14910600D02*
X21894000Y-15010600D01*
X21894000Y-14910600D02*
X21794000Y-15010600D01*
X21844000Y-14910600D02*
X21844000Y-15010600D01*
X21794000Y-14960600D02*
X21894000Y-14960600D01*
X22048000Y-14910600D02*
X22148000Y-15010600D01*
X22148000Y-14910600D02*
X22048000Y-15010600D01*
X22098000Y-14910600D02*
X22098000Y-15010600D01*
X22048000Y-14960600D02*
X22148000Y-14960600D01*
X22302000Y-14910600D02*
X22402000Y-15010600D01*
X22402000Y-14910600D02*
X22302000Y-15010600D01*
X22352000Y-14910600D02*
X22352000Y-15010600D01*
X22302000Y-14960600D02*
X22402000Y-14960600D01*
X22556000Y-14910600D02*
X22656000Y-15010600D01*
X22656000Y-14910600D02*
X22556000Y-15010600D01*
X22606000Y-14910600D02*
X22606000Y-15010600D01*
X22556000Y-14960600D02*
X22656000Y-14960600D01*
X22810000Y-14910600D02*
X22910000Y-15010600D01*
X22910000Y-14910600D02*
X22810000Y-15010600D01*
X22860000Y-14910600D02*
X22860000Y-15010600D01*
X22810000Y-14960600D02*
X22910000Y-14960600D01*
X23064000Y-14910600D02*
X23164000Y-15010600D01*
X23164000Y-14910600D02*
X23064000Y-15010600D01*
X23114000Y-14910600D02*
X23114000Y-15010600D01*
X23064000Y-14960600D02*
X23164000Y-14960600D01*
D18*
X16069400Y-11192200D02*
X16189400Y-11312200D01*
X16189400Y-11192200D02*
X16069400Y-11312200D01*
X16171827Y-11294627D02*
X16171827Y-11209773D01*
X16086973Y-11209773D01*
X16086973Y-11294627D01*
X16171827Y-11294627D01*
X16323400Y-11192200D02*
X16443400Y-11312200D01*
X16443400Y-11192200D02*
X16323400Y-11312200D01*
X16425827Y-11294627D02*
X16425827Y-11209773D01*
X16340973Y-11209773D01*
X16340973Y-11294627D01*
X16425827Y-11294627D01*
X16577400Y-11192200D02*
X16697400Y-11312200D01*
X16697400Y-11192200D02*
X16577400Y-11312200D01*
X16679827Y-11294627D02*
X16679827Y-11209773D01*
X16594973Y-11209773D01*
X16594973Y-11294627D01*
X16679827Y-11294627D01*
X16831400Y-11192200D02*
X16951400Y-11312200D01*
X16951400Y-11192200D02*
X16831400Y-11312200D01*
X16933827Y-11294627D02*
X16933827Y-11209773D01*
X16848973Y-11209773D01*
X16848973Y-11294627D01*
X16933827Y-11294627D01*
X17085400Y-11192200D02*
X17205400Y-11312200D01*
X17205400Y-11192200D02*
X17085400Y-11312200D01*
X17187827Y-11294627D02*
X17187827Y-11209773D01*
X17102973Y-11209773D01*
X17102973Y-11294627D01*
X17187827Y-11294627D01*
X17339400Y-11192200D02*
X17459400Y-11312200D01*
X17459400Y-11192200D02*
X17339400Y-11312200D01*
X17441827Y-11294627D02*
X17441827Y-11209773D01*
X17356973Y-11209773D01*
X17356973Y-11294627D01*
X17441827Y-11294627D01*
X17593400Y-11192200D02*
X17713400Y-11312200D01*
X17713400Y-11192200D02*
X17593400Y-11312200D01*
X17695827Y-11294627D02*
X17695827Y-11209773D01*
X17610973Y-11209773D01*
X17610973Y-11294627D01*
X17695827Y-11294627D01*
X17847400Y-11192200D02*
X17967400Y-11312200D01*
X17967400Y-11192200D02*
X17847400Y-11312200D01*
X17949827Y-11294627D02*
X17949827Y-11209773D01*
X17864973Y-11209773D01*
X17864973Y-11294627D01*
X17949827Y-11294627D01*
X18101400Y-11192200D02*
X18221400Y-11312200D01*
X18221400Y-11192200D02*
X18101400Y-11312200D01*
X18203827Y-11294627D02*
X18203827Y-11209773D01*
X18118973Y-11209773D01*
X18118973Y-11294627D01*
X18203827Y-11294627D01*
X18355400Y-11192200D02*
X18475400Y-11312200D01*
X18475400Y-11192200D02*
X18355400Y-11312200D01*
X18457827Y-11294627D02*
X18457827Y-11209773D01*
X18372973Y-11209773D01*
X18372973Y-11294627D01*
X18457827Y-11294627D01*
X18609400Y-11192200D02*
X18729400Y-11312200D01*
X18729400Y-11192200D02*
X18609400Y-11312200D01*
X18711827Y-11294627D02*
X18711827Y-11209773D01*
X18626973Y-11209773D01*
X18626973Y-11294627D01*
X18711827Y-11294627D01*
X18863400Y-11192200D02*
X18983400Y-11312200D01*
X18983400Y-11192200D02*
X18863400Y-11312200D01*
X18965827Y-11294627D02*
X18965827Y-11209773D01*
X18880973Y-11209773D01*
X18880973Y-11294627D01*
X18965827Y-11294627D01*
X19117400Y-11192200D02*
X19237400Y-11312200D01*
X19237400Y-11192200D02*
X19117400Y-11312200D01*
X19219827Y-11294627D02*
X19219827Y-11209773D01*
X19134973Y-11209773D01*
X19134973Y-11294627D01*
X19219827Y-11294627D01*
X19371400Y-11192200D02*
X19491400Y-11312200D01*
X19491400Y-11192200D02*
X19371400Y-11312200D01*
X19473827Y-11294627D02*
X19473827Y-11209773D01*
X19388973Y-11209773D01*
X19388973Y-11294627D01*
X19473827Y-11294627D01*
X19625400Y-11192200D02*
X19745400Y-11312200D01*
X19745400Y-11192200D02*
X19625400Y-11312200D01*
X19727827Y-11294627D02*
X19727827Y-11209773D01*
X19642973Y-11209773D01*
X19642973Y-11294627D01*
X19727827Y-11294627D01*
X19879400Y-11192200D02*
X19999400Y-11312200D01*
X19999400Y-11192200D02*
X19879400Y-11312200D01*
X19981827Y-11294627D02*
X19981827Y-11209773D01*
X19896973Y-11209773D01*
X19896973Y-11294627D01*
X19981827Y-11294627D01*
D19*
X15454490Y-11127200D02*
X15704490Y-11377200D01*
X15704490Y-11127200D02*
X15454490Y-11377200D01*
X15579490Y-11377200D02*
X15704490Y-11252200D01*
X15579490Y-11127200D01*
X15454490Y-11252200D01*
X15579490Y-11377200D01*
X15454490Y-14227270D02*
X15704490Y-14477270D01*
X15704490Y-14227270D02*
X15454490Y-14477270D01*
X15579490Y-14477270D02*
X15704490Y-14352270D01*
X15579490Y-14227270D01*
X15454490Y-14352270D01*
X15579490Y-14477270D01*
X22954348Y-14227270D02*
X23204348Y-14477270D01*
X23204348Y-14227270D02*
X22954348Y-14477270D01*
X23079348Y-14477270D02*
X23204348Y-14352270D01*
X23079348Y-14227270D01*
X22954348Y-14352270D01*
X23079348Y-14477270D01*
X22954400Y-11127200D02*
X23204400Y-11377200D01*
X23204400Y-11127200D02*
X22954400Y-11377200D01*
X23079400Y-11377200D02*
X23204400Y-11252200D01*
X23079400Y-11127200D01*
X22954400Y-11252200D01*
X23079400Y-11377200D01*
D11*
X6856619Y-15967876D02*
X6856619Y-15767876D01*
X6904238Y-15767876D01*
X6932809Y-15777400D01*
X6951857Y-15796448D01*
X6961381Y-15815495D01*
X6970905Y-15853590D01*
X6970905Y-15882162D01*
X6961381Y-15920257D01*
X6951857Y-15939305D01*
X6932809Y-15958352D01*
X6904238Y-15967876D01*
X6856619Y-15967876D01*
X7056619Y-15967876D02*
X7056619Y-15834543D01*
X7056619Y-15872638D02*
X7066143Y-15853590D01*
X7075667Y-15844067D01*
X7094714Y-15834543D01*
X7113762Y-15834543D01*
X7180428Y-15967876D02*
X7180428Y-15834543D01*
X7180428Y-15767876D02*
X7170905Y-15777400D01*
X7180428Y-15786924D01*
X7189952Y-15777400D01*
X7180428Y-15767876D01*
X7180428Y-15786924D01*
X7304238Y-15967876D02*
X7285190Y-15958352D01*
X7275667Y-15939305D01*
X7275667Y-15767876D01*
X7409000Y-15967876D02*
X7389952Y-15958352D01*
X7380428Y-15939305D01*
X7380428Y-15767876D01*
X7637571Y-15967876D02*
X7637571Y-15767876D01*
X7704238Y-15910733D01*
X7770905Y-15767876D01*
X7770905Y-15967876D01*
X7951857Y-15967876D02*
X7951857Y-15863114D01*
X7942333Y-15844067D01*
X7923286Y-15834543D01*
X7885190Y-15834543D01*
X7866143Y-15844067D01*
X7951857Y-15958352D02*
X7932809Y-15967876D01*
X7885190Y-15967876D01*
X7866143Y-15958352D01*
X7856619Y-15939305D01*
X7856619Y-15920257D01*
X7866143Y-15901209D01*
X7885190Y-15891686D01*
X7932809Y-15891686D01*
X7951857Y-15882162D01*
X8047095Y-15834543D02*
X8047095Y-16034543D01*
X8047095Y-15844067D02*
X8066143Y-15834543D01*
X8104238Y-15834543D01*
X8123286Y-15844067D01*
X8132809Y-15853590D01*
X8142333Y-15872638D01*
X8142333Y-15929781D01*
X8132809Y-15948828D01*
X8123286Y-15958352D01*
X8104238Y-15967876D01*
X8066143Y-15967876D01*
X8047095Y-15958352D01*
X8228048Y-15948828D02*
X8237571Y-15958352D01*
X8228048Y-15967876D01*
X8218524Y-15958352D01*
X8228048Y-15948828D01*
X8228048Y-15967876D01*
X8228048Y-15844067D02*
X8237571Y-15853590D01*
X8228048Y-15863114D01*
X8218524Y-15853590D01*
X8228048Y-15844067D01*
X8228048Y-15863114D01*
D12*
X6569000Y-16282400D02*
X6599000Y-16312400D01*
X6599000Y-16282400D02*
X6569000Y-16312400D01*
D11*
X6894714Y-16187876D02*
X6913762Y-16187876D01*
X6932809Y-16197400D01*
X6942333Y-16206924D01*
X6951857Y-16225971D01*
X6961381Y-16264067D01*
X6961381Y-16311686D01*
X6951857Y-16349781D01*
X6942333Y-16368828D01*
X6932809Y-16378352D01*
X6913762Y-16387876D01*
X6894714Y-16387876D01*
X6875667Y-16378352D01*
X6866143Y-16368828D01*
X6856619Y-16349781D01*
X6847095Y-16311686D01*
X6847095Y-16264067D01*
X6856619Y-16225971D01*
X6866143Y-16206924D01*
X6875667Y-16197400D01*
X6894714Y-16187876D01*
X7047095Y-16368828D02*
X7056619Y-16378352D01*
X7047095Y-16387876D01*
X7037571Y-16378352D01*
X7047095Y-16368828D01*
X7047095Y-16387876D01*
X7123286Y-16187876D02*
X7247095Y-16187876D01*
X7180428Y-16264067D01*
X7209000Y-16264067D01*
X7228048Y-16273590D01*
X7237571Y-16283114D01*
X7247095Y-16302162D01*
X7247095Y-16349781D01*
X7237571Y-16368828D01*
X7228048Y-16378352D01*
X7209000Y-16387876D01*
X7151857Y-16387876D01*
X7132809Y-16378352D01*
X7123286Y-16368828D01*
X7370905Y-16187876D02*
X7389952Y-16187876D01*
X7409000Y-16197400D01*
X7418524Y-16206924D01*
X7428048Y-16225971D01*
X7437571Y-16264067D01*
X7437571Y-16311686D01*
X7428048Y-16349781D01*
X7418524Y-16368828D01*
X7409000Y-16378352D01*
X7389952Y-16387876D01*
X7370905Y-16387876D01*
X7351857Y-16378352D01*
X7342333Y-16368828D01*
X7332809Y-16349781D01*
X7323286Y-16311686D01*
X7323286Y-16264067D01*
X7332809Y-16225971D01*
X7342333Y-16206924D01*
X7351857Y-16197400D01*
X7370905Y-16187876D01*
X7561381Y-16187876D02*
X7580428Y-16187876D01*
X7599476Y-16197400D01*
X7609000Y-16206924D01*
X7618524Y-16225971D01*
X7628048Y-16264067D01*
X7628048Y-16311686D01*
X7618524Y-16349781D01*
X7609000Y-16368828D01*
X7599476Y-16378352D01*
X7580428Y-16387876D01*
X7561381Y-16387876D01*
X7542333Y-16378352D01*
X7532809Y-16368828D01*
X7523286Y-16349781D01*
X7513762Y-16311686D01*
X7513762Y-16264067D01*
X7523286Y-16225971D01*
X7532809Y-16206924D01*
X7542333Y-16197400D01*
X7561381Y-16187876D01*
X7713762Y-16387876D02*
X7713762Y-16254543D01*
X7713762Y-16273590D02*
X7723286Y-16264067D01*
X7742333Y-16254543D01*
X7770905Y-16254543D01*
X7789952Y-16264067D01*
X7799476Y-16283114D01*
X7799476Y-16387876D01*
X7799476Y-16283114D02*
X7809000Y-16264067D01*
X7828048Y-16254543D01*
X7856619Y-16254543D01*
X7875667Y-16264067D01*
X7885190Y-16283114D01*
X7885190Y-16387876D01*
X7980428Y-16387876D02*
X7980428Y-16254543D01*
X7980428Y-16273590D02*
X7989952Y-16264067D01*
X8009000Y-16254543D01*
X8037571Y-16254543D01*
X8056619Y-16264067D01*
X8066143Y-16283114D01*
X8066143Y-16387876D01*
X8066143Y-16283114D02*
X8075667Y-16264067D01*
X8094714Y-16254543D01*
X8123286Y-16254543D01*
X8142333Y-16264067D01*
X8151857Y-16283114D01*
X8151857Y-16387876D01*
X8542333Y-16178352D02*
X8370905Y-16435495D01*
X8799476Y-16187876D02*
X8818524Y-16187876D01*
X8837571Y-16197400D01*
X8847095Y-16206924D01*
X8856619Y-16225971D01*
X8866143Y-16264067D01*
X8866143Y-16311686D01*
X8856619Y-16349781D01*
X8847095Y-16368828D01*
X8837571Y-16378352D01*
X8818524Y-16387876D01*
X8799476Y-16387876D01*
X8780429Y-16378352D01*
X8770905Y-16368828D01*
X8761381Y-16349781D01*
X8751857Y-16311686D01*
X8751857Y-16264067D01*
X8761381Y-16225971D01*
X8770905Y-16206924D01*
X8780429Y-16197400D01*
X8799476Y-16187876D01*
X8951857Y-16368828D02*
X8961381Y-16378352D01*
X8951857Y-16387876D01*
X8942333Y-16378352D01*
X8951857Y-16368828D01*
X8951857Y-16387876D01*
X9085190Y-16187876D02*
X9104238Y-16187876D01*
X9123286Y-16197400D01*
X9132810Y-16206924D01*
X9142333Y-16225971D01*
X9151857Y-16264067D01*
X9151857Y-16311686D01*
X9142333Y-16349781D01*
X9132810Y-16368828D01*
X9123286Y-16378352D01*
X9104238Y-16387876D01*
X9085190Y-16387876D01*
X9066143Y-16378352D01*
X9056619Y-16368828D01*
X9047095Y-16349781D01*
X9037571Y-16311686D01*
X9037571Y-16264067D01*
X9047095Y-16225971D01*
X9056619Y-16206924D01*
X9066143Y-16197400D01*
X9085190Y-16187876D01*
X9342333Y-16387876D02*
X9228048Y-16387876D01*
X9285190Y-16387876D02*
X9285190Y-16187876D01*
X9266143Y-16216448D01*
X9247095Y-16235495D01*
X9228048Y-16245019D01*
X9532810Y-16387876D02*
X9418524Y-16387876D01*
X9475667Y-16387876D02*
X9475667Y-16187876D01*
X9456619Y-16216448D01*
X9437571Y-16235495D01*
X9418524Y-16245019D01*
X9647095Y-16273590D02*
X9628048Y-16264067D01*
X9618524Y-16254543D01*
X9609000Y-16235495D01*
X9609000Y-16225971D01*
X9618524Y-16206924D01*
X9628048Y-16197400D01*
X9647095Y-16187876D01*
X9685190Y-16187876D01*
X9704238Y-16197400D01*
X9713762Y-16206924D01*
X9723286Y-16225971D01*
X9723286Y-16235495D01*
X9713762Y-16254543D01*
X9704238Y-16264067D01*
X9685190Y-16273590D01*
X9647095Y-16273590D01*
X9628048Y-16283114D01*
X9618524Y-16292638D01*
X9609000Y-16311686D01*
X9609000Y-16349781D01*
X9618524Y-16368828D01*
X9628048Y-16378352D01*
X9647095Y-16387876D01*
X9685190Y-16387876D01*
X9704238Y-16378352D01*
X9713762Y-16368828D01*
X9723286Y-16349781D01*
X9723286Y-16311686D01*
X9713762Y-16292638D01*
X9704238Y-16283114D01*
X9685190Y-16273590D01*
X9799476Y-16187876D02*
X9799476Y-16225971D01*
X9875667Y-16187876D02*
X9875667Y-16225971D01*
X10170905Y-16464067D02*
X10161381Y-16454543D01*
X10142333Y-16425971D01*
X10132810Y-16406924D01*
X10123286Y-16378352D01*
X10113762Y-16330733D01*
X10113762Y-16292638D01*
X10123286Y-16245019D01*
X10132810Y-16216448D01*
X10142333Y-16197400D01*
X10161381Y-16168828D01*
X10170905Y-16159305D01*
X10256619Y-16387876D02*
X10294714Y-16387876D01*
X10313762Y-16378352D01*
X10323286Y-16368828D01*
X10342333Y-16340257D01*
X10351857Y-16302162D01*
X10351857Y-16225971D01*
X10342333Y-16206924D01*
X10332810Y-16197400D01*
X10313762Y-16187876D01*
X10275667Y-16187876D01*
X10256619Y-16197400D01*
X10247095Y-16206924D01*
X10237571Y-16225971D01*
X10237571Y-16273590D01*
X10247095Y-16292638D01*
X10256619Y-16302162D01*
X10275667Y-16311686D01*
X10313762Y-16311686D01*
X10332810Y-16302162D01*
X10342333Y-16292638D01*
X10351857Y-16273590D01*
X10418524Y-16187876D02*
X10542333Y-16187876D01*
X10475667Y-16264067D01*
X10504238Y-16264067D01*
X10523286Y-16273590D01*
X10532810Y-16283114D01*
X10542333Y-16302162D01*
X10542333Y-16349781D01*
X10532810Y-16368828D01*
X10523286Y-16378352D01*
X10504238Y-16387876D01*
X10447095Y-16387876D01*
X10428048Y-16378352D01*
X10418524Y-16368828D01*
X10780429Y-16387876D02*
X10780429Y-16187876D01*
X10866143Y-16387876D02*
X10866143Y-16283114D01*
X10856619Y-16264067D01*
X10837571Y-16254543D01*
X10809000Y-16254543D01*
X10789952Y-16264067D01*
X10780429Y-16273590D01*
X10989952Y-16387876D02*
X10970905Y-16378352D01*
X10961381Y-16368828D01*
X10951857Y-16349781D01*
X10951857Y-16292638D01*
X10961381Y-16273590D01*
X10970905Y-16264067D01*
X10989952Y-16254543D01*
X11018524Y-16254543D01*
X11037571Y-16264067D01*
X11047095Y-16273590D01*
X11056619Y-16292638D01*
X11056619Y-16349781D01*
X11047095Y-16368828D01*
X11037571Y-16378352D01*
X11018524Y-16387876D01*
X10989952Y-16387876D01*
X11170905Y-16387876D02*
X11151857Y-16378352D01*
X11142333Y-16359305D01*
X11142333Y-16187876D01*
X11323286Y-16378352D02*
X11304238Y-16387876D01*
X11266143Y-16387876D01*
X11247095Y-16378352D01*
X11237571Y-16359305D01*
X11237571Y-16283114D01*
X11247095Y-16264067D01*
X11266143Y-16254543D01*
X11304238Y-16254543D01*
X11323286Y-16264067D01*
X11332809Y-16283114D01*
X11332809Y-16302162D01*
X11237571Y-16321209D01*
X11409000Y-16378352D02*
X11428048Y-16387876D01*
X11466143Y-16387876D01*
X11485190Y-16378352D01*
X11494714Y-16359305D01*
X11494714Y-16349781D01*
X11485190Y-16330733D01*
X11466143Y-16321209D01*
X11437571Y-16321209D01*
X11418524Y-16311686D01*
X11409000Y-16292638D01*
X11409000Y-16283114D01*
X11418524Y-16264067D01*
X11437571Y-16254543D01*
X11466143Y-16254543D01*
X11485190Y-16264067D01*
X11561381Y-16464067D02*
X11570905Y-16454543D01*
X11589952Y-16425971D01*
X11599476Y-16406924D01*
X11609000Y-16378352D01*
X11618524Y-16330733D01*
X11618524Y-16292638D01*
X11609000Y-16245019D01*
X11599476Y-16216448D01*
X11589952Y-16197400D01*
X11570905Y-16168828D01*
X11561381Y-16159305D01*
D13*
X6599000Y-16561400D02*
G75*
G03*
X6599000Y-16561400I-20000J0D01*
G01*
D11*
X6894714Y-16451876D02*
X6913762Y-16451876D01*
X6932809Y-16461400D01*
X6942333Y-16470924D01*
X6951857Y-16489971D01*
X6961381Y-16528067D01*
X6961381Y-16575686D01*
X6951857Y-16613781D01*
X6942333Y-16632828D01*
X6932809Y-16642352D01*
X6913762Y-16651876D01*
X6894714Y-16651876D01*
X6875667Y-16642352D01*
X6866143Y-16632828D01*
X6856619Y-16613781D01*
X6847095Y-16575686D01*
X6847095Y-16528067D01*
X6856619Y-16489971D01*
X6866143Y-16470924D01*
X6875667Y-16461400D01*
X6894714Y-16451876D01*
X7047095Y-16632828D02*
X7056619Y-16642352D01*
X7047095Y-16651876D01*
X7037571Y-16642352D01*
X7047095Y-16632828D01*
X7047095Y-16651876D01*
X7228048Y-16518543D02*
X7228048Y-16651876D01*
X7180428Y-16442352D02*
X7132809Y-16585209D01*
X7256619Y-16585209D01*
X7370905Y-16451876D02*
X7389952Y-16451876D01*
X7409000Y-16461400D01*
X7418524Y-16470924D01*
X7428048Y-16489971D01*
X7437571Y-16528067D01*
X7437571Y-16575686D01*
X7428048Y-16613781D01*
X7418524Y-16632828D01*
X7409000Y-16642352D01*
X7389952Y-16651876D01*
X7370905Y-16651876D01*
X7351857Y-16642352D01*
X7342333Y-16632828D01*
X7332809Y-16613781D01*
X7323286Y-16575686D01*
X7323286Y-16528067D01*
X7332809Y-16489971D01*
X7342333Y-16470924D01*
X7351857Y-16461400D01*
X7370905Y-16451876D01*
X7561381Y-16451876D02*
X7580428Y-16451876D01*
X7599476Y-16461400D01*
X7609000Y-16470924D01*
X7618524Y-16489971D01*
X7628048Y-16528067D01*
X7628048Y-16575686D01*
X7618524Y-16613781D01*
X7609000Y-16632828D01*
X7599476Y-16642352D01*
X7580428Y-16651876D01*
X7561381Y-16651876D01*
X7542333Y-16642352D01*
X7532809Y-16632828D01*
X7523286Y-16613781D01*
X7513762Y-16575686D01*
X7513762Y-16528067D01*
X7523286Y-16489971D01*
X7532809Y-16470924D01*
X7542333Y-16461400D01*
X7561381Y-16451876D01*
X7713762Y-16651876D02*
X7713762Y-16518543D01*
X7713762Y-16537590D02*
X7723286Y-16528067D01*
X7742333Y-16518543D01*
X7770905Y-16518543D01*
X7789952Y-16528067D01*
X7799476Y-16547114D01*
X7799476Y-16651876D01*
X7799476Y-16547114D02*
X7809000Y-16528067D01*
X7828048Y-16518543D01*
X7856619Y-16518543D01*
X7875667Y-16528067D01*
X7885190Y-16547114D01*
X7885190Y-16651876D01*
X7980428Y-16651876D02*
X7980428Y-16518543D01*
X7980428Y-16537590D02*
X7989952Y-16528067D01*
X8009000Y-16518543D01*
X8037571Y-16518543D01*
X8056619Y-16528067D01*
X8066143Y-16547114D01*
X8066143Y-16651876D01*
X8066143Y-16547114D02*
X8075667Y-16528067D01*
X8094714Y-16518543D01*
X8123286Y-16518543D01*
X8142333Y-16528067D01*
X8151857Y-16547114D01*
X8151857Y-16651876D01*
X8542333Y-16442352D02*
X8370905Y-16699495D01*
X8799476Y-16451876D02*
X8818524Y-16451876D01*
X8837571Y-16461400D01*
X8847095Y-16470924D01*
X8856619Y-16489971D01*
X8866143Y-16528067D01*
X8866143Y-16575686D01*
X8856619Y-16613781D01*
X8847095Y-16632828D01*
X8837571Y-16642352D01*
X8818524Y-16651876D01*
X8799476Y-16651876D01*
X8780429Y-16642352D01*
X8770905Y-16632828D01*
X8761381Y-16613781D01*
X8751857Y-16575686D01*
X8751857Y-16528067D01*
X8761381Y-16489971D01*
X8770905Y-16470924D01*
X8780429Y-16461400D01*
X8799476Y-16451876D01*
X8951857Y-16632828D02*
X8961381Y-16642352D01*
X8951857Y-16651876D01*
X8942333Y-16642352D01*
X8951857Y-16632828D01*
X8951857Y-16651876D01*
X9085190Y-16451876D02*
X9104238Y-16451876D01*
X9123286Y-16461400D01*
X9132810Y-16470924D01*
X9142333Y-16489971D01*
X9151857Y-16528067D01*
X9151857Y-16575686D01*
X9142333Y-16613781D01*
X9132810Y-16632828D01*
X9123286Y-16642352D01*
X9104238Y-16651876D01*
X9085190Y-16651876D01*
X9066143Y-16642352D01*
X9056619Y-16632828D01*
X9047095Y-16613781D01*
X9037571Y-16575686D01*
X9037571Y-16528067D01*
X9047095Y-16489971D01*
X9056619Y-16470924D01*
X9066143Y-16461400D01*
X9085190Y-16451876D01*
X9342333Y-16651876D02*
X9228048Y-16651876D01*
X9285190Y-16651876D02*
X9285190Y-16451876D01*
X9266143Y-16480448D01*
X9247095Y-16499495D01*
X9228048Y-16509019D01*
X9523286Y-16451876D02*
X9428048Y-16451876D01*
X9418524Y-16547114D01*
X9428048Y-16537590D01*
X9447095Y-16528067D01*
X9494714Y-16528067D01*
X9513762Y-16537590D01*
X9523286Y-16547114D01*
X9532810Y-16566162D01*
X9532810Y-16613781D01*
X9523286Y-16632828D01*
X9513762Y-16642352D01*
X9494714Y-16651876D01*
X9447095Y-16651876D01*
X9428048Y-16642352D01*
X9418524Y-16632828D01*
X9599476Y-16451876D02*
X9732810Y-16451876D01*
X9647095Y-16651876D01*
X9799476Y-16451876D02*
X9799476Y-16489971D01*
X9875667Y-16451876D02*
X9875667Y-16489971D01*
X10170905Y-16728067D02*
X10161381Y-16718543D01*
X10142333Y-16689971D01*
X10132810Y-16670924D01*
X10123286Y-16642352D01*
X10113762Y-16594733D01*
X10113762Y-16556638D01*
X10123286Y-16509019D01*
X10132810Y-16480448D01*
X10142333Y-16461400D01*
X10161381Y-16432828D01*
X10170905Y-16423305D01*
X10228048Y-16451876D02*
X10361381Y-16451876D01*
X10275667Y-16651876D01*
X10589952Y-16651876D02*
X10589952Y-16451876D01*
X10675667Y-16651876D02*
X10675667Y-16547114D01*
X10666143Y-16528067D01*
X10647095Y-16518543D01*
X10618524Y-16518543D01*
X10599476Y-16528067D01*
X10589952Y-16537590D01*
X10799476Y-16651876D02*
X10780429Y-16642352D01*
X10770905Y-16632828D01*
X10761381Y-16613781D01*
X10761381Y-16556638D01*
X10770905Y-16537590D01*
X10780429Y-16528067D01*
X10799476Y-16518543D01*
X10828048Y-16518543D01*
X10847095Y-16528067D01*
X10856619Y-16537590D01*
X10866143Y-16556638D01*
X10866143Y-16613781D01*
X10856619Y-16632828D01*
X10847095Y-16642352D01*
X10828048Y-16651876D01*
X10799476Y-16651876D01*
X10980429Y-16651876D02*
X10961381Y-16642352D01*
X10951857Y-16623305D01*
X10951857Y-16451876D01*
X11132810Y-16642352D02*
X11113762Y-16651876D01*
X11075667Y-16651876D01*
X11056619Y-16642352D01*
X11047095Y-16623305D01*
X11047095Y-16547114D01*
X11056619Y-16528067D01*
X11075667Y-16518543D01*
X11113762Y-16518543D01*
X11132810Y-16528067D01*
X11142333Y-16547114D01*
X11142333Y-16566162D01*
X11047095Y-16585209D01*
X11218524Y-16642352D02*
X11237571Y-16651876D01*
X11275667Y-16651876D01*
X11294714Y-16642352D01*
X11304238Y-16623305D01*
X11304238Y-16613781D01*
X11294714Y-16594733D01*
X11275667Y-16585209D01*
X11247095Y-16585209D01*
X11228048Y-16575686D01*
X11218524Y-16556638D01*
X11218524Y-16547114D01*
X11228048Y-16528067D01*
X11247095Y-16518543D01*
X11275667Y-16518543D01*
X11294714Y-16528067D01*
X11370905Y-16728067D02*
X11380428Y-16718543D01*
X11399476Y-16689971D01*
X11409000Y-16670924D01*
X11418524Y-16642352D01*
X11428048Y-16594733D01*
X11428048Y-16556638D01*
X11418524Y-16509019D01*
X11409000Y-16480448D01*
X11399476Y-16461400D01*
X11380428Y-16432828D01*
X11370905Y-16423305D01*
D14*
X6569000Y-16795400D02*
X6569000Y-16855400D01*
X6539000Y-16825400D02*
X6599000Y-16825400D01*
D11*
X6894714Y-16715876D02*
X6913762Y-16715876D01*
X6932809Y-16725400D01*
X6942333Y-16734924D01*
X6951857Y-16753971D01*
X6961381Y-16792067D01*
X6961381Y-16839686D01*
X6951857Y-16877781D01*
X6942333Y-16896829D01*
X6932809Y-16906352D01*
X6913762Y-16915876D01*
X6894714Y-16915876D01*
X6875667Y-16906352D01*
X6866143Y-16896829D01*
X6856619Y-16877781D01*
X6847095Y-16839686D01*
X6847095Y-16792067D01*
X6856619Y-16753971D01*
X6866143Y-16734924D01*
X6875667Y-16725400D01*
X6894714Y-16715876D01*
X7047095Y-16896829D02*
X7056619Y-16906352D01*
X7047095Y-16915876D01*
X7037571Y-16906352D01*
X7047095Y-16896829D01*
X7047095Y-16915876D01*
X7228048Y-16715876D02*
X7189952Y-16715876D01*
X7170905Y-16725400D01*
X7161381Y-16734924D01*
X7142333Y-16763495D01*
X7132809Y-16801590D01*
X7132809Y-16877781D01*
X7142333Y-16896829D01*
X7151857Y-16906352D01*
X7170905Y-16915876D01*
X7209000Y-16915876D01*
X7228048Y-16906352D01*
X7237571Y-16896829D01*
X7247095Y-16877781D01*
X7247095Y-16830162D01*
X7237571Y-16811114D01*
X7228048Y-16801590D01*
X7209000Y-16792067D01*
X7170905Y-16792067D01*
X7151857Y-16801590D01*
X7142333Y-16811114D01*
X7132809Y-16830162D01*
X7370905Y-16715876D02*
X7389952Y-16715876D01*
X7409000Y-16725400D01*
X7418524Y-16734924D01*
X7428048Y-16753971D01*
X7437571Y-16792067D01*
X7437571Y-16839686D01*
X7428048Y-16877781D01*
X7418524Y-16896829D01*
X7409000Y-16906352D01*
X7389952Y-16915876D01*
X7370905Y-16915876D01*
X7351857Y-16906352D01*
X7342333Y-16896829D01*
X7332809Y-16877781D01*
X7323286Y-16839686D01*
X7323286Y-16792067D01*
X7332809Y-16753971D01*
X7342333Y-16734924D01*
X7351857Y-16725400D01*
X7370905Y-16715876D01*
X7561381Y-16715876D02*
X7580428Y-16715876D01*
X7599476Y-16725400D01*
X7609000Y-16734924D01*
X7618524Y-16753971D01*
X7628048Y-16792067D01*
X7628048Y-16839686D01*
X7618524Y-16877781D01*
X7609000Y-16896829D01*
X7599476Y-16906352D01*
X7580428Y-16915876D01*
X7561381Y-16915876D01*
X7542333Y-16906352D01*
X7532809Y-16896829D01*
X7523286Y-16877781D01*
X7513762Y-16839686D01*
X7513762Y-16792067D01*
X7523286Y-16753971D01*
X7532809Y-16734924D01*
X7542333Y-16725400D01*
X7561381Y-16715876D01*
X7713762Y-16915876D02*
X7713762Y-16782543D01*
X7713762Y-16801590D02*
X7723286Y-16792067D01*
X7742333Y-16782543D01*
X7770905Y-16782543D01*
X7789952Y-16792067D01*
X7799476Y-16811114D01*
X7799476Y-16915876D01*
X7799476Y-16811114D02*
X7809000Y-16792067D01*
X7828048Y-16782543D01*
X7856619Y-16782543D01*
X7875667Y-16792067D01*
X7885190Y-16811114D01*
X7885190Y-16915876D01*
X7980428Y-16915876D02*
X7980428Y-16782543D01*
X7980428Y-16801590D02*
X7989952Y-16792067D01*
X8009000Y-16782543D01*
X8037571Y-16782543D01*
X8056619Y-16792067D01*
X8066143Y-16811114D01*
X8066143Y-16915876D01*
X8066143Y-16811114D02*
X8075667Y-16792067D01*
X8094714Y-16782543D01*
X8123286Y-16782543D01*
X8142333Y-16792067D01*
X8151857Y-16811114D01*
X8151857Y-16915876D01*
X8542333Y-16706352D02*
X8370905Y-16963495D01*
X8799476Y-16715876D02*
X8818524Y-16715876D01*
X8837571Y-16725400D01*
X8847095Y-16734924D01*
X8856619Y-16753971D01*
X8866143Y-16792067D01*
X8866143Y-16839686D01*
X8856619Y-16877781D01*
X8847095Y-16896829D01*
X8837571Y-16906352D01*
X8818524Y-16915876D01*
X8799476Y-16915876D01*
X8780429Y-16906352D01*
X8770905Y-16896829D01*
X8761381Y-16877781D01*
X8751857Y-16839686D01*
X8751857Y-16792067D01*
X8761381Y-16753971D01*
X8770905Y-16734924D01*
X8780429Y-16725400D01*
X8799476Y-16715876D01*
X8951857Y-16896829D02*
X8961381Y-16906352D01*
X8951857Y-16915876D01*
X8942333Y-16906352D01*
X8951857Y-16896829D01*
X8951857Y-16915876D01*
X9085190Y-16715876D02*
X9104238Y-16715876D01*
X9123286Y-16725400D01*
X9132810Y-16734924D01*
X9142333Y-16753971D01*
X9151857Y-16792067D01*
X9151857Y-16839686D01*
X9142333Y-16877781D01*
X9132810Y-16896829D01*
X9123286Y-16906352D01*
X9104238Y-16915876D01*
X9085190Y-16915876D01*
X9066143Y-16906352D01*
X9056619Y-16896829D01*
X9047095Y-16877781D01*
X9037571Y-16839686D01*
X9037571Y-16792067D01*
X9047095Y-16753971D01*
X9056619Y-16734924D01*
X9066143Y-16725400D01*
X9085190Y-16715876D01*
X9228048Y-16734924D02*
X9237571Y-16725400D01*
X9256619Y-16715876D01*
X9304238Y-16715876D01*
X9323286Y-16725400D01*
X9332810Y-16734924D01*
X9342333Y-16753971D01*
X9342333Y-16773019D01*
X9332810Y-16801590D01*
X9218524Y-16915876D01*
X9342333Y-16915876D01*
X9409000Y-16715876D02*
X9532810Y-16715876D01*
X9466143Y-16792067D01*
X9494714Y-16792067D01*
X9513762Y-16801590D01*
X9523286Y-16811114D01*
X9532810Y-16830162D01*
X9532810Y-16877781D01*
X9523286Y-16896829D01*
X9513762Y-16906352D01*
X9494714Y-16915876D01*
X9437571Y-16915876D01*
X9418524Y-16906352D01*
X9409000Y-16896829D01*
X9704238Y-16715876D02*
X9666143Y-16715876D01*
X9647095Y-16725400D01*
X9637571Y-16734924D01*
X9618524Y-16763495D01*
X9609000Y-16801590D01*
X9609000Y-16877781D01*
X9618524Y-16896829D01*
X9628048Y-16906352D01*
X9647095Y-16915876D01*
X9685190Y-16915876D01*
X9704238Y-16906352D01*
X9713762Y-16896829D01*
X9723286Y-16877781D01*
X9723286Y-16830162D01*
X9713762Y-16811114D01*
X9704238Y-16801590D01*
X9685190Y-16792067D01*
X9647095Y-16792067D01*
X9628048Y-16801590D01*
X9618524Y-16811114D01*
X9609000Y-16830162D01*
X9799476Y-16715876D02*
X9799476Y-16753971D01*
X9875667Y-16715876D02*
X9875667Y-16753971D01*
X10170905Y-16992067D02*
X10161381Y-16982543D01*
X10142333Y-16953971D01*
X10132810Y-16934924D01*
X10123286Y-16906352D01*
X10113762Y-16858733D01*
X10113762Y-16820638D01*
X10123286Y-16773019D01*
X10132810Y-16744448D01*
X10142333Y-16725400D01*
X10161381Y-16696828D01*
X10170905Y-16687305D01*
X10237571Y-16734924D02*
X10247095Y-16725400D01*
X10266143Y-16715876D01*
X10313762Y-16715876D01*
X10332810Y-16725400D01*
X10342333Y-16734924D01*
X10351857Y-16753971D01*
X10351857Y-16773019D01*
X10342333Y-16801590D01*
X10228048Y-16915876D01*
X10351857Y-16915876D01*
X10589952Y-16915876D02*
X10589952Y-16715876D01*
X10675667Y-16915876D02*
X10675667Y-16811114D01*
X10666143Y-16792067D01*
X10647095Y-16782543D01*
X10618524Y-16782543D01*
X10599476Y-16792067D01*
X10589952Y-16801590D01*
X10799476Y-16915876D02*
X10780429Y-16906352D01*
X10770905Y-16896829D01*
X10761381Y-16877781D01*
X10761381Y-16820638D01*
X10770905Y-16801590D01*
X10780429Y-16792067D01*
X10799476Y-16782543D01*
X10828048Y-16782543D01*
X10847095Y-16792067D01*
X10856619Y-16801590D01*
X10866143Y-16820638D01*
X10866143Y-16877781D01*
X10856619Y-16896829D01*
X10847095Y-16906352D01*
X10828048Y-16915876D01*
X10799476Y-16915876D01*
X10980429Y-16915876D02*
X10961381Y-16906352D01*
X10951857Y-16887305D01*
X10951857Y-16715876D01*
X11132810Y-16906352D02*
X11113762Y-16915876D01*
X11075667Y-16915876D01*
X11056619Y-16906352D01*
X11047095Y-16887305D01*
X11047095Y-16811114D01*
X11056619Y-16792067D01*
X11075667Y-16782543D01*
X11113762Y-16782543D01*
X11132810Y-16792067D01*
X11142333Y-16811114D01*
X11142333Y-16830162D01*
X11047095Y-16849210D01*
X11218524Y-16906352D02*
X11237571Y-16915876D01*
X11275667Y-16915876D01*
X11294714Y-16906352D01*
X11304238Y-16887305D01*
X11304238Y-16877781D01*
X11294714Y-16858733D01*
X11275667Y-16849210D01*
X11247095Y-16849210D01*
X11228048Y-16839686D01*
X11218524Y-16820638D01*
X11218524Y-16811114D01*
X11228048Y-16792067D01*
X11247095Y-16782543D01*
X11275667Y-16782543D01*
X11294714Y-16792067D01*
X11370905Y-16992067D02*
X11380428Y-16982543D01*
X11399476Y-16953971D01*
X11409000Y-16934924D01*
X11418524Y-16906352D01*
X11428048Y-16858733D01*
X11428048Y-16820638D01*
X11418524Y-16773019D01*
X11409000Y-16744448D01*
X11399476Y-16725400D01*
X11380428Y-16696828D01*
X11370905Y-16687305D01*
D15*
X6587469Y-17117239D02*
X6587469Y-17061561D01*
X6531791Y-17061561D01*
X6531791Y-17117239D01*
X6587469Y-17117239D01*
D11*
X6894714Y-16979876D02*
X6913762Y-16979876D01*
X6932809Y-16989400D01*
X6942333Y-16998924D01*
X6951857Y-17017971D01*
X6961381Y-17056067D01*
X6961381Y-17103686D01*
X6951857Y-17141781D01*
X6942333Y-17160829D01*
X6932809Y-17170352D01*
X6913762Y-17179876D01*
X6894714Y-17179876D01*
X6875667Y-17170352D01*
X6866143Y-17160829D01*
X6856619Y-17141781D01*
X6847095Y-17103686D01*
X6847095Y-17056067D01*
X6856619Y-17017971D01*
X6866143Y-16998924D01*
X6875667Y-16989400D01*
X6894714Y-16979876D01*
X7047095Y-17160829D02*
X7056619Y-17170352D01*
X7047095Y-17179876D01*
X7037571Y-17170352D01*
X7047095Y-17160829D01*
X7047095Y-17179876D01*
X7123286Y-16979876D02*
X7256619Y-16979876D01*
X7170905Y-17179876D01*
X7361381Y-17065590D02*
X7342333Y-17056067D01*
X7332809Y-17046543D01*
X7323286Y-17027495D01*
X7323286Y-17017971D01*
X7332809Y-16998924D01*
X7342333Y-16989400D01*
X7361381Y-16979876D01*
X7399476Y-16979876D01*
X7418524Y-16989400D01*
X7428048Y-16998924D01*
X7437571Y-17017971D01*
X7437571Y-17027495D01*
X7428048Y-17046543D01*
X7418524Y-17056067D01*
X7399476Y-17065590D01*
X7361381Y-17065590D01*
X7342333Y-17075114D01*
X7332809Y-17084638D01*
X7323286Y-17103686D01*
X7323286Y-17141781D01*
X7332809Y-17160829D01*
X7342333Y-17170352D01*
X7361381Y-17179876D01*
X7399476Y-17179876D01*
X7418524Y-17170352D01*
X7428048Y-17160829D01*
X7437571Y-17141781D01*
X7437571Y-17103686D01*
X7428048Y-17084638D01*
X7418524Y-17075114D01*
X7399476Y-17065590D01*
X7504238Y-16979876D02*
X7637571Y-16979876D01*
X7551857Y-17179876D01*
X7713762Y-17179876D02*
X7713762Y-17046543D01*
X7713762Y-17065590D02*
X7723286Y-17056067D01*
X7742333Y-17046543D01*
X7770905Y-17046543D01*
X7789952Y-17056067D01*
X7799476Y-17075114D01*
X7799476Y-17179876D01*
X7799476Y-17075114D02*
X7809000Y-17056067D01*
X7828048Y-17046543D01*
X7856619Y-17046543D01*
X7875667Y-17056067D01*
X7885190Y-17075114D01*
X7885190Y-17179876D01*
X7980428Y-17179876D02*
X7980428Y-17046543D01*
X7980428Y-17065590D02*
X7989952Y-17056067D01*
X8009000Y-17046543D01*
X8037571Y-17046543D01*
X8056619Y-17056067D01*
X8066143Y-17075114D01*
X8066143Y-17179876D01*
X8066143Y-17075114D02*
X8075667Y-17056067D01*
X8094714Y-17046543D01*
X8123286Y-17046543D01*
X8142333Y-17056067D01*
X8151857Y-17075114D01*
X8151857Y-17179876D01*
X8542333Y-16970352D02*
X8370905Y-17227495D01*
X8799476Y-16979876D02*
X8818524Y-16979876D01*
X8837571Y-16989400D01*
X8847095Y-16998924D01*
X8856619Y-17017971D01*
X8866143Y-17056067D01*
X8866143Y-17103686D01*
X8856619Y-17141781D01*
X8847095Y-17160829D01*
X8837571Y-17170352D01*
X8818524Y-17179876D01*
X8799476Y-17179876D01*
X8780429Y-17170352D01*
X8770905Y-17160829D01*
X8761381Y-17141781D01*
X8751857Y-17103686D01*
X8751857Y-17056067D01*
X8761381Y-17017971D01*
X8770905Y-16998924D01*
X8780429Y-16989400D01*
X8799476Y-16979876D01*
X8951857Y-17160829D02*
X8961381Y-17170352D01*
X8951857Y-17179876D01*
X8942333Y-17170352D01*
X8951857Y-17160829D01*
X8951857Y-17179876D01*
X9085190Y-16979876D02*
X9104238Y-16979876D01*
X9123286Y-16989400D01*
X9132810Y-16998924D01*
X9142333Y-17017971D01*
X9151857Y-17056067D01*
X9151857Y-17103686D01*
X9142333Y-17141781D01*
X9132810Y-17160829D01*
X9123286Y-17170352D01*
X9104238Y-17179876D01*
X9085190Y-17179876D01*
X9066143Y-17170352D01*
X9056619Y-17160829D01*
X9047095Y-17141781D01*
X9037571Y-17103686D01*
X9037571Y-17056067D01*
X9047095Y-17017971D01*
X9056619Y-16998924D01*
X9066143Y-16989400D01*
X9085190Y-16979876D01*
X9218524Y-16979876D02*
X9342333Y-16979876D01*
X9275667Y-17056067D01*
X9304238Y-17056067D01*
X9323286Y-17065590D01*
X9332810Y-17075114D01*
X9342333Y-17094162D01*
X9342333Y-17141781D01*
X9332810Y-17160829D01*
X9323286Y-17170352D01*
X9304238Y-17179876D01*
X9247095Y-17179876D01*
X9228048Y-17170352D01*
X9218524Y-17160829D01*
X9532810Y-17179876D02*
X9418524Y-17179876D01*
X9475667Y-17179876D02*
X9475667Y-16979876D01*
X9456619Y-17008448D01*
X9437571Y-17027495D01*
X9418524Y-17037019D01*
X9656619Y-16979876D02*
X9675667Y-16979876D01*
X9694714Y-16989400D01*
X9704238Y-16998924D01*
X9713762Y-17017971D01*
X9723286Y-17056067D01*
X9723286Y-17103686D01*
X9713762Y-17141781D01*
X9704238Y-17160829D01*
X9694714Y-17170352D01*
X9675667Y-17179876D01*
X9656619Y-17179876D01*
X9637571Y-17170352D01*
X9628048Y-17160829D01*
X9618524Y-17141781D01*
X9609000Y-17103686D01*
X9609000Y-17056067D01*
X9618524Y-17017971D01*
X9628048Y-16998924D01*
X9637571Y-16989400D01*
X9656619Y-16979876D01*
X9799476Y-16979876D02*
X9799476Y-17017971D01*
X9875667Y-16979876D02*
X9875667Y-17017971D01*
X10170905Y-17256067D02*
X10161381Y-17246543D01*
X10142333Y-17217971D01*
X10132810Y-17198924D01*
X10123286Y-17170352D01*
X10113762Y-17122733D01*
X10113762Y-17084638D01*
X10123286Y-17037019D01*
X10132810Y-17008448D01*
X10142333Y-16989400D01*
X10161381Y-16960829D01*
X10170905Y-16951305D01*
X10228048Y-16979876D02*
X10361381Y-16979876D01*
X10275667Y-17179876D01*
X10589952Y-17179876D02*
X10589952Y-16979876D01*
X10675667Y-17179876D02*
X10675667Y-17075114D01*
X10666143Y-17056067D01*
X10647095Y-17046543D01*
X10618524Y-17046543D01*
X10599476Y-17056067D01*
X10589952Y-17065590D01*
X10799476Y-17179876D02*
X10780429Y-17170352D01*
X10770905Y-17160829D01*
X10761381Y-17141781D01*
X10761381Y-17084638D01*
X10770905Y-17065590D01*
X10780429Y-17056067D01*
X10799476Y-17046543D01*
X10828048Y-17046543D01*
X10847095Y-17056067D01*
X10856619Y-17065590D01*
X10866143Y-17084638D01*
X10866143Y-17141781D01*
X10856619Y-17160829D01*
X10847095Y-17170352D01*
X10828048Y-17179876D01*
X10799476Y-17179876D01*
X10980429Y-17179876D02*
X10961381Y-17170352D01*
X10951857Y-17151305D01*
X10951857Y-16979876D01*
X11132810Y-17170352D02*
X11113762Y-17179876D01*
X11075667Y-17179876D01*
X11056619Y-17170352D01*
X11047095Y-17151305D01*
X11047095Y-17075114D01*
X11056619Y-17056067D01*
X11075667Y-17046543D01*
X11113762Y-17046543D01*
X11132810Y-17056067D01*
X11142333Y-17075114D01*
X11142333Y-17094162D01*
X11047095Y-17113210D01*
X11218524Y-17170352D02*
X11237571Y-17179876D01*
X11275667Y-17179876D01*
X11294714Y-17170352D01*
X11304238Y-17151305D01*
X11304238Y-17141781D01*
X11294714Y-17122733D01*
X11275667Y-17113210D01*
X11247095Y-17113210D01*
X11228048Y-17103686D01*
X11218524Y-17084638D01*
X11218524Y-17075114D01*
X11228048Y-17056067D01*
X11247095Y-17046543D01*
X11275667Y-17046543D01*
X11294714Y-17056067D01*
X11370905Y-17256067D02*
X11380428Y-17246543D01*
X11399476Y-17217971D01*
X11409000Y-17198924D01*
X11418524Y-17170352D01*
X11428048Y-17122733D01*
X11428048Y-17084638D01*
X11418524Y-17037019D01*
X11409000Y-17008448D01*
X11399476Y-16989400D01*
X11380428Y-16960829D01*
X11370905Y-16951305D01*
D16*
X6559000Y-17393400D02*
X6599000Y-17353400D01*
X6559000Y-17313400D01*
X6519000Y-17353400D01*
X6559000Y-17393400D01*
D11*
X6894714Y-17243876D02*
X6913762Y-17243876D01*
X6932809Y-17253400D01*
X6942333Y-17262924D01*
X6951857Y-17281971D01*
X6961381Y-17320067D01*
X6961381Y-17367686D01*
X6951857Y-17405781D01*
X6942333Y-17424829D01*
X6932809Y-17434352D01*
X6913762Y-17443876D01*
X6894714Y-17443876D01*
X6875667Y-17434352D01*
X6866143Y-17424829D01*
X6856619Y-17405781D01*
X6847095Y-17367686D01*
X6847095Y-17320067D01*
X6856619Y-17281971D01*
X6866143Y-17262924D01*
X6875667Y-17253400D01*
X6894714Y-17243876D01*
X7047095Y-17424829D02*
X7056619Y-17434352D01*
X7047095Y-17443876D01*
X7037571Y-17434352D01*
X7047095Y-17424829D01*
X7047095Y-17443876D01*
X7170905Y-17329590D02*
X7151857Y-17320067D01*
X7142333Y-17310543D01*
X7132809Y-17291495D01*
X7132809Y-17281971D01*
X7142333Y-17262924D01*
X7151857Y-17253400D01*
X7170905Y-17243876D01*
X7209000Y-17243876D01*
X7228048Y-17253400D01*
X7237571Y-17262924D01*
X7247095Y-17281971D01*
X7247095Y-17291495D01*
X7237571Y-17310543D01*
X7228048Y-17320067D01*
X7209000Y-17329590D01*
X7170905Y-17329590D01*
X7151857Y-17339114D01*
X7142333Y-17348638D01*
X7132809Y-17367686D01*
X7132809Y-17405781D01*
X7142333Y-17424829D01*
X7151857Y-17434352D01*
X7170905Y-17443876D01*
X7209000Y-17443876D01*
X7228048Y-17434352D01*
X7237571Y-17424829D01*
X7247095Y-17405781D01*
X7247095Y-17367686D01*
X7237571Y-17348638D01*
X7228048Y-17339114D01*
X7209000Y-17329590D01*
X7370905Y-17243876D02*
X7389952Y-17243876D01*
X7409000Y-17253400D01*
X7418524Y-17262924D01*
X7428048Y-17281971D01*
X7437571Y-17320067D01*
X7437571Y-17367686D01*
X7428048Y-17405781D01*
X7418524Y-17424829D01*
X7409000Y-17434352D01*
X7389952Y-17443876D01*
X7370905Y-17443876D01*
X7351857Y-17434352D01*
X7342333Y-17424829D01*
X7332809Y-17405781D01*
X7323286Y-17367686D01*
X7323286Y-17320067D01*
X7332809Y-17281971D01*
X7342333Y-17262924D01*
X7351857Y-17253400D01*
X7370905Y-17243876D01*
X7561381Y-17243876D02*
X7580428Y-17243876D01*
X7599476Y-17253400D01*
X7609000Y-17262924D01*
X7618524Y-17281971D01*
X7628048Y-17320067D01*
X7628048Y-17367686D01*
X7618524Y-17405781D01*
X7609000Y-17424829D01*
X7599476Y-17434352D01*
X7580428Y-17443876D01*
X7561381Y-17443876D01*
X7542333Y-17434352D01*
X7532809Y-17424829D01*
X7523286Y-17405781D01*
X7513762Y-17367686D01*
X7513762Y-17320067D01*
X7523286Y-17281971D01*
X7532809Y-17262924D01*
X7542333Y-17253400D01*
X7561381Y-17243876D01*
X7713762Y-17443876D02*
X7713762Y-17310543D01*
X7713762Y-17329590D02*
X7723286Y-17320067D01*
X7742333Y-17310543D01*
X7770905Y-17310543D01*
X7789952Y-17320067D01*
X7799476Y-17339114D01*
X7799476Y-17443876D01*
X7799476Y-17339114D02*
X7809000Y-17320067D01*
X7828048Y-17310543D01*
X7856619Y-17310543D01*
X7875667Y-17320067D01*
X7885190Y-17339114D01*
X7885190Y-17443876D01*
X7980428Y-17443876D02*
X7980428Y-17310543D01*
X7980428Y-17329590D02*
X7989952Y-17320067D01*
X8009000Y-17310543D01*
X8037571Y-17310543D01*
X8056619Y-17320067D01*
X8066143Y-17339114D01*
X8066143Y-17443876D01*
X8066143Y-17339114D02*
X8075667Y-17320067D01*
X8094714Y-17310543D01*
X8123286Y-17310543D01*
X8142333Y-17320067D01*
X8151857Y-17339114D01*
X8151857Y-17443876D01*
X8542333Y-17234352D02*
X8370905Y-17491495D01*
X8799476Y-17243876D02*
X8818524Y-17243876D01*
X8837571Y-17253400D01*
X8847095Y-17262924D01*
X8856619Y-17281971D01*
X8866143Y-17320067D01*
X8866143Y-17367686D01*
X8856619Y-17405781D01*
X8847095Y-17424829D01*
X8837571Y-17434352D01*
X8818524Y-17443876D01*
X8799476Y-17443876D01*
X8780429Y-17434352D01*
X8770905Y-17424829D01*
X8761381Y-17405781D01*
X8751857Y-17367686D01*
X8751857Y-17320067D01*
X8761381Y-17281971D01*
X8770905Y-17262924D01*
X8780429Y-17253400D01*
X8799476Y-17243876D01*
X8951857Y-17424829D02*
X8961381Y-17434352D01*
X8951857Y-17443876D01*
X8942333Y-17434352D01*
X8951857Y-17424829D01*
X8951857Y-17443876D01*
X9085190Y-17243876D02*
X9104238Y-17243876D01*
X9123286Y-17253400D01*
X9132810Y-17262924D01*
X9142333Y-17281971D01*
X9151857Y-17320067D01*
X9151857Y-17367686D01*
X9142333Y-17405781D01*
X9132810Y-17424829D01*
X9123286Y-17434352D01*
X9104238Y-17443876D01*
X9085190Y-17443876D01*
X9066143Y-17434352D01*
X9056619Y-17424829D01*
X9047095Y-17405781D01*
X9037571Y-17367686D01*
X9037571Y-17320067D01*
X9047095Y-17281971D01*
X9056619Y-17262924D01*
X9066143Y-17253400D01*
X9085190Y-17243876D01*
X9218524Y-17243876D02*
X9342333Y-17243876D01*
X9275667Y-17320067D01*
X9304238Y-17320067D01*
X9323286Y-17329590D01*
X9332810Y-17339114D01*
X9342333Y-17358162D01*
X9342333Y-17405781D01*
X9332810Y-17424829D01*
X9323286Y-17434352D01*
X9304238Y-17443876D01*
X9247095Y-17443876D01*
X9228048Y-17434352D01*
X9218524Y-17424829D01*
X9532810Y-17443876D02*
X9418524Y-17443876D01*
X9475667Y-17443876D02*
X9475667Y-17243876D01*
X9456619Y-17272448D01*
X9437571Y-17291495D01*
X9418524Y-17301019D01*
X9713762Y-17243876D02*
X9618524Y-17243876D01*
X9609000Y-17339114D01*
X9618524Y-17329590D01*
X9637571Y-17320067D01*
X9685190Y-17320067D01*
X9704238Y-17329590D01*
X9713762Y-17339114D01*
X9723286Y-17358162D01*
X9723286Y-17405781D01*
X9713762Y-17424829D01*
X9704238Y-17434352D01*
X9685190Y-17443876D01*
X9637571Y-17443876D01*
X9618524Y-17434352D01*
X9609000Y-17424829D01*
X9799476Y-17243876D02*
X9799476Y-17281971D01*
X9875667Y-17243876D02*
X9875667Y-17281971D01*
X10170905Y-17520067D02*
X10161381Y-17510543D01*
X10142333Y-17481971D01*
X10132810Y-17462924D01*
X10123286Y-17434352D01*
X10113762Y-17386733D01*
X10113762Y-17348638D01*
X10123286Y-17301019D01*
X10132810Y-17272448D01*
X10142333Y-17253400D01*
X10161381Y-17224829D01*
X10170905Y-17215305D01*
X10332810Y-17310543D02*
X10332810Y-17443876D01*
X10285190Y-17234352D02*
X10237571Y-17377210D01*
X10361381Y-17377210D01*
X10418524Y-17243876D02*
X10551857Y-17243876D01*
X10466143Y-17443876D01*
X10780429Y-17443876D02*
X10780429Y-17243876D01*
X10866143Y-17443876D02*
X10866143Y-17339114D01*
X10856619Y-17320067D01*
X10837571Y-17310543D01*
X10809000Y-17310543D01*
X10789952Y-17320067D01*
X10780429Y-17329590D01*
X10989952Y-17443876D02*
X10970905Y-17434352D01*
X10961381Y-17424829D01*
X10951857Y-17405781D01*
X10951857Y-17348638D01*
X10961381Y-17329590D01*
X10970905Y-17320067D01*
X10989952Y-17310543D01*
X11018524Y-17310543D01*
X11037571Y-17320067D01*
X11047095Y-17329590D01*
X11056619Y-17348638D01*
X11056619Y-17405781D01*
X11047095Y-17424829D01*
X11037571Y-17434352D01*
X11018524Y-17443876D01*
X10989952Y-17443876D01*
X11170905Y-17443876D02*
X11151857Y-17434352D01*
X11142333Y-17415305D01*
X11142333Y-17243876D01*
X11323286Y-17434352D02*
X11304238Y-17443876D01*
X11266143Y-17443876D01*
X11247095Y-17434352D01*
X11237571Y-17415305D01*
X11237571Y-17339114D01*
X11247095Y-17320067D01*
X11266143Y-17310543D01*
X11304238Y-17310543D01*
X11323286Y-17320067D01*
X11332809Y-17339114D01*
X11332809Y-17358162D01*
X11237571Y-17377210D01*
X11409000Y-17434352D02*
X11428048Y-17443876D01*
X11466143Y-17443876D01*
X11485190Y-17434352D01*
X11494714Y-17415305D01*
X11494714Y-17405781D01*
X11485190Y-17386733D01*
X11466143Y-17377210D01*
X11437571Y-17377210D01*
X11418524Y-17367686D01*
X11409000Y-17348638D01*
X11409000Y-17339114D01*
X11418524Y-17320067D01*
X11437571Y-17310543D01*
X11466143Y-17310543D01*
X11485190Y-17320067D01*
X11561381Y-17520067D02*
X11570905Y-17510543D01*
X11589952Y-17481971D01*
X11599476Y-17462924D01*
X11609000Y-17434352D01*
X11618524Y-17386733D01*
X11618524Y-17348638D01*
X11609000Y-17301019D01*
X11599476Y-17272448D01*
X11589952Y-17253400D01*
X11570905Y-17224829D01*
X11561381Y-17215305D01*
D17*
X6509000Y-17572400D02*
X6599000Y-17662400D01*
X6599000Y-17572400D02*
X6509000Y-17662400D01*
X6599000Y-17617400D02*
G75*
G03*
X6599000Y-17617400I-45000J0D01*
G01*
D11*
X6894714Y-17507876D02*
X6913762Y-17507876D01*
X6932809Y-17517400D01*
X6942333Y-17526924D01*
X6951857Y-17545971D01*
X6961381Y-17584067D01*
X6961381Y-17631686D01*
X6951857Y-17669781D01*
X6942333Y-17688829D01*
X6932809Y-17698352D01*
X6913762Y-17707876D01*
X6894714Y-17707876D01*
X6875667Y-17698352D01*
X6866143Y-17688829D01*
X6856619Y-17669781D01*
X6847095Y-17631686D01*
X6847095Y-17584067D01*
X6856619Y-17545971D01*
X6866143Y-17526924D01*
X6875667Y-17517400D01*
X6894714Y-17507876D01*
X7047095Y-17688829D02*
X7056619Y-17698352D01*
X7047095Y-17707876D01*
X7037571Y-17698352D01*
X7047095Y-17688829D01*
X7047095Y-17707876D01*
X7151857Y-17707876D02*
X7189952Y-17707876D01*
X7209000Y-17698352D01*
X7218524Y-17688829D01*
X7237571Y-17660257D01*
X7247095Y-17622162D01*
X7247095Y-17545971D01*
X7237571Y-17526924D01*
X7228048Y-17517400D01*
X7209000Y-17507876D01*
X7170905Y-17507876D01*
X7151857Y-17517400D01*
X7142333Y-17526924D01*
X7132809Y-17545971D01*
X7132809Y-17593590D01*
X7142333Y-17612638D01*
X7151857Y-17622162D01*
X7170905Y-17631686D01*
X7209000Y-17631686D01*
X7228048Y-17622162D01*
X7237571Y-17612638D01*
X7247095Y-17593590D01*
X7370905Y-17507876D02*
X7389952Y-17507876D01*
X7409000Y-17517400D01*
X7418524Y-17526924D01*
X7428048Y-17545971D01*
X7437571Y-17584067D01*
X7437571Y-17631686D01*
X7428048Y-17669781D01*
X7418524Y-17688829D01*
X7409000Y-17698352D01*
X7389952Y-17707876D01*
X7370905Y-17707876D01*
X7351857Y-17698352D01*
X7342333Y-17688829D01*
X7332809Y-17669781D01*
X7323286Y-17631686D01*
X7323286Y-17584067D01*
X7332809Y-17545971D01*
X7342333Y-17526924D01*
X7351857Y-17517400D01*
X7370905Y-17507876D01*
X7561381Y-17507876D02*
X7580428Y-17507876D01*
X7599476Y-17517400D01*
X7609000Y-17526924D01*
X7618524Y-17545971D01*
X7628048Y-17584067D01*
X7628048Y-17631686D01*
X7618524Y-17669781D01*
X7609000Y-17688829D01*
X7599476Y-17698352D01*
X7580428Y-17707876D01*
X7561381Y-17707876D01*
X7542333Y-17698352D01*
X7532809Y-17688829D01*
X7523286Y-17669781D01*
X7513762Y-17631686D01*
X7513762Y-17584067D01*
X7523286Y-17545971D01*
X7532809Y-17526924D01*
X7542333Y-17517400D01*
X7561381Y-17507876D01*
X7713762Y-17707876D02*
X7713762Y-17574543D01*
X7713762Y-17593590D02*
X7723286Y-17584067D01*
X7742333Y-17574543D01*
X7770905Y-17574543D01*
X7789952Y-17584067D01*
X7799476Y-17603114D01*
X7799476Y-17707876D01*
X7799476Y-17603114D02*
X7809000Y-17584067D01*
X7828048Y-17574543D01*
X7856619Y-17574543D01*
X7875667Y-17584067D01*
X7885190Y-17603114D01*
X7885190Y-17707876D01*
X7980428Y-17707876D02*
X7980428Y-17574543D01*
X7980428Y-17593590D02*
X7989952Y-17584067D01*
X8009000Y-17574543D01*
X8037571Y-17574543D01*
X8056619Y-17584067D01*
X8066143Y-17603114D01*
X8066143Y-17707876D01*
X8066143Y-17603114D02*
X8075667Y-17584067D01*
X8094714Y-17574543D01*
X8123286Y-17574543D01*
X8142333Y-17584067D01*
X8151857Y-17603114D01*
X8151857Y-17707876D01*
X8542333Y-17498352D02*
X8370905Y-17755495D01*
X8799476Y-17507876D02*
X8818524Y-17507876D01*
X8837571Y-17517400D01*
X8847095Y-17526924D01*
X8856619Y-17545971D01*
X8866143Y-17584067D01*
X8866143Y-17631686D01*
X8856619Y-17669781D01*
X8847095Y-17688829D01*
X8837571Y-17698352D01*
X8818524Y-17707876D01*
X8799476Y-17707876D01*
X8780429Y-17698352D01*
X8770905Y-17688829D01*
X8761381Y-17669781D01*
X8751857Y-17631686D01*
X8751857Y-17584067D01*
X8761381Y-17545971D01*
X8770905Y-17526924D01*
X8780429Y-17517400D01*
X8799476Y-17507876D01*
X8951857Y-17688829D02*
X8961381Y-17698352D01*
X8951857Y-17707876D01*
X8942333Y-17698352D01*
X8951857Y-17688829D01*
X8951857Y-17707876D01*
X9085190Y-17507876D02*
X9104238Y-17507876D01*
X9123286Y-17517400D01*
X9132810Y-17526924D01*
X9142333Y-17545971D01*
X9151857Y-17584067D01*
X9151857Y-17631686D01*
X9142333Y-17669781D01*
X9132810Y-17688829D01*
X9123286Y-17698352D01*
X9104238Y-17707876D01*
X9085190Y-17707876D01*
X9066143Y-17698352D01*
X9056619Y-17688829D01*
X9047095Y-17669781D01*
X9037571Y-17631686D01*
X9037571Y-17584067D01*
X9047095Y-17545971D01*
X9056619Y-17526924D01*
X9066143Y-17517400D01*
X9085190Y-17507876D01*
X9218524Y-17507876D02*
X9342333Y-17507876D01*
X9275667Y-17584067D01*
X9304238Y-17584067D01*
X9323286Y-17593590D01*
X9332810Y-17603114D01*
X9342333Y-17622162D01*
X9342333Y-17669781D01*
X9332810Y-17688829D01*
X9323286Y-17698352D01*
X9304238Y-17707876D01*
X9247095Y-17707876D01*
X9228048Y-17698352D01*
X9218524Y-17688829D01*
X9523286Y-17507876D02*
X9428048Y-17507876D01*
X9418524Y-17603114D01*
X9428048Y-17593590D01*
X9447095Y-17584067D01*
X9494714Y-17584067D01*
X9513762Y-17593590D01*
X9523286Y-17603114D01*
X9532810Y-17622162D01*
X9532810Y-17669781D01*
X9523286Y-17688829D01*
X9513762Y-17698352D01*
X9494714Y-17707876D01*
X9447095Y-17707876D01*
X9428048Y-17698352D01*
X9418524Y-17688829D01*
X9704238Y-17574543D02*
X9704238Y-17707876D01*
X9656619Y-17498352D02*
X9609000Y-17641210D01*
X9732810Y-17641210D01*
X9799476Y-17507876D02*
X9799476Y-17545971D01*
X9875667Y-17507876D02*
X9875667Y-17545971D01*
X10170905Y-17784067D02*
X10161381Y-17774543D01*
X10142333Y-17745971D01*
X10132810Y-17726924D01*
X10123286Y-17698352D01*
X10113762Y-17650733D01*
X10113762Y-17612638D01*
X10123286Y-17565019D01*
X10132810Y-17536448D01*
X10142333Y-17517400D01*
X10161381Y-17488829D01*
X10170905Y-17479305D01*
X10237571Y-17526924D02*
X10247095Y-17517400D01*
X10266143Y-17507876D01*
X10313762Y-17507876D01*
X10332810Y-17517400D01*
X10342333Y-17526924D01*
X10351857Y-17545971D01*
X10351857Y-17565019D01*
X10342333Y-17593590D01*
X10228048Y-17707876D01*
X10351857Y-17707876D01*
X10589952Y-17707876D02*
X10589952Y-17507876D01*
X10675667Y-17707876D02*
X10675667Y-17603114D01*
X10666143Y-17584067D01*
X10647095Y-17574543D01*
X10618524Y-17574543D01*
X10599476Y-17584067D01*
X10589952Y-17593590D01*
X10799476Y-17707876D02*
X10780429Y-17698352D01*
X10770905Y-17688829D01*
X10761381Y-17669781D01*
X10761381Y-17612638D01*
X10770905Y-17593590D01*
X10780429Y-17584067D01*
X10799476Y-17574543D01*
X10828048Y-17574543D01*
X10847095Y-17584067D01*
X10856619Y-17593590D01*
X10866143Y-17612638D01*
X10866143Y-17669781D01*
X10856619Y-17688829D01*
X10847095Y-17698352D01*
X10828048Y-17707876D01*
X10799476Y-17707876D01*
X10980429Y-17707876D02*
X10961381Y-17698352D01*
X10951857Y-17679305D01*
X10951857Y-17507876D01*
X11132810Y-17698352D02*
X11113762Y-17707876D01*
X11075667Y-17707876D01*
X11056619Y-17698352D01*
X11047095Y-17679305D01*
X11047095Y-17603114D01*
X11056619Y-17584067D01*
X11075667Y-17574543D01*
X11113762Y-17574543D01*
X11132810Y-17584067D01*
X11142333Y-17603114D01*
X11142333Y-17622162D01*
X11047095Y-17641210D01*
X11218524Y-17698352D02*
X11237571Y-17707876D01*
X11275667Y-17707876D01*
X11294714Y-17698352D01*
X11304238Y-17679305D01*
X11304238Y-17669781D01*
X11294714Y-17650733D01*
X11275667Y-17641210D01*
X11247095Y-17641210D01*
X11228048Y-17631686D01*
X11218524Y-17612638D01*
X11218524Y-17603114D01*
X11228048Y-17584067D01*
X11247095Y-17574543D01*
X11275667Y-17574543D01*
X11294714Y-17584067D01*
X11370905Y-17784067D02*
X11380428Y-17774543D01*
X11399476Y-17745971D01*
X11409000Y-17726924D01*
X11418524Y-17698352D01*
X11428048Y-17650733D01*
X11428048Y-17612638D01*
X11418524Y-17565019D01*
X11409000Y-17536448D01*
X11399476Y-17517400D01*
X11380428Y-17488829D01*
X11370905Y-17479305D01*
D10*
X6499000Y-17831400D02*
X6599000Y-17931400D01*
X6599000Y-17831400D02*
X6499000Y-17931400D01*
X6549000Y-17831400D02*
X6549000Y-17931400D01*
X6499000Y-17881400D02*
X6599000Y-17881400D01*
D11*
X6961381Y-17971876D02*
X6847095Y-17971876D01*
X6904238Y-17971876D02*
X6904238Y-17771876D01*
X6885190Y-17800448D01*
X6866143Y-17819495D01*
X6847095Y-17829019D01*
X7047095Y-17952829D02*
X7056619Y-17962352D01*
X7047095Y-17971876D01*
X7037571Y-17962352D01*
X7047095Y-17952829D01*
X7047095Y-17971876D01*
X7180428Y-17771876D02*
X7199476Y-17771876D01*
X7218524Y-17781400D01*
X7228048Y-17790924D01*
X7237571Y-17809971D01*
X7247095Y-17848067D01*
X7247095Y-17895686D01*
X7237571Y-17933781D01*
X7228048Y-17952829D01*
X7218524Y-17962352D01*
X7199476Y-17971876D01*
X7180428Y-17971876D01*
X7161381Y-17962352D01*
X7151857Y-17952829D01*
X7142333Y-17933781D01*
X7132809Y-17895686D01*
X7132809Y-17848067D01*
X7142333Y-17809971D01*
X7151857Y-17790924D01*
X7161381Y-17781400D01*
X7180428Y-17771876D01*
X7370905Y-17771876D02*
X7389952Y-17771876D01*
X7409000Y-17781400D01*
X7418524Y-17790924D01*
X7428048Y-17809971D01*
X7437571Y-17848067D01*
X7437571Y-17895686D01*
X7428048Y-17933781D01*
X7418524Y-17952829D01*
X7409000Y-17962352D01*
X7389952Y-17971876D01*
X7370905Y-17971876D01*
X7351857Y-17962352D01*
X7342333Y-17952829D01*
X7332809Y-17933781D01*
X7323286Y-17895686D01*
X7323286Y-17848067D01*
X7332809Y-17809971D01*
X7342333Y-17790924D01*
X7351857Y-17781400D01*
X7370905Y-17771876D01*
X7561381Y-17771876D02*
X7580428Y-17771876D01*
X7599476Y-17781400D01*
X7609000Y-17790924D01*
X7618524Y-17809971D01*
X7628048Y-17848067D01*
X7628048Y-17895686D01*
X7618524Y-17933781D01*
X7609000Y-17952829D01*
X7599476Y-17962352D01*
X7580428Y-17971876D01*
X7561381Y-17971876D01*
X7542333Y-17962352D01*
X7532809Y-17952829D01*
X7523286Y-17933781D01*
X7513762Y-17895686D01*
X7513762Y-17848067D01*
X7523286Y-17809971D01*
X7532809Y-17790924D01*
X7542333Y-17781400D01*
X7561381Y-17771876D01*
X7713762Y-17971876D02*
X7713762Y-17838543D01*
X7713762Y-17857590D02*
X7723286Y-17848067D01*
X7742333Y-17838543D01*
X7770905Y-17838543D01*
X7789952Y-17848067D01*
X7799476Y-17867114D01*
X7799476Y-17971876D01*
X7799476Y-17867114D02*
X7809000Y-17848067D01*
X7828048Y-17838543D01*
X7856619Y-17838543D01*
X7875667Y-17848067D01*
X7885190Y-17867114D01*
X7885190Y-17971876D01*
X7980428Y-17971876D02*
X7980428Y-17838543D01*
X7980428Y-17857590D02*
X7989952Y-17848067D01*
X8009000Y-17838543D01*
X8037571Y-17838543D01*
X8056619Y-17848067D01*
X8066143Y-17867114D01*
X8066143Y-17971876D01*
X8066143Y-17867114D02*
X8075667Y-17848067D01*
X8094714Y-17838543D01*
X8123286Y-17838543D01*
X8142333Y-17848067D01*
X8151857Y-17867114D01*
X8151857Y-17971876D01*
X8542333Y-17762352D02*
X8370905Y-18019495D01*
X8799476Y-17771876D02*
X8818524Y-17771876D01*
X8837571Y-17781400D01*
X8847095Y-17790924D01*
X8856619Y-17809971D01*
X8866143Y-17848067D01*
X8866143Y-17895686D01*
X8856619Y-17933781D01*
X8847095Y-17952829D01*
X8837571Y-17962352D01*
X8818524Y-17971876D01*
X8799476Y-17971876D01*
X8780429Y-17962352D01*
X8770905Y-17952829D01*
X8761381Y-17933781D01*
X8751857Y-17895686D01*
X8751857Y-17848067D01*
X8761381Y-17809971D01*
X8770905Y-17790924D01*
X8780429Y-17781400D01*
X8799476Y-17771876D01*
X8951857Y-17952829D02*
X8961381Y-17962352D01*
X8951857Y-17971876D01*
X8942333Y-17962352D01*
X8951857Y-17952829D01*
X8951857Y-17971876D01*
X9085190Y-17771876D02*
X9104238Y-17771876D01*
X9123286Y-17781400D01*
X9132810Y-17790924D01*
X9142333Y-17809971D01*
X9151857Y-17848067D01*
X9151857Y-17895686D01*
X9142333Y-17933781D01*
X9132810Y-17952829D01*
X9123286Y-17962352D01*
X9104238Y-17971876D01*
X9085190Y-17971876D01*
X9066143Y-17962352D01*
X9056619Y-17952829D01*
X9047095Y-17933781D01*
X9037571Y-17895686D01*
X9037571Y-17848067D01*
X9047095Y-17809971D01*
X9056619Y-17790924D01*
X9066143Y-17781400D01*
X9085190Y-17771876D01*
X9218524Y-17771876D02*
X9342333Y-17771876D01*
X9275667Y-17848067D01*
X9304238Y-17848067D01*
X9323286Y-17857590D01*
X9332810Y-17867114D01*
X9342333Y-17886162D01*
X9342333Y-17933781D01*
X9332810Y-17952829D01*
X9323286Y-17962352D01*
X9304238Y-17971876D01*
X9247095Y-17971876D01*
X9228048Y-17962352D01*
X9218524Y-17952829D01*
X9437571Y-17971876D02*
X9475667Y-17971876D01*
X9494714Y-17962352D01*
X9504238Y-17952829D01*
X9523286Y-17924257D01*
X9532810Y-17886162D01*
X9532810Y-17809971D01*
X9523286Y-17790924D01*
X9513762Y-17781400D01*
X9494714Y-17771876D01*
X9456619Y-17771876D01*
X9437571Y-17781400D01*
X9428048Y-17790924D01*
X9418524Y-17809971D01*
X9418524Y-17857590D01*
X9428048Y-17876638D01*
X9437571Y-17886162D01*
X9456619Y-17895686D01*
X9494714Y-17895686D01*
X9513762Y-17886162D01*
X9523286Y-17876638D01*
X9532810Y-17857590D01*
X9704238Y-17838543D02*
X9704238Y-17971876D01*
X9656619Y-17762352D02*
X9609000Y-17905210D01*
X9732810Y-17905210D01*
X9799476Y-17771876D02*
X9799476Y-17809971D01*
X9875667Y-17771876D02*
X9875667Y-17809971D01*
X10170905Y-18048067D02*
X10161381Y-18038543D01*
X10142333Y-18009971D01*
X10132810Y-17990924D01*
X10123286Y-17962352D01*
X10113762Y-17914733D01*
X10113762Y-17876638D01*
X10123286Y-17829019D01*
X10132810Y-17800448D01*
X10142333Y-17781400D01*
X10161381Y-17752829D01*
X10170905Y-17743305D01*
X10351857Y-17971876D02*
X10237571Y-17971876D01*
X10294714Y-17971876D02*
X10294714Y-17771876D01*
X10275667Y-17800448D01*
X10256619Y-17819495D01*
X10237571Y-17829019D01*
X10523286Y-17771876D02*
X10485190Y-17771876D01*
X10466143Y-17781400D01*
X10456619Y-17790924D01*
X10437571Y-17819495D01*
X10428048Y-17857590D01*
X10428048Y-17933781D01*
X10437571Y-17952829D01*
X10447095Y-17962352D01*
X10466143Y-17971876D01*
X10504238Y-17971876D01*
X10523286Y-17962352D01*
X10532810Y-17952829D01*
X10542333Y-17933781D01*
X10542333Y-17886162D01*
X10532810Y-17867114D01*
X10523286Y-17857590D01*
X10504238Y-17848067D01*
X10466143Y-17848067D01*
X10447095Y-17857590D01*
X10437571Y-17867114D01*
X10428048Y-17886162D01*
X10723286Y-17771876D02*
X10628048Y-17771876D01*
X10618524Y-17867114D01*
X10628048Y-17857590D01*
X10647095Y-17848067D01*
X10694714Y-17848067D01*
X10713762Y-17857590D01*
X10723286Y-17867114D01*
X10732810Y-17886162D01*
X10732810Y-17933781D01*
X10723286Y-17952829D01*
X10713762Y-17962352D01*
X10694714Y-17971876D01*
X10647095Y-17971876D01*
X10628048Y-17962352D01*
X10618524Y-17952829D01*
X10970905Y-17971876D02*
X10970905Y-17771876D01*
X11056619Y-17971876D02*
X11056619Y-17867114D01*
X11047095Y-17848067D01*
X11028048Y-17838543D01*
X10999476Y-17838543D01*
X10980429Y-17848067D01*
X10970905Y-17857590D01*
X11180429Y-17971876D02*
X11161381Y-17962352D01*
X11151857Y-17952829D01*
X11142333Y-17933781D01*
X11142333Y-17876638D01*
X11151857Y-17857590D01*
X11161381Y-17848067D01*
X11180429Y-17838543D01*
X11209000Y-17838543D01*
X11228048Y-17848067D01*
X11237571Y-17857590D01*
X11247095Y-17876638D01*
X11247095Y-17933781D01*
X11237571Y-17952829D01*
X11228048Y-17962352D01*
X11209000Y-17971876D01*
X11180429Y-17971876D01*
X11361381Y-17971876D02*
X11342333Y-17962352D01*
X11332809Y-17943305D01*
X11332809Y-17771876D01*
X11513762Y-17962352D02*
X11494714Y-17971876D01*
X11456619Y-17971876D01*
X11437571Y-17962352D01*
X11428048Y-17943305D01*
X11428048Y-17867114D01*
X11437571Y-17848067D01*
X11456619Y-17838543D01*
X11494714Y-17838543D01*
X11513762Y-17848067D01*
X11523286Y-17867114D01*
X11523286Y-17886162D01*
X11428048Y-17905210D01*
X11599476Y-17962352D02*
X11618524Y-17971876D01*
X11656619Y-17971876D01*
X11675667Y-17962352D01*
X11685190Y-17943305D01*
X11685190Y-17933781D01*
X11675667Y-17914733D01*
X11656619Y-17905210D01*
X11628048Y-17905210D01*
X11609000Y-17895686D01*
X11599476Y-17876638D01*
X11599476Y-17867114D01*
X11609000Y-17848067D01*
X11628048Y-17838543D01*
X11656619Y-17838543D01*
X11675667Y-17848067D01*
X11923286Y-17895686D02*
X12075667Y-17895686D01*
X11999476Y-17971876D02*
X11999476Y-17819495D01*
X12304238Y-17771876D02*
X12428048Y-17771876D01*
X12361381Y-17848067D01*
X12389952Y-17848067D01*
X12409000Y-17857590D01*
X12418524Y-17867114D01*
X12428048Y-17886162D01*
X12428048Y-17933781D01*
X12418524Y-17952829D01*
X12409000Y-17962352D01*
X12389952Y-17971876D01*
X12332809Y-17971876D01*
X12313762Y-17962352D01*
X12304238Y-17952829D01*
X12656619Y-17962352D02*
X12675667Y-17971876D01*
X12713762Y-17971876D01*
X12732809Y-17962352D01*
X12742333Y-17943305D01*
X12742333Y-17933781D01*
X12732809Y-17914733D01*
X12713762Y-17905210D01*
X12685190Y-17905210D01*
X12666143Y-17895686D01*
X12656619Y-17876638D01*
X12656619Y-17867114D01*
X12666143Y-17848067D01*
X12685190Y-17838543D01*
X12713762Y-17838543D01*
X12732809Y-17848067D01*
X12856619Y-17971876D02*
X12837571Y-17962352D01*
X12828048Y-17943305D01*
X12828048Y-17771876D01*
X12961381Y-17971876D02*
X12942333Y-17962352D01*
X12932809Y-17952829D01*
X12923286Y-17933781D01*
X12923286Y-17876638D01*
X12932809Y-17857590D01*
X12942333Y-17848067D01*
X12961381Y-17838543D01*
X12989952Y-17838543D01*
X13009000Y-17848067D01*
X13018524Y-17857590D01*
X13028048Y-17876638D01*
X13028048Y-17933781D01*
X13018524Y-17952829D01*
X13009000Y-17962352D01*
X12989952Y-17971876D01*
X12961381Y-17971876D01*
X13085190Y-17838543D02*
X13161381Y-17838543D01*
X13113762Y-17771876D02*
X13113762Y-17943305D01*
X13123286Y-17962352D01*
X13142333Y-17971876D01*
X13161381Y-17971876D01*
X13218524Y-17962352D02*
X13237571Y-17971876D01*
X13275667Y-17971876D01*
X13294714Y-17962352D01*
X13304238Y-17943305D01*
X13304238Y-17933781D01*
X13294714Y-17914733D01*
X13275667Y-17905210D01*
X13247095Y-17905210D01*
X13228048Y-17895686D01*
X13218524Y-17876638D01*
X13218524Y-17867114D01*
X13228048Y-17848067D01*
X13247095Y-17838543D01*
X13275667Y-17838543D01*
X13294714Y-17848067D01*
X13370905Y-18048067D02*
X13380428Y-18038543D01*
X13399476Y-18009971D01*
X13409000Y-17990924D01*
X13418524Y-17962352D01*
X13428048Y-17914733D01*
X13428048Y-17876638D01*
X13418524Y-17829019D01*
X13409000Y-17800448D01*
X13399476Y-17781400D01*
X13380428Y-17752829D01*
X13370905Y-17743305D01*
D18*
X6479000Y-18085400D02*
X6599000Y-18205400D01*
X6599000Y-18085400D02*
X6479000Y-18205400D01*
X6581427Y-18187827D02*
X6581427Y-18102973D01*
X6496573Y-18102973D01*
X6496573Y-18187827D01*
X6581427Y-18187827D01*
D11*
X6961381Y-18235876D02*
X6847095Y-18235876D01*
X6904238Y-18235876D02*
X6904238Y-18035876D01*
X6885190Y-18064448D01*
X6866143Y-18083495D01*
X6847095Y-18093019D01*
X7047095Y-18216829D02*
X7056619Y-18226352D01*
X7047095Y-18235876D01*
X7037571Y-18226352D01*
X7047095Y-18216829D01*
X7047095Y-18235876D01*
X7132809Y-18054924D02*
X7142333Y-18045400D01*
X7161381Y-18035876D01*
X7209000Y-18035876D01*
X7228048Y-18045400D01*
X7237571Y-18054924D01*
X7247095Y-18073971D01*
X7247095Y-18093019D01*
X7237571Y-18121590D01*
X7123286Y-18235876D01*
X7247095Y-18235876D01*
X7370905Y-18035876D02*
X7389952Y-18035876D01*
X7409000Y-18045400D01*
X7418524Y-18054924D01*
X7428048Y-18073971D01*
X7437571Y-18112067D01*
X7437571Y-18159686D01*
X7428048Y-18197781D01*
X7418524Y-18216829D01*
X7409000Y-18226352D01*
X7389952Y-18235876D01*
X7370905Y-18235876D01*
X7351857Y-18226352D01*
X7342333Y-18216829D01*
X7332809Y-18197781D01*
X7323286Y-18159686D01*
X7323286Y-18112067D01*
X7332809Y-18073971D01*
X7342333Y-18054924D01*
X7351857Y-18045400D01*
X7370905Y-18035876D01*
X7561381Y-18035876D02*
X7580428Y-18035876D01*
X7599476Y-18045400D01*
X7609000Y-18054924D01*
X7618524Y-18073971D01*
X7628048Y-18112067D01*
X7628048Y-18159686D01*
X7618524Y-18197781D01*
X7609000Y-18216829D01*
X7599476Y-18226352D01*
X7580428Y-18235876D01*
X7561381Y-18235876D01*
X7542333Y-18226352D01*
X7532809Y-18216829D01*
X7523286Y-18197781D01*
X7513762Y-18159686D01*
X7513762Y-18112067D01*
X7523286Y-18073971D01*
X7532809Y-18054924D01*
X7542333Y-18045400D01*
X7561381Y-18035876D01*
X7713762Y-18235876D02*
X7713762Y-18102543D01*
X7713762Y-18121590D02*
X7723286Y-18112067D01*
X7742333Y-18102543D01*
X7770905Y-18102543D01*
X7789952Y-18112067D01*
X7799476Y-18131114D01*
X7799476Y-18235876D01*
X7799476Y-18131114D02*
X7809000Y-18112067D01*
X7828048Y-18102543D01*
X7856619Y-18102543D01*
X7875667Y-18112067D01*
X7885190Y-18131114D01*
X7885190Y-18235876D01*
X7980428Y-18235876D02*
X7980428Y-18102543D01*
X7980428Y-18121590D02*
X7989952Y-18112067D01*
X8009000Y-18102543D01*
X8037571Y-18102543D01*
X8056619Y-18112067D01*
X8066143Y-18131114D01*
X8066143Y-18235876D01*
X8066143Y-18131114D02*
X8075667Y-18112067D01*
X8094714Y-18102543D01*
X8123286Y-18102543D01*
X8142333Y-18112067D01*
X8151857Y-18131114D01*
X8151857Y-18235876D01*
X8542333Y-18026352D02*
X8370905Y-18283495D01*
X8799476Y-18035876D02*
X8818524Y-18035876D01*
X8837571Y-18045400D01*
X8847095Y-18054924D01*
X8856619Y-18073971D01*
X8866143Y-18112067D01*
X8866143Y-18159686D01*
X8856619Y-18197781D01*
X8847095Y-18216829D01*
X8837571Y-18226352D01*
X8818524Y-18235876D01*
X8799476Y-18235876D01*
X8780429Y-18226352D01*
X8770905Y-18216829D01*
X8761381Y-18197781D01*
X8751857Y-18159686D01*
X8751857Y-18112067D01*
X8761381Y-18073971D01*
X8770905Y-18054924D01*
X8780429Y-18045400D01*
X8799476Y-18035876D01*
X8951857Y-18216829D02*
X8961381Y-18226352D01*
X8951857Y-18235876D01*
X8942333Y-18226352D01*
X8951857Y-18216829D01*
X8951857Y-18235876D01*
X9085190Y-18035876D02*
X9104238Y-18035876D01*
X9123286Y-18045400D01*
X9132810Y-18054924D01*
X9142333Y-18073971D01*
X9151857Y-18112067D01*
X9151857Y-18159686D01*
X9142333Y-18197781D01*
X9132810Y-18216829D01*
X9123286Y-18226352D01*
X9104238Y-18235876D01*
X9085190Y-18235876D01*
X9066143Y-18226352D01*
X9056619Y-18216829D01*
X9047095Y-18197781D01*
X9037571Y-18159686D01*
X9037571Y-18112067D01*
X9047095Y-18073971D01*
X9056619Y-18054924D01*
X9066143Y-18045400D01*
X9085190Y-18035876D01*
X9323286Y-18102543D02*
X9323286Y-18235876D01*
X9275667Y-18026352D02*
X9228048Y-18169210D01*
X9351857Y-18169210D01*
X9409000Y-18035876D02*
X9542333Y-18035876D01*
X9456619Y-18235876D01*
X9609000Y-18054924D02*
X9618524Y-18045400D01*
X9637571Y-18035876D01*
X9685190Y-18035876D01*
X9704238Y-18045400D01*
X9713762Y-18054924D01*
X9723286Y-18073971D01*
X9723286Y-18093019D01*
X9713762Y-18121590D01*
X9599476Y-18235876D01*
X9723286Y-18235876D01*
X9799476Y-18035876D02*
X9799476Y-18073971D01*
X9875667Y-18035876D02*
X9875667Y-18073971D01*
X10170905Y-18312067D02*
X10161381Y-18302543D01*
X10142333Y-18273971D01*
X10132810Y-18254924D01*
X10123286Y-18226352D01*
X10113762Y-18178733D01*
X10113762Y-18140638D01*
X10123286Y-18093019D01*
X10132810Y-18064448D01*
X10142333Y-18045400D01*
X10161381Y-18016829D01*
X10170905Y-18007305D01*
X10351857Y-18235876D02*
X10237571Y-18235876D01*
X10294714Y-18235876D02*
X10294714Y-18035876D01*
X10275667Y-18064448D01*
X10256619Y-18083495D01*
X10237571Y-18093019D01*
X10523286Y-18035876D02*
X10485190Y-18035876D01*
X10466143Y-18045400D01*
X10456619Y-18054924D01*
X10437571Y-18083495D01*
X10428048Y-18121590D01*
X10428048Y-18197781D01*
X10437571Y-18216829D01*
X10447095Y-18226352D01*
X10466143Y-18235876D01*
X10504238Y-18235876D01*
X10523286Y-18226352D01*
X10532810Y-18216829D01*
X10542333Y-18197781D01*
X10542333Y-18150162D01*
X10532810Y-18131114D01*
X10523286Y-18121590D01*
X10504238Y-18112067D01*
X10466143Y-18112067D01*
X10447095Y-18121590D01*
X10437571Y-18131114D01*
X10428048Y-18150162D01*
X10780429Y-18235876D02*
X10780429Y-18035876D01*
X10866143Y-18235876D02*
X10866143Y-18131114D01*
X10856619Y-18112067D01*
X10837571Y-18102543D01*
X10809000Y-18102543D01*
X10789952Y-18112067D01*
X10780429Y-18121590D01*
X10989952Y-18235876D02*
X10970905Y-18226352D01*
X10961381Y-18216829D01*
X10951857Y-18197781D01*
X10951857Y-18140638D01*
X10961381Y-18121590D01*
X10970905Y-18112067D01*
X10989952Y-18102543D01*
X11018524Y-18102543D01*
X11037571Y-18112067D01*
X11047095Y-18121590D01*
X11056619Y-18140638D01*
X11056619Y-18197781D01*
X11047095Y-18216829D01*
X11037571Y-18226352D01*
X11018524Y-18235876D01*
X10989952Y-18235876D01*
X11170905Y-18235876D02*
X11151857Y-18226352D01*
X11142333Y-18207305D01*
X11142333Y-18035876D01*
X11323286Y-18226352D02*
X11304238Y-18235876D01*
X11266143Y-18235876D01*
X11247095Y-18226352D01*
X11237571Y-18207305D01*
X11237571Y-18131114D01*
X11247095Y-18112067D01*
X11266143Y-18102543D01*
X11304238Y-18102543D01*
X11323286Y-18112067D01*
X11332809Y-18131114D01*
X11332809Y-18150162D01*
X11237571Y-18169210D01*
X11409000Y-18226352D02*
X11428048Y-18235876D01*
X11466143Y-18235876D01*
X11485190Y-18226352D01*
X11494714Y-18207305D01*
X11494714Y-18197781D01*
X11485190Y-18178733D01*
X11466143Y-18169210D01*
X11437571Y-18169210D01*
X11418524Y-18159686D01*
X11409000Y-18140638D01*
X11409000Y-18131114D01*
X11418524Y-18112067D01*
X11437571Y-18102543D01*
X11466143Y-18102543D01*
X11485190Y-18112067D01*
X11561381Y-18312067D02*
X11570905Y-18302543D01*
X11589952Y-18273971D01*
X11599476Y-18254924D01*
X11609000Y-18226352D01*
X11618524Y-18178733D01*
X11618524Y-18140638D01*
X11609000Y-18093019D01*
X11599476Y-18064448D01*
X11589952Y-18045400D01*
X11570905Y-18016829D01*
X11561381Y-18007305D01*
X6399000Y-18309400D02*
X6599000Y-18509400D01*
X6599000Y-18309400D02*
X6399000Y-18509400D01*
X6499000Y-18509400D02*
X6599000Y-18409400D01*
X6499000Y-18309400D01*
X6399000Y-18409400D01*
X6499000Y-18509400D01*
X6847095Y-18318924D02*
X6856619Y-18309400D01*
X6875667Y-18299876D01*
X6923286Y-18299876D01*
X6942333Y-18309400D01*
X6951857Y-18318924D01*
X6961381Y-18337971D01*
X6961381Y-18357019D01*
X6951857Y-18385590D01*
X6837571Y-18499876D01*
X6961381Y-18499876D01*
X7047095Y-18480829D02*
X7056619Y-18490352D01*
X7047095Y-18499876D01*
X7037571Y-18490352D01*
X7047095Y-18480829D01*
X7047095Y-18499876D01*
X7237571Y-18299876D02*
X7142333Y-18299876D01*
X7132809Y-18395114D01*
X7142333Y-18385590D01*
X7161381Y-18376067D01*
X7209000Y-18376067D01*
X7228048Y-18385590D01*
X7237571Y-18395114D01*
X7247095Y-18414162D01*
X7247095Y-18461781D01*
X7237571Y-18480829D01*
X7228048Y-18490352D01*
X7209000Y-18499876D01*
X7161381Y-18499876D01*
X7142333Y-18490352D01*
X7132809Y-18480829D01*
X7370905Y-18299876D02*
X7389952Y-18299876D01*
X7409000Y-18309400D01*
X7418524Y-18318924D01*
X7428048Y-18337971D01*
X7437571Y-18376067D01*
X7437571Y-18423686D01*
X7428048Y-18461781D01*
X7418524Y-18480829D01*
X7409000Y-18490352D01*
X7389952Y-18499876D01*
X7370905Y-18499876D01*
X7351857Y-18490352D01*
X7342333Y-18480829D01*
X7332809Y-18461781D01*
X7323286Y-18423686D01*
X7323286Y-18376067D01*
X7332809Y-18337971D01*
X7342333Y-18318924D01*
X7351857Y-18309400D01*
X7370905Y-18299876D01*
X7561381Y-18299876D02*
X7580428Y-18299876D01*
X7599476Y-18309400D01*
X7609000Y-18318924D01*
X7618524Y-18337971D01*
X7628048Y-18376067D01*
X7628048Y-18423686D01*
X7618524Y-18461781D01*
X7609000Y-18480829D01*
X7599476Y-18490352D01*
X7580428Y-18499876D01*
X7561381Y-18499876D01*
X7542333Y-18490352D01*
X7532809Y-18480829D01*
X7523286Y-18461781D01*
X7513762Y-18423686D01*
X7513762Y-18376067D01*
X7523286Y-18337971D01*
X7532809Y-18318924D01*
X7542333Y-18309400D01*
X7561381Y-18299876D01*
X7713762Y-18499876D02*
X7713762Y-18366543D01*
X7713762Y-18385590D02*
X7723286Y-18376067D01*
X7742333Y-18366543D01*
X7770905Y-18366543D01*
X7789952Y-18376067D01*
X7799476Y-18395114D01*
X7799476Y-18499876D01*
X7799476Y-18395114D02*
X7809000Y-18376067D01*
X7828048Y-18366543D01*
X7856619Y-18366543D01*
X7875667Y-18376067D01*
X7885190Y-18395114D01*
X7885190Y-18499876D01*
X7980428Y-18499876D02*
X7980428Y-18366543D01*
X7980428Y-18385590D02*
X7989952Y-18376067D01*
X8009000Y-18366543D01*
X8037571Y-18366543D01*
X8056619Y-18376067D01*
X8066143Y-18395114D01*
X8066143Y-18499876D01*
X8066143Y-18395114D02*
X8075667Y-18376067D01*
X8094714Y-18366543D01*
X8123286Y-18366543D01*
X8142333Y-18376067D01*
X8151857Y-18395114D01*
X8151857Y-18499876D01*
X8542333Y-18290352D02*
X8370905Y-18547495D01*
X8799476Y-18299876D02*
X8818524Y-18299876D01*
X8837571Y-18309400D01*
X8847095Y-18318924D01*
X8856619Y-18337971D01*
X8866143Y-18376067D01*
X8866143Y-18423686D01*
X8856619Y-18461781D01*
X8847095Y-18480829D01*
X8837571Y-18490352D01*
X8818524Y-18499876D01*
X8799476Y-18499876D01*
X8780429Y-18490352D01*
X8770905Y-18480829D01*
X8761381Y-18461781D01*
X8751857Y-18423686D01*
X8751857Y-18376067D01*
X8761381Y-18337971D01*
X8770905Y-18318924D01*
X8780429Y-18309400D01*
X8799476Y-18299876D01*
X8951857Y-18480829D02*
X8961381Y-18490352D01*
X8951857Y-18499876D01*
X8942333Y-18490352D01*
X8951857Y-18480829D01*
X8951857Y-18499876D01*
X9085190Y-18299876D02*
X9104238Y-18299876D01*
X9123286Y-18309400D01*
X9132810Y-18318924D01*
X9142333Y-18337971D01*
X9151857Y-18376067D01*
X9151857Y-18423686D01*
X9142333Y-18461781D01*
X9132810Y-18480829D01*
X9123286Y-18490352D01*
X9104238Y-18499876D01*
X9085190Y-18499876D01*
X9066143Y-18490352D01*
X9056619Y-18480829D01*
X9047095Y-18461781D01*
X9037571Y-18423686D01*
X9037571Y-18376067D01*
X9047095Y-18337971D01*
X9056619Y-18318924D01*
X9066143Y-18309400D01*
X9085190Y-18299876D01*
X9247095Y-18499876D02*
X9285190Y-18499876D01*
X9304238Y-18490352D01*
X9313762Y-18480829D01*
X9332810Y-18452257D01*
X9342333Y-18414162D01*
X9342333Y-18337971D01*
X9332810Y-18318924D01*
X9323286Y-18309400D01*
X9304238Y-18299876D01*
X9266143Y-18299876D01*
X9247095Y-18309400D01*
X9237571Y-18318924D01*
X9228048Y-18337971D01*
X9228048Y-18385590D01*
X9237571Y-18404638D01*
X9247095Y-18414162D01*
X9266143Y-18423686D01*
X9304238Y-18423686D01*
X9323286Y-18414162D01*
X9332810Y-18404638D01*
X9342333Y-18385590D01*
X9456619Y-18385590D02*
X9437571Y-18376067D01*
X9428048Y-18366543D01*
X9418524Y-18347495D01*
X9418524Y-18337971D01*
X9428048Y-18318924D01*
X9437571Y-18309400D01*
X9456619Y-18299876D01*
X9494714Y-18299876D01*
X9513762Y-18309400D01*
X9523286Y-18318924D01*
X9532810Y-18337971D01*
X9532810Y-18347495D01*
X9523286Y-18366543D01*
X9513762Y-18376067D01*
X9494714Y-18385590D01*
X9456619Y-18385590D01*
X9437571Y-18395114D01*
X9428048Y-18404638D01*
X9418524Y-18423686D01*
X9418524Y-18461781D01*
X9428048Y-18480829D01*
X9437571Y-18490352D01*
X9456619Y-18499876D01*
X9494714Y-18499876D01*
X9513762Y-18490352D01*
X9523286Y-18480829D01*
X9532810Y-18461781D01*
X9532810Y-18423686D01*
X9523286Y-18404638D01*
X9513762Y-18395114D01*
X9494714Y-18385590D01*
X9704238Y-18366543D02*
X9704238Y-18499876D01*
X9656619Y-18290352D02*
X9609000Y-18433210D01*
X9732810Y-18433210D01*
X9799476Y-18299876D02*
X9799476Y-18337971D01*
X9875667Y-18299876D02*
X9875667Y-18337971D01*
X10170905Y-18576067D02*
X10161381Y-18566543D01*
X10142333Y-18537971D01*
X10132810Y-18518924D01*
X10123286Y-18490352D01*
X10113762Y-18442733D01*
X10113762Y-18404638D01*
X10123286Y-18357019D01*
X10132810Y-18328448D01*
X10142333Y-18309400D01*
X10161381Y-18280829D01*
X10170905Y-18271305D01*
X10332810Y-18366543D02*
X10332810Y-18499876D01*
X10285190Y-18290352D02*
X10237571Y-18433210D01*
X10361381Y-18433210D01*
X10589952Y-18499876D02*
X10589952Y-18299876D01*
X10675667Y-18499876D02*
X10675667Y-18395114D01*
X10666143Y-18376067D01*
X10647095Y-18366543D01*
X10618524Y-18366543D01*
X10599476Y-18376067D01*
X10589952Y-18385590D01*
X10799476Y-18499876D02*
X10780429Y-18490352D01*
X10770905Y-18480829D01*
X10761381Y-18461781D01*
X10761381Y-18404638D01*
X10770905Y-18385590D01*
X10780429Y-18376067D01*
X10799476Y-18366543D01*
X10828048Y-18366543D01*
X10847095Y-18376067D01*
X10856619Y-18385590D01*
X10866143Y-18404638D01*
X10866143Y-18461781D01*
X10856619Y-18480829D01*
X10847095Y-18490352D01*
X10828048Y-18499876D01*
X10799476Y-18499876D01*
X10980429Y-18499876D02*
X10961381Y-18490352D01*
X10951857Y-18471305D01*
X10951857Y-18299876D01*
X11132810Y-18490352D02*
X11113762Y-18499876D01*
X11075667Y-18499876D01*
X11056619Y-18490352D01*
X11047095Y-18471305D01*
X11047095Y-18395114D01*
X11056619Y-18376067D01*
X11075667Y-18366543D01*
X11113762Y-18366543D01*
X11132810Y-18376067D01*
X11142333Y-18395114D01*
X11142333Y-18414162D01*
X11047095Y-18433210D01*
X11218524Y-18490352D02*
X11237571Y-18499876D01*
X11275667Y-18499876D01*
X11294714Y-18490352D01*
X11304238Y-18471305D01*
X11304238Y-18461781D01*
X11294714Y-18442733D01*
X11275667Y-18433210D01*
X11247095Y-18433210D01*
X11228048Y-18423686D01*
X11218524Y-18404638D01*
X11218524Y-18395114D01*
X11228048Y-18376067D01*
X11247095Y-18366543D01*
X11275667Y-18366543D01*
X11294714Y-18376067D01*
X11370905Y-18576067D02*
X11380428Y-18566543D01*
X11399476Y-18537971D01*
X11409000Y-18518924D01*
X11418524Y-18490352D01*
X11428048Y-18442733D01*
X11428048Y-18404638D01*
X11418524Y-18357019D01*
X11409000Y-18328448D01*
X11399476Y-18309400D01*
X11380428Y-18280829D01*
X11370905Y-18271305D01*
M02*
