%TF.GenerationSoftware,KiCad,Pcbnew,(6.0.11-0)*%
%TF.CreationDate,2023-06-10T21:55:55+02:00*%
%TF.ProjectId,6502_computer,36353032-5f63-46f6-9d70-757465722e6b,REV*%
%TF.SameCoordinates,Original*%
%TF.FileFunction,Drillmap*%
%TF.FilePolarity,Positive*%
%FSLAX45Y45*%
G04 Gerber Fmt 4.5, Leading zero omitted, Abs format (unit mm)*
G04 Created by KiCad (PCBNEW (6.0.11-0)) date 2023-06-10 21:55:55*
%MOMM*%
%LPD*%
G01*
G04 APERTURE LIST*
%ADD10C,0.100000*%
%ADD11C,0.200000*%
%ADD12C,0.270000*%
%ADD13C,0.320000*%
G04 APERTURE END LIST*
D10*
X23050500Y-15652400D02*
X7112000Y-15652400D01*
X6604000Y-15144400D02*
X6604000Y-4953000D01*
X23558500Y-4953000D02*
G75*
G03*
X23050500Y-4445000I-497150J10850D01*
G01*
X6604000Y-15144400D02*
G75*
G03*
X7112000Y-15652400I508000J0D01*
G01*
X7112000Y-4445000D02*
G75*
G03*
X6604000Y-4953000I0J-508000D01*
G01*
X23050500Y-15652400D02*
G75*
G03*
X23558500Y-15144400I0J508000D01*
G01*
X7112000Y-4445000D02*
X23050500Y-4445000D01*
X23558500Y-4953000D02*
X23558500Y-15144400D01*
D11*
D12*
X7939800Y-4703700D02*
X8209800Y-4973700D01*
X8209800Y-4703700D02*
X7939800Y-4973700D01*
X7939800Y-8691500D02*
X8209800Y-8961500D01*
X8209800Y-8691500D02*
X7939800Y-8961500D01*
X23027400Y-4703700D02*
X23297400Y-4973700D01*
X23297400Y-4703700D02*
X23027400Y-4973700D01*
X23027400Y-8691500D02*
X23297400Y-8961500D01*
X23297400Y-8691500D02*
X23027400Y-8961500D01*
D13*
X7442889Y-11638039D02*
G75*
G03*
X7442889Y-11638039I-160000J0D01*
G01*
X7442889Y-14203439D02*
G75*
G03*
X7442889Y-14203439I-160000J0D01*
G01*
X14910489Y-11638039D02*
G75*
G03*
X14910489Y-11638039I-160000J0D01*
G01*
X14910489Y-14203439D02*
G75*
G03*
X14910489Y-14203439I-160000J0D01*
G01*
D11*
X6856619Y-15967876D02*
X6856619Y-15767876D01*
X6904238Y-15767876D01*
X6932809Y-15777400D01*
X6951857Y-15796448D01*
X6961381Y-15815495D01*
X6970905Y-15853590D01*
X6970905Y-15882162D01*
X6961381Y-15920257D01*
X6951857Y-15939305D01*
X6932809Y-15958352D01*
X6904238Y-15967876D01*
X6856619Y-15967876D01*
X7056619Y-15967876D02*
X7056619Y-15834543D01*
X7056619Y-15872638D02*
X7066143Y-15853590D01*
X7075667Y-15844067D01*
X7094714Y-15834543D01*
X7113762Y-15834543D01*
X7180428Y-15967876D02*
X7180428Y-15834543D01*
X7180428Y-15767876D02*
X7170905Y-15777400D01*
X7180428Y-15786924D01*
X7189952Y-15777400D01*
X7180428Y-15767876D01*
X7180428Y-15786924D01*
X7304238Y-15967876D02*
X7285190Y-15958352D01*
X7275667Y-15939305D01*
X7275667Y-15767876D01*
X7409000Y-15967876D02*
X7389952Y-15958352D01*
X7380428Y-15939305D01*
X7380428Y-15767876D01*
X7637571Y-15967876D02*
X7637571Y-15767876D01*
X7704238Y-15910733D01*
X7770905Y-15767876D01*
X7770905Y-15967876D01*
X7951857Y-15967876D02*
X7951857Y-15863114D01*
X7942333Y-15844067D01*
X7923286Y-15834543D01*
X7885190Y-15834543D01*
X7866143Y-15844067D01*
X7951857Y-15958352D02*
X7932809Y-15967876D01*
X7885190Y-15967876D01*
X7866143Y-15958352D01*
X7856619Y-15939305D01*
X7856619Y-15920257D01*
X7866143Y-15901209D01*
X7885190Y-15891686D01*
X7932809Y-15891686D01*
X7951857Y-15882162D01*
X8047095Y-15834543D02*
X8047095Y-16034543D01*
X8047095Y-15844067D02*
X8066143Y-15834543D01*
X8104238Y-15834543D01*
X8123286Y-15844067D01*
X8132809Y-15853590D01*
X8142333Y-15872638D01*
X8142333Y-15929781D01*
X8132809Y-15948828D01*
X8123286Y-15958352D01*
X8104238Y-15967876D01*
X8066143Y-15967876D01*
X8047095Y-15958352D01*
X8228048Y-15948828D02*
X8237571Y-15958352D01*
X8228048Y-15967876D01*
X8218524Y-15958352D01*
X8228048Y-15948828D01*
X8228048Y-15967876D01*
X8228048Y-15844067D02*
X8237571Y-15853590D01*
X8228048Y-15863114D01*
X8218524Y-15853590D01*
X8228048Y-15844067D01*
X8228048Y-15863114D01*
X6399000Y-16197400D02*
X6599000Y-16397400D01*
X6599000Y-16197400D02*
X6399000Y-16397400D01*
X6847095Y-16206924D02*
X6856619Y-16197400D01*
X6875667Y-16187876D01*
X6923286Y-16187876D01*
X6942333Y-16197400D01*
X6951857Y-16206924D01*
X6961381Y-16225971D01*
X6961381Y-16245019D01*
X6951857Y-16273590D01*
X6837571Y-16387876D01*
X6961381Y-16387876D01*
X7047095Y-16368828D02*
X7056619Y-16378352D01*
X7047095Y-16387876D01*
X7037571Y-16378352D01*
X7047095Y-16368828D01*
X7047095Y-16387876D01*
X7123286Y-16187876D02*
X7256619Y-16187876D01*
X7170905Y-16387876D01*
X7370905Y-16187876D02*
X7389952Y-16187876D01*
X7409000Y-16197400D01*
X7418524Y-16206924D01*
X7428048Y-16225971D01*
X7437571Y-16264067D01*
X7437571Y-16311686D01*
X7428048Y-16349781D01*
X7418524Y-16368828D01*
X7409000Y-16378352D01*
X7389952Y-16387876D01*
X7370905Y-16387876D01*
X7351857Y-16378352D01*
X7342333Y-16368828D01*
X7332809Y-16349781D01*
X7323286Y-16311686D01*
X7323286Y-16264067D01*
X7332809Y-16225971D01*
X7342333Y-16206924D01*
X7351857Y-16197400D01*
X7370905Y-16187876D01*
X7561381Y-16187876D02*
X7580428Y-16187876D01*
X7599476Y-16197400D01*
X7609000Y-16206924D01*
X7618524Y-16225971D01*
X7628048Y-16264067D01*
X7628048Y-16311686D01*
X7618524Y-16349781D01*
X7609000Y-16368828D01*
X7599476Y-16378352D01*
X7580428Y-16387876D01*
X7561381Y-16387876D01*
X7542333Y-16378352D01*
X7532809Y-16368828D01*
X7523286Y-16349781D01*
X7513762Y-16311686D01*
X7513762Y-16264067D01*
X7523286Y-16225971D01*
X7532809Y-16206924D01*
X7542333Y-16197400D01*
X7561381Y-16187876D01*
X7713762Y-16387876D02*
X7713762Y-16254543D01*
X7713762Y-16273590D02*
X7723286Y-16264067D01*
X7742333Y-16254543D01*
X7770905Y-16254543D01*
X7789952Y-16264067D01*
X7799476Y-16283114D01*
X7799476Y-16387876D01*
X7799476Y-16283114D02*
X7809000Y-16264067D01*
X7828048Y-16254543D01*
X7856619Y-16254543D01*
X7875667Y-16264067D01*
X7885190Y-16283114D01*
X7885190Y-16387876D01*
X7980428Y-16387876D02*
X7980428Y-16254543D01*
X7980428Y-16273590D02*
X7989952Y-16264067D01*
X8009000Y-16254543D01*
X8037571Y-16254543D01*
X8056619Y-16264067D01*
X8066143Y-16283114D01*
X8066143Y-16387876D01*
X8066143Y-16283114D02*
X8075667Y-16264067D01*
X8094714Y-16254543D01*
X8123286Y-16254543D01*
X8142333Y-16264067D01*
X8151857Y-16283114D01*
X8151857Y-16387876D01*
X8542333Y-16178352D02*
X8370905Y-16435495D01*
X8799476Y-16187876D02*
X8818524Y-16187876D01*
X8837571Y-16197400D01*
X8847095Y-16206924D01*
X8856619Y-16225971D01*
X8866143Y-16264067D01*
X8866143Y-16311686D01*
X8856619Y-16349781D01*
X8847095Y-16368828D01*
X8837571Y-16378352D01*
X8818524Y-16387876D01*
X8799476Y-16387876D01*
X8780429Y-16378352D01*
X8770905Y-16368828D01*
X8761381Y-16349781D01*
X8751857Y-16311686D01*
X8751857Y-16264067D01*
X8761381Y-16225971D01*
X8770905Y-16206924D01*
X8780429Y-16197400D01*
X8799476Y-16187876D01*
X8951857Y-16368828D02*
X8961381Y-16378352D01*
X8951857Y-16387876D01*
X8942333Y-16378352D01*
X8951857Y-16368828D01*
X8951857Y-16387876D01*
X9151857Y-16387876D02*
X9037571Y-16387876D01*
X9094714Y-16387876D02*
X9094714Y-16187876D01*
X9075667Y-16216448D01*
X9056619Y-16235495D01*
X9037571Y-16245019D01*
X9275667Y-16187876D02*
X9294714Y-16187876D01*
X9313762Y-16197400D01*
X9323286Y-16206924D01*
X9332810Y-16225971D01*
X9342333Y-16264067D01*
X9342333Y-16311686D01*
X9332810Y-16349781D01*
X9323286Y-16368828D01*
X9313762Y-16378352D01*
X9294714Y-16387876D01*
X9275667Y-16387876D01*
X9256619Y-16378352D01*
X9247095Y-16368828D01*
X9237571Y-16349781D01*
X9228048Y-16311686D01*
X9228048Y-16264067D01*
X9237571Y-16225971D01*
X9247095Y-16206924D01*
X9256619Y-16197400D01*
X9275667Y-16187876D01*
X9513762Y-16187876D02*
X9475667Y-16187876D01*
X9456619Y-16197400D01*
X9447095Y-16206924D01*
X9428048Y-16235495D01*
X9418524Y-16273590D01*
X9418524Y-16349781D01*
X9428048Y-16368828D01*
X9437571Y-16378352D01*
X9456619Y-16387876D01*
X9494714Y-16387876D01*
X9513762Y-16378352D01*
X9523286Y-16368828D01*
X9532810Y-16349781D01*
X9532810Y-16302162D01*
X9523286Y-16283114D01*
X9513762Y-16273590D01*
X9494714Y-16264067D01*
X9456619Y-16264067D01*
X9437571Y-16273590D01*
X9428048Y-16283114D01*
X9418524Y-16302162D01*
X9599476Y-16187876D02*
X9723286Y-16187876D01*
X9656619Y-16264067D01*
X9685190Y-16264067D01*
X9704238Y-16273590D01*
X9713762Y-16283114D01*
X9723286Y-16302162D01*
X9723286Y-16349781D01*
X9713762Y-16368828D01*
X9704238Y-16378352D01*
X9685190Y-16387876D01*
X9628048Y-16387876D01*
X9609000Y-16378352D01*
X9599476Y-16368828D01*
X9799476Y-16187876D02*
X9799476Y-16225971D01*
X9875667Y-16187876D02*
X9875667Y-16225971D01*
X10170905Y-16464067D02*
X10161381Y-16454543D01*
X10142333Y-16425971D01*
X10132810Y-16406924D01*
X10123286Y-16378352D01*
X10113762Y-16330733D01*
X10113762Y-16292638D01*
X10123286Y-16245019D01*
X10132810Y-16216448D01*
X10142333Y-16197400D01*
X10161381Y-16168828D01*
X10170905Y-16159305D01*
X10332810Y-16254543D02*
X10332810Y-16387876D01*
X10285190Y-16178352D02*
X10237571Y-16321209D01*
X10361381Y-16321209D01*
X10589952Y-16387876D02*
X10589952Y-16187876D01*
X10675667Y-16387876D02*
X10675667Y-16283114D01*
X10666143Y-16264067D01*
X10647095Y-16254543D01*
X10618524Y-16254543D01*
X10599476Y-16264067D01*
X10589952Y-16273590D01*
X10799476Y-16387876D02*
X10780429Y-16378352D01*
X10770905Y-16368828D01*
X10761381Y-16349781D01*
X10761381Y-16292638D01*
X10770905Y-16273590D01*
X10780429Y-16264067D01*
X10799476Y-16254543D01*
X10828048Y-16254543D01*
X10847095Y-16264067D01*
X10856619Y-16273590D01*
X10866143Y-16292638D01*
X10866143Y-16349781D01*
X10856619Y-16368828D01*
X10847095Y-16378352D01*
X10828048Y-16387876D01*
X10799476Y-16387876D01*
X10980429Y-16387876D02*
X10961381Y-16378352D01*
X10951857Y-16359305D01*
X10951857Y-16187876D01*
X11132810Y-16378352D02*
X11113762Y-16387876D01*
X11075667Y-16387876D01*
X11056619Y-16378352D01*
X11047095Y-16359305D01*
X11047095Y-16283114D01*
X11056619Y-16264067D01*
X11075667Y-16254543D01*
X11113762Y-16254543D01*
X11132810Y-16264067D01*
X11142333Y-16283114D01*
X11142333Y-16302162D01*
X11047095Y-16321209D01*
X11218524Y-16378352D02*
X11237571Y-16387876D01*
X11275667Y-16387876D01*
X11294714Y-16378352D01*
X11304238Y-16359305D01*
X11304238Y-16349781D01*
X11294714Y-16330733D01*
X11275667Y-16321209D01*
X11247095Y-16321209D01*
X11228048Y-16311686D01*
X11218524Y-16292638D01*
X11218524Y-16283114D01*
X11228048Y-16264067D01*
X11247095Y-16254543D01*
X11275667Y-16254543D01*
X11294714Y-16264067D01*
X11370905Y-16464067D02*
X11380428Y-16454543D01*
X11399476Y-16425971D01*
X11409000Y-16406924D01*
X11418524Y-16378352D01*
X11428048Y-16330733D01*
X11428048Y-16292638D01*
X11418524Y-16245019D01*
X11409000Y-16216448D01*
X11399476Y-16197400D01*
X11380428Y-16168828D01*
X11370905Y-16159305D01*
X11732809Y-16464067D02*
X11723286Y-16454543D01*
X11704238Y-16425971D01*
X11694714Y-16406924D01*
X11685190Y-16378352D01*
X11675667Y-16330733D01*
X11675667Y-16292638D01*
X11685190Y-16245019D01*
X11694714Y-16216448D01*
X11704238Y-16197400D01*
X11723286Y-16168828D01*
X11732809Y-16159305D01*
X11809000Y-16254543D02*
X11809000Y-16387876D01*
X11809000Y-16273590D02*
X11818524Y-16264067D01*
X11837571Y-16254543D01*
X11866143Y-16254543D01*
X11885190Y-16264067D01*
X11894714Y-16283114D01*
X11894714Y-16387876D01*
X12018524Y-16387876D02*
X11999476Y-16378352D01*
X11989952Y-16368828D01*
X11980428Y-16349781D01*
X11980428Y-16292638D01*
X11989952Y-16273590D01*
X11999476Y-16264067D01*
X12018524Y-16254543D01*
X12047095Y-16254543D01*
X12066143Y-16264067D01*
X12075667Y-16273590D01*
X12085190Y-16292638D01*
X12085190Y-16349781D01*
X12075667Y-16368828D01*
X12066143Y-16378352D01*
X12047095Y-16387876D01*
X12018524Y-16387876D01*
X12142333Y-16254543D02*
X12218524Y-16254543D01*
X12170905Y-16187876D02*
X12170905Y-16359305D01*
X12180428Y-16378352D01*
X12199476Y-16387876D01*
X12218524Y-16387876D01*
X12437571Y-16254543D02*
X12437571Y-16454543D01*
X12437571Y-16264067D02*
X12456619Y-16254543D01*
X12494714Y-16254543D01*
X12513762Y-16264067D01*
X12523286Y-16273590D01*
X12532809Y-16292638D01*
X12532809Y-16349781D01*
X12523286Y-16368828D01*
X12513762Y-16378352D01*
X12494714Y-16387876D01*
X12456619Y-16387876D01*
X12437571Y-16378352D01*
X12647095Y-16387876D02*
X12628048Y-16378352D01*
X12618524Y-16359305D01*
X12618524Y-16187876D01*
X12809000Y-16387876D02*
X12809000Y-16283114D01*
X12799476Y-16264067D01*
X12780428Y-16254543D01*
X12742333Y-16254543D01*
X12723286Y-16264067D01*
X12809000Y-16378352D02*
X12789952Y-16387876D01*
X12742333Y-16387876D01*
X12723286Y-16378352D01*
X12713762Y-16359305D01*
X12713762Y-16340257D01*
X12723286Y-16321209D01*
X12742333Y-16311686D01*
X12789952Y-16311686D01*
X12809000Y-16302162D01*
X12875667Y-16254543D02*
X12951857Y-16254543D01*
X12904238Y-16187876D02*
X12904238Y-16359305D01*
X12913762Y-16378352D01*
X12932809Y-16387876D01*
X12951857Y-16387876D01*
X13094714Y-16378352D02*
X13075667Y-16387876D01*
X13037571Y-16387876D01*
X13018524Y-16378352D01*
X13009000Y-16359305D01*
X13009000Y-16283114D01*
X13018524Y-16264067D01*
X13037571Y-16254543D01*
X13075667Y-16254543D01*
X13094714Y-16264067D01*
X13104238Y-16283114D01*
X13104238Y-16302162D01*
X13009000Y-16321209D01*
X13275667Y-16387876D02*
X13275667Y-16187876D01*
X13275667Y-16378352D02*
X13256619Y-16387876D01*
X13218524Y-16387876D01*
X13199476Y-16378352D01*
X13189952Y-16368828D01*
X13180428Y-16349781D01*
X13180428Y-16292638D01*
X13189952Y-16273590D01*
X13199476Y-16264067D01*
X13218524Y-16254543D01*
X13256619Y-16254543D01*
X13275667Y-16264067D01*
X13351857Y-16464067D02*
X13361381Y-16454543D01*
X13380428Y-16425971D01*
X13389952Y-16406924D01*
X13399476Y-16378352D01*
X13409000Y-16330733D01*
X13409000Y-16292638D01*
X13399476Y-16245019D01*
X13389952Y-16216448D01*
X13380428Y-16197400D01*
X13361381Y-16168828D01*
X13351857Y-16159305D01*
X6599000Y-16617400D02*
G75*
G03*
X6599000Y-16617400I-100000J0D01*
G01*
X6837571Y-16507876D02*
X6961381Y-16507876D01*
X6894714Y-16584067D01*
X6923286Y-16584067D01*
X6942333Y-16593590D01*
X6951857Y-16603114D01*
X6961381Y-16622162D01*
X6961381Y-16669781D01*
X6951857Y-16688828D01*
X6942333Y-16698352D01*
X6923286Y-16707876D01*
X6866143Y-16707876D01*
X6847095Y-16698352D01*
X6837571Y-16688828D01*
X7047095Y-16688828D02*
X7056619Y-16698352D01*
X7047095Y-16707876D01*
X7037571Y-16698352D01*
X7047095Y-16688828D01*
X7047095Y-16707876D01*
X7132809Y-16526924D02*
X7142333Y-16517400D01*
X7161381Y-16507876D01*
X7209000Y-16507876D01*
X7228048Y-16517400D01*
X7237571Y-16526924D01*
X7247095Y-16545971D01*
X7247095Y-16565019D01*
X7237571Y-16593590D01*
X7123286Y-16707876D01*
X7247095Y-16707876D01*
X7370905Y-16507876D02*
X7389952Y-16507876D01*
X7409000Y-16517400D01*
X7418524Y-16526924D01*
X7428048Y-16545971D01*
X7437571Y-16584067D01*
X7437571Y-16631686D01*
X7428048Y-16669781D01*
X7418524Y-16688828D01*
X7409000Y-16698352D01*
X7389952Y-16707876D01*
X7370905Y-16707876D01*
X7351857Y-16698352D01*
X7342333Y-16688828D01*
X7332809Y-16669781D01*
X7323286Y-16631686D01*
X7323286Y-16584067D01*
X7332809Y-16545971D01*
X7342333Y-16526924D01*
X7351857Y-16517400D01*
X7370905Y-16507876D01*
X7561381Y-16507876D02*
X7580428Y-16507876D01*
X7599476Y-16517400D01*
X7609000Y-16526924D01*
X7618524Y-16545971D01*
X7628048Y-16584067D01*
X7628048Y-16631686D01*
X7618524Y-16669781D01*
X7609000Y-16688828D01*
X7599476Y-16698352D01*
X7580428Y-16707876D01*
X7561381Y-16707876D01*
X7542333Y-16698352D01*
X7532809Y-16688828D01*
X7523286Y-16669781D01*
X7513762Y-16631686D01*
X7513762Y-16584067D01*
X7523286Y-16545971D01*
X7532809Y-16526924D01*
X7542333Y-16517400D01*
X7561381Y-16507876D01*
X7713762Y-16707876D02*
X7713762Y-16574543D01*
X7713762Y-16593590D02*
X7723286Y-16584067D01*
X7742333Y-16574543D01*
X7770905Y-16574543D01*
X7789952Y-16584067D01*
X7799476Y-16603114D01*
X7799476Y-16707876D01*
X7799476Y-16603114D02*
X7809000Y-16584067D01*
X7828048Y-16574543D01*
X7856619Y-16574543D01*
X7875667Y-16584067D01*
X7885190Y-16603114D01*
X7885190Y-16707876D01*
X7980428Y-16707876D02*
X7980428Y-16574543D01*
X7980428Y-16593590D02*
X7989952Y-16584067D01*
X8009000Y-16574543D01*
X8037571Y-16574543D01*
X8056619Y-16584067D01*
X8066143Y-16603114D01*
X8066143Y-16707876D01*
X8066143Y-16603114D02*
X8075667Y-16584067D01*
X8094714Y-16574543D01*
X8123286Y-16574543D01*
X8142333Y-16584067D01*
X8151857Y-16603114D01*
X8151857Y-16707876D01*
X8542333Y-16498352D02*
X8370905Y-16755495D01*
X8799476Y-16507876D02*
X8818524Y-16507876D01*
X8837571Y-16517400D01*
X8847095Y-16526924D01*
X8856619Y-16545971D01*
X8866143Y-16584067D01*
X8866143Y-16631686D01*
X8856619Y-16669781D01*
X8847095Y-16688828D01*
X8837571Y-16698352D01*
X8818524Y-16707876D01*
X8799476Y-16707876D01*
X8780429Y-16698352D01*
X8770905Y-16688828D01*
X8761381Y-16669781D01*
X8751857Y-16631686D01*
X8751857Y-16584067D01*
X8761381Y-16545971D01*
X8770905Y-16526924D01*
X8780429Y-16517400D01*
X8799476Y-16507876D01*
X8951857Y-16688828D02*
X8961381Y-16698352D01*
X8951857Y-16707876D01*
X8942333Y-16698352D01*
X8951857Y-16688828D01*
X8951857Y-16707876D01*
X9151857Y-16707876D02*
X9037571Y-16707876D01*
X9094714Y-16707876D02*
X9094714Y-16507876D01*
X9075667Y-16536448D01*
X9056619Y-16555495D01*
X9037571Y-16565019D01*
X9228048Y-16526924D02*
X9237571Y-16517400D01*
X9256619Y-16507876D01*
X9304238Y-16507876D01*
X9323286Y-16517400D01*
X9332810Y-16526924D01*
X9342333Y-16545971D01*
X9342333Y-16565019D01*
X9332810Y-16593590D01*
X9218524Y-16707876D01*
X9342333Y-16707876D01*
X9513762Y-16507876D02*
X9475667Y-16507876D01*
X9456619Y-16517400D01*
X9447095Y-16526924D01*
X9428048Y-16555495D01*
X9418524Y-16593590D01*
X9418524Y-16669781D01*
X9428048Y-16688828D01*
X9437571Y-16698352D01*
X9456619Y-16707876D01*
X9494714Y-16707876D01*
X9513762Y-16698352D01*
X9523286Y-16688828D01*
X9532810Y-16669781D01*
X9532810Y-16622162D01*
X9523286Y-16603114D01*
X9513762Y-16593590D01*
X9494714Y-16584067D01*
X9456619Y-16584067D01*
X9437571Y-16593590D01*
X9428048Y-16603114D01*
X9418524Y-16622162D01*
X9656619Y-16507876D02*
X9675667Y-16507876D01*
X9694714Y-16517400D01*
X9704238Y-16526924D01*
X9713762Y-16545971D01*
X9723286Y-16584067D01*
X9723286Y-16631686D01*
X9713762Y-16669781D01*
X9704238Y-16688828D01*
X9694714Y-16698352D01*
X9675667Y-16707876D01*
X9656619Y-16707876D01*
X9637571Y-16698352D01*
X9628048Y-16688828D01*
X9618524Y-16669781D01*
X9609000Y-16631686D01*
X9609000Y-16584067D01*
X9618524Y-16545971D01*
X9628048Y-16526924D01*
X9637571Y-16517400D01*
X9656619Y-16507876D01*
X9799476Y-16507876D02*
X9799476Y-16545971D01*
X9875667Y-16507876D02*
X9875667Y-16545971D01*
X10170905Y-16784067D02*
X10161381Y-16774543D01*
X10142333Y-16745971D01*
X10132810Y-16726924D01*
X10123286Y-16698352D01*
X10113762Y-16650733D01*
X10113762Y-16612638D01*
X10123286Y-16565019D01*
X10132810Y-16536448D01*
X10142333Y-16517400D01*
X10161381Y-16488828D01*
X10170905Y-16479305D01*
X10332810Y-16574543D02*
X10332810Y-16707876D01*
X10285190Y-16498352D02*
X10237571Y-16641209D01*
X10361381Y-16641209D01*
X10589952Y-16707876D02*
X10589952Y-16507876D01*
X10675667Y-16707876D02*
X10675667Y-16603114D01*
X10666143Y-16584067D01*
X10647095Y-16574543D01*
X10618524Y-16574543D01*
X10599476Y-16584067D01*
X10589952Y-16593590D01*
X10799476Y-16707876D02*
X10780429Y-16698352D01*
X10770905Y-16688828D01*
X10761381Y-16669781D01*
X10761381Y-16612638D01*
X10770905Y-16593590D01*
X10780429Y-16584067D01*
X10799476Y-16574543D01*
X10828048Y-16574543D01*
X10847095Y-16584067D01*
X10856619Y-16593590D01*
X10866143Y-16612638D01*
X10866143Y-16669781D01*
X10856619Y-16688828D01*
X10847095Y-16698352D01*
X10828048Y-16707876D01*
X10799476Y-16707876D01*
X10980429Y-16707876D02*
X10961381Y-16698352D01*
X10951857Y-16679305D01*
X10951857Y-16507876D01*
X11132810Y-16698352D02*
X11113762Y-16707876D01*
X11075667Y-16707876D01*
X11056619Y-16698352D01*
X11047095Y-16679305D01*
X11047095Y-16603114D01*
X11056619Y-16584067D01*
X11075667Y-16574543D01*
X11113762Y-16574543D01*
X11132810Y-16584067D01*
X11142333Y-16603114D01*
X11142333Y-16622162D01*
X11047095Y-16641209D01*
X11218524Y-16698352D02*
X11237571Y-16707876D01*
X11275667Y-16707876D01*
X11294714Y-16698352D01*
X11304238Y-16679305D01*
X11304238Y-16669781D01*
X11294714Y-16650733D01*
X11275667Y-16641209D01*
X11247095Y-16641209D01*
X11228048Y-16631686D01*
X11218524Y-16612638D01*
X11218524Y-16603114D01*
X11228048Y-16584067D01*
X11247095Y-16574543D01*
X11275667Y-16574543D01*
X11294714Y-16584067D01*
X11370905Y-16784067D02*
X11380428Y-16774543D01*
X11399476Y-16745971D01*
X11409000Y-16726924D01*
X11418524Y-16698352D01*
X11428048Y-16650733D01*
X11428048Y-16612638D01*
X11418524Y-16565019D01*
X11409000Y-16536448D01*
X11399476Y-16517400D01*
X11380428Y-16488828D01*
X11370905Y-16479305D01*
X11732809Y-16784067D02*
X11723286Y-16774543D01*
X11704238Y-16745971D01*
X11694714Y-16726924D01*
X11685190Y-16698352D01*
X11675667Y-16650733D01*
X11675667Y-16612638D01*
X11685190Y-16565019D01*
X11694714Y-16536448D01*
X11704238Y-16517400D01*
X11723286Y-16488828D01*
X11732809Y-16479305D01*
X11809000Y-16574543D02*
X11809000Y-16707876D01*
X11809000Y-16593590D02*
X11818524Y-16584067D01*
X11837571Y-16574543D01*
X11866143Y-16574543D01*
X11885190Y-16584067D01*
X11894714Y-16603114D01*
X11894714Y-16707876D01*
X12018524Y-16707876D02*
X11999476Y-16698352D01*
X11989952Y-16688828D01*
X11980428Y-16669781D01*
X11980428Y-16612638D01*
X11989952Y-16593590D01*
X11999476Y-16584067D01*
X12018524Y-16574543D01*
X12047095Y-16574543D01*
X12066143Y-16584067D01*
X12075667Y-16593590D01*
X12085190Y-16612638D01*
X12085190Y-16669781D01*
X12075667Y-16688828D01*
X12066143Y-16698352D01*
X12047095Y-16707876D01*
X12018524Y-16707876D01*
X12142333Y-16574543D02*
X12218524Y-16574543D01*
X12170905Y-16507876D02*
X12170905Y-16679305D01*
X12180428Y-16698352D01*
X12199476Y-16707876D01*
X12218524Y-16707876D01*
X12437571Y-16574543D02*
X12437571Y-16774543D01*
X12437571Y-16584067D02*
X12456619Y-16574543D01*
X12494714Y-16574543D01*
X12513762Y-16584067D01*
X12523286Y-16593590D01*
X12532809Y-16612638D01*
X12532809Y-16669781D01*
X12523286Y-16688828D01*
X12513762Y-16698352D01*
X12494714Y-16707876D01*
X12456619Y-16707876D01*
X12437571Y-16698352D01*
X12647095Y-16707876D02*
X12628048Y-16698352D01*
X12618524Y-16679305D01*
X12618524Y-16507876D01*
X12809000Y-16707876D02*
X12809000Y-16603114D01*
X12799476Y-16584067D01*
X12780428Y-16574543D01*
X12742333Y-16574543D01*
X12723286Y-16584067D01*
X12809000Y-16698352D02*
X12789952Y-16707876D01*
X12742333Y-16707876D01*
X12723286Y-16698352D01*
X12713762Y-16679305D01*
X12713762Y-16660257D01*
X12723286Y-16641209D01*
X12742333Y-16631686D01*
X12789952Y-16631686D01*
X12809000Y-16622162D01*
X12875667Y-16574543D02*
X12951857Y-16574543D01*
X12904238Y-16507876D02*
X12904238Y-16679305D01*
X12913762Y-16698352D01*
X12932809Y-16707876D01*
X12951857Y-16707876D01*
X13094714Y-16698352D02*
X13075667Y-16707876D01*
X13037571Y-16707876D01*
X13018524Y-16698352D01*
X13009000Y-16679305D01*
X13009000Y-16603114D01*
X13018524Y-16584067D01*
X13037571Y-16574543D01*
X13075667Y-16574543D01*
X13094714Y-16584067D01*
X13104238Y-16603114D01*
X13104238Y-16622162D01*
X13009000Y-16641209D01*
X13275667Y-16707876D02*
X13275667Y-16507876D01*
X13275667Y-16698352D02*
X13256619Y-16707876D01*
X13218524Y-16707876D01*
X13199476Y-16698352D01*
X13189952Y-16688828D01*
X13180428Y-16669781D01*
X13180428Y-16612638D01*
X13189952Y-16593590D01*
X13199476Y-16584067D01*
X13218524Y-16574543D01*
X13256619Y-16574543D01*
X13275667Y-16584067D01*
X13351857Y-16784067D02*
X13361381Y-16774543D01*
X13380428Y-16745971D01*
X13389952Y-16726924D01*
X13399476Y-16698352D01*
X13409000Y-16650733D01*
X13409000Y-16612638D01*
X13399476Y-16565019D01*
X13389952Y-16536448D01*
X13380428Y-16517400D01*
X13361381Y-16488828D01*
X13351857Y-16479305D01*
M02*
