%TF.GenerationSoftware,KiCad,Pcbnew,(6.0.7-1)-1*%
%TF.CreationDate,2023-01-31T16:53:27+01:00*%
%TF.ProjectId,6502_computer,36353032-5f63-46f6-9d70-757465722e6b,REV*%
%TF.SameCoordinates,Original*%
%TF.FileFunction,Drillmap*%
%TF.FilePolarity,Positive*%
%FSLAX45Y45*%
G04 Gerber Fmt 4.5, Leading zero omitted, Abs format (unit mm)*
G04 Created by KiCad (PCBNEW (6.0.7-1)-1) date 2023-01-31 16:53:27*
%MOMM*%
%LPD*%
G01*
G04 APERTURE LIST*
%ADD10C,0.100000*%
%ADD11C,0.200000*%
%ADD12C,0.270000*%
%ADD13C,0.320000*%
G04 APERTURE END LIST*
D10*
X23050500Y-15544800D02*
X7112000Y-15544800D01*
X6604000Y-15036800D02*
X6604000Y-4953000D01*
X23558500Y-4953000D02*
G75*
G03*
X23050500Y-4445000I-497150J10850D01*
G01*
X6604000Y-15036800D02*
G75*
G03*
X7112000Y-15544800I508000J0D01*
G01*
X7112000Y-4445000D02*
G75*
G03*
X6604000Y-4953000I0J-508000D01*
G01*
X23050500Y-15544800D02*
G75*
G03*
X23558500Y-15036800I0J508000D01*
G01*
X7112000Y-4445000D02*
X23050500Y-4445000D01*
X23558500Y-4953000D02*
X23558500Y-15036800D01*
D11*
D12*
X7939800Y-4703700D02*
X8209800Y-4973700D01*
X8209800Y-4703700D02*
X7939800Y-4973700D01*
X7939800Y-8691500D02*
X8209800Y-8961500D01*
X8209800Y-8691500D02*
X7939800Y-8961500D01*
X23027400Y-4703700D02*
X23297400Y-4973700D01*
X23297400Y-4703700D02*
X23027400Y-4973700D01*
X23027400Y-8691500D02*
X23297400Y-8961500D01*
X23297400Y-8691500D02*
X23027400Y-8961500D01*
D13*
X7442889Y-11638039D02*
G75*
G03*
X7442889Y-11638039I-160000J0D01*
G01*
X7442889Y-14203439D02*
G75*
G03*
X7442889Y-14203439I-160000J0D01*
G01*
X14910489Y-11638039D02*
G75*
G03*
X14910489Y-11638039I-160000J0D01*
G01*
X14910489Y-14203439D02*
G75*
G03*
X14910489Y-14203439I-160000J0D01*
G01*
D11*
X6856619Y-15860276D02*
X6856619Y-15660276D01*
X6904238Y-15660276D01*
X6932809Y-15669800D01*
X6951857Y-15688848D01*
X6961381Y-15707895D01*
X6970905Y-15745990D01*
X6970905Y-15774562D01*
X6961381Y-15812657D01*
X6951857Y-15831705D01*
X6932809Y-15850752D01*
X6904238Y-15860276D01*
X6856619Y-15860276D01*
X7056619Y-15860276D02*
X7056619Y-15726943D01*
X7056619Y-15765038D02*
X7066143Y-15745990D01*
X7075667Y-15736467D01*
X7094714Y-15726943D01*
X7113762Y-15726943D01*
X7180428Y-15860276D02*
X7180428Y-15726943D01*
X7180428Y-15660276D02*
X7170905Y-15669800D01*
X7180428Y-15679324D01*
X7189952Y-15669800D01*
X7180428Y-15660276D01*
X7180428Y-15679324D01*
X7304238Y-15860276D02*
X7285190Y-15850752D01*
X7275667Y-15831705D01*
X7275667Y-15660276D01*
X7409000Y-15860276D02*
X7389952Y-15850752D01*
X7380428Y-15831705D01*
X7380428Y-15660276D01*
X7637571Y-15860276D02*
X7637571Y-15660276D01*
X7704238Y-15803133D01*
X7770905Y-15660276D01*
X7770905Y-15860276D01*
X7951857Y-15860276D02*
X7951857Y-15755514D01*
X7942333Y-15736467D01*
X7923286Y-15726943D01*
X7885190Y-15726943D01*
X7866143Y-15736467D01*
X7951857Y-15850752D02*
X7932809Y-15860276D01*
X7885190Y-15860276D01*
X7866143Y-15850752D01*
X7856619Y-15831705D01*
X7856619Y-15812657D01*
X7866143Y-15793609D01*
X7885190Y-15784086D01*
X7932809Y-15784086D01*
X7951857Y-15774562D01*
X8047095Y-15726943D02*
X8047095Y-15926943D01*
X8047095Y-15736467D02*
X8066143Y-15726943D01*
X8104238Y-15726943D01*
X8123286Y-15736467D01*
X8132809Y-15745990D01*
X8142333Y-15765038D01*
X8142333Y-15822181D01*
X8132809Y-15841228D01*
X8123286Y-15850752D01*
X8104238Y-15860276D01*
X8066143Y-15860276D01*
X8047095Y-15850752D01*
X8228048Y-15841228D02*
X8237571Y-15850752D01*
X8228048Y-15860276D01*
X8218524Y-15850752D01*
X8228048Y-15841228D01*
X8228048Y-15860276D01*
X8228048Y-15736467D02*
X8237571Y-15745990D01*
X8228048Y-15755514D01*
X8218524Y-15745990D01*
X8228048Y-15736467D01*
X8228048Y-15755514D01*
X6399000Y-16089800D02*
X6599000Y-16289800D01*
X6599000Y-16089800D02*
X6399000Y-16289800D01*
X6847095Y-16099324D02*
X6856619Y-16089800D01*
X6875667Y-16080276D01*
X6923286Y-16080276D01*
X6942333Y-16089800D01*
X6951857Y-16099324D01*
X6961381Y-16118371D01*
X6961381Y-16137419D01*
X6951857Y-16165990D01*
X6837571Y-16280276D01*
X6961381Y-16280276D01*
X7047095Y-16261228D02*
X7056619Y-16270752D01*
X7047095Y-16280276D01*
X7037571Y-16270752D01*
X7047095Y-16261228D01*
X7047095Y-16280276D01*
X7123286Y-16080276D02*
X7256619Y-16080276D01*
X7170905Y-16280276D01*
X7370905Y-16080276D02*
X7389952Y-16080276D01*
X7409000Y-16089800D01*
X7418524Y-16099324D01*
X7428048Y-16118371D01*
X7437571Y-16156467D01*
X7437571Y-16204086D01*
X7428048Y-16242181D01*
X7418524Y-16261228D01*
X7409000Y-16270752D01*
X7389952Y-16280276D01*
X7370905Y-16280276D01*
X7351857Y-16270752D01*
X7342333Y-16261228D01*
X7332809Y-16242181D01*
X7323286Y-16204086D01*
X7323286Y-16156467D01*
X7332809Y-16118371D01*
X7342333Y-16099324D01*
X7351857Y-16089800D01*
X7370905Y-16080276D01*
X7561381Y-16080276D02*
X7580428Y-16080276D01*
X7599476Y-16089800D01*
X7609000Y-16099324D01*
X7618524Y-16118371D01*
X7628048Y-16156467D01*
X7628048Y-16204086D01*
X7618524Y-16242181D01*
X7609000Y-16261228D01*
X7599476Y-16270752D01*
X7580428Y-16280276D01*
X7561381Y-16280276D01*
X7542333Y-16270752D01*
X7532809Y-16261228D01*
X7523286Y-16242181D01*
X7513762Y-16204086D01*
X7513762Y-16156467D01*
X7523286Y-16118371D01*
X7532809Y-16099324D01*
X7542333Y-16089800D01*
X7561381Y-16080276D01*
X7713762Y-16280276D02*
X7713762Y-16146943D01*
X7713762Y-16165990D02*
X7723286Y-16156467D01*
X7742333Y-16146943D01*
X7770905Y-16146943D01*
X7789952Y-16156467D01*
X7799476Y-16175514D01*
X7799476Y-16280276D01*
X7799476Y-16175514D02*
X7809000Y-16156467D01*
X7828048Y-16146943D01*
X7856619Y-16146943D01*
X7875667Y-16156467D01*
X7885190Y-16175514D01*
X7885190Y-16280276D01*
X7980428Y-16280276D02*
X7980428Y-16146943D01*
X7980428Y-16165990D02*
X7989952Y-16156467D01*
X8009000Y-16146943D01*
X8037571Y-16146943D01*
X8056619Y-16156467D01*
X8066143Y-16175514D01*
X8066143Y-16280276D01*
X8066143Y-16175514D02*
X8075667Y-16156467D01*
X8094714Y-16146943D01*
X8123286Y-16146943D01*
X8142333Y-16156467D01*
X8151857Y-16175514D01*
X8151857Y-16280276D01*
X8542333Y-16070752D02*
X8370905Y-16327895D01*
X8799476Y-16080276D02*
X8818524Y-16080276D01*
X8837571Y-16089800D01*
X8847095Y-16099324D01*
X8856619Y-16118371D01*
X8866143Y-16156467D01*
X8866143Y-16204086D01*
X8856619Y-16242181D01*
X8847095Y-16261228D01*
X8837571Y-16270752D01*
X8818524Y-16280276D01*
X8799476Y-16280276D01*
X8780429Y-16270752D01*
X8770905Y-16261228D01*
X8761381Y-16242181D01*
X8751857Y-16204086D01*
X8751857Y-16156467D01*
X8761381Y-16118371D01*
X8770905Y-16099324D01*
X8780429Y-16089800D01*
X8799476Y-16080276D01*
X8951857Y-16261228D02*
X8961381Y-16270752D01*
X8951857Y-16280276D01*
X8942333Y-16270752D01*
X8951857Y-16261228D01*
X8951857Y-16280276D01*
X9151857Y-16280276D02*
X9037571Y-16280276D01*
X9094714Y-16280276D02*
X9094714Y-16080276D01*
X9075667Y-16108848D01*
X9056619Y-16127895D01*
X9037571Y-16137419D01*
X9275667Y-16080276D02*
X9294714Y-16080276D01*
X9313762Y-16089800D01*
X9323286Y-16099324D01*
X9332810Y-16118371D01*
X9342333Y-16156467D01*
X9342333Y-16204086D01*
X9332810Y-16242181D01*
X9323286Y-16261228D01*
X9313762Y-16270752D01*
X9294714Y-16280276D01*
X9275667Y-16280276D01*
X9256619Y-16270752D01*
X9247095Y-16261228D01*
X9237571Y-16242181D01*
X9228048Y-16204086D01*
X9228048Y-16156467D01*
X9237571Y-16118371D01*
X9247095Y-16099324D01*
X9256619Y-16089800D01*
X9275667Y-16080276D01*
X9513762Y-16080276D02*
X9475667Y-16080276D01*
X9456619Y-16089800D01*
X9447095Y-16099324D01*
X9428048Y-16127895D01*
X9418524Y-16165990D01*
X9418524Y-16242181D01*
X9428048Y-16261228D01*
X9437571Y-16270752D01*
X9456619Y-16280276D01*
X9494714Y-16280276D01*
X9513762Y-16270752D01*
X9523286Y-16261228D01*
X9532810Y-16242181D01*
X9532810Y-16194562D01*
X9523286Y-16175514D01*
X9513762Y-16165990D01*
X9494714Y-16156467D01*
X9456619Y-16156467D01*
X9437571Y-16165990D01*
X9428048Y-16175514D01*
X9418524Y-16194562D01*
X9599476Y-16080276D02*
X9723286Y-16080276D01*
X9656619Y-16156467D01*
X9685190Y-16156467D01*
X9704238Y-16165990D01*
X9713762Y-16175514D01*
X9723286Y-16194562D01*
X9723286Y-16242181D01*
X9713762Y-16261228D01*
X9704238Y-16270752D01*
X9685190Y-16280276D01*
X9628048Y-16280276D01*
X9609000Y-16270752D01*
X9599476Y-16261228D01*
X9799476Y-16080276D02*
X9799476Y-16118371D01*
X9875667Y-16080276D02*
X9875667Y-16118371D01*
X10170905Y-16356467D02*
X10161381Y-16346943D01*
X10142333Y-16318371D01*
X10132810Y-16299324D01*
X10123286Y-16270752D01*
X10113762Y-16223133D01*
X10113762Y-16185038D01*
X10123286Y-16137419D01*
X10132810Y-16108848D01*
X10142333Y-16089800D01*
X10161381Y-16061228D01*
X10170905Y-16051705D01*
X10332810Y-16146943D02*
X10332810Y-16280276D01*
X10285190Y-16070752D02*
X10237571Y-16213609D01*
X10361381Y-16213609D01*
X10589952Y-16280276D02*
X10589952Y-16080276D01*
X10675667Y-16280276D02*
X10675667Y-16175514D01*
X10666143Y-16156467D01*
X10647095Y-16146943D01*
X10618524Y-16146943D01*
X10599476Y-16156467D01*
X10589952Y-16165990D01*
X10799476Y-16280276D02*
X10780429Y-16270752D01*
X10770905Y-16261228D01*
X10761381Y-16242181D01*
X10761381Y-16185038D01*
X10770905Y-16165990D01*
X10780429Y-16156467D01*
X10799476Y-16146943D01*
X10828048Y-16146943D01*
X10847095Y-16156467D01*
X10856619Y-16165990D01*
X10866143Y-16185038D01*
X10866143Y-16242181D01*
X10856619Y-16261228D01*
X10847095Y-16270752D01*
X10828048Y-16280276D01*
X10799476Y-16280276D01*
X10980429Y-16280276D02*
X10961381Y-16270752D01*
X10951857Y-16251705D01*
X10951857Y-16080276D01*
X11132810Y-16270752D02*
X11113762Y-16280276D01*
X11075667Y-16280276D01*
X11056619Y-16270752D01*
X11047095Y-16251705D01*
X11047095Y-16175514D01*
X11056619Y-16156467D01*
X11075667Y-16146943D01*
X11113762Y-16146943D01*
X11132810Y-16156467D01*
X11142333Y-16175514D01*
X11142333Y-16194562D01*
X11047095Y-16213609D01*
X11218524Y-16270752D02*
X11237571Y-16280276D01*
X11275667Y-16280276D01*
X11294714Y-16270752D01*
X11304238Y-16251705D01*
X11304238Y-16242181D01*
X11294714Y-16223133D01*
X11275667Y-16213609D01*
X11247095Y-16213609D01*
X11228048Y-16204086D01*
X11218524Y-16185038D01*
X11218524Y-16175514D01*
X11228048Y-16156467D01*
X11247095Y-16146943D01*
X11275667Y-16146943D01*
X11294714Y-16156467D01*
X11370905Y-16356467D02*
X11380428Y-16346943D01*
X11399476Y-16318371D01*
X11409000Y-16299324D01*
X11418524Y-16270752D01*
X11428048Y-16223133D01*
X11428048Y-16185038D01*
X11418524Y-16137419D01*
X11409000Y-16108848D01*
X11399476Y-16089800D01*
X11380428Y-16061228D01*
X11370905Y-16051705D01*
X11732809Y-16356467D02*
X11723286Y-16346943D01*
X11704238Y-16318371D01*
X11694714Y-16299324D01*
X11685190Y-16270752D01*
X11675667Y-16223133D01*
X11675667Y-16185038D01*
X11685190Y-16137419D01*
X11694714Y-16108848D01*
X11704238Y-16089800D01*
X11723286Y-16061228D01*
X11732809Y-16051705D01*
X11809000Y-16146943D02*
X11809000Y-16280276D01*
X11809000Y-16165990D02*
X11818524Y-16156467D01*
X11837571Y-16146943D01*
X11866143Y-16146943D01*
X11885190Y-16156467D01*
X11894714Y-16175514D01*
X11894714Y-16280276D01*
X12018524Y-16280276D02*
X11999476Y-16270752D01*
X11989952Y-16261228D01*
X11980428Y-16242181D01*
X11980428Y-16185038D01*
X11989952Y-16165990D01*
X11999476Y-16156467D01*
X12018524Y-16146943D01*
X12047095Y-16146943D01*
X12066143Y-16156467D01*
X12075667Y-16165990D01*
X12085190Y-16185038D01*
X12085190Y-16242181D01*
X12075667Y-16261228D01*
X12066143Y-16270752D01*
X12047095Y-16280276D01*
X12018524Y-16280276D01*
X12142333Y-16146943D02*
X12218524Y-16146943D01*
X12170905Y-16080276D02*
X12170905Y-16251705D01*
X12180428Y-16270752D01*
X12199476Y-16280276D01*
X12218524Y-16280276D01*
X12437571Y-16146943D02*
X12437571Y-16346943D01*
X12437571Y-16156467D02*
X12456619Y-16146943D01*
X12494714Y-16146943D01*
X12513762Y-16156467D01*
X12523286Y-16165990D01*
X12532809Y-16185038D01*
X12532809Y-16242181D01*
X12523286Y-16261228D01*
X12513762Y-16270752D01*
X12494714Y-16280276D01*
X12456619Y-16280276D01*
X12437571Y-16270752D01*
X12647095Y-16280276D02*
X12628048Y-16270752D01*
X12618524Y-16251705D01*
X12618524Y-16080276D01*
X12809000Y-16280276D02*
X12809000Y-16175514D01*
X12799476Y-16156467D01*
X12780428Y-16146943D01*
X12742333Y-16146943D01*
X12723286Y-16156467D01*
X12809000Y-16270752D02*
X12789952Y-16280276D01*
X12742333Y-16280276D01*
X12723286Y-16270752D01*
X12713762Y-16251705D01*
X12713762Y-16232657D01*
X12723286Y-16213609D01*
X12742333Y-16204086D01*
X12789952Y-16204086D01*
X12809000Y-16194562D01*
X12875667Y-16146943D02*
X12951857Y-16146943D01*
X12904238Y-16080276D02*
X12904238Y-16251705D01*
X12913762Y-16270752D01*
X12932809Y-16280276D01*
X12951857Y-16280276D01*
X13094714Y-16270752D02*
X13075667Y-16280276D01*
X13037571Y-16280276D01*
X13018524Y-16270752D01*
X13009000Y-16251705D01*
X13009000Y-16175514D01*
X13018524Y-16156467D01*
X13037571Y-16146943D01*
X13075667Y-16146943D01*
X13094714Y-16156467D01*
X13104238Y-16175514D01*
X13104238Y-16194562D01*
X13009000Y-16213609D01*
X13275667Y-16280276D02*
X13275667Y-16080276D01*
X13275667Y-16270752D02*
X13256619Y-16280276D01*
X13218524Y-16280276D01*
X13199476Y-16270752D01*
X13189952Y-16261228D01*
X13180428Y-16242181D01*
X13180428Y-16185038D01*
X13189952Y-16165990D01*
X13199476Y-16156467D01*
X13218524Y-16146943D01*
X13256619Y-16146943D01*
X13275667Y-16156467D01*
X13351857Y-16356467D02*
X13361381Y-16346943D01*
X13380428Y-16318371D01*
X13389952Y-16299324D01*
X13399476Y-16270752D01*
X13409000Y-16223133D01*
X13409000Y-16185038D01*
X13399476Y-16137419D01*
X13389952Y-16108848D01*
X13380428Y-16089800D01*
X13361381Y-16061228D01*
X13351857Y-16051705D01*
X6599000Y-16509800D02*
G75*
G03*
X6599000Y-16509800I-100000J0D01*
G01*
X6837571Y-16400276D02*
X6961381Y-16400276D01*
X6894714Y-16476467D01*
X6923286Y-16476467D01*
X6942333Y-16485990D01*
X6951857Y-16495514D01*
X6961381Y-16514562D01*
X6961381Y-16562181D01*
X6951857Y-16581228D01*
X6942333Y-16590752D01*
X6923286Y-16600276D01*
X6866143Y-16600276D01*
X6847095Y-16590752D01*
X6837571Y-16581228D01*
X7047095Y-16581228D02*
X7056619Y-16590752D01*
X7047095Y-16600276D01*
X7037571Y-16590752D01*
X7047095Y-16581228D01*
X7047095Y-16600276D01*
X7132809Y-16419324D02*
X7142333Y-16409800D01*
X7161381Y-16400276D01*
X7209000Y-16400276D01*
X7228048Y-16409800D01*
X7237571Y-16419324D01*
X7247095Y-16438371D01*
X7247095Y-16457419D01*
X7237571Y-16485990D01*
X7123286Y-16600276D01*
X7247095Y-16600276D01*
X7370905Y-16400276D02*
X7389952Y-16400276D01*
X7409000Y-16409800D01*
X7418524Y-16419324D01*
X7428048Y-16438371D01*
X7437571Y-16476467D01*
X7437571Y-16524086D01*
X7428048Y-16562181D01*
X7418524Y-16581228D01*
X7409000Y-16590752D01*
X7389952Y-16600276D01*
X7370905Y-16600276D01*
X7351857Y-16590752D01*
X7342333Y-16581228D01*
X7332809Y-16562181D01*
X7323286Y-16524086D01*
X7323286Y-16476467D01*
X7332809Y-16438371D01*
X7342333Y-16419324D01*
X7351857Y-16409800D01*
X7370905Y-16400276D01*
X7561381Y-16400276D02*
X7580428Y-16400276D01*
X7599476Y-16409800D01*
X7609000Y-16419324D01*
X7618524Y-16438371D01*
X7628048Y-16476467D01*
X7628048Y-16524086D01*
X7618524Y-16562181D01*
X7609000Y-16581228D01*
X7599476Y-16590752D01*
X7580428Y-16600276D01*
X7561381Y-16600276D01*
X7542333Y-16590752D01*
X7532809Y-16581228D01*
X7523286Y-16562181D01*
X7513762Y-16524086D01*
X7513762Y-16476467D01*
X7523286Y-16438371D01*
X7532809Y-16419324D01*
X7542333Y-16409800D01*
X7561381Y-16400276D01*
X7713762Y-16600276D02*
X7713762Y-16466943D01*
X7713762Y-16485990D02*
X7723286Y-16476467D01*
X7742333Y-16466943D01*
X7770905Y-16466943D01*
X7789952Y-16476467D01*
X7799476Y-16495514D01*
X7799476Y-16600276D01*
X7799476Y-16495514D02*
X7809000Y-16476467D01*
X7828048Y-16466943D01*
X7856619Y-16466943D01*
X7875667Y-16476467D01*
X7885190Y-16495514D01*
X7885190Y-16600276D01*
X7980428Y-16600276D02*
X7980428Y-16466943D01*
X7980428Y-16485990D02*
X7989952Y-16476467D01*
X8009000Y-16466943D01*
X8037571Y-16466943D01*
X8056619Y-16476467D01*
X8066143Y-16495514D01*
X8066143Y-16600276D01*
X8066143Y-16495514D02*
X8075667Y-16476467D01*
X8094714Y-16466943D01*
X8123286Y-16466943D01*
X8142333Y-16476467D01*
X8151857Y-16495514D01*
X8151857Y-16600276D01*
X8542333Y-16390752D02*
X8370905Y-16647895D01*
X8799476Y-16400276D02*
X8818524Y-16400276D01*
X8837571Y-16409800D01*
X8847095Y-16419324D01*
X8856619Y-16438371D01*
X8866143Y-16476467D01*
X8866143Y-16524086D01*
X8856619Y-16562181D01*
X8847095Y-16581228D01*
X8837571Y-16590752D01*
X8818524Y-16600276D01*
X8799476Y-16600276D01*
X8780429Y-16590752D01*
X8770905Y-16581228D01*
X8761381Y-16562181D01*
X8751857Y-16524086D01*
X8751857Y-16476467D01*
X8761381Y-16438371D01*
X8770905Y-16419324D01*
X8780429Y-16409800D01*
X8799476Y-16400276D01*
X8951857Y-16581228D02*
X8961381Y-16590752D01*
X8951857Y-16600276D01*
X8942333Y-16590752D01*
X8951857Y-16581228D01*
X8951857Y-16600276D01*
X9151857Y-16600276D02*
X9037571Y-16600276D01*
X9094714Y-16600276D02*
X9094714Y-16400276D01*
X9075667Y-16428848D01*
X9056619Y-16447895D01*
X9037571Y-16457419D01*
X9228048Y-16419324D02*
X9237571Y-16409800D01*
X9256619Y-16400276D01*
X9304238Y-16400276D01*
X9323286Y-16409800D01*
X9332810Y-16419324D01*
X9342333Y-16438371D01*
X9342333Y-16457419D01*
X9332810Y-16485990D01*
X9218524Y-16600276D01*
X9342333Y-16600276D01*
X9513762Y-16400276D02*
X9475667Y-16400276D01*
X9456619Y-16409800D01*
X9447095Y-16419324D01*
X9428048Y-16447895D01*
X9418524Y-16485990D01*
X9418524Y-16562181D01*
X9428048Y-16581228D01*
X9437571Y-16590752D01*
X9456619Y-16600276D01*
X9494714Y-16600276D01*
X9513762Y-16590752D01*
X9523286Y-16581228D01*
X9532810Y-16562181D01*
X9532810Y-16514562D01*
X9523286Y-16495514D01*
X9513762Y-16485990D01*
X9494714Y-16476467D01*
X9456619Y-16476467D01*
X9437571Y-16485990D01*
X9428048Y-16495514D01*
X9418524Y-16514562D01*
X9656619Y-16400276D02*
X9675667Y-16400276D01*
X9694714Y-16409800D01*
X9704238Y-16419324D01*
X9713762Y-16438371D01*
X9723286Y-16476467D01*
X9723286Y-16524086D01*
X9713762Y-16562181D01*
X9704238Y-16581228D01*
X9694714Y-16590752D01*
X9675667Y-16600276D01*
X9656619Y-16600276D01*
X9637571Y-16590752D01*
X9628048Y-16581228D01*
X9618524Y-16562181D01*
X9609000Y-16524086D01*
X9609000Y-16476467D01*
X9618524Y-16438371D01*
X9628048Y-16419324D01*
X9637571Y-16409800D01*
X9656619Y-16400276D01*
X9799476Y-16400276D02*
X9799476Y-16438371D01*
X9875667Y-16400276D02*
X9875667Y-16438371D01*
X10170905Y-16676467D02*
X10161381Y-16666943D01*
X10142333Y-16638371D01*
X10132810Y-16619324D01*
X10123286Y-16590752D01*
X10113762Y-16543133D01*
X10113762Y-16505038D01*
X10123286Y-16457419D01*
X10132810Y-16428848D01*
X10142333Y-16409800D01*
X10161381Y-16381228D01*
X10170905Y-16371705D01*
X10332810Y-16466943D02*
X10332810Y-16600276D01*
X10285190Y-16390752D02*
X10237571Y-16533609D01*
X10361381Y-16533609D01*
X10589952Y-16600276D02*
X10589952Y-16400276D01*
X10675667Y-16600276D02*
X10675667Y-16495514D01*
X10666143Y-16476467D01*
X10647095Y-16466943D01*
X10618524Y-16466943D01*
X10599476Y-16476467D01*
X10589952Y-16485990D01*
X10799476Y-16600276D02*
X10780429Y-16590752D01*
X10770905Y-16581228D01*
X10761381Y-16562181D01*
X10761381Y-16505038D01*
X10770905Y-16485990D01*
X10780429Y-16476467D01*
X10799476Y-16466943D01*
X10828048Y-16466943D01*
X10847095Y-16476467D01*
X10856619Y-16485990D01*
X10866143Y-16505038D01*
X10866143Y-16562181D01*
X10856619Y-16581228D01*
X10847095Y-16590752D01*
X10828048Y-16600276D01*
X10799476Y-16600276D01*
X10980429Y-16600276D02*
X10961381Y-16590752D01*
X10951857Y-16571705D01*
X10951857Y-16400276D01*
X11132810Y-16590752D02*
X11113762Y-16600276D01*
X11075667Y-16600276D01*
X11056619Y-16590752D01*
X11047095Y-16571705D01*
X11047095Y-16495514D01*
X11056619Y-16476467D01*
X11075667Y-16466943D01*
X11113762Y-16466943D01*
X11132810Y-16476467D01*
X11142333Y-16495514D01*
X11142333Y-16514562D01*
X11047095Y-16533609D01*
X11218524Y-16590752D02*
X11237571Y-16600276D01*
X11275667Y-16600276D01*
X11294714Y-16590752D01*
X11304238Y-16571705D01*
X11304238Y-16562181D01*
X11294714Y-16543133D01*
X11275667Y-16533609D01*
X11247095Y-16533609D01*
X11228048Y-16524086D01*
X11218524Y-16505038D01*
X11218524Y-16495514D01*
X11228048Y-16476467D01*
X11247095Y-16466943D01*
X11275667Y-16466943D01*
X11294714Y-16476467D01*
X11370905Y-16676467D02*
X11380428Y-16666943D01*
X11399476Y-16638371D01*
X11409000Y-16619324D01*
X11418524Y-16590752D01*
X11428048Y-16543133D01*
X11428048Y-16505038D01*
X11418524Y-16457419D01*
X11409000Y-16428848D01*
X11399476Y-16409800D01*
X11380428Y-16381228D01*
X11370905Y-16371705D01*
X11732809Y-16676467D02*
X11723286Y-16666943D01*
X11704238Y-16638371D01*
X11694714Y-16619324D01*
X11685190Y-16590752D01*
X11675667Y-16543133D01*
X11675667Y-16505038D01*
X11685190Y-16457419D01*
X11694714Y-16428848D01*
X11704238Y-16409800D01*
X11723286Y-16381228D01*
X11732809Y-16371705D01*
X11809000Y-16466943D02*
X11809000Y-16600276D01*
X11809000Y-16485990D02*
X11818524Y-16476467D01*
X11837571Y-16466943D01*
X11866143Y-16466943D01*
X11885190Y-16476467D01*
X11894714Y-16495514D01*
X11894714Y-16600276D01*
X12018524Y-16600276D02*
X11999476Y-16590752D01*
X11989952Y-16581228D01*
X11980428Y-16562181D01*
X11980428Y-16505038D01*
X11989952Y-16485990D01*
X11999476Y-16476467D01*
X12018524Y-16466943D01*
X12047095Y-16466943D01*
X12066143Y-16476467D01*
X12075667Y-16485990D01*
X12085190Y-16505038D01*
X12085190Y-16562181D01*
X12075667Y-16581228D01*
X12066143Y-16590752D01*
X12047095Y-16600276D01*
X12018524Y-16600276D01*
X12142333Y-16466943D02*
X12218524Y-16466943D01*
X12170905Y-16400276D02*
X12170905Y-16571705D01*
X12180428Y-16590752D01*
X12199476Y-16600276D01*
X12218524Y-16600276D01*
X12437571Y-16466943D02*
X12437571Y-16666943D01*
X12437571Y-16476467D02*
X12456619Y-16466943D01*
X12494714Y-16466943D01*
X12513762Y-16476467D01*
X12523286Y-16485990D01*
X12532809Y-16505038D01*
X12532809Y-16562181D01*
X12523286Y-16581228D01*
X12513762Y-16590752D01*
X12494714Y-16600276D01*
X12456619Y-16600276D01*
X12437571Y-16590752D01*
X12647095Y-16600276D02*
X12628048Y-16590752D01*
X12618524Y-16571705D01*
X12618524Y-16400276D01*
X12809000Y-16600276D02*
X12809000Y-16495514D01*
X12799476Y-16476467D01*
X12780428Y-16466943D01*
X12742333Y-16466943D01*
X12723286Y-16476467D01*
X12809000Y-16590752D02*
X12789952Y-16600276D01*
X12742333Y-16600276D01*
X12723286Y-16590752D01*
X12713762Y-16571705D01*
X12713762Y-16552657D01*
X12723286Y-16533609D01*
X12742333Y-16524086D01*
X12789952Y-16524086D01*
X12809000Y-16514562D01*
X12875667Y-16466943D02*
X12951857Y-16466943D01*
X12904238Y-16400276D02*
X12904238Y-16571705D01*
X12913762Y-16590752D01*
X12932809Y-16600276D01*
X12951857Y-16600276D01*
X13094714Y-16590752D02*
X13075667Y-16600276D01*
X13037571Y-16600276D01*
X13018524Y-16590752D01*
X13009000Y-16571705D01*
X13009000Y-16495514D01*
X13018524Y-16476467D01*
X13037571Y-16466943D01*
X13075667Y-16466943D01*
X13094714Y-16476467D01*
X13104238Y-16495514D01*
X13104238Y-16514562D01*
X13009000Y-16533609D01*
X13275667Y-16600276D02*
X13275667Y-16400276D01*
X13275667Y-16590752D02*
X13256619Y-16600276D01*
X13218524Y-16600276D01*
X13199476Y-16590752D01*
X13189952Y-16581228D01*
X13180428Y-16562181D01*
X13180428Y-16505038D01*
X13189952Y-16485990D01*
X13199476Y-16476467D01*
X13218524Y-16466943D01*
X13256619Y-16466943D01*
X13275667Y-16476467D01*
X13351857Y-16676467D02*
X13361381Y-16666943D01*
X13380428Y-16638371D01*
X13389952Y-16619324D01*
X13399476Y-16590752D01*
X13409000Y-16543133D01*
X13409000Y-16505038D01*
X13399476Y-16457419D01*
X13389952Y-16428848D01*
X13380428Y-16409800D01*
X13361381Y-16381228D01*
X13351857Y-16371705D01*
M02*
